<?xml version="1.0" encoding="UTF-8" standalone="no"?>
<!-- Created with Inkscape (http://www.inkscape.org/) -->

<svg
   xmlns:dc="http://purl.org/dc/elements/1.1/"
   xmlns:cc="http://creativecommons.org/ns#"
   xmlns:rdf="http://www.w3.org/1999/02/22-rdf-syntax-ns#"
   xmlns:svg="http://www.w3.org/2000/svg"
   xmlns="http://www.w3.org/2000/svg"
   xmlns:xlink="http://www.w3.org/1999/xlink"
   xmlns:sodipodi="http://sodipodi.sourceforge.net/DTD/sodipodi-0.dtd"
   xmlns:inkscape="http://www.inkscape.org/namespaces/inkscape"
   width="400"
   height="570"
   id="svg3021"
   version="1.1"
   inkscape:version="0.48.4 r9939"
   sodipodi:docname="fire.svg">
  <defs
     id="defs3023">
    <linearGradient
       id="linearGradient3109">
      <stop
         style="stop-color:#ffff00;stop-opacity:1;"
         offset="0"
         id="stop3111" />
      <stop
         style="stop-color:#ffff00;stop-opacity:0;"
         offset="1"
         id="stop3113" />
    </linearGradient>
    <linearGradient
       id="linearGradient3051">
      <stop
         style="stop-color:#ff0000;stop-opacity:1;"
         offset="0"
         id="stop3053" />
      <stop
         style="stop-color:#ab0000;stop-opacity:1;"
         offset="1"
         id="stop3055" />
    </linearGradient>
    <linearGradient
       inkscape:collect="always"
       xlink:href="#linearGradient3109"
       id="linearGradient3115"
       x1="315.71429"
       y1="696.64789"
       x2="241.42857"
       y2="236.64789"
       gradientUnits="userSpaceOnUse" />
    <linearGradient
       inkscape:collect="always"
       xlink:href="#linearGradient3109"
       id="linearGradient3003"
       gradientUnits="userSpaceOnUse"
       x1="315.71429"
       y1="696.64789"
       x2="241.42857"
       y2="236.64789" />
    <linearGradient
       inkscape:collect="always"
       xlink:href="#linearGradient3109"
       id="linearGradient3005"
       gradientUnits="userSpaceOnUse"
       x1="315.71429"
       y1="696.64789"
       x2="241.42857"
       y2="236.64789" />
    <linearGradient
       inkscape:collect="always"
       xlink:href="#linearGradient3109"
       id="linearGradient3007"
       gradientUnits="userSpaceOnUse"
       x1="315.71429"
       y1="696.64789"
       x2="241.42857"
       y2="236.64789" />
    <linearGradient
       inkscape:collect="always"
       xlink:href="#linearGradient3109"
       id="linearGradient3009"
       gradientUnits="userSpaceOnUse"
       x1="315.71429"
       y1="696.64789"
       x2="241.42857"
       y2="236.64789" />
    <linearGradient
       inkscape:collect="always"
       xlink:href="#linearGradient3109"
       id="linearGradient3011"
       gradientUnits="userSpaceOnUse"
       x1="315.71429"
       y1="696.64789"
       x2="241.42857"
       y2="236.64789" />
    <linearGradient
       inkscape:collect="always"
       xlink:href="#linearGradient3109"
       id="linearGradient3013"
       gradientUnits="userSpaceOnUse"
       x1="315.71429"
       y1="696.64789"
       x2="241.42857"
       y2="236.64789" />
  </defs>
  <sodipodi:namedview
     id="base"
     pagecolor="#ffffff"
     bordercolor="#666666"
     borderopacity="1.0"
     inkscape:pageopacity="0.0"
     inkscape:pageshadow="2"
     inkscape:zoom="0.7"
     inkscape:cx="515.91218"
     inkscape:cy="134.56561"
     inkscape:document-units="px"
     inkscape:current-layer="layer1"
     showgrid="false"
     inkscape:window-width="1600"
     inkscape:window-height="837"
     inkscape:window-x="-8"
     inkscape:window-y="-8"
     inkscape:window-maximized="1" />
  <metadata
     id="metadata3026">
    <rdf:RDF>
      <cc:Work
         rdf:about="">
        <dc:format>image/svg+xml</dc:format>
        <dc:type
           rdf:resource="http://purl.org/dc/dcmitype/StillImage" />
        <dc:title></dc:title>
      </cc:Work>
    </rdf:RDF>
  </metadata>
  <g
     inkscape:label="Calque 1"
     inkscape:groupmode="layer"
     id="layer1"
     transform="translate(0,-482.36218)">
    <g
       id="g3015">
      <g
         transform="matrix(0.9325206,0,0,0.9325206,-81.093004,374.66229)"
         id="g3087">
        <g
           id="g3039"
           style="fill:#ff0000">
          <path
             sodipodi:nodetypes="ssssss"
             inkscape:connector-curvature="0"
             id="path3029"
             d="M 128.57143,378.07647 C 117.06093,508.77815 180.32722,731.92568 311.42857,726.6479 423.13642,722.15085 508.87398,508.30199 442.85714,418.07647 359.43078,304.05728 275.56511,239.18489 277.14286,153.79076 278.14817,99.378743 221.10258,219.56178 234.28572,272.36218 307.95496,567.4184 131.84697,340.88272 128.57143,378.07647 z"
             style="fill:#ff0000;fill-opacity:1;stroke:none" />
          <path
             style="fill:#ff0000;fill-opacity:1;stroke:none"
             d="M 120,309.50504 C 15.632359,487.34958 180.32722,731.92568 311.42857,726.6479 423.13642,722.15085 508.87398,508.30199 442.85714,418.07647 359.43078,304.05728 172.70797,300.61347 174.28572,215.21934 c 1.00531,-54.41202 -42.0812,12.65089 -30,65.71427 C 210.8121,573.13269 138.89776,277.30288 120,309.50504 z"
             id="path3031"
             inkscape:connector-curvature="0"
             sodipodi:nodetypes="ssssss" />
        </g>
        <g
           id="g3043"
           transform="matrix(-1,0,0,1,602.86712,-24.285714)"
           style="fill:#ff0000;fill-opacity:1">
          <path
             style="fill:#ff0000;fill-opacity:1;stroke:none"
             d="M 128.57143,378.07647 C 117.06093,508.77815 180.32722,731.92568 311.42857,726.6479 423.13642,722.15085 508.87398,508.30199 442.85714,418.07647 359.43078,304.05728 275.56511,239.18489 277.14286,153.79076 278.14817,99.378743 221.10258,219.56178 234.28572,272.36218 307.95496,567.4184 131.84697,340.88272 128.57143,378.07647 z"
             id="path3045"
             inkscape:connector-curvature="0"
             sodipodi:nodetypes="ssssss" />
          <path
             sodipodi:nodetypes="ssssss"
             inkscape:connector-curvature="0"
             id="path3047"
             d="M 120,309.50504 C 15.632359,487.34958 180.32722,731.92568 311.42857,726.6479 423.13642,722.15085 508.87398,508.30199 442.85714,418.07647 359.43078,304.05728 172.70797,300.61347 174.28572,215.21934 c 1.00531,-54.41202 -42.0812,12.65089 -30,65.71427 C 210.8121,573.13269 138.89776,277.30288 120,309.50504 z"
             style="fill:#ff0000;fill-opacity:1;stroke:none" />
        </g>
      </g>
      <g
         transform="matrix(0.9325206,0,0,0.9325206,-81.093004,374.66229)"
         style="fill:url(#linearGradient3115);fill-opacity:1"
         id="g3095">
        <g
           style="fill:url(#linearGradient3007);fill-opacity:1"
           id="g3097">
          <path
             style="fill:url(#linearGradient3003);fill-opacity:1;stroke:none"
             d="M 128.57143,378.07647 C 117.06093,508.77815 180.32722,731.92568 311.42857,726.6479 423.13642,722.15085 508.87398,508.30199 442.85714,418.07647 359.43078,304.05728 275.56511,239.18489 277.14286,153.79076 278.14817,99.378743 221.10258,219.56178 234.28572,272.36218 307.95496,567.4184 131.84697,340.88272 128.57143,378.07647 z"
             id="path3099"
             inkscape:connector-curvature="0"
             sodipodi:nodetypes="ssssss" />
          <path
             sodipodi:nodetypes="ssssss"
             inkscape:connector-curvature="0"
             id="path3101"
             d="M 120,309.50504 C 15.632359,487.34958 180.32722,731.92568 311.42857,726.6479 423.13642,722.15085 508.87398,508.30199 442.85714,418.07647 359.43078,304.05728 172.70797,300.61347 174.28572,215.21934 c 1.00531,-54.41202 -42.0812,12.65089 -30,65.71427 C 210.8121,573.13269 138.89776,277.30288 120,309.50504 z"
             style="fill:url(#linearGradient3005);fill-opacity:1;stroke:none" />
        </g>
        <g
           style="fill:url(#linearGradient3013);fill-opacity:1"
           transform="matrix(-1,0,0,1,602.86712,-24.285714)"
           id="g3103">
          <path
             sodipodi:nodetypes="ssssss"
             inkscape:connector-curvature="0"
             id="path3105"
             d="M 128.57143,378.07647 C 117.06093,508.77815 180.32722,731.92568 311.42857,726.6479 423.13642,722.15085 508.87398,508.30199 442.85714,418.07647 359.43078,304.05728 275.56511,239.18489 277.14286,153.79076 278.14817,99.378743 221.10258,219.56178 234.28572,272.36218 307.95496,567.4184 131.84697,340.88272 128.57143,378.07647 z"
             style="fill:url(#linearGradient3009);fill-opacity:1;stroke:none" />
          <path
             style="fill:url(#linearGradient3011);fill-opacity:1;stroke:none"
             d="M 120,309.50504 C 15.632359,487.34958 180.32722,731.92568 311.42857,726.6479 423.13642,722.15085 508.87398,508.30199 442.85714,418.07647 359.43078,304.05728 172.70797,300.61347 174.28572,215.21934 c 1.00531,-54.41202 -42.0812,12.65089 -30,65.71427 C 210.8121,573.13269 138.89776,277.30288 120,309.50504 z"
             id="path3107"
             inkscape:connector-curvature="0"
             sodipodi:nodetypes="ssssss" />
        </g>
      </g>
    </g>
  </g>
</svg>
