<?xml version="1.0"?>
<svg xmlns:rdf="http://www.w3.org/1999/02/22-rdf-syntax-ns#" xmlns="http://www.w3.org/2000/svg" xmlns:cc="http://web.resource.org/cc/" xmlns:xlink="http://www.w3.org/1999/xlink" xmlns:dc="http://purl.org/dc/elements/1.1/" xmlns:svg="http://www.w3.org/2000/svg" id="svg1931" viewBox="0 0 128 128" version="1.0" y="0" x="0">
  <defs id="defs3">
    <linearGradient id="linearGradient2834">
      <stop id="stop2836" stop-color="#ffe19c" offset="0"/>
      <stop id="stop2838" stop-color="#b79e4f" stop-opacity="0" offset="1"/>
    </linearGradient>
    <linearGradient id="linearGradient2780">
      <stop id="stop2782" stop-color="#fff" offset="0"/>
      <stop id="stop2784" stop-color="#fff" stop-opacity="0" offset="1"/>
    </linearGradient>
    <linearGradient id="linearGradient2713">
      <stop id="stop2715" offset="0"/>
      <stop id="stop2717" stop-color="#fff" offset="1"/>
    </linearGradient>
    <linearGradient id="linearGradient2707" x1="29.614" spreadMethod="reflect" gradientUnits="userSpaceOnUse" x2="44.724" gradientTransform="matrix(2.1518 0 0 1.7708 -.051304 4.3518)" y1="52.609" y2="52.609">
      <stop id="stop2703" stop-color="#a47c44" offset="0"/>
      <stop id="stop2770" stop-color="#baa363" offset=".75"/>
      <stop id="stop2705" stop-color="#d6c795" offset="1"/>
    </linearGradient>
    <linearGradient id="linearGradient2732" x1="29.094" xlink:href="#linearGradient2713" spreadMethod="reflect" gradientUnits="userSpaceOnUse" x2="29.094" gradientTransform="matrix(2.2188 0 0 1.826 -.051304 -1.0128)" y1="46.357" y2="47.296"/>
    <linearGradient id="linearGradient2736" x1="24.261" xlink:href="#linearGradient2713" spreadMethod="reflect" gradientUnits="userSpaceOnUse" x2="24.606" gradientTransform="matrix(2.2188 0 0 1.826 -.051304 -1.0128)" y1="44.011" y2="45.888"/>
    <radialGradient id="radialGradient2811" xlink:href="#linearGradient2780" gradientUnits="userSpaceOnUse" cy="22.546" cx="20.361" gradientTransform="matrix(.43334 0 0 1.435 6.4099 -.11314)" r="15.157"/>
    <radialGradient id="radialGradient2813" xlink:href="#linearGradient2780" gradientUnits="userSpaceOnUse" cy="22.546" cx="20.361" gradientTransform="matrix(.50007 0 0 1.6752 5.003 -5.1081)" r="15.157"/>
    <radialGradient id="radialGradient2815" xlink:href="#linearGradient2780" gradientUnits="userSpaceOnUse" cy="22.546" cx="20.361" gradientTransform="matrix(.62140 0 0 1.8821 2.3888 -9.4094)" r="15.157"/>
    <radialGradient id="radialGradient2869" xlink:href="#linearGradient2834" gradientUnits="userSpaceOnUse" cy="8.9814" cx="21.595" gradientTransform="matrix(2.3666 0 0 1.7265 -.40436 -.012826)" r="6.0679"/>
    <radialGradient id="radialGradient2873" xlink:href="#linearGradient2834" gradientUnits="userSpaceOnUse" cy="8.9814" cx="21.595" gradientTransform="matrix(-2.3666 0 0 1.7265 129.12 -.11292)" r="6.0679"/>
    <linearGradient id="linearGradient2895" x1="33.184" xlink:href="#linearGradient2780" gradientUnits="userSpaceOnUse" x2="33.184" gradientTransform="matrix(2.1611 0 0 1.8045 -.051304 2.2671)" y1="24.385" y2="-13.17"/>
    <linearGradient id="linearGradient2935" x1="33.184" xlink:href="#linearGradient2780" gradientUnits="userSpaceOnUse" x2="33.184" gradientTransform="matrix(2.2102 0 0 1.9643 -1.5159 -2.1713)" y1="24.385" y2="-13.17"/>
    <linearGradient id="linearGradient2943" x1="38.782" xlink:href="#linearGradient2780" gradientUnits="userSpaceOnUse" x2="38.782" gradientTransform="matrix(1.632 0 0 2.4825 -.051304 -.012826)" y1="9.5746" y2="7.5863"/>
    <linearGradient id="linearGradient2951" x1="38.363" xlink:href="#linearGradient2780" gradientUnits="userSpaceOnUse" x2="39.724" gradientTransform="matrix(1.6375 0 0 2.4742 -.051304 -.012826)" y1="11.17" y2="6.0918"/>
    <radialGradient id="radialGradient2955" xlink:href="#linearGradient2834" gradientUnits="userSpaceOnUse" cy="8.9814" cx="21.595" gradientTransform="matrix(3.085 0 0 2.0529 -15.985 -3.1493)" r="6.0679"/>
    <radialGradient id="radialGradient2959" xlink:href="#linearGradient2834" gradientUnits="userSpaceOnUse" cy="8.9814" cx="21.595" gradientTransform="matrix(-2.8463 0 0 2.0879 139.53 -3.5862)" r="6.0679"/>
    <radialGradient id="radialGradient3063" gradientUnits="userSpaceOnUse" cy="231.98" cx="8.0178" gradientTransform="scale(3.7417 .26726)" r="7.4833">
      <stop id="stop3059" stop-color="#282828" offset="0"/>
      <stop id="stop3061" stop-color="#282828" stop-opacity="0" offset="1"/>
    </radialGradient>
    <linearGradient id="linearGradient3080" x1="26.974" xlink:href="#linearGradient2780" gradientUnits="userSpaceOnUse" x2="26.974" gradientTransform="matrix(2.1361 0 0 1.826 2.3487 -1.0128)" y1="68.68" y2="44.981"/>
    <linearGradient id="linearGradient3084" x1="35.996" xlink:href="#linearGradient2780" gradientUnits="userSpaceOnUse" x2="35.996" gradientTransform="matrix(1.632 0 0 2.4361 -.051304 2.0097)" y1="1.6246" y2="11.711"/>
    <linearGradient id="linearGradient3086" x1="17.682" xlink:href="#linearGradient2713" spreadMethod="reflect" gradientUnits="userSpaceOnUse" x2="17.425" gradientTransform="matrix(2.2188 0 0 1.826 -.051304 -1.0128)" y1="60.434" y2="62.78"/>
  </defs>
  <g id="layer2" fill-rule="evenodd">
    <path id="rect2723" fill="#282828" d="m64.359 2c-20.072 0-36.231 16.159-36.231 36.231v40.256h10.064v-40.256c0-14.497 11.671-26.167 26.167-26.167s26.167 11.67 26.167 26.167v40.256h10.064v-40.256c0-20.072-16.159-36.231-36.231-36.231z"/>
    <path id="path3082" opacity=".65" fill="url(#linearGradient3084)" d="m64.359 4.6293c-18.957 0-34.218 16.307-34.218 34.909v37.528c0 14.09 8.776 26.054 21.261 31.044-8.945-4.07-15.222-12.796-15.222-23.143v-47.404c0-14.225 11.67-26.621 26.166-26.621h4.026c14.496 0 26.167 12.396 26.167 26.621v47.404c0 10.347-6.277 19.073-15.222 23.143 12.484-4.99 21.26-16.954 21.26-31.044v-37.528c0-18.602-15.261-34.909-34.218-34.909z"/>
    <path id="path2931" opacity=".5" fill="url(#linearGradient2951)" d="m64.359 2.8539c-19.51 0-35.217 15.601-35.217 34.98v39.095c0 14.677 9.033 27.141 21.881 32.341-9.206-4.24-15.666-13.332-15.666-24.11v-49.384c0-14.819 12.011-29.082 26.931-29.082l4.143-0.0001c14.919 0 26.93 14.263 26.93 29.082v49.384c0 10.778-6.46 19.87-15.666 24.11 12.848-5.2 21.881-17.664 21.881-32.341v-39.095c0-19.379-15.707-34.98-35.217-34.98z"/>
    <path id="path2861" opacity=".8" fill="url(#radialGradient2869)" d="m49.471 12.003c-5.439 3.405-8.499 9.21-7.9 11.145 0.646 2.085 4.467-7.233 15.283-10.119 8.341-2.225 0-5.6488-7.383-1.026z"/>
    <path id="path2871" opacity=".8" fill="url(#radialGradient2873)" d="m79.248 11.903c5.438 3.405 8.498 9.21 7.899 11.145-0.646 2.085-4.467-7.233-15.283-10.119-8.341-2.225 0-5.6489 7.384-1.026z"/>
    <path id="rect2875" opacity=".5" fill="url(#linearGradient2943)" d="m64.359 6.2794c-18.957 0-34.218 12.995-34.218 31.952v38.244c0 14.357 8.776 26.545 21.261 31.635-8.945-4.15-15.222-13.04-15.222-23.584v-48.308c0-14.496 11.67-26.182 26.166-26.182h4.026c14.496 0 26.167 11.686 26.167 26.182v48.308c0 10.544-6.277 19.434-15.222 23.584 12.484-5.09 21.26-17.278 21.26-31.635v-38.244c0-18.957-15.261-31.952-34.218-31.952z"/>
    <path id="path2933" opacity=".8" fill="url(#linearGradient2935)" d="m64.359 4.0389c-26.762 0-32.937 23.315-32.937 33.86 0 31.634 2.058 31.634 2.058 0 0-23.199 16.463-32.355 30.879-32.355 14.416 0.0002 30.879 10.103 30.879 32.355 0 31.634 2.059 31.634 2.059 0 0-10.545-6.176-33.86-32.938-33.86z"/>
    <path id="path2885" opacity=".6" fill="url(#linearGradient2895)" d="m64.359 7.0913c-26.167 0-32.205 22.3-32.205 31.988 0 29.062 2.013 29.062 2.013 0 0-21.312 16.096-30.605 30.192-30.605 14.096 0.0002 30.193 10.162 30.193 30.605 0 29.062 2.012 29.062 2.012 0 0-9.688-6.038-31.988-32.205-31.988z"/>
    <path id="path2897" opacity=".8" fill="#fff" d="m36.98 16.488c-2.876 5.248 3.027 1.931 4.398 0.273 3.854-4.659 10.367-8.0359 16.085-9.1382 4.794-0.9243 5.525-2.7757 1.577-3.0821-7.872-0.6111-19.304 6.9153-22.06 11.947z"/>
    <path id="path2901" opacity=".6" fill="#fff" d="m32.623 25.156c0.305 2.564 5.264-5.798 9.168-9.724 4.768-4.795 11.996-8.1509 15.474-8.5943 6.198-0.7905 3.256-3.828-0.629-3.0606-14.12 2.7892-24.79 14.839-24.013 21.379z"/>
    <path id="path2909" opacity=".8" fill="#fff" d="m91.58 16.452c2.894 5.237-3.02 1.942-4.397 0.29-3.871-4.645-10.397-7.9985-16.119-9.0796-4.798-0.9067-6.148-2.7522-2.201-3.0732 7.87-0.64 19.942 6.8408 22.717 11.863z"/>
    <path id="path2911" opacity=".6" fill="#fff" d="m95.798 24.925c-0.295 2.566-5.284-5.779-9.203-9.69-4.786-4.777-12.026-8.1068-15.505-8.5374-6.201-0.7677-3.293-3.6952 0.617-3.0623 14.141 2.3015 24.844 14.747 24.091 21.29z"/>
    <path id="path2953" opacity=".4" fill="url(#radialGradient2955)" d="m49.032 11.138c-7.089 4.049-11.079 10.952-10.298 13.252 0.842 2.479 5.823-8.601 19.923-12.032 10.873-2.646 0-6.7166-9.625-1.22z"/>
    <path id="path2957" opacity=".4" fill="url(#radialGradient2959)" d="m79.54 10.945c6.541 4.118 10.222 11.138 9.501 13.479-0.776 2.521-5.372-8.748-18.381-12.238-10.031-2.6913 0.001-6.8314 8.88-1.241z"/>
    <path id="path3055" opacity=".4" fill="url(#radialGradient3063)" transform="matrix(2.0128 0 0 2.0128 3.9743 -.012826)" d="m58 62a28 2 0 1 1 -56 0 28 2 0 1 1 56 0z"/>
    <path id="path3065" opacity=".4" fill="url(#radialGradient3063)" transform="matrix(2.0128 0 0 2.516 3.9743 -34.231)" d="m58 62a28 2 0 1 1 -56 0 28 2 0 1 1 56 0z"/>
    <path id="path3067" opacity=".4" fill="url(#radialGradient3063)" transform="matrix(2.0128 0 0 2.0128 3.9743 -2.0257)" d="m58 62a28 2 0 1 1 -56 0 28 2 0 1 1 56 0z"/>
  </g>
  <g id="layer1" fill-rule="evenodd">
    <rect id="rect1941" rx=".5" ry=".5" height="66.259" width="80.513" y="57.359" x="24.103" fill="url(#linearGradient2707)"/>
    <rect id="rect2709" opacity=".03" rx=".5" ry=".5" height="66.259" width="80.513" y="57.359" x="24.103" fill="url(#linearGradient2732)"/>
    <rect id="rect2734" opacity=".03" rx=".5" ry=".5" height="66.259" width="80.513" y="57.359" x="24.103" fill="url(#linearGradient2736)"/>
    <rect id="rect2738" opacity=".03" rx=".5" ry=".5" height="66.259" width="80.513" y="57.359" x="24.103" fill="url(#linearGradient3086)"/>
    <path id="path2727" opacity=".5" fill="#fff" d="m26.619 57.359c1.81 2.122 18.145 3.786 38.655 3.786 20.229 0 36.296-1.647 38.486-3.727-0.03-0.003-0.03-0.059-0.06-0.059h-77.081z"/>
    <g id="g2798" transform="matrix(1.7195 0 0 1.9816 4.4209 1.4876)">
      <path id="path2778" opacity=".40278" fill="url(#radialGradient2811)" d="m13.971 30.767c-0.439 2.629-0.931 19.309 0.697 22.88 1.592 3.493 1.393-16.667 5.273-19.84 3.921-3.207-5.555-5.52-5.97-3.04z"/>
      <path id="path2790" opacity=".3" fill="url(#radialGradient2813)" d="m13.729 30.942c-0.508 3.069-1.075 22.541 0.803 26.71 1.837 4.078 1.608-19.457 6.085-23.161 4.525-3.744-6.41-6.445-6.888-3.549z"/>
      <path id="path2794" opacity=".2" fill="url(#radialGradient2815)" d="m13.232 31.092c-0.631 3.449-1.335 25.325 0.998 30.009 2.283 4.582 1.998-21.86 7.562-26.022 5.623-4.206-7.966-7.24-8.56-3.987z"/>
    </g>
    <g id="g2803" transform="matrix(-1.7195 0 0 1.9816 124.3 1.4876)">
      <path id="path2805" opacity=".40278" fill="url(#radialGradient2811)" d="m13.971 30.767c-0.439 2.629-0.931 19.309 0.697 22.88 1.592 3.493 1.393-16.667 5.273-19.84 3.921-3.207-5.555-5.52-5.97-3.04z"/>
      <path id="path2807" opacity=".3" fill="url(#radialGradient2813)" d="m13.729 30.942c-0.508 3.069-1.075 22.541 0.803 26.71 1.837 4.078 1.608-19.457 6.085-23.161 4.525-3.744-6.41-6.445-6.888-3.549z"/>
      <path id="path2809" opacity=".2" fill="url(#radialGradient2815)" d="m13.232 31.092c-0.631 3.449-1.335 25.325 0.998 30.009 2.283 4.582 1.998-21.86 7.562-26.022 5.623-4.206-7.966-7.24-8.56-3.987z"/>
    </g>
    <path id="rect3077" opacity=".25" fill="url(#linearGradient3080)" d="m103.12 114.72v7.89c0 0.56-0.44 1.01-0.97 1.01h-75.578c-0.537 0-0.969-0.45-0.969-1.01v-28.014c0 29.514 77.517-20.879 77.517 20.124z"/>
    <path id="path2768" opacity=".5" d="m25.647 123.62c1.81-2.12 18.145-3.79 38.655-3.79 20.229 0 36.298 1.65 38.488 3.73-0.04 0-0.03 0.06-0.06 0.06h-77.083z"/>
  </g>
  <metadata>
    <rdf:RDF>
      <cc:Work>
        <dc:format>image/svg+xml</dc:format>
        <dc:type rdf:resource="http://purl.org/dc/dcmitype/StillImage"/>
        <cc:license rdf:resource="http://creativecommons.org/licenses/publicdomain/"/>
        <dc:publisher>
          <cc:Agent rdf:about="http://openclipart.org/">
            <dc:title>Openclipart</dc:title>
          </cc:Agent>
        </dc:publisher>
        <dc:title>Padlock</dc:title>
        <dc:date>2008-07-18T18:57:37</dc:date>
        <dc:description>clip art, clipart, image, lock, lock, media, metal, metal, padlock, padlock, photorealistic, photorealistic, png, public domain, security, security, svg, </dc:description>
        <dc:source>http://openclipart.org/detail/17931/padlock-by-aj</dc:source>
        <dc:creator>
          <cc:Agent>
            <dc:title>AJ</dc:title>
          </cc:Agent>
        </dc:creator>
        <dc:subject>
          <rdf:Bag>
            <rdf:li>clip art</rdf:li>
            <rdf:li>clipart</rdf:li>
            <rdf:li>image</rdf:li>
            <rdf:li>lock</rdf:li>
            <rdf:li>media</rdf:li>
            <rdf:li>metal</rdf:li>
            <rdf:li>padlock</rdf:li>
            <rdf:li>photorealistic</rdf:li>
            <rdf:li>png</rdf:li>
            <rdf:li>public domain</rdf:li>
            <rdf:li>security</rdf:li>
            <rdf:li>svg</rdf:li>
          </rdf:Bag>
        </dc:subject>
      </cc:Work>
      <cc:License rdf:about="http://creativecommons.org/licenses/publicdomain/">
        <cc:permits rdf:resource="http://creativecommons.org/ns#Reproduction"/>
        <cc:permits rdf:resource="http://creativecommons.org/ns#Distribution"/>
        <cc:permits rdf:resource="http://creativecommons.org/ns#DerivativeWorks"/>
      </cc:License>
    </rdf:RDF>
  </metadata>
</svg>
