<?xml version="1.0"?>
<svg xmlns:rdf="http://www.w3.org/1999/02/22-rdf-syntax-ns#" xmlns="http://www.w3.org/2000/svg" xmlns:cc="http://web.resource.org/cc/" xmlns:dc="http://purl.org/dc/elements/1.1/" xmlns:sodipodi="http://inkscape.sourceforge.net/DTD/sodipodi-0.dtd" xmlns:svg="http://www.w3.org/2000/svg" id="Layer_1" style="enable-background:new 0 0 134.148 129.182" space="preserve" sodipodi:version="0.32" viewBox="0 0 134.148 129.182" version="1.1" sodipodi:docname="chiave.svg" sodipodi:docbase="F:\openclip\svg da inviare">
  <sodipodi:namedview id="base" bordercolor="#666666" borderopacity="1.0" pagecolor="#ffffff"/>
  <g id="g3">
    <radialGradient id="XMLID_4_" gradientUnits="userSpaceOnUse" cy="64.744" cx="67.27" r="65.126">
      <stop id="stop6" stop-color="#bbb" offset="0"/>
      <stop id="stop8" stop-color="#B8B8B8" offset=".264"/>
      <stop id="stop10" stop-color="#AEAEAE" offset=".4681"/>
      <stop id="stop12" stop-color="#9E9E9E" offset=".6521"/>
      <stop id="stop14" stop-color="#868686" offset=".8242"/>
      <stop id="stop16" stop-color="#696969" offset=".9867"/>
      <stop id="stop18" stop-color="#666" offset="1"/>
    </radialGradient>
    <path id="path20" fill="url(#XMLID_4_)" d="m127.13 98.151c-12.559-11.979-25.117-23.959-37.676-35.938-4.66-4.445-9.321-8.89-13.982-13.336 0.055 0.053 5.816-19.615 6.028-21.822 0.647-6.682 0.692-15.334-4.287-20.541-4.351-4.546-11.067-5.757-17.106-5.476-4.203 0.196-8.358 1.089-12.354 2.373-1.9 0.609-10.873 5.508-12.025 4.783-10.796-6.776-26.293-5.809-32.936 6.391-3.325 6.106-2.072 13.347 0.625 19.425 0.961 2.16 2.111 4.241 3.425 6.205 1.611 2.411 0.106 4.666-0.627 7.422-1.993 7.474-4.54 16.159-1.97 23.807 2.693 8.016 10.858 11.223 18.727 11.036 10.812-0.257 21.452-4.837 30.928-9.698 1.609 0.202 4.951 4.677 6.139 5.8 2.467 2.33 2.842 1.965 6.316 1.646 1.399-0.129 5.391-1.391 5.563 0.318 0.337 3.349 0.674 6.697 1.012 10.045 0.604 5.992 9.58 3.229 13.355 2.881-0.109 3.014-1.272 7.698-0.024 10.486 1.975 4.423 7.798 1.091 11.064 0.171-0.122 3.008-1.203 7.37-0.134 10.219 1.619 4.318 7.689 0.899 10.594 0.041-0.113 2.465-1.95 9.542 1.105 10.72 5.466 2.114 15.262 4.976 20.995 2.287 5.771-2.708 3.488-13.293 3.031-18.24-0.45-4.96-2.26-7.66-5.78-11.009m-89.53-61.624c-7.437 7.83-19.516-3.599-12.113-11.469 7.446-7.833 19.525 3.591 12.113 11.469"/>
    <linearGradient id="XMLID_5_" y2="492.16" gradientUnits="userSpaceOnUse" y1="492.16" gradientTransform="matrix(0 -68.244 -68.244 0 33618 -16303)" x2="-238.44" x1="-240.14">
      <stop id="stop23" stop-color="#fff" offset="0"/>
      <stop id="stop25" offset="1"/>
    </linearGradient>
    <path id="path27" fill="url(#XMLID_5_)" d="m24.877 24.482c-8.173 8.647 5.164 21.263 13.343 12.62 8.177-8.644-5.164-21.264-13.343-12.62m1.493 11.784c-7.015-6.635 3.339-17.587 10.355-10.951 7.034 6.647-3.345 17.585-10.355 10.951"/>
    <path id="path29" fill="#8D8D91" d="m7.598 37.291c-2.002-2.288-6.401-19.489-3.509-18.876 2.105 0.447 3.667 10.338 5.443 12.267 0.928 1.009 2.492 3.118 3.903 3.354 2.044 0.34-1.064 5.85-1.417 6.922-3.502 10.643-3.736 27.42 10.035 30.544 11.389 2.584 24.523-2.817 34.697-7.438 1.88-0.853 7.063-4.864 8.688-3.33 1.619 1.531 3.236 3.061 4.855 4.591 11.783 11.136 23.567 22.275 35.347 33.413 2.817 2.665 5.54 5.529 8.502 8.037 2.215 1.689 9.808 8.765 13.145 6.096 4.276-3.421 0.626-12.276-1.66-15.5 2.632 2.453 5.282 4.742 6.112 8.392 1.155 5.068 3.081 16.411-0.84 20.444-4.947 5.087-16.667 0.642-22.153-0.929-3.365-2.448-1.823-6.82-1.636-10.889-2.347 0.694-7.493 3.532-9.697 1.423-2.522-2.351-0.896-8.708-0.779-11.683-3.266 0.923-9.076 4.25-11.051-0.171-1.245-2.788-0.082-7.473 0.027-10.486-3.088 0.285-6.999 1.384-10.049 0.816-4.513-0.838-3.768-8.271-4.111-11.689-0.475-4.701-3.909-2.542-8.176-2.148-3.512 0.322-6.323-4.148-8.757-6.444-2.64-2.496-14.46 4.712-18.308 5.91-7.172 2.236-15.52 3.912-22.827 1.287-19.087-6.865-11.993-30.606-5.774-43.915"/>
    <path id="path31" fill="#757578" d="m38.829 23.278c-9.645-9.129-23.801 5.844-14.151 14.966 9.65 9.125 23.806-5.841 14.151-14.966m-1.225 13.24c-7.43 7.848-19.533-3.6-12.109-11.452 7.426-7.851 19.53 3.598 12.109 11.452"/>
    <path id="path33" fill="#C4C4C7" d="m68.767 11.805c-8.89-5.957-18.245-4.007-27.608-0.012-1.441 0.617-4.71 3.232-6.25 1.868-2.289-2.026-3.615-3.76-6.591-5.029-3.34-1.425-7.337-2.517-10.946-1.5 4.248-2.122 9.14-0.973 13.161 1.09 2.758 1.414 4.304 4.168 7.047 2.594 8.351-4.797 19.75-9.266 29.46-6.387 9.357 2.771 11.283 12.741 10.718 21.301-0.308 4.639-1.244 9.25-2.651 13.678-0.311 0.975-4.523 9.122-4.355 9.441-0.943-1.795 3.484-12.098 3.854-14.354 1.272-7.746 1.261-17.632-5.839-22.69"/>
    <path id="path35" fill="#9D9DA0" d="m62.879 79.445c2.426-0.166 4.852-0.332 7.278-0.499 2.938-0.201 2.151 1.035 2.507 3.884 0.727 5.832 0.774 10.438 7.786 9.957 0.654-0.044 5.935-0.69 5.996-0.201 0.362 2.911 0.723 5.821 1.085 8.729 0.594 4.783 6.189 2.073 9.771 1.554 0.313 2.518-0.142 8.37 1.294 10.371 2.167 3.023 5.782 0.644 9.036-0.248 0.306 2.462-0.11 8.299 1.432 10.153 5.229 1.609 16.725 6.358 21.665 1.713-21.688-20.509-43.376-41.017-65.063-61.523-3.233 3.952-6.811 6.083-11.111 8.528 2.783 2.536 5.558 5.062 8.333 7.59"/>
    <path id="path37" fill="#9D9DA0" d="m63.514 80.221c1.502-0.169 7.796-1.852 8.842-1.002 1.282 1.041 1.18 8.366 1.427 10.118 0.572 4.053 3.647 4.284 6.867 4.064 5.075-0.345 5.602-1.492 6.285 3.537 0.299 2.194-0.083 6.36 2.021 7.609 1.714 1.019 7.542-2.479 7.972 0.073 0.496 2.948 0.522 6.565 1.632 9.35 1.096 2.763 6.43 0.215 8.339-0.23 0.41 2.433 0.235 7.785 1.778 9.633 4.627 1.62 15.826 6.816 20.379 2.539-11.8-11.267-23.597-22.532-35.395-33.798-7.333-7.002-14.664-14.004-21.998-21.005-1.898-1.814-3.796-3.628-5.694-5.439-1.158-1.105-8.43 6.154-10.139 7.351 2.557 2.4 5.118 4.804 7.68 7.202"/>
    <path id="path39" fill="#BCBCBF" d="m66.531 78.496c4.057-0.409 6.599-2.17 7.866 1.947 1.142 3.706 1.703 9.372 5.907 10.929 2.984 1.106 7.228-2.05 8.176 1.722 0.614 2.453 0.711 9.028 4.174 8.675 6.159-0.63 5.873-1.258 7.261 4.738 1.106 4.776 1.287 6.014 6.398 4.937 4.232-0.892 3.535 4.468 4.369 8.122 0.396 1.732 15.144 7.599 17.053 4.875-20.663-19.289-41.326-38.575-61.991-57.864-1.682 2.293-4.046 3.984-6.579 5.23 2.462 2.23 4.916 4.46 7.371 6.69"/>
    <path id="path41" fill="#BCBCBF" d="m102.18 82.889c-7.743-6.938-16.208-12.905-24.299-19.41-2.363-1.9-9.448-6.931-7.108-10.92 1.783-3.042 32.503 26.479 34.887 28.853 6.933 6.9 13.687 14.045 19.912 21.598 1.607 1.951 6.809 7.553 4.529 10.622-1.037 1.396-8.711-8.998-9.292-9.739-5.75-7.362-11.64-14.741-18.63-21.001"/>
    <path id="path43" fill="#B8B8BB" d="m59.407 62.688c-0.508 0.547-0.087 0.095 0 0"/>
    <path id="path45" fill="#A9A9AC" d="m11.443 36.767c-1.202 0-3.532 8.501-3.835 9.623-1.163 4.328-1.709 8.86-1.38 13.337 0.484 6.574 2.943 13.093 9.396 15.789 14.694 6.136 33.476-1.481 43.565-12.59-3.066 1.533-5.676 5.134-8.829 6.931-4.304 2.453-9.052 4.105-13.925 4.973-8.144 1.45-19.849 1.582-25.257-5.877-4.014-5.542-3.931-13.085-2.938-19.553 0.145-0.939 2.202-12.633 3.203-12.633"/>
    <path id="path47" fill="#B8B8BB" d="m60.338 61.635c-0.311 0.352-0.621 0.7-0.931 1.052 0.31-0.352 0.62-0.7 0.931-1.052"/>
    <linearGradient id="XMLID_6_" y2="458.67" gradientUnits="userSpaceOnUse" y1="458.67" gradientTransform="matrix(-287.01 566.01 566.01 287.01 -3.2755e5 2544.6)" x2="-235.93" x1="-237.63">
      <stop id="stop50" stop-color="#fff" offset="0"/>
      <stop id="stop52" offset="1"/>
    </linearGradient>
    <path id="path54" fill="url(#XMLID_6_)" d="m36.122 7.442c-16.365-10.048-41.089 0.097-35.247 21.855 1.139 4.245 3.131 8.309 5.628 11.92 1.288 1.862-2.045 9.726-2.499 11.679-2.548 10.956-2.869 24.488 9.705 29.097 10.325 3.786 22.507-0.389 32.085-4.467 2.693-1.147 5.34-2.398 7.951-3.727 0.929 0.88 1.857 1.759 2.786 2.637 0.96 0.909 4.266 5.162 5.615 5.035 2.977-0.276 5.954-0.554 8.931-0.829 0.313 3.106 0.627 6.212 0.941 9.317 0.733 7.274 8.279 4.919 13.39 4.451-0.103 2.791-1.108 6.841-0.097 9.48 2.064 5.382 7.219 2.472 11.112 1.367-0.119 3.008-1.179 7.235 0.261 10.045 2.06 4.02 7.215 1.12 10.201 0.243-0.13 2.779-1.818 8.95 1.642 10.329 5.459 2.173 13.306 4.016 19.235 3.035 6.724-1.114 6.478-7.512 6.34-13.035-0.109-4.402 0.185-9.836-2.226-13.757-1.967-3.199-5.571-5.93-8.29-8.521-6.037-5.759-12.074-11.517-18.112-17.275-6.759-6.444-13.516-12.889-20.271-19.333-2.145-2.044-4.288-4.088-6.434-6.134-2.806-2.677-2.179-2.124-0.577-6.313 4.175-10.924 9.101-31.532-2.049-40.106-11.381-8.736-28.831-2.808-40.017 3.024m0.335 1.716c10.488-5.548 26.338-11.325 37.522-4.181 11.062 7.068 7.049 25.754 3.737 35.928-0.506 1.553-4.059 7.423-2.895 8.531 1.624 1.55 3.248 3.1 4.873 4.649 6.584 6.279 13.167 12.558 19.75 18.836 9.636 9.188 19.483 18.201 28.921 27.592 2.512 2.501 3.398 5.23 3.721 8.728 0.426 4.606 2.672 15.281-2.854 17.512-3.207 1.293-20.366 0.317-21.022-3.518-1.059-1.93 0.374-7.706 0.484-9.989-2.361 0.694-9.237 4.361-10.646 0.96-1.244-2.996 0.034-8.017 0.168-11.221-2.649 0.751-9.361 4.274-11.062 0.867-1.424-2.855-0.093-8.163 0.023-11.309-4.992 0.463-12.851 3.381-13.539-3.445-0.339-3.368-0.679-6.736-1.019-10.104-0.043-0.427-8.608 0.598-9.677 0.697-1.775 0.166-5.548-4.778-6.822-5.983-3.254-3.08-4.746-0.522-8.814 1.296-9.943 4.443-23.723 9.743-34.408 4.79-13.131-6.086-8.336-22.736-5.447-33.509 0.458-1.738 1.809-4.121 0.723-5.641-2.283-3.199-4.125-6.803-5.306-10.551-3.774-11.973 3.594-24.361 16.624-25.403 4.351-0.348 8.734 0.71 12.668 2.535 1.472 0.68 2.924 1.867 4.301 1.935"/>
  </g>
  <metadata>
    <rdf:RDF>
      <cc:Work>
        <dc:format>image/svg+xml</dc:format>
        <dc:type rdf:resource="http://purl.org/dc/dcmitype/StillImage"/>
        <cc:license rdf:resource="http://creativecommons.org/licenses/publicdomain/"/>
        <dc:publisher>
          <cc:Agent rdf:about="http://openclipart.org/">
            <dc:title>Openclipart</dc:title>
          </cc:Agent>
        </dc:publisher>
        <dc:title>Architetto -- Chiave</dc:title>
        <dc:date>2009-04-30T07:37:24</dc:date>
        <dc:description>Key icon by Francesco 'Architetto' Rollandin.&#xD;\n</dc:description>
        <dc:source>http://openclipart.org/detail/25502/architetto----chiave-by-anonymous-25502</dc:source>
        <dc:creator>
          <cc:Agent>
            <dc:title>Anonymous</dc:title>
          </cc:Agent>
        </dc:creator>
        <dc:subject>
          <rdf:Bag>
            <rdf:li>clip art</rdf:li>
            <rdf:li>clipart</rdf:li>
            <rdf:li>icon</rdf:li>
            <rdf:li>image</rdf:li>
            <rdf:li>key</rdf:li>
            <rdf:li>media</rdf:li>
            <rdf:li>png</rdf:li>
            <rdf:li>public domain</rdf:li>
            <rdf:li>security</rdf:li>
            <rdf:li>svg</rdf:li>
          </rdf:Bag>
        </dc:subject>
      </cc:Work>
      <cc:License rdf:about="http://creativecommons.org/licenses/publicdomain/">
        <cc:permits rdf:resource="http://creativecommons.org/ns#Reproduction"/>
        <cc:permits rdf:resource="http://creativecommons.org/ns#Distribution"/>
        <cc:permits rdf:resource="http://creativecommons.org/ns#DerivativeWorks"/>
      </cc:License>
    </rdf:RDF>
  </metadata>
</svg>
