<?xml version="1.0"?>
<svg xmlns:rdf="http://www.w3.org/1999/02/22-rdf-syntax-ns#" xmlns="http://www.w3.org/2000/svg" xmlns:cc="http://web.resource.org/cc/" xmlns:xlink="http://www.w3.org/1999/xlink" xmlns:dc="http://purl.org/dc/elements/1.1/" xmlns:svg="http://www.w3.org/2000/svg" id="svg1931" viewBox="0 0 175.5 141.75" version="1.0" y="0" x="0">
  <defs id="defs3">
    <linearGradient id="linearGradient3057">
      <stop id="stop3059" stop-color="#282828" offset="0"/>
      <stop id="stop3061" stop-color="#282828" stop-opacity="0" offset="1"/>
    </linearGradient>
    <linearGradient id="linearGradient2834">
      <stop id="stop2836" stop-color="#ffe19c" offset="0"/>
      <stop id="stop2838" stop-color="#b79e4f" stop-opacity="0" offset="1"/>
    </linearGradient>
    <linearGradient id="linearGradient2780">
      <stop id="stop2782" stop-color="#fff" offset="0"/>
      <stop id="stop2784" stop-color="#fff" stop-opacity="0" offset="1"/>
    </linearGradient>
    <linearGradient id="linearGradient2713">
      <stop id="stop2715" offset="0"/>
      <stop id="stop2717" stop-color="#fff" offset="1"/>
    </linearGradient>
    <linearGradient id="linearGradient2707" y2="52.609" spreadMethod="reflect" gradientUnits="userSpaceOnUse" y1="52.609" gradientTransform="matrix(2.1518 0 0 1.7708 -.051304 4.3518)" x2="44.724" x1="29.614">
      <stop id="stop2703" stop-color="#a47c44" offset="0"/>
      <stop id="stop2770" stop-color="#baa363" offset=".75"/>
      <stop id="stop2705" stop-color="#d6c795" offset="1"/>
    </linearGradient>
    <linearGradient id="linearGradient2732" y2="47.296" xlink:href="#linearGradient2713" spreadMethod="reflect" gradientUnits="userSpaceOnUse" y1="46.357" gradientTransform="matrix(2.2188 0 0 1.826 -.051304 -1.0128)" x2="29.094" x1="29.094"/>
    <linearGradient id="linearGradient2736" y2="45.888" xlink:href="#linearGradient2713" spreadMethod="reflect" gradientUnits="userSpaceOnUse" y1="44.011" gradientTransform="matrix(2.2188 0 0 1.826 -.051304 -1.0128)" x2="24.606" x1="24.261"/>
    <radialGradient id="radialGradient2811" xlink:href="#linearGradient2780" gradientUnits="userSpaceOnUse" cy="22.546" cx="20.361" gradientTransform="matrix(.43334 0 0 1.435 6.4099 -.11314)" r="15.157"/>
    <radialGradient id="radialGradient2813" xlink:href="#linearGradient2780" gradientUnits="userSpaceOnUse" cy="22.546" cx="20.361" gradientTransform="matrix(.50007 0 0 1.6752 5.003 -5.1081)" r="15.157"/>
    <radialGradient id="radialGradient2815" xlink:href="#linearGradient2780" gradientUnits="userSpaceOnUse" cy="22.546" cx="20.361" gradientTransform="matrix(.62140 0 0 1.8821 2.3888 -9.4094)" r="15.157"/>
    <radialGradient id="radialGradient2869" xlink:href="#linearGradient2834" gradientUnits="userSpaceOnUse" cy="8.9814" cx="21.595" gradientTransform="matrix(2.3666 0 0 1.7265 -.40436 8.5703)" r="6.0679"/>
    <radialGradient id="radialGradient2873" xlink:href="#linearGradient2834" gradientUnits="userSpaceOnUse" cy="8.9814" cx="21.595" gradientTransform="matrix(-2.3666 0 0 1.7265 129.12 8.4702)" r="6.0679"/>
    <linearGradient id="linearGradient2895" y2="-13.17" xlink:href="#linearGradient2780" gradientUnits="userSpaceOnUse" y1="24.385" gradientTransform="matrix(2.1611 0 0 1.8045 -.051304 10.85)" x2="33.184" x1="33.184"/>
    <linearGradient id="linearGradient2935" y2="-13.17" xlink:href="#linearGradient2780" gradientUnits="userSpaceOnUse" y1="24.385" gradientTransform="matrix(2.2102 0 0 1.9643 -1.5159 6.4118)" x2="33.184" x1="33.184"/>
    <linearGradient id="linearGradient2943" y2="7.5863" xlink:href="#linearGradient2780" gradientUnits="userSpaceOnUse" y1="9.5746" gradientTransform="matrix(1.632 0 0 2.4825 -.051304 8.5703)" x2="38.782" x1="38.782"/>
    <linearGradient id="linearGradient2951" y2="6.0918" xlink:href="#linearGradient2780" gradientUnits="userSpaceOnUse" y1="11.17" gradientTransform="matrix(1.6375 0 0 2.4742 -.051304 8.5703)" x2="39.724" x1="38.363"/>
    <radialGradient id="radialGradient2955" xlink:href="#linearGradient2834" gradientUnits="userSpaceOnUse" cy="8.9814" cx="21.595" gradientTransform="matrix(3.085 0 0 2.0529 -15.985 5.4338)" r="6.0679"/>
    <radialGradient id="radialGradient2959" xlink:href="#linearGradient2834" gradientUnits="userSpaceOnUse" cy="8.9814" cx="21.595" gradientTransform="matrix(-2.8463 0 0 2.0879 139.53 4.9969)" r="6.0679"/>
    <radialGradient id="radialGradient3063" xlink:href="#linearGradient3057" gradientUnits="userSpaceOnUse" cy="231.98" cx="8.0178" gradientTransform="matrix(7.5313 0 0 .53795 -61.705 14.541)" r="7.4833"/>
    <radialGradient id="radialGradient3069" xlink:href="#linearGradient3057" gradientUnits="userSpaceOnUse" cy="231.98" cx="8.0178" gradientTransform="matrix(7.5313 0 0 .53795 -48.644 17.38)" r="7.4833"/>
    <radialGradient id="radialGradient3071" xlink:href="#linearGradient3057" gradientUnits="userSpaceOnUse" cy="231.98" cx="8.0178" gradientTransform="matrix(7.5313 0 0 .67244 -57.6 -15.945)" r="7.4833"/>
    <linearGradient id="linearGradient3080" y2="44.981" xlink:href="#linearGradient2780" gradientUnits="userSpaceOnUse" y1="68.68" gradientTransform="matrix(2.1361 0 0 1.826 2.3487 -1.0128)" x2="26.974" x1="26.974"/>
    <linearGradient id="linearGradient3084" y2="11.711" xlink:href="#linearGradient2780" gradientUnits="userSpaceOnUse" y1="1.6246" gradientTransform="matrix(1.632 0 0 2.4361 -.051304 10.593)" x2="35.996" x1="35.996"/>
    <linearGradient id="linearGradient3086" y2="62.78" xlink:href="#linearGradient2713" spreadMethod="reflect" gradientUnits="userSpaceOnUse" y1="60.434" gradientTransform="matrix(2.2188 0 0 1.826 -.051304 -1.0128)" x2="17.425" x1="17.682"/>
  </defs>
  <g id="layer2" fill-rule="evenodd" transform="translate(61.201 -7.4636)">
    <path id="rect2723" d="m64.359 10.583c-20.072 0-36.231 16.159-36.231 36.231v40.256h10.064v-40.256c0-14.496 11.671-26.167 26.167-26.167s26.167 11.671 26.167 26.167v40.256h10.064v-40.256c0-20.072-16.159-36.231-36.231-36.231z" fill="#282828"/>
    <path id="path3082" opacity=".65" d="m64.359 13.212c-18.957 0-34.218 16.307-34.218 34.909v37.528c0 14.09 8.776 26.051 21.261 31.051-8.945-4.08-15.222-12.8-15.222-23.15v-47.404c0-14.225 11.67-26.621 26.166-26.621h4.026c14.496 0 26.167 12.396 26.167 26.621v47.404c0 10.35-6.277 19.07-15.222 23.15 12.484-5 21.26-16.961 21.26-31.051v-37.528c0-18.602-15.261-34.909-34.218-34.909z" fill="url(#linearGradient3084)"/>
    <path id="path2931" opacity=".5" d="m64.359 11.437c-19.51 0-35.217 15.601-35.217 34.98v39.095c0 14.678 9.033 27.138 21.881 32.348-9.206-4.25-15.666-13.34-15.666-24.117v-49.384c0-14.819 12.011-29.082 26.931-29.082h4.143c14.919 0 26.93 14.263 26.93 29.082v49.384c0 10.777-6.46 19.867-15.666 24.117 12.848-5.21 21.881-17.67 21.881-32.348v-39.095c0-19.379-15.707-34.98-35.217-34.98z" fill="url(#linearGradient2951)"/>
    <path id="path2861" opacity=".8" d="m49.471 20.586c-5.439 3.406-8.499 9.21-7.9 11.145 0.646 2.085 4.467-7.233 15.283-10.119 8.341-2.225 0-5.649-7.383-1.026z" fill="url(#radialGradient2869)"/>
    <path id="path2871" opacity=".8" d="m79.248 20.486c5.438 3.405 8.498 9.21 7.899 11.145-0.646 2.085-4.467-7.233-15.283-10.119-8.341-2.225 0-5.649 7.384-1.026z" fill="url(#radialGradient2873)"/>
    <path id="rect2875" opacity=".5" d="m64.359 14.862c-18.957 0-34.218 12.995-34.218 31.952v38.244c0 14.357 8.776 26.542 21.261 31.642-8.945-4.15-15.222-13.05-15.222-23.591v-48.308c0-14.496 11.67-26.182 26.166-26.182h4.026c14.496 0 26.167 11.686 26.167 26.182v48.308c0 10.541-6.277 19.441-15.222 23.591 12.484-5.1 21.26-17.285 21.26-31.642v-38.244c0-18.957-15.261-31.952-34.218-31.952z" fill="url(#linearGradient2943)"/>
    <path id="path2933" opacity=".8" d="m64.359 12.622c-26.762 0-32.937 23.315-32.937 33.86 0 31.635 2.058 31.635 2.058 0 0-23.199 16.463-32.355 30.879-32.355s30.879 10.103 30.879 32.355c0 31.635 2.059 31.635 2.059 0 0-10.545-6.176-33.86-32.938-33.86z" fill="url(#linearGradient2935)"/>
    <path id="path2885" opacity=".6" d="m64.359 15.674c-26.167 0-32.205 22.301-32.205 31.988 0 29.062 2.013 29.062 2.013 0 0-21.312 16.096-30.605 30.192-30.605s30.193 10.162 30.193 30.605c0 29.062 2.012 29.062 2.012 0 0-9.687-6.038-31.988-32.205-31.988z" fill="url(#linearGradient2895)"/>
    <path id="path2897" opacity=".8" d="m36.98 25.071c-2.876 5.248 3.027 1.931 4.398 0.273 3.854-4.659 10.367-8.036 16.085-9.138 4.794-0.924 5.525-2.776 1.577-3.082-7.872-0.611-19.304 6.915-22.06 11.947z" fill="#fff"/>
    <path id="path2901" opacity=".6" d="m32.623 33.739c0.305 2.564 5.264-5.798 9.168-9.724 4.768-4.795 11.996-8.151 15.474-8.594 6.198-0.791 3.256-3.828-0.629-3.061-14.12 2.789-24.79 14.839-24.013 21.379z" fill="#fff"/>
    <path id="path2909" opacity=".8" d="m91.58 25.035c2.894 5.237-3.02 1.942-4.397 0.29-3.871-4.645-10.397-7.998-16.119-9.08-4.798-0.906-6.148-2.752-2.201-3.073 7.87-0.64 19.942 6.842 22.717 11.863z" fill="#fff"/>
    <path id="path2911" opacity=".6" d="m95.798 33.508c-0.295 2.566-5.284-5.779-9.203-9.69-4.786-4.777-12.026-8.107-15.505-8.537-6.201-0.768-3.293-3.696 0.617-3.063 14.141 2.302 24.844 14.747 24.091 21.29z" fill="#fff"/>
    <path id="path2953" opacity=".4" d="m49.032 19.721c-7.089 4.049-11.079 10.952-10.298 13.252 0.842 2.48 5.823-8.601 19.923-12.032 10.873-2.646 0-6.717-9.625-1.22z" fill="url(#radialGradient2955)"/>
    <path id="path2957" opacity=".4" d="m79.54 19.528c6.541 4.119 10.222 11.139 9.501 13.479-0.776 2.521-5.372-8.748-18.381-12.238-10.031-2.691 0.001-6.831 8.88-1.241z" fill="url(#radialGradient2959)"/>
    <path id="path3055" opacity=".4" d="m55.039 139.34c0 2.22-25.233 4.02-56.359 4.02s-56.359-1.8-56.359-4.02c0-2.23 25.233-4.03 56.359-4.03s56.359 1.8 56.359 4.03z" fill="url(#radialGradient3063)"/>
    <path id="path3065" opacity=".4" d="m59.144 140.05c0 2.78-25.233 5.03-56.359 5.03-31.127 0-56.359-2.25-56.359-5.03s25.232-5.03 56.359-5.03c31.126 0 56.359 2.25 56.359 5.03z" fill="url(#radialGradient3071)"/>
    <path id="path3067" opacity=".4" d="m68.1 142.17c0 2.23-25.233 4.03-56.359 4.03s-56.359-1.8-56.359-4.03c0-2.22 25.233-4.02 56.359-4.02s56.359 1.8 56.359 4.02z" fill="url(#radialGradient3069)"/>
  </g>
  <g id="layer1" fill-rule="evenodd" transform="translate(0 8.5831)">
    <rect id="rect1941" rx=".5" ry=".5" height="66.259" width="80.513" y="57.359" x="24.103" fill="url(#linearGradient2707)"/>
    <rect id="rect2709" opacity=".03" rx=".5" ry=".5" height="66.259" width="80.513" y="57.359" x="24.103" fill="url(#linearGradient2732)"/>
    <rect id="rect2734" opacity=".03" rx=".5" ry=".5" height="66.259" width="80.513" y="57.359" x="24.103" fill="url(#linearGradient2736)"/>
    <rect id="rect2738" opacity=".03" rx=".5" ry=".5" height="66.259" width="80.513" y="57.359" x="24.103" fill="url(#linearGradient3086)"/>
    <path id="path2727" opacity=".5" d="m26.619 57.359c1.81 2.122 18.145 3.786 38.655 3.786 20.229 0 36.296-1.647 38.486-3.727-0.03-0.003-0.03-0.059-0.06-0.059h-77.081z" fill="#fff"/>
    <g id="g2798" transform="matrix(1.7195 0 0 1.9816 4.4209 1.4876)">
      <path id="path2778" opacity=".40278" d="m13.971 30.767c-0.439 2.629-0.931 19.309 0.697 22.88 1.592 3.493 1.393-16.667 5.273-19.84 3.921-3.207-5.555-5.52-5.97-3.04z" fill="url(#radialGradient2811)"/>
      <path id="path2790" opacity=".3" d="m13.729 30.942c-0.508 3.069-1.075 22.541 0.803 26.71 1.837 4.078 1.608-19.457 6.085-23.161 4.525-3.744-6.41-6.445-6.888-3.549z" fill="url(#radialGradient2813)"/>
      <path id="path2794" opacity=".2" d="m13.232 31.092c-0.631 3.449-1.335 25.325 0.998 30.009 2.283 4.582 1.998-21.86 7.562-26.022 5.623-4.206-7.966-7.24-8.56-3.987z" fill="url(#radialGradient2815)"/>
    </g>
    <g id="g2803" transform="matrix(-1.7195 0 0 1.9816 124.3 1.4876)">
      <path id="path2805" opacity=".40278" d="m13.971 30.767c-0.439 2.629-0.931 19.309 0.697 22.88 1.592 3.493 1.393-16.667 5.273-19.84 3.921-3.207-5.555-5.52-5.97-3.04z" fill="url(#radialGradient2811)"/>
      <path id="path2807" opacity=".3" d="m13.729 30.942c-0.508 3.069-1.075 22.541 0.803 26.71 1.837 4.078 1.608-19.457 6.085-23.161 4.525-3.744-6.41-6.445-6.888-3.549z" fill="url(#radialGradient2813)"/>
      <path id="path2809" opacity=".2" d="m13.232 31.092c-0.631 3.449-1.335 25.325 0.998 30.009 2.283 4.582 1.998-21.86 7.562-26.022 5.623-4.206-7.966-7.24-8.56-3.987z" fill="url(#radialGradient2815)"/>
    </g>
    <path id="rect3077" opacity=".25" d="m103.12 114.72v7.89c0 0.56-0.44 1.01-0.97 1.01h-75.578c-0.537 0-0.969-0.45-0.969-1.01v-28.014c0 29.514 77.517-20.879 77.517 20.124z" fill="url(#linearGradient3080)"/>
    <path id="path2768" opacity=".5" d="m25.647 123.62c1.81-2.12 18.145-3.79 38.655-3.79 20.229 0 36.298 1.65 38.488 3.73-0.04 0-0.03 0.06-0.06 0.06h-77.083z"/>
  </g>
  <metadata>
    <rdf:RDF>
      <cc:Work>
        <dc:format>image/svg+xml</dc:format>
        <dc:type rdf:resource="http://purl.org/dc/dcmitype/StillImage"/>
        <cc:license rdf:resource="http://creativecommons.org/licenses/publicdomain/"/>
        <dc:publisher>
          <cc:Agent rdf:about="http://openclipart.org/">
            <dc:title>Openclipart</dc:title>
          </cc:Agent>
        </dc:publisher>
        <dc:title>lock - open</dc:title>
        <dc:date>2008-02-06T02:54:54</dc:date>
        <dc:description>clip art, clipart, image, lock, lock, media, open, open, padlock, padlock, png, public domain, security, security, svg, tool, tool, </dc:description>
        <dc:source>http://openclipart.org/detail/12939/lock---open-by-anonymous-12939</dc:source>
        <dc:creator>
          <cc:Agent>
            <dc:title>Anonymous</dc:title>
          </cc:Agent>
        </dc:creator>
        <dc:subject>
          <rdf:Bag>
            <rdf:li>clip art</rdf:li>
            <rdf:li>clipart</rdf:li>
            <rdf:li>image</rdf:li>
            <rdf:li>lock</rdf:li>
            <rdf:li>media</rdf:li>
            <rdf:li>open</rdf:li>
            <rdf:li>padlock</rdf:li>
            <rdf:li>png</rdf:li>
            <rdf:li>public domain</rdf:li>
            <rdf:li>security</rdf:li>
            <rdf:li>svg</rdf:li>
            <rdf:li>tool</rdf:li>
          </rdf:Bag>
        </dc:subject>
      </cc:Work>
      <cc:License rdf:about="http://creativecommons.org/licenses/publicdomain/">
        <cc:permits rdf:resource="http://creativecommons.org/ns#Reproduction"/>
        <cc:permits rdf:resource="http://creativecommons.org/ns#Distribution"/>
        <cc:permits rdf:resource="http://creativecommons.org/ns#DerivativeWorks"/>
      </cc:License>
    </rdf:RDF>
  </metadata>
</svg>
