<?xml version="1.0"?>
<svg xmlns:rdf="http://www.w3.org/1999/02/22-rdf-syntax-ns#" xmlns="http://www.w3.org/2000/svg" xmlns:cc="http://creativecommons.org/ns#" xmlns:xlink="http://www.w3.org/1999/xlink" xmlns:dc="http://purl.org/dc/elements/1.1/" xmlns:svg="http://www.w3.org/2000/svg" id="svg2" xml:space="preserve" overflow="visible" viewBox="0 0 48 48" version="1.0" enable-background="new 0 0 128 129.396"><defs id="defs365"><radialGradient id="XMLID_52_" gradientUnits="userSpaceOnUse" cy="23.333" cx="165.06" gradientTransform="matrix(1 0 0 1.0103 1.008e-18 -.15980)" r="7.2848"><stop id="stop812" stop-color="#EF3535" offset="0"/><stop id="stop2239" stop-color="#c91a1a" offset="0"/><stop id="stop814" stop-color="#ff4c4c" offset="1"/></radialGradient><linearGradient id="XMLID_897_" y2="10.711" gradientUnits="userSpaceOnUse" x2="296.94" y1="4.7593" x1="292.97"><stop id="stop45093" stop-color="#EEEEEC" offset="0"/><stop id="stop45095" stop-color="#fff" offset="1"/></linearGradient><linearGradient id="linearGradient2269"><stop id="stop2271" offset="0"/><stop id="stop2273" stop-opacity="0" offset="1"/></linearGradient><linearGradient id="linearGradient2975" x1="292.97" xlink:href="#XMLID_897_" gradientUnits="userSpaceOnUse" y1="4.7593" gradientTransform="matrix(-4.1278 0 0 4.1366 2003.5 504.25)" x2="296.94" y2="10.711"/><linearGradient id="linearGradient2977" x1="20.288" gradientUnits="userSpaceOnUse" y1="6.4604" gradientTransform="translate(759.02 516.16)" x2="24.326" y2="23.943"><stop id="stop2231" stop-color="#e2e2e2" offset="0"/><stop id="stop2233" stop-color="#d8d8d8" offset="1"/></linearGradient><linearGradient id="linearGradient2979" x1="294.59" xlink:href="#XMLID_52_" gradientUnits="userSpaceOnUse" x2="297.19" y1="12.188" y2="13.34"/><linearGradient id="linearGradient2981" x1="296.49" xlink:href="#XMLID_52_" gradientUnits="userSpaceOnUse" y1="15.507" gradientTransform="matrix(3.6379 0 0 3.4704 -297.09 500.15)" x2="296.53" y2="9.877"/><linearGradient id="linearGradient2983" x1="292.97" xlink:href="#XMLID_897_" gradientUnits="userSpaceOnUse" y1="4.7593" gradientTransform="matrix(4.0534 0 0 4.1366 -416.51 504.25)" x2="296.94" y2="10.711"/><linearGradient id="linearGradient2987" y2="22.861" gradientUnits="userSpaceOnUse" y1="23.843" x2="24.19" x1="22.225"><stop id="stop695" stop-color="#BABDB6" offset="0"/><stop id="stop697" stop-color="#EEEEEC" offset="1"/></linearGradient><linearGradient id="linearGradient2989" x1="7.1848" xlink:href="#XMLID_52_" gradientUnits="userSpaceOnUse" y1="31.057" gradientTransform="matrix(1.1619 0 0 .99250 756.59 516.42)" x2="25.152" y2="50.775"/><linearGradient id="linearGradient2991" x1="13.825" xlink:href="#XMLID_52_" gradientUnits="userSpaceOnUse" y1="40.069" gradientTransform="matrix(1.1619 0 0 .99250 756.36 516.22)" x2="7.6701" y2="2.3262"/><radialGradient id="radialGradient2993" xlink:href="#XMLID_52_" gradientUnits="userSpaceOnUse" cy="37.5" cx="34.376" gradientTransform="matrix(1 0 0 1.0604 759.02 513.86)" r="8.3888"/><linearGradient id="linearGradient2995" y2="13.803" gradientUnits="userSpaceOnUse" y1="13.6" x2="298.87" x1="298.48"><stop id="stop2253" stop-color="#df2a2a" offset="0"/><stop id="stop2255" stop-color="#df2a2a" stop-opacity="0" offset="1"/></linearGradient><linearGradient id="linearGradient2997" y2="13.803" gradientUnits="userSpaceOnUse" y1="13.6" x2="298.87" x1="298.48"><stop id="stop2261" stop-color="#9a0c00" offset="0"/><stop id="stop2263" stop-color="#9a0c00" stop-opacity="0" offset="1"/></linearGradient><linearGradient id="linearGradient2999" x1="296.76" xlink:href="#XMLID_52_" gradientUnits="userSpaceOnUse" y1="12.012" gradientTransform="matrix(3.6244 0 0 3.6244 -294.16 499.31)" x2="297.8" y2="10.947"/><linearGradient id="linearGradient3001" x1="39.62" gradientUnits="userSpaceOnUse" y1="44.541" gradientTransform="matrix(1.1619 0 0 .99250 753.91 516.22)" x2="-3.5325" y2="-11.889"><stop id="stop16852" stop-color="#EF3535" offset="0"/><stop id="stop16854" stop-color="#a40000" stop-opacity="0" offset="1"/></linearGradient><radialGradient id="radialGradient3003" xlink:href="#linearGradient2269" gradientUnits="userSpaceOnUse" cy="41.625" cx="25.188" gradientTransform="matrix(1 0 0 .32526 2.3523e-13 28.086)" r="18.062"/><linearGradient id="linearGradient3084" y2="16.357" gradientUnits="userSpaceOnUse" y1="58.076" x2="32.35" x1="42.426"><stop id="stop3080" stop-color="#c4a000" offset="0"/><stop id="stop3082" stop-color="#fce94f" offset="1"/></linearGradient><linearGradient id="linearGradient3105" y2="70.073" gradientUnits="userSpaceOnUse" y1="11.914" x2="52.132" x1="28.835"><stop id="stop3101" stop-color="#fff" offset="0"/><stop id="stop3103" stop-color="#fff" stop-opacity="0" offset="1"/></linearGradient><radialGradient id="radialGradient3253" xlink:href="#linearGradient2269" gradientUnits="userSpaceOnUse" cy="41.625" cx="25.188" gradientTransform="matrix(1 0 0 .32526 2.3456e-13 28.086)" r="18.062"/></defs>
<path id="path3251" opacity=".26705" style="color:#000000" d="m43.25 41.625a18.062 5.875 0 1 1 -36.125 0 18.062 5.875 0 1 1 36.125 0z" fill-rule="evenodd" transform="matrix(.96886 0 0 .46521 6.0969 24.903)" fill="url(#radialGradient3253)"/><path id="path1465" d="m44.469 3.6875l-28.031 40.782 28.031-0.001v-40.782zm-5.938 19.812v14h-9.031l9.031-14z" fill-rule="evenodd" stroke="#c4a000" stroke-width="1.0274px" fill="url(#linearGradient3084)"/><path id="path3006" opacity=".63874" d="m43.5 43.5v-36.656l-25.125 36.594 25.125 0.062z" stroke="url(#linearGradient3105)" stroke-width="1px" fill="none"/><g id="g1903" transform="matrix(.82792 0 0 .82792 -628.86 -425.08)"><path id="path16717" stroke-linejoin="round" d="m793.2 517.78c0.21 0.07 0.42 0.14 0.62 0.22 0.65 2.19 3.67 4.42 2.53 6.6-3.83 6.38-7.63 12.85-11.43 19.28-0.74 0.15-1.49 0.23-2.25 0.24-1.58 0.05-3.21-0.19-4.72-0.73 5.05-8.55 10.11-17.12 15.25-25.61z" stroke="#888a85" stroke-linecap="round" stroke-width="1.2078" fill="url(#linearGradient2975)"/><path id="path16719" d="m793.31 520.4c-0.23 0.31-0.45 0.88-0.68 1.16-4.05 6.75-8.17 13.5-12.23 20.22-0.06 0.25-0.81 1.01-0.01 0.94 1.11 0.2 2.27 0.35 3.38 0.06 3.76-6.22 7.45-12.48 11.2-18.7 0.34-0.39 0.41-0.93 0.05-1.31-0.53-0.82-1.07-1.68-1.61-2.46l-0.07 0.07-0.03 0.02z" fill="url(#linearGradient2977)"/><polygon id="polygon45129" stroke-linejoin="round" fill="url(#linearGradient2979)" transform="matrix(3.6379 0 0 3.4704 -297.09 500.15)" stroke="#9a0c00" stroke-linecap="round" stroke-width=".33993" points="297.04 12.3 296.4 13.385 295.13 14.719 294.73 13.673 295.75 11.96"/><path id="polygon16896" d="m779.43 543.12c-1.22 0.49-1.21 2.04-1.93 2.97-0.34 0.71-0.94 1.34-1.2 2.1 0 0.51 0.45 1.36 1.04 0.9 1.38-1.14 2.56-2.54 3.44-4.12 0.23-0.49 0.8-0.9 0.87-1.41-0.54-0.57-1.51-0.53-2.22-0.44z" fill="url(#linearGradient2981)"/><path id="polygon45097" stroke-linejoin="round" d="m771.98 517.78c-0.2 0.07-0.41 0.14-0.61 0.22-0.64 2.19-3.6 4.42-2.48 6.6 3.76 6.38 7.49 12.85 11.22 19.28 0.73 0.15 1.47 0.23 2.21 0.24 1.56 0.05 3.16-0.19 4.64-0.73-4.96-8.55-9.93-17.12-14.98-25.61z" stroke="#888a85" stroke-linecap="round" stroke-width="1.2078" fill="url(#linearGradient2983)"/><path id="path16635" d="m771.74 520.4c-0.38 1.13-1.45 1.96-1.71 3.16 3.71 6.4 7.47 12.77 11.18 19.16 1.19 0.26 2.42 0.09 3.61-0.16-0.19-0.74-0.74-1.33-1.03-2.03-3.9-6.57-7.82-13.13-11.68-19.72-0.01-0.15-0.22-0.48-0.37-0.41z" fill="url(#linearGradient2977)"/><path id="path16731" style="color:#000000" transform="matrix(.97989 0 0 1 759.34 516.33)" fill="url(#linearGradient2987)" d="m24.19 23.843a0.98253 0.98253 0 1 1 -1.965 0 0.98253 0.98253 0 1 1 1.965 0z"/><path id="path45138" stroke="#a40000" fill="url(#linearGradient2989)" d="m776.72 546.44c3.24 1.73 3.5 6.61 0.58 10.92-2.92 4.3-7.9 6.39-11.14 4.67s-3.49-6.61-0.58-10.91c2.92-4.3 7.91-6.39 11.14-4.68zm-1.85 2.74c-1.44-0.76-4.51 0.54-6.47 3.44-1.96 2.89-1.82 5.91-0.39 6.67 1.44 0.77 4.51-0.54 6.47-3.43 1.97-2.89 1.83-5.91 0.39-6.68z"/><path id="path16771" d="m773.35 546.74c-1.93 0.39-3.64 1.45-5.05 2.48-0.75 0.69-1.24 1.45-1.91 2.25-1.71 2.36-2.43 5.45-1.08 8.07 0.62 1.46 2.65 2.05 4.37 1.68 1.45-0.25 2.68-1.16 3.81-1.8 0.93-0.79 1.56-1.62 2.34-2.59 1.81-2.47 2.79-5.75 1.3-8.51-0.73-1.14-2.24-1.75-3.78-1.58zm0.47 0.96c2.02 0.25 3.36 2.03 3.12 3.72 0.02 2.29-1.14 4.45-2.72 6.24-1.42 1.4-3.35 2.72-5.66 2.63-1.36 0-2.44-0.91-2.82-1.96-0.62-2.53 0.2-5.26 1.97-7.34 1.36-1.52 3.19-2.88 5.46-3.24 0.22-0.01 0.44-0.04 0.65-0.05z" fill="url(#linearGradient2991)"/><path id="path11967" stroke="#a40000" fill="url(#radialGradient2993)" d="m789.36 546.44c-3.24 1.73-3.5 6.61-0.58 10.92 2.92 4.3 7.9 6.39 11.14 4.67 3.23-1.72 3.49-6.61 0.58-10.91-2.92-4.3-7.91-6.39-11.14-4.68zm1.85 2.74c1.44-0.76 4.51 0.54 6.47 3.44 1.96 2.89 1.82 5.91 0.38 6.67-1.43 0.77-4.5-0.54-6.46-3.43-1.97-2.89-1.83-5.91-0.39-6.68z"/><polygon id="polygon45101" stroke-linejoin="round" fill="url(#linearGradient2995)" transform="matrix(3.6244 0 0 3.6244 -294.16 499.31)" stroke="url(#linearGradient2997)" stroke-linecap="round" stroke-width=".33325" points="296.96 12.3 297.6 13.385 298.87 14.719 299.27 13.673 298.25 11.96"/><path id="polygon16860" d="m785.18 544.09c-0.43 0.2-1.02 0.2-1.34 0.5 0.95 1.4 1.89 2.92 2.85 4.22 0.67 0.75 1.35 1.5 2.11 2.16 0.74-1.39 0.14-3.06-0.81-4.19-0.6-0.9-0.83-2.11-1.84-2.59-0.31-0.12-0.65-0.18-0.97-0.1z" fill="url(#linearGradient2999)"/><path id="path16795" d="m791.3 546.6c-1.52 0.23-2.89 1.09-3.24 2.39-1.13 2.4-0.21 5.12 1.28 7.23 1.11 1.34 1.94 2.93 3.64 3.77 1.47 0.93 3.34 1.89 5.22 1.3 1.51-0.43 2.37-1.68 2.68-2.97 0.6-2.31-0.3-4.67-1.71-6.63-0.66-0.92-1.33-1.89-2.11-2.7-1.19-0.9-2.64-1.65-4.09-2.23-0.53-0.11-1.11-0.23-1.67-0.16zm0.44 1.21c1.76-0.06 3.23 0.74 4.38 1.77 1.03 0.97 2.02 1.81 2.66 3 1.08 1.82 1.39 3.98 0.84 5.97-0.53 1.32-2.23 1.97-3.79 1.61-1.98-0.23-3.22-1.67-4.53-2.81-1.5-1.43-2.44-3.48-2.51-5.48 0.01-1.02-0.03-2.18 0.7-3.03 0.41-0.55 1.38-1.06 2.25-1.03z" fill="url(#linearGradient3001)"/><path id="path2267" opacity=".26705" style="color:#000000" d="m43.25 41.625a18.062 5.875 0 1 1 -36.125 0 18.062 5.875 0 1 1 36.125 0z" fill-rule="evenodd" transform="matrix(1.2561 0 0 .81915 751.82 525.25)" fill="url(#radialGradient3003)"/></g><path id="path3022" d="m43.506 40.616h-0.758" fill-opacity=".75" fill-rule="evenodd" stroke="#c4a000" stroke-linecap="square" stroke-width="1px" fill="#2e3436"/><path id="path3046" d="m43.506 36.616h-0.758" fill-opacity=".75" fill-rule="evenodd" stroke="#c4a000" stroke-linecap="square" stroke-width="1px" fill="#2e3436"/><path id="path3050" d="m43.506 32.616h-0.758" fill-opacity=".75" fill-rule="evenodd" stroke="#c4a000" stroke-linecap="square" stroke-width="1px" fill="#2e3436"/><path id="path3054" d="m43.506 28.616h-0.758" fill-opacity=".75" fill-rule="evenodd" stroke="#c4a000" stroke-linecap="square" stroke-width="1px" fill="#2e3436"/><path id="path3058" d="m43.506 24.616h-0.758" fill-opacity=".75" fill-rule="evenodd" stroke="#c4a000" stroke-linecap="square" stroke-width="1px" fill="#2e3436"/><path id="path3062" d="m43.506 20.616h-0.758" fill-opacity=".75" fill-rule="evenodd" stroke="#c4a000" stroke-linecap="square" stroke-width="1px" fill="#2e3436"/><path id="path3066" d="m43.506 16.616h-0.758" fill-opacity=".75" fill-rule="evenodd" stroke="#c4a000" stroke-linecap="square" stroke-width="1px" fill="#2e3436"/><path id="path3070" d="m43.506 12.616h-0.758" fill-opacity=".75" fill-rule="evenodd" stroke="#c4a000" stroke-linecap="square" stroke-width="1px" fill="#2e3436"/><metadata><rdf:RDF><cc:Work><dc:format>image/svg+xml</dc:format><dc:type rdf:resource="http://purl.org/dc/dcmitype/StillImage"/><cc:license rdf:resource="http://creativecommons.org/licenses/publicdomain/"/><dc:publisher><cc:Agent rdf:about="http://openclipart.org/"><dc:title>Openclipart</dc:title></cc:Agent></dc:publisher><dc:title>tango applications accessories</dc:title><dc:date>2010-03-29T08:58:03</dc:date><dc:description>"Accessories" icon from &lt;a href="http://tango.freedesktop.org/Tango_Desktop_Project"&gt; Tango Project &lt;/a&gt; &#xD;\n&lt;br&gt;&lt;br&gt;&#xD;\nSince version 0.8.90 Tango Project icons are Public Domain: &lt;a href="http://tango.freedesktop.org/Frequently_Asked_Questions#Terms_of_Use.3F"&gt; Tango Project FAQ &lt;/a&gt;</dc:description><dc:source>http://openclipart.org/detail/35365/tango-applications-accessories-by-warszawianka</dc:source><dc:creator><cc:Agent><dc:title>warszawianka</dc:title></cc:Agent></dc:creator><dc:subject><rdf:Bag><rdf:li>clip art</rdf:li><rdf:li>clipart</rdf:li><rdf:li>externalsource</rdf:li><rdf:li>icon</rdf:li><rdf:li>ruler</rdf:li><rdf:li>scissors</rdf:li><rdf:li>tango</rdf:li></rdf:Bag></dc:subject></cc:Work><cc:License rdf:about="http://creativecommons.org/licenses/publicdomain/"><cc:permits rdf:resource="http://creativecommons.org/ns#Reproduction"/><cc:permits rdf:resource="http://creativecommons.org/ns#Distribution"/><cc:permits rdf:resource="http://creativecommons.org/ns#DerivativeWorks"/></cc:License></rdf:RDF></metadata></svg>
