<?xml version="1.0"?>
<svg xmlns:rdf="http://www.w3.org/1999/02/22-rdf-syntax-ns#" xmlns="http://www.w3.org/2000/svg" xmlns:cc="http://creativecommons.org/ns#" xmlns:xlink="http://www.w3.org/1999/xlink" xmlns:dc="http://purl.org/dc/elements/1.1/" xmlns:svg="http://www.w3.org/2000/svg" id="svg11300" viewBox="0 0 48 48">
  <defs id="defs3">
    <radialGradient id="radialGradient278" gradientUnits="userSpaceOnUse" cy="125" cx="55" r="14.375">
      <stop id="stop12513" stop-color="#fff" offset="0"/>
      <stop id="stop12517" stop-color="#fff520" stop-opacity=".89109" offset=".5"/>
      <stop id="stop12514" stop-color="#fff300" stop-opacity="0" offset="1"/>
    </radialGradient>
    <radialGradient id="radialGradient3822" gradientUnits="userSpaceOnUse" cy="19.009" cx="31.113" r="8.6621">
      <stop id="stop3818" offset="0"/>
      <stop id="stop3820" stop-opacity="0" offset="1"/>
    </radialGradient>
    <linearGradient id="linearGradient4307" x1="8.9156" gradientUnits="userSpaceOnUse" y1="37.197" gradientTransform="matrix(3.1238 0 0 .96969 -31.888 -19.595)" x2="9.8855" y2="52.091">
      <stop id="stop2154" stop-color="#9aa29a" offset="0"/>
      <stop id="stop2156" stop-color="#b5beb5" offset="1"/>
    </linearGradient>
    <radialGradient id="radialGradient4309" gradientUnits="userSpaceOnUse" cy="10.584" cx="11.329" r="15.532">
      <stop id="stop10655" stop-color="#f3f4ff" offset="0"/>
      <stop id="stop10657" stop-color="#9193af" offset="1"/>
    </radialGradient>
    <radialGradient id="radialGradient4311" gradientUnits="userSpaceOnUse" cy="10.045" cx="11.902" r="29.293">
      <stop id="stop2147" stop-color="#fffffd" offset="0"/>
      <stop id="stop2149" stop-color="#cbcbc9" offset="1"/>
    </radialGradient>
    <linearGradient id="linearGradient4313" y2="25.884" gradientUnits="userSpaceOnUse" y1="7.7893" x2="22.218" x1="6.3422">
      <stop id="stop42176" stop-color="#a0a0a0" offset="0"/>
      <stop id="stop42178" stop-color="#fff" offset="1"/>
    </linearGradient>
    <radialGradient id="radialGradient5202" gradientUnits="userSpaceOnUse" cy="10.973" cx="23.375" gradientTransform="matrix(3.6304 1.654e-15 -1.6087e-15 3.7421 -61.486 -29.186)" r="3.3478">
      <stop id="stop5198" stop-color="#c4a000" offset="0"/>
      <stop id="stop5200" stop-color="#c4a000" stop-opacity="0" offset="1"/>
    </radialGradient>
    <linearGradient id="linearGradient5210" y2="5.2846" gradientUnits="userSpaceOnUse" y1="4.2571" x2="20.33" x1="19.667">
      <stop id="stop5206" stop-color="#c4a000" offset="0"/>
      <stop id="stop5208" stop-color="#c4a000" stop-opacity="0" offset="1"/>
    </linearGradient>
    <radialGradient id="radialGradient5212" gradientUnits="userSpaceOnUse" cy="6.8283" cx="8.7468" r="29.89">
      <stop id="stop37937" stop-color="#9497b3" offset="0"/>
      <stop id="stop37939" stop-color="#4c4059" offset="1"/>
    </radialGradient>
  </defs>
  <g id="layer1">
    <path id="path4318" style="color:#000000" d="m39.775 19.009a8.6621 8.6621 0 1 1 -17.324 0 8.6621 8.6621 0 1 1 17.324 0z" fill-rule="evenodd" transform="matrix(2.5632 0 0 1.2196 -55.984 14.041)" fill="url(#radialGradient3822)"/>
    <path id="path14341" style="color:#000000" fill-rule="evenodd" fill="url(#linearGradient4307)" d="m18.588 1.4037l-14.361 16.693 1.2585 1.243 13.102-17.936z"/>
    <path id="path18921" fill-rule="evenodd" fill="#fefefe" d="m18.467 1.3138l-12.806 17.759 1.8291 1.615 10.977-19.374z"/>
    <path id="path27786" stroke-linejoin="round" d="m31.161 16.911a14.911 14.911 0 1 1 -29.822 0 14.911 14.911 0 1 1 29.822 0z" fill-rule="evenodd" transform="matrix(1.4315 0 0 1.4315 .56946 -1.6546)" stroke="#605773" stroke-linecap="round" stroke-width=".69855" fill="url(#radialGradient5212)"/>
    <path id="path35549" stroke-linejoin="round" d="m31.161 16.911a14.911 14.911 0 1 1 -29.822 0 14.911 14.911 0 1 1 29.822 0z" fill-rule="evenodd" transform="matrix(1.1638 0 0 1.1638 4.8248 2.7776)" stroke="url(#linearGradient4313)" stroke-linecap="round" stroke-width=".7114" fill="url(#radialGradient4311)"/>
    <path id="path4120" style="color:#000000" d="m16.679 6.6387a8.5 8.5 0 0 1 6.654 -3.2636l0.042 8.4999z" fill-rule="evenodd" transform="matrix(1.77 0 0 1.77 -17.024 1.6107)" stroke="url(#linearGradient5210)" stroke-width=".56499" fill="url(#radialGradient5202)"/>
    <path id="path34778" stroke-linejoin="round" d="m16.406 17.281a1.2188 1.2188 0 1 1 -2.437 0 1.2188 1.2188 0 1 1 2.437 0z" fill-rule="evenodd" transform="matrix(2.0733 0 0 2.0733 -7.3102 -13.137)" stroke="#000" stroke-linecap="round" stroke-width=".48232" fill="#f3f3f3"/>
    <path id="path35559" stroke="#000" stroke-linecap="round" fill="none" d="m22.177 20.718l-9.021-7.578"/>
    <path id="path35561" d="m19.409 29.777l2.96-4.494" stroke="#000" stroke-linecap="round" stroke-width="2" fill="none"/>
    <path id="path35563" fill-rule="evenodd" fill="#b6b9b1" transform="matrix(2.7495 0 0 2.7495 -22.301 -12.409)" d="m17.324 7.6932a0.61872 0.61872 0 1 1 -1.237 0 0.61872 0.61872 0 1 1 1.237 0z"/>
    <path id="path35565" fill-rule="evenodd" fill="#b6b9b1" transform="matrix(2.7495 0 0 2.7495 -22.301 14.809)" d="m17.324 7.6932a0.61872 0.61872 0 1 1 -1.237 0 0.61872 0.61872 0 1 1 1.237 0z"/>
    <path id="path35567" fill-rule="evenodd" fill="#b6b9b1" transform="matrix(2.7495 0 0 2.7495 -35.91 1.1999)" d="m17.324 7.6932a0.61872 0.61872 0 1 1 -1.237 0 0.61872 0.61872 0 1 1 1.237 0z"/>
    <path id="path35569" fill-rule="evenodd" fill="#b6b9b1" transform="matrix(2.7495 0 0 2.7495 -8.6914 1.1999)" d="m17.324 7.6932a0.61872 0.61872 0 1 1 -1.237 0 0.61872 0.61872 0 1 1 1.237 0z"/>
    <path id="path10651" stroke-linejoin="round" d="m31.161 16.911a14.911 14.911 0 1 1 -29.822 0 14.911 14.911 0 1 1 29.822 0z" transform="matrix(1.3577 0 0 1.3577 1.7699 -.49374)" stroke="url(#radialGradient4309)" stroke-linecap="round" stroke-width=".73657" fill="none"/>
    <path id="path12511" style="color:#000000" d="m69.375 125a14.375 14.375 0 1 1 -28.75 0 14.375 14.375 0 1 1 28.75 0z" transform="matrix(.61113 0 0 .61113 5.5441 -66.928)" display="block" fill="url(#radialGradient278)"/>
  </g>
  <metadata>
    <rdf:RDF>
      <cc:Work>
        <dc:format>image/svg+xml</dc:format>
        <dc:type rdf:resource="http://purl.org/dc/dcmitype/StillImage"/>
        <cc:license rdf:resource="http://creativecommons.org/licenses/publicdomain/"/>
        <dc:publisher>
          <cc:Agent rdf:about="http://openclipart.org/">
            <dc:title>Openclipart</dc:title>
          </cc:Agent>
        </dc:publisher>
        <dc:title>tango appointment new</dc:title>
        <dc:date>2010-03-18T14:54:15</dc:date>
        <dc:description>New appointment icon from &lt;a href="http://tango.freedesktop.org/Tango_Desktop_Project"&gt; Tango Project &lt;/a&gt; &#xD;\n&lt;br&gt;&lt;br&gt;&#xD;\nSince version 0.8.90 Tango Project icons are Public Domain: &lt;a href="http://tango.freedesktop.org/Frequently_Asked_Questions#Terms_of_Use.3F"&gt; Tango Project FAQ &lt;/a&gt;</dc:description>
        <dc:source>http://openclipart.org/detail/32119/tango-appointment-new-by-warszawianka</dc:source>
        <dc:creator>
          <cc:Agent>
            <dc:title>warszawianka</dc:title>
          </cc:Agent>
        </dc:creator>
        <dc:subject>
          <rdf:Bag>
            <rdf:li>appointment</rdf:li>
            <rdf:li>clip art</rdf:li>
            <rdf:li>clipart</rdf:li>
            <rdf:li>clock</rdf:li>
            <rdf:li>externalsource</rdf:li>
            <rdf:li>icon</rdf:li>
            <rdf:li>meeting</rdf:li>
            <rdf:li>new</rdf:li>
            <rdf:li>tango</rdf:li>
            <rdf:li>time</rdf:li>
          </rdf:Bag>
        </dc:subject>
      </cc:Work>
      <cc:License rdf:about="http://creativecommons.org/licenses/publicdomain/">
        <cc:permits rdf:resource="http://creativecommons.org/ns#Reproduction"/>
        <cc:permits rdf:resource="http://creativecommons.org/ns#Distribution"/>
        <cc:permits rdf:resource="http://creativecommons.org/ns#DerivativeWorks"/>
      </cc:License>
    </rdf:RDF>
  </metadata>
</svg>
