<?xml version="1.0"?>
<svg xmlns:rdf="http://www.w3.org/1999/02/22-rdf-syntax-ns#" xmlns="http://www.w3.org/2000/svg" xmlns:cc="http://creativecommons.org/ns#" xmlns:xlink="http://www.w3.org/1999/xlink" xmlns:dc="http://purl.org/dc/elements/1.1/" xmlns:svg="http://www.w3.org/2000/svg" id="svg1328" viewBox="0 0 48 48">
  <defs id="defs3">
    <linearGradient id="linearGradient4126">
      <stop id="stop4128" offset="0"/>
      <stop id="stop4130" stop-opacity="0" offset="1"/>
    </linearGradient>
    <radialGradient id="radialGradient4132" xlink:href="#linearGradient4126" gradientUnits="userSpaceOnUse" cy="40" cx="23.857" gradientTransform="matrix(1 0 0 .5 -8.9596e-15 20)" r="17.143"/>
    <radialGradient id="radialGradient3105" xlink:href="#linearGradient4126" gradientUnits="userSpaceOnUse" cy="40" cx="23.857" gradientTransform="matrix(1 0 0 .5 1.6162e-14 20)" r="17.143"/>
    <linearGradient id="linearGradient3980" y2="56.052" gradientUnits="userSpaceOnUse" y1="11.113" x2="47.32" x1="4.1914">
      <stop id="stop6490" stop-color="#D4D4D4" offset="0"/>
      <stop id="stop6492" stop-color="#E2E2E2" offset=".3982"/>
      <stop id="stop6494" stop-color="#fff" offset="1"/>
    </linearGradient>
    <linearGradient id="linearGradient4030" x1="24" gradientUnits="userSpaceOnUse" x2="24" y1="16.525" y2="13.285">
      <stop id="stop6934" stop-color="#fff" offset="0"/>
      <stop id="stop6936" stop-color="#e7e6ae" offset="1"/>
    </linearGradient>
    <linearGradient id="linearGradient4032" x1="9.3031" gradientUnits="userSpaceOnUse" y1="26.719" gradientTransform="translate(-5.0508 -5.9569)" x2="38.826" y2="26.719">
      <stop id="stop4136" stop-color="#7e807a" offset="0"/>
      <stop id="stop4148" stop-color="#babbb8" offset=".25"/>
      <stop id="stop4142" stop-color="#a5a6a3" offset=".5"/>
      <stop id="stop4138" stop-color="#333432" offset="1"/>
    </linearGradient>
    <linearGradient id="linearGradient4034" x1="25.065" gradientUnits="userSpaceOnUse" y1="21.857" gradientTransform="translate(-5.0508 -5.9569)" x2="25.208" y2="25.429">
      <stop id="stop4208" stop-color="#7d4b01" offset="0"/>
      <stop id="stop4210" stop-color="#535353" offset="1"/>
    </linearGradient>
    <linearGradient id="linearGradient4036" x1="10.116" gradientUnits="userSpaceOnUse" y1="17.512" gradientTransform="translate(-5.0508 -5.9569)" x2="38.013" y2="17.512">
      <stop id="stop4164" stop-color="#f79403" offset="0"/>
      <stop id="stop4170" stop-color="#fdb343" offset=".18692"/>
      <stop id="stop4172" stop-color="#fdb74f" offset=".43008"/>
      <stop id="stop4166" stop-color="#8f5601" offset="1"/>
    </linearGradient>
    <linearGradient id="linearGradient4038" x1="17.16" gradientUnits="userSpaceOnUse" y1="14.004" gradientTransform="translate(-5.0508 -5.9569)" x2="37.969" y2="56.576">
      <stop id="stop4178" stop-color="#fff" offset="0"/>
      <stop id="stop4180" stop-color="#fff" stop-opacity="0" offset="1"/>
    </linearGradient>
    <linearGradient id="linearGradient4042" x1="16.071" gradientUnits="userSpaceOnUse" y1="19.5" gradientTransform="translate(-5.1936 -3.3141)" x2="15.786" y2="30">
      <stop id="stop6926" stop-color="#fff" offset="0"/>
      <stop id="stop6928" stop-color="#fff" stop-opacity="0" offset="1"/>
    </linearGradient>
    <radialGradient id="radialGradient4044" xlink:href="#linearGradient4126" gradientUnits="userSpaceOnUse" cy="40" cx="23.857" gradientTransform="matrix(1 0 0 .5 -1.328e-15 20)" r="17.143"/>
  </defs>
  <g id="layer1">
    <path id="path3366" style="color:#000000" d="m41 40a17.143 8.5714 0 1 1 -34.286 0 17.143 8.5714 0 1 1 34.286 0z" transform="matrix(1.0279 0 0 1.1513 -4.9016 -14.52)" display="block" fill="url(#radialGradient4132)"/>
    <g id="g4015" transform="matrix(1.0085 0 0 .98294 -.17202 .59247)">
      <path id="path3068" style="color:#000000" d="m18.887 2.9493c-7.86 0-14.25 2.8025-14.25 6.25-0.0003 0.2474-0.0003 22.868-0.0003 23.125 0 3.448 6.3903 6.25 14.25 6.25 7.859 0 14.504-2.802 14.504-6.25v-23.125c0-3.4472-6.645-6.2497-14.504-6.2497z" display="block" stroke="url(#linearGradient4034)" stroke-miterlimit="10" stroke-width="1.0044" fill="url(#linearGradient4032)"/>
      <path id="path4152" d="m18.891 3.2058c-7.626 0-13.826 2.719-13.826 6.0637 0.0003 0.2401 0.0003 6.3075 0.0003 6.5575 0 3.345 6.1997 5.648 13.826 5.648 7.625 0 14.072-2.303 14.072-5.648v-6.5575c0-3.3447-6.447-6.0637-14.072-6.0637z" style="color:#000000" fill="url(#linearGradient4036)" display="block"/>
      <path id="path4174" opacity=".5443" style="color:#000000" d="m18.895 3.7286c-7.327 0-13.286 2.613-13.286 5.8273 0.0003 0.2306 0.0003 21.886 0.0003 22.126 0 3.214 5.9587 5.827 13.286 5.827 7.328 0 13.524-2.613 13.524-5.827v-22.126c0-3.2144-6.196-5.8274-13.524-5.8274z" stroke="url(#linearGradient4038)" stroke-miterlimit="10" stroke-width="1.0044" display="block" fill="none"/>
      <path id="path3364" style="color:#000000" d="m36.857 14.071a12.857 5.5 0 1 1 -25.714 0 12.857 5.5 0 1 1 25.714 0z" transform="matrix(1.0373 0 0 .95462 -5.9457 -4.3184)" display="block" stroke="url(#linearGradient4030)" stroke-miterlimit="10" stroke-width="1.0093" fill="#fed496"/>
      <path id="path6922" opacity=".49367" style="color:#000000" d="m8.5921 13.757l0.3571 16.786 4.5718 1.286-0.143-16.714s2.071 0 5.428-0.215c-5.215-0.233-11.183-2.474-13.214-3.928 1.417 2.092 3.0001 2.785 3.0001 2.785z" display="block" fill="url(#linearGradient4042)"/>
    </g>
    <path id="path6944" opacity=".65823" style="color:#000000" d="m41 40a17.143 8.5714 0 1 1 -34.286 0 17.143 8.5714 0 1 1 34.286 0z" transform="matrix(.36343 0 0 .36343 10.422 -7.3612)" display="block" fill="url(#radialGradient4044)"/>
    <g id="g4005" stroke-miterlimit="10" transform="translate(.30658 1)">
      <path id="path3362" style="color:#000000" d="m18.839 2.2227c-2.003 0-4.632 0.7142-4.632 1.5927v2.6296c0 0.8786 2.629 1.5927 4.632 1.5927 2.002 0 4.41-0.7141 4.41-1.5927v-2.6296c0-0.8785-2.408-1.5927-4.41-1.5927z" transform="matrix(.99539 0 0 1.0318 .065522 -.29342)" display="block" stroke="#b46c02" stroke-width=".98674" fill="#fcaf3e"/>
      <path id="path6940" style="color:#000000" d="m36.857 14.071a12.857 5.5 0 1 1 -25.714 0 12.857 5.5 0 1 1 25.714 0z" transform="matrix(.27072 0 0 .22351 12.229 .91081)" display="block" stroke="url(#linearGradient4030)" stroke-width="4.0652" fill="#fed496"/>
    </g>
  </g>
  <g id="layer2">
    <path id="path6548" opacity=".5" style="color:#000000" d="m41 40a17.143 8.5714 0 1 1 -34.286 0 17.143 8.5714 0 1 1 34.286 0z" transform="matrix(.68333 0 0 .32398 17.58 30.818)" display="block" fill="url(#radialGradient3105)"/>
    <g id="Layer_x0020_2" stroke="#000" transform="matrix(.625 0 0 .625 18.739 17.949)">
      <path id="path6480" fill="none" d="m48 48h-48v-48h48v48z"/>
    </g>
    <g id="g3982">
      <path id="path6485" d="m33.386 38.072l-10.875-20.25c-0.312-0.563-0.875-0.875-1.5-0.875s-1.187 0.375-1.5 0.937l-10.625 20.25c-0.2498 0.5-0.2498 1.188 0.0627 1.688s0.8125 0.75 1.4373 0.75h21.5c0.625 0 1.188-0.313 1.438-0.813 0.312-0.5 0.312-1.125 0.062-1.687z" transform="matrix(1.0056 0 0 .97355 12.745 5.0016)" stroke="#510000" stroke-width="1.0107" fill="#c00"/>
      <g id="g6487" stroke="#000" transform="matrix(.62850 0 0 .60847 18.786 18.651)">
        <path id="path6496" d="m9.5 37.6c-0.3 0.5 0 0.9 0.5 0.9h28.2c0.5 0 0.8-0.4 0.5-0.9l-14.3-26.6c-0.3-0.5-0.7-0.5-0.9 0l-14 26.6z" fill="url(#linearGradient3980)"/>
      </g>
    </g>
    <g id="g6498" stroke="#000" transform="matrix(.54354 0 0 .54989 21.009 19.925)">
      <path id="path6500" d="m23.9 36.5c-1.3 0-2.3-1-2.3-2.3 0-1.4 0.9-2.3 2.3-2.3s2.2 0.9 2.3 2.3c0 1.3-0.9 2.3-2.3 2.3zm-1.4-5.9l-0.6-11.5h4l-0.6 11.5h-2.9 0.1z"/>
    </g>
  </g>
  <metadata>
    <rdf:RDF>
      <cc:Work>
        <dc:format>image/svg+xml</dc:format>
        <dc:type rdf:resource="http://purl.org/dc/dcmitype/StillImage"/>
        <cc:license rdf:resource="http://creativecommons.org/licenses/publicdomain/"/>
        <dc:publisher>
          <cc:Agent rdf:about="http://openclipart.org/">
            <dc:title>Openclipart</dc:title>
          </cc:Agent>
        </dc:publisher>
        <dc:title>tango battery caution</dc:title>
        <dc:date>2010-04-03T15:21:57</dc:date>
        <dc:description>An icon from Tango Project. Since version 0.8.90 Tango Project icons are Public Domain.</dc:description>
        <dc:source>http://openclipart.org/detail/36625/tango-battery-caution-by-warszawianka</dc:source>
        <dc:creator>
          <cc:Agent>
            <dc:title>warszawianka</dc:title>
          </cc:Agent>
        </dc:creator>
        <dc:subject>
          <rdf:Bag>
            <rdf:li>attention</rdf:li>
            <rdf:li>battery</rdf:li>
            <rdf:li>clip art</rdf:li>
            <rdf:li>clipart</rdf:li>
            <rdf:li>externalsource</rdf:li>
            <rdf:li>icon</rdf:li>
            <rdf:li>tango</rdf:li>
          </rdf:Bag>
        </dc:subject>
      </cc:Work>
      <cc:License rdf:about="http://creativecommons.org/licenses/publicdomain/">
        <cc:permits rdf:resource="http://creativecommons.org/ns#Reproduction"/>
        <cc:permits rdf:resource="http://creativecommons.org/ns#Distribution"/>
        <cc:permits rdf:resource="http://creativecommons.org/ns#DerivativeWorks"/>
      </cc:License>
    </rdf:RDF>
  </metadata>
</svg>
