<?xml version="1.0"?>
<svg xmlns:rdf="http://www.w3.org/1999/02/22-rdf-syntax-ns#" xmlns="http://www.w3.org/2000/svg" xmlns:cc="http://creativecommons.org/ns#" xmlns:xlink="http://www.w3.org/1999/xlink" xmlns:dc="http://purl.org/dc/elements/1.1/" xmlns:svg="http://www.w3.org/2000/svg" id="svg8312" viewBox="0 0 270 193.6" version="1.1">
  <defs id="defs8314">
    <radialGradient id="radialGradient6718" gradientUnits="userSpaceOnUse" cy="-2.2435" cx="-1735.2" gradientTransform="matrix(.62599 .050729 -.017405 .21477 1199.3 417.99)" r="211.91">
      <stop id="stop4470" stop-color="#ffe8b1" offset="0"/>
      <stop id="stop4472" stop-color="#f5d79c" offset="1"/>
    </radialGradient>
    <radialGradient id="radialGradient6720" gradientUnits="userSpaceOnUse" cy="11.51" cx="-1747.4" gradientTransform="matrix(.55205 0 0 .091610 1070.8 325.75)" r="157.49">
      <stop id="stop4462" stop-color="#e8b168" offset="0"/>
      <stop id="stop4464" stop-color="#f6c783" offset="1"/>
    </radialGradient>
    <radialGradient id="radialGradient7751" gradientUnits="userSpaceOnUse" cy="336.33" cx="63.032" gradientTransform="matrix(1.239 .0072741 -.0023310 .39706 1.5837 196.88)" r="56.477">
      <stop id="stop7747" offset="0"/>
      <stop id="stop7749" stop-opacity="0" offset="1"/>
    </radialGradient>
    <filter id="filter7421" width="1.0794" y="-.12279" x="-.039699" height="1.2456" color-interpolation-filters="sRGB">
      <feGaussianBlur id="feGaussianBlur7423" stdDeviation="1.8361015"/>
    </filter>
    <linearGradient id="linearGradient7381" y2="355.39" gradientUnits="userSpaceOnUse" x2="54.278" gradientTransform="translate(3.75)" y1="326.39" x1="108.06">
      <stop id="stop7377" offset="0"/>
      <stop id="stop7379" stop-opacity="0" offset="1"/>
    </linearGradient>
    <filter id="filter7363" color-interpolation-filters="sRGB">
      <feGaussianBlur id="feGaussianBlur7365" stdDeviation="0.33468608"/>
    </filter>
    <radialGradient id="radialGradient7355" gradientUnits="userSpaceOnUse" cy="326.44" cx="109.06" gradientTransform="matrix(.99943 .030374 -.017544 .464 5.7896 171.66)" r="1.7812">
      <stop id="stop7351" stop-color="#483737" offset="0"/>
      <stop id="stop7353" stop-color="#d79348" offset="1"/>
    </radialGradient>
    <linearGradient id="linearGradient7344" y2="1208.4" gradientUnits="userSpaceOnUse" x2="302.82" gradientTransform="matrix(.19732 .039464 -.055250 .27624 122.38 -27.357)" y1="1208.4" x1="289.57">
      <stop id="stop5700" stop-color="#dcddde" offset="0"/>
      <stop id="stop5702" stop-color="#6c6d6f" offset="1"/>
    </linearGradient>
    <linearGradient id="linearGradient7333" y2="1098.7" gradientUnits="userSpaceOnUse" x2="943.46" gradientTransform="matrix(.28142 .012954 -.012954 .28142 -99.048 -67.112)" y1="979.58" x1="882.38">
      <stop id="stop13726" stop-color="#ff7f2a" offset="0"/>
      <stop id="stop13728" stop-color="#ed6324" offset="1"/>
    </linearGradient>
    <filter id="filter5706" color-interpolation-filters="sRGB">
      <feGaussianBlur id="feGaussianBlur5708" stdDeviation="0.30779701"/>
    </filter>
    <linearGradient id="linearGradient7916" y2="416.37" xlink:href="#linearGradient7861" gradientUnits="userSpaceOnUse" x2="78.598" y1="414.43" x1="77.316"/>
    <linearGradient id="linearGradient7861">
      <stop id="stop7863" stop-color="#333" offset="0"/>
      <stop id="stop7865" stop-color="gray" offset="1"/>
    </linearGradient>
    <radialGradient id="radialGradient7918" gradientUnits="userSpaceOnUse" cy="418.7" cx="70.583" gradientTransform="matrix(1.2256 -.25519 .16570 .79580 -85.302 98.693)" r="13.024">
      <stop id="stop7805" stop-color="#438bce" offset="0"/>
      <stop id="stop7807" stop-color="#acf" offset="1"/>
    </radialGradient>
    <linearGradient id="linearGradient7920" y2="421.45" xlink:href="#linearGradient7827" gradientUnits="userSpaceOnUse" x2="36.045" y1="420.92" x1="32.404"/>
    <linearGradient id="linearGradient7827">
      <stop id="stop7829" stop-color="#999" offset="0"/>
      <stop id="stop7835" stop-color="#f9f9f9" offset=".48348"/>
      <stop id="stop7831" stop-color="#999" offset="1"/>
    </linearGradient>
    <linearGradient id="linearGradient7922" y2="420.99" xlink:href="#linearGradient7841" gradientUnits="userSpaceOnUse" x2="37.06" y1="420.83" x1="36.285"/>
    <linearGradient id="linearGradient7841">
      <stop id="stop7843" stop-color="#999" offset="0"/>
      <stop id="stop7845" stop-color="#ccc" offset="1"/>
    </linearGradient>
    <radialGradient id="radialGradient7924" gradientUnits="userSpaceOnUse" cy="423.95" cx="67.019" gradientTransform="matrix(-.012876 -1.4256 1.3489 -.012184 -503.98 520.32)" r="22.016">
      <stop id="stop7821" stop-color="#033b89" offset="0"/>
      <stop id="stop7823" stop-color="#1c5c90" offset="1"/>
    </radialGradient>
    <radialGradient id="radialGradient7926" gradientUnits="userSpaceOnUse" cy="419.76" cx="59.66" gradientTransform="matrix(.61654 -.78732 1.9192 1.5029 -787.5 -163.44)" r="20.549">
      <stop id="stop7875" stop-color="#838989" offset="0"/>
      <stop id="stop7877" stop-color="#ccc" offset="1"/>
    </radialGradient>
    <linearGradient id="linearGradient7928" y2="386.37" gradientUnits="userSpaceOnUse" x2="64.017" y1="384.74" x1="30.283">
      <stop id="stop7813" stop-color="#578ec1" offset="0"/>
      <stop id="stop7815" stop-color="#0d56a5" offset="1"/>
    </linearGradient>
    <radialGradient id="radialGradient7930" gradientUnits="userSpaceOnUse" cy="412.35" cx="69.667" gradientTransform="matrix(1.5287 -.36988 .67714 2.7985 -316.05 -709.76)" r="10.072">
      <stop id="stop7797" stop-color="#003380" offset="0"/>
      <stop id="stop7799" stop-color="#1467b8" offset="1"/>
    </radialGradient>
    <linearGradient id="linearGradient7932" y2="412.86" xlink:href="#linearGradient7861" gradientUnits="userSpaceOnUse" x2="85.099" y1="412.86" x1="80.911"/>
    <linearGradient id="linearGradient7934" y2="424.37" xlink:href="#linearGradient7827" gradientUnits="userSpaceOnUse" x2="72.125" y1="423.84" x1="68.943"/>
    <linearGradient id="linearGradient7937" y2="406.02" gradientUnits="userSpaceOnUse" x2="77.953" y1="403.9" x1="76.418">
      <stop id="stop7853" stop-color="gray" offset="0"/>
      <stop id="stop7859" stop-color="#ccc" offset=".46238"/>
      <stop id="stop7855" stop-color="gray" offset="1"/>
    </linearGradient>
    <linearGradient id="linearGradient7940" y2="412.25" xlink:href="#linearGradient7841" gradientUnits="userSpaceOnUse" x2="89.233" y1="421.71" x1="76.285"/>
    <linearGradient id="linearGradient7943" y2="437.36" gradientUnits="userSpaceOnUse" x2="74.259" y1="398.4" x1="35.946">
      <stop id="stop7889" stop-color="#fff" offset="0"/>
      <stop id="stop7891" stop-color="#fff" stop-opacity="0" offset="1"/>
    </linearGradient>
    <filter id="filter7895" color-interpolation-filters="sRGB">
      <feGaussianBlur id="feGaussianBlur7897" stdDeviation="0.17976563"/>
    </filter>
  </defs>
  <g id="layer1" transform="translate(-243.41 -464.53)">
    <g id="g23798" transform="matrix(1.2391 0 0 1.2391 234.1 207.52)">
      <g id="g6490" transform="matrix(.90919 0 0 .97582 7.8094 6.5527)">
        <path id="path4359" d="m9.047 344.58c3.4569 5.9997 31.376 3.5392 47.102 5.0572 29.455 2.8432 58.841 8.0312 88.493 7.5857 17.087-0.25671 39.855-1.0242 50.765-5.9 4.0354-1.8035-10.969-4.9351-9.2158-8.4286 26.003 2.3847 44.263-5.0648 44.263-5.0648s-40.367-10.896-60.792-15.471c-16.397-3.6722-32.594-8.8515-49.531-9.603-24.208-1.0741-49.731-0.16381-72.174 7.3812-15.104 5.0778-43.54 16.408-38.91 24.443z" fill="url(#radialGradient6718)"/>
        <path id="path4455" d="m101.81 312.39c-18.443 0.15655-37.019 2.099-53.851 7.7578-8.1404 2.7366-20.136 7.298-28.758 12.172 5.4358 3.2306 23.898 1.7219 34.754 2.819 22.529 2.2767 44.996 6.4318 67.676 6.0751 13.069-0.20556 30.483-0.81598 38.827-4.7202 3.0867-1.4442-8.3777-3.9552-7.0367-6.7525 11.829 1.1357 28.259-0.42533 39.664-1.8793-8.5857-2.0968-16.866-4.0633-23.418-5.5069-16.386-3.61-32.592-8.8418-49.529-9.5934-6.052-0.26854-12.18-0.42368-18.328-0.3715z" fill="url(#radialGradient6720)"/>
        <path id="path4478" d="m-1192.2-153.78c0 3.9052-1.5829 7.0711-3.5355 7.0711-1.9527 0-3.5356-3.1658-3.5356-7.0711 0-3.9052 1.5829-7.0711 3.5356-7.0711 1.9526 0 3.5355 3.1658 3.5355 7.0711z" style="color:black" fill="#d79348" transform="matrix(.12271 .067447 -.036667 .066710 163.03 434.63)"/>
        <path id="path4480" d="m-1192.2-153.78c0 3.9052-1.5829 7.0711-3.5355 7.0711-1.9527 0-3.5356-3.1658-3.5356-7.0711 0-3.9052 1.5829-7.0711 3.5356-7.0711 1.9526 0 3.5355 3.1658 3.5355 7.0711z" style="color:black" fill="#d79348" transform="matrix(-.13864 .016726 -.0090931 -.075373 -142.36 352.53)"/>
        <path id="path4482" d="m-1192.2-153.78c0 3.9052-1.5829 7.0711-3.5355 7.0711-1.9527 0-3.5356-3.1658-3.5356-7.0711 0-3.9052 1.5829-7.0711 3.5356-7.0711 1.9526 0 3.5355 3.1658 3.5355 7.0711z" style="color:black" fill="#d79348" transform="matrix(-.050220 -.18866 .10256 -.027302 -14.771 112.11)"/>
        <path id="path4484" d="m-1192.2-153.78c0 3.9052-1.5829 7.0711-3.5355 7.0711-1.9527 0-3.5356-3.1658-3.5356-7.0711 0-3.9052 1.5829-7.0711 3.5356-7.0711 1.9526 0 3.5355 3.1658 3.5355 7.0711z" style="color:black" fill="#d79348" transform="matrix(-.071429 -.20704 .11256 -.038832 -40.252 83.388)"/>
        <path id="path4486" d="m-1192.2-153.78c0 3.9052-1.5829 7.0711-3.5355 7.0711-1.9527 0-3.5356-3.1658-3.5356-7.0711 0-3.9052 1.5829-7.0711 3.5356-7.0711 1.9526 0 3.5355 3.1658 3.5355 7.0711z" style="color:black" fill="#d79348" transform="matrix(.17821 -.041605 .022618 .096885 255.17 292.8)"/>
        <path id="path4488" d="m-1192.2-153.78c0 3.9052-1.5829 7.0711-3.5355 7.0711-1.9527 0-3.5356-3.1658-3.5356-7.0711 0-3.9052 1.5829-7.0711 3.5356-7.0711 1.9526 0 3.5355 3.1658 3.5355 7.0711z" style="color:black" fill="#d79348" transform="matrix(-.12506 .06443 -.035027 -.067988 -104.87 402.8)"/>
        <path id="path4490" d="m-1192.2-153.78c0 3.9052-1.5829 7.0711-3.5355 7.0711-1.9527 0-3.5356-3.1658-3.5356-7.0711 0-3.9052 1.5829-7.0711 3.5356-7.0711 1.9526 0 3.5355 3.1658 3.5355 7.0711z" style="color:black" fill="#d79348" transform="matrix(.14613 .049373 -.026842 .079445 239.17 420.69)"/>
        <path id="path4492" d="m-1192.2-153.78c0 3.9052-1.5829 7.0711-3.5355 7.0711-1.9527 0-3.5356-3.1658-3.5356-7.0711 0-3.9052 1.5829-7.0711 3.5356-7.0711 1.9526 0 3.5355 3.1658 3.5355 7.0711z" style="color:black" fill="#d79348" transform="matrix(.10128 .069075 -.037552 .055062 199.5 423.74)"/>
        <path id="path4494" d="m-1192.2-153.78c0 3.9052-1.5829 7.0711-3.5355 7.0711-1.9527 0-3.5356-3.1658-3.5356-7.0711 0-3.9052 1.5829-7.0711 3.5356-7.0711 1.9526 0 3.5355 3.1658 3.5355 7.0711z" style="color:black" fill="#d79348" transform="matrix(.074854 -.17726 .096367 .040694 184.74 132.77)"/>
        <path id="path4496" d="m-1192.2-153.78c0 3.9052-1.5829 7.0711-3.5355 7.0711-1.9527 0-3.5356-3.1658-3.5356-7.0711 0-3.9052 1.5829-7.0711 3.5356-7.0711 1.9526 0 3.5355 3.1658 3.5355 7.0711z" style="color:black" fill="#d79348" transform="matrix(.11027 -.15338 .083384 .059946 228.04 176.04)"/>
        <path id="path4498" d="m-1192.2-153.78c0 3.9052-1.5829 7.0711-3.5355 7.0711-1.9527 0-3.5356-3.1658-3.5356-7.0711 0-3.9052 1.5829-7.0711 3.5356-7.0711 1.9526 0 3.5355 3.1658 3.5355 7.0711z" style="color:black" fill="#d79348" transform="matrix(.13189 .11071 -.060190 .071702 253.56 477.96)"/>
        <path id="path4500" d="m-1192.2-153.78c0 3.9052-1.5829 7.0711-3.5355 7.0711-1.9527 0-3.5356-3.1658-3.5356-7.0711 0-3.9052 1.5829-7.0711 3.5356-7.0711 1.9526 0 3.5355 3.1658 3.5355 7.0711z" style="color:black" fill="#d79348" transform="matrix(.141 -.044779 .024344 .076653 279 289.85)"/>
        <path id="path4502" d="m-1192.2-153.78c0 3.9052-1.5829 7.0711-3.5355 7.0711-1.9527 0-3.5356-3.1658-3.5356-7.0711 0-3.9052 1.5829-7.0711 3.5356-7.0711 1.9526 0 3.5355 3.1658 3.5355 7.0711z" style="color:black" fill="#d79348" transform="matrix(.030004 -.23063 .12538 .016311 184.74 66.648)"/>
        <path id="path4504" d="m-1192.2-153.78c0 3.9052-1.5829 7.0711-3.5355 7.0711-1.9527 0-3.5356-3.1658-3.5356-7.0711 0-3.9052 1.5829-7.0711 3.5356-7.0711 1.9526 0 3.5355 3.1658 3.5355 7.0711z" style="color:black" fill="#d79348" transform="matrix(-.14290 -.012093 .0065745 -.077688 -18.615 319.84)"/>
        <path id="path4506" d="m-1192.2-153.78c0 3.9052-1.5829 7.0711-3.5355 7.0711-1.9527 0-3.5356-3.1658-3.5356-7.0711 0-3.9052 1.5829-7.0711 3.5356-7.0711 1.9526 0 3.5355 3.1658 3.5355 7.0711z" style="color:black" fill="#d79348" transform="matrix(-.000078978 -.12301 .066875 -.000042936 190.84 184.23)"/>
        <path id="path4512" d="m-1192.2-153.78c0 3.9052-1.5829 7.0711-3.5355 7.0711-1.9527 0-3.5356-3.1658-3.5356-7.0711 0-3.9052 1.5829-7.0711 3.5356-7.0711 1.9526 0 3.5355 3.1658 3.5355 7.0711z" style="color:black" fill="#d79348" transform="matrix(-.18249 -.098036 .053297 -.099211 5.9252 207.84)"/>
        <path id="path4514" d="m-1192.2-153.78c0 3.9052-1.5829 7.0711-3.5355 7.0711-1.9527 0-3.5356-3.1658-3.5356-7.0711 0-3.9052 1.5829-7.0711 3.5356-7.0711 1.9526 0 3.5355 3.1658 3.5355 7.0711z" style="color:black" fill="#d79348" transform="matrix(-.22244 .014705 -.0079942 -.12093 -69.667 328.81)"/>
        <path id="path4516" d="m-1192.2-153.78c0 3.9052-1.5829 7.0711-3.5355 7.0711-1.9527 0-3.5356-3.1658-3.5356-7.0711 0-3.9052 1.5829-7.0711 3.5356-7.0711 1.9526 0 3.5355 3.1658 3.5355 7.0711z" style="color:black" fill="#d79348" transform="matrix(.20124 .015680 -.0085244 .10940 427.65 371.54)"/>
        <path id="path4518" d="m-1192.2-153.78c0 3.9052-1.5829 7.0711-3.5355 7.0711-1.9527 0-3.5356-3.1658-3.5356-7.0711 0-3.9052 1.5829-7.0711 3.5356-7.0711 1.9526 0 3.5355 3.1658 3.5355 7.0711z" style="color:black" fill="#d79348" transform="matrix(-.089985 .059501 -.032348 -.048920 75.174 404.07)"/>
        <path id="path4520" d="m-1192.2-153.78c0 3.9052-1.5829 7.0711-3.5355 7.0711-1.9527 0-3.5356-3.1658-3.5356-7.0711 0-3.9052 1.5829-7.0711 3.5356-7.0711 1.9526 0 3.5355 3.1658 3.5355 7.0711z" style="color:black" fill="#d79348" transform="matrix(-.011993 .16846 -.091583 -.0065199 149.66 543.89)"/>
        <path id="path4524" d="m-1192.2-153.78c0 3.9052-1.5829 7.0711-3.5355 7.0711-1.9527 0-3.5356-3.1658-3.5356-7.0711 0-3.9052 1.5829-7.0711 3.5356-7.0711 1.9526 0 3.5355 3.1658 3.5355 7.0711z" style="color:black" fill="#d79348" transform="matrix(-.13 .024315 -.013219 -.070672 -25.509 369.08)"/>
        <path id="path4526" d="m-1192.2-153.78c0 3.9052-1.5829 7.0711-3.5355 7.0711-1.9527 0-3.5356-3.1658-3.5356-7.0711 0-3.9052 1.5829-7.0711 3.5356-7.0711 1.9526 0 3.5355 3.1658 3.5355 7.0711z" style="color:black" fill="#d79348" transform="matrix(.062120 .20661 -.11232 .033771 230.16 585.63)"/>
        <path id="path4528" d="m-1192.2-153.78c0 3.9052-1.5829 7.0711-3.5355 7.0711-1.9527 0-3.5356-3.1658-3.5356-7.0711 0-3.9052 1.5829-7.0711 3.5356-7.0711 1.9526 0 3.5355 3.1658 3.5355 7.0711z" style="color:black" fill="#d79348" transform="matrix(.13287 .038435 -.020895 .072234 327.83 390.01)"/>
        <path id="path4530" d="m-1192.2-153.78c0 3.9052-1.5829 7.0711-3.5355 7.0711-1.9527 0-3.5356-3.1658-3.5356-7.0711 0-3.9052 1.5829-7.0711 3.5356-7.0711 1.9526 0 3.5355 3.1658 3.5355 7.0711z" style="color:black" fill="#d79348" transform="matrix(-.15415 -.11411 .062034 -.083805 -.48602 187.79)"/>
        <path id="path4532" d="m-1192.2-153.78c0 3.9052-1.5829 7.0711-3.5355 7.0711-1.9527 0-3.5356-3.1658-3.5356-7.0711 0-3.9052 1.5829-7.0711 3.5356-7.0711 1.9526 0 3.5355 3.1658 3.5355 7.0711z" style="color:black" fill="#d79348" transform="matrix(.031975 -.23295 .12664 .017383 230.42 53.607)"/>
        <path id="path4534" d="m-1192.2-153.78c0 3.9052-1.5829 7.0711-3.5355 7.0711-1.9527 0-3.5356-3.1658-3.5356-7.0711 0-3.9052 1.5829-7.0711 3.5356-7.0711 1.9526 0 3.5355 3.1658 3.5355 7.0711z" style="color:black" fill="#d79348" transform="matrix(-.070898 -.11955 .064991 -.038543 61.613 177.36)"/>
        <path id="path4536" d="m-1192.2-153.78c0 3.9052-1.5829 7.0711-3.5355 7.0711-1.9527 0-3.5356-3.1658-3.5356-7.0711 0-3.9052 1.5829-7.0711 3.5356-7.0711 1.9526 0 3.5355 3.1658 3.5355 7.0711z" style="color:black" fill="#d79348" transform="matrix(-.096916 .13863 -.075367 -.052688 -17.888 479.93)"/>
        <path id="path4538" d="m-1192.2-153.78c0 3.9052-1.5829 7.0711-3.5355 7.0711-1.9527 0-3.5356-3.1658-3.5356-7.0711 0-3.9052 1.5829-7.0711 3.5356-7.0711 1.9526 0 3.5355 3.1658 3.5355 7.0711z" style="color:black" fill="#d79348" transform="matrix(.084515 .078728 -.0428 .045946 216.12 427.19)"/>
        <path id="path4540" d="m-1192.2-153.78c0 3.9052-1.5829 7.0711-3.5355 7.0711-1.9527 0-3.5356-3.1658-3.5356-7.0711 0-3.9052 1.5829-7.0711 3.5356-7.0711 1.9526 0 3.5355 3.1658 3.5355 7.0711z" style="color:black" fill="#d79348" transform="matrix(.13782 -.046997 .025550 .074926 277.97 278.38)"/>
        <path id="path4542" d="m-1192.2-153.78c0 3.9052-1.5829 7.0711-3.5355 7.0711-1.9527 0-3.5356-3.1658-3.5356-7.0711 0-3.9052 1.5829-7.0711 3.5356-7.0711 1.9526 0 3.5355 3.1658 3.5355 7.0711z" style="color:black" fill="#d79348" transform="matrix(-.0057558 -.16944 .092115 -.0031291 59.74 120.56)"/>
        <path id="path4544" d="m-1192.2-153.78c0 3.9052-1.5829 7.0711-3.5355 7.0711-1.9527 0-3.5356-3.1658-3.5356-7.0711 0-3.9052 1.5829-7.0711 3.5356-7.0711 1.9526 0 3.5355 3.1658 3.5355 7.0711z" style="color:black" fill="#d79348" transform="matrix(.17203 .15953 -.086728 .093526 243.12 542.12)"/>
        <path id="path4546" d="m-1192.2-153.78c0 3.9052-1.5829 7.0711-3.5355 7.0711-1.9527 0-3.5356-3.1658-3.5356-7.0711 0-3.9052 1.5829-7.0711 3.5356-7.0711 1.9526 0 3.5355 3.1658 3.5355 7.0711z" style="color:black" fill="#d79348" transform="matrix(-.22684 -.011127 .0060492 -.12332 -212.74 288.61)"/>
        <path id="path4548" d="m-1192.2-153.78c0 3.9052-1.5829 7.0711-3.5355 7.0711-1.9527 0-3.5356-3.1658-3.5356-7.0711 0-3.9052 1.5829-7.0711 3.5356-7.0711 1.9526 0 3.5355 3.1658 3.5355 7.0711z" style="color:black" fill="#d79348" transform="matrix(-.026265 -.10880 .059150 -.014279 47.076 192.06)"/>
        <path id="path4550" d="m-1192.2-153.78c0 3.9052-1.5829 7.0711-3.5355 7.0711-1.9527 0-3.5356-3.1658-3.5356-7.0711 0-3.9052 1.5829-7.0711 3.5356-7.0711 1.9526 0 3.5355 3.1658 3.5355 7.0711z" style="color:black" fill="#d79348" transform="matrix(-.16209 -.040449 .021990 -.088119 -114.7 267.23)"/>
        <path id="path4552" d="m-1192.2-153.78c0 3.9052-1.5829 7.0711-3.5355 7.0711-1.9527 0-3.5356-3.1658-3.5356-7.0711 0-3.9052 1.5829-7.0711 3.5356-7.0711 1.9526 0 3.5355 3.1658 3.5355 7.0711z" style="color:black" fill="#d79348" transform="matrix(.21309 -.066152 .035963 .11585 343.83 266.92)"/>
        <path id="path4554" d="m-1192.2-153.78c0 3.9052-1.5829 7.0711-3.5355 7.0711-1.9527 0-3.5356-3.1658-3.5356-7.0711 0-3.9052 1.5829-7.0711 3.5356-7.0711 1.9526 0 3.5355 3.1658 3.5355 7.0711z" style="color:black" fill="#d79348" transform="matrix(.12831 .11138 -.060549 .069754 236.17 458.39)"/>
        <path id="path4556" d="m-1192.2-153.78c0 3.9052-1.5829 7.0711-3.5355 7.0711-1.9527 0-3.5356-3.1658-3.5356-7.0711 0-3.9052 1.5829-7.0711 3.5356-7.0711 1.9526 0 3.5355 3.1658 3.5355 7.0711z" style="color:black" fill="#d79348" transform="matrix(-.0095102 .10593 -.057588 -.0051702 70.17 446.64)"/>
        <path id="path4558" d="m-1192.2-153.78c0 3.9052-1.5829 7.0711-3.5355 7.0711-1.9527 0-3.5356-3.1658-3.5356-7.0711 0-3.9052 1.5829-7.0711 3.5356-7.0711 1.9526 0 3.5355 3.1658 3.5355 7.0711z" style="color:black" fill="#d79348" transform="matrix(.088045 -.084616 .046001 .047866 207.77 234.79)"/>
        <path id="path4560" d="m-1192.2-153.78c0 3.9052-1.5829 7.0711-3.5355 7.0711-1.9527 0-3.5356-3.1658-3.5356-7.0711 0-3.9052 1.5829-7.0711 3.5356-7.0711 1.9526 0 3.5355 3.1658 3.5355 7.0711z" style="color:black" fill="#d79348" transform="matrix(.16094 .072546 -.039439 .087495 288.5 425.11)"/>
        <path id="path4562" d="m-1192.2-153.78c0 3.9052-1.5829 7.0711-3.5355 7.0711-1.9527 0-3.5356-3.1658-3.5356-7.0711 0-3.9052 1.5829-7.0711 3.5356-7.0711 1.9526 0 3.5355 3.1658 3.5355 7.0711z" style="color:black" fill="#d79348" transform="matrix(-.10001 .063506 -.034525 -.054369 -5.1244 384.74)"/>
        <path id="path4564" d="m-1192.2-153.78c0 3.9052-1.5829 7.0711-3.5355 7.0711-1.9527 0-3.5356-3.1658-3.5356-7.0711 0-3.9052 1.5829-7.0711 3.5356-7.0711 1.9526 0 3.5355 3.1658 3.5355 7.0711z" style="color:black" fill="#d79348" transform="matrix(-.12106 -.16896 .091857 -.065814 -20.273 107.6)"/>
        <path id="path4566" d="m-1192.2-153.78c0 3.9052-1.5829 7.0711-3.5355 7.0711-1.9527 0-3.5356-3.1658-3.5356-7.0711 0-3.9052 1.5829-7.0711 3.5356-7.0711 1.9526 0 3.5355 3.1658 3.5355 7.0711z" style="color:black" fill="#d79348" transform="matrix(.17940 -.13674 .074336 .097533 340.45 182.23)"/>
        <path id="path4568" d="m-1192.2-153.78c0 3.9052-1.5829 7.0711-3.5355 7.0711-1.9527 0-3.5356-3.1658-3.5356-7.0711 0-3.9052 1.5829-7.0711 3.5356-7.0711 1.9526 0 3.5355 3.1658 3.5355 7.0711z" style="color:black" fill="#d79348" transform="matrix(-.074332 -.15325 .083315 -.040410 48.155 124.47)"/>
        <path id="path4572" d="m-1192.2-153.78c0 3.9052-1.5829 7.0711-3.5355 7.0711-1.9527 0-3.5356-3.1658-3.5356-7.0711 0-3.9052 1.5829-7.0711 3.5356-7.0711 1.9526 0 3.5355 3.1658 3.5355 7.0711z" style="color:black" fill="#d79348" transform="matrix(-.056259 .090061 -.048961 -.030585 72.833 432.02)"/>
        <path id="path4574" d="m-1192.2-153.78c0 3.9052-1.5829 7.0711-3.5355 7.0711-1.9527 0-3.5356-3.1658-3.5356-7.0711 0-3.9052 1.5829-7.0711 3.5356-7.0711 1.9526 0 3.5355 3.1658 3.5355 7.0711z" style="color:black" fill="#d79348" transform="matrix(-.071832 -.081466 .044288 -.039051 54.254 228.06)"/>
        <path id="path4576" d="m-1192.2-153.78c0 3.9052-1.5829 7.0711-3.5355 7.0711-1.9527 0-3.5356-3.1658-3.5356-7.0711 0-3.9052 1.5829-7.0711 3.5356-7.0711 1.9526 0 3.5355 3.1658 3.5355 7.0711z" style="color:black" fill="#d79348" transform="matrix(.21085 .066539 -.036174 .11463 385.7 419.72)"/>
        <path id="path4578" d="m-1192.2-153.78c0 3.9052-1.5829 7.0711-3.5355 7.0711-1.9527 0-3.5356-3.1658-3.5356-7.0711 0-3.9052 1.5829-7.0711 3.5356-7.0711 1.9526 0 3.5355 3.1658 3.5355 7.0711z" style="color:black" fill="#d79348" transform="matrix(-.10391 .19515 -.10609 -.056491 -3.0371 552.01)"/>
        <path id="path4580" d="m-1192.2-153.78c0 3.9052-1.5829 7.0711-3.5355 7.0711-1.9527 0-3.5356-3.1658-3.5356-7.0711 0-3.9052 1.5829-7.0711 3.5356-7.0711 1.9526 0 3.5355 3.1658 3.5355 7.0711z" style="color:black" fill="#d79348" transform="matrix(-.16703 .00049769 -.00027057 -.090806 -53.89 311.87)"/>
        <path id="path4582" d="m-1192.2-153.78c0 3.9052-1.5829 7.0711-3.5355 7.0711-1.9527 0-3.5356-3.1658-3.5356-7.0711 0-3.9052 1.5829-7.0711 3.5356-7.0711 1.9526 0 3.5355 3.1658 3.5355 7.0711z" style="color:black" fill="#d79348" transform="matrix(.10362 -.19219 .10449 .056330 293.53 104.55)"/>
        <path id="path4584" d="m-1192.2-153.78c0 3.9052-1.5829 7.0711-3.5355 7.0711-1.9527 0-3.5356-3.1658-3.5356-7.0711 0-3.9052 1.5829-7.0711 3.5356-7.0711 1.9526 0 3.5355 3.1658 3.5355 7.0711z" style="color:black" fill="#d79348" transform="matrix(.081053 .14807 -.0805 .044064 222.24 535.01)"/>
        <path id="path4586" d="m-1192.2-153.78c0 3.9052-1.5829 7.0711-3.5355 7.0711-1.9527 0-3.5356-3.1658-3.5356-7.0711 0-3.9052 1.5829-7.0711 3.5356-7.0711 1.9526 0 3.5355 3.1658 3.5355 7.0711z" style="color:black" fill="#d79348" transform="matrix(.054131 -.094393 .051317 .029428 189.02 238.05)"/>
        <path id="path4588" d="m-1192.2-153.78c0 3.9052-1.5829 7.0711-3.5355 7.0711-1.9527 0-3.5356-3.1658-3.5356-7.0711 0-3.9052 1.5829-7.0711 3.5356-7.0711 1.9526 0 3.5355 3.1658 3.5355 7.0711z" style="color:black" fill="#d79348" transform="matrix(.16214 .073709 -.040071 .088147 326.29 453.4)"/>
        <path id="path4590" d="m-1192.2-153.78c0 3.9052-1.5829 7.0711-3.5355 7.0711-1.9527 0-3.5356-3.1658-3.5356-7.0711 0-3.9052 1.5829-7.0711 3.5356-7.0711 1.9526 0 3.5355 3.1658 3.5355 7.0711z" style="color:black" fill="#d79348" transform="matrix(-.087058 -.13245 .072008 -.047329 -9.3971 183.4)"/>
        <path id="path4592" d="m-1192.2-153.78c0 3.9052-1.5829 7.0711-3.5355 7.0711-1.9527 0-3.5356-3.1658-3.5356-7.0711 0-3.9052 1.5829-7.0711 3.5356-7.0711 1.9526 0 3.5355 3.1658 3.5355 7.0711z" style="color:black" fill="#d79348" transform="matrix(.041203 -.11407 .062013 .0224 97.601 206.33)"/>
        <path id="path4596" d="m-1192.2-153.78c0 3.9052-1.5829 7.0711-3.5355 7.0711-1.9527 0-3.5356-3.1658-3.5356-7.0711 0-3.9052 1.5829-7.0711 3.5356-7.0711 1.9526 0 3.5355 3.1658 3.5355 7.0711z" style="color:black" fill="#d79348" transform="matrix(-.21213 -.098756 .053688 -.11532 -223.29 203.92)"/>
        <path id="path4600" d="m-1192.2-153.78c0 3.9052-1.5829 7.0711-3.5355 7.0711-1.9527 0-3.5356-3.1658-3.5356-7.0711 0-3.9052 1.5829-7.0711 3.5356-7.0711 1.9526 0 3.5355 3.1658 3.5355 7.0711z" style="color:black" fill="#d79348" transform="matrix(.089455 .13637 -.074137 .048632 107.42 509.21)"/>
        <path id="path4602" d="m-1192.2-153.78c0 3.9052-1.5829 7.0711-3.5355 7.0711-1.9527 0-3.5356-3.1658-3.5356-7.0711 0-3.9052 1.5829-7.0711 3.5356-7.0711 1.9526 0 3.5355 3.1658 3.5355 7.0711z" style="color:black" fill="#d79348" transform="matrix(-.073055 -.089181 .048483 -.039716 -52.267 221.83)"/>
        <path id="path4604" d="m-1192.2-153.78c0 3.9052-1.5829 7.0711-3.5355 7.0711-1.9527 0-3.5356-3.1658-3.5356-7.0711 0-3.9052 1.5829-7.0711 3.5356-7.0711 1.9526 0 3.5355 3.1658 3.5355 7.0711z" style="color:black" fill="#d79348" transform="matrix(-.052779 .18970 -.10313 -.028693 -59.328 555.83)"/>
        <path id="path4606" d="m-1192.2-153.78c0 3.9052-1.5829 7.0711-3.5355 7.0711-1.9527 0-3.5356-3.1658-3.5356-7.0711 0-3.9052 1.5829-7.0711 3.5356-7.0711 1.9526 0 3.5355 3.1658 3.5355 7.0711z" style="color:black" fill="#d79348" transform="matrix(.11832 .027739 -.015080 .064326 295.04 388.53)"/>
        <path id="path4608" d="m-1192.2-153.78c0 3.9052-1.5829 7.0711-3.5355 7.0711-1.9527 0-3.5356-3.1658-3.5356-7.0711 0-3.9052 1.5829-7.0711 3.5356-7.0711 1.9526 0 3.5355 3.1658 3.5355 7.0711z" style="color:black" fill="#d79348" transform="matrix(.18139 .056804 -.030882 .098611 369.11 415.82)"/>
        <path id="path4610" d="m-1192.2-153.78c0 3.9052-1.5829 7.0711-3.5355 7.0711-1.9527 0-3.5356-3.1658-3.5356-7.0711 0-3.9052 1.5829-7.0711 3.5356-7.0711 1.9526 0 3.5355 3.1658 3.5355 7.0711z" style="color:black" fill="#d79348" transform="matrix(.077504 .19845 -.10788 .042135 223.7 583.5)"/>
        <path id="path4612" d="m-1192.2-153.78c0 3.9052-1.5829 7.0711-3.5355 7.0711-1.9527 0-3.5356-3.1658-3.5356-7.0711 0-3.9052 1.5829-7.0711 3.5356-7.0711 1.9526 0 3.5355 3.1658 3.5355 7.0711z" style="color:black" fill="#d79348" transform="matrix(-.10257 -.026845 .014594 -.055761 57.564 316.61)"/>
        <path id="path4614" d="m-1192.2-153.78c0 3.9052-1.5829 7.0711-3.5355 7.0711-1.9527 0-3.5356-3.1658-3.5356-7.0711 0-3.9052 1.5829-7.0711 3.5356-7.0711 1.9526 0 3.5355 3.1658 3.5355 7.0711z" style="color:black" fill="#d79348" transform="matrix(-.14903 .023447 -.012747 -.081019 2.9804 362.37)"/>
        <path id="path4616" d="m-1192.2-153.78c0 3.9052-1.5829 7.0711-3.5355 7.0711-1.9527 0-3.5356-3.1658-3.5356-7.0711 0-3.9052 1.5829-7.0711 3.5356-7.0711 1.9526 0 3.5355 3.1658 3.5355 7.0711z" style="color:black" fill="#d79348" transform="matrix(.11198 .053466 -.029066 .060875 298.11 424.97)"/>
        <path id="path4618" d="m-1192.2-153.78c0 3.9052-1.5829 7.0711-3.5355 7.0711-1.9527 0-3.5356-3.1658-3.5356-7.0711 0-3.9052 1.5829-7.0711 3.5356-7.0711 1.9526 0 3.5355 3.1658 3.5355 7.0711z" style="color:black" fill="#d79348" transform="matrix(.072965 -.13187 .071693 .039667 243.21 189.51)"/>
        <path id="path4620" d="m-1192.2-153.78c0 3.9052-1.5829 7.0711-3.5355 7.0711-1.9527 0-3.5356-3.1658-3.5356-7.0711 0-3.9052 1.5829-7.0711 3.5356-7.0711 1.9526 0 3.5355 3.1658 3.5355 7.0711z" style="color:black" fill="#d79348" transform="matrix(.044314 -.093974 .051089 .024091 201.88 239.29)"/>
        <path id="path4622" d="m-1192.2-153.78c0 3.9052-1.5829 7.0711-3.5355 7.0711-1.9527 0-3.5356-3.1658-3.5356-7.0711 0-3.9052 1.5829-7.0711 3.5356-7.0711 1.9526 0 3.5355 3.1658 3.5355 7.0711z" style="color:black" fill="#d79348" transform="matrix(.11262 .19021 -.10340 .061223 214.84 577.92)"/>
        <path id="path4624" d="m-1192.2-153.78c0 3.9052-1.5829 7.0711-3.5355 7.0711-1.9527 0-3.5356-3.1658-3.5356-7.0711 0-3.9052 1.5829-7.0711 3.5356-7.0711 1.9526 0 3.5355 3.1658 3.5355 7.0711z" style="color:black" fill="#d79348" transform="matrix(.14371 .094983 -.051637 .078128 284.53 479.11)"/>
        <path id="path4626" d="m-1192.2-153.78c0 3.9052-1.5829 7.0711-3.5355 7.0711-1.9527 0-3.5356-3.1658-3.5356-7.0711 0-3.9052 1.5829-7.0711 3.5356-7.0711 1.9526 0 3.5355 3.1658 3.5355 7.0711z" style="color:black" fill="#d79348" transform="matrix(.0068216 .22165 -.12050 .0037085 132.64 610.74)"/>
        <path id="path4628" d="m-1192.2-153.78c0 3.9052-1.5829 7.0711-3.5355 7.0711-1.9527 0-3.5356-3.1658-3.5356-7.0711 0-3.9052 1.5829-7.0711 3.5356-7.0711 1.9526 0 3.5355 3.1658 3.5355 7.0711z" style="color:black" fill="#d79348" transform="matrix(-.062966 .099678 -.054190 -.034231 76.559 464.11)"/>
        <path id="path4636" d="m-1192.2-153.78c0 3.9052-1.5829 7.0711-3.5355 7.0711-1.9527 0-3.5356-3.1658-3.5356-7.0711 0-3.9052 1.5829-7.0711 3.5356-7.0711 1.9526 0 3.5355 3.1658 3.5355 7.0711z" style="color:black" fill="#d79348" transform="matrix(.055917 -.13611 .073997 .030399 186.01 184.21)"/>
        <path id="path4638" d="m-1192.2-153.78c0 3.9052-1.5829 7.0711-3.5355 7.0711-1.9527 0-3.5356-3.1658-3.5356-7.0711 0-3.9052 1.5829-7.0711 3.5356-7.0711 1.9526 0 3.5355 3.1658 3.5355 7.0711z" style="color:black" fill="#d79348" transform="matrix(-.055217 .12758 -.069357 -.030019 -12.763 474.31)"/>
        <path id="path4640" d="m-1192.2-153.78c0 3.9052-1.5829 7.0711-3.5355 7.0711-1.9527 0-3.5356-3.1658-3.5356-7.0711 0-3.9052 1.5829-7.0711 3.5356-7.0711 1.9526 0 3.5355 3.1658 3.5355 7.0711z" style="color:black" fill="#d79348" transform="matrix(.21807 .016780 -.0091221 .11855 335.76 374.79)"/>
        <path id="path4642" d="m-1192.2-153.78c0 3.9052-1.5829 7.0711-3.5355 7.0711-1.9527 0-3.5356-3.1658-3.5356-7.0711 0-3.9052 1.5829-7.0711 3.5356-7.0711 1.9526 0 3.5355 3.1658 3.5355 7.0711z" style="color:black" fill="#d79348" transform="matrix(.14995 -.13389 .072787 .081520 264.89 188.8)"/>
        <path id="path4644" d="m-1192.2-153.78c0 3.9052-1.5829 7.0711-3.5355 7.0711-1.9527 0-3.5356-3.1658-3.5356-7.0711 0-3.9052 1.5829-7.0711 3.5356-7.0711 1.9526 0 3.5355 3.1658 3.5355 7.0711z" style="color:black" fill="#d79348" transform="matrix(-.14660 -.033929 .018446 -.079698 -100.36 279.25)"/>
        <path id="path4646" d="m-1192.2-153.78c0 3.9052-1.5829 7.0711-3.5355 7.0711-1.9527 0-3.5356-3.1658-3.5356-7.0711 0-3.9052 1.5829-7.0711 3.5356-7.0711 1.9526 0 3.5355 3.1658 3.5355 7.0711z" style="color:black" fill="#d79348" transform="matrix(-.17396 .052251 -.028406 -.094573 -56.077 376.75)"/>
        <path id="path4648" d="m-1192.2-153.78c0 3.9052-1.5829 7.0711-3.5355 7.0711-1.9527 0-3.5356-3.1658-3.5356-7.0711 0-3.9052 1.5829-7.0711 3.5356-7.0711 1.9526 0 3.5355 3.1658 3.5355 7.0711z" style="color:black" fill="#d79348" transform="matrix(-.13949 -.13049 .070941 -.075836 -12.526 169.4)"/>
        <path id="path4650" d="m-1192.2-153.78c0 3.9052-1.5829 7.0711-3.5355 7.0711-1.9527 0-3.5356-3.1658-3.5356-7.0711 0-3.9052 1.5829-7.0711 3.5356-7.0711 1.9526 0 3.5355 3.1658 3.5355 7.0711z" style="color:black" fill="#d79348" transform="matrix(-.10573 .15158 -.082408 -.057478 14.141 497.19)"/>
        <path id="path4654" d="m-1192.2-153.78c0 3.9052-1.5829 7.0711-3.5355 7.0711-1.9527 0-3.5356-3.1658-3.5356-7.0711 0-3.9052 1.5829-7.0711 3.5356-7.0711 1.9526 0 3.5355 3.1658 3.5355 7.0711z" style="color:black" fill="#d79348" transform="matrix(.012327 -.19287 .10485 .0067016 244.26 110.08)"/>
        <path id="path4658" d="m-1192.2-153.78c0 3.9052-1.5829 7.0711-3.5355 7.0711-1.9527 0-3.5356-3.1658-3.5356-7.0711 0-3.9052 1.5829-7.0711 3.5356-7.0711 1.9526 0 3.5355 3.1658 3.5355 7.0711z" style="color:black" fill="#d79348" transform="matrix(.0023851 .23606 -.12833 .0012967 194.35 619.09)"/>
        <path id="path4664" d="m-1192.2-153.78c0 3.9052-1.5829 7.0711-3.5355 7.0711-1.9527 0-3.5356-3.1658-3.5356-7.0711 0-3.9052 1.5829-7.0711 3.5356-7.0711 1.9526 0 3.5355 3.1658 3.5355 7.0711z" style="color:black" fill="#d79348" transform="matrix(.095282 -.039893 .021688 .0518 170.1 284.43)"/>
        <path id="path4666" d="m-1192.2-153.78c0 3.9052-1.5829 7.0711-3.5355 7.0711-1.9527 0-3.5356-3.1658-3.5356-7.0711 0-3.9052 1.5829-7.0711 3.5356-7.0711 1.9526 0 3.5355 3.1658 3.5355 7.0711z" style="color:black" fill="#d79348" transform="matrix(-.034791 .23178 -.12601 -.018914 31.181 596.36)"/>
        <path id="path4668" d="m-1192.2-153.78c0 3.9052-1.5829 7.0711-3.5355 7.0711-1.9527 0-3.5356-3.1658-3.5356-7.0711 0-3.9052 1.5829-7.0711 3.5356-7.0711 1.9526 0 3.5355 3.1658 3.5355 7.0711z" style="color:black" fill="#d79348" transform="matrix(-.14496 .013303 -.0072320 -.078808 -89.569 330.55)"/>
        <path id="path4670" d="m-1192.2-153.78c0 3.9052-1.5829 7.0711-3.5355 7.0711-1.9527 0-3.5356-3.1658-3.5356-7.0711 0-3.9052 1.5829-7.0711 3.5356-7.0711 1.9526 0 3.5355 3.1658 3.5355 7.0711z" style="color:black" fill="#d79348" transform="matrix(.033096 .095443 -.051887 .017992 129.48 434.42)"/>
        <path id="path4674" d="m-1192.2-153.78c0 3.9052-1.5829 7.0711-3.5355 7.0711-1.9527 0-3.5356-3.1658-3.5356-7.0711 0-3.9052 1.5829-7.0711 3.5356-7.0711 1.9526 0 3.5355 3.1658 3.5355 7.0711z" style="color:black" fill="#d79348" transform="matrix(.024642 .14817 -.080550 .013396 110.02 492.4)"/>
        <path id="path4676" d="m-1192.2-153.78c0 3.9052-1.5829 7.0711-3.5355 7.0711-1.9527 0-3.5356-3.1658-3.5356-7.0711 0-3.9052 1.5829-7.0711 3.5356-7.0711 1.9526 0 3.5355 3.1658 3.5355 7.0711z" style="color:black" fill="#d79348" transform="matrix(.14977 .029076 -.015807 .081421 281.22 366.17)"/>
        <path id="path4678" d="m-1192.2-153.78c0 3.9052-1.5829 7.0711-3.5355 7.0711-1.9527 0-3.5356-3.1658-3.5356-7.0711 0-3.9052 1.5829-7.0711 3.5356-7.0711 1.9526 0 3.5355 3.1658 3.5355 7.0711z" style="color:black" fill="#d79348" transform="matrix(-.10070 .19377 -.10534 -.054745 -47.105 540.02)"/>
        <path id="path4680" d="m-1192.2-153.78c0 3.9052-1.5829 7.0711-3.5355 7.0711-1.9527 0-3.5356-3.1658-3.5356-7.0711 0-3.9052 1.5829-7.0711 3.5356-7.0711 1.9526 0 3.5355 3.1658 3.5355 7.0711z" style="color:black" fill="#d79348" transform="matrix(.10349 -.083478 .045382 .056263 187.08 236.66)"/>
        <path id="path4686" d="m-1192.2-153.78c0 3.9052-1.5829 7.0711-3.5355 7.0711-1.9527 0-3.5356-3.1658-3.5356-7.0711 0-3.9052 1.5829-7.0711 3.5356-7.0711 1.9526 0 3.5355 3.1658 3.5355 7.0711z" style="color:black" fill="#d79348" transform="matrix(-.041474 .11745 -.063850 -.022547 30.931 452.3)"/>
        <path id="path4690" d="m-1192.2-153.78c0 3.9052-1.5829 7.0711-3.5355 7.0711-1.9527 0-3.5356-3.1658-3.5356-7.0711 0-3.9052 1.5829-7.0711 3.5356-7.0711 1.9526 0 3.5355 3.1658 3.5355 7.0711z" style="color:black" fill="#d79348" transform="matrix(-.035558 .23662 -.12864 -.019331 6.6886 595.99)"/>
      </g>
      <path id="path4395" fill="#c6dad8" d="m98.633 240.93 0.93375-2.8926 29.021 1.4694 6.4203 2.564-0.97054 3.6915-0.95046 0.35657-2.3082 3.7634-1.2842 1.809-10.863-1.701-17.484-2.8064-2.3171-1.8413-0.3075-2.0157z"/>
      <path id="path7399" opacity=".3" filter="url(#filter7421)" d="m101.38 312.38c-19.04 0.16028-38.338 2.6824-55.946 10.258-2.8063 0.77727-5.1741 1.874-2.281 4.5457 3.6805 6.2204 11.091 8.6368 17.683 10.393 15.083 3.3417 30.59 1.0026 45.869 1.4284 8.8237 0.0627 18.007-1.7546 24.996-7.4798 5.1477-3.9461 9.1932-9.093 13.273-14.083-11.144-3.0258-22.61-4.9453-34.18-4.9742-3.1371-0.0808-6.2761-0.11451-9.4138-0.088z" fill="url(#radialGradient7751)"/>
      <path id="path7357" opacity=".3" filter="url(#filter7363)" d="m114.69 326.43-50.592 7.1605-1.795-0.16601 49.355-7.2597z" fill="url(#linearGradient7381)"/>
      <path id="path7347" d="m110.84 326.44c0 0.22437-0.79749 0.40625-1.7812 0.40625-0.98375 0-1.7812-0.18188-1.7812-0.40625s0.7975-0.40625 1.7812-0.40625c0.98376 0 1.7812 0.18188 1.7812 0.40625z" style="color:black" fill="url(#radialGradient7355)" transform="matrix(1.0824 0 0 1.2073 -5.714 -67.661)"/>
      <path id="path4397" d="m133.14 215.92-22.082 110.4s0.35297 0.37493 1.2701 0.41596c0.47273 0.0211 1.4072-0.18696 1.4072-0.18696l22.024-110.11s-0.35754-0.68399-1.1384-0.91139c-0.78086-0.22738-1.4812 0.38541-1.4812 0.38541z" style="color:black" fill="url(#linearGradient7344)"/>
      <path id="path4399" fill="#e24423" d="m71.234 239 4.345 1.2675 4.9985 1.5644 5.0231 1.0318 1.7371-0.0535 3.5461 1.2307 2.7533 1.0608 1.7003 0.74545 3.1623-4.925s1.5995-2.8619 1.0669-2.8864-26.055-2.1334-26.055-2.1334z"/>
      <path id="path4403" fill="#ececec" d="m134.51 216.68-19.259 0.24569-17.086 2.2328-13.818 5.0251-2.7403 2.1383-0.12136 2.6363-0.9266 3.7315-0.49798 2.619-1.6105 2.1903 3.3375 1.2859 3.8182-0.95649 12.805 0.58944 9.3807 1.1866 11.623 1.6672 5.2553 0.61934 4.2294-1.6924 5.5201-13.333z"/>
      <path id="path4405" fill="#e24423" d="m134.84 242.86-0.8006 2.8987 0.62285 0.96273-0.52203 2.6447-0.19446 1.3254 1.2886 0.99336 26.248 3.7435 6.8872 1.1177 2.5851-1.0819 1.1265-1.2825 0.97056-3.6915z"/>
      <path id="path4407" fill="#c6dad8" d="m165.18 255.82-0.0623 1.3532 0.5981 0.39737-1.0933 5.004 10.602-0.005 2.7403-0.61353 1.4041-1.0449-0.56821-3.7244-8.4979-2.8567z"/>
      <path id="path4409" fill="#f9f9f9" d="m134.51 216.68-19.259 0.25034-17.085 2.2275-13.821 5.0305-2.7423 2.1387-0.0089 0.19346 4.5032 0.57745 11.696 0.15945 30.305 1.5801 5.0656 0.80601 0.0959 0.0222 1.1601-2.802 0.0898-10.184z"/>
      <path id="path4411" fill="#ed6324" d="m134.27 216.63 4.5149 0.4747 16.811 5.8444 19.278 10.228 7.1869 6.202-0.93376 2.8926 1.2947 0.8602-2.1951 7.1044-2.4703 1.4875-26.484-4.4216-17.454-3.4721-4.1812-1.9271-1.5366-1.4051 0.58948-4.1094 1.7099-5.2587 1.1388-1.5488 1.2001-2.8803-0.0228-2.4029 0.64906-2.5054 0.41953-3.3166z"/>
      <path id="path4413" d="m173.31 246.02 4.8107 2.6148 3.0032 2.168 1.0363 2.05-2.868 8.7439-4.1033-1.9147-1.7109-0.32531-1.986-3.1671z" fill="#ececec"/>
      <path id="path4415" fill="url(#linearGradient7333)" d="m134.27 216.62-0.48155 1.8462-0.42607 3.3205-0.64424 2.5084 0.0219 2.3981-1.1201 2.6981 1.5485 0.24754 27.872 5.24 15.893 3.1903 5.0462 1.2282-7.1032-6.1259-19.279-10.229-16.81-5.8412-4.5165-0.4811z"/>
      <g id="g6878" transform="translate(2.4749 -46.846)">
        <g id="g6211" transform="translate(-6.7002 5.6291)">
          <path id="path4909" opacity=".5" filter="url(#filter5706)" d="m-1055.2-253.68c-0.2652 0.007-0.5197 0.0265-0.7813 0.0625-0.9901 0.13624-1.8806 0.62491-2.8124 1-0.3112 0.1251-0.6454 0.23229-0.9688 0.3125-0.4107 0.0987-0.8436 0.1409-1.2812 0.15625-0.4484 0.016-0.9275 0.0217-1.375 0.0312-0.6605 0.0142-1.327 0.058-1.9063 0.28125-0.1961 0.0755-0.3829 0.16164-0.5625 0.28125v0.0312c-0.3318 0.22313-0.583 0.63367-0.625 1.0312-0.052 0.48841 0.1596 0.99336 0.4688 1.375 0.5236 0.6464 2.2522 0.42139 2.1562 1.2812-0.078 0.70425-2.6474 1.9917-3.625 3.3125-0.083 0.11179-0.1788 0.25105-0.2812 0.375-0.034 0.0293-0.2813 0.21875-0.2813 0.21875-0.075 0.15961-0.1553 0.31817-0.1875 0.46875v0.0312c-0.011 0.0641-0.01 0.12673 0 0.1875 0.01 0.062 0.0002 0.12733 0.031 0.1875 0.01 0.0126 0.024 0.0194 0.031 0.0312 0.033 0.054 0.08 0.11673 0.125 0.15625 0.01 0.005 0.025-0.005 0.031 0 0.05 0.0406 0.095 0.0985 0.1562 0.125 0.1476 0.0647 0.3495 0.0834 0.5312 0.0937 0.3332 0.0189 0.6908-0.0448 1-0.0625 0.01-0.00052 0.021 0.0006 0.031 0 0.6079-0.0313 1.1727-0.22748 1.75-0.4375 0.01-0.003 0.022 0.003 0.031 0 0.5864-0.21421 1.1765-0.4329 1.7812-0.5625 1.266-0.27131 2.5495-0.52802 3.8438-0.5625 0.3751-0.01 0.7472-0.0256 1.125 0 0.1888 0.0128 0.3772 0.0308 0.5624 0.0625 0.1853 0.0317 0.3839 0.0989 0.5626 0.15625 0.2574 0.0859 0.5131 0.18119 0.75 0.3125 0.099 0.0541 0.1841 0.12806 0.2812 0.1875 0.1474 0.0913 0.2932 0.18298 0.4375 0.28125 0.01 0.005 0.024-0.005 0.031 0 0.2307 0.1575 0.455 0.31389 0.6874 0.46875 0.012 0.008 0.019 0.0233 0.031 0.0312 0.2397 0.15945 0.4649 0.30673 0.7187 0.4375 0.7899 0.40683 1.5749 0.98333 2.4063 1.2812 0.1127 0.0404 0.2284 0.0651 0.3437 0.0937 0.031 0.007 0.062 0.0248 0.094 0.0312 0.1547 0.0334 0.3083 0.0559 0.4688 0.0625 0.528 0.0216 1.1927-0.0738 1.5624-0.4375 0.059-0.0579 0.1151-0.0829 0.1563-0.15625 0.1272-0.22645 0.066-0.48687-0.031-0.75-0.051-0.14522-0.093-0.29399-0.1562-0.4375-0.041-0.0933-0.095-0.19237-0.125-0.28125v-0.0312c-0.031-0.0929-0.076-0.19052-0.125-0.28125-0.01-0.0117-0.024-0.0195-0.031-0.0312-0.1736-0.30846-0.4115-0.57803-0.625-0.875-0.08-0.111-0.1569-0.20124-0.2188-0.3125-0.057-0.0992-0.091-0.1812-0.125-0.28125-0.069-0.20028-0.079-0.38576 0-0.59375v-0.0312c0.017-0.0458 0.058-0.0633 0.094-0.0937 0.042-0.0322 0.1013-0.0747 0.1562-0.0937v-0.0312c0.1213-0.0377 0.2602-0.0414 0.375-0.0625 2.2184-0.40752 4.5448 0.63638 6.7812 0.34375 0.7224-0.0945 1.4955-0.23033 2.0626-0.6875 0.289-0.23309 0.7942-0.64732 0.5624-0.9375-1.5751-1.9721-4.2987-2.3522-6.6562-3.1562-0.3172-0.15284-0.6228-0.31706-0.9375-0.46875-0.4057-0.19555-0.8379-0.379-1.25-0.5625-0.02-0.0133-0.043-0.0177-0.062-0.0312-0.012-0.006-0.019-0.0257-0.031-0.0312-0.1381-0.0979-0.2469-0.20183-0.375-0.3125-0.288-0.24836 0.086-0.89806-0.2188-1.125-0.4936-0.36761-1.2351 0.31055-1.8438 0.21875-0.61-0.0921-1.1317-0.49799-1.6874-0.78125-0.021-0.0104-0.042-0.0211-0.063-0.0312-0.1928-0.095-0.3866-0.16867-0.5937-0.21875-0.3791-0.0917-0.7654-0.14116-1.1563-0.1875-0.3923-0.0465-0.794-0.0713-1.1874-0.0625h-0.031z" transform="matrix(.58203 0 0 .58203 761.2 523.45)"/>
          <path id="path4692" d="m140.24 380.93c0.56898-0.76874 2.0747-1.523 2.1204-1.9329 0.0558-0.50047-0.9472-0.36038-1.252-0.73661-0.17996-0.22212-0.30239-0.52905-0.2721-0.81332 0.0247-0.2314 0.1629-0.47068 0.35601-0.60055 0.83661-0.56262 2.0128-0.20441 2.9914-0.44712 0.75285-0.18674 1.427-0.66564 2.1954-0.77137 0.60868-0.0837 1.2422-0.0258 1.8394 0.11868 0.48215 0.11659 0.87423 0.51935 1.3647 0.59335 0.3542 0.0534 0.78076-0.33263 1.068-0.11867 0.17735 0.13208-0.0487 0.50813 0.11867 0.65269 1.4674 1.2676 4.1249 1.0123 5.4271 2.6425 0.1349 0.16889-0.15596 0.42591-0.32424 0.56158-0.33005 0.26609-0.79092 0.33279-1.2113 0.38779-1.3017 0.17032-2.6423-0.43257-3.9335-0.19538-0.13365 0.0245-0.32526 0.0365-0.37339 0.16361-0.18343 0.48423 0.4895 0.91823 0.65269 1.4096 0.0907 0.27321 0.31903 0.59413 0.178 0.8451-0.17467 0.31085-0.65244 0.37059-1.0087 0.35601-0.69927-0.0286-1.294-0.53777-1.9161-0.85826-0.59105-0.30446-1.0876-0.8056-1.7207-1.0087-0.41604-0.13347-0.86861-0.13031-1.3054-0.11867-0.75332 0.0201-1.5005 0.16633-2.2374 0.32424-0.70397 0.15086-1.3578 0.55634-2.0768 0.59335-0.36696 0.0189-0.91694 0.13414-1.0854-0.1924-0.14456-0.28019 0.21761-0.60125 0.40517-0.85466z" fill="#d38d5f"/>
          <path id="path4696" d="m147.35 376.15c-1.3751-0.0718-7.4211 5.124-7.4211 5.124l-0.005 0.005c-0.0872 0.1858-0.16914 0.36773-0.0682 0.51921 0.2038 0.30576 0.71867 0.2077 1.0856 0.18881 0.719-0.037 1.3729-0.44178 2.0768-0.59264 0.73685-0.15791 1.4809-0.3051 2.2342-0.32516 0.43677-0.0116 0.88986-0.0128 1.3059 0.12062 0.63308 0.2031 1.1292 0.7025 1.7202 1.007 0.62215 0.32049 1.2202 0.83149 1.9195 0.86011 0.35626 0.0146 0.83229-0.0458 1.007-0.35663 0.14103-0.25097-0.0876-0.57117-0.17832-0.84438-0.16318-0.49142-0.839-0.92655-0.65557-1.4108 0.0223-0.0589 0.0777-0.0932 0.14161-0.11538-1.1054-1.8492-2.4438-3.9138-3.0471-4.1537-0.0343-0.0136-0.071-0.0239-0.11538-0.0262z" fill="#deaa87"/>
          <path id="path4701" d="m147.42 376.2c1.0212 0.74659 2.2031 0.97752 3.2726 1.5314 0.71473 0.37017 1.3553 0.8852 2.0978 1.1958 0.21445 0.0897 0.44141 0.15449 0.67131 0.18881 0.3113 0.0465 0.94402 0.021 0.94402 0.021s-0.16039-0.25774-0.27272-0.35663c-0.67964-0.59839-1.5339-0.9704-2.3496-1.3636-1.0212-0.49225-2.0777-0.92638-3.1677-1.2377-0.29408-0.084-0.60193-0.2267-0.90206-0.16783-0.11421 0.0224-0.38765 0.12012-0.2937 0.18881z" fill="#deaa87"/>
          <path id="path4703" fill="#deaa87" d="m146.84 375.6c-0.15432 0.004-0.30936 0.0158-0.46153 0.0367-0.76842 0.10572-1.4394 0.58422-2.1922 0.77095-0.97621 0.24214-2.1532-0.11636-2.9894 0.44055l0.005 0.0262s0.11144 0.5678 0.33565 0.69228c0.81153 0.45058 1.877-0.0374 2.7691-0.29369 0.30659-0.0881 0.56803-0.29131 0.86011-0.41957 0.35074-0.15402 0.69349-0.3484 1.0699-0.41956 0.17178-0.0325 0.34964 0 0.52446 0h1.5524l0.27796-0.53495c-0.12074-0.0611-0.2422-0.11537-0.37236-0.14685-0.4479-0.10831-0.91636-0.16434-1.3793-0.15209z"/>
        </g>
        <path id="path6854" d="m127.06 389.24c0 0.0976-0.0791 0.17677-0.17678 0.17677-0.0976 0-0.17677-0.0791-0.17677-0.17677 0-0.0976 0.0791-0.17678 0.17677-0.17678 0.0976 0 0.17678 0.0791 0.17678 0.17678z" style="color:black" fill="#ffe6d5" transform="translate(7.1595 -2.961)"/>
        <path id="path6856" d="m127.06 389.24c0 0.0976-0.0791 0.17677-0.17678 0.17677-0.0976 0-0.17677-0.0791-0.17677-0.17677 0-0.0976 0.0791-0.17678 0.17677-0.17678 0.0976 0 0.17678 0.0791 0.17678 0.17678z" style="color:black" fill="#ffe6d5" transform="translate(8.1538 -3.7786)"/>
        <path id="path6858" d="m127.06 389.24c0 0.0976-0.0791 0.17677-0.17678 0.17677-0.0976 0-0.17677-0.0791-0.17677-0.17677 0-0.0976 0.0791-0.17678 0.17677-0.17678 0.0976 0 0.17678 0.0791 0.17678 0.17678z" style="color:black" fill="#ffe6d5" transform="translate(9.1482 -4.5962)"/>
        <path id="path6860" d="m127.06 389.24c0 0.0976-0.0791 0.17677-0.17678 0.17677-0.0976 0-0.17677-0.0791-0.17677-0.17677 0-0.0976 0.0791-0.17678 0.17677-0.17678 0.0976 0 0.17678 0.0791 0.17678 0.17678z" style="color:black" fill="#ffe6d5" transform="translate(10.054 -5.3033)"/>
        <path id="path6862" d="m127.06 389.24c0 0.0976-0.0791 0.17677-0.17678 0.17677-0.0976 0-0.17677-0.0791-0.17677-0.17677 0-0.0976 0.0791-0.17678 0.17677-0.17678 0.0976 0 0.17678 0.0791 0.17678 0.17678z" style="color:black" fill="#ffe6d5" transform="translate(11.093 -6.0325)"/>
        <path id="path6864" d="m127.06 389.24c0 0.0976-0.0791 0.17677-0.17678 0.17677-0.0976 0-0.17677-0.0791-0.17677-0.17677 0-0.0976 0.0791-0.17678 0.17677-0.17678 0.0976 0 0.17678 0.0791 0.17678 0.17678z" style="color:black" fill="#ffe6d5" transform="translate(12.198 -6.7396)"/>
        <path id="path6866" d="m127.06 389.24c0 0.0976-0.0791 0.17677-0.17678 0.17677-0.0976 0-0.17677-0.0791-0.17677-0.17677 0-0.0976 0.0791-0.17678 0.17677-0.17678 0.0976 0 0.17678 0.0791 0.17678 0.17678z" style="color:black" fill="#ffe6d5" transform="translate(14.12 -6.7396)"/>
        <path id="path6868" d="m127.06 389.24c0 0.0976-0.0791 0.17677-0.17678 0.17677-0.0976 0-0.17677-0.0791-0.17677-0.17677 0-0.0976 0.0791-0.17678 0.17677-0.17678 0.0976 0 0.17678 0.0791 0.17678 0.17678z" style="color:black" fill="#ffe6d5" transform="translate(14.717 -5.6569)"/>
        <path id="path6870" d="m127.06 389.24c0 0.0976-0.0791 0.17677-0.17678 0.17677-0.0976 0-0.17677-0.0791-0.17677-0.17677 0-0.0976 0.0791-0.17678 0.17677-0.17678 0.0976 0 0.17678 0.0791 0.17678 0.17678z" style="color:black" fill="#ffe6d5" transform="translate(15.269 -4.5741)"/>
        <path id="path6872" d="m127.06 389.24c0 0.0976-0.0791 0.17677-0.17678 0.17677-0.0976 0-0.17677-0.0791-0.17677-0.17677 0-0.0976 0.0791-0.17678 0.17677-0.17678 0.0976 0 0.17678 0.0791 0.17678 0.17678z" style="color:black" fill="#ffe6d5" transform="translate(15.799 -3.7123)"/>
        <path id="path6874" d="m127.06 389.24c0 0.0976-0.0791 0.17677-0.17678 0.17677-0.0976 0-0.17677-0.0791-0.17677-0.17677 0-0.0976 0.0791-0.17678 0.17677-0.17678 0.0976 0 0.17678 0.0791 0.17678 0.17678z" style="color:black" fill="#ffe6d5" transform="translate(16.219 -2.74)"/>
        <path id="path6876" d="m127.06 389.24c0 0.0976-0.0791 0.17677-0.17678 0.17677-0.0976 0-0.17677-0.0791-0.17677-0.17677 0-0.0976 0.0791-0.17678 0.17677-0.17678 0.0976 0 0.17678 0.0791 0.17678 0.17678z" style="color:black" fill="#ffe6d5" transform="translate(16.75 -1.7015)"/>
      </g>
      <g id="g7899" transform="translate(19.5 -103)">
        <path id="path4419" d="m70.089 421.78 12.398-9.2446-0.21888-2.2752-12.819 9.0095z" fill="url(#linearGradient7916)"/>
        <path id="path4421" d="m82.357 406.83-26.047-1.199 14.089 10.248z" fill="url(#radialGradient7918)"/>
        <path id="path4425" d="m48.702 420.34-1.3649-0.0628-2.8229-17.911 1.0742-0.34126z" fill="gray"/>
        <path id="path4427" fill="url(#linearGradient7920)" d="m33.348 436.96-3.1534-0.16367 5.0801-31.216 2.8921 0.13313z"/>
        <path id="path4429" fill="gray" d="m37.978 405.72 8.4406-5.0825-2.7297-0.12566-8.4406 5.0825z"/>
        <path id="path4431" fill="url(#linearGradient7922)" d="m33.348 436.96 1.4068-0.84709 4.3043-29.901 6.5892-3.9678 3.0542 18.097 0.9518-0.86803-3.236-18.842-8.4037 5.0745z"/>
        <path id="path4433" d="m38.66 418.84-13.47-33.086 37.138 1.6017 7.4245 33.147z" fill="url(#radialGradient7924)"/>
        <path id="path4435" d="m58.1 390.16c-7.4391-0.22045-15.341-0.88726-25.603-1.0235l-0.21457 0.0186-0.19006 0.10523c-1.8691 1.0355-3.0344 3.6081-3.1758 5.64l-0.0079 0.1706 0.04901 0.17323c2.9014 8.9393 8.3603 24.207 8.3603 24.207l0.20196 0.56495 0.59713 0.0275 30.724 2.0269 1.1645 0.0821-0.21712-1.164s-3.3539-17.567-5.5586-25.645l-0.0232-0.11506-0.08007-0.11766c-1.3188-2.1262-3.3398-3.9663-5.7308-4.88l-0.13956-0.0634zm-0.25438 1.812c1.8649 0.7427 3.5679 2.2635 4.6741 4.005 0.12238 0.45136 0.25905 0.99861 0.38689 1.4996l-31.861-1.7801c-0.08623-0.2629-0.19342-0.5563-0.27613-0.81057 0.14071-1.3233 1.0221-3.2564 2.071-3.9242 9.6954 0.30983 17.621 0.59326 25.005 1.0103zm-26.501 4.6643 31.791 1.7626c0.49639 2.0049 1.0095 4.2663 1.5201 6.5954l-31.08-1.7299c-0.78875-2.3014-1.5385-4.5345-2.231-6.6281zm2.5587 7.555 30.966 1.7246c0.57441 2.6491 1.062 5.0522 1.5281 7.3508l-29.915-1.662c-0.85183-2.4258-1.5397-4.3894-2.5795-7.4135zm2.9073 8.3404 29.772 1.6554c0.58413 2.9002 1.068 5.3366 1.1921 5.9819l-28.949-1.9025c-0.10786-0.30201-1.1659-3.3214-2.0156-5.7348z" style="block-progression:tb;color:black;text-transform:none;text-indent:0" fill="url(#radialGradient7926)"/>
        <path id="path4437" d="m25.221 385.78 2.0648-0.52053 36.731 1.2558-1.902 0.95763z" fill="url(#linearGradient7928)"/>
        <path id="path4439" d="m64.106 386.45-1.8859 0.82006 7.3864 32.941 12.757-9.6564-0.87944-4.4934 0.15331 1.0225-11.112 8.3881z" fill="url(#radialGradient7930)"/>
        <path id="path4443" d="m85.099 422.02-1.3649-0.0628-2.8229-17.911 1.0742-0.34126z" fill="url(#linearGradient7932)"/>
        <path id="path4445" d="m69.745 438.64-3.1534-0.16367 5.0801-31.216 2.8921 0.13313z" fill="url(#linearGradient7934)"/>
        <path id="path4447" d="m74.374 407.39 8.4406-5.0825-2.7297-0.12566-8.4406 5.0825z" fill="url(#linearGradient7937)"/>
        <path id="path4449" d="m69.745 438.64 1.4068-0.84709 4.3043-29.901 6.5892-3.9678 3.0542 18.097 0.9518-0.86803-3.236-18.842-8.4037 5.0745z" fill="url(#linearGradient7940)"/>
        <path id="path7881" opacity=".5" style="block-progression:tb;color:black;text-transform:none;text-indent:0" d="m32.812 389.53-0.125 0.0937-2 1.625-0.09375 0.0625-0.03125 0.125-1.125 3-0.0625 0.125 0.0625 0.125 8.4375 24.562 0.09375 0.25 0.25 0.0312 30.562 1.9375 0.53125 0.0312-0.09375-0.53125c-1.787-8.6158-3.4935-17.064-5.5938-25.625v-0.0625l-0.0625-0.0625-1.625-2.3125-0.03125-0.0625-0.0625-0.0625-2.875-1.9375-0.09375-0.0625h-0.09375l-25.812-1.25h-0.15625zm0.25 0.8125 25.562 1.25 2.7812 1.875 1.4688 2.0625v0.0625c2.0443 8.3401 3.664 16.617 5.4062 25.031l-29.75-1.875-8.3125-24.188 1.0625-2.75 1.7812-1.4688z" filter="url(#filter7895)" fill="url(#linearGradient7943)"/>
      </g>
      <path id="path4401" d="m82.88 225.46-7.8512 3.573-2.8531 4.0052-1.1956 5.6827 4.5579-0.45739 3.0539-0.87164 2.2617-1.5524 1.6853-4.7261 0.29866-3.589z" fill="#ed6324"/>
    </g>
  </g>
  <metadata>
    <rdf:RDF>
      <cc:Work>
        <dc:format>image/svg+xml</dc:format>
        <dc:type rdf:resource="http://purl.org/dc/dcmitype/StillImage"/>
        <cc:license rdf:resource="http://creativecommons.org/licenses/publicdomain/"/>
        <dc:publisher>
          <cc:Agent rdf:about="http://openclipart.org/">
            <dc:title>Openclipart</dc:title>
          </cc:Agent>
        </dc:publisher>
        <dc:title>Beach Scene</dc:title>
        <dc:date>2012-07-01T08:38:37</dc:date>
        <dc:description>bathing, beach, clip art, clipart, ocean, sun, sunny, travel, umbrella, vacation, vacations, </dc:description>
        <dc:source>http://openclipart.org/detail/170985/beach-scene-by-gnokii-170985</dc:source>
        <dc:creator>
          <cc:Agent>
            <dc:title>gnokii</dc:title>
          </cc:Agent>
        </dc:creator>
        <dc:subject>
          <rdf:Bag>
            <rdf:li>bathing</rdf:li>
            <rdf:li>beach</rdf:li>
            <rdf:li>clip art</rdf:li>
            <rdf:li>clipart</rdf:li>
            <rdf:li>ocean</rdf:li>
            <rdf:li>sun</rdf:li>
            <rdf:li>sunny</rdf:li>
            <rdf:li>travel</rdf:li>
            <rdf:li>umbrella</rdf:li>
            <rdf:li>vacation</rdf:li>
            <rdf:li>vacations</rdf:li>
          </rdf:Bag>
        </dc:subject>
      </cc:Work>
      <cc:License rdf:about="http://creativecommons.org/licenses/publicdomain/">
        <cc:permits rdf:resource="http://creativecommons.org/ns#Reproduction"/>
        <cc:permits rdf:resource="http://creativecommons.org/ns#Distribution"/>
        <cc:permits rdf:resource="http://creativecommons.org/ns#DerivativeWorks"/>
      </cc:License>
    </rdf:RDF>
  </metadata>
</svg>
