<?xml version="1.0"?>
<svg xmlns:rdf="http://www.w3.org/1999/02/22-rdf-syntax-ns#" xmlns="http://www.w3.org/2000/svg" xmlns:cc="http://creativecommons.org/ns#" xmlns:xlink="http://www.w3.org/1999/xlink" xmlns:dc="http://purl.org/dc/elements/1.1/" xmlns:svg="http://www.w3.org/2000/svg" id="svg2" viewBox="0 0 332.68 480.41" version="1.1">
  <title id="title4174">burglar</title>
  <defs id="defs4">
    <linearGradient id="linearGradient3019" y2="397.83" gradientUnits="userSpaceOnUse" y1="413.95" x2="438.47" x1="437.92">
      <stop id="stop3013" stop-color="#d38d5f" offset="0"/>
      <stop id="stop3015" stop-color="#c87137" stop-opacity="0" offset="1"/>
    </linearGradient>
  </defs>
  <g id="layer2" transform="translate(-239.21 -295.27)">
    <path id="path4171" transform="matrix(1.2958 -.0030960 .0040116 1 -67.379 -.018528)" fill="#241f1c" d="m463.55 762.44a114.65 14.331 0 1 1 -229.29 0 114.65 14.331 0 1 1 229.29 0z"/>
    <path id="path4111" d="m367.88 295.28c-4.0931 0.084-7.969 0.4836-11.406 1.3125-0.01 0.002-0.0217-0.002-0.0312 0-0.36996 0.0873-0.6961 0.1686-1 0.25-0.0104-0.00007-0.0208-0.00007-0.0312 0-0.26148 0.0722-0.48418 0.16663-0.65625 0.21875-0.007 0.002-0.024-0.002-0.0312 0-0.43154 0.12786-0.79455 0.27272-1.0938 0.375-1.3817 0.47806-2.6981 1.0121-3.9062 1.7188-4.7546 2.781-8.4012 6.9899-11 11.781-0.11799 0.21733-0.15405 0.33957-0.15625 0.34375-0.36309 0.68499-0.67735 1.3365-0.96875 1.9688 0.27859-0.60539 0.24744-0.58411-0.0625 0.0937-2.8525 6.2364-4.1685 13.244-4.25 19.75-0.003 0.2803-0.0008 0.54078 0 0.78125 0.0149 4.6114 0.63691 8.9671 1.9375 12.625 2.2556 6.3438 4.6679 11.039 6.5938 14.375 0.96294 1.6682 1.7779 3.0013 2.4062 4 0.62833 0.99869 1.0497 1.7793 1.0625 1.8125 0.76325 1.9844 2.2892 2.6253 3.5312 3.25 0.33964 0.17083 0.43762 0.17855 0.75 0.3125-0.47718 1.3946-1.0458 2.7806-1.2812 4.1875-0.16162 0.96579-0.26973 1.869-0.3125 2.75-3.054-2.8473-8.2244-6.3514-14.656-9.6562-7.097-3.6466-15.15-6.8053-22.031-7.1875-11.138-0.61865-27.61 2.1549-38.656 7.9688-6.0761 3.1979-11.116 10.387-15.375 17.125-2.1296 3.3688-4.019 6.6392-5.5625 9.2188s-2.9866 4.5997-3.2188 4.8125c-1.0248 0.93945-1.3714 2.0023-1.6875 3.2188-0.31615 1.2165-0.50452 2.6462-0.625 4.25-0.24096 3.2075-0.15728 7.1525 0.25 11.375 0.81457 8.4449 2.831 17.848 6.6562 23.969 4.3583 6.9733 13.281 10.465 21 12.531 4.9713 1.331 8.7566 1.9005 11.375 2.2188-2.3749 4.9737-4.1961 9.303-4.3125 12.562-0.0302 0.8455 0.0148 1.5798 0.0312 2.3438-0.94386 0.48528-1.921 0.98508-2.6562 1.4062-1.0739 0.61514-1.8031 1.0218-2.5312 1.75-1.8556 1.8556-2.0674 4.3513-1.9062 6.5625 0.16113 2.2112 0.76259 4.294 1.4375 5.8125 0.81393 1.8313 2.2986 3.5499 3.6562 5.0938 0.59908 0.68124 0.67416 0.74081 1.125 1.2188-0.29858 0.33212-0.34833 0.29982-0.65625 0.71875-0.52139 0.70938-1.0347 1.5304-1.3438 2.5625-0.30901 1.0321-0.34679 2.4514 0.40625 3.6562 0.99275 1.5884 2.4454 2.73 3.9688 3.5938 0.8994 0.50995 1.7969 0.9034 2.75 1.125-0.0948 1.3948-0.24877 2.4496-0.15625 4.9688 0.14081 3.8339 0.3989 8.1628 3.0625 11.031 0.2721 0.29304 0.64741 0.60049 0.96875 0.90625-0.80872 6.6434-1.5878 12.766-1.8438 13.875-0.75483 3.2709 0.22249 6.341 1.5 8.6875s2.7314 3.9783 3.9688 4.9062c0.50278 0.37708 0.80001 0.48244 1.3438 0.75 0.54374 0.26756 1.2331 0.60378 2.0625 0.96875 1.3594 0.59817 3.2722 1.3576 5.25 2.125 0.49739 2.8597 1.1811 5.4335 2.3438 7.4688 1.3465 2.3571 3.6668 4.1907 6.4688 4.0938 1.1048-0.0382 2.2118-0.0983 3.3125-0.15625 0.0697 4.9366 0.24995 19.838 0.28125 35.938 0.0167 8.568-0.0198 17.043-0.15625 23.656-0.0682 3.3065-0.15847 6.1547-0.28125 8.2812-0.12278 2.1266-0.42547 3.8077-0.375 3.6562-1.2611 3.7834-4.9688 4.5938-4.9688 4.5938-0.79607 0.16894-1.4734 0.80863-1.6875 1.5938l-1.8438 6.5-4.8438 1.3125c-0.71073 0.19552-1.3063 0.76678-1.5312 1.4688l-3.5314 11.031-23.75 7.9375c-0.45659 0.15925-0.85826 0.47166-1.125 0.875-3.9348-0.22041-7.6183 0.009-10.312 0.75-0.10712 0.0337-0.21168 0.0755-0.3125 0.125-3.3582 1.5112-5.3832 4.3448-6.5 7.4375s-1.527 6.5171-1.9688 10c-0.0143 0.14536-0.0143 0.29214 0 0.4375 0.56646 8.6576 0.84603 21.213 1.75 33.469s2.3502 24.142 5.5625 31.969c0.15855 0.37289 0.42101 0.70096 0.75 0.9375 2.0152 1.4909 5.8938 3.32 10.688 5.0312 4.7937 1.7112 10.242 3.1562 14.875 3.1562 9.2617 0 14.438-6.3438 14.438-6.3438 0.33672-0.42981 0.50717-0.9866 0.46875-1.5312 0 0-0.12452-2.6634-0.875-5.6562s-1.9457-6.6603-5.3125-8.3438c-4.1203-2.0602-10.048-4.3879-11.5-4.9688-0.0192-1.0682-0.0666-5.4739-0.125-11 0.13845-0.15472 0.37249-0.28537 0.46875-0.4375 0.50503-0.79815 0.64016-1.5441 0.71875-2.2812 0.15718-1.4744 0.20053-2.9141-1-4.4688-0.0732-0.0948-0.17091-0.16025-0.25-0.25-0.00098-0.36656 0.0002-0.71002 0-1.0625 0.12926-0.14987 0.34323-0.29058 0.4375-0.4375 0.45789-0.71359 0.64453-1.4069 0.78125-2.125 0.2539-1.3336 0.41061-2.7093-0.53125-4.25 0.63793-0.53386 1.0755-1.1061 1.375-1.7188 0.34468-0.70503 0.59305-1.4316 0.71875-2.2188 0.1257-0.78713 0.19885-1.6179-0.21875-2.625-0.0178-0.043-0.044-0.0525-0.0625-0.0937 0.80717-1.3632 1.7188-2.8438 1.7188-2.8438 0.0105-0.0103 0.0209-0.0207 0.0312-0.0312 0.28061-0.37415 0.29509-0.86217 0.46875-1.2812 3.2985-0.16564 6.0848-0.9055 8.0625-2.4375 2.3132-1.7919 3.6077-4.2607 4.4375-6.75-0.0273 0.0818 0.49492-0.87248 1.4688-1.9375 0.97383-1.065 2.3603-2.3982 4-3.9062 3.2794-3.0161 7.6093-6.7356 12.094-10.656 8.9689-7.8413 18.472-16.2 21.969-22.875 3.206-6.1205 9.0567-20.88 14.375-35.031 2.6592-7.0754 5.1817-13.964 7.0938-19.438 1.912-5.4733 3.1845-9.2663 3.5625-11.156 0.1214-0.60698 0.7789-1.6986 2.0312-2.7812 1.2524-1.0826 2.9951-2.1394 4.8438-3 1.8486-0.86061 3.8083-1.516 5.4688-1.8438 1.6605-0.32777 3.0598-0.23538 3.4375-0.0937 0.57588 0.21595 2.1525 1.2011 3.9688 2.5938 1.8163 1.3926 3.9699 3.1841 6.3125 5.0938 4.6851 3.8193 10.028 8.0899 15.062 10.625 12.09 6.0878 25.064 16.976 27.125 18.719l-1.8438 3.3125c-0.3211 0.56223-0.37986 1.2674-0.15625 1.875l1.75 4.7812-5.1562 5.625c-0.44764 0.50162-0.64923 1.2131-0.53125 1.875l2 11.344c-0.93881 0.72248-5.9784 4.5866-11.844 9.5-3.1947 2.6762-6.3596 5.4472-8.7188 7.7812-1.1796 1.167-2.1496 2.2168-2.875 3.1875-0.36269 0.48533-0.66376 0.94296-0.90625 1.5s-0.55917 1.3208-0.125 2.4062c0.0543 0.13562 0.16242 0.164 0.21875 0.28125-2.987 1.6079-5.8361 3.3267-9.1875 5.2188-0.73709 0.41632-1.1951 1.2814-1.125 2.125 1.3277 16.785 4.8607 22.119 11.031 29.719 0.52934 0.64399 1.4401 0.94759 2.25 0.75l2.0625-0.5c0.58271 1.1079 1.8018 3.3287 3.4688 6.9375 1.0167 2.201 1.9964 4.5005 2.625 6.3125 0.31433 0.90599 0.52248 1.6781 0.625 2.2188 0.10252 0.54065-0.0389 0.89405 0.15625 0.40625-0.5899 1.4747-0.59425 2.8932-0.59375 4.9375s0.15333 4.4743 0.4375 7.0625c0.56835 5.1764 1.6117 6.7864 3.5312 10.625 1.8852 3.7704 5.5306 8.025 8.75 11.531 3.2194 3.5062 6.0312 6.1875 6.0312 6.1875 0.60201 0.56969 1.5362 0.75905 2.3125 0.46875 0 0 3.1348-1.1809 6.125-3.4062 1.4951-1.1127 3.0191-2.5223 4.0938-4.3125s1.6467-4.0726 1.0938-6.4688c-0.91612-3.9699-3.2639-9.671-5.5938-15.969-2.3298-6.2977-4.5966-9.1138-5.375-14.562-0.15037-1.0526-0.38884-2.4203-0.59375-3.7188 0.31794-0.25784 0.6691-0.48659 0.875-0.84375 0.61404-1.0652 0.52129-2.2016 0.25-3.0625-0.27129-0.86091-0.72839-1.5963-1.375-2.1875-0.19517-0.17844-0.47284-0.3137-0.71875-0.46875-0.0486-0.33726-0.10771-0.68844-0.15625-1.0312 0.3146-0.25181 0.66733-0.46212 0.875-0.8125 0.6305-1.0638 0.55062-2.2274 0.28125-3.0938-0.26937-0.8663-0.72741-1.5625-1.375-2.1562-0.17748-0.16271-0.43695-0.29283-0.65625-0.4375-0.0515-0.43377-0.10719-0.87472-0.15625-1.3125 0.36276-0.24854 0.75204-0.46998 1-0.84375 0.69761-1.0516 0.66014-2.2642 0.40625-3.1562-0.25389-0.89209-0.72593-1.6072-1.375-2.2188-0.19748-0.18607-0.46781-0.33797-0.71875-0.5 0.87393 0.27901 1.7224 0.48531 2.7812 0.25 1.957-0.4349 3.4223-1.9592 4.2188-3.5938 0.79644-1.6346 1.2005-3.4792 1.625-5.5938 0.84894-4.2292 1.6642-9.5264 4.0312-15.312 2.495-6.0989 7.0548-17.674 11.062-28.375 2.0039-5.3507 3.873-10.468 5.2812-14.594 1.4082-4.1255 2.3476-6.9408 2.5625-8.875 0.33006-2.9706-0.15472-6.7752-1.0312-10.469-0.70954-2.9899-1.7162-5.646-3.0312-7.8125 0.73894 0.71029 1.507 1.425 2.2188 2.0312 0.98889 0.84229 1.8006 1.5253 2.75 2 2.5712 1.2856 4.5384 0.50092 5.7188-0.125 0.81651 0.37106 2.3803 1.1059 3.9375 1.625 0.94544 0.31515 1.3297 0.19762 1.9688 0.15625 0.63901-0.0414 1.3857-0.13958 2.2188-0.28125 1.6662-0.28334 3.6936-0.77662 5.7812-1.4688 3.3787-1.1201 6.9541-2.6773 9.0938-5.4375l38.469 20.188c-0.12165 1.066-0.20961 2.5018-0.0937 4.0625 0.0219 0.29549 0.0661 0.60256 0.125 0.9375 0.0574 0.32652 0.13594 0.67211 0.21875 1.0312h-0.0312c1.1609 5.0586 4.8125 14.75 4.8125 14.75 0.0643 0.16546 0.1484 0.3232 0.25 0.46875l2.1562 3.125 3.9062 5.6875c0.53212 0.78145 1.5967 1.154 2.5 0.875l10.75-3.3125c1.1805-0.3748 1.8617-1.8611 1.375-3-0.12793-0.29656-0.23799-0.60965-0.34375-0.90625-0.1893-0.53005-0.20395-0.52941-0.0312-0.0312 0.00007-0.0104 0.00007-0.0208 0-0.0312-0.0545-0.15502-0.0918-0.36549-0.15625-0.59375l1.9688 2.4688c0.5852 0.72894 1.6577 1.0202 2.5312 0.6875l8.2812-3.0312c1.1523-0.42471 1.768-1.9178 1.25-3.0312 0 0-2.042-4.456-4.875-9.8125s-6.3929-11.583-9.8125-15.5c-1.7516-2.0064-4.0598-3.7746-6.2188-5.3125s-4.2128-2.8549-5.1562-3.5625c-0.38341-0.28756-0.48117-0.29501-0.75-0.4375s-0.61702-0.32544-1.0312-0.53125c-0.82845-0.41161-1.9616-0.95203-3.375-1.625-2.8268-1.3459-6.7638-3.2069-11.5-5.4062-9.1803-4.2631-21.484-9.9234-34.344-15.812-0.41134-3.507-0.88813-6.9021-1.4375-9.625-0.62247-3.0852-1.1537-5.2974-2.0312-6.9062-0.80531-1.4764-2.0263-2.4933-3.6562-3.9375s-3.6255-3.0858-5.5938-4.6875c-1.9682-1.6017-3.9355-3.1749-5.4688-4.5s-2.7198-2.6579-2.7188-2.6562c-0.18546-0.3091-1.487-2.9433-3.0938-6.3125-1.6067-3.3692-3.6469-7.6791-5.75-12.094-4.2063-8.8292-8.559-17.87-10.75-21.312-2.45-3.85-6.7396-8.8908-10.094-12.688 1.9145-1.4743 3.8762-2.9909 5.375-4.2812 1.0112-0.8706 1.8873-1.6519 2.5312-2.3125 0.32197-0.33031 0.59168-0.62403 0.84375-0.96875 0.12604-0.17236 0.24224-0.33298 0.375-0.625s0.37908-0.73367 0.15625-1.625c-0.48028-1.9211-1.65-2.3585-2.4688-2.875-0.0195-0.0123-0.0118-0.0192-0.0312-0.0312 0.0343-0.25008 0.0258-0.25198 0.0625-0.53125 0.14305-1.087 0.28125-2.0187 0.28125-2.9375 0-0.96671-0.43136-1.4892-0.71875-1.8125-0.28739-0.32334-0.52856-0.505-0.78125-0.6875-0.50539-0.365-1.0363-0.658-1.5-0.9375-0.43869-0.26441-0.80663-0.5363-1-0.6875-0.19153-1.0952-0.63874-1.9138-1.25-2.7812-0.77092-1.094-1.6601-2.4688-3.8438-2.4688-0.58331 0-0.66252 0.0722-0.875 0.125s-0.40492 0.11164-0.65625 0.1875c-0.12048 0.0364-0.30498 0.0833-0.4375 0.125-2.5826-2.678-6.3455-7.6838-6.8125-15.156-0.14531-2.3251-0.21397-5.2157-0.21875-8.2188 1.3852-5.003 2.4434-8.8714 2.6562-11 0.1041-1.041 0.0503-1.9393 0.0312-2.8438 2.9242-2.4117 5.3466-5.225 7.2188-7.6875 2.0646-2.7156 3.8846-5.1014 4.1875-5.3438 1.3505-1.0804 3.8526-2.8322 6.1562-5.0312 2.3036-2.1991 4.5348-4.9022 5.0625-8.3438 0.62457-4.0732 0.18578-7.7477-0.40625-10.406-0.29601-1.3293-0.60859-2.3944-0.875-3.1562-0.0136-0.0388-0.0181-0.0566-0.0312-0.0937 1.001-1.4192 1.8041-3.0874 2.1562-5.0938 0.0807-0.45981 0.0272-0.89111 0.0625-1.3438 9.2357-0.12058 14.641-0.53887 17.812-2.4375 1.7296-1.0354 2.7842-2.895 2.9062-4.625 0.12208-1.73-0.32636-3.287-0.78125-5-0.4898-1.8444-1.6695-3.3542-3.0625-4.9688-1.393-1.6145-3.0658-3.2432-4.6875-4.7188-2.1534-1.9592-3.034-2.6128-4.1875-3.5312 0.54712-0.49032 1.0479-0.90823 1.625-1.5625 0.91674-1.0393 1.8317-2.2906 2.4062-3.7812 0.57451-1.4907 0.79612-3.3201 0.125-5.0938-0.92113-2.4344-2.8898-4.892-5.5625-7.75-2.6726-2.858-6.0661-6.0199-9.8438-9.2812-0.22679-0.19579-0.48141-0.39521-0.75-0.625-1.0431-0.89239-2.1177-1.8087-3.2188-2.7188-0.31574-0.26095-0.56318-0.44045-0.75-0.59375-5.1731-4.2447-10.715-8.5096-15.938-12.312-0.42805-0.31169-0.83435-0.58871-1.1875-0.84375-0.75635-0.54623-1.5047-1.0642-2.25-1.5938-0.42298-0.3005-0.86144-0.62965-1.3438-0.96875-5.7122-4.0161-10.593-7.2255-13.656-8.875-1.853-0.99776-4.31-1.9704-7.1875-2.9375-0.60471-0.20318-1.2844-0.41202-1.9688-0.625-0.301-0.0936-0.52763-0.14844-0.65625-0.1875-0.72436-0.21998-1.4672-0.43043-2.1562-0.625-7.7617-2.1916-17.526-4.1278-27.062-4.9062 0.0286 0.002-0.0563-0.0134-0.28125-0.0312-0.74149-0.0588-1.5052-0.11175-2.25-0.15625-0.0534-0.004 0.01 0.002-0.0312 0-0.24665-0.0137-0.38283-0.0133-0.1875 0-0.0104-0.00007-0.0208-0.00007-0.0312 0-2.4647-0.1414-4.8853-0.20479-7.25-0.15625zm-2.1875 77.344 30.469 2.3125c0.33252 0.10394 10.571 3.1907 23.188 6.125-0.46581 0.63542-0.7707 1.4107-1.125 2.1562l-52.062-9.8438c-0.0639-0.12391-0.36104-0.5484-0.46875-0.75zm67.75 11.344c3.8572 0.682 7.7042 1.2522 11.469 1.6562-0.003 0.044-0.0289 0.0808-0.0312 0.125-0.0486 0.90487 0.1951 1.7434 0.40625 2.5938l-11.5-2.1875c-0.031-0.76348-0.17659-1.4786-0.34375-2.1875zm-14.25 147.97c0.32179 0.63776 1.103 2.0612 1.2812 2.4375 1.0544 2.226 3.1114 3.7321 5.75 5.625s5.8671 3.9138 9.1562 5.9062 6.6354 3.9593 9.4062 5.7188c2.7709 1.7595 5.0106 3.399 5.8438 4.2812-0.12305-0.13029 0.56196 1.2269 0.78125 2.5938 0.11497 0.71659 0.0369 1.0688 0.0312 1.6875-5.6636-2.5393-11.136-5.0083-15.031-6.7812-2.344-1.0669-4.2789-1.939-5.7188-2.625-1.4398-0.68597-2.495-1.2686-2.5625-1.3125-0.94877-0.6167-2.5662-2.2529-3.7812-3.6875s-2.0937-2.6562-2.0937-2.6562c-0.45651-0.62782-1.2591-0.9859-2.0312-0.90625l-5.4062 0.5625c-1.341 0.13502-2.3293 1.6998-1.875 2.9688 0 0 0.95458 2.7323 2.4375 5.75-4.0123-2.9706-8.694-6.0308-13.625-8.9688 0.63293-0.0886 1.2657-0.16799 1.9688-0.34375 3.9233-0.98083 7.4193-2.0237 10.188-3.5 2.7682-1.4763 5.0763-3.6757 5.2812-6.75zm-27.75 2.4062 1.5312 0.21875c0.14697 1.1691 0.31995 2.3255 0.65625 3.3438-1.1074-0.62024-2.3878-1.3944-3.375-1.9375l0.81-0.97c0.16106-0.19533 0.28849-0.41832 0.375-0.65625zm37.625 29.25 26.094 13.594c0.0586 2.8084 0.0562 6.0366 0 8.8125-0.0644 3.1795-0.15625 5.3911-0.15625 6.125 0 0.1722 0.0495 0.20841 0.0625 0.34375-4.8663-5.8732-14.597-17.491-26-28.875z"/>
    <path id="path3071" fill="#917c6f" d="m417.25 667.64c-8.8994 0.62999-14.036 4.8474-22.047 9.3701 1.3084 16.541 4.3775 20.945 10.512 28.5l3.8191-0.94093s8.819 16.536 7.7166 19.291c-1.1024 2.7559 0 14.189 3.3071 20.803 3.3071 6.6142 14.331 17.087 14.331 17.087s11.575-4.4095 9.9213-11.575c-1.6536-7.1654-9.3701-19.15-11.024-30.725-1.6536-11.575-6.063-35.276-2.2047-40.788z"/>
    <path id="path3069" fill="#917c6f" d="m277.8 675.35c-6.5632-1.935-13.598-1.663-17.638-0.55118-5.5118 2.4803-6.2811 8.7366-7.1654 15.709 1.1446 17.493 1.1703 50.163 7.1516 64.737 2.9724 2.1991 15.998 7.7443 24.266 7.7443 8.2678 0 12.677-5.5118 12.677-5.5118s-0.55119-9.9213-4.9607-12.126-12.677-5.5118-12.677-5.5118-0.55118-23.701 0-28.662c0.55119-4.9607 4.4706-9.9882 4.4706-9.9882 3.5077-4.677-6.1242-25.839-6.1242-25.839z"/>
    <path id="path3067" fill="#483e37" d="m315.83 560.15s1.1024 72.205-0.55119 77.166c-1.6536 4.9607-6.6142 6.063-6.6142 6.063l-2.2047 7.7166-6.063 1.6536-3.8583 12.126-24.803 8.2678s1.1024 24.803 10.473 25.906c9.3702 1.1024 12.677-2.7559 14.331-7.7166 1.743-5.229 33.622-28.11 39.685-39.685s23.701-59.528 24.803-65.04c1.1024-5.5118 14.331-11.024 18.74-9.3701 4.4095 1.6536 16.191 13.683 25.571 18.406 13.509 6.8025 28.996 20.177 28.996 20.177l-2.7559 4.9607 2.2047 6.063-6.063 6.6142 2.2047 12.677s-25.906 19.843-24.803 22.599c1.1024 2.7559 24.803 23.701 29.764 22.599 4.9607-1.1024 3.3071-11.024 8.2678-23.15s18.189-46.3 18.74-51.26c0.55118-4.9607-1.6536-14.882-4.4095-18.189-2.7559-3.3071-25.357-30.997-40.788-43.544-10.684-8.687-35.276-21.496-35.276-21.496z"/>
    <path id="path3060" fill="#800000" d="m420.43 544.43-5.4 0.57s3.7643 10.728 8 12.938l56.312 29.375c-0.0102-0.60914-0.0101-0.61894-0.0312-1.3438-0.0689-2.3598-0.19316-5.0844-0.46875-6.5312-0.1378-0.72343-0.0742-1.4339 0.0937-2.125 0.16794-0.69113 0.42593-1.3464 0.71875-1.9062 0.007-0.0129-0.007-0.0184 0-0.0312-26.25-11.994-50.352-22.472-52.75-24.031-2.7559-1.7914-6.4788-6.9119-6.4788-6.9119z"/>
    <path id="path3942" opacity=".5" fill="#501616" d="m415.91 544.91-0.875 0.0937s3.7643 10.728 8 12.938l56.312 29.375c-0.0102-0.60914-0.0102-0.61894-0.0312-1.3438-0.0213-0.72841-0.0591-1.4691-0.0937-2.2188-28.082-13.969-56.348-28.009-56.938-28.5-0.95702-0.79752-4.7796-7.5214-6.375-10.344z"/>
    <path id="path3058" fill="#e9c6af" d="m437.92 491.53s10.473 11.299 14.331 17.362c3.8583 6.063 17.914 36.929 19.567 39.685 1.6536 2.7559 15.709 12.677 17.362 15.709 1.6536 3.0315 4.0938 16.856 4.1339 28.662l-30.729-0.41339 0.90071-13.913-10.271-24.532-29.626-21.221c-4.7103-3.3739-17.914-31.142-17.914-31.142z"/>
    <path id="path3027" d="m381.7 530.67 24.528 3.5827 2.2047-42.717-8.5434-1.378z" fill="#28170b"/>
    <path id="path4146" d="m303.5 527.03 44.31-25.84 6.07-42.44-9.94-52.94-13.41-4.56c-5.5908 2.5159-10.268 4.9414-12.094 6.875-6.6257 7.0154-34.704 50.65-35.094 61.562-0.38975 10.913 3.125 15.594 3.125 15.594l19.094 20.656s-1.2583 9.9487-2.0625 21.094z" fill="#b7c4c8"/>
    <path id="path4144" fill="#93a7ac" d="m367.16 387.47s-21.931 7.169-36.625 13.781l13.406 4.5625 2.75 28.125s-3.1175 17.289-6.5932 19.829c-7.1654 5.2363-27.032 22.046-27.032 22.046l29.219 5.5312 8.5-0.875-2.9688 20.719-44.312 25.844c-1.189 16.478-1.2103 36.246 6.8125 35.969 13.789-0.47704 26.417-2.4863 45.125-10.281 18.708-7.7949 30.406-14.812 30.406-14.812l3.5-4.3125-4.2812-0.75s4.6875-2.3473 4.6875-3.9062c0-1.559-1.9375-2.3438-1.9375-2.3438l24.438-48.156 0.0312-3.7188 19.094-47.656c0.20181-4.0922 0.46875-9.2188 0.46875-9.2188z"/>
    <path id="path3021" d="m431.38 427.06-19.094 47.656-0.0312 3.7188 1.2812-2.5 1.5625 5.4375 26.094-7.4062s-9.3455-6.6219-10.125-19.094c-0.51994-8.319-0.0918-19.615 0.3125-27.812z" fill="#b7c4c8"/>
    <path id="path4129" fill="#deaa87" d="m437.91 491.53-32.219 10.188s14.301 26.451 16.781 31.688c2.4803 5.2362 25.096 16.008 29.781 20.969 1.2694 1.344 1.9262 6.0396 1.375 7.9688-0.55118 1.9292 1.6533 6.622 3.0312 8 0.22305 0.22305 5.2115 6.4276 5.3324 7.4367-2.2168-0.87903-2.4692-1.1509-4.355-1.7928-0.51675 6.3506-0.41492 15.399-0.41492 16.137 0 1.1024 6.6078 7.7101 8.8125 8.8125s4.6875-0.5625 4.6875-0.5625 3.0339 1.3863 4.6875 1.9375c1.5154 0.50515 15.285-2.0978 17.562-7.75l-13.59-7.57s-1.145 4.2812-3.0938 4.2812c-5.0847 0.28732-6.2567-1.1609-10.537-3.5018 0 0 3.6966-3.8785 3.6966-6.6067s-5.836-9.1872-7.0053-11.915c-1.1692-2.7282-2.9361-12.664-2.9361-12.664s-11.856-11.905-16.54-14.809c-9.7437-6.0411-22.022-34.691-22.022-34.691 8.4227-1.4566 15.197-4.9343 21.656-10.312-2.5647-2.9246-4.6875-5.25-4.6875-5.25z"/>
    <path id="path3056" d="m414.77 481.33c1.6536-0.27559 25.906-9.6457 27.284-9.6457s3.0315 2.7559 3.0315 3.8583 3.8583 2.4803 3.8583 3.3071c0 0.82678-0.55119 4.6851-0.55119 4.6851s2.4803 1.1024 2.7559 2.2047c0.27559 1.1024-15.433 13.504-18.74 14.331-3.3071 0.82678-20.669 2.7559-20.669 2.7559z" fill="#dbe2e3"/>
    <path id="path4161" fill="#b7c4c8" d="m415.88 483.34s-1.5082 5.4963-2.8438 10.375l-1.2812 9.125s17.349-1.9545 20.656-2.7812c1.3307-0.33267 4.6903-2.5345 8.1875-5.125-2.8322 0.90096-9.7927 3.0859-11.875 3.4062-2.5334 0.38974-4.8122-1.6261-5.6562-3.7188-0.67113-1.664-0.59048-5.0093 1.1875-5.25 3.7619-0.50928 6.816-0.59727 8.375-2.1562 1.1363-1.1363-2.349-1.342-4.6875-0.5625-2.3385 0.77949-5.8834 3.1913-8.388 2.5165-2.5371-0.68349-3.6745-5.829-3.6745-5.829z"/>
    <path id="path3025" d="m424.69 429.52s-17.638 44.922-18.74 50.709c-1.1024 5.7874-12.126 41.89-11.299 49.607 0.82678 7.7166 0.82678 12.126 8.5434 10.197 7.7166-1.9292 13.504-4.1339 13.78-8.2678 0.27559-4.1339 0-36.378 2.4803-46.024 2.4803-9.6457 13.504-44.922 14.055-50.433 0.55118-5.5118-1.1024-9.0946-1.1024-9.0946z" fill="#483e37"/>
    <path id="path3035" fill="#216778" d="m357.17 385.7-1.378 4.9607s28.639 36.08 36.929 44.37c6.6142 6.6142 10.473 17.914 16.26 15.433 5.7874-2.4803 20.118-23.425 20.118-23.425z"/>
    <path id="path2997" fill="#e9c6af" d="m364.76 375.37s-5.2821-10.564-9.097-9.9774c-3.8149 0.58691-6.1625 10.858-5.2821 14.379 0.88036 3.5214 7.1895 10.365 9.3905 9.9774 3.4321-0.60477 5.2821 1.1738 6.1625 2.3476 0.88036 1.1738 4.9364 9.969 7.8339 13.236 6.1661 6.9522 32.246 32.231 50.857 30.195 11.511-1.2595 18.194-15.26 21.129-17.607 2.9345-2.3476 9.6374-6.7666 10.439-11.996 1.1395-7.4316-1.6327-13.539-1.6357-13.535z"/>
    <path id="path3009" fill="url(#linearGradient3019)" d="m429.24 406.92s2.4896 7.6424 8.2678 8.4056c7.3032 0.96457 10.352-1.7373 11.024-6.2008 1.5272-10.151-4.5473-11.85-4.5473-11.85z"/>
    <path id="path2999" d="m360.2 368.62 102.24-0.2756c0.24591 11.238 2.78 22.247-3.8583 34.173-7.3231 3.2447-11.331-3.6844-15.433-3.5827-3.5827 0.27559-5.7874 9.0946-18.74 9.3702-12.953 0.27559-30.315-4.4095-38.307-12.402-7.9922-7.9922-23.15-22.047-23.15-22.047z"/>
    <path id="path3001" fill="#f9f9f9" d="m426.85 379.62c-3.6448-0.76242-6.9699 2.788-7.8992 7.8992-0.92932 5.1113 0.92932 9.7579 3.7173 9.7579s7.2915-3.5029 8.3639-6.9699c1.6491-5.3314-0.43757-9.904-4.182-10.687z"/>
    <path id="path3003" fill="#f9f9f9" d="m453.25 378.95c2.981 0.44265 4.5106 4.0702 3.7837 8.2115-0.72692 4.1412-3.4404 7.1483-5.5572 6.3669-2.1168-0.78138-4.5544-4.7031-4.3969-7.6361 0.2421-4.5101 3.108-7.397 6.1705-6.9423z"/>
    <path id="path3005" fill="#536c67" d="m347.38 365.86c0.68898 1.7914 5.0984 3.1693 5.0984 3.1693s2.2048-2.8937 4.1339-3.1693c1.9292-0.27559 4.2717 4.1339 4.2717 4.1339l35.689 2.7559s36.042 11.299 58.701 11.299c23.701 0 23.611-2.4454 21.772-9.3702-1.2087-4.5516-13.228-13.78-13.228-13.78s7.3049-4.9069 5.5119-9.6458c-3.8583-10.197-42.717-38.583-53.465-44.37-10.748-5.7874-50.433-14.331-65.04-5.7874-14.606 8.5434-17.963 32.104-13.504 44.646 4.4095 12.402 9.3408 18.251 10.059 20.118z"/>
    <path id="path3023" fill="#483e37" d="m331.28 406.55c14.479 12.724 18.318 46.77 16.759 55.344-1.559 8.5744-52.616 26.113-52.616 26.113s-4.677 43.652-5.8462 48.718c-1.1692 5.0667 3.118 10.133 4.677 11.303 1.559 1.1692 26.893 12.082 39.364 10.133 12.472-1.9487 14.038-5.3545 17.149-9.3539 5.4564-7.0154 8.8245-13.421 13.641-58.852 3.1958-30.143-8.1847-75.221-11.692-82.626-3.5077-7.4052-10.718-9.9799-17.928-8.9642l-17.483 2.4631 1.8168 6.5169c3.0785-2.116 9.4026-2.959 12.158-0.79528z"/>
    <path id="path3029" fill="#dbe2e3" d="m327.13 468.66-10.748-1.5158s-4.9607-3.4449-10.748-2.6181c-5.7874 0.82678-25.906 9.9213-28.11 12.126-2.2047 2.2047-1.1024 7.441 0 9.9213s5.7874 7.1654 5.7874 7.1654-4.1339 3.5827-2.7559 5.7874 4.9607 4.1339 6.6142 3.8583c4.867-5.962 7.9816-15.942 13.78-19.016 4.4095-2.2047 26.181-15.709 26.181-15.709z"/>
    <path id="path3033" fill="#e9ddaf" d="m352.48 433.38s-14.606-28.662-19.291-30.591c-4.6851-1.9292-13.504 1.9291-13.504 1.9291l-0.96457 3.0315c-11.078 14.948-20.775 31-30.027 47.408 0 0-26.226-1.9882-33.772-14.062-6.8898-11.024-8.2678-36.929-4.9607-39.961 3.3071-3.0315 13.228-25.355 23.701-30.866 10.473-5.5118 26.859-8.3066 37.481-7.7166 12.539 0.69649 31.693 12.126 36.378 17.087 4.6851 4.9607 26.732 45.473 26.732 45.473s13.504 38.859 14.606 40.788c1.1024 1.9292 12.677 12.677 11.85 15.984-0.82678 3.3071-10.197 5.7874-11.024 10.473-0.82678 4.6851-0.27559 9.9213-5.2363 9.9213s-3.8583-9.0946-7.7166-10.197-12.953-10.473-11.299-11.299c1.6536-0.82678-12.953-47.402-12.953-47.402z"/>
    <path id="path3952" fill="#d1c594" d="m334.29 396.59c19.741 23.797 47.54 82.402 47.54 82.402s1.7914 3.9961 1.6536 4.5473c0.217 1.4973-3.1226 1.1811-3.3071 0.68898 0 0-12.677-32.244-14.055-34.725-1.378-2.4803-30.453-50.847-32.796-51.26-2.3425-0.41339-9.7835-2.3425-12.677-4.2717-2.8937-1.9292-8.4056-7.0276-6.752-6.752 1.6536 0.27559 16.044 4.1266 20.394 9.3702z"/>
    <path id="path3031" fill="#e9c6af" d="m287.72 502.83s-1.378 13.228 2.2047 17.087c3.5827 3.8583 12.402 9.0946 20.669 6.063 8.2678-3.0315 26.457-25.63 29.488-29.488 3.0315-3.8583 19.843-30.04 21.496-31.969 1.6536-1.9292 3.4912 0.722 6.6142-0.82678 3.2093-1.5915 18.131-5.2509 19.016-0.82678l2.067 3.7205s6.4764-4.2717 7.0276-7.5788c0.55118-3.3071-0.82678-9.0946-0.82678-10.197s0.27559-4.9607 0-6.063c-0.27559-1.1024-3.0315-1.378-3.0315-3.0315 0-1.6536 0.00001-4.4095-0.82677-5.7874-0.4659-0.7765-3.2091-1.7894-4.9196-3.3521-1.3249-1.2104-1.6444-2.9712-2.2459-3.8133-1.378-1.9292-9.6457-6.3386-13.504-5.5118-3.8583 0.82677-9.6142 6.4328-16.398 12.264-0.83088 0.71421-2.7559-1.2402-2.7559-1.2402s-6.2008 9.0946-5.6496 12.677c0.55118 3.5827-2.2047 6.8898-3.3071 9.0946-1.1024 2.2047-39.961 27.835-43.544 30.866-3.5827 3.0315-11.575 17.914-11.575 17.914z"/>
    <path id="path3065" fill="#800000" d="m479.66 575.38c-0.007 0.0128 0.007 0.0183 0 0.0312-0.29282 0.5598-0.55081 1.2151-0.71875 1.9062-0.16794 0.69113-0.23155 1.4016-0.0937 2.125 0.27559 1.4469 0.39985 4.1715 0.46875 6.5312 0.0212 0.72481 0.0211 0.73461 0.0312 1.3438l55.301 29.054s-0.50094 2.5146-0.30607 5.1397c0.24483 3.298 5.0052 16.088 5.0052 16.088l6.0625 8.8125 10.75-3.3125c-1.2479-2.8926-1.6426-5.9229-0.83244-8.9533l6.0512 7.5783 8.2812-3.0312s-8.0668-17.591-14.344-24.781c-3.0613-3.5065-8.8265-6.9089-11.031-8.5625-1.2-0.90003-33.271-15.643-64.625-29.969z"/>
    <path id="path3073" d="m354.96 372.2s5.3741 6.2008 5.3741 7.8544-5.0985-1.6536-5.0985-1.6536 1.9291 0.27559 1.7914-0.55119c-0.1378-0.82677-2.067-5.6496-2.067-5.6496z" fill="#a05a2c"/>
    <path id="path3077" d="m372.75 297.53c-1.1041 0.31179-2.1667 0.69899-3.1875 1.1562-3.1548-0.29368-6.2753-0.45706-9.1562-0.5625-2.5693 0.38226-4.9319 0.91951-6.9688 1.7188 3.842-0.0614 8.5923-0.0274 13.375 0.28125-4.197 2.5826-7.5255 6.37-10.156 10.531-5.9082 0.0848-12.383 0.85511-15.969 1.3438-0.40221 0.74153-0.77129 1.5079-1.125 2.2812 3.5318-0.728 9.7463-1.7351 15.969-1.7812-3.638 6.382-5.7082 13.286-6.625 17.844-4.2305-0.13578-10.318 0.99454-13.375 1.625-0.0235 0.64199-0.0333 1.2747-0.0312 1.9062 3.4192-0.73984 9.0477-1.7591 13.062-1.5938-0.11211 0.73553-0.18585 1.3768-0.21875 1.875-0.28973 4.388-0.0547 9.7175 0.4375 14.906-2.643 0.19565-6.6277 1.4426-9.2188 2.3125 0.37226 0.8606 0.72798 1.6923 1.0938 2.4688 2.4939-0.73301 5.8865-1.6138 8.4688-1.8438 0.82255 7.2647 2.0369 13.872 2.8438 16.844 0.24426 0.0859 0.5 0.1875 0.5 0.1875s0.48345-0.60712 1.1562-1.2812c-1.0036-3.3554-2.4602-9.3461-3.4375-15.812 0.96158-0.0133 2.0244 0.05 3.125 0.15625 0.3877 2.6112 2.1875 14.188 2.1875 14.188 0.37078-0.20479 0.75707-0.35369 1.125-0.40625 0.36172-0.0517 0.72113 0.0322 1.0938 0.25h0.125s-2.7547-9.6698-3.5938-13.906c6.7089 0.80621 15.233 3.3907 22.125 5.7812 1.2569 0.84844 2.5625 1.375 2.5625 1.375s-2.0682 3.0354-2.3438 4c-0.26607 0.93124-0.89253 7.2956-0.9375 7.75l1.5 0.125c0.0273-1.0666 0.22166-6.472 1.2188-7.5938 1.1024-1.2402 1.5312-4 1.5312-4s-0.14624-0.23104-0.375-0.5625c1.1691 0.42382 2.144 0.81624 3.125 1.1875 0.87452 1.2331 3.3125 1.5938 3.3125 1.5938l-2.4062 9.875 1.4688 0.125 1.75-9.7188s-3.0312-2.3479-3.0312-3.3125c0.44646-5.5836 1.4408-10.824 2.8438-15.688 8.0631 3.2101 15.655 6.6925 21.781 9.9375-1.7289 4.2075-3.3527 8.3416-5.0312 12.344l2.75 0.15625c0.76103-3.8101 2.0014-7.8122 3.5312-11.844 1.6908 0.91686 3.2834 1.8321 4.6875 2.6875-1.2267 3.2328-2.4664 6.4425-3.6875 9.6875h1.5312c0.82407-2.9561 1.834-6.0398 2.9688-9.1875 4.3077 2.6999 6.9832 4.991 7.0938 6.4375 0.15247 1.9941-1.3054 2.3512-2.0312 2.4062l2.125 0.0625c1.5044 0.16075 4.3003-0.40262 4.3125-2.75 0.01-1.9064-4.0868-5.1113-10.531-8.8125 1.4017-3.6909 2.9901-7.4116 4.625-11.031 10.98 8.9242 18.112 16.896 17.875 19.312-0.26837 2.7324-2.875 3.1562-2.875 3.1562l2.75-0.28125s2.5642-0.7173 3.0312-3.2812c0.50251-2.7584-7.6166-11.628-19.719-21.25 1.7243-3.6952 3.4884-7.225 5.25-10.469 7.8805 6.1481 14.949 12.141 20.281 17-1.27 6.2709-2.6812 12.043-3.5938 13.312-1.7986 2.5018-2.2188 4.4375-2.2188 4.4375s2.3005 0.0484 4.4062-6.3438c0.99226-3.0121 1.7903-6.6922 2.4688-10.406 1.4699 1.3554 2.8002 2.6362 3.9375 3.75-0.49639 2.6201-1.1447 5.0249-2 6.9062-1.0641 2.3404-5.0938 5.8125-5.0938 5.8125s4.4262-2.303 6.1875-5.0938c0.82633-1.3094 1.4545-3.7526 1.9062-6.6562 2.4094 2.4189 3.8825 4.088 3.9062 4.5625 0.1378 2.7559-3.7188 6.75-3.7188 6.75l2.0625-0.6875s3.3068-2.1914 3.0312-6.1875c-0.0549-0.79625-1.925-3.0944-5.0312-6.2812 0.4634-3.6497 0.70472-7.743 0.84375-11.219 7.5968 7.0665 12.627 12.811 11.906 14.875-0.82632 2.3678-5.0938 7.3125-5.0938 7.3125s5.9787-4.2245 6.3125-7.4375c0.31819-3.063-5.0964-9.5107-13.031-16.938 0.0328-1.1223 0.0486-1.9293 0.0625-2.7812-0.24372-0.21041-0.47175-0.41368-0.71875-0.625-0.0187 0.81992-0.0226 1.6347-0.0625 2.75-1.078-0.99823-2.2181-2.0054-3.375-3.0312 0.15181-1.4225 0.1702-1.5679 0.25-2.4062-0.24822-0.20515-0.49972-0.38838-0.75-0.59375-0.0498 0.67092-0.10639 1.4289-0.21875 2.3438-5.0567-4.4467-10.723-9.0438-16.438-13.406 0.27296-0.39421 0.54379-0.78249 0.8125-1.1562-0.39063-0.28444-0.80122-0.56479-1.1875-0.84375-0.24984 0.38529-0.4971 0.77378-0.75 1.1562-0.76548-0.57936-1.5178-1.1511-2.2812-1.7188 0.27471-0.36758 0.54226-0.67911 0.8125-1.0312-0.45379-0.32239-0.89923-0.65622-1.3438-0.96875-0.27496 0.33838-0.57159 0.66314-0.84375 1-5.3237-3.9156-10.5-7.5518-15.062-10.406 0.14315-0.0904 0.2945-0.16085 0.4375-0.25-0.55627-0.24402-1.2059-0.50182-1.8438-0.75-0.0387 0.0333-0.0863 0.0606-0.125 0.0937-0.28612-0.17431-0.53298-0.30139-0.8125-0.46875-1.3013-0.48023-2.7292-0.96092-4.2812-1.4375 1.3153 0.7932 2.7248 1.6808 4.2188 2.6562-2.412 2.0857-4.5933 4.0653-6.5625 5.9375-2.5666-1.6195-5.0974-3.1349-7.5938-4.5312 2.8726-1.855 6.0735-3.2901 9.625-4.1562-0.6722-0.20414-1.3827-0.39298-2.0938-0.59375-2.6376 0.81897-5.5653 2.2037-8.5625 4.1875-3.8053-2.0862-7.489-3.8667-10.938-5.2188-0.73542-0.28835-1.5598-0.56659-2.4062-0.8125 1.4181-0.90943 2.5896-1.571 3.4375-2.0312-0.91759-0.13302-1.8281-0.25983-2.75-0.375-0.96655 0.42625-2.0309 1.0087-3.1562 1.7812-2.0477-0.46147-4.2835-0.82963-6.5938-1.125 1.6554-0.53353 3.1401-0.93856 4.3125-1.25-1.6721-0.13649-3.335-0.25479-4.9688-0.3125zm-2.9688 2.8438c2.9372 0.26956 5.7904 0.65471 8.3438 1.2188-3.162 2.5083-6.6733 6.0926-10.062 10.344-1.485-0.35632-2.9572-0.66672-4.4062-0.90625-1.7416-0.28789-3.868-0.41056-6.125-0.40625 1.5241-2.4514 3.3467-4.6926 5.5625-6.625 1.5783-1.3764 4.0863-2.605 6.6875-3.625zm10.688 1.8125c0.61917 0.17942 1.2194 0.35624 1.7812 0.5625 3.6836 1.3521 7.6278 3.2056 11.719 5.4062-3.2635 2.43-6.5065 5.6205-9.4062 9.5938-5.1812-2.3305-10.355-4.2385-15.375-5.5312 3.9238-4.4221 7.9804-7.7304 11.281-10.031zm31.844 4.7188c4.5899 3.0521 9.8414 6.8048 15.219 10.875-1.7652 2.2585-3.4156 4.5424-4.9375 6.875-5.661-4.2869-11.558-8.4791-17.375-12.188 2.2774-2.0892 4.644-3.9338 7.0938-5.5625zm-17.31 1.82c2.6126 1.4343 5.2524 3.0136 7.9375 4.6875-3.4547 3.3809-6.2162 6.4356-8.4375 9.2812-2.8426-1.5537-5.7103-3.0069-8.5938-4.3438 2.5279-3.6284 5.5241-6.9705 9.0938-9.625zm-38.562 3.8125c2.596 0.0227 5.1439 0.19934 7.4688 0.6875 0.87621 0.18399 1.775 0.40635 2.6562 0.625-3.9497 5.2519-7.5958 11.369-10.125 17.625-2.1154-0.42347-4.1378-0.76744-6.0312-1 1.3444-6.0723 3.0493-12.42 6.0312-17.938zm47.25 1.3438c6.0017 3.7778 12.095 8.0206 17.906 12.375-2.0917 3.3316-3.9951 6.7191-5.7188 10.125-6.1459-4.5196-12.992-9.0367-20.094-13 2.4002-3.5266 5.0548-6.6987 7.9062-9.5zm-36.094 0.21875c5.1804 1.3589 10.421 3.2808 15.594 5.5938-3.074 4.6798-5.6325 10.377-7.25 17.156-6.485-2.1684-12.831-3.9914-18.531-5.1875 2.4837-7.2377 5.6621-11.439 7.4688-14.031 0.87124-1.25 1.8023-2.4094 2.7188-3.5312zm61.344 4.75c0.77016 0.58816 1.5404 1.1831 2.3125 1.7812-1.547 2.4102-2.9883 4.847-4.3438 7.3125-0.90103-0.70553-1.8327-1.3904-2.75-2.0938 1.6501-2.5359 3.2474-4.8972 4.7812-7zm-44.375 1.4688c2.8631 1.3208 5.6826 2.7647 8.4688 4.2812-4.1196 5.72-6.0455 10.666-7.2812 15.75-2.8443-1.0821-5.7106-2.1225-8.5625-3.0938 1.5505-5.4756 3.9411-11.487 7.375-16.938zm47.781 1.1875c5.9768 4.6614 11.852 9.511 17.062 14.094-0.41819 2.9468-1.0193 6.4327-1.7188 10.031-5.3173-4.9457-12.192-10.878-19.75-16.844 1.516-2.7155 3.0104-5.1653 4.4062-7.2812zm-37.875 3.9062c7.2924 4.0679 14.214 8.6295 20.312 13.188-1.9624 4.035-3.7047 8.0913-5.375 12.094-6.4441-3.2586-14.152-6.6613-22.125-9.75 1.8477-5.7236 4.2852-10.909 7.1875-15.531zm28.656 2.0312c0.96196 0.72927 1.9318 1.426 2.875 2.1562-1.8558 3.4874-3.5397 7.0243-5.125 10.594-1.1746-0.9224-2.3835-1.8518-3.625-2.7812 1.9068-3.4933 3.8958-6.8537 5.875-9.9688zm-73.12 4.94c1.8087 0.25512 3.739 0.58514 5.7188 1-1.9914 5.4548-3.0633 10.952-2.6875 16.094-0.99523-0.15804-1.9966-0.298-3.0312-0.40625-0.0653-0.007-0.1496 0.004-0.21875 0-0.70031-5.6418-0.93599-11.293-0.0625-15.438 0.0866-0.41077 0.19263-0.83512 0.28125-1.25zm6.7812 1.25c5.8107 1.2775 12.199 3.1833 18.656 5.4062-0.96779 4.8244-1.4486 10.189-1.3125 16.094 0.0124 0.53828 0.28272 1.0511 0.6875 1.5312-6.4826-2.9135-13.073-5.6698-20.75-7.0312 0.41765-6.4677 1.4279-11.718 2.7188-16zm93.406 2.6562c1.2002 1.0636 2.3931 2.1363 3.5 3.1562-0.168 3.2941-0.46789 7.2004-1.0625 10.938-1.1624-1.1675-2.4634-2.4216-3.9062-3.7812 0.62775-3.7053 1.1247-7.3475 1.4688-10.312zm-73.594 3.1562c2.8913 1.0122 5.7729 2.0705 8.625 3.1875-0.99462 4.8823-1.5524 10.054-2.8438 16.344-0.0885 0.43099-0.017 0.80648 0.15625 1.125-1.1401-0.49574-2.2788-0.99144-3.4062-1.5-0.73708-0.99718-1.8953-2.4075-3.2188-3.0625-1.4352-0.71033-1.4377-7.5509 0.6875-16.094zm39.5 0.15625c1.2887 0.98074 2.5444 1.9703 3.75 2.9375-1.6059 3.7362-3.1052 7.5238-4.5625 11.312-1.461-0.82357-3.0535-1.7043-4.7188-2.5625 1.6114-3.9459 3.52-7.8649 5.5312-11.688z" fill="#1c2422"/>
    <path id="path3075" opacity=".5" fill="#1c2422" d="m371.22 353.32c3.0039 0.30437 16.954 8.3061 31.555 11.437 4.8177 1.033 38.445 0.68899 52.225-1.1024 1.2374-0.16086 8.13-2.4803 8.13-2.4803s-8.9568 4.1339-13.642 4.6851c-4.6851 0.55118-44.784 0.68898-59.252-0.41339-4.8578-0.37011-18.454-2.1629-21.083-3.3071-7.5678-3.2936-3.9475-9.4284 2.0669-8.819z"/>
    <path id="path3877" d="m393.34 474.47c-4.1692 0.01-8.5002 2.9638-9.8438 4.5312-1.6536 1.9291 1.6479 4.5354-0.28125 5.5-1.9292 0.96457-8.281-1.247-11.312-2.625-3.0315-1.378-2.4884-7.4446-4.9688-7.0312-1.2402 0.20669-1.6326 1.5499-1.7188 3.0312 0.002 0.009-0.002 0.022 0 0.0312 0.32363 1.6648 0.45096 2.7589 0.21875 2.875-0.0372 0.0186-0.0673 0.0354-0.0937 0.0625 0.0344 0.31537 0.0749 0.69913 0.0937 0.90625 0 0-0.00006 0.0931 0 0.0937 1.2325 2.6702 8.0956 9.3309 11.312 10.25 3.8583 1.1024 2.7268 10.188 7.6875 10.188s4.4232-5.2524 5.25-9.9375c0.82678-4.6851 10.204-7.1616 11.031-10.469 0.31773-1.2709-1.2029-3.6416-3.25-6.1875-0.40918-0.26212-0.84205-0.49932-1.3125-0.6875-0.90429-0.36171-1.8504-0.53347-2.8125-0.53125z" fill="#b4a875"/>
    <path id="path3937" d="m566.22 631.66-10.531 2.9688 5.6875 7.0938 8.2812-3.0312s-1.393-3.0254-3.4375-7.0312zm-11.031 3.0938-11.781 3.3125-1.9062 2.6562 3.9062 5.6875 10.75-3.3125c-1.1638-2.6978-1.5745-5.518-0.96875-8.3438z" fill="#999"/>
    <path id="path3935" opacity=".5" fill="#2b0000" d="m557.53 633.92c0.7795 0.77949 3.8424 7.7983 3.8424 7.7983l-6.0512-7.5783s1.4293-0.99951 2.2088-0.22002z"/>
    <path id="path3944" opacity=".5" fill="#501616" d="m479.22 583.75c0.0346 0.74963 0.0725 1.4903 0.0937 2.2188 0.0212 0.72481 0.0211 0.73461 0.0312 1.3438l55.312 29.062s-0.50737 2.4999-0.3125 5.125c0.24483 3.298 5 16.094 5 16.094l6.0625 8.8125 0.34375-0.0937c-1.7222-5.3456-6.5753-20.376-7.8125-23.25-2.7432-6.3731-2.3383-7.509-1.6562-9.75 0.17322-0.72296 0.43069-0.58304-1.3438-1.75-0.5655-0.3719-28.063-14.056-55.719-27.812z"/>
    <path id="path3954" fill="#d1c594" d="m396.45 480.96c-1.3317 0.42391-10.411 2.2836-10.995 6.4734l3.5167 4.9707s0.97526-2.5017 2.7712-3.9715c1.7374-1.4219 7.3482-4.1276 8.3226-6.466 0 0-2.2833-1.4305-3.615-1.0066zm-26.885 4.2254c-0.44854 0.37378 6.8594 7.3064 8.5 6.7188 0.61534-0.22042-1.6562-3.2188-1.6562-3.2188zm15.912 9.0606c-1.352 0.65751-2.9044 2.45-5.2611 1.3494 0 0 1.2409 3.7205 1.6306 4.4026 0.38974 0.68206 0.49421 2.2372 3.125 1.75 2.7282 0.19488 3.0312-2.625 3.0312-2.625z"/>
    <path id="path3970" d="m326.58 402.52s-18.465-7.441-25.906-4.9607-11.299 3.8583-6.3386 5.2363c4.9607 1.378 15.984-0.2756 19.567-0.55119 3.5827-0.27559 12.677 0.27559 12.677 0.27559z" fill="#d1c594"/>
    <path id="path3972" fill="#6c5d53" d="m335.95 562.63c-3.399 10.505-9.2783 17.709-16.811 20.118l0.55118 4.6851c9.4131-7.147 15.271-13.457 18.189-22.323-1.9292-2.7559-1.9292-2.4803-1.9292-2.4803z"/>
    <path id="path3974" style="block-progression:tb;color:#000000;text-transform:none;text-indent:0" d="m318.66 565.03c-5.6258-0.0943-11.299 3.5814-13.75 8.8438-0.87032 0.0803-1.7286 0.35348-2.5 0.875-1.9863 1.343-2.8146 3.8306-2.1875 6.0312l-12.5 8.4375-1.9375-2.875-2.25 1.5938 0.6875 1-1.875 1.1875-1.7188-2.5-2.7188 1.8438 2.9688 4.375-1.3125 0.90625 1.5312 2.2188 20.5-13.875c0.98162 0.98609 2.2789 1.4804 3.625 1.5312 0.64205 1.0086 1.4781 1.8831 2.4688 2.5938-0.14672 2.0608 0.88717 4.0221 2.625 5.0625l-3.6875 16.406-3.6875-0.84375-0.65625 2.9062-1.9688-0.4375-0.96875 4.2812 5.6562 1.2812-0.15625 0.71875 2.5938 0.59375 5.4688-24.156c2.5373 0.0728 4.8596-1.6541 5.4375-4.2188 0.0273-0.12111 0.0437-0.25407 0.0625-0.375 4.5193-1.5196 8.4523-5.2411 9.875-9.9062 0.68516-2.2467 0.69272-4.4181 0.15625-6.3438 0.20307-0.0394 0.40479-0.0625 0.625-0.0625 0.8551 0 1.5748 0.31608 2.0938 0.8125 0.54044-0.82396 1.0399-1.6861 1.5312-2.5938-1.012-0.75582-2.2674-1.2188-3.625-1.2188-0.6557 0-1.2793 0.11948-1.875 0.3125-1.5351-2.3166-4.0603-3.9306-7.2812-4.3125-0.41434-0.0491-0.83377-0.0868-1.25-0.0937zm-0.41 1.97c0.3491 0.006 0.71462 0.0525 1.0625 0.0937 2.6006 0.30837 4.6416 1.5593 5.9375 3.375-1.2692 1.025-2.0938 2.5503-2.0938 4.2812 0 1.8493 0.92385 3.471 2.3438 4.5 0.22226-0.17843 0.43785-0.37672 0.65625-0.5625-1.2539 3.6154-4.2682 6.5292-7.7812 7.8125-0.42587-2.0029-1.9698-3.6777-4.0938-4.1562-2.3856-0.53755-4.7908 0.59414-5.9375 2.625-0.26572-0.24192-0.5216-0.47615-0.75-0.75 0.3087-0.1327 0.58729-0.27423 0.875-0.46875 2.4684-1.6688 3.1376-5.0629 1.4688-7.5312-0.74386-1.1002-1.8382-1.8169-3.0312-2.1562 2.1304-4.2305 6.7466-7.1432 11.344-7.0625zm8.3125 6.4062c0.20353 0.91616 0.26159 1.892 0.15625 2.9062-0.35494-0.44693-0.5625-0.98558-0.5625-1.5625 0-0.48527 0.14958-0.9479 0.40625-1.3438zm-20.656 3.4688c0.00054-0.003 0.0307 0.003 0.0312 0 0.59242 0.12796 1.1259 0.47792 1.5 1.0312 0.76076 1.1252 0.50023 2.583-0.625 3.3438-0.2066 0.13968-0.43232 0.24088-0.65625 0.3125-0.45882-1.421-0.59535-3.0171-0.25-4.6875zm-2.0938 0.59375c-0.19183 1.2602-0.17415 2.4758 0.0312 3.625-0.15284-0.13459-0.28543-0.29005-0.40625-0.46875-0.69139-1.0226-0.5075-2.351 0.375-3.1562zm9.3125 7.7188c0.16248 0.005 0.33437 0.0252 0.5 0.0625 0.98285 0.22147 1.675 0.96349 1.8438 1.875-0.75927 0.0741-1.5219 0.09-2.2812 0-0.82703-0.0981-1.6008-0.28443-2.3125-0.5625 0.40587-0.86269 1.2898-1.4017 2.25-1.375zm-2.1875 3.5625c0.53062 0.14434 1.0804 0.27547 1.6562 0.34375 0.77702 0.0921 1.564 0.0853 2.3438 0.0312-0.55328 0.70542-1.4597 1.0883-2.4062 0.875-0.72474-0.16331-1.2728-0.64998-1.5938-1.25z"/>
    <path id="path4009" fill="#483e37" d="m269.88 702.78c-1.5571 0.19884-4.2562 5.0302-1.1394 4.828 5.1762-0.33581 7.5192-0.24339 10.934 2.8636 1.2306 1.1197 2.8532-2.6895 2.2515-4.1408-1.6034-3.8669-10.406-3.7602-12.046-3.5508z"/>
    <path id="path4011" fill="#483e37" d="m267.65 712.34c-1.9033 0.69346-1.423 5.4674 1.5158 4.4095 3.4449-1.2402 6.8489-1.1372 9.7835 0.82679 1.3827 0.92533 2.1592-3.273 1.2402-4.5473-2.4487-3.3952-10.201-1.5411-12.539-0.68898z"/>
    <path id="path4013" fill="#483e37" d="m269.06 720.72c-1.4698 0.55118-2.987 5.8734 0 4.9607 4.9607-1.5158 6.1599-1.275 10.059 0.4134 1.5268 0.66109 1.7684-3.3279 0.82678-4.5473-2.2242-2.8803-9.3376-1.4074-10.886-0.82678z"/>
    <path id="path4015" fill="#483e37" d="m427.17 695.19c-1.0086 0.0807-2.6198 3.9733 0.41339 3.7205l3.3071-0.27559c3.1408-0.26174 1.2874-3.8455-0.27559-3.7205z"/>
    <path id="path4017" fill="#483e37" d="m428 703.19c-1.0086 0.0807-2.6198 3.9733 0.41339 3.7205l3.3071-0.27559c3.1408-0.26174 1.2874-3.8455-0.27559-3.7205z"/>
    <path id="path4019" fill="#483e37" d="m429.1 710.77c-1.0086 0.0807-2.6198 3.9733 0.41339 3.7205l3.3071-0.27559c3.1408-0.26174 1.2874-3.8455-0.27559-3.7205z"/>
    <path id="path4124" d="m388.56 457.22s-24.939 1.5513-25.719 3.5c-0.77949 1.9487-9.3438 5.4688-9.3438 5.4688s-44.417 42.09-49.094 47.156c-2.4866 2.6939-9.3698 4.3714-15.281 5.375 0.23748 0.45185 0.50667 0.85815 0.8125 1.1875 3.5827 3.8583 12.388 9.094 20.656 6.0625 8.2678-3.0315 26.468-25.61 29.5-29.469 3.0315-3.8583 19.815-30.04 21.469-31.969 1.6536-1.9292 3.5019 0.70503 6.625-0.84375 3.2093-1.5915 18.146-5.2366 19.031-0.8125l2.0625 3.7188s1.6833-1.13 3.4062-2.6562l-4.125-6.7188z" fill="#deaa87"/>
    <path id="path4134" fill="#6f918a" d="m428.69 379.32c13.418 2.4844 28.849 4.0148 38.225 3.118 3.363-0.32168 5.7251 0.0427 7.8757-0.23691-2.3886 0.8239-3.8604 1.0091-9.6197 1.3352-28.873 1.6351-65.873-10.305-65.873-10.305s20.267 4.3988 29.392 6.0884z"/>
    <path id="path4136" fill="#d1c594" d="m311.56 417.84c-8.5877 7.0109-19.807 15.78-23.938 17.156-7.0154 2.3385-16.364 1.1692-18.312 0-1.9487-1.1692-6.2439-9.4526-5.8976-6.7185 0.57888 4.5709-0.72141 6.7097-4.2291 7.4892-1.5844 0.35208-5.217 0.86596-7.8732-3.3645 0.97305 3.3148 2.1644 6.3506 3.625 8.6875 7.546 12.074 33.75 14.062 33.75 14.062 7.2028-12.775 14.691-25.323 22.875-37.312z"/>
    <path id="path4151" fill="#b7c4c8" d="m298.19 479.12s-6.9519 3.6648-9.375 6.0625c-1.9846 1.7631-6.6269 4.2699-11.281 1.375 1.1024 2.4803 5.7812 7.1875 5.7812 7.1875s-1.6649 1.4184-2.5312 3.0312h0.0625z"/>
    <path id="path4166" fill="#241f1c" d="m397.94 572.19s-23.84 1.3896-33.912 7.0312c-7.6177 4.267-17.932 19.094-17.932 19.094l14.438-13.656s-20.269 57.476-22.628 62.365c-3.9936 8.2773-48.216 48.454-62.216 45.666 1.5274 3.4281 3.6401 6.0349 6.5312 6.375 9.3702 1.1024 12.659-2.7581 14.312-7.7188 1.743-5.229 33.624-28.113 39.688-39.688 6.063-11.575 23.71-59.519 24.812-65.031 1.1024-5.5118 14.341-11.029 18.75-9.375 4.4095 1.6536 16.182 13.683 25.562 18.406 13.379 6.7373 28.614 19.81 28.906 20.062l6.1562-3.375-48.312-29.25c1.9598-3.7578 22.083-0.25 33.125-0.375l-39.375-4.2812c-2.1671-2.7919 7.3017-4.2536 12.094-6.25zm44.438 43.656-10.625 5.4688 2.0074 5.5534 5.7766-5.6385c1.764-1.7218 2.8411-5.3836 2.8411-5.3836zm-5.8438 19.5-7.8125 3.875 0.83638 7.2704s1.0991-2.5942 4.2261-3.7391c3.1646-1.1586 3.0352-6.6201 2.75-7.4062z"/>
  </g>
  <metadata>
    <rdf:RDF>
      <cc:Work>
        <dc:format>image/svg+xml</dc:format>
        <dc:type rdf:resource="http://purl.org/dc/dcmitype/StillImage"/>
        <cc:license rdf:resource="http://creativecommons.org/licenses/publicdomain/"/>
        <dc:publisher>
          <cc:Agent rdf:about="http://openclipart.org/">
            <dc:title>Openclipart</dc:title>
          </cc:Agent>
        </dc:publisher>
        <dc:title>burglar</dc:title>
        <dc:date>2011-11-05T10:44:10</dc:date>
        <dc:description>burglar, clip art, clipart, crime, criminal, theft, thief, </dc:description>
        <dc:source>http://openclipart.org/detail/165656/burglar-by-tzunghaor</dc:source>
        <dc:creator>
          <cc:Agent>
            <dc:title>tzunghaor</dc:title>
          </cc:Agent>
        </dc:creator>
        <dc:subject>
          <rdf:Bag>
            <rdf:li>burglar</rdf:li>
            <rdf:li>clip art</rdf:li>
            <rdf:li>clipart</rdf:li>
            <rdf:li>crime</rdf:li>
            <rdf:li>criminal</rdf:li>
            <rdf:li>theft</rdf:li>
            <rdf:li>thief</rdf:li>
          </rdf:Bag>
        </dc:subject>
      </cc:Work>
      <cc:License rdf:about="http://creativecommons.org/licenses/publicdomain/">
        <cc:permits rdf:resource="http://creativecommons.org/ns#Reproduction"/>
        <cc:permits rdf:resource="http://creativecommons.org/ns#Distribution"/>
        <cc:permits rdf:resource="http://creativecommons.org/ns#DerivativeWorks"/>
      </cc:License>
    </rdf:RDF>
  </metadata>
</svg>
