<?xml version="1.0"?>
<svg xmlns:rdf="http://www.w3.org/1999/02/22-rdf-syntax-ns#" xmlns="http://www.w3.org/2000/svg" xmlns:cc="http://creativecommons.org/ns#" xmlns:xlink="http://www.w3.org/1999/xlink" xmlns:dc="http://purl.org/dc/elements/1.1/" xmlns:svg="http://www.w3.org/2000/svg" id="svg11300" viewBox="0 0 48 48">
  <defs id="defs3">
    <radialGradient id="radialGradient5031" xlink:href="#linearGradient5060" gradientUnits="userSpaceOnUse" cy="486.65" cx="605.71" gradientTransform="matrix(-2.7744 0 0 1.9697 112.76 -872.89)" r="117.14"/>
    <linearGradient id="linearGradient5060">
      <stop id="stop5062" offset="0"/>
      <stop id="stop5064" stop-opacity="0" offset="1"/>
    </linearGradient>
    <radialGradient id="radialGradient5029" xlink:href="#linearGradient5060" gradientUnits="userSpaceOnUse" cy="486.65" cx="605.71" gradientTransform="matrix(2.7744 0 0 1.9697 -1891.6 -872.89)" r="117.14"/>
    <linearGradient id="linearGradient5027" x1="302.86" gradientUnits="userSpaceOnUse" y1="366.65" gradientTransform="matrix(2.7744 0 0 1.9697 -1892.2 -872.89)" x2="302.86" y2="609.51">
      <stop id="stop5050" stop-opacity="0" offset="0"/>
      <stop id="stop5056" offset=".5"/>
      <stop id="stop5052" stop-opacity="0" offset="1"/>
    </linearGradient>
    <radialGradient id="radialGradient278" gradientUnits="userSpaceOnUse" cy="125" cx="55" r="14.375">
      <stop id="stop12513" stop-color="#fff" offset="0"/>
      <stop id="stop12517" stop-color="#fff520" stop-opacity=".89109" offset=".5"/>
      <stop id="stop12514" stop-color="#fff300" stop-opacity="0" offset="1"/>
    </radialGradient>
    <linearGradient id="linearGradient6738" x1="16.25" gradientUnits="userSpaceOnUse" y1="12.25" gradientTransform="matrix(1.1078 0 0 1 -1.8778 -.5)" x2="31.5" y2="36.625">
      <stop id="stop6734" stop-color="#fff" offset="0"/>
      <stop id="stop6736" stop-color="#ddd" offset="1"/>
    </linearGradient>
    <radialGradient id="radialGradient6948" gradientUnits="userSpaceOnUse" cy="19.836" cx="16.215" gradientTransform="matrix(1 0 0 .68192 19.762 14.904)" r="13.565">
      <stop id="stop4346" stop-color="#727e0a" offset="0"/>
      <stop id="stop4348" stop-color="#5b6508" offset="1"/>
    </radialGradient>
    <radialGradient id="radialGradient6950" gradientUnits="userSpaceOnUse" cy="19.009" cx="31.113" r="8.6621">
      <stop id="stop3818" offset="0"/>
      <stop id="stop3820" stop-opacity="0" offset="1"/>
    </radialGradient>
    <radialGradient id="radialGradient6952" gradientUnits="userSpaceOnUse" cy="17.064" cx="29.345" gradientTransform="matrix(.788 3.8776e-16 -3.8776e-16 .788 6.2212 3.6176)" r="9.1621">
      <stop id="stop4340" stop-color="#e9b15e" offset="0"/>
      <stop id="stop4342" stop-color="#966416" offset="1"/>
    </radialGradient>
    <linearGradient id="linearGradient6954" x1="30.936" gradientUnits="userSpaceOnUse" y1="29.553" gradientTransform="translate(7.3444 -.32967)" x2="30.936" y2="35.803">
      <stop id="stop3826" stop-color="#fff" offset="0"/>
      <stop id="stop3828" stop-color="#c9c9c9" offset="1"/>
    </linearGradient>
    <linearGradient id="linearGradient6956" x1="20.662" xlink:href="#linearGradient5060" gradientUnits="userSpaceOnUse" y1="35.818" gradientTransform="matrix(.98338 .18159 -.18159 .98338 12.69 -3.1546)" x2="22.627" y2="36.218"/>
    <linearGradient id="linearGradient6958" x1="22.687" xlink:href="#linearGradient5060" gradientUnits="userSpaceOnUse" y1="36.39" gradientTransform="matrix(-.97768 .21008 .21008 .97768 61.568 -4.4483)" x2="21.408" y2="35.74"/>
  </defs>
  <g id="layer1">
    <g id="g5022" transform="matrix(.024960 0 0 .014857 46.772 36.609)">
      <rect id="rect4173" opacity=".40206" style="color:black" height="478.36" width="1339.6" y="-150.7" x="-1559.3" fill="url(#linearGradient5027)"/>
      <path id="path5058" opacity=".40206" style="color:black" fill="url(#radialGradient5029)" d="m-219.62-150.68v478.33c142.88 0.9 345.4-107.17 345.4-239.2 0-132.02-159.44-239.13-345.4-239.13z"/>
      <path id="path5018" opacity=".40206" style="color:black" fill="url(#radialGradient5031)" d="m-1559.3-150.68v478.33c-142.8 0.9-345.4-107.17-345.4-239.2 0-132.02 159.5-239.13 345.4-239.13z"/>
    </g>
    <rect id="rect5857" style="color:#000000" fill-rule="evenodd" rx="2.75" ry="2.75" height="30" width="43.898" stroke="#939393" y="8.5" x="2.5535" fill="url(#linearGradient6738)"/>
    <rect id="rect6740" style="color:#000000" rx="1.75" ry="1.75" height="27.741" width="41.901" stroke="#fff" y="9.6293" x="3.5477" fill="none"/>
    <g id="g6935" transform="matrix(.43480 0 0 .43480 -4.1223 8.4414)">
      <path id="path2329" stroke-linejoin="round" style="color:#000000" d="m32.623 41.306h10.607c3.005 0 5.981-1.102 7.071-4.242 1.036-2.983 0.177-8.662-6.541-13.259h-12.551c-6.717 4.243-7.557 10.045-6.01 13.436 1.575 3.453 4.243 4.065 7.424 4.065z" fill-rule="evenodd" stroke="#404604" stroke-linecap="round" stroke-width="2.2999px" fill="url(#radialGradient6948)"/>
      <path id="path3812" style="color:#000000" fill-rule="evenodd" fill="#9db029" d="m37.695 26.457s-2.152 1.66-1.966 3.661c-2.042-1.801-2.1-5.252-2.1-5.252l4.066 1.591z"/>
      <path id="path3838" opacity=".21519" stroke-linejoin="round" style="color:#000000" d="m33.211 39.483h9.297c2.379 0 4.734-0.873 5.598-3.359 0.819-2.361-0.086-6.856-5.403-10.495h-10.386c-5.317 3.359-6.207 7.952-4.983 10.635 1.247 2.734 3.358 3.219 5.877 3.219z" stroke="#fff" stroke-linecap="round" stroke-width="2.2999px" fill="none"/>
      <path id="path3810" style="color:#000000" fill-rule="evenodd" fill="#9db029" d="m38.673 26.457s2.151 1.66 1.966 3.661c2.041-1.801 2.1-5.252 2.1-5.252l-4.066 1.591z"/>
      <path id="path3814" style="color:#000000" d="m39.775 19.009a8.6621 8.6621 0 1 1 -17.324 0 8.6621 8.6621 0 1 1 17.324 0z" fill-rule="evenodd" transform="translate(6.5123 3.1703)" fill="url(#radialGradient6950)"/>
      <path id="path2327" stroke-linejoin="round" style="color:#000000" d="m39.775 19.009a8.6621 8.6621 0 1 1 -17.324 0 8.6621 8.6621 0 1 1 17.324 0z" fill-rule="evenodd" transform="translate(6.6373 -.32967)" stroke="#6f4709" stroke-linecap="round" stroke-width="2.2999px" fill="url(#radialGradient6952)"/>
      <path id="path3834" opacity=".12658" stroke-linejoin="round" style="color:#000000" d="m39.775 19.009a8.6621 8.6621 0 1 1 -17.324 0 8.6621 8.6621 0 1 1 17.324 0z" transform="matrix(.74738 0 0 .74738 14.497 4.4724)" stroke="#fff" stroke-linecap="round" stroke-width="3.0773px" fill="none"/>
      <path id="path4173" style="color:#000000" fill-rule="evenodd" fill="url(#linearGradient6954)" d="m42.346 33.705h4.243l-2.475-2.298-0.53 0.707-0.531-0.53-0.707 2.121z"/>
      <path id="path4368" opacity=".22785" style="color:#000000" d="m28.31 40.272c-1.247-0.545-1.806-1.858-1.806-1.858 0.842-4.069 3.72-7.046 3.72-7.046s-2.279 6.411-1.914 8.904z" fill-rule="evenodd" fill="url(#linearGradient6956)"/>
      <path id="path4370" opacity=".22785" style="color:#000000" d="m47.216 39.414c1.231-0.581 1.804-2.003 1.804-2.003-0.959-4.043-3.976-6.842-3.976-6.842s2.465 6.342 2.172 8.845z" fill-rule="evenodd" fill="url(#linearGradient6958)"/>
    </g>
    <path id="text6970" d="m21.343 15.753c0 0.377-0.089 0.667-0.266 0.868-0.177 0.2-0.418 0.3-0.724 0.3-0.125 0-0.244-0.024-0.358-0.071v-0.535c0.1 0.076 0.212 0.115 0.334 0.115 0.15 0 0.263-0.056 0.338-0.167 0.076-0.113 0.115-0.281 0.115-0.506v-1.784h0.561v1.78m1.567-1.03c0.314 0 0.565 0.097 0.751 0.29s0.28 0.453 0.28 0.779c0 0.354-0.1 0.63-0.3 0.829-0.2 0.197-0.468 0.296-0.805 0.296-0.31 0-0.562-0.098-0.757-0.292-0.193-0.195-0.289-0.45-0.289-0.765 0-0.354 0.101-0.632 0.304-0.833 0.202-0.203 0.474-0.304 0.816-0.304m-0.046 1.761c0.164 0 0.297-0.058 0.399-0.175 0.103-0.118 0.155-0.279 0.155-0.481 0-0.205-0.051-0.367-0.153-0.485-0.102-0.119-0.233-0.179-0.393-0.179-0.158 0-0.292 0.062-0.402 0.187-0.11 0.123-0.165 0.286-0.165 0.489 0 0.2 0.053 0.358 0.161 0.473 0.108 0.114 0.241 0.171 0.398 0.171m3.419 0.374h-0.539v-1.129c0-0.189-0.029-0.326-0.087-0.41-0.058-0.086-0.156-0.129-0.296-0.129-0.122 0-0.223 0.046-0.303 0.139-0.081 0.092-0.121 0.211-0.121 0.354v1.175h-0.546v-3.05h0.546v1.277c0.074-0.12 0.165-0.211 0.275-0.271 0.112-0.061 0.241-0.091 0.389-0.091 0.227 0 0.397 0.071 0.511 0.211 0.114 0.141 0.171 0.353 0.171 0.634v1.29m2.471 0h-0.539v-1.129c0-0.189-0.029-0.326-0.087-0.41-0.058-0.086-0.156-0.129-0.296-0.129-0.122 0-0.223 0.046-0.303 0.139-0.081 0.092-0.121 0.211-0.121 0.354v1.175h-0.546v-2.06h0.546v0.287c0.074-0.12 0.165-0.211 0.275-0.271 0.112-0.061 0.241-0.091 0.389-0.091 0.227 0 0.397 0.071 0.511 0.211 0.114 0.141 0.171 0.353 0.171 0.634v1.29m1.765-2.885h1.01c0.488 0 0.854 0.117 1.098 0.352 0.246 0.235 0.369 0.586 0.369 1.054 0 0.452-0.138 0.812-0.415 1.079-0.275 0.267-0.648 0.4-1.119 0.4h-0.943v-2.885m0.561 2.44h0.37c0.303 0 0.542-0.09 0.715-0.271 0.174-0.181 0.261-0.429 0.261-0.743 0-0.304-0.084-0.541-0.253-0.71s-0.405-0.254-0.707-0.254h-0.386v1.978m3.356-1.69c0.314 0 0.565 0.097 0.751 0.29s0.28 0.453 0.28 0.779c0 0.354-0.1 0.63-0.3 0.829-0.2 0.197-0.468 0.296-0.805 0.296-0.31 0-0.562-0.098-0.757-0.292-0.193-0.195-0.289-0.45-0.289-0.765 0-0.354 0.101-0.632 0.303-0.833 0.203-0.203 0.475-0.304 0.817-0.304m-0.046 1.761c0.164 0 0.297-0.058 0.399-0.175 0.103-0.118 0.155-0.279 0.155-0.481 0-0.205-0.051-0.367-0.153-0.485-0.102-0.119-0.233-0.179-0.393-0.179-0.158 0-0.292 0.062-0.402 0.187-0.11 0.123-0.165 0.286-0.165 0.489 0 0.2 0.053 0.358 0.161 0.473 0.108 0.114 0.241 0.171 0.398 0.171m3.3-0.537h-1.372c0 0.169 0.052 0.3 0.155 0.394 0.104 0.093 0.249 0.139 0.434 0.139 0.204 0 0.401-0.061 0.59-0.183v0.446c-0.212 0.11-0.449 0.165-0.712 0.165-0.318 0-0.567-0.093-0.747-0.279-0.178-0.187-0.267-0.442-0.267-0.765 0-0.349 0.095-0.626 0.285-0.833 0.192-0.208 0.444-0.312 0.757-0.312 0.275 0 0.49 0.086 0.644 0.258 0.155 0.17 0.233 0.408 0.233 0.714v0.256m-0.503-0.363c0-0.143-0.036-0.255-0.109-0.336-0.071-0.08-0.172-0.12-0.303-0.12-0.12 0-0.223 0.041-0.31 0.124-0.087 0.082-0.136 0.193-0.147 0.332h0.869"/>
    <rect id="rect6978" opacity=".39766" style="color:#000000" fill-rule="evenodd" rx="1.0312" ry="1.0312" height="2" width="17.375" y="19.978" x="21" fill="#8d8d8d"/>
    <rect id="rect6980" opacity=".39766" style="color:#000000" fill-rule="evenodd" rx="1.0312" ry="1.0312" height="2" width="14" y="23" x="21" fill="#8d8d8d"/>
    <g id="g7033" opacity=".48538" transform="matrix(1 0 0 .83333 0 5)" fill-rule="evenodd">
      <rect id="rect7003" opacity="1" style="color:#000000" rx="0" ry="0" height="6" width="1" y="30" x="6"/>
      <rect id="rect7005" opacity="1" style="color:#000000" rx="0" ry="0" height="3.6" width="1.9375" y="30" x="8.0846"/>
      <rect id="rect7007" opacity="1" style="color:#000000" height="3.6" width="1" y="30" x="11"/>
      <rect id="rect7009" opacity="1" style="color:#000000" height="3.6" width="2" y="30" x="13"/>
      <rect id="rect7011" opacity="1" style="color:#000000" height="3.6" width="1" y="30" x="16"/>
      <rect id="rect7013" opacity="1" style="color:#000000" height="3.6" width="1" y="30" x="18"/>
      <rect id="rect7015" opacity="1" style="color:#000000" height="3.6" width="1" y="30" x="21"/>
      <rect id="rect7017" opacity="1" style="color:#000000" height="3.6" width="2" y="30" x="23"/>
      <rect id="rect7019" opacity="1" style="color:#000000" height="3.6" width="2" y="30" x="26"/>
      <rect id="rect7021" opacity="1" style="color:#000000" height="3.6" width="1" y="30" x="29"/>
      <rect id="rect7023" opacity="1" style="color:#000000" height="3.6" width="1" y="30" x="31"/>
      <rect id="rect7025" opacity="1" style="color:#000000" height="3.6" width="1" y="30" x="33"/>
      <rect id="rect7027" opacity="1" style="color:#000000" height="3.6" width="2" y="30" x="35"/>
      <rect id="rect7029" opacity="1" style="color:#000000" height="3.6" width="2" y="30" x="39"/>
      <rect id="rect7031" opacity="1" style="color:#000000" height="6" width="1" y="30" x="42"/>
    </g>
    <path id="text7050" d="m8.9375 34.398c0.075 0.016 0.1334 0.05 0.1752 0.1 0.0424 0.051 0.0636 0.113 0.0636 0.188 0 0.114-0.0393 0.203-0.1178 0.265-0.0786 0.063-0.1903 0.094-0.335 0.094-0.0486 0-0.0988-0.005-0.1505-0.015-0.0511-0.009-0.1041-0.023-0.1589-0.042v-0.152c0.0434 0.026 0.0909 0.045 0.1426 0.058s0.1058 0.019 0.1621 0.019c0.0982 0 0.1729-0.019 0.2241-0.058 0.0517-0.039 0.0776-0.095 0.0776-0.169 0-0.068-0.0241-0.122-0.0722-0.16-0.0475-0.039-0.1139-0.058-0.1992-0.058h-0.135v-0.129h0.1412c0.077 0 0.1359-0.015 0.1768-0.045 0.0408-0.032 0.0612-0.076 0.0612-0.134 0-0.059-0.0212-0.105-0.0636-0.136-0.0418-0.032-0.1021-0.048-0.1806-0.048-0.043 0-0.089 0.004-0.1381 0.014-0.0491 0.009-0.1031 0.023-0.162 0.043v-0.14c0.0594-0.016 0.115-0.029 0.1667-0.037 0.0522-0.008 0.1013-0.012 0.1473-0.012 0.1189 0 0.213 0.027 0.2823 0.081s0.1039 0.127 0.1039 0.219c0 0.064-0.0184 0.118-0.0551 0.163-0.0367 0.044-0.0889 0.074-0.1566 0.091m0.6715 0.493h0.547v0.131h-0.7354v-0.131c0.0594-0.062 0.1404-0.144 0.2427-0.248 0.1029-0.104 0.1675-0.171 0.1939-0.201 0.0501-0.056 0.085-0.104 0.1047-0.142 0.0201-0.04 0.0302-0.078 0.0302-0.116 0-0.061-0.0217-0.111-0.0651-0.15-0.0429-0.039-0.099-0.058-0.1683-0.058-0.0491 0-0.1011 0.008-0.1559 0.025-0.0543 0.017-0.1124 0.043-0.1744 0.078v-0.158c0.063-0.026 0.122-0.045 0.1768-0.058s0.1049-0.019 0.1504-0.019c0.1199 0 0.2156 0.03 0.2874 0.09 0.071 0.06 0.107 0.14 0.107 0.24 0 0.048-0.01 0.093-0.028 0.136-0.017 0.042-0.05 0.092-0.097 0.15-0.012 0.015-0.0536 0.059-0.1228 0.131-0.0693 0.071-0.167 0.171-0.2932 0.3m1.307-0.89l-0.396 0.618h0.396v-0.618m-0.041-0.136h0.197v0.754h0.165v0.13h-0.165v0.273h-0.156v-0.273h-0.523v-0.151l0.482-0.733m0.623 0h0.615v0.132h-0.472v0.283c0.023-0.007 0.046-0.013 0.069-0.017 0.022-0.004 0.045-0.006 0.068-0.006 0.129 0 0.232 0.035 0.307 0.106 0.076 0.071 0.113 0.167 0.113 0.288 0 0.125-0.039 0.222-0.116 0.291-0.078 0.069-0.187 0.103-0.328 0.103-0.049 0-0.098-0.004-0.149-0.012-0.05-0.009-0.102-0.021-0.156-0.038v-0.157c0.047 0.025 0.095 0.044 0.144 0.056 0.05 0.013 0.103 0.019 0.158 0.019 0.089 0 0.16-0.023 0.212-0.07 0.053-0.048 0.079-0.111 0.079-0.192s-0.026-0.144-0.079-0.192c-0.052-0.047-0.123-0.07-0.212-0.07-0.042 0-0.084 0.005-0.126 0.014-0.041 0.009-0.084 0.024-0.127 0.043v-0.581m1.85 0.103c-0.08 0-0.141 0.04-0.182 0.119-0.04 0.079-0.06 0.198-0.06 0.358 0 0.158 0.02 0.278 0.06 0.357 0.041 0.079 0.102 0.119 0.182 0.119 0.081 0 0.142-0.04 0.182-0.119 0.041-0.079 0.062-0.199 0.062-0.357 0-0.16-0.021-0.279-0.062-0.358-0.04-0.079-0.101-0.119-0.182-0.119m0-0.124c0.13 0 0.229 0.051 0.297 0.154 0.069 0.102 0.103 0.251 0.103 0.447 0 0.195-0.034 0.344-0.103 0.446-0.068 0.103-0.167 0.154-0.297 0.154s-0.229-0.051-0.298-0.154c-0.068-0.102-0.102-0.251-0.102-0.446 0-0.196 0.034-0.345 0.102-0.447 0.069-0.103 0.168-0.154 0.298-0.154m0.678 0.021h0.615v0.132h-0.472v0.283c0.023-0.007 0.046-0.013 0.069-0.017 0.022-0.004 0.045-0.006 0.068-0.006 0.129 0 0.232 0.035 0.307 0.106s0.113 0.167 0.113 0.288c0 0.125-0.039 0.222-0.116 0.291-0.078 0.069-0.187 0.103-0.328 0.103-0.049 0-0.098-0.004-0.149-0.012-0.05-0.009-0.102-0.021-0.156-0.038v-0.157c0.047 0.025 0.095 0.044 0.144 0.056 0.05 0.013 0.102 0.019 0.158 0.019 0.089 0 0.16-0.023 0.212-0.07 0.052-0.048 0.079-0.111 0.079-0.192s-0.027-0.144-0.079-0.192c-0.052-0.047-0.123-0.07-0.212-0.07-0.042 0-0.084 0.005-0.126 0.014-0.041 0.009-0.084 0.024-0.127 0.043v-0.581m1.011 0h0.615v0.132h-0.471v0.283c0.022-0.007 0.045-0.013 0.068-0.017s0.045-0.006 0.068-0.006c0.129 0 0.232 0.035 0.307 0.106 0.076 0.071 0.113 0.167 0.113 0.288 0 0.125-0.038 0.222-0.116 0.291-0.077 0.069-0.187 0.103-0.328 0.103-0.049 0-0.098-0.004-0.149-0.012-0.05-0.009-0.102-0.021-0.156-0.038v-0.157c0.047 0.025 0.095 0.044 0.145 0.056 0.049 0.013 0.102 0.019 0.157 0.019 0.089 0 0.16-0.023 0.212-0.07 0.053-0.048 0.079-0.111 0.079-0.192s-0.026-0.144-0.079-0.192c-0.052-0.047-0.123-0.07-0.212-0.07-0.042 0-0.084 0.005-0.126 0.014-0.041 0.009-0.083 0.024-0.127 0.043v-0.581m0.97 0h0.745v0.066l-0.421 1.091h-0.163l0.395-1.025h-0.556v-0.132m1.558 0h0.615v0.132h-0.471v0.283c0.022-0.007 0.045-0.013 0.068-0.017s0.045-0.006 0.068-0.006c0.129 0 0.232 0.035 0.307 0.106 0.076 0.071 0.113 0.167 0.113 0.288 0 0.125-0.038 0.222-0.116 0.291-0.077 0.069-0.187 0.103-0.328 0.103-0.049 0-0.098-0.004-0.149-0.012-0.05-0.009-0.102-0.021-0.156-0.038v-0.157c0.047 0.025 0.095 0.044 0.145 0.056 0.049 0.013 0.102 0.019 0.157 0.019 0.089 0 0.16-0.023 0.212-0.07 0.053-0.048 0.079-0.111 0.079-0.192s-0.026-0.144-0.079-0.192c-0.052-0.047-0.123-0.07-0.212-0.07-0.042 0-0.084 0.005-0.126 0.014-0.041 0.009-0.083 0.024-0.127 0.043v-0.581m1.037 1.026h0.256v-0.884l-0.279 0.056v-0.142l0.277-0.056h0.157v1.026h0.256v0.131h-0.667v-0.131m1.319-0.923c-0.081 0-0.141 0.04-0.182 0.119s-0.061 0.198-0.061 0.358c0 0.158 0.02 0.278 0.061 0.357s0.101 0.119 0.182 0.119 0.142-0.04 0.182-0.119c0.041-0.079 0.061-0.199 0.061-0.357 0-0.16-0.02-0.279-0.061-0.358-0.04-0.079-0.101-0.119-0.182-0.119m0-0.124c0.13 0 0.229 0.051 0.297 0.154 0.069 0.102 0.103 0.251 0.103 0.447 0 0.195-0.034 0.344-0.103 0.446-0.068 0.103-0.167 0.154-0.297 0.154s-0.229-0.051-0.298-0.154c-0.068-0.102-0.102-0.251-0.102-0.446 0-0.196 0.034-0.345 0.102-0.447 0.069-0.103 0.168-0.154 0.298-0.154m1.031 0.537c-0.071 0-0.127 0.024-0.168 0.072s-0.061 0.114-0.061 0.198c0 0.083 0.02 0.149 0.061 0.198 0.041 0.048 0.097 0.072 0.168 0.072 0.07 0 0.125-0.024 0.166-0.072 0.042-0.049 0.062-0.115 0.062-0.198 0-0.084-0.02-0.15-0.062-0.198-0.041-0.048-0.096-0.072-0.166-0.072m0.31-0.491v0.143c-0.039-0.019-0.079-0.033-0.119-0.043s-0.079-0.014-0.119-0.014c-0.103 0-0.182 0.034-0.237 0.104-0.054 0.07-0.085 0.176-0.093 0.317 0.031-0.045 0.069-0.08 0.115-0.103 0.046-0.025 0.097-0.037 0.152-0.037 0.116 0 0.208 0.035 0.275 0.106 0.068 0.071 0.102 0.167 0.102 0.288 0 0.119-0.035 0.214-0.106 0.286-0.07 0.072-0.164 0.108-0.28 0.108-0.134 0-0.237-0.051-0.308-0.154-0.07-0.102-0.106-0.251-0.106-0.446 0-0.183 0.044-0.329 0.13-0.438 0.087-0.109 0.204-0.163 0.35-0.163 0.04 0 0.079 0.004 0.119 0.011 0.04 0.008 0.082 0.02 0.125 0.035m0.853-0.025h0.615v0.132h-0.471v0.283c0.023-0.007 0.045-0.013 0.068-0.017s0.046-0.006 0.068-0.006c0.13 0 0.232 0.035 0.308 0.106 0.075 0.071 0.113 0.167 0.113 0.288 0 0.125-0.039 0.222-0.117 0.291-0.077 0.069-0.186 0.103-0.328 0.103-0.048 0-0.098-0.004-0.149-0.012-0.05-0.009-0.102-0.021-0.155-0.038v-0.157c0.046 0.025 0.094 0.044 0.144 0.056 0.049 0.013 0.102 0.019 0.157 0.019 0.09 0 0.161-0.023 0.213-0.07 0.052-0.048 0.078-0.111 0.078-0.192s-0.026-0.144-0.078-0.192c-0.052-0.047-0.123-0.07-0.213-0.07-0.042 0-0.083 0.005-0.125 0.014s-0.084 0.024-0.128 0.043v-0.581m1.44 0.136l-0.395 0.618h0.395v-0.618m-0.041-0.136h0.197v0.754h0.166v0.13h-0.166v0.273h-0.156v-0.273h-0.522v-0.151l0.481-0.733m0.957 0.103c-0.08 0-0.141 0.04-0.182 0.119-0.04 0.079-0.06 0.198-0.06 0.358 0 0.158 0.02 0.278 0.06 0.357 0.041 0.079 0.102 0.119 0.182 0.119 0.081 0 0.142-0.04 0.183-0.119 0.04-0.079 0.061-0.199 0.061-0.357 0-0.16-0.021-0.279-0.061-0.358-0.041-0.079-0.102-0.119-0.183-0.119m0-0.124c0.13 0 0.229 0.051 0.297 0.154 0.069 0.102 0.103 0.251 0.103 0.447 0 0.195-0.034 0.344-0.103 0.446-0.068 0.103-0.167 0.154-0.297 0.154-0.129 0-0.229-0.051-0.297-0.154-0.069-0.102-0.103-0.251-0.103-0.446 0-0.196 0.034-0.345 0.103-0.447 0.068-0.103 0.168-0.154 0.297-0.154m1.031 0.537c-0.07 0-0.126 0.024-0.168 0.072-0.04 0.048-0.061 0.114-0.061 0.198 0 0.083 0.021 0.149 0.061 0.198 0.042 0.048 0.098 0.072 0.168 0.072s0.126-0.024 0.167-0.072c0.041-0.049 0.062-0.115 0.062-0.198 0-0.084-0.021-0.15-0.062-0.198s-0.097-0.072-0.167-0.072m0.311-0.491v0.143c-0.039-0.019-0.079-0.033-0.12-0.043-0.039-0.01-0.079-0.014-0.118-0.014-0.104 0-0.183 0.034-0.238 0.104-0.054 0.07-0.085 0.176-0.093 0.317 0.031-0.045 0.069-0.08 0.115-0.103 0.046-0.025 0.097-0.037 0.152-0.037 0.116 0 0.208 0.035 0.275 0.106 0.068 0.071 0.102 0.167 0.102 0.288 0 0.119-0.035 0.214-0.105 0.286-0.071 0.072-0.164 0.108-0.281 0.108-0.134 0-0.236-0.051-0.307-0.154-0.071-0.102-0.106-0.251-0.106-0.446 0-0.183 0.043-0.329 0.13-0.438s0.203-0.163 0.35-0.163c0.039 0 0.078 0.004 0.118 0.011 0.041 0.008 0.082 0.02 0.126 0.035m0.853-0.025h0.615v0.132h-0.472v0.283c0.023-0.007 0.046-0.013 0.069-0.017 0.022-0.004 0.045-0.006 0.068-0.006 0.129 0 0.231 0.035 0.307 0.106 0.075 0.071 0.113 0.167 0.113 0.288 0 0.125-0.039 0.222-0.116 0.291-0.078 0.069-0.187 0.103-0.328 0.103-0.049 0-0.098-0.004-0.149-0.012-0.05-0.009-0.102-0.021-0.156-0.038v-0.157c0.046 0.025 0.095 0.044 0.144 0.056 0.05 0.013 0.102 0.019 0.158 0.019 0.089 0 0.16-0.023 0.212-0.07 0.052-0.048 0.078-0.111 0.078-0.192s-0.026-0.144-0.078-0.192c-0.052-0.047-0.123-0.07-0.212-0.07-0.042 0-0.084 0.005-0.126 0.014-0.041 0.009-0.084 0.024-0.127 0.043v-0.581m1.44 0.136l-0.396 0.618h0.396v-0.618m-0.041-0.136h0.197v0.754h0.165v0.13h-0.165v0.273h-0.156v-0.273h-0.523v-0.151l0.482-0.733m0.976 0.516c-0.07 0-0.126 0.024-0.167 0.072s-0.062 0.114-0.062 0.198c0 0.083 0.021 0.149 0.062 0.198 0.041 0.048 0.097 0.072 0.167 0.072s0.126-0.024 0.167-0.072c0.041-0.049 0.062-0.115 0.062-0.198 0-0.084-0.021-0.15-0.062-0.198s-0.097-0.072-0.167-0.072m0.311-0.491v0.143c-0.039-0.019-0.079-0.033-0.119-0.043s-0.08-0.014-0.119-0.014c-0.103 0-0.183 0.034-0.237 0.104-0.055 0.07-0.086 0.176-0.093 0.317 0.03-0.045 0.068-0.08 0.114-0.103 0.046-0.025 0.097-0.037 0.152-0.037 0.117 0 0.208 0.035 0.276 0.106 0.067 0.071 0.101 0.167 0.101 0.288 0 0.119-0.035 0.214-0.105 0.286-0.071 0.072-0.164 0.108-0.281 0.108-0.134 0-0.236-0.051-0.307-0.154-0.071-0.102-0.106-0.251-0.106-0.446 0-0.183 0.043-0.329 0.13-0.438s0.203-0.163 0.35-0.163c0.039 0 0.079 0.004 0.118 0.011 0.041 0.008 0.083 0.02 0.126 0.035m0.347-0.025h0.615v0.132h-0.471v0.283c0.023-0.007 0.045-0.013 0.068-0.017s0.046-0.006 0.068-0.006c0.13 0 0.232 0.035 0.307 0.106 0.076 0.071 0.114 0.167 0.114 0.288 0 0.125-0.039 0.222-0.117 0.291-0.077 0.069-0.187 0.103-0.328 0.103-0.048 0-0.098-0.004-0.149-0.012-0.05-0.009-0.102-0.021-0.155-0.038v-0.157c0.046 0.025 0.094 0.044 0.144 0.056 0.049 0.013 0.102 0.019 0.157 0.019 0.09 0 0.16-0.023 0.213-0.07 0.052-0.048 0.078-0.111 0.078-0.192s-0.026-0.144-0.078-0.192c-0.053-0.047-0.123-0.07-0.213-0.07-0.042 0-0.084 0.005-0.125 0.014-0.042 0.009-0.084 0.024-0.128 0.043v-0.581m1.476 0h0.744v0.066l-0.42 1.091h-0.163l0.395-1.025h-0.556v-0.132m1.386 0.103c-0.081 0-0.142 0.04-0.182 0.119-0.041 0.079-0.061 0.198-0.061 0.358 0 0.158 0.02 0.278 0.061 0.357 0.04 0.079 0.101 0.119 0.182 0.119s0.142-0.04 0.182-0.119c0.041-0.079 0.061-0.199 0.061-0.357 0-0.16-0.02-0.279-0.061-0.358-0.04-0.079-0.101-0.119-0.182-0.119m0-0.124c0.13 0 0.229 0.051 0.297 0.154 0.069 0.102 0.103 0.251 0.103 0.447 0 0.195-0.034 0.344-0.103 0.446-0.068 0.103-0.167 0.154-0.297 0.154s-0.229-0.051-0.298-0.154c-0.068-0.102-0.102-0.251-0.102-0.446 0-0.196 0.034-0.345 0.102-0.447 0.069-0.103 0.168-0.154 0.298-0.154m1.03 0.537c-0.07 0-0.126 0.024-0.167 0.072s-0.061 0.114-0.061 0.198c0 0.083 0.02 0.149 0.061 0.198 0.041 0.048 0.097 0.072 0.167 0.072 0.071 0 0.126-0.024 0.167-0.072 0.041-0.049 0.062-0.115 0.062-0.198 0-0.084-0.021-0.15-0.062-0.198s-0.096-0.072-0.167-0.072m0.311-0.491v0.143c-0.039-0.019-0.079-0.033-0.119-0.043s-0.079-0.014-0.119-0.014c-0.103 0-0.182 0.034-0.237 0.104-0.054 0.07-0.085 0.176-0.093 0.317 0.03-0.045 0.069-0.08 0.115-0.103 0.046-0.025 0.096-0.037 0.152-0.037 0.116 0 0.208 0.035 0.275 0.106 0.068 0.071 0.102 0.167 0.102 0.288 0 0.119-0.036 0.214-0.106 0.286s-0.164 0.108-0.281 0.108c-0.134 0-0.236-0.051-0.307-0.154-0.071-0.102-0.106-0.251-0.106-0.446 0-0.183 0.043-0.329 0.13-0.438s0.204-0.163 0.35-0.163c0.039 0 0.079 0.004 0.119 0.011 0.04 0.008 0.082 0.02 0.125 0.035m0.348-0.025h0.615v0.132h-0.472v0.283c0.023-0.007 0.046-0.013 0.068-0.017 0.023-0.004 0.046-0.006 0.069-0.006 0.129 0 0.231 0.035 0.307 0.106 0.075 0.071 0.113 0.167 0.113 0.288 0 0.125-0.039 0.222-0.116 0.291-0.078 0.069-0.187 0.103-0.328 0.103-0.049 0-0.099-0.004-0.149-0.012-0.05-0.009-0.102-0.021-0.156-0.038v-0.157c0.046 0.025 0.094 0.044 0.144 0.056 0.05 0.013 0.102 0.019 0.158 0.019 0.089 0 0.16-0.023 0.212-0.07 0.052-0.048 0.078-0.111 0.078-0.192s-0.026-0.144-0.078-0.192c-0.052-0.047-0.123-0.07-0.212-0.07-0.042 0-0.084 0.005-0.126 0.014-0.041 0.009-0.084 0.024-0.127 0.043v-0.581m1.475 0h0.745v0.066l-0.42 1.091h-0.164l0.395-1.025h-0.556v-0.132m1.406 0.516c-0.071 0-0.127 0.024-0.168 0.072s-0.061 0.114-0.061 0.198c0 0.083 0.02 0.149 0.061 0.198 0.041 0.048 0.097 0.072 0.168 0.072 0.07 0 0.125-0.024 0.166-0.072 0.042-0.049 0.062-0.115 0.062-0.198 0-0.084-0.02-0.15-0.062-0.198-0.041-0.048-0.096-0.072-0.166-0.072m0.31-0.491v0.143c-0.039-0.019-0.079-0.033-0.119-0.043s-0.079-0.014-0.119-0.014c-0.103 0-0.182 0.034-0.237 0.104-0.054 0.07-0.085 0.176-0.093 0.317 0.031-0.045 0.069-0.08 0.115-0.103 0.046-0.025 0.097-0.037 0.152-0.037 0.116 0 0.208 0.035 0.275 0.106 0.068 0.071 0.102 0.167 0.102 0.288 0 0.119-0.035 0.214-0.106 0.286-0.07 0.072-0.164 0.108-0.28 0.108-0.134 0-0.237-0.051-0.308-0.154-0.07-0.102-0.106-0.251-0.106-0.446 0-0.183 0.044-0.329 0.13-0.438 0.087-0.109 0.204-0.163 0.35-0.163 0.039 0 0.079 0.004 0.119 0.011 0.04 0.008 0.082 0.02 0.125 0.035m0.307-0.025h0.744v0.066l-0.42 1.091h-0.164l0.396-1.025h-0.556v-0.132m1.055 1.133v-0.142c0.039 0.018 0.079 0.033 0.12 0.042 0.04 0.01 0.079 0.015 0.118 0.015 0.104 0 0.182-0.035 0.237-0.104 0.055-0.07 0.086-0.175 0.094-0.317-0.03 0.044-0.068 0.079-0.114 0.102-0.046 0.024-0.097 0.036-0.153 0.036-0.116 0-0.208-0.035-0.275-0.105-0.068-0.07-0.101-0.166-0.101-0.287 0-0.119 0.035-0.215 0.105-0.286 0.07-0.072 0.164-0.108 0.281-0.108 0.134 0 0.236 0.051 0.306 0.154 0.071 0.102 0.106 0.251 0.106 0.447 0 0.182-0.043 0.328-0.13 0.437-0.086 0.109-0.202 0.163-0.349 0.163-0.039 0-0.079-0.004-0.119-0.012-0.041-0.007-0.082-0.019-0.126-0.035m0.312-0.49c0.07 0 0.126-0.025 0.167-0.073s0.062-0.114 0.062-0.197c0-0.084-0.021-0.149-0.062-0.197-0.041-0.049-0.097-0.073-0.167-0.073s-0.126 0.024-0.168 0.073c-0.04 0.048-0.061 0.113-0.061 0.197 0 0.083 0.021 0.149 0.061 0.197 0.042 0.048 0.098 0.073 0.168 0.073m0.699 0.49v-0.142c0.04 0.018 0.079 0.033 0.12 0.042 0.04 0.01 0.08 0.015 0.118 0.015 0.104 0 0.183-0.035 0.237-0.104 0.055-0.07 0.086-0.175 0.094-0.317-0.03 0.044-0.068 0.079-0.114 0.102-0.046 0.024-0.097 0.036-0.153 0.036-0.116 0-0.208-0.035-0.275-0.105s-0.101-0.166-0.101-0.287c0-0.119 0.035-0.215 0.105-0.286 0.071-0.072 0.164-0.108 0.281-0.108 0.134 0 0.236 0.051 0.306 0.154 0.071 0.102 0.107 0.251 0.107 0.447 0 0.182-0.044 0.328-0.131 0.437-0.086 0.109-0.202 0.163-0.349 0.163-0.039 0-0.079-0.004-0.119-0.012-0.04-0.007-0.082-0.019-0.126-0.035m0.312-0.49c0.07 0 0.126-0.025 0.167-0.073s0.062-0.114 0.062-0.197c0-0.084-0.021-0.149-0.062-0.197-0.041-0.049-0.097-0.073-0.167-0.073s-0.126 0.024-0.167 0.073c-0.041 0.048-0.062 0.113-0.062 0.197 0 0.083 0.021 0.149 0.062 0.197s0.097 0.073 0.167 0.073"/>
    <path id="path12511" style="color:#000000" d="m69.375 125a14.375 14.375 0 1 1 -28.75 0 14.375 14.375 0 1 1 28.75 0z" transform="matrix(.61113 0 0 .61113 5.6324 -67.635)" display="block" fill="url(#radialGradient278)"/>
  </g>
  <metadata>
    <rdf:RDF>
      <cc:Work>
        <dc:format>image/svg+xml</dc:format>
        <dc:type rdf:resource="http://purl.org/dc/dcmitype/StillImage"/>
        <cc:license rdf:resource="http://creativecommons.org/licenses/publicdomain/"/>
        <dc:publisher>
          <cc:Agent rdf:about="http://openclipart.org/">
            <dc:title>Openclipart</dc:title>
          </cc:Agent>
        </dc:publisher>
        <dc:title>tango contact new</dc:title>
        <dc:date>2010-03-18T14:56:39</dc:date>
        <dc:description>New contact icon from &lt;a href="http://tango.freedesktop.org/Tango_Desktop_Project"&gt; Tango Project &lt;/a&gt; &#xD;\n&lt;br&gt;&lt;br&gt;&#xD;\nSince version 0.8.90 Tango Project icons are Public Domain: &lt;a href="http://tango.freedesktop.org/Frequently_Asked_Questions#Terms_of_Use.3F"&gt; Tango Project FAQ &lt;/a&gt;</dc:description>
        <dc:source>http://openclipart.org/detail/32131/tango-contact-new-by-warszawianka</dc:source>
        <dc:creator>
          <cc:Agent>
            <dc:title>warszawianka</dc:title>
          </cc:Agent>
        </dc:creator>
        <dc:subject>
          <rdf:Bag>
            <rdf:li>business card</rdf:li>
            <rdf:li>clip art</rdf:li>
            <rdf:li>clipart</rdf:li>
            <rdf:li>contact</rdf:li>
            <rdf:li>externalsource</rdf:li>
            <rdf:li>icon</rdf:li>
            <rdf:li>new</rdf:li>
            <rdf:li>tango</rdf:li>
          </rdf:Bag>
        </dc:subject>
      </cc:Work>
      <cc:License rdf:about="http://creativecommons.org/licenses/publicdomain/">
        <cc:permits rdf:resource="http://creativecommons.org/ns#Reproduction"/>
        <cc:permits rdf:resource="http://creativecommons.org/ns#Distribution"/>
        <cc:permits rdf:resource="http://creativecommons.org/ns#DerivativeWorks"/>
      </cc:License>
    </rdf:RDF>
  </metadata>
</svg>
