<?xml version="1.0"?>
<svg xmlns:rdf="http://www.w3.org/1999/02/22-rdf-syntax-ns#" xmlns="http://www.w3.org/2000/svg" xmlns:cc="http://creativecommons.org/ns#" xmlns:xlink="http://www.w3.org/1999/xlink" xmlns:dc="http://purl.org/dc/elements/1.1/" xmlns:svg="http://www.w3.org/2000/svg" id="svg19655" viewBox="0 0 48 48">
  <defs id="defs3">
    <linearGradient id="linearGradient2399">
      <stop id="stop2401" stop-color="#929470" offset="0"/>
      <stop id="stop2407" stop-color="#fcffc1" offset=".26471"/>
      <stop id="stop2409" stop-color="#f3f5ba" offset=".63235"/>
      <stop id="stop2403" stop-color="#929470" offset="1"/>
    </linearGradient>
    <linearGradient id="linearGradient20393">
      <stop id="stop20395" stop-color="#fff" offset="0"/>
      <stop id="stop2427" stop-color="#fff" stop-opacity=".44118" offset=".41176"/>
      <stop id="stop20397" stop-opacity=".48039" offset="1"/>
    </linearGradient>
    <linearGradient id="linearGradient19894" y2="37.227" gradientUnits="userSpaceOnUse" y1="37.227" x2="30.17" x1="18.995">
      <stop id="stop19896" stop-color="#A3A349" offset=".005618"/>
      <stop id="stop19898" stop-color="#ACAC54" offset=".020787"/>
      <stop id="stop19900" stop-color="#C1C172" offset=".066001"/>
      <stop id="stop19902" stop-color="#D4D68E" offset=".1148"/>
      <stop id="stop19904" stop-color="#E2E4A6" offset=".1677"/>
      <stop id="stop19906" stop-color="#EDF0B8" offset=".2265"/>
      <stop id="stop19908" stop-color="#F3F6C3" offset=".2963"/>
      <stop id="stop19910" stop-color="#F5F8C7" offset=".4045"/>
      <stop id="stop19912" stop-color="#EEF0BE" offset=".5239"/>
      <stop id="stop19914" stop-color="#DBDDA9" offset=".6666"/>
      <stop id="stop19916" stop-color="#BEBD88" offset=".8211"/>
      <stop id="stop19918" stop-color="#989564" offset=".9832"/>
      <stop id="stop19920" stop-color="#949160" offset="1"/>
    </linearGradient>
    <radialGradient id="radialGradient20216" gradientUnits="userSpaceOnUse" cy="74.21" cx="14.772" gradientTransform="scale(1.7643 .56680)" r="7.829">
      <stop id="stop20212" stop-opacity=".51546" offset="0"/>
      <stop id="stop20218" stop-opacity=".14433" offset=".55172"/>
      <stop id="stop20214" stop-opacity="0" offset="1"/>
    </radialGradient>
    <linearGradient id="linearGradient4100" x1="23.124" gradientUnits="userSpaceOnUse" y1="43.165" gradientTransform="matrix(1.6391 0 0 1.6391 -15.97 -29.794)" x2="26.478" y2="43.165">
      <stop id="stop19415" stop-color="#686868" offset=".005618"/>
      <stop id="stop19417" stop-color="#777" offset=".030121"/>
      <stop id="stop19419" stop-color="#929292" offset=".083666"/>
      <stop id="stop19421" stop-color="#A7A7A7" offset=".1422"/>
      <stop id="stop19423" stop-color="#B6B6B6" offset=".2074"/>
      <stop id="stop19425" stop-color="#BEBEBE" offset=".2846"/>
      <stop id="stop19427" stop-color="#C1C1C1" offset=".4045"/>
      <stop id="stop19429" stop-color="#BCBCBC" offset=".4962"/>
      <stop id="stop19431" stop-color="#ADADAD" offset=".6057"/>
      <stop id="stop19433" stop-color="#959595" offset=".7245"/>
      <stop id="stop19435" stop-color="#747474" offset=".8497"/>
      <stop id="stop19437" stop-color="#494949" offset=".9789"/>
      <stop id="stop19439" stop-color="#414141" offset="1"/>
    </linearGradient>
    <linearGradient id="linearGradient4102" x1="24.613" gradientUnits="userSpaceOnUse" y1="31.146" gradientTransform="scale(1.0027 .99735)" x2="24.613" y2="26.74">
      <stop id="stop3302" stop-color="#4c4c28" offset="0"/>
      <stop id="stop3304" stop-color="#4c4c28" stop-opacity="0" offset="1"/>
    </linearGradient>
    <linearGradient id="linearGradient4104" x1="-22.874" xlink:href="#linearGradient19894" gradientUnits="userSpaceOnUse" y1="38.676" gradientTransform="matrix(.56662 .029890 -.11856 .65654 36.185 20.083)" x2="-4.3908" y2="38.676"/>
    <linearGradient id="linearGradient4106" x1="-10.481" xlink:href="#linearGradient2399" gradientUnits="userSpaceOnUse" y1="39.034" gradientTransform="matrix(.56662 .029890 -.11856 .65654 36.185 20.083)" x2="-23.851" y2="39.143"/>
    <linearGradient id="linearGradient4108" x1="-22.874" xlink:href="#linearGradient19894" gradientUnits="userSpaceOnUse" y1="38.676" gradientTransform="scale(1.0264 .97423)" x2="-4.3908" y2="38.676"/>
    <linearGradient id="linearGradient4110" x1="-10.481" xlink:href="#linearGradient2399" gradientUnits="userSpaceOnUse" y1="39.034" gradientTransform="scale(1.0264 .97423)" x2="-23.851" y2="39.143"/>
    <linearGradient id="linearGradient4116" x1="-22.874" xlink:href="#linearGradient19894" gradientUnits="userSpaceOnUse" y1="38.676" gradientTransform="matrix(.61868 -.13203 .062627 .74118 31.12 8.3004)" x2="-4.3908" y2="38.676"/>
    <linearGradient id="linearGradient4118" x1="-10.481" xlink:href="#linearGradient2399" gradientUnits="userSpaceOnUse" y1="39.034" gradientTransform="matrix(.61868 -.13203 .062627 .74118 31.12 8.3004)" x2="-23.851" y2="39.143"/>
    <linearGradient id="linearGradient4120" x1="17.88" gradientUnits="userSpaceOnUse" y1="55.363" gradientTransform="matrix(1.6034 0 0 .54940 .61417 .024498)" x2="11.906" y2="54.863">
      <stop id="stop3313" stop-color="#d6d7a5" offset="0"/>
      <stop id="stop3315" stop-color="#8e8f6d" offset="1"/>
    </linearGradient>
    <linearGradient id="linearGradient4122" x1="-29.007" gradientUnits="userSpaceOnUse" y1="-29.799" gradientTransform="matrix(-.90573 -.043862 .18951 -.96344 .61417 .024498)" x2="-37.641" y2="-29.598">
      <stop id="stop3267" stop-color="#929470" offset="0"/>
      <stop id="stop3269" stop-color="#60614a" offset=".26471"/>
      <stop id="stop3271" stop-color="#f3f5ba" offset=".63235"/>
      <stop id="stop3273" stop-color="#929470" offset="1"/>
    </linearGradient>
    <radialGradient id="radialGradient4124" gradientUnits="userSpaceOnUse" cy="29.869" cx="68.138" gradientTransform="matrix(.55129 1.2656e-16 -1.3557e-16 .76603 -10.487 3.5143)" r="33.934">
      <stop id="stop19512" stop-color="#fff" stop-opacity=".17526" offset="0"/>
      <stop id="stop19514" stop-color="#709ac8" offset=".882"/>
      <stop id="stop19516" stop-color="#6f96dd" offset="1"/>
    </radialGradient>
    <linearGradient id="linearGradient4126" x1="37.94" gradientUnits="userSpaceOnUse" y1="16.652" gradientTransform="matrix(.89413 0 0 .98523 1.516 .024498)" x2="-5.2517" y2="3.8557">
      <stop id="stop3177" stop-color="#f1f3ff" offset="0"/>
      <stop id="stop3179" stop-color="#f1f3ff" stop-opacity="0" offset="1"/>
    </linearGradient>
    <linearGradient id="linearGradient4128" x1="30.62" xlink:href="#linearGradient20393" gradientUnits="userSpaceOnUse" y1="10.314" gradientTransform="matrix(-.6293 0 0 1.5891 50.688 3.8044)" x2="32.166" y2="18.163"/>
    <linearGradient id="linearGradient4130" x1="30.62" xlink:href="#linearGradient20393" gradientUnits="userSpaceOnUse" y1="10.314" gradientTransform="matrix(.6293 0 0 1.5891 1.4116 3.9294)" x2="32.166" y2="18.163"/>
    <linearGradient id="linearGradient4132" x1="14.637" gradientUnits="userSpaceOnUse" y1="31.504" gradientTransform="matrix(1.9851 0 0 .50376 1.7866 4.5544)" x2="9.3648" y2="32.251">
      <stop id="stop20430" stop-color="#a3a3a3" offset="0"/>
      <stop id="stop20432" stop-color="#b5b5b5" stop-opacity="0" offset="1"/>
    </linearGradient>
    <linearGradient id="linearGradient4134" x1="16.999" gradientUnits="userSpaceOnUse" y1="10.061" gradientTransform="matrix(1.1405 0 0 .926 .27233 -3.2472)" x2="32.097" y2="36.726">
      <stop id="stop6341" stop-color="#fff" offset="0"/>
      <stop id="stop6343" stop-color="#fff" stop-opacity="0" offset="1"/>
    </linearGradient>
  </defs>
  <g id="layer1">
    <path id="path20208" opacity=".8" style="color:#000000" d="m39.875 42.062a13.812 4.4375 0 1 1 -27.625 0 13.812 4.4375 0 1 1 27.625 0z" transform="matrix(1.1972 0 0 1.0986 -6.2016 -3.2095)" fill="url(#radialGradient20216)"/>
    <g id="g4076" transform="translate(0,1)">
      <path id="path19509" stroke="#565656" transform="matrix(1.0758 0 0 .93749 -2.5513 3.0472)" fill="url(#linearGradient4100)" d="m21.894 38.886v1.475c0 1.475 1.311 2.787 2.786 2.787s2.787-1.312 2.787-2.787v-1.475h-5.573z"/>
      <g id="g3173" transform="matrix(.98907 0 0 .99356 -.40874 .0079205)">
        <path id="path3209" stroke-linejoin="round" style="color:#000000" d="m24.512 27.669c-3.303-0.008-7.049 0.963-5.019 2.799-0.503 0.203-1.223 0.656-1.138 1.717 0.047 0.554 0.634 0.894 1.437 1.144-0.91 0.639-1.489 1.314-1.437 1.936 0.046 0.548 0.621 0.923 1.408 1.173-0.887 0.631-1.46 1.322-1.408 1.936 0.079 0.938 2.103 1.989 6.484 1.868 3.154-0.086 5.938-0.651 6.158-1.868 0.086-0.478-0.305-0.923-0.91-1.32 0.453-0.456 0.77-0.919 0.734-1.349-0.047-0.55-0.615-0.923-1.408-1.173 0.887-0.632 1.459-1.322 1.408-1.936-0.047-0.55-0.615-0.894-1.408-1.144 0.898-0.635 1.46-1.318 1.408-1.936-0.058-0.687-3.205-1.84-6.309-1.847z" stroke="url(#linearGradient4102)" stroke-linecap="round" stroke-width="2.0175" fill="#aeae57"/>
        <path id="path3183" stroke-linejoin="round" style="color:#000000" d="m30.92 38.33c-0.219 1.216-3.329 1.903-8.305 1.654-3.151-0.158-3.332-1.04-3.112-2.257 0.22-1.216 2.955-2.069 6.107-1.902 3.151 0.166 5.53 1.288 5.31 2.505z" stroke="url(#linearGradient4106)" stroke-linecap="round" stroke-width=".089063" fill="url(#linearGradient4104)"/>
        <path id="path1603" stroke-linejoin="round" style="color:#000000" d="m-3.5355 27.229a10.341 3.2704 0 1 1 -20.682 0 10.341 3.2704 0 1 1 20.682 0z" transform="matrix(.60274 -.12862 .064284 .76079 31.12 14.491)" stroke="url(#linearGradient4110)" stroke-linecap="round" stroke-width=".13035" fill="url(#linearGradient4108)"/>
        <path id="path2364" stroke-linejoin="round" style="color:#000000" d="m-3.5355 27.229a10.341 3.2704 0 1 1 -20.682 0 10.341 3.2704 0 1 1 20.682 0z" transform="matrix(.60274 -.12862 .064284 .76079 31.12 11.396)" stroke="url(#linearGradient4110)" stroke-linecap="round" stroke-width=".13035" fill="url(#linearGradient4108)"/>
        <path id="path2366" stroke-linejoin="round" style="color:#000000" d="m30.698 29.636c0 1.379-2.541 2.918-5.981 3.653-3.441 0.734-6.328 0.215-6.444-1.158-0.116-1.374 2.237-2.976 5.679-3.162 3.47-0.188 6.746-0.044 6.746 0.667z" stroke="url(#linearGradient4118)" stroke-linecap="round" stroke-width=".089063" fill="url(#linearGradient4116)"/>
        <path id="path20372" style="color:#000000" transform="matrix(.33546 0 0 .33546 11.747 27.226)" fill="#fff" d="m31 22.375a3.25 3.25 0 1 1 -6.5 0 3.25 3.25 0 1 1 6.5 0z"/>
        <path id="path3241" fill-opacity=".23392" fill-rule="evenodd" d="m19.342 33.379c3.395 0.505 6.979-0.033 9.872-1.908 0.812-0.526 0.934-1.127 1.307-1.597-1.424 1.127-5.026 4.162-11.179 3.505z"/>
        <path id="path2435" d="m31 22.375a3.25 3.25 0 1 1 -6.5 0 3.25 3.25 0 1 1 6.5 0z" style="color:#000000" fill="#fff" transform="matrix(.33546 0 0 .33546 11.747 30.234)"/>
        <path id="path3237" fill-opacity=".23392" fill-rule="evenodd" d="m19.467 39.518c3.394 0.505 6.978-0.033 9.872-1.908 0.811-0.526 0.933-1.127 1.306-1.597-1.424 1.127-5.026 4.162-11.178 3.505z"/>
        <path id="path3239" d="m19.487 36.407c3.395 0.505 6.979-0.033 9.872-1.908 0.812-0.526 0.934-1.127 1.307-1.597-1.424 1.127-5.026 4.162-11.179 3.505z" fill-opacity=".23392" fill-rule="evenodd"/>
      </g>
      <g id="g3146" transform="translate(-.98880)">
        <g id="g3141" stroke-linejoin="round" stroke-linecap="round">
          <path id="path3243" style="color:#000000" d="m18.871 29.628c0-0.791 1.574-1.738 5.548-1.685 3.682 0.049 6.108 0.896 6.108 2.162 0 1.24-3.22 2.069-6.652 1.903-3.433-0.166-5.004-1.14-5.004-2.38z" transform="matrix(.95444 0 0 .98987 1.4332 .63988)" stroke="url(#linearGradient4122)" stroke-width=".090833" fill="url(#linearGradient4120)"/>
          <path id="path6305" style="color:#000000" d="m24.68 0.86229c-7.822 0-14.174 5.975-14.174 13.333 0 7.543 5.742 8.378 5.742 11.158 0 3.266 3.366 6.97 8.901 6.836 5.886-0.142 8.315-3.363 8.315-6.836 0-2.969 5.39-3.048 5.39-11.158 0-7.3577-6.352-13.333-14.174-13.333z" transform="matrix(.95444 0 0 .98987 1.4332 .63988)" stroke="#616471" stroke-width="1.016" fill="url(#radialGradient4124)"/>
          <path id="path2429" style="color:#000000" d="m24.68 1.9277c-7.29 0-13.21 5.5686-13.21 12.426 0 7.029 5.351 7.808 5.351 10.399 0 3.044 3.138 6.495 8.296 6.371 5.486-0.133 7.75-3.135 7.75-6.371 0-2.767 5.023-2.841 5.023-10.399 0-6.8577-5.92-12.426-13.21-12.426z" transform="matrix(.95444 0 0 .98987 1.4332 .63988)" stroke="url(#linearGradient4126)" stroke-width=".94686" fill="none"/>
        </g>
        <g id="g1695" transform="matrix(.9375 0 0 .92694 .56922 .25176)">
          <path id="path1691" fill="url(#linearGradient4128)" d="m31.947 19.223c0.313 0.104 0.522 0.417 0.417 0.729l-3.857 11.572c-0.104 0.313-0.417 0.521-0.73 0.417-0.312-0.104-0.521-0.417-0.417-0.73l3.858-11.571c0.104-0.313 0.417-0.522 0.729-0.417z"/>
          <path id="path19612" fill="url(#linearGradient4130)" d="m20.152 19.348c-0.312 0.104-0.521 0.417-0.417 0.729l3.858 11.572c0.104 0.313 0.417 0.521 0.729 0.417 0.313-0.104 0.522-0.417 0.417-0.73l-3.857-11.571c-0.104-0.313-0.417-0.522-0.73-0.417z"/>
          <path id="path19614" stroke-linejoin="round" d="m20.255 19.273c-0.246 0.042-0.438 0.235-0.48 0.481-0.043 0.246 0.075 0.491 0.293 0.613 0 0 1.842 1.081 4.25 1.625s5.489 0.579 7.812-1.688c0.176-0.139 0.257-0.365 0.21-0.584s-0.214-0.392-0.43-0.447c-0.217-0.055-0.447 0.018-0.592 0.188-1.951 1.903-4.545 1.904-6.75 1.406s-3.906-1.5-3.906-1.5c-0.12-0.08-0.264-0.113-0.407-0.094z" stroke="url(#linearGradient4132)" stroke-linecap="round" stroke-width=".21455" fill="#fff"/>
        </g>
        <path id="path6334" opacity=".59777" style="color:#000000" d="m25.001 3.5644c-6.263 0-11.346 4.0256-11.346 8.9836 0 1.98 0.978 3.714 2.351 5.199 1.553 0.632 3.244 1.086 5.109 1.086 6.263 0 11.346-4.026 11.346-8.9835 0-1.992-0.994-3.742-2.382-5.2321-1.546-0.6243-3.225-1.053-5.078-1.053z" transform="matrix(.95444 0 0 .98987 1.4332 .63988)" fill="url(#linearGradient4134)"/>
      </g>
    </g>
  </g>
  <metadata>
    <rdf:RDF>
      <cc:Work>
        <dc:format>image/svg+xml</dc:format>
        <dc:type rdf:resource="http://purl.org/dc/dcmitype/StillImage"/>
        <cc:license rdf:resource="http://creativecommons.org/licenses/publicdomain/"/>
        <dc:publisher>
          <cc:Agent rdf:about="http://openclipart.org/">
            <dc:title>Openclipart</dc:title>
          </cc:Agent>
        </dc:publisher>
        <dc:title>tango dialog information</dc:title>
        <dc:date>2010-04-03T15:22:52</dc:date>
        <dc:description>An icon from Tango Project. Since version 0.8.90 Tango Project icons are Public Domain.</dc:description>
        <dc:source>http://openclipart.org/detail/36637/tango-dialog-information-by-warszawianka</dc:source>
        <dc:creator>
          <cc:Agent>
            <dc:title>warszawianka</dc:title>
          </cc:Agent>
        </dc:creator>
        <dc:subject>
          <rdf:Bag>
            <rdf:li>clip art</rdf:li>
            <rdf:li>clipart</rdf:li>
            <rdf:li>electricity</rdf:li>
            <rdf:li>externalsource</rdf:li>
            <rdf:li>icon</rdf:li>
            <rdf:li>idea</rdf:li>
            <rdf:li>info</rdf:li>
            <rdf:li>information</rdf:li>
            <rdf:li>lightbulb</rdf:li>
            <rdf:li>tango</rdf:li>
          </rdf:Bag>
        </dc:subject>
      </cc:Work>
      <cc:License rdf:about="http://creativecommons.org/licenses/publicdomain/">
        <cc:permits rdf:resource="http://creativecommons.org/ns#Reproduction"/>
        <cc:permits rdf:resource="http://creativecommons.org/ns#Distribution"/>
        <cc:permits rdf:resource="http://creativecommons.org/ns#DerivativeWorks"/>
      </cc:License>
    </rdf:RDF>
  </metadata>
</svg>
