<?xml version="1.0"?>
<svg xmlns:rdf="http://www.w3.org/1999/02/22-rdf-syntax-ns#" xmlns="http://www.w3.org/2000/svg" xmlns:cc="http://creativecommons.org/ns#" xmlns:xlink="http://www.w3.org/1999/xlink" xmlns:dc="http://purl.org/dc/elements/1.1/" xmlns:svg="http://www.w3.org/2000/svg" id="svg1377" viewBox="0 0 48 48">
  <defs id="defs1379">
    <radialGradient id="radialGradient6719" xlink:href="#linearGradient5060" gradientUnits="userSpaceOnUse" cy="486.65" cx="605.71" gradientTransform="matrix(-2.7744 0 0 1.9697 112.76 -872.89)" r="117.14"/>
    <linearGradient id="linearGradient5060">
      <stop id="stop5062" offset="0"/>
      <stop id="stop5064" stop-opacity="0" offset="1"/>
    </linearGradient>
    <radialGradient id="radialGradient6717" xlink:href="#linearGradient5060" gradientUnits="userSpaceOnUse" cy="486.65" cx="605.71" gradientTransform="matrix(2.7744 0 0 1.9697 -1891.6 -872.89)" r="117.14"/>
    <linearGradient id="linearGradient6715" x1="302.86" gradientUnits="userSpaceOnUse" y1="366.65" gradientTransform="matrix(2.7744 0 0 1.9697 -1892.2 -872.89)" x2="302.86" y2="609.51">
      <stop id="stop5050" stop-opacity="0" offset="0"/>
      <stop id="stop5056" offset=".5"/>
      <stop id="stop5052" stop-opacity="0" offset="1"/>
    </linearGradient>
    <linearGradient id="linearGradient3946" y2="56.052" gradientUnits="userSpaceOnUse" y1="11.113" x2="47.32" x1="4.1914">
      <stop id="stop6490" stop-color="#D4D4D4" offset="0"/>
      <stop id="stop6492" stop-color="#E2E2E2" offset=".3982"/>
      <stop id="stop6494" stop-color="#fff" offset="1"/>
    </linearGradient>
    <linearGradient id="linearGradient3948" x1="8.5469" gradientUnits="userSpaceOnUse" y1="30.282" gradientTransform="matrix(.89901 0 0 .93424 1.8751 1.1936)" x2="30.851" y2="48.302">
      <stop id="stop6529" stop-color="#fff" offset="0"/>
      <stop id="stop6531" stop-color="#fff" stop-opacity=".34021" offset="1"/>
    </linearGradient>
  </defs>
  <g id="layer1">
    <g id="g7435" transform="matrix(1.5667 0 0 1.5667 -8.9256 -23.948)">
      <g id="g6707" transform="matrix(.014441 0 0 .013320 33.389 40.403)">
        <rect id="rect6709" opacity=".40206" style="color:black" height="478.36" width="1339.6" y="-150.7" x="-1559.3" fill="url(#linearGradient6715)"/>
        <path id="path6711" opacity=".40206" style="color:black" fill="url(#radialGradient6717)" d="m-219.62-150.68v478.33c142.88 0.9 345.4-107.17 345.4-239.2 0-132.02-159.44-239.13-345.4-239.13z"/>
        <path id="path6713" opacity=".40206" style="color:black" fill="url(#radialGradient6719)" d="m-1559.3-150.68v478.33c-142.8 0.9-345.4-107.17-345.4-239.2 0-132.02 159.5-239.13 345.4-239.13z"/>
      </g>
      <g id="g3937" transform="matrix(1 0 .0045378 1 -.13891 -1.3947e-15)">
        <path id="path6485" d="m33.283 38.645l-10.875-20.25c-0.313-0.563-0.875-0.875-1.5-0.875s-1.188 0.375-1.5 0.937l-10.625 20.25c-0.2502 0.5-0.2502 1.188 0.0623 1.688s0.8125 0.75 1.4377 0.75h21.5c0.625 0 1.187-0.313 1.437-0.813 0.313-0.5 0.313-1.125 0.063-1.687z" transform="matrix(1 0 -.0087267 1 .32807 1.2766)" stroke="#9f0000" stroke-width=".6383" fill="#c00"/>
        <g id="g6487" stroke="#000" transform="matrix(.625 0 -.0055349 .63425 6.1641 15.761)">
          <path id="path6496" fill="url(#linearGradient3946)" d="m9.5 37.6c-0.3 0.5 0 0.9 0.5 0.9h28.2c0.5 0 0.8-0.4 0.5-0.9l-14.3-26.6c-0.3-0.5-0.7-0.5-0.9 0l-14 26.6z"/>
        </g>
        <path id="path1325" opacity=".5" d="m32.323 38.184l-10.173-18.918c-0.433-0.815-0.588-1.077-1.242-1.077-0.561 0-0.854 0.381-1.257 1.15l-9.9021 18.903c-0.5751 1.062-0.6361 1.338-0.3551 1.805 0.2809 0.467 0.6392 0.442 1.9622 0.472h19.619c1.232 0.016 1.509-0.078 1.734-0.545 0.281-0.467 0.159-0.838-0.386-1.79z" transform="matrix(1 0 -.0087267 1 .31828 1.2766)" stroke="url(#linearGradient3948)" stroke-width=".6383" fill="none"/>
      </g>
      <g id="g6498" stroke="#000" transform="matrix(.55509 0 0 .55505 7.7497 17.802)">
        <path id="path6500" d="m23.9 36.5c-1.3 0-2.3-1-2.3-2.3 0-1.4 0.9-2.3 2.3-2.3s2.2 0.9 2.3 2.3c0 1.3-0.9 2.3-2.3 2.3zm-1.4-5.9l-0.6-11.5h4l-0.6 11.5h-2.9 0.1z"/>
      </g>
    </g>
  </g>
  <metadata>
    <rdf:RDF>
      <cc:Work>
        <dc:format>image/svg+xml</dc:format>
        <dc:type rdf:resource="http://purl.org/dc/dcmitype/StillImage"/>
        <cc:license rdf:resource="http://creativecommons.org/licenses/publicdomain/"/>
        <dc:publisher>
          <cc:Agent rdf:about="http://openclipart.org/">
            <dc:title>Openclipart</dc:title>
          </cc:Agent>
        </dc:publisher>
        <dc:title>tango dialog warning</dc:title>
        <dc:date>2010-04-03T15:23:40</dc:date>
        <dc:description>An icon from Tango Project. Since version 0.8.90 Tango Project icons are Public Domain.</dc:description>
        <dc:source>http://openclipart.org/detail/36643/tango-dialog-warning-by-warszawianka</dc:source>
        <dc:creator>
          <cc:Agent>
            <dc:title>warszawianka</dc:title>
          </cc:Agent>
        </dc:creator>
        <dc:subject>
          <rdf:Bag>
            <rdf:li>attention</rdf:li>
            <rdf:li>clip art</rdf:li>
            <rdf:li>clipart</rdf:li>
            <rdf:li>exclamation mark</rdf:li>
            <rdf:li>externalsource</rdf:li>
            <rdf:li>icon</rdf:li>
            <rdf:li>roadsign</rdf:li>
            <rdf:li>tango</rdf:li>
            <rdf:li>warning</rdf:li>
          </rdf:Bag>
        </dc:subject>
      </cc:Work>
      <cc:License rdf:about="http://creativecommons.org/licenses/publicdomain/">
        <cc:permits rdf:resource="http://creativecommons.org/ns#Reproduction"/>
        <cc:permits rdf:resource="http://creativecommons.org/ns#Distribution"/>
        <cc:permits rdf:resource="http://creativecommons.org/ns#DerivativeWorks"/>
      </cc:License>
    </rdf:RDF>
  </metadata>
</svg>
