<?xml version="1.0"?>
<svg xmlns:rdf="http://www.w3.org/1999/02/22-rdf-syntax-ns#" xmlns="http://www.w3.org/2000/svg" xmlns:cc="http://creativecommons.org/ns#" xmlns:xlink="http://www.w3.org/1999/xlink" xmlns:dc="http://purl.org/dc/elements/1.1/" xmlns:svg="http://www.w3.org/2000/svg" id="svg2913" viewBox="0 0 48 48">
  <defs id="defs3">
    <radialGradient id="radialGradient5031" xlink:href="#linearGradient5060" gradientUnits="userSpaceOnUse" cy="486.65" cx="605.71" gradientTransform="matrix(-2.7744 0 0 1.9697 112.76 -872.89)" r="117.14"/>
    <linearGradient id="linearGradient5060">
      <stop id="stop5062" offset="0"/>
      <stop id="stop5064" stop-opacity="0" offset="1"/>
    </linearGradient>
    <radialGradient id="radialGradient5029" xlink:href="#linearGradient5060" gradientUnits="userSpaceOnUse" cy="486.65" cx="605.71" gradientTransform="matrix(2.7744 0 0 1.9697 -1891.6 -872.89)" r="117.14"/>
    <linearGradient id="linearGradient5027" x1="302.86" gradientUnits="userSpaceOnUse" y1="366.65" gradientTransform="matrix(2.7744 0 0 1.9697 -1892.2 -872.89)" x2="302.86" y2="609.51">
      <stop id="stop5050" stop-opacity="0" offset="0"/>
      <stop id="stop5056" offset=".5"/>
      <stop id="stop5052" stop-opacity="0" offset="1"/>
    </linearGradient>
    <radialGradient id="radialGradient4997" gradientUnits="userSpaceOnUse" cy="6.4577" cx="23.447" gradientTransform="matrix(-1.3145 -.010063 -.010230 1.3362 46.221 -4.9099)" r="19.062">
      <stop id="stop4993" stop-color="#fff" offset="0"/>
      <stop id="stop4995" stop-color="#fff" stop-opacity="0" offset="1"/>
    </radialGradient>
    <linearGradient id="linearGradient1764" x1="33.06" gradientUnits="userSpaceOnUse" y1="27.394" gradientTransform="matrix(.91411 1.4128e-16 -1.4128e-16 .91411 -3.8687 -2.7069)" x2="12.624" y2="12.584">
      <stop id="stop2189" stop-color="#fff" offset="0"/>
      <stop id="stop2191" stop-color="#fff" stop-opacity="0" offset="1"/>
    </linearGradient>
    <radialGradient id="radialGradient8668" gradientUnits="userSpaceOnUse" cy="36.421" cx="24.837" gradientTransform="matrix(1 -7.8165e-32 -1.1324e-32 .53672 -5.898e-14 16.873)" r="15.645">
      <stop id="stop8664" offset="0"/>
      <stop id="stop8666" stop-opacity="0" offset="1"/>
    </radialGradient>
    <linearGradient id="linearGradient4209" x1="7.0625" gradientUnits="userSpaceOnUse" x2="24.688" gradientTransform="translate(.79549 3.7992)" y1="35.281" y2="35.281">
      <stop id="stop4186" stop-color="#838383" offset="0"/>
      <stop id="stop4188" stop-color="#bbb" stop-opacity="0" offset="1"/>
    </linearGradient>
    <linearGradient id="linearGradient4234" x1="7.6046" gradientUnits="userSpaceOnUse" x2="36.183" gradientTransform="translate(0 5.125)" y1="28.481" y2="40.944">
      <stop id="stop4230" stop-color="#bbb" offset="0"/>
      <stop id="stop4232" stop-color="#9f9f9f" offset="1"/>
    </linearGradient>
    <linearGradient id="linearGradient4242" x1="12.277" gradientUnits="userSpaceOnUse" x2="12.222" gradientTransform="translate(0 5.125)" y1="37.206" y2="33.759">
      <stop id="stop4238" stop-color="#eee" offset="0"/>
      <stop id="stop4240" stop-color="#eee" stop-opacity="0" offset="1"/>
    </linearGradient>
    <radialGradient id="radialGradient4250" gradientUnits="userSpaceOnUse" cy="2.9585" cx="15.571" gradientTransform="matrix(1.2862 .78170 -.71078 1.1696 -2.3543 .24814)" r="20.936">
      <stop id="stop4246" stop-color="#e4e4e4" offset="0"/>
      <stop id="stop4248" stop-color="#d3d3d3" offset="1"/>
    </radialGradient>
    <linearGradient id="linearGradient4260" x1="12.378" gradientUnits="userSpaceOnUse" x2="44.096" gradientTransform="translate(0 5.125)" y1="4.4331" y2="47.621">
      <stop id="stop4256" stop-color="#fff" offset="0"/>
      <stop id="stop4258" stop-color="#fff" stop-opacity="0" offset="1"/>
    </linearGradient>
    <linearGradient id="linearGradient4272" x1="23.688" gradientUnits="userSpaceOnUse" x2="23.688" gradientTransform="translate(0 5.125)" y1="11.319" y2="26.357">
      <stop id="stop4276" stop-color="#fff" stop-opacity=".2549" offset="0"/>
      <stop id="stop4278" stop-color="#fff" offset="1"/>
    </linearGradient>
    <linearGradient id="linearGradient2553" y2="11.781" gradientUnits="userSpaceOnUse" y1="31.965" x2="21.748" x1="33.431">
      <stop id="stop2557" stop-color="#fff" offset="0"/>
      <stop id="stop2561" stop-color="#e6e6e6" offset=".5"/>
      <stop id="stop2563" stop-color="#fff" offset=".75"/>
      <stop id="stop2565" stop-color="#e1e1e1" offset=".84167"/>
      <stop id="stop2559" stop-color="#fff" offset="1"/>
    </linearGradient>
    <linearGradient id="linearGradient6907" y2="16.743" gradientUnits="userSpaceOnUse" y1="15.868" x2="8.8953" x1="14.752">
      <stop id="stop6903" stop-color="#3465a4" offset="0"/>
      <stop id="stop6905" stop-color="#3465a4" stop-opacity="0" offset="1"/>
    </linearGradient>
    <linearGradient id="linearGradient6931" y2="21.118" gradientUnits="userSpaceOnUse" y1="18.25" x2="7" x1="12.25">
      <stop id="stop6927" stop-color="#204a87" offset="0"/>
      <stop id="stop6929" stop-color="#204a87" stop-opacity="0" offset="1"/>
    </linearGradient>
    <linearGradient id="linearGradient6971" y2="36.437" gradientUnits="userSpaceOnUse" y1="31.431" x2="28.061" x1="28.061">
      <stop id="stop6967" stop-color="#ddd" offset="0"/>
      <stop id="stop6969" stop-color="#fdfdfd" offset="1"/>
    </linearGradient>
  </defs>
  <g id="layer2">
    <g id="g5022" transform="matrix(.024114 0 0 .019292 45.49 41.752)">
      <rect id="rect4173" opacity=".40206" style="color:black" height="478.36" width="1339.6" y="-150.7" x="-1559.3" fill="url(#linearGradient5027)"/>
      <path id="path5058" opacity=".40206" style="color:black" fill="url(#radialGradient5029)" d="m-219.62-150.68v478.33c142.88 0.9 345.4-107.17 345.4-239.2 0-132.02-159.44-239.13-345.4-239.13z"/>
      <path id="path5018" opacity=".40206" style="color:black" fill="url(#radialGradient5031)" d="m-1559.3-150.68v478.33c-142.8 0.9-345.4-107.17-345.4-239.2 0-132.02 159.5-239.13 345.4-239.13z"/>
    </g>
    <path id="path4196" stroke-linejoin="round" d="m11.286 13.088c-0.625 0-1.032 0.29-1.282 0.843l-6.4683 17.104s-0.25 0.671-0.25 1.781v9.65c0 1.083 0.6578 1.625 1.6562 1.625h38.562c0.985 0 1.594-0.718 1.594-1.844v-9.65s0.106-0.77-0.094-1.312l-6.718-17.197c-0.185-0.512-0.637-0.988-1.125-1h-25.875z" stroke="#535353" stroke-linecap="round" stroke-width="2" fill="none"/>
    <path id="path4170" fill-rule="evenodd" fill="url(#linearGradient4234)" d="m3.2736 32.122l0.7646-0.692 37.61 0.062 3.462 0.317v10.439c0 1.125-0.607 1.843-1.592 1.843h-38.583c-0.998 0-1.6614-0.542-1.6614-1.624v-10.345z"/>
    <path id="path3093" fill-rule="evenodd" fill="url(#radialGradient4250)" d="m3.5491 31.039c-0.7143 1.465-0.0006 2.393 1.0357 2.393h39c1.119-0.024 1.845-1.012 1.428-2.143l-6.714-17.21c-0.184-0.512-0.655-0.988-1.143-1h-25.857c-0.625 0-1.036 0.303-1.286 0.857l-6.4639 17.103z"/>
    <rect id="rect4174" style="color:#000000" fill-rule="evenodd" height="5.5625" width="17.625" y="36.299" x="7.858" fill="url(#linearGradient4209)"/>
    <path id="path4194" opacity=".81143" fill-rule="evenodd" fill="url(#linearGradient4242)" d="m7.858 41.862v-4.012c1.8355 3.179 8.296 4.012 12.937 4.012h-12.937z"/>
    <path id="path4201" fill-rule="evenodd" fill="#fff" d="m44.796 30.754c0.064 1.25-0.414 2.316-1.322 2.343h-38.119c-1.2889 0-1.8674-0.325-2.0837-0.868 0.0917 0.945 0.8258 1.65 2.084 1.65h38.119c1.076-0.033 1.753-1.424 1.352-2.995l-0.03-0.13z"/>
    <path id="path4211" opacity=".69143" style="color:#000000" d="m10.969 15.281c-0.046 0.201-0.188 0.387-0.188 0.594 0 0.949 0.591 1.789 1.344 2.594 0.24-0.154 0.365-0.355 0.625-0.5-0.94-0.816-1.553-1.717-1.781-2.688zm26.656 0c-0.229 0.97-0.842 1.873-1.781 2.688 0.274 0.153 0.404 0.368 0.656 0.531 0.757-0.807 1.312-1.673 1.312-2.625 0-0.207-0.141-0.393-0.187-0.594zm2.187 8.438c-0.613 4.04-7.298 7.25-15.531 7.25-8.212 0-14.86-3.193-15.5-7.219-0.0321 0.197-0.1248 0.392-0.1248 0.594 0.0001 4.318 6.9888 7.844 15.625 7.844 8.636 0 15.656-3.526 15.657-7.844 0-0.213-0.09-0.418-0.126-0.625z" fill-rule="evenodd" fill="url(#linearGradient4272)"/>
    <path id="path4224" style="color:#000000" d="m8.5737 25.594a1.37 1.0165 0 1 1 -2.7401 0 1.37 1.0165 0 1 1 2.7401 0z" fill-opacity=".45763" fill-rule="evenodd" transform="translate(.088388 5.3018)" fill="#fff"/>
    <path id="path4226" style="color:#000000" d="m8.5737 25.594a1.37 1.0165 0 1 1 -2.7401 0 1.37 1.0165 0 1 1 2.7401 0z" fill-opacity=".45763" fill-rule="evenodd" transform="translate(33.967 5.2134)" fill="#fff"/>
    <path id="path4252" stroke-linejoin="round" d="m11.643 13.541c-0.602 0-0.993 0.279-1.234 0.812l-6.415 16.591s-0.2406 0.646-0.2406 1.715v9.29c0 1.354 0.444 1.627 1.5944 1.627h37.687c1.323 0 1.534-0.317 1.534-1.838v-9.29s0.102-0.742-0.09-1.264l-6.593-16.806c-0.178-0.492-0.551-0.826-1.021-0.837h-25.222z" stroke="url(#linearGradient4260)" stroke-linecap="round" fill="none"/>
    <path id="path4282" d="m40.5 36.554v5.021" stroke-opacity=".42373" stroke="#fff" stroke-linecap="square" stroke-width="1px" fill="none"/>
    <path id="path4284" d="m38.5 36.614v5.021" stroke-opacity=".42373" stroke="#fff" stroke-linecap="square" stroke-width="1px" fill="none"/>
    <path id="path4286" d="m36.5 36.614v5.021" stroke-opacity=".42373" stroke="#fff" stroke-linecap="square" stroke-width="1px" fill="none"/>
    <path id="path4288" d="m34.5 36.614v5.021" stroke-opacity=".42373" stroke="#fff" stroke-linecap="square" stroke-width="1px" fill="none"/>
    <path id="path4290" d="m32.5 36.614v5.021" stroke-opacity=".42373" stroke="#fff" stroke-linecap="square" stroke-width="1px" fill="none"/>
    <path id="path4292" d="m30.5 36.614v5.021" stroke-opacity=".42373" stroke="#fff" stroke-linecap="square" stroke-width="1px" fill="none"/>
    <path id="path4294" opacity=".097143" d="m39.5 36.604v5.021" stroke="#000" stroke-linecap="square" stroke-width="1px" fill="none"/>
    <path id="path4296" opacity=".097143" d="m37.5 36.664v5.021" stroke="#000" stroke-linecap="square" stroke-width="1px" fill="none"/>
    <path id="path4298" opacity=".097143" d="m35.5 36.664v5.021" stroke="#000" stroke-linecap="square" stroke-width="1px" fill="none"/>
    <path id="path4300" opacity=".097143" d="m33.5 36.664v5.021" stroke="#000" stroke-linecap="square" stroke-width="1px" fill="none"/>
    <path id="path4302" opacity=".097143" d="m31.5 36.664v5.021" stroke="#000" stroke-linecap="square" stroke-width="1px" fill="none"/>
    <path id="path4572" opacity=".44" fill-rule="evenodd" fill="#fff" d="m7.875 36.312v5.532h12.563l-12.219-0.344-0.344-5.188z"/>
    <path id="path2545" opacity=".20571" style="color:#000000" d="m39.875 19.562a14.875 6.6875 0 1 1 -29.75 0 14.875 6.6875 0 1 1 29.75 0z" fill-rule="evenodd" transform="matrix(1.0378 0 0 1.0607 -1.6329 3.0304)" fill="url(#linearGradient2553)"/>
  </g>
  <g id="layer1">
    <path id="path8660" opacity=".14118" style="color:#000000" d="m40.482 36.421a15.645 8.3969 0 1 1 -31.29 0 15.645 8.3969 0 1 1 31.29 0z" fill-rule="evenodd" transform="matrix(1.1302 1.1782e-16 7.9185e-17 -.75960 -3.9097 53.666)" fill="url(#radialGradient8668)"/>
    <path id="path1432" style="color:#000000" d="m3.2035 25.835c-1.0306-31.22 25.538-26.286 25.378-10.046h7.313l-11.377 12.986-11.933-12.986h7.542c0.457-10.97-16.718-14.179-16.924 10.046z" stroke="url(#linearGradient6931)" display="block" fill="url(#linearGradient6907)"/>
    <path id="path2177" opacity=".47159" style="color:#000000" d="m7.6642 9.1041c4.7418-9.1441 20.458-6.3866 20.098 7.4749h6.317l-9.566 10.958-10.096-10.958h6.456c0.272-11.575-9.951-11.044-13.209-7.4749z" stroke="url(#linearGradient1764)" stroke-miterlimit="10" display="block" fill="none"/>
    <path id="path4989" opacity=".49432" style="color:#000000" fill="url(#radialGradient4997)" d="m34.767 16.212l-1.984 2.545c-5.41-1.516-7.886 2.73-15.674 1.732l-3.861-4.409 7.186 0.083c0.049-11.846-12.09-11.164-15.405-2.535 3.8082-14.889 22.864-12.822 23.254 2.486l6.484 0.098z"/>
    <rect id="rect6951" style="color:#000000" display="block" rx="1.625" ry="1.625" height="12.278" width="39.248" stroke="#7d7d7d" stroke-linecap="round" y="30.298" x="4.5635" fill="url(#linearGradient6971)"/>
    <rect id="rect6953" opacity=".59659" style="color:#000000" display="block" ry="0" height="7" width="16" y="33" x="7" fill="#7d7d7d"/>
    <rect id="rect6957" style="color:#000000" width="1" y="32" x="24" height="9" display="block"/>
  </g>
  <metadata>
    <rdf:RDF>
      <cc:Work>
        <dc:format>image/svg+xml</dc:format>
        <dc:type rdf:resource="http://purl.org/dc/dcmitype/StillImage"/>
        <cc:license rdf:resource="http://creativecommons.org/licenses/publicdomain/"/>
        <dc:publisher>
          <cc:Agent rdf:about="http://openclipart.org/">
            <dc:title>Openclipart</dc:title>
          </cc:Agent>
        </dc:publisher>
        <dc:title>tango document save as</dc:title>
        <dc:date>2010-03-18T16:18:26</dc:date>
        <dc:description>"Save as" icon from &lt;A href="http://tango.freedesktop.org/Tango_Desktop_Project"&gt; Tango Project &lt;/A&gt; &#xD;\n&lt;BR&gt;&lt;BR&gt;&#xD;\nSince version 0.8.90 Tango Project icons are Public Domain: &lt;A href="http://tango.freedesktop.org/Frequently_Asked_Questions#Terms_of_Use.3F"&gt; Tango Project FAQ &lt;/A&gt;</dc:description>
        <dc:source>http://openclipart.org/detail/32251/tango-document-save-as-by-warszawianka</dc:source>
        <dc:creator>
          <cc:Agent>
            <dc:title>warszawianka</dc:title>
          </cc:Agent>
        </dc:creator>
        <dc:subject>
          <rdf:Bag>
            <rdf:li>clip art</rdf:li>
            <rdf:li>clipart</rdf:li>
            <rdf:li>document</rdf:li>
            <rdf:li>hard disk</rdf:li>
            <rdf:li>icon</rdf:li>
            <rdf:li>save</rdf:li>
            <rdf:li>tango</rdf:li>
          </rdf:Bag>
        </dc:subject>
      </cc:Work>
      <cc:License rdf:about="http://creativecommons.org/licenses/publicdomain/">
        <cc:permits rdf:resource="http://creativecommons.org/ns#Reproduction"/>
        <cc:permits rdf:resource="http://creativecommons.org/ns#Distribution"/>
        <cc:permits rdf:resource="http://creativecommons.org/ns#DerivativeWorks"/>
      </cc:License>
    </rdf:RDF>
  </metadata>
</svg>
