<?xml version="1.0"?>
<svg xmlns:rdf="http://www.w3.org/1999/02/22-rdf-syntax-ns#" xmlns="http://www.w3.org/2000/svg" xmlns:cc="http://creativecommons.org/ns#" xmlns:xlink="http://www.w3.org/1999/xlink" xmlns:dc="http://purl.org/dc/elements/1.1/" xmlns:svg="http://www.w3.org/2000/svg" id="svg2994" viewBox="0 0 48 48">
  <defs id="defs3">
    <radialGradient id="radialGradient5031" xlink:href="#linearGradient5060" gradientUnits="userSpaceOnUse" cy="486.65" cx="605.71" gradientTransform="matrix(-2.7744 0 0 1.9697 112.76 -872.89)" r="117.14"/>
    <linearGradient id="linearGradient5060">
      <stop id="stop5062" offset="0"/>
      <stop id="stop5064" stop-opacity="0" offset="1"/>
    </linearGradient>
    <radialGradient id="radialGradient5029" xlink:href="#linearGradient5060" gradientUnits="userSpaceOnUse" cy="486.65" cx="605.71" gradientTransform="matrix(2.7744 0 0 1.9697 -1891.6 -872.89)" r="117.14"/>
    <linearGradient id="linearGradient5027" x1="302.86" gradientUnits="userSpaceOnUse" y1="366.65" gradientTransform="matrix(2.7744 0 0 1.9697 -1892.2 -872.89)" x2="302.86" y2="609.51">
      <stop id="stop5050" stop-opacity="0" offset="0"/>
      <stop id="stop5056" offset=".5"/>
      <stop id="stop5052" stop-opacity="0" offset="1"/>
    </linearGradient>
    <radialGradient id="radialGradient1433" gradientUnits="userSpaceOnUse" cy="26.926" cx="9.1295" r="2.1227">
      <stop id="stop4700" stop-color="#fffffd" offset="0"/>
      <stop id="stop4706" stop-color="#bbbbb9" offset=".5"/>
      <stop id="stop4702" offset="1"/>
    </radialGradient>
    <linearGradient id="linearGradient1447" x1="9.8698" gradientUnits="userSpaceOnUse" x2="9.9128" gradientTransform="matrix(2.7721 0 0 .36074 .61872 2.8839)" y1="57.228" y2="72.064">
      <stop id="stop4735" stop-opacity=".23711" offset="0"/>
      <stop id="stop4737" stop-opacity="0" offset="1"/>
    </linearGradient>
    <linearGradient id="linearGradient1451" x1="10.338" gradientUnits="userSpaceOnUse" x2="10.338" gradientTransform="matrix(2.3698 0 0 .42197 0 2)" y1="64.652" y2="54.136">
      <stop id="stop4682" stop-color="#f7f6f5" offset="0"/>
      <stop id="stop4684" stop-color="#f7f6f5" stop-opacity="0" offset="1"/>
    </linearGradient>
    <linearGradient id="linearGradient1453" x1="9.7317" gradientUnits="userSpaceOnUse" x2="9.7053" gradientTransform="matrix(2.3698 0 0 .42197 0 2)" y1="70.725" y2="62.282">
      <stop id="stop4690" stop-color="#666" offset="0"/>
      <stop id="stop4692" stop-opacity="0" offset="1"/>
    </linearGradient>
    <linearGradient id="linearGradient1456" x1="20.771" gradientUnits="userSpaceOnUse" x2="20.718" gradientTransform="matrix(1.1988 0 0 .85356 -.14309 2.0345)" y1="25.14" y2="19.337">
      <stop id="stop15664" stop-color="#fff" stop-opacity="0" offset="0"/>
      <stop id="stop15666" stop-color="#f8f8f8" offset="1"/>
    </linearGradient>
    <linearGradient id="linearGradient1459" x1="25.057" gradientUnits="userSpaceOnUse" x2="24.79" gradientTransform="matrix(.94494 0 0 1.0761 .068446 4.0932)" y1="3.6785" y2="25.247">
      <stop id="stop260" stop-color="#e0e0e0" offset="0"/>
      <stop id="stop4886" stop-color="#fff" offset=".40547"/>
      <stop id="stop4884" stop-color="#cdcdcd" offset=".53448"/>
      <stop id="stop261" stop-color="#494949" offset="1"/>
    </linearGradient>
    <linearGradient id="linearGradient1464" x1="15.388" gradientUnits="userSpaceOnUse" x2="15.488" gradientTransform="matrix(1.4902 0 0 .66874 .088951 2)" y1="32.539" y2="58.831">
      <stop id="stop4764" stop-color="#fff" stop-opacity=".12371" offset="0"/>
      <stop id="stop4768" stop-color="#fff" offset=".10345"/>
      <stop id="stop4766" stop-color="#fff" stop-opacity="0" offset="1"/>
    </linearGradient>
    <linearGradient id="linearGradient1468" x1="1.8456" gradientUnits="userSpaceOnUse" x2="18.972" gradientTransform="matrix(2.2918 0 0 .43427 .088552 2)" y1="88.295" y2="88.295">
      <stop id="stop4743" stop-color="#dcdcda" offset="0"/>
      <stop id="stop4745" stop-color="#bab9b7" offset="1"/>
    </linearGradient>
    <linearGradient id="linearGradient1471" x1="1.8456" gradientUnits="userSpaceOnUse" x2="18.972" gradientTransform="matrix(2.3027 0 0 .43792 0 .58403)" y1="88.295" y2="88.295">
      <stop id="stop4670" stop-color="#8e8d87" offset="0"/>
      <stop id="stop4676" stop-color="#cbc9c1" offset=".27586"/>
      <stop id="stop4672" stop-color="#8e8d87" offset="1"/>
    </linearGradient>
  </defs>
  <g id="layer1">
    <g id="g5022" transform="matrix(.024114 0 0 .019292 45.49 39.752)">
      <rect id="rect4173" opacity=".40206" style="color:black" height="478.36" width="1339.6" y="-150.7" x="-1559.3" fill="url(#linearGradient5027)"/>
      <path id="path5058" opacity=".40206" style="color:black" fill="url(#radialGradient5029)" d="m-219.62-150.68v478.33c142.88 0.9 345.4-107.17 345.4-239.2 0-132.02-159.44-239.13-345.4-239.13z"/>
      <path id="path5018" opacity=".40206" style="color:black" fill="url(#radialGradient5031)" d="m-1559.3-150.68v478.33c-142.8 0.9-345.4-107.17-345.4-239.2 0-132.02 159.5-239.13 345.4-239.13z"/>
    </g>
    <rect id="rect4652" rx="1.7115" ry="1.7115" height="6.4916" width="38.438" stroke="#595959" y="36.004" x="4.75" fill="url(#linearGradient1471)"/>
    <path id="rect4609" style="color:#000000" fill="url(#linearGradient1468)" stroke="#676767" d="m7.1309 21.5h33.74c0.385 0 0.877 0.288 1.18 0.724s1.737 2.61 2.058 3.074c0.322 0.464 0.393 0.904 0.393 1.476v12.077c0 0.914-0.732 1.649-1.641 1.649h-37.721c-0.9089 0-1.6409-0.735-1.6409-1.649v-12.077c0-0.494 0.1012-1.202 0.4464-1.653 0.4357-0.569 1.6044-2.548 1.9126-2.968 0.3083-0.42 0.8743-0.653 1.2728-0.653z"/>
    <path id="path4718" fill-rule="evenodd" fill="#fbfbfb" d="m7.7053 21.976c-0.498 0-1.1383 0.131-1.4009 0.535l-1.8387 2.829c-0.2959 0.455 0.0337 1.528 0.9243 1.528h37.289c1.204 0 1.208-1.01 0.924-1.44l-1.751-2.652c-0.318-0.48-0.433-0.8-1.226-0.8h-32.921z"/>
    <path id="path4750" style="color:#000000" d="m7.6003 22.446h32.775c0.365 0 0.831 0.273 1.119 0.685 0.288 0.413 1.294 2.03 1.599 2.469 0.306 0.44 0.435 0.856 0.435 1.398v11.281c0 0.865-0.133 1.249-0.995 1.249h-37.002c-0.8626 0-1.0584-0.384-1.0584-1.249v-11.281c0-0.468 0.2205-1.138 0.5478-1.565 0.4131-0.539 1.0808-1.971 1.3731-2.369 0.2923-0.397 0.829-0.618 1.2068-0.618z" stroke="url(#linearGradient1464)" stroke-width=".94697" fill="none"/>
    <path id="rect15391" style="color:#000000" d="m11.682 4.4978h24.632c0.65 0 1.174 0.5101 1.174 1.1439v18.706h-26.98v-18.706c0-0.6341 0.524-1.1442 1.174-1.1442z" stroke="#898989" stroke-linecap="round" display="block" fill="url(#linearGradient1459)"/>
    <rect id="rect15660" stroke-linejoin="round" style="color:#000000" display="block" rx=".17678" ry=".17678" height="18.836" width="25.001" stroke="url(#linearGradient1456)" stroke-linecap="round" y="5.4992" x="11.499" fill="none"/>
    <rect id="rect4678" rx="1.7115" ry="1.7115" height="5.1875" width="33.75" stroke="url(#linearGradient1453)" y="27.375" x="6.875" fill="url(#linearGradient1451)"/>
    <path id="path4696" transform="translate(0 2)" fill="url(#radialGradient1433)" d="m10.872 27.626a1.2816 1.2816 0 1 1 -2.5635 0 1.2816 1.2816 0 1 1 2.5635 0z"/>
    <path id="path4731" opacity=".36571" fill-rule="evenodd" fill="url(#linearGradient1447)" d="m11.744 25.416l25.562 0.063c0.688 0.001 0.988-0.371 0.938-1l-0.125-1.563h1.866c0.812 0 0.99 0.193 1.187 0.563l0.5 0.937c0.527 0.988 1.812 1.974 0.498 1.974-4.502 0-28.176-0.349-30.426-0.974z"/>
    <path id="path4760" stroke-linejoin="round" d="m42.938 26.5h-38.126" stroke="#fff" stroke-linecap="round" stroke-width="1px" fill="none"/>
    <g id="g4849" opacity=".43575" transform="translate(0 2)" fill-opacity=".2924">
      <rect id="rect4831" style="color:#000000" height="1" width="19" y="5" x="14"/>
      <rect id="rect4833" style="color:#000000" height="1" width="19" y="7" x="14"/>
      <rect id="rect4835" style="color:#000000" height="1" width="19" y="9" x="14"/>
      <rect id="rect4837" style="color:#000000" height="1" width="19" y="11" x="14"/>
      <rect id="rect4839" style="color:#000000" height="1" width="11" y="13" x="14"/>
    </g>
  </g>
  <g id="layer2">
    <path id="path8643" style="color:#000000" fill-rule="evenodd" fill="#a7a7a7" d="m21.022 20.989h6.967v-4.924h3.011l-6.446-8.065-7.118 7.987h3.588l-0.002 5.002z"/>
  </g>
  <metadata>
    <rdf:RDF>
      <cc:Work>
        <dc:format>image/svg+xml</dc:format>
        <dc:type rdf:resource="http://purl.org/dc/dcmitype/StillImage"/>
        <cc:license rdf:resource="http://creativecommons.org/licenses/publicdomain/"/>
        <dc:publisher>
          <cc:Agent rdf:about="http://openclipart.org/">
            <dc:title>Openclipart</dc:title>
          </cc:Agent>
        </dc:publisher>
        <dc:title>tango document print</dc:title>
        <dc:date>2010-03-18T16:11:37</dc:date>
        <dc:description>"Print document" icon from &lt;A href="http://tango.freedesktop.org/Tango_Desktop_Project"&gt; Tango Project &lt;/A&gt; &#xD;\n&lt;BR&gt;&lt;BR&gt;&#xD;\nSince version 0.8.90 Tango Project icons are Public Domain: &lt;A href="http://tango.freedesktop.org/Frequently_Asked_Questions#Terms_of_Use.3F"&gt; Tango Project FAQ &lt;/A&gt;</dc:description>
        <dc:source>http://openclipart.org/detail/32227/tango-document-print-by-warszawianka</dc:source>
        <dc:creator>
          <cc:Agent>
            <dc:title>warszawianka</dc:title>
          </cc:Agent>
        </dc:creator>
        <dc:subject>
          <rdf:Bag>
            <rdf:li>clip art</rdf:li>
            <rdf:li>clipart</rdf:li>
            <rdf:li>documet</rdf:li>
            <rdf:li>externalsource</rdf:li>
            <rdf:li>icon</rdf:li>
            <rdf:li>print</rdf:li>
            <rdf:li>tango</rdf:li>
          </rdf:Bag>
        </dc:subject>
      </cc:Work>
      <cc:License rdf:about="http://creativecommons.org/licenses/publicdomain/">
        <cc:permits rdf:resource="http://creativecommons.org/ns#Reproduction"/>
        <cc:permits rdf:resource="http://creativecommons.org/ns#Distribution"/>
        <cc:permits rdf:resource="http://creativecommons.org/ns#DerivativeWorks"/>
      </cc:License>
    </rdf:RDF>
  </metadata>
</svg>
