<?xml version="1.0"?>
<svg xmlns:rdf="http://www.w3.org/1999/02/22-rdf-syntax-ns#" xmlns="http://www.w3.org/2000/svg" xmlns:cc="http://creativecommons.org/ns#" xmlns:xlink="http://www.w3.org/1999/xlink" xmlns:dc="http://purl.org/dc/elements/1.1/" xmlns:svg="http://www.w3.org/2000/svg" id="svg2913" viewBox="0 0 48 48">
  <defs id="defs3">
    <radialGradient id="radialGradient6719" xlink:href="#linearGradient5060" gradientUnits="userSpaceOnUse" cy="486.65" cx="605.71" gradientTransform="matrix(-2.7744 0 0 1.9697 112.76 -872.89)" r="117.14"/>
    <linearGradient id="linearGradient5060">
      <stop id="stop5062" offset="0"/>
      <stop id="stop5064" stop-opacity="0" offset="1"/>
    </linearGradient>
    <radialGradient id="radialGradient6717" xlink:href="#linearGradient5060" gradientUnits="userSpaceOnUse" cy="486.65" cx="605.71" gradientTransform="matrix(2.7744 0 0 1.9697 -1891.6 -872.89)" r="117.14"/>
    <linearGradient id="linearGradient6715" x1="302.86" gradientUnits="userSpaceOnUse" y1="366.65" gradientTransform="matrix(2.7744 0 0 1.9697 -1892.2 -872.89)" x2="302.86" y2="609.51">
      <stop id="stop5050" stop-opacity="0" offset="0"/>
      <stop id="stop5056" offset=".5"/>
      <stop id="stop5052" stop-opacity="0" offset="1"/>
    </linearGradient>
    <linearGradient id="linearGradient4209" x1="7.0625" gradientUnits="userSpaceOnUse" x2="24.688" gradientTransform="translate(.79549 -1.3258)" y1="35.281" y2="35.281">
      <stop id="stop4186" stop-color="#838383" offset="0"/>
      <stop id="stop4188" stop-color="#bbb" stop-opacity="0" offset="1"/>
    </linearGradient>
    <linearGradient id="linearGradient4234" y2="40.944" gradientUnits="userSpaceOnUse" x2="36.183" y1="28.481" x1="7.6046">
      <stop id="stop4230" stop-color="#bbb" offset="0"/>
      <stop id="stop4232" stop-color="#9f9f9f" offset="1"/>
    </linearGradient>
    <linearGradient id="linearGradient4242" y2="33.759" gradientUnits="userSpaceOnUse" x2="12.222" y1="37.206" x1="12.277">
      <stop id="stop4238" stop-color="#eee" offset="0"/>
      <stop id="stop4240" stop-color="#eee" stop-opacity="0" offset="1"/>
    </linearGradient>
    <radialGradient id="radialGradient4250" gradientUnits="userSpaceOnUse" cy="2.9585" cx="15.571" gradientTransform="matrix(1.2862 .78170 -.71078 1.1696 -2.3543 -4.8769)" r="20.936">
      <stop id="stop4246" stop-color="#e4e4e4" offset="0"/>
      <stop id="stop4248" stop-color="#d3d3d3" offset="1"/>
    </radialGradient>
    <linearGradient id="linearGradient4260" y2="47.621" gradientUnits="userSpaceOnUse" x2="44.096" y1="4.4331" x1="12.378">
      <stop id="stop4256" stop-color="#fff" offset="0"/>
      <stop id="stop4258" stop-color="#fff" stop-opacity="0" offset="1"/>
    </linearGradient>
    <linearGradient id="linearGradient4272" y2="26.357" gradientUnits="userSpaceOnUse" x2="23.688" y1="11.319" x1="23.688">
      <stop id="stop4276" stop-color="#fff" stop-opacity=".2549" offset="0"/>
      <stop id="stop4278" stop-color="#fff" offset="1"/>
    </linearGradient>
    <linearGradient id="linearGradient2553" y2="11.781" gradientUnits="userSpaceOnUse" y1="31.965" x2="21.748" x1="33.431">
      <stop id="stop2557" stop-color="#fff" offset="0"/>
      <stop id="stop2561" stop-color="#e6e6e6" offset=".5"/>
      <stop id="stop2563" stop-color="#fff" offset=".75"/>
      <stop id="stop2565" stop-color="#e1e1e1" offset=".84167"/>
      <stop id="stop2559" stop-color="#fff" offset="1"/>
    </linearGradient>
  </defs>
  <g id="layer2">
    <g id="g6707" transform="matrix(.024527 0 0 .020868 45.691 36.154)">
      <rect id="rect6709" opacity=".40206" style="color:black" height="478.36" width="1339.6" y="-150.7" x="-1559.3" fill="url(#linearGradient6715)"/>
      <path id="path6711" opacity=".40206" style="color:black" fill="url(#radialGradient6717)" d="m-219.62-150.68v478.33c142.88 0.9 345.4-107.17 345.4-239.2 0-132.02-159.44-239.13-345.4-239.13z"/>
      <path id="path6713" opacity=".40206" style="color:black" fill="url(#radialGradient6719)" d="m-1559.3-150.68v478.33c-142.8 0.9-345.4-107.17-345.4-239.2 0-132.02 159.5-239.13 345.4-239.13z"/>
    </g>
    <path id="path4196" stroke-linejoin="round" d="m11.286 7.9626c-0.625 0-1.032 0.2902-1.282 0.8438l-6.4683 17.104s-0.25 0.671-0.25 1.781v9.65c0 1.083 0.6578 1.625 1.6562 1.625h38.562c0.985 0 1.594-0.718 1.594-1.844v-9.65s0.106-0.77-0.094-1.312l-6.718-17.197c-0.185-0.5123-0.637-0.9885-1.125-1.0004h-25.875z" stroke="#535353" stroke-linecap="round" stroke-width="2" fill="none"/>
    <path id="path4170" fill-rule="evenodd" fill="url(#linearGradient4234)" d="m3.2736 26.997l0.7646-0.692 37.61 0.062 3.462 0.317v10.439c0 1.125-0.607 1.843-1.592 1.843h-38.583c-0.998 0-1.6614-0.542-1.6614-1.624v-10.345z"/>
    <path id="path3093" fill-rule="evenodd" fill="url(#radialGradient4250)" d="m3.5491 25.914c-0.7143 1.465-0.0006 2.393 1.0357 2.393h39c1.119-0.024 1.845-1.012 1.428-2.143l-6.714-17.21c-0.184-0.5122-0.655-0.9884-1.143-1.0003h-25.857c-0.625 0-1.036 0.3036-1.286 0.8571l-6.4639 17.103z"/>
    <rect id="rect4174" style="color:#000000" fill-rule="evenodd" height="5.5625" width="17.625" y="31.174" x="7.858" fill="url(#linearGradient4209)"/>
    <path id="path4194" opacity=".81143" fill-rule="evenodd" fill="url(#linearGradient4242)" d="m7.858 36.737v-4.012c1.8355 3.179 8.296 4.012 12.937 4.012h-12.937z"/>
    <path id="path4201" fill-rule="evenodd" fill="#fff" d="m44.796 25.629c0.064 1.25-0.414 2.316-1.322 2.343h-38.119c-1.2889 0-1.8674-0.325-2.0837-0.868 0.0917 0.945 0.8258 1.65 2.084 1.65h38.119c1.076-0.033 1.753-1.424 1.352-2.995l-0.03-0.13z"/>
    <path id="path4211" opacity=".69143" style="color:#000000" d="m10.969 10.156c-0.046 0.201-0.188 0.387-0.188 0.594 0 0.949 0.591 1.789 1.344 2.594 0.24-0.154 0.365-0.355 0.625-0.5-0.94-0.816-1.553-1.717-1.781-2.688zm26.656 0c-0.229 0.97-0.842 1.873-1.781 2.688 0.274 0.153 0.404 0.368 0.656 0.531 0.757-0.807 1.312-1.673 1.312-2.625 0-0.207-0.141-0.393-0.187-0.594zm2.187 8.438c-0.613 4.04-7.298 7.25-15.531 7.25-8.212 0-14.86-3.193-15.5-7.219-0.0321 0.197-0.1248 0.392-0.1248 0.594 0.0001 4.318 6.9888 7.844 15.625 7.843 8.636 0 15.656-3.525 15.657-7.843 0-0.213-0.09-0.418-0.126-0.625z" fill-rule="evenodd" fill="url(#linearGradient4272)"/>
    <path id="path4224" style="color:#000000" d="m8.5737 25.594a1.37 1.0165 0 1 1 -2.7401 0 1.37 1.0165 0 1 1 2.7401 0z" fill-opacity=".45763" fill-rule="evenodd" transform="translate(.088388 .17678)" fill="#fff"/>
    <path id="path4226" style="color:#000000" d="m8.5737 25.594a1.37 1.0165 0 1 1 -2.7401 0 1.37 1.0165 0 1 1 2.7401 0z" fill-opacity=".45763" fill-rule="evenodd" transform="translate(33.967 .088388)" fill="#fff"/>
    <path id="path4252" stroke-linejoin="round" d="m11.643 8.4157c-0.602 0-0.993 0.2794-1.234 0.8123l-6.415 16.591s-0.2406 0.646-0.2406 1.715v9.29c0 1.354 0.444 1.627 1.5944 1.627h37.687c1.323 0 1.534-0.317 1.534-1.838v-9.29s0.102-0.742-0.09-1.264l-6.593-16.806c-0.178-0.4924-0.551-0.8258-1.021-0.8373h-25.222z" stroke="url(#linearGradient4260)" stroke-linecap="round" fill="none"/>
    <path id="path4282" d="m40.5 31.429v5.021" stroke-opacity=".42373" stroke="#fff" stroke-linecap="square" stroke-width="1px" fill="none"/>
    <path id="path4284" d="m38.5 31.489v5.021" stroke-opacity=".42373" stroke="#fff" stroke-linecap="square" stroke-width="1px" fill="none"/>
    <path id="path4286" d="m36.5 31.489v5.021" stroke-opacity=".42373" stroke="#fff" stroke-linecap="square" stroke-width="1px" fill="none"/>
    <path id="path4288" d="m34.5 31.489v5.021" stroke-opacity=".42373" stroke="#fff" stroke-linecap="square" stroke-width="1px" fill="none"/>
    <path id="path4290" d="m32.5 31.489v5.021" stroke-opacity=".42373" stroke="#fff" stroke-linecap="square" stroke-width="1px" fill="none"/>
    <path id="path4292" d="m30.5 31.489v5.021" stroke-opacity=".42373" stroke="#fff" stroke-linecap="square" stroke-width="1px" fill="none"/>
    <path id="path4294" opacity=".097143" d="m39.5 31.479v5.021" stroke="#000" stroke-linecap="square" stroke-width="1px" fill="none"/>
    <path id="path4296" opacity=".097143" d="m37.5 31.539v5.021" stroke="#000" stroke-linecap="square" stroke-width="1px" fill="none"/>
    <path id="path4298" opacity=".097143" d="m35.5 31.539v5.021" stroke="#000" stroke-linecap="square" stroke-width="1px" fill="none"/>
    <path id="path4300" opacity=".097143" d="m33.5 31.539v5.021" stroke="#000" stroke-linecap="square" stroke-width="1px" fill="none"/>
    <path id="path4302" opacity=".097143" d="m31.5 31.539v5.021" stroke="#000" stroke-linecap="square" stroke-width="1px" fill="none"/>
    <path id="path4572" opacity=".44" fill-rule="evenodd" fill="#fff" d="m7.875 31.188v5.531h12.563l-12.219-0.344-0.344-5.187z"/>
    <path id="path2545" opacity=".20571" style="color:#000000" d="m39.875 19.562a14.875 6.6875 0 1 1 -29.75 0 14.875 6.6875 0 1 1 29.75 0z" fill-rule="evenodd" transform="matrix(1.0378 0 0 1.0607 -1.6329 -2.0946)" fill="url(#linearGradient2553)"/>
  </g>
  <metadata>
    <rdf:RDF>
      <cc:Work>
        <dc:format>image/svg+xml</dc:format>
        <dc:type rdf:resource="http://purl.org/dc/dcmitype/StillImage"/>
        <cc:license rdf:resource="http://creativecommons.org/licenses/publicdomain/"/>
        <dc:publisher>
          <cc:Agent rdf:about="http://openclipart.org/">
            <dc:title>Openclipart</dc:title>
          </cc:Agent>
        </dc:publisher>
        <dc:title>tango drive hard disk</dc:title>
        <dc:date>2010-03-27T10:12:39</dc:date>
        <dc:description>"Hard disk" icon from &lt;a href="http://tango.freedesktop.org/Tango_Desktop_Project"&gt; Tango Project &lt;/a&gt; &#xD;\n&lt;br&gt;&lt;br&gt;&#xD;\nSince version 0.8.90 Tango Project icons are Public Domain: &lt;a href="http://tango.freedesktop.org/Frequently_Asked_Questions#Terms_of_Use.3F"&gt; Tango Project FAQ &lt;/a&gt;</dc:description>
        <dc:source>http://openclipart.org/detail/34537/tango-drive-hard-disk-by-warszawianka</dc:source>
        <dc:creator>
          <cc:Agent>
            <dc:title>warszawianka</dc:title>
          </cc:Agent>
        </dc:creator>
        <dc:subject>
          <rdf:Bag>
            <rdf:li>clip art</rdf:li>
            <rdf:li>clipart</rdf:li>
            <rdf:li>device</rdf:li>
            <rdf:li>drive</rdf:li>
            <rdf:li>externalsource</rdf:li>
            <rdf:li>hard disk</rdf:li>
            <rdf:li>hardware</rdf:li>
            <rdf:li>icon</rdf:li>
            <rdf:li>storage</rdf:li>
            <rdf:li>tango</rdf:li>
          </rdf:Bag>
        </dc:subject>
      </cc:Work>
      <cc:License rdf:about="http://creativecommons.org/licenses/publicdomain/">
        <cc:permits rdf:resource="http://creativecommons.org/ns#Reproduction"/>
        <cc:permits rdf:resource="http://creativecommons.org/ns#Distribution"/>
        <cc:permits rdf:resource="http://creativecommons.org/ns#DerivativeWorks"/>
      </cc:License>
    </rdf:RDF>
  </metadata>
</svg>
