<?xml version="1.0"?>
<svg xmlns:rdf="http://www.w3.org/1999/02/22-rdf-syntax-ns#" xmlns="http://www.w3.org/2000/svg" xmlns:cc="http://creativecommons.org/ns#" xmlns:dc="http://purl.org/dc/elements/1.1/" xmlns:svg="http://www.w3.org/2000/svg" id="svg2" viewBox="0 0 128 128" version="1.1">
  <g id="layer1" transform="translate(0 -924.36)">
    <path id="path2832" d="m67.178 1046.3c0-0.8812 1.6021-1.2513 2.0786-0.4803 0.28839 0.4666-0.06127 0.8484-0.77711 0.8484-0.7158 0-1.3015-0.1656-1.3015-0.3681zm-9.1828-1.7681c0-0.7159 0.37566-1.0693 0.8348-0.7856 0.45914 0.2838 0.8348 0.8695 0.8348 1.3015 0 0.4321-0.37566 0.7855-0.8348 0.7855s-0.8348-0.5857-0.8348-1.3014zm5.8436 0.5559c0-0.8029 2.0302-1.7755 3.6162-1.7323 0.53636 0.015 0.24601 0.5781-0.64523 1.2522-1.8395 1.3913-2.9709 1.5742-2.9709 0.4801zm11.687-1.6321c0-0.3894 1.4915-1.3806 3.3144-2.2026 1.8229-0.8221 3.9473-2.1939 4.7208-3.0486 1.7011-1.8797 2.5389-1.9792 2.5389-0.3018 0 0.6887-0.48204 1.2522-1.0712 1.2522s-2.7411 1.127-4.782 2.5044c-3.9129 2.6408-4.7209 2.9483-4.7209 1.7964zm4.174-0.1268c0-0.4591 0.58566-0.8348 1.3015-0.8348 0.7158 0 1.0693 0.3757 0.78553 0.8348-0.28376 0.4592-0.86942 0.8348-1.3015 0.8348-0.43204 0-0.78553-0.3756-0.78553-0.8348zm6.315 0.087c-0.25403-0.4111 0.09946-0.9628 0.78553-1.226 0.75771-0.2907 1.2474 0 1.2474 0.7473 0 1.3502-1.3045 1.6574-2.0329 0.4787zm-26.66-0.7478c-0.22446-0.3632 0.88035-0.5099 2.4551-0.3261s2.8632 0.481 2.8632 0.6603c0 0.6283-4.9144 0.3194-5.3184-0.3342zm12.365-0.6184c0.89124-0.6741 1.9657-1.2257 2.3878-1.2257 1.0574 0 8.9311-5.1575 8.9311-5.8501 0-0.3082 0.93914-0.9882 2.087-1.5112 1.1478-0.5229 2.087-0.7739 2.087-0.5577 0 0.7132-3.6266 4.5798-4.2955 4.5798-0.36039 0-2.4137 1.1152-4.5629 2.4782s-4.2024 2.296-4.5627 2.0734c-0.36025-0.2226-0.89096-0.023-1.1794 0.4436-0.28839 0.4667-0.97175 0.8365-1.5186 0.8219-0.54682-0.014-0.26502-0.5781 0.62622-1.2522zm-15.603-0.1315c-0.80349-0.21-1.4609-0.6947-1.4609-1.0772s0.75132-0.499 1.6696-0.2589c0.91828 0.2402 1.6696 0.7685 1.6696 1.1741s-0.09392 0.6938-0.2087 0.6406c-0.11478-0.053-0.8661-0.2687-1.6696-0.4786zm10.226-0.2594c0-0.4591 0.37566-0.8348 0.8348-0.8348s0.8348 0.3757 0.8348 0.8348c0 0.4592-0.37566 0.8348-0.8348 0.8348s-0.8348-0.3756-0.8348-0.8348zm23.374 0.023c0-1.1317 1.4835-1.8343 2.0245-0.9589 0.25865 0.4185-0.09104 0.9763-0.77711 1.2396-0.68608 0.2633-1.2474 0.1369-1.2474-0.2807zm-21.121-1.142c-0.27459-0.7156-1.4354-1.0143-3.2198-0.8285-2.0711 0.2156-2.3715 0.1098-1.1655-0.4103 1.558-0.672 1.5494-0.7206-0.2087-1.1804-1.2412-0.3246-1.8336-0.1032-1.8336 0.6852 0 1.6333-4.0653 1.1713-4.6031-0.5232-0.46265-1.4577-8.7536-6.1006-8.7536-4.902 0 0.402 1.4771 1.4847 3.2825 2.4057 3.3 1.6835 5.0477 3.3681 3.4944 3.3681-0.45914 0-1.067-0.3757-1.3507-0.8348-0.28376-0.4592-1.1742-0.8348-1.9788-0.8348s-2.1915-0.6574-3.0819-1.4609c-0.89044-0.8035-3.0274-2.5131-4.7488-3.7991s-3.1298-2.7336-3.1298-3.217c0-0.4833 1.3543 0.3103 3.0094 1.7636 1.6552 1.4532 3.2512 2.4007 3.5466 2.1052 0.29542-0.2954-0.21361-1.0527-1.1312-1.6827-2.3544-1.6166-4.6017-3.8956-5.5273-5.605-1.36-2.5116 0.73586-1.6666 2.7906 1.1251 1.0468 1.4223 3.5937 3.5531 5.6599 4.7351 2.0661 1.1821 4.2641 2.5376 4.8843 3.0124 0.62024 0.4746 1.6309 0.937 2.246 1.0272 0.61504 0.09 2.627 0.3752 4.4711 0.6331 3.3129 0.4634 6.6797 1.9247 7.7143 3.3482 0.75596 1.0402 2.5339-0.2406 1.8563-1.3371-0.3347-0.5415-0.17134-0.6659 0.40604-0.309 0.68988 0.4263 0.71836 1.0597 0.09961 2.2159-1.0091 1.8856-2.1183 2.0889-2.728 0.5zm-8.1214-3.0877c-1.9651-1.2426-2.9612-0.9205-1.1802 0.3818 0.89052 0.6512 1.7967 1.0064 2.0137 0.7895 0.21699-0.2171-0.15808-0.7441-0.83348-1.1713zm-8.7764 2.4801c-0.30311-0.4904-1.0961-0.6825-1.7622-0.4269-0.66611 0.2556-0.99832 0.1204-0.73824-0.3004s-0.32098-1.0171-1.2912-1.325c-1.6899-0.5364-4.9385-3.2721-4.9385-4.1588 0-0.5191 3.2942 1.3135 4.7492 2.642 0.58147 0.5309 2.1925 1.4679 3.5802 2.082 1.3876 0.6143 2.5229 1.4008 2.5229 1.7478 0 0.9439-1.4909 0.7607-2.1222-0.2607zm22.141-1.1761c0.86081-1.0372 0.83643-1.2713-0.13236-1.2713-0.65309 0-1.6291-0.4417-2.1689-0.9815-0.75208-0.7521-0.39618-1.3373 1.5228-2.5044 2.8719-1.7465 3.2987-1.8375 3.2987-0.704 0 0.4504-0.93914 1.0546-2.087 1.3427-1.1478 0.2881-2.087 0.8587-2.087 1.2681 0 1.4247 2.0108 0.7298 4.337-1.4989 1.2878-1.2337 2.3414-1.8285 2.3414-1.3218s-1.0331 1.6921-2.2957 2.6341c-1.2626 0.9421-1.9058 1.7247-1.4294 1.7392 0.47648 0.014 2.1669-1.1262 3.7566-2.5351 1.5896-1.4089 2.4466-2.3418 1.9044-2.0734-1.236 0.6121-2.2719-0.9025-1.1089-1.6212 1.3697-0.8466 3.3005-5.0822 3.8271-8.3955 0.36593-2.3025 0.23124-2.9013-0.54474-2.4217-0.78221 0.4834-0.90098-0.1494-0.49237-2.6232 0.29618-1.7932 0.54263-4.1055 0.54768-5.1386 0.005-1.0331 0.41016-1.8783 0.90024-1.8783 0.51115 0 0.66512 0.7118 0.36114 1.6696-0.33016 1.0402-0.15001 1.6696 0.47793 1.6696 1.242 0 0.50604-8.9501-0.84728-10.304-0.48556-0.4855-0.88284-1.682-0.88284-2.6589 0-1.8224-2.9176-9.5837-6.1107-16.255-2.3342-4.8772-7.3497-9.9955-10.323-10.535-5.9485-1.0787-12.125 2.8611-14.925 9.5197-1.7654 4.1989-1.6012 14.226 0.28223 17.235 0.30749 0.4913 0.62514 1.3277 0.7059 1.8586 0.08073 0.531 1.4061 2.6664 2.9453 4.7454 2.4072 3.2516 3.1485 3.7371 5.3028 3.4737 1.3774-0.1686 2.9137-0.3318 3.4139-0.3627 0.92115-0.057 2.8471-3.5697 2.8471-5.1927 0-0.4861-1.1166 0.3114-2.4813 1.7724-2.4289 2.6001-4.5864 2.8454-3.6539 0.4154 0.2623-0.6835-0.0017-1.2255-0.59682-1.2255-0.5869 0-1.7541-0.6216-2.5937-1.3816-0.90099-0.8153-1.5266-0.9893-1.5266-0.4245 0 0.5265 0.75132 1.4264 1.6696 1.9999 0.91828 0.5734 1.6696 1.3493 1.6696 1.7239 0 0.3748-0.78839 0.1292-1.752-0.5458-2.0793-1.4564-4.2786-5.4026-3.6121-6.4812 0.73509-1.1894 2.0083 0.01 1.4781 1.389-0.32017 0.8343-0.08098 1.0841 0.73752 0.77 0.66626-0.2556 1.6932 0.1158 2.2821 0.8254 1.5452 1.8618 6.6173 1.73 6.5691-0.1708-0.02037-0.8035 0.32196-3.2014 0.76071-5.3287 1.1265-5.462-1.8168-13.171-5.0519-13.233-0.37145-0.007-0.44319 0.36288-0.15943 0.82202s0.12254 0.8348-0.35827 0.8348-1.1145 1.5026-1.4082 3.3392c-0.29368 1.8366-0.88377 3.3392-1.3113 3.3392-0.42755 0-0.56124-0.34972-0.29709-0.77713 0.26416-0.42741 0.09237-1.0169-0.38174-1.3099-0.47411-0.29302-0.58472-0.97637-0.24579-1.5186 0.93628-1.4978 1.0244-3.0728 0.17193-3.0728-0.41852 0-0.76093 0.75131-0.76093 1.6696 0 0.91827-0.40551 1.6696-0.90113 1.6696-1.0672 0-0.13597-5.2725 1.0079-5.7062 0.40616-0.15401 0.57066-0.55153 0.36555-0.8834-0.2051-0.33187 0.46792-1.6579 1.4956-2.9468 2.1753-2.728 5.9273-3.46 8.6464-1.6869 2.9242 1.9069 4.0552 1.4046 1.9303-0.85723-1.5885-1.6909-2.4804-1.98-4.9456-1.6033-3.8611 0.59006-6.5698 2.352-8.305 5.4021-0.75953 1.3351-1.7087 2.4299-2.1093 2.4328-0.40057 0.003-0.30991-0.49886 0.20146-1.115 0.51137-0.61616 0.73527-1.3148 0.49756-1.5525-0.57879-0.57879 6.0135-6.4911 7.3362-6.5795 0.5726-0.0382 1.9505-0.16805 3.062-0.2884 1.8798-0.20355 3.257 0.74005 8.7112 5.9686 1.3781 1.3211 4.3185 7.046 5.8615 11.412 0.47317 1.3389 0.36473 1.4185-0.71331 0.52389-0.69922-0.5803-1.2713-1.6208-1.2713-2.3122 0-1.6011-4.905-10.226-5.8155-10.226-1.4712 0-1.5205 2.356-0.05735 2.7386 1.5598 0.40792 4.7279 6.4878 6.294 12.079 0.28937 1.033 0.86467 1.8783 1.2785 1.8783 0.41378 0 0.53611-0.5635 0.27183-1.2522s-0.10538-1.2522 0.3531-1.2522c0.76099 0 1.8136 2.704 2.2747 5.8435 0.10115 0.6888 0.47729 2.3413 0.83586 3.6724 0.46729 1.7348 0.38165 2.2532-0.3024 1.8305-0.52489-0.3244-1.1925-2.0793-1.4836-3.8997-0.29108-1.8203-0.83283-3.4974-1.2039-3.7267-1.1898-0.7353-0.49257 3.2846 1.0605 6.1142 1.8308 3.3356 1.9288 6.5552 0.25084 8.2332-0.68871 0.6887-1.2522 1.9415-1.2522 2.784 0 1.1207-0.44796 1.4146-1.6696 1.0951-1.1969-0.3129-1.6696-0.026-1.6696 1.0152 0 1.2565 0.18674 1.2976 1.388 0.3061 1.1904-0.9827 1.3261-0.9675 0.95365 0.1065-0.23887 0.6887-1.0891 1.1936-1.8894 1.1222-0.80695-0.072-2.053 0.9119-2.7975 2.2091-1.5589 2.7163-5.3915 4.1393-10.125 3.759-7.1027-0.5705-16.173-9.9781-17.3-17.943-0.25321-1.7899-0.1691-1.8781 0.59094-0.6195 0.48739 0.8072 0.65583 1.8402 0.37432 2.2957-0.28152 0.4556-0.20794 0.8286 0.16351 0.829 0.37145 0.0005 1.7155 1.8529 2.9868 4.1163 3.5678 6.3524 7.8102 9.2734 14.013 9.6486 4.9123 0.2971 5.2136 0.1977 7.9559-2.6261 1.5676-1.6142 2.8502-3.6833 2.8502-4.5978 0-1.2657-0.65637-0.8001-2.7485 1.95-2.284 3.0021-3.2935 3.6578-5.9727 3.8796-1.7733 0.1467-4.0983 0.048-5.1667-0.2208-2.4708-0.6201-7.416-4.942-10.464-9.1453-2.9183-4.0241-3.1181-5.9748-0.27313-2.6668 1.1473 1.3341 2.086 2.6956 2.086 3.0256 0 1.1261 5.5528 6.666 6.1165 6.1023 0.30904-0.309 0.5619-0.1406 0.5619 0.3742 0 1.3574 5.6223 2.2347 6.9991 1.092 0.62548-0.5191 1.81-0.6857 2.6322-0.3702 1.0264 0.3939 1.3058 0.2676 0.89134-0.403-0.71461-1.1562-3.5843-1.3087-3.9834-0.2116-0.37557 1.0325-6.4433-1.1288-8.1228-2.8933-1.2472-1.3103-1.1962-1.3306 0.7488-0.2987 3.3101 1.7562 6.6659 1.8621 8.4294 0.2663 1.0127-0.9165 1.5881-1.0701 1.5881-0.4239 0 0.5574 0.37566 0.7813 0.8348 0.4976 0.45914-0.2838 0.8348-0.8916 0.8348-1.3507 0-0.4592-0.37566-0.6027-0.8348-0.3189-0.89873 0.5555-1.1648-0.6439-0.32844-1.4803 1.0996-1.0996 2.665 1.4614 1.8415 3.0126-1.411 2.6579-0.0778 2.4612 1.5074-0.2224 0.83244-1.4091 1.996-2.5621 2.5857-2.5621 0.58971 0 1.0722-0.3757 1.0722-0.8348s0.40097-0.8348 0.89105-0.8348c0.51115 0 0.66512 0.7118 0.36114 1.6696-0.29145 0.9183-0.15879 1.6696 0.29482 1.6696 1.0944 0 2.1881-4.6952 1.9445-8.348-0.25806-3.8706-0.79401-5.2267-1.8161-4.595-0.50023 0.3092-0.83727-0.5991-0.83224-2.2428 0.0106-3.4699-3.0458-12.295-5.1772-14.949l-1.6101-2.0047 1.3365 2.9218c0.73507 1.607 1.6491 3.4976 2.0311 4.2014 0.80506 1.4831 1.4719 4.6448 2.1299 10.099 0.39605 3.2827 0.23417 3.9261-1.074 4.2682-1.564 0.4089-1.8672 1.41-1.8985 6.2667-0.0096 1.4922-0.39337 2.7131-0.85285 2.7131-0.45949 0-0.56738-0.4337-0.23978-0.9638 0.3871-0.6263 0.22689-0.7359-0.45757-0.3129-0.80115 0.4952-0.88197 0.1764-0.33768-1.3319 0.89471-2.4793 0.61303-14.106-0.36544-15.085-0.40955-0.4096-0.56939 0.3327-0.36765 1.7072 0.1963 1.3374 0.01344 2.644-0.40634 2.9035-0.41979 0.2594-0.76762-0.5414-0.77295-1.7795-0.005-1.2381-0.27849-3.6598-0.607-5.3816-0.68035-3.5656-0.03431-4.1529 1.1479-1.0435 0.43641 1.1478 1.3663 2.087 2.0663 2.087 0.96886 0 1.2729 0.9851 1.2729 4.1247 0 2.2686 0.38957 4.3655 0.86572 4.6598 0.79938 0.494 0.58312-4.4874-0.40235-9.2675-0.47775-2.3175-2.8938-7.027-5.2054-10.147-1.5584-2.1032-1.6862-2.5787-0.57899-2.1538 0.87908 0.33733 1.2166 0.21464 0.88511-0.32174-0.77767-1.2583-7.0941-2.0929-8.756-1.1569-1.1164 0.6287-0.84205 0.78244 1.2931 0.72474 3.1442-0.085 6.5848 3.0212 9.3497 8.441 1.8786 3.6824 2.0259 4.2616 1.0833 4.2616-0.34706 0-1.1467-1.165-1.7769-2.5888-0.85381-1.9289-1.3281-2.3013-1.8606-1.4609-0.58252 0.91926-0.73536 0.89626-0.82635-0.12435-0.06136-0.6887-0.05902-1.5584 0.005-1.9327 0.06436-0.37425-0.67489-1.7926-1.6427-3.1518-1.4214-1.9961-2.2973-2.4351-4.5556-2.283-1.5377 0.10355-2.5999 0.50526-2.3605 0.89266 0.23944 0.38741-0.0187 1.2514-0.57355 1.92-1.2731 1.534-0.77105 1.5324 2.1961-0.007 2.1207-1.1002 2.486-1.0793 3.6493 0.2087 2.2981 2.5445 3.5639 6.3244 3.9041 11.658 0.23803 3.7321 0.04266 5.2175-0.68616 5.2175-0.77177 0-0.78452 0.2344-0.05251 0.9663 0.73197 0.732 1.2542 0.7275 2.1531-0.018 0.96053-0.7972 1.2579-0.6124 1.5603 0.9693 0.20546 1.0748 0.08942 2.6797-0.25787 3.5664-0.55466 1.4162-0.64253 1.3584-0.72278-0.4748-0.08981-2.0518-0.11099-2.0447-1.2557 0.4174-0.6404 1.3774-1.5006 2.9861-1.9116 3.575-0.85218 1.2208-8.5388 2.3994-8.5592 1.3123-0.02471-1.3196-4.7532-6.1027-5.4291-5.4918-0.36785 0.3325-0.43999 0.2019-0.16031-0.2901 0.27968-0.4921-0.06945-1.9948-0.77588-3.3392-1.6776-3.193-2.0266-4.776-2.3727-10.764-0.53945-9.3312 4.6736-17.574 12.346-19.521 2.8916-0.73397 4.0501-0.61061 7.1525 0.76173 2.0361 0.90066 3.8944 1.4452 4.1295 1.21 0.23514-0.23511 0.271-0.52141 0.07972-0.63619-3.9949-2.3969-6.2797-3.1305-9.7506-3.1305-3.6513 0-4.5906 0.3999-8.0105 3.4101-2.6383 2.3223-3.8741 2.9908-3.8741 2.0955 0-0.72303 2.0648-2.6856 4.5884-4.3611 4.3244-2.8712 4.8769-3.0204 9.6028-2.5918 4.0408 0.3664 5.1587 0.19691 5.7574-0.87298 0.67272-1.2021 0.9557-1.1883 2.9915 0.14562 1.2367 0.81031 2.4514 1.2704 2.6993 1.0225 0.63757-0.63756 5.2479 1.8602 5.2479 2.8432 0 1.1753-1.4679 1.001-1.8758-0.22268-0.25485-0.76454-0.692-0.68939-1.6681 0.28675-1.2072 1.2072-1.0076 1.6613 2.2842 5.1959 2.8117 3.0192 4.0845 5.4051 5.7726 10.821 1.191 3.8216 2.1655 7.3967 2.1655 7.9446 0 0.548 0.31305 0.9964 0.69566 0.9964 0.97017 0 0.91775-2.7046-0.07689-3.9653-0.45278-0.57394-0.60275-1.0435-0.33328-1.0435s-0.23467-1.6905-1.1203-3.7566c-1.5144-3.533-1.4638-4.1462 0.31536-3.8199 0.70499 0.12932 0.53611-0.95356-0.7062-4.5281-0.57207-1.646-0.56162-1.6467 0.74008-0.0492 1.4935 1.833 1.7308 4.2883 0.48861 5.056-0.52881 0.32682-0.40866 1.3329 0.32989 2.7624 1.5816 3.0612 3.0316 8.6656 3.1658 12.237 0.06102 1.6228 0.45104 2.9508 0.86672 2.9508 0.8822 0 0.05276-7.6158-1.1745-10.784-0.45916-1.1853-0.95697-2.7186-1.1062-3.4074-0.14927-0.68871-0.53176-1.9096-0.84998-2.7131-0.33444-0.84446-0.1997-1.4609 0.31934-1.4609 0.49385 0 0.6912-0.6574 0.43856-1.4609-1.0001-3.1807 2.4107 1.9452 5.1299 7.7096 3.81 8.0767 2.6673 8.6706-1.2857 0.66817-3.559-7.2047-4.4222-7.7589-1.3837-0.88836 1.0718 2.4235 1.9867 4.5943 2.0331 4.8238 0.04641 0.2296 0.28026 0.9809 0.51969 1.6696 0.23944 0.6887 0.82399 2.567 1.299 4.174 0.65243 2.2073 0.79068 2.3554 0.56529 0.6062-0.1641-1.2736-0.000768-2.4994 0.36295-2.7242 0.99894-0.61745 2.7107 8.4724 2.796 14.847 0.0414 3.0983 0.3571 5.634 0.70146 5.6349 0.34435 0.0008 0.6261 0.3847 0.6261 0.8527 0 0.4682-0.93915 0.6809-2.087 0.4727-1.681-0.3048-2.087-0.039-2.087 1.3658 0 0.9594-0.95826 3.0006-2.1295 4.5361s-1.8286 2.7862-1.4609 2.7791c1.1632-0.023 2.4406-1.187 3.0193-2.7532 0.31899-0.8633 0.97029-1.2598 1.5158-0.9227 0.88233 0.5454-6.0188 7.8745-10.545 11.199-1.622 1.1913-1.6279 1.1772-0.2087-0.4947 1.8354-2.1621 1.8602-2.9425 0.07179-2.2562-1.5253 0.5854-1.078-0.6135 1.2327-3.3037 0.69258-0.8062 1.0072-1.718 0.6992-2.026-0.30802-0.308-1.1432 0.1639-1.8561 1.0487-1.4444 1.7928-1.3496 1.4004 0.81052-3.3546 1.8491-4.0704 2.3475-5.964 2.4835-9.437 0.05844-1.4922 0.44032-2.7131 0.84863-2.7131 1.0746 0-0.01544 7.8322-1.4857 10.675-1.1306 2.1863-1.1149 2.5543 0.16405 3.8525 1.329 1.3489 1.3262 1.5004-0.04683 2.5197-1.7918 1.3302-1.8715 2.1527-0.2087 2.1527 0.68871 0 1.2522-0.5322 1.2522-1.1827 0-0.6504 0.46957-1.4018 1.0435-1.6696 0.82768-0.3862 0.82942-0.5871 0.0084-0.9711-0.73933-0.3458-0.4367-1.2686 1.0592-3.2299 1.3278-1.7408 1.9069-3.3205 1.5824-4.3159-0.42213-1.2949-0.35394-1.3506 0.38888-0.318 0.77863 1.0824 0.9025 1.0541 0.91354-0.2087 0.0067-0.8034-0.36287-1.4608-0.82201-1.4608s-0.8348-0.3406-0.8348-0.7567 0.6574-0.6579 1.4609-0.5372c0.80349 0.1206 0.97729 0.055 0.38622-0.1454-1.5181-0.5153-1.1285-11.918 0.40719-11.918 0.59669 0 1.0849-0.5948 1.0849-1.3218 0-0.7269-0.46957-1.1594-1.0435-0.961-0.5777 0.1997-1.5057-0.7941-2.079-2.2262-1.011-2.5255-1.0251-2.4978-0.59578 1.1698 0.42649 3.6434 0.40181 3.6937-0.81888 1.6696-1.2165-2.0172-1.2482-1.9474-0.94774 2.087 0.43753 5.8748 0.60562 6.232 1.3751 2.9218 0.41993-1.8065 0.52307 0.4242 0.27019 5.8436-0.34212 7.3319-0.6834 9.0383-2.087 10.435l-1.678 1.6696 0.96128-2.5044c1.6121-4.2001 2.3523-11.367 1.2188-11.802-0.54546-0.2092-1.0621-2.1473-1.1482-4.3068-0.08603-2.1594-0.28495-4.4897-0.44203-5.1784s-0.56825-2.473-0.91373-3.9653c-0.34547-1.4921-0.93729-2.713-1.3152-2.713-0.37786 0-0.3034 1.1006 0.16548 2.4454 0.46888 1.345 0.72521 3.5051 0.56964 4.8001-0.20827 1.7337-0.6637 0.736-1.727-3.7835-0.79426-3.3758-1.2358-6.475-0.98119-6.887 0.2546-0.412 0.06511-0.749-0.42115-0.749-0.48624 0-0.88406-1.2927-0.88406-2.8726s-0.33404-3.079-0.74232-3.3313c-0.40827-0.25233-0.99712-1.474-1.3085-2.7148-0.73449-2.9264-8.0353-12.094-10.817-13.583-3.0805-1.6486-3.6107-0.49736-0.59216 1.2857 1.3842 0.81768 2.3272 1.7934 2.0955 2.1683-0.2317 0.37489 0.16439 0.68162 0.88019 0.68162s1.3047 0.28175 1.3087 0.6261c0.0042 0.34435 1.2249 1.9485 2.7131 3.5647s2.8523 3.4945 3.0314 4.174c0.17904 0.67946 0.95585 3.5068 1.7262 6.2829 0.77041 2.7761 1.2615 5.4652 1.0913 5.9758-0.17018 0.5105 0.08606 1.1727 0.56943 1.4714 0.48338 0.2987 0.87886 0.9427 0.87886 1.431 0 0.5598-0.46257 0.5039-1.2522-0.15155-0.68871-0.5715-1.2522-1.6259-1.2522-2.343s-0.80976-3.019-1.7995-5.1153c-0.98971-2.0963-2.1244-4.5628-2.5214-5.481-0.67512-1.5612-0.65314-1.5701 0.33857-0.13639 2.9831 4.3126 3.1041 4.4209 2.4841 2.2234-0.32383-1.1478-1.0515-2.8383-1.617-3.7566-0.84585-1.3735-1.1653-1.4609-1.8011-0.4931-0.93184 1.4185-0.18184 3.8949 3.3695 11.125 0.39158 0.7973 0.71196 2.098 0.71196 2.8905 0 0.7924 0.94097 2.2062 2.091 3.1418 1.4845 1.2075 2.2439 2.8511 2.6179 5.6662 0.32565 2.4511 0.20624 3.9653-0.31271 3.9653-0.46174 0-0.83697-0.6574-0.83384-1.4609 0.01695-4.3468-0.35434-6.0642-1.5748-7.2846-0.74336-0.7434-1.5777-1.1254-1.8541-0.849-0.27639 0.2764 0.01853 0.8246 0.65534 1.2181 1.5592 0.9636 1.7998 12.233 0.25466 11.924-0.57392-0.1148-1.0435 0.1669-1.0435 0.6261 0 0.4591 0.37566 0.8348 0.8348 0.8348s0.8348 0.7874 0.8348 1.7498c0 2.3703-2.4955 10.927-3.5813 12.28-0.48144 0.5998-0.53 0.9755-0.10792 0.8348 0.76032-0.2535 1.1848 0.3519 1.1848 1.6896 0 0.8189-6.4004 5.4546-8.6747 6.283-1.3398 0.488-1.4192 0.3826-0.52388-0.6961zm25.759-21.098c-0.13219-0.8035 0.0347-1.8989 0.37089-2.4344 0.33618-0.5353 0.25687-1.9055-0.17623-3.0446-0.43311-1.1392-0.56102-2.2976-0.28424-2.5745 0.27677-0.2767 0.065-0.5032-0.4707-0.5032-1.1962 0-1.2975 3.0407-0.12552 3.765 0.46663 0.2884 0.62851 0.8802 0.35971 1.3151-0.26878 0.4349-0.88713 0.5444-1.3741 0.2435-0.53232-0.329-0.67598-0.085-0.36026 0.6125 0.28884 0.6379 0.75705 1.8171 1.0405 2.6206 0.28341 0.8035 0.68292 1.4609 0.88781 1.4609 0.20488 0 0.26436-0.6574 0.13218-1.4609zm-19.472-34.87c0.5063-0.46579 0.22472-0.54278-0.72875-0.19923-1.1537 0.41569-1.4319 0.24203-1.0802-0.67431 0.2771-0.72213-0.59239-2.3002-2.0957-3.8035-3.2403-3.2403-4.0211-2.6502-1.3215 0.99865 1.1263 1.5224 2.3114 3.5087 2.6336 4.4141 0.32818 0.92228 0.84561 1.2894 1.1767 0.83479 0.32499-0.44627 0.96218-1.153 1.416-1.5705zm-1.5618-10.511c0.21912 0 0.18802-0.34038-0.06912-0.75642-0.25712-0.41604-1.176-0.57113-2.042-0.34467s-1.8269 0.003-2.1354-0.49577c-0.30849-0.49914-1.0083-0.89917-1.5551-0.88896-0.54682 0.0102-0.0551 0.75486 1.0928 1.6548 1.1478 0.89992 2.5873 1.455 3.1988 1.2336 0.61147-0.22142 1.291-0.40259 1.5102-0.40259zm-11.804 64.28c-0.28376-0.4591 0.25755-0.8347 1.2029-0.8347 0.94537 0 1.7189 0.3756 1.7189 0.8347 0 0.4592-0.54132 0.8348-1.2029 0.8348-0.66161 0-1.4351-0.3756-1.7189-0.8348zm26.28-0.3982c0.5803-0.6993 1.5726-1.2713 2.2051-1.2713 0.63248 0 1.0561-0.3348 0.94128-0.744-0.21721-0.7743 3.3694-4.2648 4.3822-4.2648 1.0309 0-5.3751 6.3779-7.0046 6.9739-1.3399 0.49-1.4192 0.385-0.52388-0.6938zm-30.487-1.3239c-0.77184-1.2488-0.51962-1.3519 4.4151-1.8046 4.7358-0.4345 5.4604-0.1681 2.5044 0.9208-3.9133 1.4415-6.3801 1.7566-6.9195 0.8838zm-5.185-0.8083c-1.0331-0.4152-1.8783-0.9549-1.8783-1.1993 0-0.9169 3.0811-0.3981 4.6405 0.7814 1.8912 1.4304 0.3405 1.6651-2.7622 0.4179zm-5.2251-2.9049c-1.1265-1.3573-0.24303-1.6408 1.5576-0.4998 0.688 0.4359 0.80706 0.9189 0.30329 1.2302-0.45613 0.2819-1.2936-0.047-1.8609-0.7304zm5.4255 0.06c-1.3729-0.5787-3.7469-2.1063-5.2757-3.3948-1.6704-1.4077-2.7136-1.8742-2.6142-1.1689 0.09097 0.6455 0.12089 1.8771 0.06645 2.7367-0.08315 1.3139-0.30488 1.3922-1.3906 0.4912-0.96359-0.7998-1.0368-1.2296-0.2884-1.6922 0.70268-0.4342 0.30277-1.2693-1.3346-2.7868-1.2858-1.1916-2.0679-2.1666-1.738-2.1666 0.32994 0-0.21282-1.0331-1.2061-2.2957-1.5183-1.93-4.1587-7.1625-4.1587-8.2412 0-0.1735 0.3685-0.3154 0.81889-0.3154s1.0613 0.966 1.3577 2.1466c0.29633 1.1807 1.8602 4.092 3.4752 6.4697 3.635 5.3513 3.4286 5.121 4.0397 4.5099 0.27982-0.2798-0.69701-2.2954-2.1708-4.4791-3.4056-5.0462-5.9268-11.152-4.605-11.152 0.37205 0 2.3863 4.3641 2.8897 6.2609 0.12186 0.4592 0.93158 1.832 1.7994 3.0507 0.8678 1.2187 1.5778 2.4664 1.5778 2.7727 0 1.053 2.4923 3.048 3.2347 2.5892 0.40869-0.2526 1.6917 0.2869 2.8512 1.1989 2.2863 1.7984 3.9317 2.1452 3.9317 0.8287 0-0.9323 2.9457-0.6835 3.9438 0.3331 0.35618 0.3629-0.10371 0.5352-1.022 0.3831-0.91828-0.1522-1.6696 0.093-1.6696 0.5445 0 0.8769 0.29082 0.9606 4.174 1.2008 2.1816 0.135 2.2892 0.2475 0.8348 0.8725-1.3991 0.6012-1.2301 0.7269 1.0435 0.7761 1.4922 0.033 2.7131 0.4641 2.7131 0.9598 0 1.0642-5.2717 0.1376-5.7044-1.0027-0.15305-0.4032-1.0922-0.7275-2.087-0.7205-1.3329 0.01-1.5108 0.2016-0.67611 0.7305 1.9511 1.2363-0.19252 1.6633-2.8105 0.5598zm1.6623-1.2778c0.42248-0.6836-1.1139-1.62-6.6628-4.0611-0.45914-0.2019 0.06503 0.6119 1.1648 1.8086s2.2947 1.9934 2.6554 1.7705c0.36067-0.2229 0.89172-0.023 1.1801 0.4431 0.65477 1.0594 1.0263 1.0682 1.6624 0.039zm15.281 0.284c1.4757-1.1549 2.6831-2.6614 2.6831-3.3478 0-0.8342 0.51188-1.0855 1.5441-0.7578 1.1967 0.3798 1.741-0.1241 2.4192-2.2395 0.716-2.2335 0.89054-2.3806 0.96026-0.8097 0.04692 1.0558-0.4398 2.935-1.0815 4.1759-1.4369 2.7788-4.6768 5.8403-4.6768 4.4194 0-0.6019-0.42375-0.7487-1.0435-0.3616-2.6014 1.6251-3.2127 0.8055-0.80484-1.0788zm4.3802-1.5614c1.1328-1.5444 1.1151-1.5837-0.23622-0.5239-0.80349 0.6301-1.4609 1.538-1.4609 2.0174s0.1063 0.7152 0.23622 0.5239 0.78732-1.0992 1.4609-2.0174zm5.4583 1.61c-0.32057-1.2774-0.18441-2.6539 0.31155-3.1499 0.48456-0.4846 0.88676-1.839 0.89379-3.0098 0.0067-1.1708 0.37694-2.6922 0.82202-3.3809 1.3906-2.1518 0.98611 3.4467-0.44768 6.1962-1.0128 1.942-1.0557 2.5733-0.21054 3.0957 0.78069 0.4825 0.81535 0.9025 0.13098 1.5868-0.68437 0.6844-1.0814 0.3302-1.5001-1.3381zm-14.669 0.477c0-0.4592-0.48299-0.8348-1.0733-0.8348-1.2704 0-1.468-3.2812-0.2087-3.4664 0.47553-0.07 1.2403-0.1814 1.6994-0.2478 1.8872-0.2728 4.5914-2.6286 4.5914-3.9999 0-1.6904 1.0546-1.8566 3.4948-0.5506 1.2512 0.6696 1.5611 0.6683 1.145-0.01-0.61167-0.9898 1.0301-6.6287 2.3318-8.0091 0.50499-0.5354 0.61457-0.3413 0.30563 0.5417-0.2649 0.7569-0.93807 3.6963-1.4959 6.532-0.5631 2.8621-1.2855 4.7169-1.6239 4.1694-0.46629-0.7545-0.75205-0.7558-1.2158-0.01-0.3334 0.5395-1.0905 0.795-1.6824 0.5679-0.5919-0.2272-1.9085 0.3624-2.9258 1.3102-1.3864 1.2916-2.0104 1.4629-2.4916 0.6842-0.45609-0.7379-0.8074-0.7711-1.213-0.1148-0.31406 0.5087-0.25313 0.9244 0.1354 0.9244s0.76301 0.7513 0.83218 1.6696c0.0692 0.9183-0.03874 1.6696-0.23975 1.6696-0.20104 0-0.36552-0.3756-0.36552-0.8348zm7.817-8.5317c-0.31134-0.5038-0.79428-0.3847-1.2302 0.3032-1.141 1.8008-0.85752 2.6842 0.49978 1.5577 0.68365-0.5673 1.0123-1.4048 0.73045-1.8609zm-6.1474 8.0214c0-0.616 3.575-3.5998 4.3565-3.6359 0.32994-0.015 0.4032 0.4847 0.16278 1.1113-0.43727 1.1395-4.5193 3.4199-4.5193 2.5246zm-7.0958-2.8289c-0.28376-0.4592-0.14027-0.8348 0.31887-0.8348s1.067 0.3756 1.3507 0.8348c0.28376 0.4591 0.14027 0.8348-0.31887 0.8348s-1.067-0.3757-1.3507-0.8348zm22.957 0.099c0-0.4592 0.37566-1.067 0.8348-1.3507 0.45914-0.2838 0.8348-0.1403 0.8348 0.3189 0 0.4591-0.37566 1.0669-0.8348 1.3507-0.45914 0.2837-0.8348 0.1402-0.8348-0.3189zm-48.418-1.4c0-0.7158 0.37566-1.0693 0.8348-0.7855 0.45914 0.2837 0.8348 0.8694 0.8348 1.3014 0 0.4321-0.37566 0.7856-0.8348 0.7856s-0.8348-0.5857-0.8348-1.3015zm5.3126-0.711c-6.9259-9.3487-8.5515-12.179-6.9952-12.179 0.42318 0 1.4249 1.4088 2.226 3.1305 0.80111 1.7218 1.6661 3.3183 1.9222 3.5479 1.4332 1.2847 5.1538 6.8503 4.8096 7.1945-0.22359 0.2237-1.1068-0.5386-1.9626-1.6938zm57.363 0.8298c-0.0362-0.8799 0.16105-1.3731 0.43846-1.0956 0.27739 0.2774 0.30704 0.9974 0.0659 1.6-0.26649 0.6659-0.4643 0.4682-0.50435-0.5044zm-45.972-1.7299c-0.56739-0.6836-1.3647-1.0372-1.7718-0.7856-0.40711 0.2516-0.7402-0.1281-0.7402-0.8439 0-1.7066 0.14948-1.6676 3.0006 0.7845 1.334 1.1473 2.002 2.0864 1.4843 2.087-0.51771 0.0005-1.4055-0.5584-1.9729-1.242zm43.402 0.9278c0-0.1733 0.57209-0.79 1.2713-1.3703 1.063-0.8822 1.1851-0.8305 0.74548 0.3153-0.44903 1.1701-2.0168 1.9903-2.0168 1.055zm-10.552-1.9805c1.1022-3.8963 1.5166-10.416 0.62706-9.8664-0.5103 0.3154-0.92782 1.7004-0.92782 3.0778s-0.30289 2.3173-0.67309 2.0884c-1.1413-0.7053-0.09049-6.3608 1.1818-6.3608 0.63847 0 1.1609-0.7514 1.1609-1.6696 0-0.9183 0.30928-1.6696 0.68728-1.6696 0.66962 0 0.53782 7.094-0.19388 10.435-0.20111 0.9183-0.3944 2.5148-0.42953 3.5479-0.03514 1.0331-0.46484 1.8783-0.95492 1.8783s-0.70508-0.6574-0.47778-1.4609zm-51.77-0.6621c-0.27188-0.7086-0.30781-1.4747-0.07981-1.7027 0.22797-0.228 0.61487 0.3517 0.85977 1.2882 0.5202 1.9893-0.05777 2.2964-0.77995 0.4145zm2.7728-0.1032c-0.3061-0.306-0.55653-0.9446-0.55653-1.4191 0-0.5231 0.38882-0.4738 0.98784 0.1252 0.54332 0.5434 0.79376 1.182 0.55653 1.4192-0.23722 0.2372-0.68175 0.1809-0.98784-0.1253zm8.3954-5.4541c-1.2504-1.9285-2.2735-4.1198-2.2735-4.8696s-0.26132-1.6247-0.58069-1.9441c-0.31938-0.3194-0.66901-1.1824-0.77694-1.9178-0.30746-2.0949 0.84831-0.281 3.0105 4.7246 1.0908 2.5253 2.7094 5.2488 3.5968 6.0523 1.1343 1.027 1.2696 1.4609 0.45547 1.4609-0.63698 0-2.1812-1.5778-3.4317-3.5063zm-11.039 1.0019c-0.28376-0.4591-0.11811-0.8348 0.36813-0.8348s0.88407 0.3757 0.88407 0.8348c0 0.4592-0.16566 0.8348-0.36813 0.8348s-0.6003-0.3756-0.88406-0.8348zm65.531-0.3681c0-1.4663 0.50093-1.6822 1.2165-0.5244 0.26417 0.4275 0.0985 1.0132-0.36813 1.3015-0.46662 0.2884-0.84841-0.061-0.84841-0.7771zm-68-1.2438c-0.26416-0.4274-0.09849-1.0131 0.36814-1.3014 0.46663-0.2885 0.84841 0.061 0.84841 0.7771 0 1.4663-0.50093 1.6822-1.2165 0.5243zm25.444-1.0653c-4.747-1.8222-6.6992-3.6617-9.7483-9.1856-0.9949-1.8025-2.0432-2.865-2.345-2.3768-0.92274 1.493-1.9026 0.9846-2.321-1.2041-0.21943-1.1479-0.07538-2.087 0.32008-2.087 0.39547 0 0.71904 0.5635 0.71904 1.2522s0.37566 1.2522 0.8348 1.2522c1.0579 0 1.0661-1.7874 0.02062-4.537-0.44778-1.1778-1.3941-2.1414-2.1029-2.1414-0.98574 0-1.1565-0.5398-0.72631-2.2957 0.30935-1.2626 0.87999-2.4209 1.2681-2.5739 1.1437-0.45099 0.80647-1.8087-0.44919-1.8087-1.2097 0-2.1536 2.4478-2.1729 5.6348-0.0067 1.0331-0.38471 1.8783-0.84096 1.8783s-0.70413-0.6574-0.55082-1.4609c1.3337-6.9902 1.555-7.5199 2.9854-7.1458 0.83996 0.21966 1.4609-0.0865 1.4678-0.72375 0.01928-1.7809 3.7426-9.8698 4.5431-9.8698 1.1139 0 0.87414 1.3472-0.43287 2.4319-1.0656 0.8844-2.7102 6.8485-2.0426 7.4074 0.15712 0.13153-0.27781 0.59535-0.96652 1.0307-0.71567 0.4524-0.83378 0.79704-0.27566 0.80435 0.56224 0.008 0.93657 1.1638 0.88233 2.7259-0.37112 10.689 6.1797 20.824 14.435 22.334 1.8282 0.3343 3.3374 0.3766 3.3539 0.094 0.07112-1.2179 3.9779-5.2146 4.4115-4.513 0.26286 0.4253-0.45632 1.7808-1.5982 3.0122-1.1419 1.2315-1.7792 2.2448-1.4162 2.2518 0.36294 0.01 0.09639 0.3769-0.59231 0.822-1.5778 1.0196-1.2495 1.0693-6.66-1.0076zm-13.658-22.52c-0.23158-0.57393-0.42106-0.10435-0.42106 1.0435 0 1.1479 0.18948 1.6174 0.42106 1.0435s0.23158-1.513 0-2.087zm-13.051 19.053c-1.049-2.759-1.1029-4.6528-0.13258-4.6528 0.76438 0 1.9919 5.9087 1.359 6.5416-0.20257 0.2025-0.75448-0.6474-1.2265-1.8888zm41.473 0.5783c-0.7639-1.3623 0.46292-6.9007 1.5286-6.9007 0.80339 0 0.92674 0.6229 0.45456 2.2957-0.35642 1.2626-0.49819 2.7308-0.31505 3.2627 0.38051 1.105-1.1228 2.3147-1.6681 1.3423zm28.248-0.431c-0.49243-1.5755-1.6469-7.5523-1.7335-8.9741-0.12663-2.0803-3.0011-10.182-5.099-14.372-1.0843-2.1655-3.6619-5.8407-5.7281-8.1671s-3.7423-4.6869-3.7246-5.2455c0.01761-0.5586 1.7004 0.86266 3.7394 3.1584s3.7151 3.7266 3.7245 3.1798c0.0094-0.54682-0.35849-1.2264-0.81762-1.5102-0.45914-0.28376-0.83479-0.91542-0.83479-1.4037 0-0.5598 0.46257-0.50385 1.2522 0.15149 0.68871 0.57157 1.2522 1.5789 1.2522 2.2385 0 0.65959 0.31507 1.0045 0.70015 0.76652 0.38509-0.23799 1.5361 1.0546 2.5578 2.8725s2.1458 3.3052 2.498 3.3052c0.35216 0 1.1361 0.92632 1.742 2.0585 0.60593 1.1322 1.4788 1.8254 1.9396 1.5406 0.46088-0.28484 0.61132-0.15117 0.33431 0.29704-0.27701 0.44822 0.0183 1.8211 0.65631 3.0508 0.63798 1.2297 0.79479 2.2358 0.34847 2.2358s-1.0453-0.6574-1.331-1.4609c-0.70617-1.9858-9.6055-13.684-10.062-13.227-0.20077 0.20077 0.36551 1.4276 1.2584 2.7263s2.2573 3.4063 3.032 4.6836c0.7747 1.2772 1.7119 2.1348 2.0827 1.9056 0.37079-0.22916 1.1471 1.1676 1.7252 3.1039 0.57806 1.9363 1.4791 3.7965 2.0022 4.1338 0.68054 0.4388 0.64919 0.617-0.11016 0.6261-0.98715 0.012-1.8238-1.4418-3.0643-5.3242-0.27774-0.86916-0.68447-1.4008-0.90385-1.1814-0.2194 0.21939 0.36667 3.3723 1.3024 7.0065 0.93569 3.6342 1.8255 8.0164 1.9774 9.7382 0.27244 3.089-0.0806 4.1187-0.71571 2.087zm-66.706-0.3706c-0.29361-0.2936-0.52808-1.3164-0.52105-2.273 0.01052-1.4339 0.15706-1.5193 0.83482-0.4869 0.68103 1.0374 0.91494 0.9123 1.3637-0.729l0.54165-1.9812 1.0983 1.9812c1.3374 2.4122 1.4193 3.2334 0.32272 3.2334-0.45914 0-0.8348-0.5857-0.8348-1.3015s-0.38179-1.0655-0.84841-0.7771c-0.46663 0.2883-0.64833 0.8481-0.40378 1.2438 0.54483 0.8815-0.81049 1.833-1.5532 1.0903zm41.578-2.8326c-0.30849-0.4993-0.16196-1.3065 0.32562-1.7941 0.62549-0.6255 0.84672-0.3583 0.75138 0.9075-0.15385 2.0424-0.29224 2.1563-1.077 0.8866zm-36.333-0.136c-0.35011-1.144-0.86492-3.9114-1.0093-5.4256-0.09846-1.0328-0.36686-1.8782-0.59643-1.8787s-0.53217-3.0061-0.67245-6.679c-0.14029-3.6728 0.04758-6.6765 0.4174-6.6747 0.36985 0.002 0.74343 2.6 0.83018 5.7737 0.13911 5.0896 1.0409 10.137 2.4822 13.893 0.25327 0.66 0.04466 1.2001-0.46363 1.2001-0.50826 0-0.95285-0.094-0.98798-0.2087zm-4.2518-4.5914c-0.18504-0.8035-0.09047-2.7757 0.21014-4.3827 0.30353-1.6226 0.59544-2.133 0.65648-1.1478 0.06044 0.9756 0.34468 2.9478 0.63164 4.3826 0.5435 2.7176-0.88477 3.8118-1.4983 1.1479zm6.1388-0.6226c-0.52388-1.1498-0.62871-2.0905-0.23297-2.0905 0.69317 0 1.9421 3.4244 1.4342 3.9324-0.13678 0.1367-0.67731-0.6921-1.2012-1.8419zm-11.239 0.1369c-0.93019-2.365-0.77855-3.5732 0.31165-2.483 0.5022 0.5022 0.77284 1.6104 0.60144 2.4626-0.30059 1.4946-0.333 1.4953-0.91308 0.02zm2.8398 1.1118c-0.09082-0.2296-0.3738-1.92-0.62884-3.7566-0.35145-2.5307-0.22803-3.1122 0.50974-2.4018 0.5354 0.5155 0.81838 2.206 0.62884 3.7565-0.18953 1.5506-0.41892 2.6315-0.50974 2.4019zm-5.8797-2.0175c-0.03623-0.88 0.16106-1.373 0.43845-1.0956s0.30705 0.9974 0.06595 1.6c-0.26649 0.6659-0.4643 0.4682-0.50436-0.5044zm29.63-0.6543c-0.80605-1.1508-0.97345-2.0305-0.44814-2.3552 0.46119-0.285 0.73714-1.4306 0.61323-2.5457-0.16658-1.4991 0.13902-1.9673 1.1727-1.7966 0.76887 0.1269 1.6721-0.2129 2.0073-0.7551 0.38373-0.6209 0.25031-0.764-0.36034-0.3866-1.5119 0.9344-2.1418-1.8858-0.92775-4.1543 1.4186-2.6508 2.0085-2.5618 3.5052 0.52851 1.8448 3.8092 1.0338 13.302-1.1364 13.302-0.4553 0-0.61436-0.3454-0.35348-0.7675 0.51908-0.8399-1.6959-3.4065-2.9398-3.4065-1.2518 0-0.8882 1.6786 0.47703 2.2025 0.68871 0.2643 1.2522 0.816 1.2522 1.226 0 1.364-1.5579 0.7698-2.8616-1.0915zm5.1756-7.3641c-0.54445-5.6661-1.4809-6.6088-2.6823-2.7-0.45556 1.4822-0.30299 1.7684 0.73109 1.3716 0.96584-0.37063 1.3068 0.03 1.3068 1.5357 0 2.7251-0.7681 3.3362-2.2858 1.8185-1.4864-1.4864-2.1353-1.1183-1.4012 0.7948 0.29559 0.7703 1.4488 1.3717 2.6302 1.3717 2.0228 0 2.0884-0.1615 1.7011-4.1923zm39.982 8.6445c-0.30609-0.306-0.55653-0.9447-0.55653-1.4191 0-0.5231 0.38882-0.4738 0.98784 0.1252 0.54332 0.5434 0.79375 1.182 0.55653 1.4192s-0.68175 0.1809-0.98784-0.1253zm-61.506-4c0-1.4664 0.50092-1.6823 1.2165-0.5244 0.26416 0.4274 0.0985 1.0131-0.36813 1.3015s-0.84841-0.061-0.84841-0.7771zm-10.852-2.05c0-1.5572 0.34713-2.4783 0.82314-2.1841 0.8772 0.5422 0.71792 3.3358-0.2451 4.2988-0.31792 0.318-0.57805-0.6337-0.57805-2.1147zm13.357 1.113c0-0.7158 0.37566-1.0693 0.8348-0.7855s0.8348 0.8694 0.8348 1.3015c0 0.432-0.37566 0.7855-0.8348 0.7855s-0.8348-0.5857-0.8348-1.3015zm8.7213 0.538c0.25953-0.4199 0.08198-0.8935-0.39458-1.0523-0.47655-0.1589-0.84243-2.1631-0.81307-4.454 0.02939-2.2908 0.0455-5.0104 0.03581-6.0435-0.0097-1.0331 0.36875-1.8783 0.84095-1.8783 0.52814 0 0.74475 2.0079 0.56287 5.2175-0.20028 3.5342 0.08937 5.8234 0.89772 7.0958 1.0643 1.6751 1.0422 1.8783-0.20409 1.8783-0.76861 0-1.1851-0.3436-0.9256-0.7635zm2.6876-0.6278c-0.30609-0.3061-0.54511-1.1513-0.53115-1.8783 0.02087-1.0855 0.18375-1.0494 0.91131 0.2017 0.89889 1.5458 0.63829 2.695-0.38017 1.6766zm-27.425-0.7116c-0.31059-0.3106-0.33892-1.1531-0.06294-1.8722 0.36575-0.9532 0.18047-1.1241-0.68361-0.6307-0.92072 0.5257-0.96871 0.4421-0.21491-0.3744 1.4361-1.5556 2.545-0.7255 2.0014 1.498-0.26139 1.0692-0.72937 1.6899-1.04 1.3793zm6.8993-0.7493c-0.03623-0.88 0.16106-1.3731 0.43845-1.0957s0.30705 0.9974 0.06595 1.6c-0.26649 0.666-0.4643 0.4682-0.50436-0.5043zm1.1096-1.9479c-0.37002-0.8035-0.70967-3.0821-0.75478-5.0635-0.04934-2.1662-0.56562-3.9086-1.2949-4.3699-1.0064-0.63666-0.96421-0.7694 0.24807-0.78001 1.3119-0.0115 1.842-0.93798 1.5597-2.7259-0.05435-0.34435 0.31699-0.6261 0.82526-0.6261 0.50826 0 0.69448 0.59839 0.41383 1.3298-0.28065 0.73136-0.73828 2.2382-1.017 3.3486-0.41828 1.6666-0.25505 1.9223 0.93547 1.4655 1.2716-0.48795 1.3212-0.3274 0.41962 1.3572-0.56241 1.0509-0.81756 3.174-0.567 4.718 0.5049 3.1114 0.25004 3.558-0.76839 1.3464zm18.254-1.8783c-0.12256-1.6271 0.65575-2.1756 1.6608-1.1706 0.59958 0.59958-0.16344 2.8401-0.96721 2.8401-0.31231 0-0.62443-0.7513-0.6936-1.6696zm-26.138-2.087c-0.22638-3.4989 0.06027-5.7241 0.84284-6.5423 0.36754-0.38429 0.4918 1.1184 0.27612 3.3392-0.5039 5.1886-0.91444 6.3638-1.119 3.2031zm4.7514 0.11019c-0.34564-1.3168-0.43116-2.5915-0.19006-2.8326 0.67218-0.67217 1.4939 2.0163 1.1361 3.7171-0.23414 1.113-0.48271 0.88058-0.94602-0.88454zm7.3834-0.52759c-0.28376-0.45914-0.11811-0.8348 0.36813-0.8348s0.88406 0.37566 0.88406 0.8348-0.16566 0.83479-0.36813 0.83479-0.6003-0.37565-0.88407-0.83479zm-15.444-1.6203c0-0.43204 0.37566-1.0177 0.8348-1.3015 0.45914-0.28376 0.8348 0.0697 0.8348 0.78553 0 0.7158-0.37566 1.3015-0.8348 1.3015s-0.8348-0.35348-0.8348-0.78552zm5.8436-1.7681c0-1.4045 0.32528-2.3526 0.72284-2.1069 0.67249 0.41561 0.30564 4.6606-0.40276 4.6606-0.17604 0-0.32008-1.1491-0.32008-2.5537zm8.2645-0.22899c-0.37888-2.5258-0.0083-4.7119 1.1853-6.9847 1.5871-3.0232 1.6978-3.5893 0.70177-3.5893-0.38543 0-1.186 1.0331-1.779 2.2957-0.6141 1.3075-1.2396 1.85-1.4531 1.2602-0.55006-1.5195 2.6656-5.3241 3.6598-4.3299 0.52051 0.52051 1.2082 0.0596 1.9337-1.2961 0.61927-1.1571 1.4381-2.1039 1.8197-2.1039 1.0842 0 0.81496 1.3646-0.48157 2.4406-1.6264 1.3498-3.9055 6.3505-4.2943 9.4226-0.30028 2.3727-1.101 4.1602-1.2923 2.8849zm2.3121-1.8087c1.4664-7.136 8.9746-17.108 14.173-18.823 3.5266-1.1639 3.2526-1.845-0.44475-1.1055-1.4715 0.2943-3.8681 1.7995-5.3258 3.345-2.6911 2.8531-3.9526 3.4834-3.9526 1.9751 0-0.45914 0.56349-0.8348 1.2522-0.8348s1.2522-0.37566 1.2522-0.8348c0-2.2666-3.6574 0.39637-4.5929 3.3441-0.29058 0.91555-1.0797 1.6646-1.7536 1.6646-1.6262 0-0.52052-2.0229 3.134-5.7338 2.2223-2.2565 2.442-2.7495 1.1126-2.4958-1.7274 0.32971-7.0907 7.4432-9.2624 12.285-0.69156 1.5418-1.4509 2.6098-1.6874 2.3733-0.23652-0.23653 0.12222-1.498 0.79721-2.8033 0.675-1.3053 1.3118-2.7489 1.4152-3.2081 0.10333-0.45914 1.0814-1.8967 2.1735-3.1945s1.9856-2.8341 1.9856-3.4139c0-0.57978 0.84523-1.4698 1.8783-1.9779 1.0331-0.50807 3.1931-1.7361 4.8001-2.729 2.6417-1.6322 2.7229-1.642 0.84727-0.10213-3.5593 2.922-1.5021 2.513 4.1578-0.82667 2.9824-1.7598 4.8606-3.2054 4.174-3.2124-1.1056-0.0114-1.1052-0.10538 0.0033-0.82201 1.0422-0.67352 0.9722-0.82274-0.4174-0.88982-1.3688-0.066-1.2525-0.26533 0.64581-1.1061 1.2735-0.56405 2.0362-1.3047 1.695-1.6459s0.02554-0.37249 0.81509-0.0695c0.88404 0.33924 1.4354 0.15131 1.4354-0.48922 0-0.76661 1.3717-0.92336 5.2175-0.59619 4.0158 0.34163 4.7849 0.24282 3.3392-0.42902-2.3031-1.0703-2.4233-1.9296-0.26999-1.9296 0.88457 0 1.39 0.35321 1.1232 0.7849s-0.13602 0.56916 0.29062 0.30548c1.6209-1.0018 6.3983 0.67003 7.065 2.4724 0.6293 1.7012 0.5244 1.7523-1.8782 0.91471-1.9365-0.67507-2.7014-0.63357-3.2003 0.17362-0.44915 0.72674-1.4065 0.85452-3.0408 0.40585-2.3021-0.63201-7.0403-0.49668-11.285 0.32233-0.66572 0.12843-0.46629 1.8246 0.37221 3.1657 0.3343 0.53471 0.13591 1.1823-0.44087 1.439-0.57678 0.25675 0.26611 0.3947 1.8731 0.30655 1.9199-0.10532 2.8502 0.18844 2.7131 0.85668-0.12084 0.58884 0.69061 1.0169 1.9276 1.0169 1.2116 0 1.9129-0.36133 1.6203-0.83479-0.28376-0.45914 0.01094-0.8348 0.65484-0.8348 1.739 0 10.676 3.1854 11.985 4.2718 0.66191 0.54933 1.1344 0.59949 1.1344 0.12043 0-0.74472-3.6924-2.8129-9.1828-5.1434-1.7776-0.75454-1.5951-0.80741 1.2312-0.3566 1.825 0.2911 3.8241 1.0351 4.4423 1.6533 0.61823 0.61824 1.5147 1.1241 1.9921 1.1241s2.7196 1.5502 4.9826 3.4449 4.3053 3.2541 4.5385 3.0209c0.5395-0.5395-7.2894-7.288-8.4631-7.2952-0.4821-0.003-1.3153-0.44411-1.8515-0.98032-1.4254-1.4254-6.8811-3.172-9.9534-3.1865-1.4651-0.007-2.896-0.38823-3.1798-0.84737-1.2516-2.025 10.964 0.92852 15.386 3.7203 4.6852 2.9576 14.249 12.097 14.249 13.617 0 0.91289-0.47827 0.70419-1.6541-0.72182-0.90977-1.1033-2.0395-2.4627-2.5106-3.0209-0.47107-0.5582-1.4419-0.79025-2.1575-0.51567-0.80961 0.31068-2.3838-0.55024-4.1678-2.2793-1.5767-1.5282-2.8668-2.3913-2.8668-1.918 0 0.47331 1.127 1.8647 2.5044 3.092s2.5044 2.6295 2.5044 3.116c0 0.51465 0.72259 0.65528 1.7278 0.33624 1.3195-0.4188 2.4829 0.24548 4.9238 2.8114 1.7578 1.8478 3.4188 3.1369 3.6912 2.8646 0.27232-0.27231 0.08721-0.98663-0.41135-1.5874-0.49856-0.60072-0.73238-1.5744-0.5196-2.1638 0.23249-0.64396 0.81714-0.15547 1.4651 1.2241 0.59304 1.2626 1.3299 2.2957 1.6375 2.2957s1.7733 1.6905 3.2571 3.7566 2.4367 3.7566 2.1177 3.7566c-0.67011 0-3.3239-2.9071-5.1374-5.6277-0.68599-1.0291-1.5886-1.6602-2.0058-1.4023-0.41722 0.25786 0.09344 1.6078 1.1348 3 3.8043 5.0856 4.1694 5.6996 3.3889 5.6996-0.4373 0-1.9452-1.5966-3.3509-3.5479-2.8344-3.9346-5.5363-6.876-8.6214-9.3855l-2.0452-1.6636 2.0207 2.2864c1.1114 1.2575 1.7676 2.5396 1.4582 2.849-0.3094 0.30941-2.4831-1.5728-4.8305-4.1827-6.5126-7.2409-11.688-10.345-12.728-7.6344-0.29867 0.77834-0.08456 1.2568 0.52724 1.1782 0.56659-0.0729 1.6199-0.0879 2.3408-0.0336 1.7717 0.13371 8.3716 5.8604 8.144 7.0665-0.09997 0.52962 0.11992 1.8551 0.48863 2.9455 1.1524 3.4078-1.2221 3.891-3.8736 0.78813-2.4212-2.8333-2.4757-4.2048-0.08988-2.2635 1.2671 1.031 1.3627 0.98675 0.84551-0.39139-0.43944-1.1709-0.27223-1.4345 0.6785-1.0697 2.2334 0.85703 1.2661-0.64305-2.2109-3.4287-3.5228-2.8224-4.8754-3.3304-4.8754-1.831 0 0.49549-0.81005 0.31476-1.8481-0.41232-1.0165-0.71195-3.73-1.5441-6.0302-1.8492-3.0219-0.40087-3.7251-0.71602-2.5346-1.136 0.90614-0.31966 2.7635-0.26256 4.1275 0.12689 1.8255 0.52124 2.809 0.37908 3.7268-0.53869 0.74901-0.74901 0.86985-1.2468 0.30266-1.2468-0.51927 0-1.0873 0.42952-1.2623 0.9545-0.23871 0.71614-0.76355 0.71614-2.1017 0-0.98093-0.52498-3.123-0.9545-4.7602-0.9545s-2.9767-0.37566-2.9767-0.8348-0.36387-0.8348-0.8086-0.8348c-0.44472 0-0.56886 0.65741-0.27584 1.4609 0.50245 1.3778 0.44052 1.3802-1.0888 0.0422-1.116-0.97636-2.006-1.1756-2.8546-0.63888-0.92138 0.58264-0.95425 0.78301-0.13 0.79256 0.60671 0.007 1.623 0.53267 2.2584 1.1681 0.98386 0.98387 0.78807 1.2288-1.3195 1.6502-2.5441 0.50882-7.3857 3.5128-8.5302 5.2925-0.35448 0.55126-1.1058 1.5049-1.6696 2.1193-1.1383 1.2404-3.1121 4.5479-3.1121 5.2151 0 0.2358 0.37566 0.42873 0.8348 0.42873s0.8348-0.47207 0.8348-1.049c0-1.912 7.0419-8.8986 10.334-10.253 4.2125-1.7332 15.051-1.3092 12.163 0.47575-0.55912 0.34555-2.1278 0.30958-3.486-0.08-6.0368-1.7313-13.636 2.4456-17.303 9.5103-0.84544 1.629-1.6814 2.2146-2.7589 1.9328-1.1091-0.29004-1.7726 0.22573-2.3481 1.8252-0.44121 1.2262-1.1619 2.9808-1.6016 3.8991-0.63002 1.3158-0.69036 1.1389-0.28477-0.83479zm14.846-22.54c2.5897-1.9885 0.74203-1.4535-2.8829 0.83485-1.8183 1.1478-3.6891 2.087-4.1574 2.087-0.46826 0-0.85138 0.55217-0.85138 1.227 0 1.1956 2.9539-0.35732 7.8917-4.1489zm9.8478-8.4834c-0.57392-0.23158-1.5131-0.23158-2.087 0-0.57392 0.23159-0.10435 0.42107 1.0435 0.42107s1.6174-0.18948 1.0435-0.42107zm-22.493 30.62c0.51992-1.3774 1.2386-2.5044 1.5971-2.5044 0.86745 0 0.82645 0.37288-0.31701 2.8825-1.358 2.9805-2.4285 2.6643-1.2801-0.37812zm-18.088-1.2522c0.26429-0.6887 1.0498-1.2522 1.7456-1.2522 1.0299 0 1.0719 0.23282 0.22587 1.2522-0.57158 0.68871-1.3571 1.2522-1.7456 1.2522s-0.49015-0.56349-0.22587-1.2522zm6.6671-2.0596c0.51284-2.825 1.85-5.8681 2.9465-6.7058 0.30051-0.22957 0.60992-0.79306 0.68758-1.2522 0.07764-0.45914 1.0648-2.5253 2.1935-4.5914 1.5046-2.7541 3.6748-4.8148 8.1319-7.7219 3.3437-2.1809 6.6187-3.9597 7.2776-3.953 1.1418 0.0117-1.057 1.5258-4.6455 3.1988-0.91828 0.42811-3.3808 2.29-5.4722 4.1376-3.4824 3.0763-5.0025 5.5979-10.668 17.695-0.90766 1.9382-0.93986 1.8807-0.45188-0.8074zm1.601 1.6999c-0.26416-0.42742-0.09849-1.0131 0.36814-1.3015 0.46663-0.28839 0.84841 0.0613 0.84841 0.77711 0 1.4663-0.50093 1.6822-1.2165 0.52435zm50.957-0.59457c-0.69887-1.8212 0.22905-2.6678 1.2151-1.1085 0.98718 1.561 1.0082 2.4802 0.05668 2.4802-0.41002 0-0.98235-0.61726-1.2718-1.3717zm-55.584-0.87094c0-0.4276 0.55154-1.5067 1.2256-2.3979 1.0297-1.3614 1.2299-1.4032 1.2522-0.26177 0.01461 0.74727-0.53694 1.8263-1.2256 2.3979-0.68871 0.57158-1.2522 0.68938-1.2522 0.26177zm-2.5044-0.89213c0-0.45914 0.56349-1.3024 1.2522-1.874 0.69851-0.57971 1.2522-0.67011 1.2522-0.20444 0 0.45914-0.56349 1.3024-1.2522 1.874-0.69851 0.5797-1.2522 0.6701-1.2522 0.20443zm-1.6696-2.322c0-1.4897 2.2706-5.9192 3.9653-7.7356 0.57392-0.61513 1.0435-1.6364 1.0435-2.2695 0-0.63309 0.65427-1.5172 1.4539-1.9648 0.79967-0.44751 1.2152-1.0524 0.92334-1.3443-0.75948-0.75949-4.6134 3.2973-4.2287 4.4513 0.17652 0.52958-0.27384 0.96287-1.0008 0.96287s-1.3218 0.37565-1.3218 0.83479-0.42024 0.8348-0.93388 0.8348c-1.3986 0 3.0312-5.6481 8.5651-10.921 4.8918-4.6609 5.6648-5.7751 4.0066-5.7751-0.48624 0-0.61602 0.4337-0.28841 0.96378 0.3441 0.55675 0.23138 0.73865-0.26688 0.4307-0.47439-0.29318-3.036 1.8672-5.6925 4.8009-3.0582 3.3774-5.2724 5.1642-6.0362 4.8711-1.0034-0.38502-0.97214-0.59391 0.18553-1.2418 0.76548-0.42839 3.758-3.1686 6.6501-6.0892 3.7622-3.7994 5.5146-5.0541 6.1591-4.4096 0.64446 0.64447 1.2893 0.51223 2.2662-0.46474 1.5352-1.5352 2.081-1.7027 2.081-0.63878 0 0.75813-4.7489 5.5009-8.348 8.3372-1.1478 0.90458-1.8221 1.9106-1.4982 2.2357 0.73708 0.73994 8.9226-6.3309 8.9738-7.7518 0.0207-0.57392 0.91902-1.0435 1.9963-1.0435 2.4284 0 7.389-2.3969 6.8306-3.3005-0.38124-0.61685 3.9892-2.1146 8.6457-2.9628 1.0952-0.19951 2.2222-0.61631 2.5044-0.92623 0.28223-0.30991-0.72642-0.32735-2.2414-0.0387-1.9127 0.36435-2.5797 0.24175-2.1823-0.40116 1.0296-1.6659 17.453 0.67657 25.807 3.6809 1.3774 0.49534 4.4923 2.1968 6.9219 3.7811 4.0602 2.6475 6.0769 3.1246 4.8558 1.1488-1.1877-1.9218-15.17-7.8209-21.97-9.269-4.0362-0.85959-6.2115-1.5926-4.8341-1.629 1.3774-0.0363 4.9462 0.49981 7.9306 1.1915 2.9844 0.69168 5.8957 1.31 6.4697 1.3739 0.57392 0.0639 1.0435 0.42937 1.0435 0.81199s0.46957 0.69798 1.0435 0.70081c0.57392 0.003 2.1407 0.57731 3.4817 1.2766 1.341 0.69931 2.7517 0.95799 3.1349 0.57484 0.38315-0.38316-0.80796-1.3605-2.6469-2.1718-1.839-0.81134-3.3436-1.7688-3.3436-2.1277 0-0.35892 1.8783 0.24635 4.174 1.345 2.2957 1.0987 4.174 2.3808 4.174 2.8492 0 0.46839-0.3497 0.63549-0.77711 0.37134-0.42742-0.26416-1.0131-0.0985-1.3015 0.36813-0.28839 0.46662-0.184 0.84841 0.23198 0.84841 1.0553 0 4.351 2.9512 4.351 3.8962 0 0.42824-0.44358 1.2222-0.98572 1.7643-0.75776 0.75777-1.5782 0.54945-3.5479-0.9008-5.3992-3.9754-15.819-7.7615-23.286-8.4616-2.138-0.20041-4.2663-0.59864-4.7295-0.88495-0.46326-0.28631-0.84229-0.12274-0.84229 0.3635 0 0.48623-0.56349 0.88406-1.2522 0.88406s-1.2522 0.37566-1.2522 0.8348c0 0.97333 0.14713 0.97611 4.7256 0.0894 2.8111-0.54446 3.3885-0.45125 3.0277 0.48881-0.24516 0.63886-1.0569 1.1025-1.8039 1.0304-4.3548-0.42067-7.6191 0.14197-7.6191 1.3133 0 1.617-1.176 1.6006-2.5337-0.0354-0.76761-0.92491-1.3235-1.0327-1.9735-0.38264-0.65006 0.65006-0.56648 1.1141 0.29674 1.6476 0.91883 0.56787 0.62243 0.88124-1.2592 1.3314-5.4868 1.3125-18.886 11.798-20.499 16.042-1.1467 3.0159-0.82636 4.1833 0.50755 1.8499 1.4493-2.5353 1.626-1.7338 0.2726 1.2366-0.71277 1.5644-1.1675 1.8593-1.6696 1.0828-0.54725-0.84641-0.85331-0.81313-1.4794 0.16083-0.43417 0.67541-1.0512 0.96624-1.3712 0.64628-0.31996-0.31996-0.10656-1.1543 0.47422-1.8541s0.82582-1.2724 0.54453-1.2724 0.14228-0.82045 0.94128-1.8232c2.3637-2.9666 11.053-11.744 11.053-11.166 0 0.29309 0.46957 0.13713 1.0435-0.34657 2.5265-2.1294 7.4822-5.0299 8.5937-5.0299 1.2066 0 1.7877-1.6587 0.58902-1.6815-1.832-0.0348-11.682 5.9392-15.16 9.1946-4.134 3.8694-10.093 12.475-10.093 14.576 0 0.6527-0.37566 1.4189-0.8348 1.7026-0.45914 0.28377-0.8348-0.10567-0.8348-0.86542zm33.392-27.1c0.97577-0.63059 0.74542-0.81206-1.0435-0.82202-1.2626-0.007-2.2957 0.36288-2.2957 0.82202 0 1.0555 1.7059 1.0555 3.3392 0zm43.201 26.644c-0.80349-0.88002-1.272-1.6-1.0411-1.6s-1.1135-1.3853-2.9876-3.0784c-1.874-1.6931-4.9743-4.531-6.8895-6.3064s-5.9239-4.7082-8.9083-6.5172c-5.7166-3.4653-5.9572-4.5042-0.3655-1.5782 5.9788 3.1285 7.0395 3.8496 6.4824 4.4067-0.30337 0.30337-0.18845 0.55158 0.25538 0.55158 0.44384 0 1.1789-0.37194 1.6335-0.82652 0.5455-0.54551 2.3762 0.33357 5.3844 2.5855 2.5068 1.8766 4.6839 3.7535 4.8379 4.1709 0.154 0.41738 0.62358 0.54653 1.0435 0.287 0.41992-0.25952 0.76349 0.36711 0.76349 1.3925v1.8644l-2.2464-2.0238c-1.2355-1.1131-3.7374-3.4176-5.5597-5.121-1.8223-1.7035-3.6308-2.901-4.0189-2.6611-0.5993 0.37038 4.7652 6.1757 5.7068 6.1757 0.17962 0 1.6927 1.4858 3.3625 3.3019 1.6698 1.816 3.2546 3.1669 3.5219 3.0019 0.26732-0.165 0.54021 0.6031 0.60642 1.7069 0.0662 1.1038 0.0662 1.9756 0 1.9373-0.0662-0.0382-0.77779-0.78959-1.5813-1.6696zm-39.861-12.46c0-0.45914 0.37566-0.8348 0.8348-0.8348s0.8348 0.37566 0.8348 0.8348c0 0.45913-0.37566 0.83479-0.8348 0.83479s-0.8348-0.37566-0.8348-0.83479zm34.965-0.71901c-1.095-0.85459-4.5965-3.2964-7.7811-5.4262s-5.2507-3.862-4.5914-3.8494c0.65937 0.0126 3.6325 1.6723 6.6069 3.6881s5.7548 3.4508 6.1787 3.1888c0.42389-0.26197 0.13927-0.93804-0.63248-1.5024-1.2288-0.89852-1.2445-1.0869-0.12646-1.516 0.70444-0.27031 1.3054-0.0339 1.3406 0.52738 0.09441 1.5036 0.5341 3.3339 1.197 4.9826 0.74789 1.8601 0.28554 1.8405-2.1918-0.0929zm-70.842-2.2433c-0.02421-1.0966 5.6158-7.0094 9.544-10.006 2.7546-2.1011 3.7937-3.7534 2.3325-3.7091-0.34435 0.0104-2.8519 2.0734-5.5722 4.5844-2.7204 2.511-5.0834 4.4282-5.2511 4.2605-0.58415-0.58415 5.8882-7.1943 7.0443-7.1943 0.64049 0 0.94906-0.34861 0.68573-0.77469-0.26334-0.42609 0.27798-1.0149 1.2029-1.3084 0.92494-0.29357 1.6817-0.8841 1.6817-1.3123 0-0.42819 0.49982-0.77854 1.1107-0.77854 0.6109 0 2.9588-0.97234 5.2175-2.1608 2.3649-1.2443 3.2019-1.963 1.9733-1.6944-4.2833 0.93631-9.6384 3.8426-13.172 7.1484-1.9898 1.8618-3.734 3.3851-3.876 3.3851-0.14195 0-0.50596-0.64595-0.80892-1.4354-0.30296-0.78949-0.29376-1.1784 0.02045-0.86416 0.7345 0.73449 3.6909-0.82986 3.6909-1.953 0-0.47008-0.4337-0.58665-0.96378-0.25904-0.59713 0.36904-0.73718 0.229-0.36813-0.36813 0.32761-0.53008 1.3248-0.96378 2.216-0.96378 0.89118 0 1.6203-0.34246 1.6203-0.76103 0-0.63549 7.2707-3.7274 12.731-5.4137 0.80349-0.24817 1.4551-1.1204 1.4481-1.9383-0.01035-1.2082-0.1541-1.2638-0.76614-0.29672-0.41435 0.65471-1.6295 1.3225-2.7003 1.484s-4.3241 1.4042-7.2295 2.7615-5.1594 2.0982-5.0088 1.6465c0.1506-0.45177 0.56925-0.72748 0.93035-0.6127 0.3611 0.11479 0.98397-0.32109 1.3842-0.96861 0.80652-1.305 7.955-4.2471 10.322-4.2482 0.83059-0.00036 1.2848-0.36532 1.0094-0.81099-0.27545-0.44568 0.52784-1.0685 1.7851-1.384 1.4534-0.36479 2.4032-0.22171 2.6081 0.39292 0.17722 0.53165 0.70676 0.96664 1.1768 0.96664 0.47 0 0.65252-0.52647 0.40559-1.1699-0.27634-0.72015 0.25097-1.3577 1.3716-1.6582 2.8757-0.77124 3.609-0.54826 2.062 0.62703-0.78543 0.59673-1.8092 2.0874-2.275 3.3126-0.7405 1.9477-0.6397 2.2277 0.80198 2.2277 0.90691 0 1.6489-0.38282 1.6489-0.8507 0-0.46789 0.84523-0.64034 1.8783-0.38322 1.0331 0.25711 3.3809 0.0855 5.2175-0.38142l3.3392-0.84891-4.3827 0.27478c-4.0119 0.25155-5.8699-0.51865-3.3392-1.3842 0.57392-0.19628 0.10435-0.19725-1.0435-0.002-1.5185 0.25813-1.8399 0.10295-1.1799-0.56966 1.4388-1.4663 5.6487-2.001 5.1309-0.65161-0.2547 0.66373 0.19212 1.1632 1.102 1.2317 1.0097 0.0761 1.3741-0.29191 1.0712-1.0815-0.25258-0.65816-0.03156-1.1967 0.49108-1.1967 0.52267 0 1.1657 0.56133 1.429 1.2474 0.26327 0.68607 0.85507 1.0148 1.3151 0.73045 0.51468-0.31809 0.40075-0.7975-0.29618-1.2462-1.8872-1.2152 7.0192 0.67714 14.311 3.0406 0.22957 0.0744 1.92 0.81243 3.7566 1.64 5.2403 2.3615 2.0188 2.4259-3.7661 0.0753-6.6622-2.7071-9.9158-3.292-12.512-2.2494l-2.087 0.838 2.087-0.0435c3.5102-0.0732 10.641 1.6694 14.144 3.4562 1.8262 0.93167 3.921 1.6939 4.6551 1.6939 0.73409 0 1.1034 0.37428 0.82068 0.83174-0.32239 0.52163-1.4659 0.33952-3.067-0.48844-1.8354-0.94913-2.8075-1.0656-3.4588-0.41434-0.65125 0.65125-0.52083 0.90584 0.46405 0.90584 0.75344 0 1.6269 0.4159 1.9411 0.92423 0.37118 0.60057 0.02304 0.75822-0.99423 0.45018-7.1869-2.1764-15.428-3.1974-22.797-2.8244-7.0874 0.35871-7.7132 0.27459-6.261-0.84169 1.5322-1.1778 1.4991-1.2204-0.65698-0.84705-1.2487 0.21627-2.0718 0.0718-1.829-0.32101 0.24277-0.39281-0.33208-0.7142-1.2775-0.7142-0.94537 0-1.7189 0.39783-1.7189 0.88407 0 0.48623 0.38497 0.64614 0.85548 0.35534 0.47051-0.29079 0.75225-0.0312 0.6261 0.57683-0.12616 0.60805 0.26811 1.0023 0.87616 0.87616 0.60805-0.12615 0.86762 0.15559 0.57683 0.6261s-1.07 0.85548-1.7316 0.85548c-0.66161 0-1.2029 0.39783-1.2029 0.88407 0 0.48623-0.37929 0.64964-0.84286 0.36314s-1.829 0.25481-3.0344 1.2029c-1.2053 0.94811-2.6583 1.7238-3.2289 1.7238-0.57058 0-1.5051 0.56349-2.0766 1.2522-1.5138 1.824-0.05585 1.4916 3.7566-0.85657 3.7874-2.3328 5.2872-2.6573 3.7566-0.81302-0.57158 0.68871-0.7594 1.2522-0.4174 1.2522 0.34201 0 0.15418 0.56348-0.4174 1.2522-0.57158 0.68871-1.4407 1.2522-1.9314 1.2522-0.49068 0-0.16294-0.55154 0.72831-1.2256 1.6004-1.2105 1.6005-1.226 0.005-1.2522-0.88868-0.0146-2.505 0.80884-3.5919 1.8299-1.6526 1.5525-2.0983 1.6586-2.7229 0.64797-0.8266-1.3375-1.9102-0.52043-8.8578 6.6784-1.994 2.0661-3.6342 3.3627-3.6448 2.8813zm22.842-18.496c-1.4682-0.48939-10.685 4.1383-9.8685 4.9549 0.25344 0.25343 2.7705-0.6934 5.5935-2.1041s4.7467-2.6935 4.2749-2.8508zm32.235-0.22927c0-0.39556-1.2209-1.0052-2.7131-1.3547-1.4922-0.34953-3.2766-0.77204-3.9653-0.93891-2.5935-0.62843-15.995-0.23607-17.323 0.50718-0.93874 0.52534 0.75429 0.75949 5.2559 0.72688 8.0518-0.0584 16.038 0.87372 16.703 1.9493 0.54484 0.88157 2.0425 0.22915 2.0425-0.88977zm6.2816 17.256c-4.6658-2.8137-7.4253-4.751-6.7675-4.751 1.2852 0 9.6686 4.4942 9.6686 5.1832 0 0.89552-0.929 0.75711-2.9012-0.43219zm-34.665-0.9944c0.57158-0.6887 1.4149-1.2522 1.874-1.2522 0.46567 0 0.37527 0.55369-0.20443 1.2522-0.57158 0.68871-1.4149 1.2522-1.874 1.2522-0.46567 0-0.37527-0.55369 0.20443-1.2522zm11.27-0.41739-3.3392-0.59788 3.5479-0.11846c1.9513-0.0651 3.5479 0.2572 3.5479 0.71634 0 0.45913-0.09391 0.78148-0.2087 0.71633-0.11478-0.0652-1.7113-0.38751-3.5479-0.71633zm-3.7566-1.9897c0-0.17605 0.93914-0.49961 2.087-0.71904 1.1478-0.21942 2.087-0.0754 2.087 0.32008 0 0.39547-0.93914 0.71903-2.087 0.71903-1.1478 0-2.087-0.14403-2.087-0.32007zm20.508-2.9799c-0.8878-0.32231-1.2455-0.81385-0.79494-1.0923 0.86116-0.53224 3.4812 0.70223 2.8023 1.3203-0.21627 0.1969-1.1196 0.0943-2.0074-0.228zm-32.93-3.5646c0.89782-1.6776 4.036-3.2264 5.174-2.5536 0.37526 0.22186 0.88864-0.38574 1.1409-1.3502 0.25222-0.96447 0.50867-1.7735 0.56991-1.7979 0.06127-0.0244 2.2299-0.24345 4.8192-0.48681 3.0207-0.28392 4.9145-0.10825 5.2843 0.49016 0.39345 0.63663-0.1735 0.79413-1.7861 0.49621-3.2705-0.6042-7.7887 0.34447-7.7887 1.6353 0 1.2992-2.1221 2.3553-5.6087 2.791-0.5595 0.07-0.82509 0.62803-0.59017 1.2402 0.23808 0.62044-0.12302 1.1131-0.8159 1.1131-0.96017 0-1.0509-0.35899-0.39876-1.5776zm41.031-4.4921c0.2774-0.2774 0.99741-0.30706 1.6-0.066 0.66594 0.26649 0.46814 0.4643-0.50436 0.50436-0.88001 0.0362-1.3731-0.16106-1.0957-0.43845zm-51.983-7.8436c0.68871-0.44508 1.8157-0.80923 2.5044-0.80923 1.1131 0 1.1131 0.0899 0 0.80923-0.68871 0.44508-1.8157 0.80922-2.5044 0.80922-1.1131 0-1.1131-0.0899 0-0.80922zm43.409-1.2522c-1.1478-0.65616-3.12-1.2063-4.3827-1.2226-1.2626-0.0163-2.2957-0.44903-2.2957-0.9617 0-0.54645-0.87171-0.76547-2.1069-0.52935-1.1588 0.22152-2.2683 0.14159-2.4656-0.17762-0.19728-0.31921-2.9118-0.48582-6.0323-0.37024-3.2835 0.12161-4.9772-0.0593-4.0205-0.42953 0.90925-0.35182 5.5497-0.68946 10.312-0.75031 7.2151-0.0922 8.5018 0.0787 7.7165 1.0249-0.7566 0.91164-0.32092 1.2646 2.2098 1.7904 1.7337 0.36019 3.3983 0.60354 3.6991 0.54077 0.3008-0.0628 0.75859 0.4375 1.0173 1.1117 0.59 1.5375-0.93469 1.5265-3.6512-0.0264zm-39.235 0.0686c0-0.29005 0.96175-0.89303 2.1372-1.3399 1.3005-0.49445 1.9036-1.1905 1.5406-1.7779-0.32814-0.53094-0.24698-0.74925 0.18037-0.48514 1.184 0.73178 10.505-1.6543 11.265-2.8837 0.51777-0.83777 0.89255-0.85682 1.6648-0.0846 1.1115 1.1114 0.78371 1.2759-8.4402 4.2356-2.9844 0.95761-6.0836 1.9936-6.8871 2.3021-0.80349 0.30852-1.4609 0.32363-1.4609 0.0336zm17.754-6.4178c-0.1163-1.5439 0.192-1.6948 2.5354-1.2416 6.8002 1.3152 11.092 1.1342 10.127-0.42724-0.25403-0.41103-0.26509-0.74733-0.02454-0.74733 0.24051 0 0.82536 0.72511 1.2997 1.6113 0.81375 1.5205 0.5301 1.6124-5.0318 1.63-3.2418 0.0103-6.542 0.22423-7.3337 0.47553-1.031 0.32724-1.4771-0.0418-1.572-1.3007zm-9.823-0.30182c3.5651-1.113 6.1107-1.1299 5.4262-0.036-0.22957 0.36686-2.2957 0.75958-4.5914 0.87272l-4.174 0.20572 3.3392-1.0425z"/>
  </g>
  <metadata>
    <rdf:RDF>
      <cc:Work>
        <dc:format>image/svg+xml</dc:format>
        <dc:type rdf:resource="http://purl.org/dc/dcmitype/StillImage"/>
        <cc:license rdf:resource="http://creativecommons.org/licenses/publicdomain/"/>
        <dc:publisher>
          <cc:Agent rdf:about="http://openclipart.org/">
            <dc:title>Openclipart</dc:title>
          </cc:Agent>
        </dc:publisher>
        <dc:title>Fingerprint</dc:title>
        <dc:date>2010-07-24T14:31:40</dc:date>
        <dc:description>Fingerprint</dc:description>
        <dc:source>http://openclipart.org/detail/74581/fingerprint-by-jhnri4</dc:source>
        <dc:creator>
          <cc:Agent>
            <dc:title>jhnri4</dc:title>
          </cc:Agent>
        </dc:creator>
        <dc:subject>
          <rdf:Bag>
            <rdf:li>clip art</rdf:li>
            <rdf:li>clipart</rdf:li>
            <rdf:li>finger</rdf:li>
            <rdf:li>finger print</rdf:li>
            <rdf:li>fingerprint</rdf:li>
            <rdf:li>print</rdf:li>
            <rdf:li>security</rdf:li>
          </rdf:Bag>
        </dc:subject>
      </cc:Work>
      <cc:License rdf:about="http://creativecommons.org/licenses/publicdomain/">
        <cc:permits rdf:resource="http://creativecommons.org/ns#Reproduction"/>
        <cc:permits rdf:resource="http://creativecommons.org/ns#Distribution"/>
        <cc:permits rdf:resource="http://creativecommons.org/ns#DerivativeWorks"/>
      </cc:License>
    </rdf:RDF>
  </metadata>
</svg>
