<?xml version="1.0"?>
<svg xmlns:rdf="http://www.w3.org/1999/02/22-rdf-syntax-ns#" xmlns="http://www.w3.org/2000/svg" xmlns:cc="http://creativecommons.org/ns#" xmlns:xlink="http://www.w3.org/1999/xlink" xmlns:dc="http://purl.org/dc/elements/1.1/" xmlns:svg="http://www.w3.org/2000/svg" id="svg2" viewBox="0 0 820 650" version="1.1">
  <defs id="defs4">
    <linearGradient id="linearGradient3645">
      <stop id="stop3647" stop-color="#fff" stop-opacity="0" offset="0"/>
      <stop id="stop3649" stop-color="#fff" offset="1"/>
    </linearGradient>
    <linearGradient id="linearGradient3865" x1="603.79" gradientUnits="userSpaceOnUse" y1="313.38" gradientTransform="translate(22.857 279.7)" x2="611.93" y2="533.38">
      <stop id="stop3861" offset="0"/>
      <stop id="stop3863" stop-opacity="0" offset="1"/>
    </linearGradient>
    <filter id="filter3887" width="1.085" y="-.23609" x="-.042477" height="1.4722" color-interpolation-filters="sRGB">
      <feGaussianBlur id="feGaussianBlur3889" stdDeviation="12.216349"/>
    </filter>
    <filter id="filter3911" color-interpolation-filters="sRGB">
      <feGaussianBlur id="feGaussianBlur3913" stdDeviation="7.2283045"/>
    </filter>
    <linearGradient id="linearGradient3925" x1="191.79" gradientUnits="userSpaceOnUse" y1="383.34" gradientTransform="matrix(1.0372 0 0 1.0225 1.044 265.51)" x2="915" y2="309.09">
      <stop id="stop3679" offset="0"/>
      <stop id="stop3681" stop-color="#fff" offset=".11878"/>
      <stop id="stop3683" stop-color="#fff" offset=".23756"/>
      <stop id="stop3685" offset=".47315"/>
      <stop id="stop3687" stop-color="#fff" offset=".735"/>
      <stop id="stop3689" offset="1"/>
    </linearGradient>
    <linearGradient id="linearGradient3927" x1="243.65" gradientUnits="userSpaceOnUse" y1="652.25" gradientTransform="translate(22.857 279.7)" x2="780.07" y2="295.98">
      <stop id="stop3595" offset="0"/>
      <stop id="stop3597" stop-color="#ff2a2a" offset="1"/>
    </linearGradient>
    <linearGradient id="linearGradient3929" x1="243.65" gradientUnits="userSpaceOnUse" y1="652.25" gradientTransform="translate(22.857 279.7)" x2="780.07" y2="295.98">
      <stop id="stop3699" offset="0"/>
      <stop id="stop3701" stop-color="#fff" offset=".11878"/>
      <stop id="stop3703" stop-color="#fff" offset=".23756"/>
      <stop id="stop3705" offset=".47315"/>
      <stop id="stop3707" stop-color="#fff" offset=".735"/>
      <stop id="stop3709" offset="1"/>
    </linearGradient>
    <linearGradient id="linearGradient3931" y2="746.7" gradientUnits="userSpaceOnUse" y1="746.7" x2="972.38" x1="260.58">
      <stop id="stop3737" stop-color="#2b0000" offset="0"/>
      <stop id="stop3739" stop-color="#ff2a2a" offset="1"/>
    </linearGradient>
    <linearGradient id="linearGradient3933" y2="905.56" gradientUnits="userSpaceOnUse" y1="902.11" x2="960.32" x1="255">
      <stop id="stop3743" stop-color="#4d4d4d" offset="0"/>
      <stop id="stop3852" stop-color="#fff" offset=".16251"/>
      <stop id="stop3745" offset=".32095"/>
      <stop id="stop3747" stop-color="#fff" offset=".52349"/>
      <stop id="stop3749" offset=".74878"/>
      <stop id="stop3751" stop-color="#fff" offset=".9294"/>
      <stop id="stop3753" offset="1"/>
    </linearGradient>
    <linearGradient id="linearGradient3935" x1="556.43" xlink:href="#linearGradient3645" gradientUnits="userSpaceOnUse" y1="619.09" gradientTransform="translate(2.8571 296.84)" x2="927.5" y2="361.95"/>
    <linearGradient id="linearGradient3937" x1="403.04" xlink:href="#linearGradient3645" gradientUnits="userSpaceOnUse" x2="910.34" y1="706" y2="361.72"/>
    <linearGradient id="linearGradient3939" x1="695.56" xlink:href="#linearGradient3645" gradientUnits="userSpaceOnUse" y1="547.16" gradientTransform="matrix(.88146 0 0 .88146 109.44 345.95)" x2="927.5" y2="361.95"/>
    <linearGradient id="linearGradient3142" x1="726.13" gradientUnits="userSpaceOnUse" y1="185.71" gradientTransform="matrix(.67538 -.0065159 .0071401 .74008 306.23 541.04)" x2="622.33" y2="287.74">
      <stop id="stop4138" stop-color="#808080" offset="0"/>
      <stop id="stop4140" stop-color="#f1f1f1" offset=".34923"/>
      <stop id="stop4142" stop-color="#f0f0f0" offset="1"/>
    </linearGradient>
    <filter id="filter4185">
      <feGaussianBlur id="feGaussianBlur4187" stdDeviation="3.402289"/>
    </filter>
    <linearGradient id="linearGradient4216" y2="719.26" gradientUnits="userSpaceOnUse" y1="663.54" x2="685.77" x1="567.2">
      <stop id="stop4212" stop-color="#fff" offset="0"/>
      <stop id="stop4214" stop-color="#808080" stop-opacity="0" offset="1"/>
    </linearGradient>
    <linearGradient id="linearGradient4269" y2="863.9" gradientUnits="userSpaceOnUse" y1="863.9" x2="832.39" x1="777.9">
      <stop id="stop4265" stop-color="#fff" offset="0"/>
      <stop id="stop4267" stop-color="#fff" stop-opacity="0" offset="1"/>
    </linearGradient>
  </defs>
  <g id="layer1" transform="translate(-185.42 -455.33)">
    <path id="path3691" d="m265.23 488.11 141.19 0.50507c31.116 0 55.586 28.077 55.586 58.752l448.1 0.21896c30.372 0 53.849 37.844 53.849 67.786l-0.0685 359.06c-5.5667 22.635-7.3222 20.686-36.135 22.732l-605.87 77.079c-30.372 0-37.741 1.6499-42.885-27.848-13.332-76.45-44.915-340.59-68.225-504.6 0-29.942 24.081-53.681 54.453-53.681h-0.00003z" fill-rule="evenodd" stroke="url(#linearGradient3925)" stroke-width="5" fill="#b3b3b3"/>
    <path id="rect2816" d="m285.36 506.29h120c30 0 52.5 22.5 52.5 52.5l449.29 4.2857c29.283 0 52.857 23.574 52.857 52.857l-8.673 326.92c0 29.283 4.752 41.674-24.531 41.674l-611.71 86.984c-28.778-6.566-29.202-2.5889-33.935-30.215-24.331-142.03-27.866-320.61-42.234-482.5 0-29.283 17.156-52.5 46.439-52.5z" fill-rule="evenodd" stroke="url(#linearGradient3929)" stroke-width="5" fill="url(#linearGradient3927)"/>
    <path id="path3854" d="m425.72 590.06c184.9-0.3245 329.77 0.26124 501.43-0.50102 9.0744-1.2813 14.513 1.5033 21.504 6.9067 27.828 22.17 1.3092 34.999-11.502 50.184l-652.15 201.07c-1.8803-9.4171-24.809-215.31-25.773-226.21 98.999 2.4105 175.44 11.726 166.49-31.451z" filter="url(#filter3887)" stroke="#000" stroke-width="1px" fill="url(#linearGradient3865)"/>
    <g id="g3915" transform="translate(22.857 -28.571)">
      <path id="path3601" d="m435 632.36h480c29.283 0 52.857 20.819 52.857 46.679 0 0-23.666 308.4-26.01 321.36-4.0621 22.442-4.1261 22.759-33.195 26.292l-618.42 75.161c-22.197 1.4697-25.744-3.8211-18.076-3.7941 20.78-70.1-6.81-279.31-17.15-413.24 1.194-8.5623 7.8571-15 15-15h135c16.461-2.5011 26.87-19.526 30-37.5z" fill-rule="evenodd" stroke="url(#linearGradient3933)" stroke-width="5" fill="url(#linearGradient3931)"/>
      <path id="path3640" opacity=".753" fill="url(#linearGradient3935)" d="m467.86 650.93h412.5c45 0 70.102-3.1828 70.102 41.817l-21.642 243.18c0 22.5-20.48 36.919-47.127 45l-58.71 7.388c-67.27-124.54-134.87-255.04-355.12-337.39"/>
      <path id="path3755" opacity=".75096" transform="translate(0 308.27)" fill="url(#linearGradient3937)" d="m292.39 380.42c290.31-17.249 391.35 185.51 461.73 307.74l-438.71 63.305-31.073-359.41c-0.2128-6.1097 2.7539-11.983 8.054-11.633z"/>
      <path id="path3891" opacity=".753" filter="url(#filter3911)" fill="url(#linearGradient3939)" d="m519.32 658.07h363.6c39.666 0 61.792-2.8055 61.792 36.86l-19.077 214.36c0 19.833-18.052 32.542-41.54 39.666l-51.751 6.5122c-59.29-109.79-118.88-224.82-313.02-297.4"/>
    </g>
    <path id="path930" opacity=".75479" d="m534.13 638.1 25.521 358.76 294.58-41.655-16.105-232.64-80.739-86.777-223.25 2.3124z" fill-rule="evenodd" filter="url(#filter4185)" fill="#fff"/>
    <path id="path4134" stroke="#fff" stroke-width="5" fill="none" d="m534.13 638.1 24.807 358.05 295.29-40.94-16.105-232.64-80.739-86.777-223.25 2.3124z"/>
    <path id="path4189" stroke="#a6a0a0" stroke-width="5" fill="url(#linearGradient4216)" d="m569.7 666.22 109.29-0.17858 4.2857 50.714h-107.14l-4.2857-50"/>
    <path id="path4218" d="m390 295 225-5" transform="translate(185.42 455.33)" stroke="#989292" stroke-width="5" fill="none"/>
    <path id="path4220" stroke="#989292" stroke-width="5" fill="none" d="m577.02 781.76 223.4-6.4286"/>
    <path id="path4222" stroke="#989292" stroke-width="5" fill="none" d="m579.46 814.62 225-9.2857"/>
    <path id="path4224" stroke="#989292" stroke-width="5" fill="none" d="m581.3 847.05 187.3-12.22"/>
    <path id="path4226" stroke="#989292" stroke-width="5" fill="none" d="m584 879.83 186.11-15"/>
    <path id="path4228" stroke="#989292" stroke-width="5" fill="none" d="m586.53 909.83 186.11-17.03"/>
    <path id="path4232" stroke="#989292" stroke-width="5" fill="url(#linearGradient4269)" d="m780.4 831.58 42.426-3.0305 7.0711 67.68-42.426 3.0304-7.0711-67.68"/>
    <path id="path4236" stroke="#989292" stroke-width="5" fill="none" d="m588.04 932.55 246.72-24.09"/>
    <path id="path4238" stroke="#989292" stroke-width="5" fill="none" d="m589.05 944.68 247.73-26.12"/>
    <path id="path4240" stroke="#989292" stroke-width="5" fill="none" d="m589.05 957.3 249.25-29.64"/>
    <path id="path4271" stroke="#fff" stroke-width="5" fill="none" d="m534.13 638.1 24.807 358.05 295.29-40.94-16.105-232.64-80.739-86.777-223.25 2.3124z"/>
    <path id="path906" stroke-width=".95407pt" fill-rule="evenodd" fill="url(#linearGradient3142)" d="m840.58 720.86c-2.0547 1.3011-1.5702 3.2495-4.583 1.7312-20.896-10.531-55.968-7.5081-76.635-3.7399 3.558-24.374 1.863-54.591-2.7048-80.125-0.33508-1.873 2.3338-3.8984 1.9336-5.7148l81.989 87.848z"/>
  </g>
  <metadata>
    <rdf:RDF>
      <cc:Work>
        <dc:format>image/svg+xml</dc:format>
        <dc:type rdf:resource="http://purl.org/dc/dcmitype/StillImage"/>
        <cc:license rdf:resource="http://creativecommons.org/licenses/publicdomain/"/>
        <dc:publisher>
          <cc:Agent rdf:about="http://openclipart.org/">
            <dc:title>Openclipart</dc:title>
          </cc:Agent>
        </dc:publisher>
        <dc:title>Folder icon red document</dc:title>
        <dc:date>2012-02-08T16:11:24</dc:date>
        <dc:description>Icono de carpeta inspirado en la idea de ilnanny, con la ayuda de algunos elementos de la galeria.</dc:description>
        <dc:source>http://openclipart.org/detail/167996/folder-icon-red-document-by-roshellin</dc:source>
        <dc:creator>
          <cc:Agent>
            <dc:title>roshellin</dc:title>
          </cc:Agent>
        </dc:creator>
        <dc:subject>
          <rdf:Bag>
            <rdf:li>Folder</rdf:li>
            <rdf:li>clip art</rdf:li>
            <rdf:li>clipart</rdf:li>
            <rdf:li>document</rdf:li>
            <rdf:li>icon</rdf:li>
            <rdf:li>red</rdf:li>
            <rdf:li>roshellin</rdf:li>
          </rdf:Bag>
        </dc:subject>
      </cc:Work>
      <cc:License rdf:about="http://creativecommons.org/licenses/publicdomain/">
        <cc:permits rdf:resource="http://creativecommons.org/ns#Reproduction"/>
        <cc:permits rdf:resource="http://creativecommons.org/ns#Distribution"/>
        <cc:permits rdf:resource="http://creativecommons.org/ns#DerivativeWorks"/>
      </cc:License>
    </rdf:RDF>
  </metadata>
</svg>
