<?xml version="1.0"?>
<svg xmlns:rdf="http://www.w3.org/1999/02/22-rdf-syntax-ns#" xmlns="http://www.w3.org/2000/svg" xmlns:cc="http://creativecommons.org/ns#" xmlns:xlink="http://www.w3.org/1999/xlink" xmlns:dc="http://purl.org/dc/elements/1.1/" xmlns:svg="http://www.w3.org/2000/svg" id="svg4654" viewBox="0 0 48 48">
  <defs id="defs3">
    <radialGradient id="radialGradient11613" gradientUnits="userSpaceOnUse" cy="32.343" cx="24.345" gradientTransform="matrix(1 0 0 .61947 2.8185e-15 12.307)" r="22.829">
      <stop id="stop11609" offset="0"/>
      <stop id="stop11611" stop-opacity="0" offset="1"/>
    </radialGradient>
    <linearGradient id="linearGradient11627" y2="15.069" gradientUnits="userSpaceOnUse" x2="23.991" y1="6.5837" x1="23.991">
      <stop id="stop11623" stop-color="#b1b1b1" offset="0"/>
      <stop id="stop11629" stop-color="#dfdfdf" offset=".2"/>
      <stop id="stop11625" stop-color="#565656" offset="1"/>
    </linearGradient>
    <linearGradient id="linearGradient11641" x1="10.807" gradientUnits="userSpaceOnUse" x2="16.002" gradientTransform="matrix(.77142 0 0 1 5.8484 1)" y1="2.4829" y2="56.4">
      <stop id="stop11637" stop-color="#fff" offset="0"/>
      <stop id="stop11639" stop-color="#fff" stop-opacity="0" offset="1"/>
    </linearGradient>
    <linearGradient id="linearGradient11958" y2="7.1877" gradientUnits="userSpaceOnUse" x2="23.991" y1="12.83" x1="23.991">
      <stop id="stop11952" stop-color="#fff" offset="0"/>
      <stop id="stop11954" stop-color="#a9a9a9" offset="1"/>
    </linearGradient>
    <radialGradient id="radialGradient12258" gradientUnits="userSpaceOnUse" cy="14.245" cx="20.589" gradientTransform="matrix(1.8664 -5.505e-25 1.6381e-24 2.3051 -16.992 -19.013)" r="13.262">
      <stop id="stop11599" stop-color="#fff" offset="0"/>
      <stop id="stop11643" stop-color="#d9d9d9" offset=".37333"/>
      <stop id="stop11964" stop-color="#c5c5c5" offset=".60311"/>
      <stop id="stop11601" stop-color="#909090" offset="1"/>
    </radialGradient>
    <linearGradient id="linearGradient12278" x1="35.743" gradientUnits="userSpaceOnUse" x2="36.543" gradientTransform="matrix(.84053 0 0 1 4.1706 0)" y1="4.375" y2="-1">
      <stop id="stop12272" stop-color="#acacac" offset="0"/>
      <stop id="stop12274" stop-color="#8d8d8d" stop-opacity="0" offset="1"/>
    </linearGradient>
  </defs>
  <g id="layer1">
    <path id="path11605" style="color:#000000" d="m47.174 32.343a22.829 14.142 0 1 1 -45.659 0 22.829 14.142 0 1 1 45.659 0z" fill-rule="evenodd" transform="matrix(.68419 0 0 1.2411 7.9766 -9.191)" fill="url(#radialGradient11613)"/>
    <path id="path12260" d="m23.923 10.5c-3.362-7.5-1.891-8.75 5.043-6.75 6.789 1.9579 14.499 10.25 13.869 1.5-0.668-9.2699-9.456-14-9.456-14" stroke="url(#linearGradient12278)" fill="none"/>
    <path id="path11595" d="m9.9399 27.131c-2.4564 10.907 4.7011 18.41 15.447 18.41 10.63 0 15.915-8.69 13.726-18.41l-3.49-13.014c-0.407-1.823-1.276-2.406-1.861-2.605-5.723-2.5692-13.785-2.693-18.82 0-0.64 0.348-1.105 0.348-1.571 2.084l-3.4311 13.535z" stroke="#4f4f4f" fill-rule="evenodd" fill="url(#radialGradient12258)"/>
    <g id="g11960" transform="matrix(.84053 0 0 1 4.1706 1)" fill-rule="evenodd">
      <path id="path11948" d="m8.5737 22.948c8.2323-5.303 21.281-5.909 29.951-0.606-7.693-3.877-20.706-4.344-29.951 0.606z" fill="#fff" fill-opacity=".79661"/>
      <path id="path11615" d="m8.7504 22.727c8.6296-6.231 21.281-6.307 29.686-0.473-7.78-4.673-20.75-4.963-29.686 0.473z" fill-opacity=".25989"/>
    </g>
    <path id="path11617" style="color:#000000" d="m26.163 11.331a2.1718 4.7477 0 1 1 -4.344 0 2.1718 4.7477 0 1 1 4.344 0z" fill-rule="evenodd" transform="matrix(1.6663 0 0 1.4178 -15.706 .34787)" fill="url(#linearGradient11958)"/>
    <path id="path11633" d="m10.487 28.908c-1.4079 8.461 4.638 15.666 14.972 15.666s14.289-8.698 13.114-15.666l-3.725-13.958c-0.309-2.196-1.22-2.407-1.759-2.619-5.851-2.296-12.674-2.4855-17.441 0-0.598 0.311-1.093 0.193-1.456 1.777l-3.705 14.8z" stroke="url(#linearGradient11641)" fill="none"/>
    <path id="path11619" style="color:#000000" d="m26.163 11.331a2.1718 4.7477 0 1 1 -4.344 0 2.1718 4.7477 0 1 1 4.344 0z" fill-rule="evenodd" transform="matrix(.84053 0 0 1 4.0856 2.7425)" stroke="#595959" stroke-width=".54537" fill="url(#linearGradient11627)"/>
    <path id="path11631" style="color:#000000" d="m26.163 11.331a2.1718 4.7477 0 1 1 -4.344 0 2.1718 4.7477 0 1 1 4.344 0z" fill-opacity=".33333" fill-rule="evenodd" transform="matrix(.23456 0 0 .54255 17.987 6.3603)" fill="#fff"/>
  </g>
  <metadata>
    <rdf:RDF>
      <cc:Work>
        <dc:format>image/svg+xml</dc:format>
        <dc:type rdf:resource="http://purl.org/dc/dcmitype/StillImage"/>
        <cc:license rdf:resource="http://creativecommons.org/licenses/publicdomain/"/>
        <dc:publisher>
          <cc:Agent rdf:about="http://openclipart.org/">
            <dc:title>Openclipart</dc:title>
          </cc:Agent>
        </dc:publisher>
        <dc:title>tango input mouse</dc:title>
        <dc:date>2010-03-27T10:18:20</dc:date>
        <dc:description>"Mouse" icon from &lt;a href="http://tango.freedesktop.org/Tango_Desktop_Project"&gt; Tango Project &lt;/a&gt; &#xD;\n&lt;br&gt;&lt;br&gt;&#xD;\nSince version 0.8.90 Tango Project icons are Public Domain: &lt;a href="http://tango.freedesktop.org/Frequently_Asked_Questions#Terms_of_Use.3F"&gt; Tango Project FAQ &lt;/a&gt;</dc:description>
        <dc:source>http://openclipart.org/detail/34567/tango-input-mouse-by-warszawianka</dc:source>
        <dc:creator>
          <cc:Agent>
            <dc:title>warszawianka</dc:title>
          </cc:Agent>
        </dc:creator>
        <dc:subject>
          <rdf:Bag>
            <rdf:li>clip art</rdf:li>
            <rdf:li>clipart</rdf:li>
            <rdf:li>device</rdf:li>
            <rdf:li>externalsource</rdf:li>
            <rdf:li>hardware</rdf:li>
            <rdf:li>icon</rdf:li>
            <rdf:li>input</rdf:li>
            <rdf:li>mouse</rdf:li>
            <rdf:li>tango</rdf:li>
          </rdf:Bag>
        </dc:subject>
      </cc:Work>
      <cc:License rdf:about="http://creativecommons.org/licenses/publicdomain/">
        <cc:permits rdf:resource="http://creativecommons.org/ns#Reproduction"/>
        <cc:permits rdf:resource="http://creativecommons.org/ns#Distribution"/>
        <cc:permits rdf:resource="http://creativecommons.org/ns#DerivativeWorks"/>
      </cc:License>
    </rdf:RDF>
  </metadata>
</svg>
