<?xml version="1.0"?>
<svg xmlns:rdf="http://www.w3.org/1999/02/22-rdf-syntax-ns#" xmlns="http://www.w3.org/2000/svg" xmlns:cc="http://creativecommons.org/ns#" xmlns:xlink="http://www.w3.org/1999/xlink" xmlns:dc="http://purl.org/dc/elements/1.1/" xmlns:svg="http://www.w3.org/2000/svg" id="svg2327" viewBox="0 0 48 48">
  <defs id="defs3">
    <radialGradient id="radialGradient6719" xlink:href="#linearGradient5060" gradientUnits="userSpaceOnUse" cy="486.65" cx="605.71" gradientTransform="matrix(-2.7744 0 0 1.9697 112.76 -872.89)" r="117.14"/>
    <linearGradient id="linearGradient5060">
      <stop id="stop5062" offset="0"/>
      <stop id="stop5064" stop-opacity="0" offset="1"/>
    </linearGradient>
    <radialGradient id="radialGradient6717" xlink:href="#linearGradient5060" gradientUnits="userSpaceOnUse" cy="486.65" cx="605.71" gradientTransform="matrix(2.7744 0 0 1.9697 -1891.6 -872.89)" r="117.14"/>
    <linearGradient id="linearGradient6715" x1="302.86" gradientUnits="userSpaceOnUse" y1="366.65" gradientTransform="matrix(2.7744 0 0 1.9697 -1892.2 -872.89)" x2="302.86" y2="609.51">
      <stop id="stop5050" stop-opacity="0" offset="0"/>
      <stop id="stop5056" offset=".5"/>
      <stop id="stop5052" stop-opacity="0" offset="1"/>
    </linearGradient>
    <linearGradient id="linearGradient4003" y2="43.378" gradientUnits="userSpaceOnUse" x2="30.142" y1="20.937" x1="12.094">
      <stop id="stop3999" stop-color="#ebebeb" offset="0"/>
      <stop id="stop4001" stop-color="#acacac" offset="1"/>
    </linearGradient>
    <linearGradient id="linearGradient4015" y2="52.666" gradientUnits="userSpaceOnUse" x2="17.701" y1="19.736" x1="11.89">
      <stop id="stop4011" stop-color="#fff" offset="0"/>
      <stop id="stop4013" stop-color="#fff" stop-opacity="0" offset="1"/>
    </linearGradient>
    <linearGradient id="linearGradient4554" y2="5.011" gradientUnits="userSpaceOnUse" x2="35.257" y1="14.911" x1="11.503">
      <stop id="stop4550" stop-color="#8c8c8c" offset="0"/>
      <stop id="stop4552" stop-color="#8c8c8c" stop-opacity="0" offset="1"/>
    </linearGradient>
  </defs>
  <g id="layer1">
    <path id="path3995" stroke="url(#linearGradient4554)" stroke-width="1px" fill="none" d="m10.5 19.25c0.25-7.375 4.125-11 9.25-10.875s5.875 3.375 12.625 3.375 6.75-4.5 5.625-5.75-2.375-2.5-2.375-2.5"/>
    <g id="g6707" transform="matrix(.024466 0 0 .020868 44.948 38.904)">
      <rect id="rect6709" opacity=".40206" style="color:black" height="478.36" width="1339.6" y="-150.7" x="-1559.3" fill="url(#linearGradient6715)"/>
      <path id="path6711" opacity=".40206" style="color:black" fill="url(#radialGradient6717)" d="m-219.62-150.68v478.33c142.88 0.9 345.4-107.17 345.4-239.2 0-132.02-159.44-239.13-345.4-239.13z"/>
      <path id="path6713" opacity=".40206" style="color:black" fill="url(#radialGradient6719)" d="m-1559.3-150.68v478.33c-142.8 0.9-345.4-107.17-345.4-239.2 0-132.02 159.5-239.13 345.4-239.13z"/>
    </g>
    <path id="path3233" stroke="#626262" fill-rule="evenodd" fill="url(#linearGradient4003)" d="m1.625 40.72c-0.3125 0.937 0.1875 1.562 1.125 1.625h39.75c1.438 0.062 2-0.875 1.875-1.625l-3.625-19.33c-0.188-1.25-1.25-1.937-2.25-1.875h-30.75c-1-0.062-1.5625 0.813-1.75 1.75l-4.375 19.455z"/>
    <g id="g4019" transform="translate(-1.9375 -1)" fill-rule="evenodd">
      <rect id="rect4017" style="color:#000000" rx=".6875" ry=".6875" height="2.9375" width="13.938" y="35.125" x="11.188" fill="#6d6d6d"/>
      <rect id="rect3235" style="color:#000000" rx=".6875" ry=".6875" height="1.875" width="13.438" y="35.062" x="11.312" fill="#e4e4e4"/>
    </g>
    <g id="g4157" transform="matrix(.23318 0 0 1 4.9083 -11.553)" fill-rule="evenodd">
      <rect id="rect4159" style="color:#000000" rx="2.9483" ry=".6875" height="2.9375" width="13.938" y="35.125" x="11.188" fill="#6d6d6d"/>
      <rect id="rect4161" style="color:#000000" rx="2.9483" ry=".6875" height="1.875" width="13.438" y="35.062" x="11.312" fill="#e4e4e4"/>
    </g>
    <g id="g4178" transform="matrix(.23318 0 0 1 20.797 -11.553)" fill-rule="evenodd">
      <rect id="rect4180" style="color:#000000" rx="2.9483" ry=".6875" height="2.9375" width="13.938" y="35.125" x="11.188" fill="#6d6d6d"/>
      <rect id="rect4182" style="color:#000000" rx="2.9483" ry=".6875" height="1.875" width="13.438" y="35.062" x="11.312" fill="#e4e4e4"/>
    </g>
    <g id="g4151" transform="matrix(.23318 0 0 1 8.7973 -11.553)" fill-rule="evenodd">
      <rect id="rect4153" style="color:#000000" rx="2.9483" ry=".6875" height="2.9375" width="13.938" y="35.125" x="11.188" fill="#6d6d6d"/>
      <rect id="rect4155" style="color:#000000" rx="2.9483" ry=".6875" height="1.875" width="13.438" y="35.062" x="11.312" fill="#e4e4e4"/>
    </g>
    <path id="path4005" stroke="url(#linearGradient4015)" fill="none" d="m2.716 40.202c-0.3333 1.243-0.391 1.094 0.9359 1.094h37.734c1.642 0 2.199 0.269 1.831-1.157l-3.356-18.151c-0.268-1.403-0.675-1.487-2.247-1.487h-28.997c-1.4133 0-1.3485 0.079-1.6503 1.338l-4.2507 18.363z"/>
    <g id="g4023" transform="matrix(.23318 0 0 1 21.079 -1)" fill-rule="evenodd">
      <rect id="rect4025" style="color:#000000" rx="2.9483" ry=".6875" height="2.9375" width="13.938" y="35.125" x="11.188" fill="#6d6d6d"/>
      <rect id="rect4027" style="color:#000000" rx="2.9483" ry=".6875" height="1.875" width="13.438" y="35.062" x="11.312" fill="#e4e4e4"/>
    </g>
    <g id="g4029" transform="matrix(.23318 0 0 1 2.7662 -1)" fill-rule="evenodd">
      <rect id="rect4031" style="color:#000000" rx="2.9483" ry=".6875" height="2.9375" width="13.938" y="35.125" x="11.188" fill="#6d6d6d"/>
      <rect id="rect4033" style="color:#000000" rx="2.9483" ry=".6875" height="1.875" width="13.438" y="35.062" x="11.312" fill="#e4e4e4"/>
    </g>
    <g id="g4035" transform="matrix(.23318 0 0 1 26.954 -1)" fill-rule="evenodd">
      <rect id="rect4037" style="color:#000000" rx="2.9483" ry=".6875" height="2.9375" width="13.938" y="35.125" x="11.188" fill="#6d6d6d"/>
      <rect id="rect4039" style="color:#000000" rx="2.9483" ry=".6875" height="1.875" width="13.438" y="35.062" x="11.312" fill="#e4e4e4"/>
    </g>
    <g id="g4053" transform="matrix(.23318 0 0 1 30.454 -4)" fill-rule="evenodd">
      <rect id="rect4055" style="color:#000000" rx="2.9483" ry=".6875" height="2.9375" width="13.938" y="35.125" x="11.188" fill="#6d6d6d"/>
      <rect id="rect4057" style="color:#000000" rx="2.9483" ry=".6875" height="1.875" width="13.438" y="35.062" x="11.312" fill="#e4e4e4"/>
    </g>
    <g id="g4041" transform="matrix(.23318 0 0 1 30.704 -1)" fill-rule="evenodd">
      <rect id="rect4043" style="color:#000000" rx="2.9483" ry=".6875" height="2.9375" width="13.938" y="35.125" x="11.188" fill="#6d6d6d"/>
      <rect id="rect4045" style="color:#000000" rx="2.9483" ry=".6875" height="1.875" width="13.438" y="35.062" x="11.312" fill="#e4e4e4"/>
    </g>
    <g id="g4047" transform="matrix(.23318 0 0 1 34.391 -1)" fill-rule="evenodd">
      <rect id="rect4049" style="color:#000000" rx="2.9483" ry=".6875" height="2.9375" width="13.938" y="35.125" x="11.188" fill="#6d6d6d"/>
      <rect id="rect4051" style="color:#000000" rx="2.9483" ry=".6875" height="1.875" width="13.438" y="35.062" x="11.312" fill="#e4e4e4"/>
    </g>
    <g id="g4085" transform="matrix(.23318 0 0 1 3.7038 -5.0607)" fill-rule="evenodd">
      <rect id="rect4087" style="color:#000000" rx="2.9483" ry=".6875" height="2.9375" width="13.938" y="35.125" x="11.188" fill="#6d6d6d"/>
      <rect id="rect4089" style="color:#000000" rx="2.9483" ry=".6875" height="1.875" width="13.438" y="35.062" x="11.312" fill="#e4e4e4"/>
    </g>
    <g id="g4091" transform="matrix(.23318 0 0 1 7.7038 -5.0607)" fill-rule="evenodd">
      <rect id="rect4093" style="color:#000000" rx="2.9483" ry=".6875" height="2.9375" width="13.938" y="35.125" x="11.188" fill="#6d6d6d"/>
      <rect id="rect4095" style="color:#000000" rx="2.9483" ry=".6875" height="1.875" width="13.438" y="35.062" x="11.312" fill="#e4e4e4"/>
    </g>
    <g id="g4097" transform="matrix(.23318 0 0 1 11.704 -5.0607)" fill-rule="evenodd">
      <rect id="rect4099" style="color:#000000" rx="2.9483" ry=".6875" height="2.9375" width="13.938" y="35.125" x="11.188" fill="#6d6d6d"/>
      <rect id="rect4101" style="color:#000000" rx="2.9483" ry=".6875" height="1.875" width="13.438" y="35.062" x="11.312" fill="#e4e4e4"/>
    </g>
    <g id="g4103" transform="matrix(.23318 0 0 1 15.704 -5.0607)" fill-rule="evenodd">
      <rect id="rect4105" style="color:#000000" rx="2.9483" ry=".6875" height="2.9375" width="13.938" y="35.125" x="11.188" fill="#6d6d6d"/>
      <rect id="rect4107" style="color:#000000" rx="2.9483" ry=".6875" height="1.875" width="13.438" y="35.062" x="11.312" fill="#e4e4e4"/>
    </g>
    <g id="g4121" transform="matrix(.23318 0 0 1 21.704 -8.2097)" fill-rule="evenodd">
      <rect id="rect4123" style="color:#000000" rx="2.9483" ry=".6875" height="2.9375" width="13.938" y="35.125" x="11.188" fill="#6d6d6d"/>
      <rect id="rect4125" style="color:#000000" rx="2.9483" ry=".6875" height="1.875" width="13.438" y="35.062" x="11.312" fill="#e4e4e4"/>
    </g>
    <g id="g4109" transform="matrix(.23318 0 0 1 19.704 -5.0607)" fill-rule="evenodd">
      <rect id="rect4111" style="color:#000000" rx="2.9483" ry=".6875" height="2.9375" width="13.938" y="35.125" x="11.188" fill="#6d6d6d"/>
      <rect id="rect4113" style="color:#000000" rx="2.9483" ry=".6875" height="1.875" width="13.438" y="35.062" x="11.312" fill="#e4e4e4"/>
    </g>
    <g id="g4115" transform="matrix(.23318 0 0 1 23.704 -5.0607)" fill-rule="evenodd">
      <rect id="rect4117" style="color:#000000" rx="2.9483" ry=".6875" height="2.9375" width="13.938" y="35.125" x="11.188" fill="#6d6d6d"/>
      <rect id="rect4119" style="color:#000000" rx="2.9483" ry=".6875" height="1.875" width="13.438" y="35.062" x="11.312" fill="#e4e4e4"/>
    </g>
    <g id="g4172" transform="matrix(.23318 0 0 1 16.797 -11.553)" fill-rule="evenodd">
      <rect id="rect4174" style="color:#000000" rx="2.9483" ry=".6875" height="2.9375" width="13.938" y="35.125" x="11.188" fill="#6d6d6d"/>
      <rect id="rect4176" style="color:#000000" rx="2.9483" ry=".6875" height="1.875" width="13.438" y="35.062" x="11.312" fill="#e4e4e4"/>
    </g>
    <g id="g4127" transform="matrix(.23318 0 0 1 17.704 -8.2097)" fill-rule="evenodd">
      <rect id="rect4129" style="color:#000000" rx="2.9483" ry=".6875" height="2.9375" width="13.938" y="35.125" x="11.188" fill="#6d6d6d"/>
      <rect id="rect4131" style="color:#000000" rx="2.9483" ry=".6875" height="1.875" width="13.438" y="35.062" x="11.312" fill="#e4e4e4"/>
    </g>
    <g id="g4166" transform="matrix(.23318 0 0 1 12.797 -11.553)" fill-rule="evenodd">
      <rect id="rect4168" style="color:#000000" rx="2.9483" ry=".6875" height="2.9375" width="13.938" y="35.125" x="11.188" fill="#6d6d6d"/>
      <rect id="rect4170" style="color:#000000" rx="2.9483" ry=".6875" height="1.875" width="13.438" y="35.062" x="11.312" fill="#e4e4e4"/>
    </g>
    <g id="g4133" transform="matrix(.23318 0 0 1 13.704 -8.2097)" fill-rule="evenodd">
      <rect id="rect4135" style="color:#000000" rx="2.9483" ry=".6875" height="2.9375" width="13.938" y="35.125" x="11.188" fill="#6d6d6d"/>
      <rect id="rect4137" style="color:#000000" rx="2.9483" ry=".6875" height="1.875" width="13.438" y="35.062" x="11.312" fill="#e4e4e4"/>
    </g>
    <g id="g4139" transform="matrix(.23318 0 0 1 9.7038 -8.2097)" fill-rule="evenodd">
      <rect id="rect4141" style="color:#000000" rx="2.9483" ry=".6875" height="2.9375" width="13.938" y="35.125" x="11.188" fill="#6d6d6d"/>
      <rect id="rect4143" style="color:#000000" rx="2.9483" ry=".6875" height="1.875" width="13.438" y="35.062" x="11.312" fill="#e4e4e4"/>
    </g>
    <g id="g4145" transform="matrix(.23318 0 0 1 5.7038 -8.2097)" fill-rule="evenodd">
      <rect id="rect4147" style="color:#000000" rx="2.9483" ry=".6875" height="2.9375" width="13.938" y="35.125" x="11.188" fill="#6d6d6d"/>
      <rect id="rect4149" style="color:#000000" rx="2.9483" ry=".6875" height="1.875" width="13.438" y="35.062" x="11.312" fill="#e4e4e4"/>
    </g>
    <g id="g4220" transform="matrix(.23318 0 0 1 28.631 -8.1213)" fill-rule="evenodd">
      <rect id="rect4222" style="color:#000000" rx="2.9483" ry=".6875" height="2.9375" width="13.938" y="35.125" x="11.188" fill="#6d6d6d"/>
      <rect id="rect4224" style="color:#000000" rx="2.9483" ry=".6875" height="1.875" width="13.438" y="35.062" x="11.312" fill="#e4e4e4"/>
    </g>
    <g id="g4226" transform="matrix(.23318 0 0 1 32.631 -8.1213)" fill-rule="evenodd">
      <rect id="rect4228" style="color:#000000" rx="2.9483" ry=".6875" height="2.9375" width="13.938" y="35.125" x="11.188" fill="#6d6d6d"/>
      <rect id="rect4230" style="color:#000000" rx="2.9483" ry=".6875" height="1.875" width="13.438" y="35.062" x="11.312" fill="#e4e4e4"/>
    </g>
    <g id="g4264" transform="matrix(1 0 0 1.45 .85096 -9.2931)" fill-rule="evenodd">
      <rect id="rect4254" style="color:#000000" rx="2.9483" ry=".47414" height="1.5026" width="2.4749" y="21.572" x="29.522" fill="#787843"/>
      <rect id="rect4256" style="color:#000000" rx="2.9483" ry=".47414" height="1.5026" width="2.4749" y="21.572" x="33.522" fill="#787843"/>
      <rect id="rect4250" style="color:#000000" rx="2.9483" ry=".47414" height="1.5026" width="2.4749" y="21.837" x="29.787" fill="#e7e745"/>
      <rect id="rect4252" style="color:#000000" rx="2.9483" ry=".47414" height="1.5026" width="2.4749" y="21.837" x="33.787" fill="#e7e745"/>
    </g>
  </g>
  <metadata>
    <rdf:RDF>
      <cc:Work>
        <dc:format>image/svg+xml</dc:format>
        <dc:type rdf:resource="http://purl.org/dc/dcmitype/StillImage"/>
        <cc:license rdf:resource="http://creativecommons.org/licenses/publicdomain/"/>
        <dc:publisher>
          <cc:Agent rdf:about="http://openclipart.org/">
            <dc:title>Openclipart</dc:title>
          </cc:Agent>
        </dc:publisher>
        <dc:title>tango input keyboard</dc:title>
        <dc:date>2010-03-27T10:17:43</dc:date>
        <dc:description>"Keyboard" icon from &lt;a href="http://tango.freedesktop.org/Tango_Desktop_Project"&gt; Tango Project &lt;/a&gt; &#xD;\n&lt;br&gt;&lt;br&gt;&#xD;\nSince version 0.8.90 Tango Project icons are Public Domain: &lt;a href="http://tango.freedesktop.org/Frequently_Asked_Questions#Terms_of_Use.3F"&gt; Tango Project FAQ &lt;/a&gt;</dc:description>
        <dc:source>http://openclipart.org/detail/34561/tango-input-keyboard-by-warszawianka</dc:source>
        <dc:creator>
          <cc:Agent>
            <dc:title>warszawianka</dc:title>
          </cc:Agent>
        </dc:creator>
        <dc:subject>
          <rdf:Bag>
            <rdf:li>clip art</rdf:li>
            <rdf:li>clipart</rdf:li>
            <rdf:li>device</rdf:li>
            <rdf:li>externalsource</rdf:li>
            <rdf:li>hardware</rdf:li>
            <rdf:li>icon</rdf:li>
            <rdf:li>input</rdf:li>
            <rdf:li>keyboard</rdf:li>
            <rdf:li>tango</rdf:li>
          </rdf:Bag>
        </dc:subject>
      </cc:Work>
      <cc:License rdf:about="http://creativecommons.org/licenses/publicdomain/">
        <cc:permits rdf:resource="http://creativecommons.org/ns#Reproduction"/>
        <cc:permits rdf:resource="http://creativecommons.org/ns#Distribution"/>
        <cc:permits rdf:resource="http://creativecommons.org/ns#DerivativeWorks"/>
      </cc:License>
    </rdf:RDF>
  </metadata>
</svg>
