<?xml version="1.0"?>
<svg xmlns:rdf="http://www.w3.org/1999/02/22-rdf-syntax-ns#" xmlns="http://www.w3.org/2000/svg" xmlns:cc="http://creativecommons.org/ns#" xmlns:xlink="http://www.w3.org/1999/xlink" xmlns:dc="http://purl.org/dc/elements/1.1/" xmlns:svg="http://www.w3.org/2000/svg" id="svg5816" viewBox="0 0 48 48">
  <defs id="defs3">
    <radialGradient id="radialGradient6719" xlink:href="#linearGradient5060" gradientUnits="userSpaceOnUse" cy="486.65" cx="605.71" gradientTransform="matrix(-2.7744 0 0 1.9697 112.76 -872.89)" r="117.14"/>
    <linearGradient id="linearGradient5060">
      <stop id="stop5062" offset="0"/>
      <stop id="stop5064" stop-opacity="0" offset="1"/>
    </linearGradient>
    <radialGradient id="radialGradient6717" xlink:href="#linearGradient5060" gradientUnits="userSpaceOnUse" cy="486.65" cx="605.71" gradientTransform="matrix(2.7744 0 0 1.9697 -1891.6 -872.89)" r="117.14"/>
    <linearGradient id="linearGradient6715" x1="302.86" gradientUnits="userSpaceOnUse" y1="366.65" gradientTransform="matrix(2.7744 0 0 1.9697 -1892.2 -872.89)" x2="302.86" y2="609.51">
      <stop id="stop5050" stop-opacity="0" offset="0"/>
      <stop id="stop5056" offset=".5"/>
      <stop id="stop5052" stop-opacity="0" offset="1"/>
    </linearGradient>
    <linearGradient id="linearGradient27463" x1="8.7804" gradientUnits="userSpaceOnUse" x2="9.7619" gradientTransform="matrix(2.3949 0 0 .78106 2.8795 .343)" y1="37.785" y2="32.203">
      <stop id="stop2276" stop-opacity=".12871" offset="0"/>
      <stop id="stop2278" stop-opacity="0" offset="1"/>
    </linearGradient>
    <linearGradient id="linearGradient27468" x1="11.233" gradientUnits="userSpaceOnUse" x2="21.112" gradientTransform="matrix(1.3709 0 0 1.4438 2.4311 -.14079)" y1="13.686" y2="24.133">
      <stop id="stop9751" stop-color="#fff" offset="0"/>
      <stop id="stop9753" stop-color="#ededed" offset="1"/>
    </linearGradient>
    <linearGradient id="linearGradient27471" x1="8.9156" gradientUnits="userSpaceOnUse" x2="9.8855" gradientTransform="matrix(2.4548 0 0 .762 2.8795 .343)" y1="37.197" y2="52.091">
      <stop id="stop2154" stop-color="#9aa29a" offset="0"/>
      <stop id="stop2156" stop-color="#b5beb5" offset="1"/>
    </linearGradient>
    <linearGradient id="linearGradient27477" x1="10.184" gradientUnits="userSpaceOnUse" x2="15.311" gradientTransform="matrix(1.8193 0 0 1.0282 2.8795 .343)" y1="15.148" y2="29.569">
      <stop id="stop2168" stop-color="#fff" offset="0"/>
      <stop id="stop2170" stop-color="#dcdcdc" offset="1"/>
    </linearGradient>
    <linearGradient id="linearGradient27483" x1="5.8266" gradientUnits="userSpaceOnUse" x2="13.467" gradientTransform="matrix(1.5706 0 0 1.191 2.8795 .343)" y1="7.2311" y2="17.877">
      <stop id="stop18915" stop-color="#ededed" offset="0"/>
      <stop id="stop18917" stop-color="#c8c8c8" offset="1"/>
    </linearGradient>
    <linearGradient id="linearGradient27486" x1="11.573" gradientUnits="userSpaceOnUse" x2="18.475" gradientTransform="matrix(1.3435 0 0 1.4179 2.8795 .31460)" y1="4.7462" y2="26.023">
      <stop id="stop15109" stop-color="#fff" offset="0"/>
      <stop id="stop15111" stop-color="#e2e2e2" offset="1"/>
    </linearGradient>
    <linearGradient id="linearGradient27488" x1="2.0619" gradientUnits="userSpaceOnUse" x2="30.6" gradientTransform="matrix(1.3435 0 0 1.4179 2.8795 .31460)" y1="15.257" y2="15.257">
      <stop id="stop2138" stop-color="#989690" offset="0"/>
      <stop id="stop2140" stop-color="#656460" offset="1"/>
    </linearGradient>
  </defs>
  <g id="layer1">
    <g id="g6707" transform="matrix(.0227 0 0 .022979 44.989 37.784)">
      <rect id="rect6709" opacity=".40206" style="color:black" height="478.36" width="1339.6" y="-150.7" x="-1559.3" fill="url(#linearGradient6715)"/>
      <path id="path6711" opacity=".40206" style="color:black" fill="url(#radialGradient6717)" d="m-219.62-150.68v478.33c142.88 0.9 345.4-107.17 345.4-239.2 0-132.02-159.44-239.13-345.4-239.13z"/>
      <path id="path6713" opacity=".40206" style="color:black" fill="url(#radialGradient6719)" d="m-1559.3-150.68v478.33c-142.8 0.9-345.4-107.17-345.4-239.2 0-132.02 159.5-239.13 345.4-239.13z"/>
    </g>
    <path id="path12723" stroke-linejoin="round" d="m6.3334 16.972v24.51h36.973l-0.062-24.392c-0.003-1.378-11.848-14.678-14.033-14.678l-8.552 0.0001c-2.297 0-14.326 13.262-14.326 14.56z" fill-rule="evenodd" stroke="url(#linearGradient27488)" stroke-width=".8566" fill="url(#linearGradient27486)"/>
    <path id="path18153" fill-rule="evenodd" fill="url(#linearGradient27483)" d="m6.9231 16.787c-0.3981-0.43 11.887-13.694 13.744-13.694l8.376 0.0005c1.747 0 14.037 13.128 13.427 13.886l-10.861 13.495-12.314-0.318-12.372-13.37z"/>
    <path id="path2164" fill-rule="evenodd" fill-opacity=".1462" d="m19.078 30.018l-7.333-8.746 24.818-6.936 3.029 6.216-7.416 9.44"/>
    <path id="path2162" fill-rule="evenodd" fill-opacity=".1462" d="m18.292 29.836l-7.483-8.81 24.648-6.893 3.174 6.271-7.241 9.407"/>
    <path id="path2160" fill-rule="evenodd" fill-opacity=".1462" d="m18.775 29.957l-7.675-8.66 24.968-7.065 3.286 6.593-7.48 9.107"/>
    <path id="path15105" fill-rule="evenodd" fill="url(#linearGradient27477)" d="m18.594 30.441l-7.333-8.746 24.712-6.894 3.11 6.388-7.12 8.986"/>
    <path id="path14245" fill-rule="evenodd" fill="url(#linearGradient27471)" d="m20.488 29.064l-13.396 10.972 13.909-9.604h9.018l12.42 9.482-11.864-10.85h-10.087z"/>
    <path id="path14339" style="color:#000000" fill-rule="evenodd" fill="url(#linearGradient27471)" d="m6.9635 16.885l11.516 14.316 1.068-0.854-12.584-13.462z"/>
    <path id="path15103" stroke="url(#linearGradient27468)" stroke-width=".8566" fill="none" d="m7.3077 17.131l0.0312 23.211h34.945l-0.063-23.084c-0.002-0.75-11.216-13.799-13.384-13.799l-7.895 0.0002c-2.253 0-13.635 12.892-13.634 13.672z"/>
    <path id="path17393" fill-rule="evenodd" fill="#fff" d="m20.957 30.453l-11.941 8.271 2.219 0.006 9.998-6.869 8.822-1.423-9.098 0.015z"/>
    <path id="path2174" fill-rule="evenodd" fill="#fff" d="m11.428 21.67l1.324 1.411 22.791-6.884 2.915 5.682 0.614-0.712-3.069-6.378-24.575 6.881z"/>
    <path id="path2272" fill-rule="evenodd" fill="url(#linearGradient27463)" d="m13.308 23.636l6.026 6.454 1.197-1.026 10.087 0.043 0.812 0.727 3.975-4.744c-1.154-1.411-22.097-1.454-22.097-1.454z"/>
    <path id="path27492" style="color:#000000" fill-rule="evenodd" fill="#b1b1b1" d="m41.813 17.848l-9.952 12.631-1.068-0.855 11.02-11.776z"/>
  </g>
  <metadata>
    <rdf:RDF>
      <cc:Work>
        <dc:format>image/svg+xml</dc:format>
        <dc:type rdf:resource="http://purl.org/dc/dcmitype/StillImage"/>
        <cc:license rdf:resource="http://creativecommons.org/licenses/publicdomain/"/>
        <dc:publisher>
          <cc:Agent rdf:about="http://openclipart.org/">
            <dc:title>Openclipart</dc:title>
          </cc:Agent>
        </dc:publisher>
        <dc:title>tango internet mail</dc:title>
        <dc:date>2010-03-29T08:04:16</dc:date>
        <dc:description>"E-mail" icon from &lt;a href="http://tango.freedesktop.org/Tango_Desktop_Project"&gt; Tango Project &lt;/a&gt; &#xD;\n&lt;br&gt;&lt;br&gt;&#xD;\nSince version 0.8.90 Tango Project icons are Public Domain: &lt;a href="http://tango.freedesktop.org/Frequently_Asked_Questions#Terms_of_Use.3F"&gt; Tango Project FAQ &lt;/a&gt;</dc:description>
        <dc:source>http://openclipart.org/detail/35215/tango-internet-mail-by-warszawianka</dc:source>
        <dc:creator>
          <cc:Agent>
            <dc:title>warszawianka</dc:title>
          </cc:Agent>
        </dc:creator>
        <dc:subject>
          <rdf:Bag>
            <rdf:li>clip art</rdf:li>
            <rdf:li>clipart</rdf:li>
            <rdf:li>email</rdf:li>
            <rdf:li>envelope</rdf:li>
            <rdf:li>externalsource</rdf:li>
            <rdf:li>icon</rdf:li>
            <rdf:li>letter</rdf:li>
            <rdf:li>tango</rdf:li>
          </rdf:Bag>
        </dc:subject>
      </cc:Work>
      <cc:License rdf:about="http://creativecommons.org/licenses/publicdomain/">
        <cc:permits rdf:resource="http://creativecommons.org/ns#Reproduction"/>
        <cc:permits rdf:resource="http://creativecommons.org/ns#Distribution"/>
        <cc:permits rdf:resource="http://creativecommons.org/ns#DerivativeWorks"/>
      </cc:License>
    </rdf:RDF>
  </metadata>
</svg>
