<?xml version="1.0"?>
<svg xmlns:rdf="http://www.w3.org/1999/02/22-rdf-syntax-ns#" xmlns="http://www.w3.org/2000/svg" xmlns:cc="http://creativecommons.org/ns#" xmlns:xlink="http://www.w3.org/1999/xlink" xmlns:dc="http://purl.org/dc/elements/1.1/" xmlns:svg="http://www.w3.org/2000/svg" id="svg5816" viewBox="0 0 48 48">
  <defs id="defs3">
    <radialGradient id="radialGradient6719" xlink:href="#linearGradient5060" gradientUnits="userSpaceOnUse" cy="486.65" cx="605.71" gradientTransform="matrix(-2.7744 0 0 1.9697 112.76 -872.89)" r="117.14"/>
    <linearGradient id="linearGradient5060">
      <stop id="stop5062" offset="0"/>
      <stop id="stop5064" stop-opacity="0" offset="1"/>
    </linearGradient>
    <radialGradient id="radialGradient6717" xlink:href="#linearGradient5060" gradientUnits="userSpaceOnUse" cy="486.65" cx="605.71" gradientTransform="matrix(2.7744 0 0 1.9697 -1891.6 -872.89)" r="117.14"/>
    <linearGradient id="linearGradient6715" x1="302.86" gradientUnits="userSpaceOnUse" y1="366.65" gradientTransform="matrix(2.7744 0 0 1.9697 -1892.2 -872.89)" x2="302.86" y2="609.51">
      <stop id="stop5050" stop-opacity="0" offset="0"/>
      <stop id="stop5056" offset=".5"/>
      <stop id="stop5052" stop-opacity="0" offset="1"/>
    </linearGradient>
    <linearGradient id="linearGradient29418">
      <stop id="stop29420" stop-color="#f5f5f5" offset="0"/>
      <stop id="stop29422" stop-color="#e9e9e9" offset="1"/>
    </linearGradient>
    <linearGradient id="linearGradient29429" x1="26.012" xlink:href="#linearGradient29418" gradientUnits="userSpaceOnUse" y1="10.916" gradientTransform="matrix(1.0076 0 0 .98765 -3.0719 .27461)" x2="39.037" y2="26.258"/>
    <radialGradient id="radialGradient29439" gradientUnits="userSpaceOnUse" cy="27.645" cx="29.496" gradientTransform="matrix(1 0 0 .34649 -5.1771e-17 18.067)" r="11.516">
      <stop id="stop29435" offset="0"/>
      <stop id="stop29437" stop-opacity="0" offset="1"/>
    </radialGradient>
    <linearGradient id="linearGradient29443" x1="35.004" xlink:href="#linearGradient29418" gradientUnits="userSpaceOnUse" y1="10.957" gradientTransform="matrix(-.97723 0 0 .99588 50.603 9.1156)" x2="27.273" y2="24.144"/>
  </defs>
  <g id="layer1">
    <g id="g6707" opacity=".62887" transform="matrix(.015187 0 0 .020868 32.508 31.904)">
      <rect id="rect6709" opacity=".40206" style="color:black" height="478.36" width="1339.6" y="-150.7" x="-1559.3" fill="url(#linearGradient6715)"/>
      <path id="path6711" opacity=".40206" style="color:black" fill="url(#radialGradient6717)" d="m-219.62-150.68v478.33c142.88 0.9 345.4-107.17 345.4-239.2 0-132.02-159.44-239.13-345.4-239.13z"/>
      <path id="path6713" opacity=".40206" style="color:black" fill="url(#radialGradient6719)" d="m-1559.3-150.68v478.33c-142.8 0.9-345.4-107.17-345.4-239.2 0-132.02 159.5-239.13 345.4-239.13z"/>
    </g>
    <g id="g6865" transform="matrix(.015187 0 0 .020868 42.258 21.904)">
      <rect id="rect6867" opacity=".40206" style="color:black" height="478.36" width="1339.6" y="-150.7" x="-1559.3" fill="url(#linearGradient6715)"/>
      <path id="path6869" opacity=".40206" style="color:black" fill="url(#radialGradient6717)" d="m-219.62-150.68v478.33c142.88 0.9 345.4-107.17 345.4-239.2 0-132.02-159.44-239.13-345.4-239.13z"/>
      <path id="path6871" opacity=".40206" style="color:black" fill="url(#radialGradient6719)" d="m-1559.3-150.68v478.33c-142.8 0.9-345.4-107.17-345.4-239.2 0-132.02 159.5-239.13 345.4-239.13z"/>
    </g>
    <path id="path29431" opacity=".12025" style="color:#000000" d="m41.012 27.645a11.516 3.9901 0 1 1 -23.031 0 11.516 3.9901 0 1 1 23.031 0z" transform="matrix(1.3728 0 0 1.0924 -10.337 .23562)" display="block" fill="url(#radialGradient29439)"/>
    <path id="rect29408" style="color:#000000" d="m18.402 6.5709c-1.072 0-1.921 0.8634-1.921 1.9135v15.062c0 1.05 0.849 1.883 1.921 1.883h14.137c0.856 1.103 2.523 2.893 6.517 4.382-1.778-2.049-1.774-3.44-1.574-4.382h2.897c1.071 0 1.952-0.833 1.952-1.883v-15.062c0-1.0497-0.881-1.9131-1.952-1.9131h-21.977z" stroke="#787878" display="block" fill="url(#linearGradient29429)"/>
    <path id="path29445" style="color:#000000" d="m18.813 7.5755c-0.918 0-1.292 0.437-1.292 1.337v13.868c0 0.9 0.727 1.614 1.646 1.614h13.884c0.733 0.946 1.303 1.975 3.515 3.1-0.414-0.898-0.065-2.152 0.216-3.1h3.493c0.918 0 1.016-0.36 1.016-1.26v-14.222c0-0.8995-0.25-1.286-1.168-1.286l-21.31-0.0505z" stroke="#fff" display="block" fill="none"/>
    <path id="path29441" style="color:#000000" d="m29.776 15.464c1.039 0 1.862 0.871 1.862 1.93v15.187c0 1.059-0.823 1.898-1.862 1.898h-13.712c-0.831 1.113-2.447 2.918-6.3216 4.42 1.7246-2.066 1.7216-3.469 1.5266-4.42h-2.8093c-1.039 0-1.8933-0.839-1.8933-1.898v-15.187c0-1.059 0.8543-1.93 1.8933-1.93h21.316z" stroke="#787878" display="block" fill="url(#linearGradient29443)"/>
    <path id="path29449" style="color:#000000" d="m29.389 16.453c0.943 0 1.235 0.461 1.235 1.422v14.204c0 0.96-0.242 1.368-1.184 1.368h-13.902c-0.753 1.01-2.068 2.596-3.511 3.251 0.403-1.167 0.248-2.136 0.173-3.251h-3.4072c-0.9425 0-1.2123-0.408-1.2123-1.368v-14.078c0-0.96 0.2698-1.548 1.2123-1.548h20.596z" stroke="#fff" display="block" fill="none"/>
  </g>
  <metadata>
    <rdf:RDF>
      <cc:Work>
        <dc:format>image/svg+xml</dc:format>
        <dc:type rdf:resource="http://purl.org/dc/dcmitype/StillImage"/>
        <cc:license rdf:resource="http://creativecommons.org/licenses/publicdomain/"/>
        <dc:publisher>
          <cc:Agent rdf:about="http://openclipart.org/">
            <dc:title>Openclipart</dc:title>
          </cc:Agent>
        </dc:publisher>
        <dc:title>tango inetrnet group chat</dc:title>
        <dc:date>2010-03-29T08:03:30</dc:date>
        <dc:description>"Group chat" icon from &lt;a href="http://tango.freedesktop.org/Tango_Desktop_Project"&gt; Tango Project &lt;/a&gt; &#xD;\n&lt;br&gt;&lt;br&gt;&#xD;\nSince version 0.8.90 Tango Project icons are Public Domain: &lt;a href="http://tango.freedesktop.org/Frequently_Asked_Questions#Terms_of_Use.3F"&gt; Tango Project FAQ &lt;/a&gt;</dc:description>
        <dc:source>http://openclipart.org/detail/35209/tango-inetrnet-group-chat-by-warszawianka</dc:source>
        <dc:creator>
          <cc:Agent>
            <dc:title>warszawianka</dc:title>
          </cc:Agent>
        </dc:creator>
        <dc:subject>
          <rdf:Bag>
            <rdf:li>balloon</rdf:li>
            <rdf:li>clip art</rdf:li>
            <rdf:li>clipart</rdf:li>
            <rdf:li>externalsource</rdf:li>
            <rdf:li>icon</rdf:li>
            <rdf:li>speech</rdf:li>
            <rdf:li>tango</rdf:li>
          </rdf:Bag>
        </dc:subject>
      </cc:Work>
      <cc:License rdf:about="http://creativecommons.org/licenses/publicdomain/">
        <cc:permits rdf:resource="http://creativecommons.org/ns#Reproduction"/>
        <cc:permits rdf:resource="http://creativecommons.org/ns#Distribution"/>
        <cc:permits rdf:resource="http://creativecommons.org/ns#DerivativeWorks"/>
      </cc:License>
    </rdf:RDF>
  </metadata>
</svg>
