<?xml version="1.0"?>
<svg xmlns:rdf="http://www.w3.org/1999/02/22-rdf-syntax-ns#" xmlns="http://www.w3.org/2000/svg" xmlns:cc="http://web.resource.org/cc/" xmlns:xlink="http://www.w3.org/1999/xlink" xmlns:dc="http://purl.org/dc/elements/1.1/" xmlns:svg="http://www.w3.org/2000/svg" id="Layer_1" xml:space="preserve" overflow="visible" viewBox="0 0 351.068 239.211" version="1.1" enable-background="new 0 0 351.068 239.211">
<g clip-rule="evenodd" fill-rule="evenodd">
	<path d="m281.84 1.991c-0.519 0.681-1.593 0.807-2.88 0.72-4.652 3.426-14.122 5.418-22.32 3.6-1.452-0.322-2.638-1.159-4.079-1.2-3.459-0.098-6.065 2.466-8.881 2.88 0.428-1.036 1.657-0.989 2.641-1.44 1.86-0.854 3.691-2.102 6.96-1.92 5.119 0.284 8.605 2.348 13.2 1.92 2.118-0.197 4.511-1.089 6.479-1.92 2.86-1.208 4.74-3.478 8.88-2.64z" fill="#fff"/>
	<path d="m315.92 7.271c1.406 0.643 0.101 2.636 1.681 2.88-11.397-1.963-23.846-4.955-35.761-7.2 0.007-0.233 0.294-0.186 0.48-0.24 1.497-1.125 4.717 0.275 6.96 0.72 7.074 1.402 15.406 2.464 22.32 3.84 0.754 0.275 0.583-0.376 0.959-0.48 1.19 0.085 1.9 0.66 3.36 0.48z" fill="#fff"/>
	<path d="m242.48 8.951c-6.377 3.144-13.323 5.717-19.2 9.36 4.082-1.477 9.781-4.386 14.64-6.72 1.471-0.707 3.876-2.164 5.04-2.16 2.487 0.008 3.826 2.897 6.72 2.64-5.59 3.37-12.206 5.713-17.76 9.12 5.03-1.679 9.493-4.447 14.4-6.72 1.505-0.697 3.333-1.958 4.8-2.16 2.73-0.375 5.848 0.83 9.36 0.72-18.687 8.993-37.715 17.646-56.88 26.16 15.413-5.705 29.135-12.621 44.159-19.44 2.166-0.983 4.761-2.151 7.2-3.36 2.299-1.138 5.175-3.009 7.2-3.36 3.042-0.527 6.276 0.476 9.36 0-3.695 2.705-8.688 4.113-12.48 6.72-12.506 4.774-22.765 11.795-35.52 16.32-5.001 2.839-11.081 4.6-16.08 7.44-11.431 3.587-30.615 5.987-40.08-0.72-0.624-1.754 0.217-2.601 0.48-4.08 1.02-0.82 2.421-1.259 3.12-2.4 23.141-9.819 45.034-20.886 68.16-30.72 1.38 0.858 2.55 1.929 3.36 3.36zm-23.52 12.24c-3.734 0.996-5.673 4.7-1.439 6 3.987 1.225 9.626-0.028 12.479-1.2 0.477-1.044 1.677-1.364 1.92-2.64-0.57-3.391-8.96-3.227-12.96-2.16zm-38.64 16.8c12.286-4.194 22.589-10.371 34.08-15.36 0.269-0.346 0.259-0.586-0.24-0.72-11.02 5.624-22.43 10.855-33.84 16.08zm21.6-3.12c1.895-0.022 3.489-1.325 5.28-2.16 3.384-1.577 7.263-2.717 9.84-5.04-5.12 2.329-10.18 4.708-15.12 7.2zm-18.24 3.6c-0.38 1.42 0.843 1.238 0.721 2.4-0.952 0.808-2.78 0.74-3.36 1.92 0.896-0.148 3.065-1.091 4.08-1.92 4.869 1.014 14.553 1.937 15.6-3.12-3.14-3.534-14.53-2.812-17.04 0.72z" fill="#7E8082"/>
	<path d="m300.8 8.711c-4.012 2.148-8.028 4.292-12.479 6 3.77-2.386 7.78-4.534 12.48-6z"/>
	<path d="m323.36 13.511c-3.995 2.245-8.103 4.378-12.48 6.24 3.81-2.421 7.81-4.665 12.48-6.24z"/>
	<path d="m330.56 14.231c5.261 0.821 8.029 5.411 9.12 9.6-1.851-2.44-2.661-5.572-5.04-7.44-1.26-0.989-2.88-0.968-4.08-2.16z"/>
	<path d="m328.88 15.671c0.499 0.134 0.509 0.374 0.24 0.72-4.214 1.551-8.276 4.517-12.24 5.52 3.76-2.319 8.21-3.941 12-6.24z"/>
	<path d="m333.68 17.351c-3.505 2.975-8.857 4.103-12.479 6.96-1.978 0.103-2.343 1.818-4.561 1.68 5.11-3.287 11.64-6.43 17.04-8.64z"/>
	<path d="m335.84 20.471c-5.733 3.066-11.24 6.359-17.52 8.88 5.48-3.151 11.81-6.747 17.52-8.88z"/>
	<path d="m262.64 21.431c0.281 0.039 0.203 0.438 0.24 0.72-10.205 4.835-19.584 10.496-30.72 14.4 10.2-4.99 20.74-9.654 30.48-15.12z"/>
	<path d="m308.24 21.431c-8.155 4.405-16.403 8.717-25.2 12.48 7.762-4.479 16.34-8.14 24.24-12.48h0.96z"/>
	<path d="m227.12 22.151c-0.17 0.89 0.41 1.03 0.24 1.92-3.333 0.427-7.314 0.205-9.84 1.44 0.08-0.96-0.309-2.389 0.72-2.4 1.021-0.221 0.016 1.584 0.96 1.44 0.541-0.179 0.094-1.346 0.24-1.92 0.678 0.198 0.621-0.338 1.199-0.24 0.139 0.422-0.29 1.41 0.24 1.44 0.996 0.196 0.121-1.479 0.721-1.68 2.22 0.249 3.81-1.117 5.52 0z" fill="#B6B8BA"/>
	<path d="m214.16 21.911c0.499 0.134 0.509 0.375 0.24 0.72-11.491 4.989-21.794 11.166-34.08 15.36 11.41-5.225 22.82-10.456 33.84-16.08z"/>
	<path d="m228.08 22.151c0.814 0.386 2.071 0.329 2.16 1.44-0.067 1.077-1.607 1.051-2.4 0.72 0.04-0.751-0.17-1.762 0.24-2.16z" fill="#B6B8BA"/>
	<path d="m337.04 24.551c0.428 0.176 0.035 0.436 0 0.72-5.985 2.735-11.101 6.34-17.52 8.64 5.72-3.24 11.8-6.115 17.52-9.36z"/>
	<path d="m309.2 24.791c-0.625 1.212-2.232 1.789-3.36 2.4-8.068 4.375-17.97 8.602-26.399 12.24 9.62-5.172 20.11-9.486 29.76-14.64z"/>
	<path d="m313.28 26.231c-1.902 1.762-4.394 2.922-6.721 4.08-8.695 4.326-18.44 8.666-27.6 12.96 10.636-6.404 23.533-10.547 33.84-17.28 0.27-0.039 0.42 0.053 0.48 0.24z"/>
	<path d="m340.4 26.711c0.204-0.044 0.226 0.094 0.239 0.24 5.721 31.425 5.261 65.791 1.44 98.88-0.495-5.082 0.775-10.351 1.2-15.601 2.32-28.761 0.78-58.479-2.88-83.519z"/>
	<path d="m217.04 27.671c-2.577 2.322-6.456 3.463-9.84 5.04-1.791 0.835-3.386 2.138-5.28 2.16 4.94-2.492 10-4.871 15.12-7.2z"/>
	<path d="m196.88 37.271v1.92c-1.788-0.368-4.691-0.368-6.479 0-0.877-0.454 0.212-1.381-0.721-1.68-0.536 0.104-0.097 1.183-0.239 1.68-0.888 0.152-1.429 0.651-2.641 0.48-0.076-0.957-0.013-1.773 0.48-2.16 0.832-0.113 0.138 1.302 0.72 1.44 0.537-0.104 0.098-1.183 0.24-1.68 2.45-0.264 6.36-1.095 8.64 0z" fill="#B6B8BA"/>
	<path d="m267.44 37.031c8.973 1.647 7.226 16.61 2.88 22.08 1.378-3.907 3.739-9.648 2.88-15.12-0.58-3.636-3.29-5.195-5.76-6.96z"/>
	<path d="m197.84 37.271c0.886-0.086 1.003 0.597 1.2 1.2-0.504 0.198-0.936 0.988-1.439 0.48 0.07-0.563 0.38-0.901 0.24-1.68z" fill="#B6B8BA"/>
	<path d="m185.84 38.231c0.395-0.039 0.395 1.479 0 1.44-1.1-0.127-0.55-1.129 0-1.44z" fill="#B6B8BA"/>
	<path d="m165.2 40.631c0.326 0.074 0.199 0.601 0.24 0.96-0.755 0.206-1.013 0.907-1.92 0.96 0.32-0.875 1.53-0.865 1.68-1.92z" fill="#7E8082"/>
	<path d="m166.16 43.511c-1.246 0.034-1.386 1.174-2.64 1.2-0.23-1.684 2.43-3.477 2.64-1.2z" fill="#7E8082"/>
	<path d="m262.88 42.791c-10.452 5.468-21.29 11.829-32.399 15.84 11.12-4.96 21.12-11.033 32.4-15.84z"/>
	<path d="m166.88 43.751c3.069 1.322-2.063 4.546-2.64 1.44 0.96-0.394 1.53-1.185 2.64-1.44z" fill="#7E8082"/>
	<path d="m162.8 44.471c-0.039 0.279 0.053 0.427 0.24 0.48-0.406 0.585-1.292 1.593-1.92 1.2 0.14-0.979 0.7-1.538 1.68-1.68z" fill="#7E8082"/>
	<path d="m177.2 48.071c-0.547 2.253-1.511 4.088-2.16 6.24-1.943 0.228-3.917-1.954-5.28-0.72-2.092-1.749-6.036-1.645-7.2-4.32 1.267-0.253 1.978-1.062 2.88-1.68 1.263 0.177 1.647 1.232 3.12 1.2-0.229-1.13-2.12-0.6-2.16-1.92 3.15-2.945 6.63 0.993 10.8 1.2z" fill="#7E8082"/>
	<path d="m184.64 85.751c6.007-4.108 13.265-6.318 19.921-9.6 6.597-3.252 13.114-6.514 19.199-10.08 14.529-6.271 28.492-13.107 42-20.4 0.408-0.088 0.453 0.188 0.48 0.48-13.199 7.121-26.882 13.758-41.04 19.92-12.79 7.293-26.78 13.382-40.56 19.68z"/>
	<path d="m164.72 47.111c-0.537 0.982-1.622 1.418-2.64 1.92-0.204-0.676-0.775-0.985-0.72-1.92 1.03-0.885 2.7-1.792 3.36 0z" fill="#7E8082"/>
	<path d="m266.96 49.271c0.341 0.783-1.085 1.472-1.439 1.68-5.525 3.244-12.396 6.127-18.48 8.88-6.976 3.156-14.05 6.997-20.64 10.56-13.795 7.458-28.343 13.711-42 20.64 27-14.429 55.47-27.403 82.56-41.76z"/>
	<path d="m348.32 54.071c2.055 8.019 0.882 21.064 1.2 32.64 0.03 0.594-0.294 0.408-0.24 0v-7.68c-0.6-8.171-0.23-17.591-0.96-24.96z" fill="#fff"/>
	<path d="m346.16 54.791c0.279-0.039 0.427 0.053 0.479 0.24 0.869 10.883 1.2 22.489 1.2 35.28 0 1.372 0.606 3.532-0.72 4.56 0.23-14.915-0.24-27.795-0.96-40.08z"/>
	<path d="m182.96 56.231c-0.879 1.33-2.517 1.351-3.84 1.92-4.246 1.827-8.454 4.253-12.96 5.76 5.11-3.048 10.98-5.331 16.8-7.68z"/>
	<path d="m164 59.351c-4.26 2.469-8.914 4.062-13.44 6.24-6.211 2.989-12.125 6.931-18.48 8.88 10.4-5.27 20.53-10.825 31.92-15.12z"/>
	<path d="m264.08 59.351c0.386 0.546-2.765 1.776-4.08 2.4-4.631 2.198-9.729 4.723-14.399 7.2-6.351 3.368-12.787 6.514-19.2 9.6-13.006 6.258-25.554 13.68-38.641 19.2 25.12-13.119 50.78-25.694 76.32-38.4z"/>
	<path d="m146.96 64.391c-13.845 7.275-28.986 14.533-43.44 20.4 14.041-6.919 28.766-13.155 42.48-20.4h0.96z"/>
	<path d="m290.72 67.751h0.48c-0.453 1.15-1.911 1.44-2.88 1.92-15.06 7.458-31.549 14.865-46.8 22.56 3.592-2.56 7.769-4.503 11.76-6.48 11.94-5.914 24.822-11.263 36.72-17.52 0.06-0.261 0.478-0.163 0.48-0.48h0.24z"/>
	<path d="m129.68 69.431h0.48c-0.67 1.362-2.339 1.773-3.6 2.4-8.639 4.292-18.562 8.517-27.6 12.72 9.51-5.761 21.15-9.405 30.72-15.12z"/>
	<path d="m146.96 70.151c-1.448 1.112-3.174 1.946-5.28 2.4 1.51-1.05 3.06-2.06 5.28-2.4z"/>
	<path d="m18.555 99.191c3.988-2.82 8.783-4.275 13.2-6.24 13.089-5.821 26.411-12.636 40.08-18.24 0.408-0.088 0.453 0.188 0.48 0.48-18.328 7.592-35.6 16.239-53.76 24z"/>
	<path d="m66.795 96.791c15.052-7.748 30.696-14.904 46.32-22.08 0.408-0.088 0.453 0.188 0.48 0.48-16.132 6.673-30.752 14.852-46.805 21.6z"/>
	<path d="m262.64 75.911c-0.182 1.261-2.852 2.105-4.56 2.64 1.09-1.307 3.19-1.601 4.56-2.64z"/>
	<path d="m96.315 79.751h0.48c-15.261 7.539-30.57 15.03-46.56 21.84 3.491-2.556 7.629-3.682 11.52-5.52 11.145-5.266 22.813-10.974 34.32-16.32 0.08 0.001 0.16 0.001 0.24 0.001z"/>
	<path d="m175.28 84.071c0.427 0.176 0.034 0.436 0 0.72-5.71 2.132-11.061 5.896-16.56 7.44 5.31-2.922 11.07-5.405 16.56-8.16z"/>
	<path d="m96.795 84.791c-1.281 1.065-3.429 2.456-5.04 2.4 1.537-0.943 3.106-1.854 5.04-2.4z"/>
	<path d="m281.36 87.671c-2.02 4.061-5.749 8.491-11.521 9.6 3.73-3.308 7.9-6.18 11.52-9.6z" fill="#fff"/>
	<path d="m239.36 92.471c-1.367 1.033-2.808 1.992-4.8 2.4 1.26-1.136 2.82-1.98 4.8-2.4z"/>
	<path d="m169.04 93.191c-3.159 2.526-7.117 3.796-10.8 5.52-10.611 4.967-21.911 10.304-32.16 16.08-5.875 1.729-10.763 5.713-16.32 6.96 19.72-9.55 38.94-19.62 59.28-28.559z"/>
	<path d="m151.28 95.591c-4.907 3.102-10.484 5.223-15.84 7.68-5.369 2.463-10.51 5.367-15.84 7.68 4.506-2.88 9.628-5.447 14.88-7.92 5.316-2.504 11.588-4.87 16.32-7.44 0.16 0.001 0.32 0.001 0.48 0.001z"/>
	<path d="m327.44 95.591c-4.567 3.019-9.7 4.801-14.641 7.2-10.21 4.958-20.146 10.817-30.72 15.36 14.127-8.478 29.927-14.498 44.64-22.56 0.062-0.034 0.175 0.027 0.24 0 0.16 0.001 0.32 0.001 0.48 0.001z"/>
	<path d="m274.88 96.071c-0.47 1.13-1.533 1.667-1.92 2.88-5.032 1.768-9.183 4.417-14.16 6.24 4.6-3.8 9.64-7.156 16.08-9.119z" fill="#fff"/>
	<path d="m275.84 124.15c16.628-8.732 33.677-17.043 50.641-25.44 0.408-0.088 0.452 0.188 0.479 0.48-8.238 3.522-15.642 7.879-23.76 11.52-4.262 2.59-9.096 4.627-13.68 6.96-4.63 2.35-9.11 4.88-13.68 6.48z"/>
	<path d="m44.715 108.07c0.411 0.869 0.599 1.961 0.48 3.36-2.284-0.756-5.017-1.063-7.44-1.68-0.722 0.242-0.425-0.535-0.48-0.96-4.464-0.019-9.365-1.812-14.16-3.12-2.247-0.613-4.765-1.404-6.72-1.68-3.352-0.473-5.333 0.628-7.68 1.68-6.345 5.209-3.671 16.565-2.88 25.2-0.991-0.209-1.969-0.431-2.88-0.72-0.461-5.887-2.596-15.253-0.72-21.36 0.676-2.2 2.169-3.355 2.88-5.04 7.038-5.587 16.248-1.454 24.48 0.72 5.219 1.38 10.276 2.71 15.12 3.6z" fill="#EFF0F0"/>
	<path d="m164.48 101.35c-17.553 9.087-35.625 17.655-53.52 26.4 3.809-3.059 8.623-4.54 12.96-6.72 13.077-6.575 26.92-13.337 40.08-19.92 0.27-0.04 0.42 0.05 0.48 0.24z"/>
	<path d="m327.2 101.59c-18.255 9.346-36.418 18.782-54.96 27.84 17.466-9.974 36.403-18.477 54.24-28.08 0.38-0.07 0.41 0.23 0.72 0.24z"/>
	<path d="m298.88 103.27c0.281 0.039 0.203 0.438 0.24 0.72-8.842 3.798-16.617 8.662-25.44 12.48 1.581-1.887 4.171-2.292 6.24-3.36 6.08-3.14 12.53-6.75 18.96-9.84z"/>
	<path d="m303.68 104.23c-0.573 1.037-1.718 0.981-2.64 1.44-7.74 3.851-15.565 8.771-23.52 11.52 8.73-4.31 17.04-9.03 26.16-12.96z"/>
	<path d="m267.68 104.71c0.933 0.833-1.612 2.184-1.92 3.36-15.003 7.316-30.453 14.187-44.88 22.08 14.152-6.408 29.069-14.131 43.681-20.88-0.407 1.193-1.249 1.951-1.681 3.12-11.784 5.576-23.541 11.179-34.8 17.28 11.542-4.858 21.817-10.983 33.36-15.84-0.479 1.282-1.71 1.811-2.16 3.12-7.991 3.769-16.201 7.319-23.521 11.76 7.106-2.895 14.686-7.395 22.32-10.561-1.771 3.576-6.808 5.269-10.56 7.2-7.744 3.987-16.351 8.131-24 12.24 4.705-1.475 9.132-4.221 13.68-6.48 5.964-2.963 11.791-5.978 17.76-8.88-8.309 12.796-17.405 25.192-25.92 38.64-5.894 9.308-12.427 19.979-18.24 30.24-0.933 1.646-1.759 3.663-2.64 5.521-1.561 3.287-3.405 6.013-3.36 10.8-6.562 3.358-12.785 7.055-18.96 10.8 6.965-2.636 12.151-7.049 18.721-10.08 0.05 12.255-10.594 14.913-18.96 19.68-1.81 1.031-3.719 2.231-5.521 3.36-2.469 1.548-4.897 3.976-8.64 3.84-2.438-0.088-4.702-1.532-6.96-2.16-11.241-3.126-23.427-6.509-34.32-10.08-2.129-0.19-4.166-0.474-5.28-1.68 2.192-1.648 3.983-3.697 5.28-6.24 2.369 1.41 6.168 1.617 10.08 2.16 2.69 0.374 6.79 0.467 10.32-0.24 2.568-0.514 5.182-2.348 7.2 0.24-0.849 3.854 1.057 7.147 4.8 7.92 0.641 0.133 1.539-0.195 2.16 0 1.75 0.553 2.846 2.295 6 1.681 5.018-0.979 4.567-8.212 2.88-12.721-1.379-2.516-4.686-4.985-4.56-9.12 0.085-2.792 2.222-4.509 3.36-7.439 0.193-0.497 0.009-1.48 0.24-2.16 0.204-0.601 0.777-0.881 0.96-1.439 0.553-1.692 0.994-4.008 1.2-5.28 2.073-12.799 0.443-23.829-2.88-35.04 15.688-8.356 31.598-16.344 47.28-24.96 15.69-8.62 32.5-15.21 48.48-23.76zm-90 121.68c-1.541 1.368-2.287 3.053-4.32 3.6-3.608 0.971-8.594-1.087-12.48-2.16-10.354-2.856-22.299-6.611-31.44-8.88 6.255 2.87 13.169 3.944 20.16 6 7.391 2.174 15.092 5.389 23.76 5.761 0.852-0.668 1.991-1.049 2.88-1.681 3.762-3.558 3.525-10.294 4.08-16.8 1.716-20.126 2.711-40.107 2.399-62.16-0.053-0.187-0.2-0.278-0.479-0.239-0.76 26.54 0 53.66-4.56 76.56zm7.2-74.88c1.574 19.784-0.277 48.404-2.64 69.84-0.158 1.432-1.088 3.639 0.479 4.56 1.277-3.178 1.164-6.75 1.681-10.08 0.504-3.246 0.743-6.532 0.96-9.84 1.288-19.656 1.937-37.119 0.72-55.199h-0.72c-0.06 0.34-0.4 0.41-0.48 0.72zm0.24 70.8c6.421-3.18 12.88-6.32 18.48-10.32-6.33 3.27-12.74 6.46-18.48 10.32zm-0.48 2.64c6.181-3.179 12.486-6.233 18-10.08-6.24 3.13-12.48 6.25-18 10.08zm-1.44 2.88c6.176-3.023 11.582-6.818 18-9.6-0.037-0.282 0.041-0.682-0.24-0.72-5.93 3.44-12.58 6.15-17.76 10.32zm-35.76-1.44c6.75 2.023 13.498 4.472 19.44 6 5.986 1.539 12.261-0.335 14.64-4.08-3.704 2.731-8.086 5.207-14.16 3.6-6.046-1.6-12.893-3.899-19.68-6-6.953-2.151-14.105-3.678-20.16-5.52-0.186 0.054-0.473 0.007-0.48 0.24 5.99 2.14 13.18 3.6 20.4 5.76z" fill="#fff"/>
	<path d="m17.595 105.67c-3.147 2.293-7.282 3.598-10.8 5.52 1.455-3.86 6.377-6.14 10.8-5.52z" fill="#D8D9DA"/>
	<path d="m33.916 109.99c-4.198 2.824-9.06 4.72-13.68 6.96-4.589 2.225-9.13 4.615-13.92 6.48-0.072-5.469-0.178-6.421 0-11.28 3.924-2.155 8.26-3.9 12.24-6 5.061 1.34 10.407 2.39 15.36 3.84z" fill="#D8D9DA"/>
	<path d="m167.84 107.59c-17.613 9.347-35.652 18.268-53.76 27.12 17.3-9.5 36.1-18.77 53.76-27.12z"/>
	<path d="m45.675 108.55c1.003-0.123 1.626 0.134 2.16 0.48-0.183 1.303 0.38 1.86 0.24 3.12-0.712-0.247-1.739-0.181-2.16-0.72 0.168-1.21-0.407-1.67-0.24-2.88z" fill="#fff"/>
	<path d="m48.555 109.03c1.103 0.098 1.676 0.724 2.4 1.2-0.487 0.888 0.163 1.429 0 2.64-0.895 0.015-1.518-0.242-2.16-0.48-0.369-0.83-0.212-2.19-0.24-3.36z" fill="#fff"/>
	<path d="m51.436 109.99c0.734-0.174 0.706 0.414 1.44 0.24-0.016 1.216 0.413 1.988 0.24 3.36-0.759 0.039-0.802-0.638-1.68-0.48 0.266-0.73-0.154-1.82 0-3.12z" fill="#fff"/>
	<path d="m38.235 111.19c-7.223 4.297-15.844 7.196-23.04 11.521 5.888-2.171 12.15-5.624 18.24-8.4 3.125-1.425 5.561-3.571 8.64-2.4-4.967 3.273-11.187 5.292-16.56 8.16 4.463-1.39 9.559-3.715 13.92-5.76 1.395-0.654 2.323-1.84 3.84-1.92 0.899-0.047 1.076 0.48 1.92 0.72 5.77 1.639 13.211 2.571 19.92 4.32-3.215 2.145-7.047 3.673-10.8 5.28-5.5 3.06-11.294 5.826-17.28 8.399-3.977 2.555-10.872 5.259-16.32 7.92-2.716 1.327-4.258 3.029-8.64 2.4-4.775-2.803-4.101-10.484-5.76-16.8 8.202-5.153 19.679-9.01 28.32-14.16 0.643-0.38 2.643 0.44 3.6 0.72z" fill="#D8D9DA"/>
	<path d="m53.595 110.47c0.779-0.139 1.117 0.163 1.68 0.24-0.14 1.26 0.423 1.817 0.24 3.12-0.779 0.139-1.116-0.164-1.68-0.24 0.144-1.26-0.178-2.06-0.24-3.12z" fill="#fff"/>
	<path d="m55.995 110.95c1-0.121 1.059 0.701 2.16 0.48v3.12c-0.549-0.251-1.448-0.152-1.92-0.48-0.346-0.77-0.227-2.01-0.24-3.12z" fill="#fff"/>
	<path d="m58.875 111.67c0.833-0.192 0.922 0.357 1.68 0.24 0.013 1.107-0.106 2.346 0.24 3.12-0.427 0.448-0.61-0.195-1.44 0-0.63-0.65-0.476-2.08-0.48-3.36z" fill="#fff"/>
	<path d="m62.715 112.39c-0.058 1.315 0.775 2.275 0.24 3.36-1.814 0.054-1.738-1.782-1.92-3.36 0.402-0.42 0.804 0.21 1.68 0z" fill="#fff"/>
	<path d="m63.436 112.87c4.083 0.557 7.505 1.774 11.52 2.4 0.062 1.058 0.384 1.856 0.24 3.12-3.593-0.967-7.313-1.807-11.28-2.4 0.069-1.27-0.622-1.78-0.48-3.12z" fill="#EFF0F0"/>
	<path d="m75.675 115.51c0.431-0.031 0.506 0.293 0.96 0.24 0.29 0.831 0.439 1.801 0.48 2.88h-0.72c-0.97-0.31-0.64-1.92-0.72-3.12z" fill="#fff"/>
	<path d="m77.595 115.99c7.709 1.651 15.884 2.835 22.32 5.76 1.219 1.639 3.375 1.986 4.8 3.36 1.533 1.479 2.044 3.78 3.84 5.04 2.802 4.995 3.214 11.133 5.76 16.561 0.317 4.882 2.73 7.669 3.84 11.76-0.928 0.128-1.171-0.429-2.16-0.24-6.913-10.448-5.203-26.551-15.6-33.36-5.754-3.768-14.826-3.104-22.56-6-0.168-0.88-0.34-1.74-0.245-2.88z" fill="#EFF0F0"/>
	<path d="m83.115 121.51c1.828 1.575-0.183 7.29 1.2 8.64 0.559-2.241 0.081-5.519 0.24-8.16 1.701-0.067 4.355 0.9 6.48 1.2-0.647 2.713-1.79 4.93-2.16 7.92-2.254-0.174-4.013 0.147-5.76 0.48-1.431-2.99 0.467-6.49 0-10.08z" fill="#fff"/>
	<path d="m98.476 126.07c-2.278 1.882-5.154 3.167-7.92 4.561 0.365-2.596 1.22-4.7 2.16-6.721 2.524 0.12 4.701 0.58 5.76 2.16z" fill="#5F6062"/>
	<path d="m303.2 149.83c2.526-2.603 6.023-3.93 9.12-5.761 8.96-5.3 18.391-10.931 27.359-16.56 0.409-0.089 0.453 0.188 0.48 0.479-12.21 7.39-24.51 14.7-36.96 21.84z"/>
	<path d="m3.195 130.87c0.976 0.225 2.061 0.34 2.88 0.721 0.159 0.881 0.256 1.824 0.48 2.64-1.108-0.092-1.979-0.421-2.88-0.72-0.158-0.88-0.255-1.82-0.48-2.64z" fill="#EFF0F0"/>
	<path d="m101.84 136.63c-0.925 0.834-2.508 1.012-3.6 1.68-4.469-1.771-8.161-4.319-13.92-4.8 5.271-2.88 13.079 1.43 17.52 3.12z" fill="#7E8082"/>
	<path d="m7.035 136.63c-0.978 0.112-3.309-0.323-3.12-2.16 1.112-0.25 3.466 0.17 3.12 2.16z" fill="#fff"/>
	<path d="m79.995 134.47c-0.466 1.255-2.555 1.756-4.08 1.2 0.618-1.14 2.15-1.37 4.08-1.2z" fill="#7E8082"/>
	<path d="m94.635 138.31c-3.481 5.065-9.452-3.003-15.36-2.16 3.99-3.64 11.435 0.51 15.36 2.16z" fill="#7E8082"/>
	<path d="m74.955 135.19c-0.337 0.703-1.342 0.738-2.4 0.72 0.259-0.73 1.633-1.25 2.4-0.72z" fill="#7E8082"/>
	<path d="m4.635 137.11c0.715-0.307 2.963-0.089 2.88 1.2-0.951 0.45-2.352-0.45-2.88-1.2z" fill="#fff"/>
	<path d="m109.76 147.67c-3.422-3.218-6.815-6.465-11.04-8.88 0.949-0.812 2.602-0.919 3.6-1.681 1.937 1.184 4.306 1.935 5.76 3.601 0.19 2.68 1.29 4.47 1.68 6.96z" fill="#7E8082"/>
	<path d="m6.795 139.03c1.044-0.244 1.104 0.497 1.68 0.721-0.18 0.32-1.866 0.12-1.68-0.72z" fill="#fff"/>
	<path d="m119.84 168.31c-0.828 0.132-1.063 0.857-2.16 0.72-5.734-11.945-14.013-21.347-24.96-28.08 1.8-3.07 5.182-1.402 7.92 0.48 1.607 1.104 3.561 3.185 5.76 5.04 1.989 1.678 4.25 3.321 5.28 5.52 0.688 1.472 0.919 3.083 1.68 4.561 2.07 4.03 3.73 8.45 6.48 11.76z" fill="#7E8082"/>
	<path d="m86.235 142.15c-1.462 1.259-4.056 1.384-5.28 2.88 1.8-0.042 4.012-1.746 6-2.399 11.735 5.065 19.54 14.06 25.44 24.96-1.686 1.674-4.245 2.476-6.48 3.6-2.021-4.858-5.234-8.525-8.16-12.479-8.607-8.113-16.796-16.644-33.36-16.801 1.58-1.22 3.524-2.075 6-2.399-0.195 1.324-2.318 0.723-2.64 1.92 2.775-0.669 4.845-2.356 8.16-2.16 3.668 0.22 7.389 1.91 10.315 2.88z" fill="#7E8082"/>
	<path d="m67.275 143.59h1.68v5.76h-1.68v-5.76z" fill="#B6B8BA"/>
	<path d="m69.675 143.59c0.995-0.275 0.935 0.505 1.68 0.479v5.521c-0.563-0.077-0.901-0.379-1.68-0.24v-5.76z" fill="#B6B8BA"/>
	<path d="m72.075 144.07c0.733-0.173 0.875 0.246 1.44 0.24-0.018 1.364 0.217 4.091 0 5.521-2.814 0.55-1.507-4.21-1.44-5.76z" fill="#B6B8BA"/>
	<path d="m74.235 144.79c0.916-0.116 1.532 0.067 1.92 0.479-0.376 1.905-0.233 3.771 0 4.8-0.436 0.65-1.448-0.133-1.92-0.239v-5.04z" fill="#B6B8BA"/>
	<path d="m80.955 147.43c17.066 8.674 26.692 25.591 31.68 45.6 1.298 10.34 1.205 23.692-4.32 31.92-0.509-3.455-0.273-5.043-0.48-8.399 0.112-0.513-0.343-0.457-0.72-0.48 4.935-14.854 0.27-33.243-6-43.439-2.743-4.169-5.445-8.055-9.12-11.521-1.137-1.072-2.014-2.612-3.12-3.6-1.359-1.213-3.488-1.304-4.32-3.12-1.484-0.275-2.257-1.263-3.6-1.68-0.005-1.76-0.005-3.52-0.005-5.28z" fill="#B6B8BA"/>
	<path d="m182.24 149.83c0.279-0.039 0.427 0.053 0.479 0.239 0.312 22.053-0.684 42.034-2.399 62.16-0.555 6.506-0.318 13.242-4.08 16.8-0.889 0.632-2.028 1.013-2.88 1.681-8.668-0.372-16.369-3.587-23.76-5.761-6.991-2.056-13.904-3.13-20.16-6 9.141 2.269 21.086 6.023 31.44 8.88 3.886 1.073 8.872 3.131 12.48 2.16 2.033-0.547 2.779-2.231 4.32-3.6 4.56-22.9 3.8-50.02 4.56-76.56z"/>
	<path d="m101.36 193.03c-4.619-7.257-11.084-14.109-16.8-21.359-4.94-6.267-9.843-12.435-14.88-18.721-0.546-0.682-1.534-1.428-1.44-2.399 6.802 0.397 11.521 2.879 16.08 5.52 0.637 0.083 0.81 0.63 0.96 1.2 5.806 2.113 7.84 8 12 11.76 5.391 9.649 10.729 19.352 10.56 34.561-1.423-0.417-2.007-1.674-2.64-2.88-10.695-12.265-20.527-25.394-30.96-37.92 0.719 2.262 2.737 4.159 4.32 6.239 1.569 2.062 3.363 4.035 4.56 6.24 8.933 9.228 16.005 20.314 24.72 29.76-0.922 5.318-1.361 11.119-4.32 14.4-11.667-12.893-21.873-27.247-33.36-40.32 10.046 13.635 21.857 27.583 32.88 41.04-0.597 1.724-1.682 2.958-2.64 4.32-6.65 1.583-13.489-0.467-18.24-2.88-6.819-8.521-14.404-17.695-21.6-26.4-4.506-5.451-4.808-14.106-5.52-22.56 2.979 2.038 5.07 5.591 7.68 8.64 2.564 2.995 5.524 5.964 7.44 9.36 5.294 5.826 9.755 12.484 15.36 18-9.43-11.931-19.672-25.129-30-36.96-0.163-7.973 3.34-16.465 7.2-20.16 0.623-0.597 2.592-0.588 3.84-0.96h0.72c11.08 14.44 22.394 28.64 34.08 42.48z" fill="#DCE2ED"/>
	<path d="m185.36 150.79h0.72c1.217 18.08 0.568 35.543-0.72 55.199-0.217 3.308-0.456 6.594-0.96 9.84-0.517 3.33-0.403 6.902-1.681 10.08-1.567-0.921-0.638-3.128-0.479-4.56 2.362-21.436 4.214-50.056 2.64-69.84 0.08-0.31 0.42-0.38 0.48-0.72z"/>
	<path d="m171.44 157.27c-3.714 0.766-6.862 2.098-10.32 3.12 3.682 0.24 6.708-2.252 10.56-2.64 1.056 4.171 2.091 9.085 2.4 14.64-3.903 1.217-8.955 1.285-12.72 2.64 3.959 0.039 8.4-1.519 12.72-1.92 0.654 4.377-0.177 10.022-0.72 14.641-4.203-0.126-8.433-1.476-12-1.44 3.384 1.256 7.979 1.3 11.76 2.16-0.704 3.296-1.504 6.495-2.88 9.12-4.157-0.723-7.857-1.903-12-2.641 1.364 1.383 3.766 1.227 5.76 1.681 1.976 0.449 3.835 1.259 5.76 1.439-0.685 2.275-1.837 4.083-2.4 6.48-1.77-0.298-2.161-0.063-4.56 0 0.088-0.952-0.22-2.3 0.24-2.88 1.413 0.021 3.852 0.772 4.8-0.24-1.204-0.557-3.438-0.083-5.04-0.24 0.072-0.888 1.056-0.863 0.72-2.16-2.667 0.582-3.164 3.754-4.56 5.521-0.095 0.12-0.616-0.114-0.72 0-0.997 1.097-1.339 2.553-2.16 3.6-1.676 0.483-2.5 1.82-3.84 2.64-2.025-0.854-2.225-3.535-4.32-4.319 0.18 1.423 2.338 2.94 3.12 4.56-0.067 0.893-1.432 0.488-1.68 1.2 0.27 2.502 4.663-0.573 5.52 1.92-6.954 2.354-16.497 2.798-23.04-0.24 1.769-1.271 3.757-2.322 5.76-3.359 0.831 0.912 0.257 2.342 0.48 4.56 1.082-0.758 0.188-3.492 0.48-5.04 3.591-2.089 7.426-3.934 11.04-6 5.94-5.005 8.854-10.819 10.32-19.439 0.182-1.068 0.589-1.147 0.72-2.16 0.946-7.325-0.276-14.149-1.68-20.16-0.003-0.016-0.365-1.853-0.48-1.44 0.152-0.545 3.14-2.278 3.84-2.64 3.006-1.553 5.859-2.548 8.4-3.84 0.08 1.11 0.89 1.51 0.72 2.88zm-26.64 57.84c-0.19-1.892-1.253-4.984-2.64-6.479 0.74 2.73 1.27 4.81 2.64 6.48z" fill="#7E8082"/>
	<path d="m45.675 155.11c1.844 9.783-2.482 18.568-1.44 29.04 0.247 2.479 0.413 5.375 0.96 7.92 0.297 1.381 1.486 2.677 1.68 4.08 0.405 2.928-0.804 6.531-0.24 9.601-6.625-12.358-9.969-32.647-3.12-46.32 0.269 4.189-0.565 10.292 0.48 12.96 1.688-4.41-1.589-13.32 1.68-17.28z" fill="#B6B8BA"/>
	<path d="m116.48 158.95c1.223-0.103 1.872 0.369 2.64 0.721 0.459 1.541 1.354 2.646 1.68 4.319-2.88-0.25-3.64-2.61-4.32-5.04z" fill="#fff"/>
	<path d="m157.28 161.59c-0.759 1.641-2.752 2.048-4.08 3.12 1.386 0.341 2.906-1.251 4.08-1.92 1.58 3.26 1.582 8.971 2.16 12.479-1.542 0.858-3.028 1.772-4.56 2.64-0.775-4.744-1.213-9.826-2.4-14.159 1.66-0.49 3.27-2.32 4.8-2.16z" fill="#7E8082"/>
	<path d="m281.84 162.31c-3.016 2.909-7.039 4.638-10.56 6.96-10.329 6.812-21.766 13.472-32.641 19.2 14.42-8.69 28.88-17.36 43.2-26.16z"/>
	<path d="m50.956 163.99c0.019 1.38-0.849 1.872-0.72 3.36-1.434 0.246-1.857 1.503-3.36 1.68 0.509-2.53 1.428-4.65 4.08-5.04z" fill="#5F6062"/>
	<path d="m118.88 163.99c0.816 0.304 1.696 0.544 2.64 0.721-0.198 0.678 0.338 0.621 0.24 1.199-0.672-0.275-1.248-0.275-1.92 0-0.01-0.95-1.23-0.69-0.96-1.92z" fill="#fff"/>
	<path d="m151.28 164.95c-0.335 1.963-2.681 2.156-4.08 2.881-4.309 2.229-9.071 4.84-13.44 7.199 5.955-1.809 11.573-6.024 17.76-8.399 0.81 4.348 1.565 7.269 1.68 12.479-5.771 2.789-11.411 5.709-16.8 8.88 2.503-0.43 4.853-2.07 7.2-3.359 2.358-1.296 4.757-2.593 7.2-3.601 0.524-0.676 1.42-0.979 2.4-1.2 0.168 3.867-0.383 5.977-0.96 9.36-5.324 3.716-11.585 6.495-17.04 10.08 5.63-1.81 10.753-6.207 16.56-8.64-0.397 1.843-0.905 3.575-1.44 5.279-5.352 2.969-10.596 6.045-16.32 8.641 2.786-9.052 0.324-22.634-1.92-31.44 8.56-0.4 12.6-6.6 19.2-8.16z" fill="#7E8082"/>
	<path d="m120.08 166.15c0.999 0.281 2.327 0.233 2.64 1.2-1.3-0.16-2.34 0.27-2.64-1.2z" fill="#fff"/>
	<path d="m49.515 168.31c0.205-0.044 0.227 0.094 0.24 0.24-1.141 8.622-0.112 19.677 2.4 25.68-0.696 1.304-2.147 1.853-3.6 2.4-2.929-6.914-3.6-17.853-2.16-26.4 1.149-0.53 2.276-1.08 3.12-1.92z" fill="#5F6062"/>
	<path d="m120.08 190.39c-2.011 0.949-3.785 2.135-6 2.88-1.728-7.952-4.144-15.216-7.68-21.36 1.607-1.513 4.271-1.968 6-3.359 3.85 5.99 6.43 13.25 7.68 21.84z" fill="#7E8082"/>
	<path d="m127.76 186.55c-1.456 0.464-2.1 1.74-3.84 1.92-0.862-7.219-3.507-12.652-5.76-18.48 1.541-2.25 3.585-0.319 5.04 0.721 1.68 5.58 3.5 9.99 4.56 15.84z" fill="#7E8082"/>
	<path d="m52.635 169.03c0.784-0.063 0.509 0.932 1.2 0.96-0.555 6.266 0.361 13.627 2.16 18.96-4.997-2.77-4.412-13.27-3.36-19.92z" fill="#AEBCD6"/>
	<path d="m124.88 171.67c2.095 0.225 3.939 0.7 5.52 1.439 0.922 4.408 2.169 7.339 2.64 12.96-1.1 0.5-2.15 1.05-3.6 1.2-1.28-5.45-2.56-10.89-4.56-15.6z" fill="#7E8082"/>
	<path d="m154.4 188.71c1.05 0.324 2.38-1.136 3.36-1.681 0.382 3.823-2.194 6.765-5.52 7.681 1.764-4.995 2.559-9.478 2.4-16.32 1.716-0.524 3.03-1.45 4.32-2.4 1.188 3.377-0.517 7.46-0.72 10.32-1.42 0.67-2.9 1.27-3.84 2.4z" fill="#7E8082"/>
	<path d="m133.04 186.79c1.215 3.575 0.62 7.116 0.48 12.239-1.175 0.345-2.184 0.855-3.36 1.2 0.106-4.005-0.306-7.26-0.72-12.24 1.31-0.28 2.25-0.95 3.6-1.2z" fill="#7E8082"/>
	<path d="m124.88 203.83c0.218-5.098-0.263-9.496-0.48-14.159 0.517-1.243 2.188-1.333 2.88-2.4 0.223 0.035 0.628 0.093 0.72 0.24 0.809 1.299 1.146 12.419 0.48 13.92-0.63 1.4-2.33 1.95-3.6 2.4z" fill="#7E8082"/>
	<path d="m53.355 187.51c1.859 1.66 3.673 3.366 3.84 6.72 5.892 12.428 13.166 23.474 25.92 29.04 0.146 1.214 1.602 1.118 1.68 2.4-7.884-2.356-13.535-6.945-18.72-12-5.19-7.77-10.789-15.13-12.72-26.16z" fill="#AEBCD6"/>
	<path d="m120.08 191.11c1.066 3.24 0.934 6.774 0.96 11.28-1.925 0.875-3.907 1.693-5.76 2.64-0.655-3.783-0.629-7.352-0.96-11.04 1.89-0.98 3.76-1.99 5.76-2.88z" fill="#7E8082"/>
	<path d="m52.155 195.43c0.934 1.866 1.935 3.665 2.4 6-1.085 0.674-2.073 1.446-3.36 1.92-1.266-1.534-1.295-4.305-2.64-5.76 1.139-0.78 2.389-1.45 3.6-2.16z" fill="#5F6062"/>
	<path d="m149.36 197.35c-2.15 6.01-11.426 7.666-16.56 11.28 0.208-1.073 0.726-1.834 0.72-3.12 5.52-2.47 10.31-5.68 15.84-8.16z" fill="#7E8082"/>
	<path d="m47.355 199.03c2.104 2.057 1.66 6.66 1.68 10.8-2.495-1.66-1.485-6.83-1.68-10.8z" fill="#B6B8BA"/>
	<path d="m132.8 199.75c1.133 1.833-0.635 4.285-0.96 6.72-1.132-0.012-1.466 0.774-2.64 0.72 0.132-2.348 0.435-4.525 0.96-6.479 0.97-0.23 1.98-0.41 2.64-0.96z" fill="#7E8082"/>
	<path d="m56.235 204.07c-0.546 1.295-2.357 1.323-3.12 2.4-0.758-0.441-0.702-1.698-1.44-2.16 1.007-1.58 4.367-3.73 4.56-0.24z" fill="#5F6062"/>
	<path d="m146.24 202.39c-4.016 3.504-9.468 5.571-14.16 8.399 3.187-4.013 9.242-5.157 13.2-8.399h0.96z" fill="#7E8082"/>
	<path d="m120.32 209.59c-1.986 0.974-3.867 2.053-6 2.88 0.182-2.218 0.647-4.153 0.48-6.72 1.946-0.775 4.355-2.363 6.24-2.4-0.3 2.52-0.46 3.69-0.72 6.24z" fill="#7E8082"/>
	<path d="m160.64 204.07c1.32 3.24 3.029 6.091 4.8 8.88-2.28-0.001-5.859 0.456-6.72 2.641-1.559-1.322-2.431-3.329-4.8-3.84 1.165-1.26 2.648-3.399 4.08-3.601-0.085 2.196-0.46 3.466 0.24 5.04 1.651-2.618-1.209-6.501 1.68-7.439 0.13 2.652-0.566 3.571 0.24 5.52 1.1-1.46 0.17-4.94 0.48-7.2z" fill="#7E8082"/>
	<path d="m49.755 204.31c2.276 1.404 1.603 5.757 1.68 9.36-2.535-1.14-1.449-5.91-1.68-9.36z" fill="#B6B8BA"/>
	<path d="m56.476 204.79c0.193 0.127 0.389 0.251 0.72 0.24 3.384 7.576 9.397 12.522 15.12 17.76-1.142 0.109-2.035 1.778-3.36 1.681-0.87-0.064-4.402-3.172-5.04-3.84-3.589-3.758-8.94-8.937-10.56-13.2 0.356-1.56 2.403-1.43 3.12-2.64z" fill="#5F6062"/>
	<path d="m167.84 205.27c-0.148 0.214-0.29 0.43 0 0.48-0.465 0.975-2.618 0.262-3.84 0.479 0.38 1.06 2.676 0.204 3.84 0.48 0.159 0.641 0.1 1.499 0.48 1.92-0.361 0.7-2.066 0.378-3.6 0.479-0.429-1.372-1.95-2.794-1.68-4.08 0.7-0.13 3.28-0.14 4.8 0.24z" fill="#7E8082"/>
	<path d="m131.6 207.19c-0.195 1.085-0.694 1.866-0.96 2.88-0.773 0.107-1.3 0.46-2.16 0.48 0.102-0.858 0.64-1.281 0.48-2.4 0.83-0.36 1.48-0.91 2.64-0.96z" fill="#7E8082"/>
	<path d="m206 207.91c0.366 0.004 0.526 1.779-0.24 1.44-0.04-0.59-0.04-1.15 0.24-1.44z" fill="#fff"/>
	<path d="m52.155 208.63c6.202 10.438 15.05 18.229 27.36 22.56 0.952 0.089 2.3-0.22 2.88 0.24-0.092 1.885 0.138 4.345 0 5.52-10.474-1.446-16.351-7.488-23.04-12.72-3.253-4.68-8.742-6.65-7.2-15.6z" fill="#B6B8BA"/>
	<path d="m142.16 208.63c1.387 1.495 2.45 4.588 2.64 6.479-1.37-1.67-1.9-3.75-2.64-6.48z"/>
	<path d="m165.44 209.59h3.36c1.968 2.912 4.345 5.415 4.56 10.08h-2.88c-0.92-4.12-3.59-6.49-5.04-10.08z" fill="#7E8082"/>
	<path d="m119.6 210.55c1.272 3.208-3.38 4.608-6 5.52-0.12-3.95 3.71-3.96 6-5.52z" fill="#7E8082"/>
	<path d="m130.4 210.79c-0.285 1.476-0.941 2.579-2.64 2.641-0.19-1.95 1.03-2.48 2.64-2.64z" fill="#7E8082"/>
	<path d="m203.6 211.99c-5.601 4-12.06 7.141-18.48 10.32 5.74-3.86 12.15-7.05 18.48-10.32z"/>
	<path d="m128.72 213.67c0.527 0.856-0.878 1.834-1.92 1.92-0.03-1.31 1.32-1.24 1.92-1.92z" fill="#7E8082"/>
	<path d="m164.96 214.39c1.902 1.65 4.228 4.951 2.64 7.92-3.495 2.886-9.84 0.426-8.16-5.28 1.26-1.45 2.37-3.06 5.52-2.64zm1.68 7.68c-3.22-0.3-4.177-2.863-6.24-4.319 0.78 2.45 3.8 5.11 6.24 4.32zm-0.48-1.92c-1.665-0.095-1.826-1.693-3.36-1.92 0.36 1.19 2.41 2.87 3.36 1.92zm-2.88 1.92c-1.28-0.24-1.663-1.377-2.88-1.68 0.29 1.07 1.54 2.45 2.88 1.68z" fill="#EE3224"/>
	<path d="m118.64 214.87c-0.371 2.83-3.337 3.062-5.76 3.841 0.331-0.31 0.237-1.043 0.24-1.681 2.06-0.49 3.14-1.98 5.52-2.16z" fill="#7E8082"/>
	<path d="m125.36 214.87c-0.471 1.29-1.841 1.68-3.12 2.16 0.5-1.25 1.79-1.72 3.12-2.16z" fill="#7E8082"/>
	<path d="m202.64 214.87c-5.514 3.847-11.819 6.901-18 10.08 5.52-3.83 11.76-6.95 18-10.08z"/>
	<path d="m127.52 216.07c-0.055 0.825-0.714 1.046-1.44 1.2 0.32-0.55 0.42-1.34 1.44-1.2z" fill="#7E8082"/>
	<path d="m106.88 216.55c0.558 3.635 1.054 8.097-0.48 11.52-0.6-3.39-1.3-9.17 0.48-11.52z" fill="#B6B8BA"/>
	<path d="m200.96 217.51c0.281 0.038 0.203 0.438 0.24 0.72-6.418 2.781-11.824 6.576-18 9.6 5.18-4.17 11.83-6.88 17.76-10.32z"/>
	<path d="m117.68 217.75c-0.839 1.88-3.39 2.049-5.28 2.88 0.79-1.92 3.31-2.13 5.28-2.88z" fill="#7E8082"/>
	<path d="m160.4 217.75c2.063 1.456 3.02 4.02 6.24 4.319-2.44 0.79-5.46-1.87-6.24-4.32z"/>
	<path d="m162.8 218.23c1.534 0.227 1.695 1.825 3.36 1.92-0.95 0.95-3-0.73-3.36-1.92z"/>
	<path d="m104.96 219.91c0.075 3.725 1.425 8.717-0.96 11.04-0.77-2.59-1.04-8.66 0.96-11.04z" fill="#B6B8BA"/>
	<path d="m116.48 219.91c-0.614 2.187-3.358 2.242-5.04 3.36-0.62-1.52 2.78-3.11 5.04-3.36z" fill="#7E8082"/>
	<path d="m173.36 220.39c0.184 0.904-0.293 1.147-0.24 1.92h-2.88c-0.71-1.74 1.28-2.84 3.12-1.92z" fill="#7E8082"/>
	<path d="m127.04 220.63c0.007-0.233 0.294-0.187 0.48-0.24 6.055 1.842 13.207 3.368 20.16 5.52 6.787 2.101 13.634 4.4 19.68 6 6.074 1.607 10.456-0.868 14.16-3.6-2.379 3.745-8.654 5.619-14.64 4.08-5.942-1.528-12.689-3.977-19.44-6-7.22-2.16-14.41-3.62-20.4-5.76z"/>
	<path d="m160.4 220.39c1.217 0.303 1.6 1.439 2.88 1.68-1.34 0.77-2.59-0.61-2.88-1.68z"/>
	<path d="m172.64 223.03c-0.187 0.214-0.258 0.542-0.24 0.96-1.377-0.109-1.822 0.343-2.88 0-0.19-1.45 2.12-1.45 3.12-0.96z" fill="#7E8082"/>
	<path d="m91.995 228.79c0.057 0.874-4.28 1.666-6 1.681-6.114 0.051-12.305-3.062-16.08-5.521 0.767-0.833 1.994-1.206 2.88-1.92 5.519 2.64 11.27 6.33 19.2 5.76z" fill="#5F6062"/>
	<path d="m103.04 223.75v7.92c-4.506 3.893-11.657 7.162-19.92 5.76v-5.76c6.239 0.554 11.198-1.589 15.36-3.841-0.068 1.088-0.323 4.683 0.24 6.24 1.038-2.321-1.213-7.933 1.92-8.16v6.24c1.76-1.57-1.358-8.26 2.4-8.4z" fill="#B6B8BA"/>
	<path d="m85.035 224.71c1.911 0.251 5.297 1.102 7.68 1.68-1.937 0.8-6.666 0.54-7.68-1.68z" fill="#AEBCD6"/>
	<path d="m112.88 224.47c0.706 1.223-2.867 2.227-4.32 2.88 0.62-1.77 3.12-1.68 4.32-2.88z" fill="#7E8082"/>
	<path d="m170.72 224.71c-0.062 0.863-1.776 0.929-2.4 0.479 0.12-0.83 1.56-0.35 2.4-0.48z" fill="#7E8082"/>
	<path d="m282.08 1.031c4.72 0.88 9.465 1.735 14.16 2.64-4.31-0.334-10.22-1.15-14.16-2.64z" fill="#fff"/>
	<path d="m342.08 127.27c-1.581 6.259-4.979 10.58-9.36 13.44-0.678-0.54 1.191-0.553 0.96-1.44-43.133 24.309-84.276 50.601-127.2 75.12 1.686-2.806 5.078-3.95 7.68-5.521 19.077-11.512 38.859-22.721 58.08-34.319 21.951-13.246 43.784-26.615 66-39.36-5.969 2.462-11.303 6.183-16.8 9.36-5.505 3.182-10.857 6.424-16.32 9.6-32.604 18.956-64.56 39.182-97.92 57.84 1.206-2.748 4.443-3.684 6.72-5.04 16.941-10.092 34.312-20.595 51.601-30.479 24.129-16.031 50.255-30.063 74.88-45.601-6.756 3.32-12.937 7.569-19.44 11.28-12.844 7.329-25.451 15.077-38.16 22.8-6.266 3.809-12.4 7.99-18.72 11.761-9.389 5.601-19.018 10.81-28.32 16.56-9.313 5.758-18.681 11.292-28.319 16.56 0.287-0.673 0.264-1.655 0.239-2.64 5.712-3.089 11.352-6.249 16.801-9.6-5.351 1.85-11.328 6.431-16.32 8.64-0.397-1.566 0.877-3.407 0.96-5.28 4.458-6.182 7.062-14.218 12-19.92 3.042-6.318 7.174-11.546 10.08-18 10.195-14.204 19.396-29.404 30-43.2 11.601-5.119 22.51-10.93 33.359-16.8-10.832 4.527-21.627 11.172-32.88 16.08 1.67-3.859 6.422-5.354 10.32-7.44 6.202-3.319 13.008-6.512 18.96-10.08-8.991 3.729-16.796 8.644-25.439 12.72 0.447-1.632 1.799-2.36 2.399-3.84 6.225-2.896 12.272-5.968 18.24-9.12-5.682 1.678-11.285 5.515-17.04 7.92 0.365-1.874 2.071-2.409 2.64-4.08 15.382-7.179 30.821-14.299 45.601-22.08-15.175 6.585-29.226 14.295-44.4 20.88 4.039-6.042 9.266-10.895 13.2-17.04 0.738 0.179 0.461-0.659 1.2-0.48 4.317-8.002 12.859-11.78 15.84-21.12 4.626-4.426 9.809-9.233 13.2-15.84 1.509-2.939 3.204-6.562 2.88-11.52-0.661-10.113-5.077-17.998-14.16-20.88 2.563-2.237 6.3-3.3 9.12-5.28-3.266 0.815-7.039 3.2-10.08 5.04-3.122-0.392-7.445-1.981-10.8-2.16-3.413-0.181-6.747 0.536-10.08-0.48-0.769-0.234-1.376-0.951-2.16-1.2-0.959-0.305-2.236-0.141-3.36-0.48-1.027-0.311-1.904-1.13-2.64-1.2-3.093-0.295-6.671 0.716-10.08 0.72-6.079 0.006-12.396-0.807-17.28-1.92 1.047-1.114 2.964-1.357 4.08-2.4-1.996-0.252-5.543 3.864-7.2 0.48 2.832-0.524 4.804-2.748 7.921-2.64 1.329 0.046 2.476 0.973 3.6 1.2 4.639 0.935 10.123 1.256 15.12 0 2.347-0.59 5.471-2.936 8.399-3.36 0.467-0.067 0.948-0.049 1.44 0 7.282 0.73 14.734 2.938 22.08 4.56 8.52 1.88 17.105 3.447 25.439 5.52-0.731-0.948-2.708-0.651-3.84-1.2 3.502-0.119 7.346 0.778 9.84 2.4 5.781 3.759 7.593 11.412 8.641 19.2-0.141 2.93 0.651 6.241 0.96 9.84 0.265 3.089-0.323 6.643 1.439 8.16 1.189 0.309-0.229-1.989 0.96-1.68-0.074 1.416 0.872 2.267 1.2 3.84 0.49 2.35 0.129 5.289 0.24 8.16 0.447 11.526 0.969 23.799 0 34.8-0.31 0.331-1.042 0.237-1.68 0.24 0.715 0.448 1.079 0.335 0.72 1.44-0.572 0.594-0.395-0.623-1.44-0.24-1.463 9.534-1.108 21.338-3.6 31.2 0.229 0.996-0.719 0.048 0 0-0.18-0.83 0.26-2.27 0-2.4zm-53.76-112.56c4.451-1.708 8.468-3.852 12.479-6-4.7 1.466-8.71 3.614-12.48 6zm22.56 5.04c4.378-1.862 8.485-3.995 12.48-6.24-4.67 1.575-8.67 3.819-12.48 6.24zm23.76-3.36c2.379 1.868 3.189 5 5.04 7.44-1.091-4.189-3.859-8.779-9.12-9.6 1.2 1.192 2.82 1.171 4.08 2.16zm-17.76 5.52c3.964-1.003 8.026-3.969 12.24-5.52 0.269-0.346 0.259-0.585-0.24-0.72-3.79 2.299-8.24 3.921-12 6.24zm-0.24 4.08c2.218 0.138 2.583-1.578 4.561-1.68 3.622-2.857 8.975-3.985 12.479-6.96-5.4 2.21-11.93 5.353-17.04 8.64zm1.68 3.36c6.279-2.521 11.786-5.813 17.52-8.88-5.71 2.133-12.04 5.729-17.52 8.88zm1.2 4.56c6.419-2.3 11.534-5.905 17.52-8.64 0.035-0.284 0.428-0.544 0-0.72-5.72 3.245-11.8 6.12-17.52 9.36zm23.76 76.319c-0.425 5.25-1.695 10.519-1.2 15.601 3.82-33.09 4.28-67.455-1.44-98.88-0.014-0.146-0.035-0.284-0.239-0.24 3.66 25.041 5.2 54.759 2.88 83.52zm3.84-15.359c1.326-1.028 0.72-3.188 0.72-4.56 0-12.791-0.331-24.396-1.2-35.28-0.053-0.187-0.2-0.279-0.479-0.24 0.72 12.285 1.19 25.165 0.96 40.08zm-20.16 0.72c-0.065 0.027-0.179-0.034-0.24 0-14.713 8.062-30.513 14.082-44.64 22.56 10.573-4.542 20.51-10.401 30.72-15.36 4.94-2.399 10.073-4.181 14.641-7.2-0.16 0.001-0.32 0.001-0.48 0.001zm-37.44 22.079c4.584-2.333 9.418-4.37 13.68-6.96 8.118-3.641 15.521-7.998 23.76-11.52-0.027-0.292-0.071-0.568-0.479-0.48-16.964 8.397-34.013 16.708-50.641 25.44 4.57-1.6 9.05-4.13 13.68-6.48zm36.96-16.32c-17.837 9.603-36.774 18.106-54.24 28.08 18.542-9.058 36.705-18.494 54.96-27.84-0.31-0.01-0.34-0.31-0.72-0.24zm-46.56 11.76c-2.069 1.069-4.659 1.473-6.24 3.36 8.823-3.818 16.599-8.682 25.44-12.48-0.037-0.283 0.041-0.681-0.24-0.72-6.43 3.09-12.88 6.7-18.96 9.84zm-2.4 4.08c7.954-2.749 15.779-7.669 23.52-11.52 0.922-0.458 2.066-0.403 2.64-1.44-9.12 3.93-17.43 8.65-26.16 12.96zm62.64 10.8c-0.027-0.292-0.071-0.568-0.48-0.479-8.969 5.629-18.399 11.26-27.359 16.56-3.097 1.831-6.594 3.158-9.12 5.761 12.45-7.14 24.75-14.45 36.96-21.84zm-101.52 60.48c10.875-5.729 22.312-12.389 32.641-19.2 3.521-2.322 7.544-4.051 10.56-6.96-14.32 8.8-28.78 17.47-43.2 26.16z" fill="#fff"/>
	<path d="m274.88 81.191c3.509-0.853 7.127-2.776 10.8-4.56 3.499-1.699 7.003-3.59 10.561-5.04-9.597 10.008-19.999 19.458-31.44 27.6-11.395 8.11-23.247 16.11-36.479 22.32-27.858 15.981-57.159 30.521-85.68 45.84-0.164 0.636-1.332 0.269-1.2 1.2-3.826 2.025-9.614 4.706-14.4 1.68-0.306-1.294-1.502-1.697-2.4-2.399-1.366-3.872-3.995-7.203-5.76-11.28-2.031-4.69-3.047-9.916-4.56-14.88-0.269-0.881-0.949-1.547-1.2-2.4-0.727-2.471-0.736-4.423-1.68-6.479-0.808-1.76-1.878-3.614-3.12-5.28-1.571-2.107-4.146-4.366-6.72-6-1.845-1.172-4.123-2.37-6.96-3.36-27.342-5.377-53.339-12.102-79.44-18.72 25.196-12.483 52.45-22.911 77.52-35.52 14.907-5.48 28.92-12.382 42.96-19.2 14.115-6.854 29.189-11.603 43.44-18.72 0.379-0.421 1.102-0.498 1.2-1.2 16.778-6.421 31.79-14.61 48.72-20.88-10.668 5.262-21.727 9.68-32.64 14.64-10.733 4.878-21.293 10.33-32.16 14.88-11.035 4.62-22.173 8.992-32.88 14.16-10.691 5.16-21.271 10.274-32.16 14.88 11.191-4.081 22.143-9.066 32.88-14.4 10.815-5.373 21.965-9.677 33.12-14.4 11.025-4.668 21.661-10.26 32.64-15.12 10.962-4.852 22.037-9.514 32.641-14.88 1.824 0.416 4.067 0.412 5.279 1.44-2.621 2.155-5.984 3.224-9.12 4.56-15.442 6.581-30.893 14.409-46.319 21.12-3.092 1.345-6.218 2.688-9.12 4.32-2.85 1.603-5.237 3.692-7.92 5.52-1.066 1.253-2.091 2.549-3.36 3.6-1.543 8.565 8.821 10.427 17.04 11.52-9.076 4.684-19.289 8.231-27.84 13.44 6.965-3.189 14.474-6.629 22.32-10.08 2.45-1.078 4.977-3.011 7.2-3.36 2.65-0.416 5.501 0.029 8.4-0.24 5.179-0.48 10.495-0.019 15.12-1.92 10.341-1.507 18.003-6.88 26.64-10.8 9.388-4.26 19.047-8.319 28.561-12.96 7.492-3.655 14.683-7.944 23.04-11.76 1.574-0.719 3.783-2.071 4.56-2.16 0.95-0.109 2.008 0.667 3.12 0.72 1.486 0.07 2.855-0.705 4.08-0.72 1.562-0.02 4.206 0.919 6.96 1.44 2.385 0.451 4.961 0.542 6.72 1.2 0.538 0.201 0.875 0.932 1.44 1.2 2.937 1.393 4.753 2.37 6.479 5.04 1.282 1.982 2.827 5.094 2.88 8.16-13.101 6.179-26.638 11.922-38.399 19.44 6.113-2.932 12.425-6.314 18.96-9.6 6.392-3.213 13.068-6.213 19.439-9.36 3.508 7.758-1.303 15.77-5.039 20.64-1.591 2.072-2.695 4.291-4.561 6.24-0.358 0.375-1.155 0.471-1.68 0.96-1.344 1.251-2.172 3.351-2.88 3.84-1.644 1.134-5.087 2.326-7.2 3.36-15.822 7.742-34.107 15.761-49.2 24 4.543-1.693 8.934-4.048 13.44-6.24 13.346-6.49 27.517-13.009 40.8-19.68 0.308 0.096-2.015 3.522-2.88 4.08-0.621 0.399-1.938 0.514-2.881 0.96-6.03 2.846-13.64 6.78-19.68 9.601zm32.4-59.76c-7.9 4.34-16.479 8.001-24.24 12.48 8.797-3.763 17.045-8.075 25.2-12.48h-0.96zm-27.84 18c8.43-3.639 18.331-7.865 26.399-12.24 1.128-0.611 2.735-1.188 3.36-2.4-9.65 5.154-20.14 9.468-29.76 14.64zm33.36-13.44c-10.307 6.732-23.204 10.875-33.84 17.28 9.159-4.294 18.904-8.634 27.6-12.96 2.327-1.158 4.818-2.318 6.721-4.08-0.06-0.187-0.21-0.279-0.48-0.24zm-39.6 18c0.859 5.472-1.502 11.213-2.88 15.12 4.346-5.47 6.093-20.433-2.88-22.08 2.47 1.765 5.18 3.324 5.76 6.96zm-42.72 14.64c11.109-4.011 21.947-10.372 32.399-15.84-11.28 4.807-21.28 10.88-32.4 15.84zm-5.28 7.44c14.158-6.162 27.841-12.799 41.04-19.92-0.027-0.292-0.072-0.568-0.48-0.48-13.508 7.293-27.471 14.129-42 20.4-6.085 3.565-12.603 6.828-19.199 10.08-6.656 3.282-13.914 5.492-19.921 9.6 13.78-6.298 27.77-12.387 40.56-19.68zm-40.8 24.96c13.657-6.929 28.205-13.182 42-20.64 6.59-3.563 13.664-7.404 20.64-10.56 6.085-2.753 12.955-5.636 18.48-8.88 0.354-0.208 1.78-0.897 1.439-1.68-27.09 14.357-55.56 27.331-82.56 41.76zm-18.24-27.12c4.506-1.507 8.714-3.934 12.96-5.76 1.323-0.569 2.961-0.59 3.84-1.92-5.82 2.349-11.69 4.632-16.8 7.68zm-34.08 10.56c6.355-1.949 12.269-5.891 18.48-8.88 4.526-2.178 9.18-3.771 13.44-6.24-11.39 4.295-21.52 9.85-31.92 15.12zm55.68 23.28c13.087-5.52 25.635-12.942 38.641-19.2 6.413-3.086 12.85-6.232 19.2-9.6 4.67-2.478 9.769-5.002 14.399-7.2 1.315-0.624 4.466-1.854 4.08-2.4-25.54 12.706-51.2 25.281-76.32 38.4zm-41.76-33.36c-13.714 7.245-28.439 13.481-42.48 20.4 14.454-5.867 29.595-13.125 43.44-20.4h-0.96zm144.48 3.36c-0.003 0.317-0.421 0.219-0.48 0.48-11.897 6.257-24.779 11.606-36.72 17.52-3.991 1.977-8.168 3.92-11.76 6.48 15.251-7.695 31.74-15.102 46.8-22.56 0.969-0.48 2.427-0.77 2.88-1.92h-0.72zm-191.52 16.8c9.038-4.204 18.961-8.429 27.6-12.72 1.261-0.626 2.93-1.038 3.6-2.4h-0.48c-9.57 5.715-21.21 9.359-30.725 15.12zm42.725-12c2.106-0.455 3.832-1.289 5.28-2.4-2.22 0.34-3.77 1.35-5.28 2.4zm120 6.72c-3.914 1.746-7.896 3.415-11.76 5.28-13.439 6.487-27.162 13.172-40.56 19.44 21.974-9.227 42.552-19.848 63.84-29.76-4.01 1.164-7.69 3.332-11.52 5.041zm-189.36-4.08c-0.027-0.292-0.072-0.568-0.48-0.48-13.669 5.604-26.991 12.419-40.08 18.24-4.417 1.964-9.212 3.42-13.2 6.24 18.16-7.761 35.432-16.408 53.76-24zm41.285 0c-0.027-0.292-0.072-0.568-0.48-0.48-15.624 7.176-31.268 14.333-46.32 22.08 16.048-6.748 30.668-14.927 46.8-21.6zm144.48 3.36c1.708-0.535 4.378-1.379 4.56-2.64-1.37 1.039-3.47 1.333-4.56 2.64zm-162 1.2c-11.506 5.347-23.175 11.055-34.32 16.32-3.891 1.838-8.029 2.964-11.52 5.52 15.99-6.81 31.299-14.301 46.56-21.84h-0.48c-0.08 0.001-0.16 0.001-0.24 0.001zm96.965 29.039c20.929-9.392 41.771-18.869 61.92-29.04-20.83 9.495-41.58 19.069-61.92 29.04zm-34.32-16.559c5.499-1.544 10.85-5.308 16.56-7.44 0.034-0.284 0.427-0.544 0-0.72-5.49 2.755-11.25 5.238-16.56 8.16zm-66.965-5.04c1.611 0.056 3.759-1.335 5.04-2.4-1.934 0.546-3.503 1.457-5.04 2.4zm142.8 7.68c1.992-0.408 3.433-1.367 4.8-2.4-1.98 0.42-3.54 1.264-4.8 2.4zm-124.8 26.879c5.557-1.247 10.445-5.231 16.32-6.96 10.25-5.776 21.549-11.113 32.16-16.08 3.683-1.724 7.641-2.994 10.8-5.52-20.34 8.94-39.56 19.01-59.28 28.56zm41.04-26.159c-4.732 2.57-11.004 4.936-16.32 7.44-5.251 2.473-10.374 5.04-14.88 7.92 5.331-2.313 10.472-5.217 15.84-7.68 5.356-2.457 10.933-4.578 15.84-7.68-0.16 0.001-0.32 0.001-0.48 0.001zm13.2 5.519c-13.159 6.583-27.002 13.345-40.08 19.92-4.337 2.18-9.152 3.662-12.96 6.72 17.896-8.745 35.967-17.313 53.52-26.4-0.06-0.19-0.21-0.28-0.48-0.24zm-49.92 33.6c18.108-8.853 36.147-17.773 53.76-27.12-17.66 8.35-36.46 17.62-53.76 27.12z" fill="#EFF0F0"/>
	<path d="m299.12 4.631c-0.056-0.485 2.769 0.04 3.6 0.24-1.11 0.773-2.23-0.491-3.6-0.24z" fill="#fff"/>
	<path d="m222.32 38.951c10.146-3.775 21.133-8.787 30.479-14.16-1.146-0.58-2.129 1.065-3.359 1.2 1.587-1.562 4.148-2.452 6.72-3.6 2.099-0.937 4.689-2.886 6.24-3.12 2.567-0.387 4.451 1.428 7.2 1.68-0.396-1.207-3.855-1.423-5.521-2.16 1.557-1.151 3.628-1.808 5.76-2.88 1.772-0.891 3.842-2.713 5.521-2.88 2.347-0.234 4.383 1.776 6.96 2.16-3.741 3.3-9.771 4.309-13.681 7.44-3.532 1.027-6.175 2.945-9.119 4.56-14.41 6.729-30.188 13.789-44.881 20.88-6.152 2.97-14.896 5.356-22.56 6.24-1.486 0.171-3.255-0.146-5.04 0-3.938 0.323-6.805 0.566-11.28 0 0.639-2.241 1.469-4.291 2.4-6.24 5.226 0.605 10.224 0.331 15.6 0 0.705 1.294-0.445 4.445 0.96 5.04 0.473-0.876-0.535-2.926-0.239-5.04 4.164-1.16 8.232-1.501 12.239-3.12 1.709 0.852 2.371 2.749 4.08 3.6 0.877-0.883-2.97-2.664-2.88-3.6 0.104-1.08 4.735-2.564 6.48-3.36 2.816-1.285 5.546-1.855 6.72-3.12 10.052-3.468 18.708-8.332 28.08-12.48-8.29 4.993-18.07 8.498-26.88 12.96zm9.84-2.4c11.136-3.904 20.515-9.565 30.72-14.4-0.037-0.282 0.041-0.681-0.24-0.72-9.74 5.466-20.28 10.13-30.48 15.12z" fill="#7E8082"/>
	<path d="m231.92 23.351c-0.243 1.276-1.443 1.596-1.92 2.64-2.854 1.172-8.492 2.425-12.479 1.2-4.233-1.3-2.295-5.004 1.439-6 4-1.067 12.39-1.231 12.96 2.16zm-10.32-1.2c-0.6 0.201 0.275 1.876-0.721 1.68-0.53-0.03-0.102-1.018-0.24-1.44-0.578-0.098-0.521 0.438-1.199 0.24-0.146 0.574 0.301 1.741-0.24 1.92-0.944 0.144 0.061-1.661-0.96-1.44-1.028 0.011-0.64 1.44-0.72 2.4 2.525-1.235 6.507-1.013 9.84-1.44 0.17-0.89-0.41-1.03-0.24-1.92-1.71-1.117-3.3 0.249-5.52 0zm6.24 2.16c0.793 0.331 2.333 0.357 2.4-0.72-0.089-1.111-1.346-1.055-2.16-1.44-0.41 0.398-0.2 1.409-0.24 2.16z"/>
	<path d="m286.16 85.271c2.659-4.861 7.731-9.388 11.76-13.68-2.28 4.285-8.02 9.259-11.76 13.68z" fill="#fff"/>
	<path d="m273.2 74.231c-21.288 9.913-41.866 20.533-63.84 29.76 13.397-6.268 27.12-12.953 40.56-19.44 3.864-1.865 7.846-3.534 11.76-5.28 3.83-1.708 7.51-3.876 11.52-5.039z"/>
	<path d="m254.96 79.751c-20.148 10.171-40.991 19.648-61.92 29.04 20.34-9.971 41.09-19.545 61.92-29.039z"/>
	<path d="m284.48 86.951c-1.396 2.685-3.347 4.814-5.28 6.96 0.87-2.243 3.4-4.919 5.28-6.96z" fill="#fff"/>
	<path d="m276.32 97.031c0.049 0.458-1.106 1.768-1.92 2.16 0.63-0.729 1.12-1.599 1.92-2.16z" fill="#fff"/>
	<path d="m271.52 100.15c-0.302 1.539-1.797 1.883-2.16 3.36-11.186 5.134-21.889 10.751-33.12 15.84 5.676-4.004 12.614-6.746 17.76-11.28 6.16-2.31 11.42-5.54 17.52-7.92z" fill="#fff"/>
	<path d="m268.64 106.63c-3.766 5.994-8.708 12.892-13.68 18.48 4.44-6.27 9.23-12.21 13.68-18.48z" fill="#fff"/>
	<path d="m254.96 125.59c-0.381 1.219-1.424 1.775-1.92 2.88-0.17-0.81 1.15-2.2 1.92-2.88z" fill="#fff"/>
	<path d="m100.88 127.03c-0.832 1.249-2.625 1.536-4.08 2.16 0.037-0.16 2.504-1.94 4.08-2.16z" fill="#7E8082"/>
	<path d="m94.875 130.15c-0.066 0.494-0.894 0.226-0.96 0.72 2.786 0.064 5.06-2.458 7.92-3.119-0.025 0.744 0.755 0.685 0.48 1.68-1.979 0.661-3.882 1.397-5.28 2.64 1.803-0.145 4.203-1.697 6-2.64 2.069 1.879 3.653 5.428 4.08 8.16-4.464-1.457-8.748-5.173-14.88-5.76 0.363-1.07 1.61-1.26 2.635-1.68z" fill="#7E8082"/>
	<path d="m252.56 128.71c0.665 0.526-0.761 0.983-0.721 1.68-0.61-0.47 0.61-1.13 0.72-1.68z" fill="#fff"/>
	<path d="m247.52 135.91c-1.583 2.979-4.083 7.117-6.721 9.841 1.97-3.54 4.48-6.55 6.72-9.84z" fill="#fff"/>
	<path d="m63.675 140.23c-0.288-0.789 1.675-1.386 3.12-1.92 10.23-3.778 22.767 1.837 29.04 6.24 2.229 1.564 3.45 2.673 5.28 4.319 6.933 6.241 12.153 14.092 16.32 23.521 1.71 3.869 2.852 7.301 4.08 12 0.294 1.124 1.016 2.258 1.2 3.36 1.824 10.93 1.154 22.351-2.16 30.239-1.567 3.731-4.84 5.999-6.48 9.36-2.168 1.591-3.924 3.596-6.72 4.56 9.745-6.289 15.659-17.976 15.36-31.68-0.395-18.093-7.879-33.257-15.84-44.16-2.95-2.329-5.742-4.818-7.92-7.92-6.054-4.495-14.347-9.682-24-10.319-3.582-0.24-8.218 0.8-11.285 2.4z" fill="#B6B8BA"/>
	<path d="m49.035 150.31c4.422-3.738 9.528-6.792 17.52-6.96 0.225 1.855-0.504 4.664 0.48 5.76-0.255 0.545-1.508 0.092-2.16 0.24-5.701 0.858-9.634 3.486-12.96 6.72-1.922 2.158-3.738 4.423-4.8 7.44-0.192-3.807-1.564-8.537 0.96-12 0.827 2.18 0.029 5.293 0.48 7.92h0.48c0.268-2.59-0.078-4.68 0-9.12z" fill="#B6B8BA"/>
	<path d="m76.635 150.55v-4.8h1.44c0.668 1.331-0.188 4.188 0.48 5.52 1.018-0.742 0.233-3.287 0.48-4.8 2.155 0.085 0.84 3.64 1.2 5.52-1.475-0.2-2.386-0.97-3.6-1.44z" fill="#B6B8BA"/>
	<path d="m240.32 146.95c-3.351 4.891-6.07 10.41-10.08 14.641 3.48-4.76 6.19-10.29 10.08-14.64z" fill="#fff"/>
	<path d="m316.64 149.83c0.007-0.234 0.294-0.187 0.48-0.24-1.259 0.903-3.24 2.356-4.561 2.399 1.47-0.61 2.54-1.61 4.08-2.16z" fill="#fff"/>
	<path d="m299.36 159.91c2.994-2.046 6.313-3.766 9.6-5.52-3.04 2.01-6.12 3.97-9.6 5.52z" fill="#fff"/>
	<path d="m55.995 154.63c-0.927 1.152-1.754 2.405-3.36 2.88 1.144-0.93 1.629-2.53 3.36-2.88z" fill="#5F6062"/>
	<path d="m52.635 167.83c1.116-4.484 2.226-8.975 5.04-11.761-1.631 3.729-3.604 8.396-3.6 12.96-0.487 0.55-0.861-1.04-1.44-1.2z" fill="#AEBCD6"/>
	<path d="m53.115 157.99c0.265 1.07-1.331 2.345-2.64 2.641 0.185-1.57 1.788-1.73 2.64-2.64z" fill="#5F6062"/>
	<path d="m52.155 160.63c-0.29 2.189-2.086 2.873-3.6 3.84-0.171-1.69 1.838-3.28 3.6-3.84z" fill="#5F6062"/>
	<path d="m205.52 216.55c1.172-1.892 3.428-2.966 5.279-4.08 13.297-8.001 27.374-15.557 40.561-24 7.552-4.836 15.543-9.188 23.279-13.68 7.805-4.531 15.203-9.577 23.04-13.921 0.127-0.369 0.251-0.015 0.24 0.24-30.6 18.69-61.4 37.17-92.4 55.44z" fill="#fff"/>
	<path d="m121.52 167.83c1.241 0.039 2.091 0.469 2.64 1.199-0.39 0.05-2.48-0.23-2.64-1.2z" fill="#fff"/>
	<path d="m226.4 168.07c-0.753 3.008-3.502 6.098-5.04 9.12 0.96-2.8 3.41-6.19 5.04-9.12z" fill="#fff"/>
	<path d="m221.12 177.43c-1.508 2.332-2.622 5.059-4.56 6.96 1.53-2.3 2.62-5.05 4.56-6.96z" fill="#fff"/>
	<path d="m155.6 193.75c-0.288 2.352-2.33 2.949-4.08 3.84-0.29-1.97 2.38-3.05 4.08-3.84z" fill="#7E8082"/>
	<path d="m59.595 195.67c1.53 0.313 1.765 1.855 2.64 2.88 5.743 6.717 12.109 13.999 17.76 21.359 0.37 0.127 0.016 0.251-0.24 0.24-9.531-5.35-15.178-14.58-20.16-24.48z" fill="#DCE2ED"/>
	<path d="m153.68 197.35c-0.457 1.463-2.185 1.654-3.36 2.4 0-0.96 1.93-2.06 3.36-2.4z" fill="#5F6062"/>
	<path d="m151.04 200.23c-0.344 0.936-1.764 0.796-2.16 1.68-0.52-0.84 1.48-1.22 2.16-1.68z" fill="#5F6062"/>
	<path d="m124.88 204.31c1.379 0.477 1.973-1.416 3.6-1.44-0.456 2.845-1.011 4.065-1.2 6.721-1.007 0.752-2.44 1.08-3.12 2.16 0.752 0.455 1.488-0.813 2.4-0.961 0.095 2.575-1.281 3.68-3.36 4.08 1-3.07 1.17-6.99 1.68-10.56z" fill="#7E8082"/>
	<path d="m142.4 205.99c-2.208 1.792-5.061 2.939-7.68 4.32 2.19-1.65 5.56-3.39 7.68-4.32z" fill="#5F6062"/>
	<path d="m124.16 216.79c0.433 1.318-1.527 2.31-2.64 2.881-0.41-1.29 1.54-2.29 2.64-2.88z" fill="#7E8082"/>
	<path d="m122.96 219.67c-0.62 0.739-1.623 1.097-2.4 1.68-0.38-0.78 1.51-1.36 2.4-1.68z" fill="#5F6062"/>
	<path d="m114.8 222.55c-0.778 1.622-3.105 1.695-4.56 2.64 0.01-1.42 2.91-2.05 4.56-2.64z" fill="#7E8082"/>
	<path d="m120.08 223.27c-0.998 1.562-2.734 2.386-3.84 3.84 0.1-1.49 2.39-2.89 3.84-3.84z" fill="#5F6062"/>
	<path d="m110.72 227.11c-0.006 0.8-2.002 1.674-3.36 1.92 0.79-0.96 2.32-1.19 3.36-1.92z" fill="#7E8082"/>
	<path d="m318.8 9.431c4.861 1.651 9.249 1.147 13.2 2.64 5.646 2.133 10.71 8.182 11.76 14.88 0.339 2.161 0.366 4.83 0.721 7.44 0.32 2.364 0.753 4.782 0.96 6.96 0.184 1.943-0.201 3.986 0.479 5.76 0.72 1.874 2.414 3.065 3.601 4.8 1.557 7.445 1.439 16.86 1.439 25.92 0 6.335 0.462 13.104-0.479 17.52-0.481 2.253-3.1 4.507-3.841 6.48-0.271 4.895-0.672 9.714-1.199 15.12-0.619 6.347-1.201 13.298-3.841 17.76-5.165 6.12-12.536 9.9-19.439 13.92-6.964 4.055-14.168 8.009-21.12 12.239-13.646 8.306-27.36 16.834-41.52 24.96-6.896 3.957-13.565 8.613-20.641 12.721-14.094 8.183-27.303 16.25-42 24.479-5.083 2.847-10.319 6.215-15.6 9.36-3.949 2.353-7.374 4.851-13.92 3.36-1.732-0.395-3.421-1.374-5.28-1.921-12.532-3.686-26.177-7.673-38.64-11.279-2.742 1.842-4.75 4.468-7.68 6.479-3.467 2.381-7.806 3.965-11.76 6.24-5.172 0.362-9.107 3.275-15.12 3.84-8.209 0.771-15.718-3.035-20.88-6.24-2.273-1.411-4.112-3.448-6.24-5.279-1.804-1.553-3.294-2.584-5.04-4.561-2.572-2.912-5.175-6.087-7.44-9.6-7.626-11.826-13.515-27.695-10.08-46.08 0.775-4.149 2.418-8 4.32-11.28 0.637-1.099 1.045-2.453 1.68-3.359 2.809-4.008 7.161-5.978 11.04-9.12 0.739-0.599 1.181-1.547 1.92-2.16 3.027-2.512 7.041-4.294 10.8-6 3.892-1.767 8.159-2.554 12.48-3.84v-10.08c-1.937-1.077-4.193-1.475-6.48-1.92-2.256-0.44-4.706-1.643-6.96-1.44-1.571 0.141-4.188 1.731-6.48 2.88-10.244 5.134-20.991 10.381-31.68 15.12-4.333 1.921-8.219 4.918-12.24 6.24-5.452 1.792-11.288-0.978-14.64-4.8-1.618-9.062-4.062-18.615-2.4-29.52 1.515-1.904 2.172-3.493 4.08-5.28 2.397-2.245 6.441-3.575 9.84-5.04 15.952-6.874 32.118-14.235 48.24-21.36 9.076-4.011 18.204-8.174 27.36-12.48 9.055-4.258 18.547-7.913 27.84-12 4.46-1.962 8.758-4.589 13.2-6.72 4.549-2.182 9.256-3.961 13.92-6 9.184-4.014 18.555-7.89 27.84-12 13.317-5.894 27.082-12.245 41.28-18.48 2.235-0.981 4.71-2.094 6.96-3.12 2.412-1.1 4.82-2.751 6.72-3.12 4.312-0.838 8.359 2.197 12 1.44 1.154 0.605 1.389 2.132 2.4 2.88 3.563-1.378 5.95-3.869 11.76-3.36 4.543 0.398 7.767 2.146 12.48 1.68 6.218-0.614 9.554-5.775 17.76-5.04 5.179 0.464 10.355 2.1 16.56 3.36 2.375 0.482 5.574 0.806 8.641 1.44 4.19 0.869 8.78 0.687 9.36 4.561zm-22.56-5.76c-4.695-0.905-9.44-1.76-14.16-2.64 3.94 1.49 9.85 2.306 14.16 2.64zm-23.28 0.96c-1.969 0.831-4.361 1.723-6.479 1.92-4.595 0.428-8.081-1.636-13.2-1.92-3.269-0.182-5.1 1.066-6.96 1.92-0.983 0.451-2.213 0.404-2.641 1.44 2.815-0.414 5.422-2.978 8.881-2.88 1.441 0.041 2.627 0.878 4.079 1.2 8.198 1.818 17.668-0.174 22.32-3.6 1.287 0.087 2.361-0.039 2.88-0.72-4.14-0.838-6.02 1.432-8.88 2.64zm39.6 2.16c-0.376 0.104-0.205 0.755-0.959 0.48-6.914-1.375-15.246-2.438-22.32-3.84-2.243-0.445-5.463-1.846-6.96-0.72-0.187 0.054-0.474 0.007-0.48 0.24 11.915 2.246 24.363 5.237 35.761 7.2-1.58-0.244-0.274-2.237-1.681-2.88-1.46 0.18-2.17-0.395-3.36-0.48zm29.52 122.88c-0.72 0.05 0.22 1 0 0 2.491-9.862 2.137-21.667 3.6-31.2 1.046-0.383 0.868 0.834 1.44 0.24 0.359-1.104-0.005-0.992-0.72-1.44 0.638-0.002 1.37 0.091 1.68-0.24 0.969-11.001 0.447-23.274 0-34.8-0.111-2.871 0.25-5.81-0.24-8.16-0.328-1.574-1.274-2.424-1.2-3.84-1.188-0.309 0.229 1.989-0.96 1.68-1.763-1.517-1.175-5.071-1.439-8.16-0.309-3.599-1.101-6.91-0.96-9.84-1.048-7.788-2.859-15.441-8.641-19.2-2.494-1.622-6.338-2.519-9.84-2.4 1.132 0.549 3.108 0.252 3.84 1.2-8.334-2.073-16.92-3.64-25.439-5.52-7.346-1.622-14.798-3.83-22.08-4.56-0.492-0.049-0.974-0.067-1.44 0-2.929 0.424-6.053 2.77-8.399 3.36-4.997 1.256-10.481 0.935-15.12 0-1.124-0.227-2.271-1.154-3.6-1.2-3.117-0.108-5.089 2.116-7.921 2.64 1.657 3.384 5.204-0.732 7.2-0.48-1.116 1.043-3.033 1.287-4.08 2.4 4.885 1.113 11.201 1.926 17.28 1.92 3.409-0.004 6.987-1.016 10.08-0.72 0.735 0.07 1.612 0.89 2.64 1.2 1.124 0.339 2.401 0.175 3.36 0.48 0.784 0.249 1.392 0.965 2.16 1.2 3.333 1.016 6.667 0.299 10.08 0.48 3.354 0.179 7.678 1.769 10.8 2.16 3.041-1.84 6.814-4.225 10.08-5.04-2.82 1.98-6.557 3.043-9.12 5.28 9.083 2.882 13.499 10.767 14.16 20.88 0.324 4.958-1.371 8.581-2.88 11.52-3.392 6.606-8.574 11.414-13.2 15.84-2.98 9.34-11.522 13.118-15.84 21.12-0.739-0.179-0.462 0.659-1.2 0.48-3.935 6.145-9.161 10.999-13.2 17.04 15.175-6.585 29.226-14.295 44.4-20.88-14.779 7.781-30.219 14.901-45.601 22.08-0.568 1.671-2.274 2.206-2.64 4.08 5.755-2.405 11.358-6.242 17.04-7.92-5.968 3.152-12.016 6.224-18.24 9.12-0.601 1.479-1.952 2.208-2.399 3.84 8.644-4.076 16.448-8.991 25.439-12.72-5.952 3.567-12.758 6.761-18.96 10.08-3.898 2.086-8.65 3.581-10.32 7.44 11.253-4.908 22.048-11.553 32.88-16.08-10.85 5.87-21.759 11.681-33.359 16.8-10.604 13.795-19.805 28.996-30 43.2-2.906 6.454-7.038 11.682-10.08 18-4.938 5.702-7.542 13.738-12 19.92-0.083 1.873-1.357 3.714-0.96 5.28 4.992-2.209 10.97-6.79 16.32-8.64-5.449 3.351-11.089 6.511-16.801 9.6 0.024 0.984 0.048 1.967-0.239 2.64 9.639-5.268 19.006-10.802 28.319-16.56 9.303-5.75 18.932-10.959 28.32-16.56 6.319-3.771 12.454-7.952 18.72-11.761 12.709-7.723 25.316-15.471 38.16-22.8 6.504-3.711 12.685-7.96 19.44-11.28-24.625 15.537-50.751 29.569-74.88 45.601-17.288 9.885-34.659 20.388-51.601 30.479-2.276 1.356-5.514 2.292-6.72 5.04 33.36-18.658 65.315-38.884 97.92-57.84 5.463-3.176 10.815-6.418 16.32-9.6 5.497-3.178 10.831-6.898 16.8-9.36-22.216 12.745-44.049 26.114-66 39.36-19.221 11.599-39.003 22.808-58.08 34.319-2.602 1.57-5.994 2.715-7.68 5.521 42.923-24.52 84.066-50.812 127.2-75.12 0.231 0.888-1.638 0.9-0.96 1.44 4.381-2.86 7.779-7.182 9.36-13.44 0.26 0.13-0.18 1.57 0 2.4zm-47.52-58.079c0.943-0.446 2.26-0.561 2.881-0.96 0.865-0.558 3.188-3.984 2.88-4.08-13.283 6.671-27.454 13.189-40.8 19.68-4.507 2.192-8.897 4.547-13.44 6.24 15.093-8.239 33.378-16.258 49.2-24 2.113-1.034 5.557-2.226 7.2-3.36 0.708-0.489 1.536-2.589 2.88-3.84 0.524-0.489 1.321-0.585 1.68-0.96 1.865-1.949 2.97-4.168 4.561-6.24 3.736-4.87 8.547-12.882 5.039-20.64-6.371 3.147-13.048 6.146-19.439 9.36-6.535 3.286-12.847 6.668-18.96 9.6 11.762-7.518 25.299-13.261 38.399-19.44-0.053-3.066-1.598-6.178-2.88-8.16-1.727-2.67-3.543-3.647-6.479-5.04-0.565-0.268-0.902-0.999-1.44-1.2-1.759-0.659-4.335-0.749-6.72-1.2-2.754-0.521-5.397-1.459-6.96-1.44-1.225 0.015-2.594 0.791-4.08 0.72-1.112-0.053-2.17-0.83-3.12-0.72-0.776 0.089-2.985 1.441-4.56 2.16-8.357 3.816-15.548 8.105-23.04 11.76-9.514 4.641-19.173 8.7-28.561 12.96-8.637 3.92-16.299 9.293-26.64 10.8-4.625 1.901-9.941 1.439-15.12 1.92-2.898 0.269-5.75-0.176-8.4 0.24-2.224 0.349-4.75 2.283-7.2 3.36-7.846 3.451-15.355 6.891-22.32 10.08 8.551-5.209 18.764-8.756 27.84-13.44-8.219-1.093-18.583-2.955-17.04-11.52 1.27-1.051 2.294-2.346 3.36-3.6 2.683-1.828 5.07-3.917 7.92-5.52 2.902-1.632 6.028-2.975 9.12-4.32 15.427-6.711 30.877-14.539 46.319-21.12 3.136-1.336 6.499-2.405 9.12-4.56-1.212-1.028-3.455-1.024-5.279-1.44-10.604 5.366-21.679 10.028-32.641 14.88-10.979 4.859-21.615 10.452-32.64 15.12-11.155 4.723-22.305 9.028-33.12 14.4-10.737 5.333-21.689 10.319-32.88 14.4 10.89-4.606 21.469-9.72 32.16-14.88 10.707-5.168 21.845-9.54 32.88-14.16 10.867-4.55 21.427-10.001 32.16-14.88 10.913-4.96 21.972-9.378 32.64-14.64-16.93 6.27-31.941 14.459-48.72 20.88-0.099 0.702-0.821 0.779-1.2 1.2-14.25 7.117-29.325 11.866-43.44 18.72-14.04 6.818-28.053 13.72-42.96 19.2-25.07 12.609-52.324 23.037-77.52 35.52 26.101 6.618 52.098 13.342 79.44 18.72 2.837 0.991 5.115 2.188 6.96 3.36 2.574 1.634 5.149 3.893 6.72 6 1.242 1.666 2.312 3.521 3.12 5.28 0.944 2.057 0.953 4.009 1.68 6.479 0.251 0.854 0.932 1.52 1.2 2.4 1.513 4.964 2.529 10.189 4.56 14.88 1.765 4.077 4.394 7.408 5.76 11.28 0.897 0.702 2.094 1.105 2.4 2.399 4.787 3.026 10.574 0.346 14.4-1.68-0.132-0.932 1.036-0.564 1.2-1.2 28.521-15.318 57.822-29.858 85.68-45.84 13.232-6.21 25.085-14.21 36.479-22.32 11.441-8.142 21.844-17.591 31.44-27.6-3.558 1.45-7.062 3.341-10.561 5.04-3.673 1.784-7.291 3.707-10.8 4.56 6.04-2.82 13.65-6.754 19.68-9.599zm8.16-66.72c-0.831-0.2-3.655-0.725-3.6-0.24 1.37-0.251 2.49 1.013 3.6 0.24zm-63.6 0.72c-23.126 9.833-45.02 20.901-68.16 30.72-0.699 1.141-2.1 1.58-3.12 2.4-0.263 1.479-1.104 2.326-0.48 4.08 9.465 6.708 28.649 4.308 40.08 0.72 4.999-2.84 11.079-4.601 16.08-7.44 12.755-4.525 23.014-11.546 35.52-16.32 3.793-2.606 8.785-4.015 12.48-6.72-3.084 0.476-6.318-0.527-9.36 0-2.025 0.351-4.901 2.222-7.2 3.36-2.439 1.208-5.034 2.377-7.2 3.36-15.024 6.819-28.746 13.735-44.159 19.44 19.165-8.514 38.193-17.167 56.88-26.16-3.513 0.109-6.63-1.095-9.36-0.72-1.467 0.202-3.295 1.463-4.8 2.16-4.907 2.272-9.37 5.041-14.4 6.72 5.554-3.407 12.17-5.75 17.76-9.12-2.894 0.257-4.232-2.632-6.72-2.64-1.164-0.004-3.569 1.454-5.04 2.16-4.858 2.334-10.558 5.243-14.64 6.72 5.877-3.643 12.823-6.216 19.2-9.36-0.81-1.431-1.98-2.502-3.36-3.36zm10.08 20.4c-9.372 4.148-18.028 9.012-28.08 12.48-1.174 1.265-3.903 1.835-6.72 3.12-1.745 0.795-6.377 2.28-6.48 3.36-0.09 0.937 3.757 2.717 2.88 3.6-1.709-0.851-2.371-2.749-4.08-3.6-4.007 1.619-8.075 1.96-12.239 3.12-0.296 2.114 0.712 4.164 0.239 5.04-1.405-0.595-0.255-3.746-0.96-5.04-5.376 0.331-10.374 0.605-15.6 0-0.931 1.949-1.761 3.999-2.4 6.24 4.475 0.566 7.342 0.323 11.28 0 1.785-0.146 3.554 0.171 5.04 0 7.663-0.883 16.407-3.27 22.56-6.24 14.692-7.091 30.471-14.152 44.881-20.88 2.944-1.615 5.587-3.532 9.119-4.56 3.909-3.131 9.939-4.141 13.681-7.44-2.577-0.383-4.613-2.394-6.96-2.16-1.679 0.167-3.748 1.989-5.521 2.88-2.132 1.072-4.203 1.729-5.76 2.88 1.665 0.737 5.124 0.953 5.521 2.16-2.749-0.252-4.633-2.067-7.2-1.68-1.551 0.234-4.142 2.183-6.24 3.12-2.571 1.148-5.133 2.039-6.72 3.6 1.23-0.135 2.213-1.78 3.359-1.2-9.347 5.374-20.334 10.385-30.479 14.16 8.81-4.462 18.59-7.967 26.88-12.96zm-85.68 16.56c0.907-0.053 1.166-0.754 1.92-0.96-0.041-0.359 0.085-0.886-0.24-0.96-0.15 1.055-1.36 1.045-1.68 1.92zm0 2.16c1.254-0.026 1.394-1.166 2.64-1.2-0.21-2.277-2.87-0.484-2.64 1.2zm0.72 0.48c0.577 3.106 5.709-0.118 2.64-1.44-1.11 0.255-1.68 1.046-2.64 1.44zm-3.12 0.96c0.627 0.393 1.514-0.614 1.92-1.2-0.187-0.053-0.279-0.201-0.24-0.48-0.98 0.142-1.54 0.701-1.68 1.68zm5.28 0.72c0.04 1.32 1.931 0.79 2.16 1.92-1.472 0.032-1.857-1.023-3.12-1.2-0.902 0.618-1.613 1.427-2.88 1.68 1.165 2.676 5.108 2.572 7.2 4.32 1.362-1.234 3.336 0.947 5.28 0.72 0.649-2.151 1.613-3.987 2.16-6.24-4.17-0.207-7.65-4.145-10.8-1.2zm-5.04 0.24c-0.056 0.935 0.516 1.244 0.72 1.92 1.019-0.501 2.103-0.938 2.64-1.92-0.66-1.792-2.33-0.885-3.36 0zm187.92 31.92v7.68c-0.054 0.408 0.271 0.594 0.24 0-0.318-11.575 0.854-24.621-1.2-32.64 0.73 7.369 0.36 16.789 0.96 24.96zm-51.36-7.44c-4.028 4.292-9.101 8.818-11.76 13.68 3.74-4.421 9.48-9.395 11.76-13.68zm-18.72 22.32c1.934-2.146 3.885-4.275 5.28-6.96-1.88 2.041-4.41 4.717-5.28 6.96zm-9.36 3.36c5.771-1.109 9.501-5.539 11.521-9.6-3.62 3.42-7.79 6.292-11.52 9.6zm-11.04 7.919c4.978-1.822 9.128-4.472 14.16-6.24 0.387-1.213 1.45-1.75 1.92-2.88-6.44 1.964-11.48 5.32-16.08 9.12zm15.6-5.999c0.813-0.392 1.969-1.702 1.92-2.16-0.8 0.561-1.29 1.431-1.92 2.16zm-20.4 8.879c-5.146 4.534-12.084 7.275-17.76 11.28 11.231-5.088 21.935-10.706 33.12-15.84 0.363-1.477 1.858-1.822 2.16-3.36-6.1 2.38-11.36 5.61-17.52 7.92zm-224.4-3.6c-8.232-2.174-17.442-6.308-24.48-0.72-0.711 1.685-2.204 2.84-2.88 5.04-1.875 6.107 0.259 15.473 0.72 21.36 0.911 0.289 1.889 0.511 2.88 0.72-0.792-8.634-3.465-19.991 2.88-25.2 2.348-1.052 4.329-2.152 7.68-1.68 1.955 0.275 4.473 1.067 6.72 1.68 4.795 1.308 9.696 3.102 14.16 3.12 0.055 0.425-0.242 1.202 0.48 0.96 2.423 0.617 5.156 0.924 7.44 1.68 0.119-1.399-0.069-2.491-0.48-3.36-4.844-0.89-9.901-2.22-15.12-3.6zm189.6 24c-15.683 8.616-31.593 16.604-47.28 24.96 3.324 11.211 4.953 22.241 2.88 35.04-0.206 1.272-0.647 3.588-1.2 5.28-0.183 0.559-0.756 0.839-0.96 1.439-0.23 0.68-0.047 1.663-0.24 2.16-1.138 2.931-3.275 4.647-3.36 7.439-0.125 4.135 3.181 6.604 4.56 9.12 1.688 4.509 2.138 11.742-2.88 12.721-3.154 0.614-4.25-1.128-6-1.681-0.621-0.195-1.52 0.133-2.16 0-3.743-0.772-5.648-4.066-4.8-7.92-2.019-2.588-4.632-0.754-7.2-0.24-3.53 0.707-7.629 0.614-10.32 0.24-3.912-0.543-7.711-0.75-10.08-2.16-1.297 2.543-3.088 4.592-5.28 6.24 1.114 1.206 3.151 1.489 5.28 1.68 10.893 3.571 23.079 6.954 34.32 10.08 2.258 0.628 4.522 2.072 6.96 2.16 3.743 0.136 6.171-2.292 8.64-3.84 1.802-1.129 3.711-2.329 5.521-3.36 8.366-4.767 19.01-7.425 18.96-19.68-6.569 3.031-11.756 7.444-18.721 10.08 6.175-3.745 12.398-7.441 18.96-10.8-0.045-4.787 1.8-7.513 3.36-10.8 0.881-1.857 1.707-3.874 2.64-5.521 5.813-10.261 12.347-20.933 18.24-30.24 8.515-13.447 17.611-25.844 25.92-38.64-5.969 2.902-11.796 5.917-17.76 8.88-4.548 2.26-8.975 5.006-13.68 6.48 7.649-4.109 16.256-8.253 24-12.24 3.752-1.932 8.788-3.624 10.56-7.2-7.635 3.166-15.214 7.666-22.32 10.561 7.319-4.441 15.529-7.992 23.521-11.76 0.45-1.31 1.682-1.838 2.16-3.12-11.543 4.857-21.818 10.982-33.36 15.84 11.259-6.102 23.016-11.704 34.8-17.28 0.432-1.169 1.273-1.927 1.681-3.12-14.611 6.749-29.528 14.472-43.681 20.88 14.427-7.893 29.877-14.763 44.88-22.08 0.308-1.177 2.853-2.528 1.92-3.36-15.98 8.55-32.79 15.14-48.48 23.76zm-212.4-17.28c3.518-1.922 7.653-3.227 10.8-5.52-4.423-0.62-9.345 1.66-10.8 5.52zm11.76-5.04c-3.98 2.1-8.315 3.845-12.24 6-0.178 4.859-0.072 5.812 0 11.28 4.79-1.865 9.331-4.255 13.92-6.48 4.621-2.24 9.482-4.136 13.68-6.96-4.952-1.45-10.298-2.5-15.36-3.84zm236.4 18.96c4.972-5.588 9.914-12.486 13.68-18.48-4.45 6.27-9.24 12.21-13.68 18.48zm-209.04-13.68c0.421 0.539 1.447 0.473 2.16 0.72 0.14-1.26-0.423-1.817-0.24-3.12-0.534-0.346-1.157-0.603-2.16-0.48-0.168 1.21 0.407 1.67 0.24 2.88zm2.879 0.96c0.642 0.238 1.266 0.495 2.16 0.48 0.163-1.211-0.487-1.752 0-2.64-0.724-0.476-1.298-1.102-2.4-1.2 0.028 1.17-0.129 2.53 0.24 3.36zm2.641 0.72c0.877-0.158 0.92 0.52 1.68 0.48 0.173-1.373-0.256-2.144-0.24-3.36-0.734 0.174-0.706-0.414-1.44-0.24-0.154 1.3 0.266 2.39 0 3.12zm-16.801-2.64c-8.641 5.15-20.118 9.007-28.32 14.16 1.659 6.315 0.985 13.997 5.76 16.8 4.382 0.629 5.924-1.073 8.64-2.4 5.448-2.661 12.343-5.365 16.32-7.92 5.986-2.573 11.78-5.34 17.28-8.399 3.753-1.607 7.585-3.135 10.8-5.28-6.709-1.75-14.15-2.681-19.92-4.32-0.844-0.24-1.021-0.767-1.92-0.72-1.517 0.08-2.445 1.266-3.84 1.92-4.362 2.045-9.458 4.371-13.92 5.76 5.373-2.868 11.593-4.887 16.56-8.16-3.079-1.171-5.514 0.975-8.64 2.4-6.09 2.777-12.353 6.229-18.24 8.4 7.196-4.324 15.817-7.223 23.04-11.521-0.957-0.28-2.957-1.1-3.6-0.72zm19.2 3.12c0.563 0.076 0.901 0.379 1.68 0.24 0.183-1.303-0.38-1.86-0.24-3.12-0.563-0.077-0.901-0.379-1.68-0.24 0.062 1.06 0.384 1.86 0.24 3.12zm2.4 0.48c0.472 0.328 1.371 0.229 1.92 0.48v-3.12c-1.102 0.221-1.16-0.601-2.16-0.48 0.013 1.11-0.106 2.35 0.24 3.12zm3.12 0.96c0.83-0.195 1.013 0.448 1.44 0-0.346-0.774-0.227-2.013-0.24-3.12-0.757 0.117-0.847-0.433-1.68-0.24 0.004 1.28-0.15 2.71 0.48 3.36zm1.68-2.64c0.183 1.578 0.106 3.414 1.92 3.36 0.535-1.084-0.298-2.045-0.24-3.36-0.876 0.21-1.278-0.42-1.68 0zm2.881 3.6c3.966 0.593 7.687 1.433 11.28 2.4 0.144-1.264-0.178-2.062-0.24-3.12-4.014-0.625-7.436-1.843-11.52-2.4-0.142 1.34 0.549 1.85 0.48 3.12zm12.48 2.64h0.72c-0.041-1.079-0.19-2.049-0.48-2.88-0.454 0.054-0.529-0.271-0.96-0.24 0.079 1.2-0.251 2.81 0.72 3.12zm1.439 0.24c7.734 2.896 16.806 2.231 22.56 6 10.397 6.81 8.687 22.912 15.6 33.36 0.989-0.188 1.232 0.368 2.16 0.24-1.109-4.091-3.522-6.878-3.84-11.76-2.546-5.428-2.958-11.565-5.76-16.561-1.795-1.26-2.307-3.562-3.84-5.04-1.425-1.374-3.581-1.721-4.8-3.36-6.436-2.924-14.611-4.109-22.32-5.76-0.1 1.14 0.072 2 0.235 2.88zm5.28 12.72c1.747-0.333 3.506-0.654 5.76-0.48 0.37-2.99 1.513-5.207 2.16-7.92-2.125-0.3-4.779-1.267-6.48-1.2-0.159 2.641 0.319 5.918-0.24 8.16-1.383-1.35 0.628-7.064-1.2-8.64 0.467 3.59-1.431 7.09 0 10.08zm9.6-7.68c-0.94 2.021-1.795 4.125-2.16 6.721 2.767-1.394 5.642-2.679 7.92-4.561-1.058-1.58-3.235-2.04-5.76-2.16zm160.32 4.56c0.496-1.104 1.539-1.661 1.92-2.88-0.77 0.68-2.09 2.07-1.92 2.88zm-156.24 0.72c1.456-0.624 3.249-0.911 4.08-2.16-1.576 0.22-4.043 2-4.085 2.16zm-4.56 2.64c6.132 0.587 10.416 4.303 14.88 5.76-0.427-2.732-2.011-6.281-4.08-8.16-1.797 0.942-4.197 2.495-6 2.64 1.398-1.242 3.302-1.979 5.28-2.64 0.275-0.995-0.505-0.936-0.48-1.68-2.86 0.661-5.134 3.184-7.92 3.119 0.066-0.494 0.894-0.226 0.96-0.72-1.03 0.42-2.277 0.61-2.645 1.68zm159.6-1.44c-0.04-0.696 1.386-1.153 0.721-1.68-0.11 0.55-1.33 1.21-0.72 1.68zm-248.16 3.12c0.901 0.299 1.771 0.628 2.88 0.72-0.224-0.815-0.321-1.759-0.48-2.64-0.819-0.381-1.904-0.496-2.88-0.721 0.225 0.82 0.322 1.76 0.48 2.64zm80.64 0c5.759 0.48 9.451 3.028 13.92 4.8 1.092-0.668 2.675-0.846 3.6-1.68-4.441-1.69-12.249-6-17.525-3.12zm-80.399 0.96c-0.189 1.837 2.142 2.272 3.12 2.16 0.345-1.99-2.009-2.41-3.12-2.16zm72 1.2c1.524 0.556 3.613 0.055 4.08-1.2-1.931-0.17-3.463 0.06-4.08 1.2zm3.359 0.48c5.908-0.843 11.879 7.226 15.36 2.16-3.925-1.65-11.37-5.8-15.36-2.16zm-6.72-0.24c1.058 0.019 2.063-0.017 2.4-0.72-0.767-0.53-2.141-0.01-2.4 0.72zm168.24 9.84c2.638-2.724 5.138-6.862 6.721-9.841-2.24 3.29-4.75 6.3-6.72 9.84zm-233.28-7.44c0.083-1.289-2.165-1.507-2.88-1.2 0.527 0.75 1.928 1.65 2.88 1.2zm100.56 2.4c-1.454-1.666-3.823-2.417-5.76-3.601-0.998 0.762-2.651 0.869-3.6 1.681 4.225 2.415 7.618 5.662 11.04 8.88-0.39-2.49-1.49-4.28-1.68-6.96zm-33.125-2.88c9.653 0.638 17.946 5.824 24 10.319 2.179 3.102 4.97 5.591 7.92 7.92 7.96 10.903 15.445 26.067 15.84 44.16 0.299 13.704-5.615 25.391-15.36 31.68 2.795-0.964 4.551-2.969 6.72-4.56 1.64-3.361 4.913-5.629 6.48-9.36 3.314-7.889 3.984-19.31 2.16-30.239-0.184-1.103-0.906-2.236-1.2-3.36-1.228-4.699-2.37-8.131-4.08-12-4.167-9.429-9.388-17.279-16.32-23.521-1.83-1.646-3.05-2.755-5.28-4.319-6.273-4.403-18.81-10.019-29.04-6.24-1.445 0.534-3.408 1.131-3.12 1.92 3.062-1.6 7.698-2.64 11.275-2.4zm-66.479 1.92c-0.577-0.224-0.636-0.965-1.68-0.721-0.187 0.84 1.499 1.04 1.68 0.72zm104.88 16.8c-0.761-1.478-0.992-3.089-1.68-4.561-1.029-2.198-3.291-3.842-5.28-5.52-2.2-1.855-4.153-3.936-5.76-5.04-2.738-1.883-6.12-3.551-7.92-0.48 10.947 6.733 19.226 16.135 24.96 28.08 1.097 0.138 1.333-0.588 2.16-0.72-2.75-3.31-4.41-7.73-6.48-11.76zm-37.444-17.28c-3.315-0.196-5.385 1.491-8.16 2.16 0.322-1.197 2.445-0.596 2.64-1.92-2.476 0.324-4.42 1.18-6 2.399 16.563 0.157 24.752 8.688 33.36 16.801 2.926 3.954 6.139 7.621 8.16 12.479 2.235-1.124 4.794-1.926 6.48-3.6-5.9-10.9-13.705-19.895-25.44-24.96-1.988 0.653-4.2 2.357-6 2.399 1.224-1.496 3.818-1.621 5.28-2.88-2.931-0.97-6.652-2.66-10.324-2.88zm-26.881 20.16h-0.48c-0.451-2.627 0.347-5.74-0.48-7.92-2.524 3.463-1.152 8.193-0.96 12 1.062-3.018 2.878-5.282 4.8-7.44 3.326-3.233 7.259-5.861 12.96-6.72 0.651-0.148 1.905 0.305 2.16-0.24-0.984-1.096-0.255-3.904-0.48-5.76-7.992 0.168-13.098 3.222-17.52 6.96-0.078 4.44 0.268 6.53 0 9.12zm18.24-10.08h1.68v-5.76h-1.68v5.76zm2.4 0c0.779-0.139 1.117 0.163 1.68 0.24v-5.521c-0.745 0.025-0.685-0.755-1.68-0.479v5.76zm3.84 0.48c0.217-1.43-0.018-4.156 0-5.521-0.565 0.006-0.707-0.413-1.44-0.24-0.067 1.55-1.374 6.31 1.44 5.76zm0.72 0c0.472 0.106 1.484 0.89 1.92 0.239-0.233-1.028-0.376-2.895 0-4.8-0.388-0.412-1.004-0.596-1.92-0.479v5.04zm6 2.16c-0.36-1.88 0.955-5.435-1.2-5.52-0.247 1.513 0.538 4.058-0.48 4.8-0.668-1.332 0.188-4.188-0.48-5.52h-1.44v4.8c1.214 0.47 2.125 1.24 3.6 1.44zm150 9.6c4.01-4.23 6.729-9.75 10.08-14.641-3.89 4.35-6.6 9.88-10.08 14.64zm-149.28-8.88c1.343 0.417 2.116 1.404 3.6 1.68 0.833 1.816 2.961 1.907 4.32 3.12 1.106 0.987 1.983 2.527 3.12 3.6 3.675 3.466 6.377 7.352 9.12 11.521 6.27 10.196 10.935 28.586 6 43.439 0.377 0.023 0.832-0.032 0.72 0.48 0.207 3.356-0.029 4.944 0.48 8.399 5.524-8.228 5.618-21.58 4.32-31.92-4.988-20.009-14.614-36.926-31.68-45.6-0.005 1.76-0.005 3.52-0.005 5.28zm231.6-0.72c1.32-0.043 3.302-1.496 4.561-2.399-0.187 0.054-0.474 0.006-0.48 0.24-1.54 0.55-2.61 1.55-4.08 2.16zm-245.28-1.44h-0.72c-1.248 0.372-3.217 0.363-3.84 0.96-3.86 3.695-7.363 12.188-7.2 20.16 10.328 11.831 20.57 25.029 30 36.96-5.604-5.516-10.066-12.174-15.36-18-1.916-3.396-4.876-6.365-7.44-9.36-2.61-3.049-4.702-6.602-7.68-8.64 0.712 8.453 1.014 17.108 5.52 22.56 7.196 8.705 14.781 17.88 21.6 26.4 4.751 2.413 11.59 4.463 18.24 2.88 0.958-1.362 2.043-2.597 2.64-4.32-11.022-13.457-22.834-27.405-32.88-41.04 11.487 13.073 21.692 27.428 33.36 40.32 2.959-3.281 3.398-9.082 4.32-14.4-8.715-9.445-15.788-20.532-24.72-29.76-1.197-2.205-2.991-4.179-4.56-6.24-1.583-2.08-3.601-3.978-4.32-6.239 10.433 12.526 20.265 25.655 30.96 37.92 0.633 1.206 1.217 2.463 2.64 2.88 0.168-15.209-5.169-24.911-10.56-34.561-4.16-3.76-6.194-9.646-12-11.76-0.15-0.57-0.323-1.117-0.96-1.2-4.56-2.641-9.278-5.122-16.08-5.52-0.094 0.972 0.894 1.718 1.44 2.399 5.037 6.286 9.94 12.454 14.88 18.721 5.716 7.25 12.182 14.103 16.8 21.359-11.686-13.84-23-28.04-34.085-42.48zm103.44 3.84c-2.541 1.292-5.394 2.287-8.4 3.84-0.7 0.361-3.688 2.095-3.84 2.64 0.115-0.412 0.477 1.425 0.48 1.44 1.404 6.011 2.626 12.835 1.68 20.16-0.131 1.013-0.539 1.092-0.72 2.16-1.466 8.62-4.38 14.435-10.32 19.439-3.614 2.066-7.449 3.911-11.04 6-0.292 1.548 0.602 4.282-0.48 5.04-0.223-2.218 0.351-3.647-0.48-4.56-2.002 1.037-3.991 2.089-5.76 3.359 6.543 3.038 16.086 2.594 23.04 0.24-0.857-2.493-5.25 0.582-5.52-1.92 0.248-0.712 1.613-0.308 1.68-1.2-0.782-1.619-2.94-3.137-3.12-4.56 2.096 0.784 2.295 3.465 4.32 4.319 1.34-0.819 2.164-2.156 3.84-2.64 0.821-1.047 1.163-2.503 2.16-3.6 0.104-0.114 0.625 0.12 0.72 0 1.396-1.767 1.893-4.938 4.56-5.521 0.336 1.297-0.648 1.272-0.72 2.16 1.603 0.157 3.836-0.316 5.04 0.24-0.948 1.013-3.387 0.261-4.8 0.24-0.46 0.58-0.151 1.928-0.24 2.88 2.399-0.063 2.79-0.298 4.56 0 0.563-2.397 1.715-4.205 2.4-6.48-1.925-0.181-3.785-0.99-5.76-1.439-1.994-0.454-4.396-0.298-5.76-1.681 4.143 0.737 7.843 1.918 12 2.641 1.375-2.625 2.176-5.824 2.88-9.12-3.78-0.86-8.376-0.904-11.76-2.16 3.567-0.035 7.797 1.314 12 1.44 0.542-4.618 1.374-10.264 0.72-14.641-4.319 0.401-8.76 1.959-12.72 1.92 3.765-1.354 8.816-1.423 12.72-2.64-0.309-5.555-1.344-10.469-2.4-14.64-3.853 0.388-6.878 2.88-10.56 2.64 3.458-1.022 6.605-2.354 10.32-3.12 0.17-1.37-0.64-1.77-0.72-2.88zm138.24 0c-3.286 1.754-6.605 3.474-9.6 5.52 3.48-1.55 6.56-3.51 9.6-5.52zm-256.32 3.12c1.605-0.475 2.433-1.728 3.36-2.88-1.731 0.35-2.216 1.95-3.36 2.88zm-8.64 14.88c-1.045-2.668-0.211-8.771-0.48-12.96-6.849 13.673-3.505 33.962 3.12 46.32-0.564-3.069 0.646-6.673 0.24-9.601-0.194-1.403-1.383-2.699-1.68-4.08-0.547-2.545-0.713-5.441-0.96-7.92-1.042-10.472 3.284-19.257 1.44-29.04-3.269 3.96 0.008 12.87-1.68 17.28zm10.08-3.36c-0.003-4.564 1.969-9.23 3.6-12.96-2.814 2.786-3.924 7.276-5.04 11.761 0.579 0.16 0.953 1.75 1.44 1.2zm-3.599-8.4c1.309-0.296 2.904-1.57 2.64-2.641-0.853 0.91-2.456 1.07-2.64 2.64zm70.324 3.36c-0.327-1.673-1.221-2.778-1.68-4.319-0.769-0.352-1.417-0.823-2.64-0.721 0.68 2.43 1.44 4.79 4.32 5.04zm-72.245 0.48c1.514-0.967 3.31-1.65 3.6-3.84-1.762 0.56-3.771 2.15-3.6 3.84zm249.36-3.36c0.011-0.255-0.113-0.609-0.24-0.24-7.837 4.344-15.235 9.39-23.04 13.921-7.736 4.491-15.728 8.844-23.279 13.68-13.187 8.443-27.264 15.999-40.561 24-1.852 1.114-4.107 2.188-5.279 4.08 31-18.27 61.8-36.75 92.4-55.44zm-145.44 2.64c1.187 4.333 1.625 9.415 2.4 14.159 1.532-0.867 3.019-1.781 4.56-2.64-0.579-3.509-0.581-9.22-2.16-12.479-1.174 0.669-2.694 2.261-4.08 1.92 1.328-1.072 3.321-1.479 4.08-3.12-1.53-0.16-3.14 1.67-4.8 2.16zm-105.6 5.28c1.503-0.177 1.926-1.434 3.36-1.68-0.128-1.488 0.739-1.98 0.72-3.36-2.651 0.39-3.57 2.51-4.08 5.04zm72.965-3.12c0.672-0.275 1.248-0.275 1.92 0 0.098-0.578-0.438-0.521-0.24-1.199-0.943-0.177-1.823-0.417-2.64-0.721-0.27 1.23 0.95 0.97 0.96 1.92zm12.24 7.2c2.244 8.807 4.706 22.389 1.92 31.44 5.725-2.596 10.969-5.672 16.32-8.641 0.535-1.704 1.043-3.437 1.44-5.279-5.807 2.433-10.93 6.83-16.56 8.64 5.455-3.585 11.716-6.364 17.04-10.08 0.577-3.384 1.128-5.493 0.96-9.36-0.979 0.221-1.876 0.524-2.4 1.2-2.443 1.008-4.842 2.305-7.2 3.601-2.347 1.289-4.696 2.93-7.2 3.359 5.389-3.171 11.029-6.091 16.8-8.88-0.115-5.211-0.87-8.132-1.68-12.479-6.187 2.375-11.805 6.591-17.76 8.399 4.369-2.359 9.131-4.971 13.44-7.199 1.399-0.725 3.745-0.918 4.08-2.881-6.6 1.56-10.64 7.76-19.2 8.16zm-9.36-5.76c-0.313-0.967-1.641-0.919-2.64-1.2 0.3 1.47 1.34 1.04 2.64 1.2zm1.44 1.68c-0.549-0.73-1.399-1.16-2.64-1.199 0.16 0.97 2.25 1.25 2.64 1.2zm97.2 8.16c1.538-3.022 4.287-6.112 5.04-9.12-1.63 2.93-4.08 6.32-5.04 9.12zm-174.96-6.96c-1.44 8.548-0.77 19.486 2.16 26.4 1.453-0.548 2.904-1.097 3.6-2.4-2.512-6.003-3.541-17.058-2.4-25.68-0.014-0.146-0.036-0.284-0.24-0.24-0.845 0.84-1.972 1.39-3.12 1.92zm66.004-1.68c-1.729 1.392-4.393 1.847-6 3.359 3.536 6.145 5.952 13.408 7.68 21.36 2.215-0.745 3.989-1.931 6-2.88-1.25-8.59-3.83-15.85-7.68-21.84zm10.8 2.16c-1.455-1.04-3.499-2.971-5.04-0.721 2.253 5.828 4.898 11.262 5.76 18.48 1.74-0.18 2.384-1.456 3.84-1.92-1.06-5.85-2.88-10.26-4.56-15.84zm-67.205 18.24c-1.799-5.333-2.715-12.694-2.16-18.96-0.691-0.028-0.417-1.023-1.2-0.96-1.052 6.65-1.637 17.15 3.36 19.92zm73.445-1.68c1.449-0.15 2.5-0.7 3.6-1.2-0.47-5.621-1.718-8.552-2.64-12.96-1.581-0.739-3.425-1.215-5.52-1.439 2 4.71 3.28 10.15 4.56 15.6zm28.8-0.96c0.203-2.86 1.908-6.943 0.72-10.32-1.29 0.95-2.604 1.876-4.32 2.4 0.159 6.843-0.636 11.325-2.4 16.32 3.326-0.916 5.902-3.857 5.52-7.681-0.98 0.545-2.31 2.005-3.36 1.681 0.94-1.13 2.42-1.73 3.84-2.4zm58.32-1.92c1.938-1.901 3.052-4.628 4.56-6.96-1.94 1.91-3.03 4.66-4.56 6.96zm-87.12 3.6c0.414 4.98 0.826 8.235 0.72 12.24 1.176-0.345 2.185-0.855 3.36-1.2 0.14-5.123 0.735-8.664-0.48-12.239-1.35 0.25-2.29 0.92-3.6 1.2zm-0.96 13.44c0.667-1.501 0.329-12.621-0.48-13.92-0.091-0.147-0.497-0.205-0.72-0.24-0.692 1.067-2.363 1.157-2.88 2.4 0.217 4.663 0.698 9.062 0.48 14.159 1.27-0.45 2.97-1 3.6-2.4zm-62.405 12.24c5.185 5.055 10.836 9.644 18.72 12-0.078-1.282-1.534-1.187-1.68-2.4-12.754-5.566-20.028-16.612-25.92-29.04-0.167-3.354-1.98-5.06-3.84-6.72 1.931 11.03 7.53 18.39 12.72 26.16zm48.245-19.68c0.331 3.688 0.305 7.257 0.96 11.04 1.853-0.946 3.835-1.765 5.76-2.64-0.026-4.506 0.106-8.04-0.96-11.28-2 0.89-3.87 1.9-5.76 2.88zm37.2 3.6c1.75-0.891 3.792-1.488 4.08-3.84-1.7 0.79-4.37 1.87-4.08 3.84zm-102.96 0c1.345 1.455 1.375 4.226 2.64 5.76 1.287-0.474 2.274-1.246 3.36-1.92-0.465-2.335-1.466-4.134-2.4-6-1.211 0.71-2.461 1.38-3.6 2.16zm31.2 22.56c0.255 0.011 0.609-0.113 0.24-0.24-5.65-7.36-12.017-14.643-17.76-21.359-0.875-1.024-1.11-2.566-2.64-2.88 4.982 9.9 10.629 19.13 20.16 24.48zm53.765-14.64c0.006 1.286-0.512 2.047-0.72 3.12 5.134-3.614 14.41-5.271 16.56-11.28-5.53 2.48-10.32 5.69-15.84 8.16zm16.8-5.76c1.175-0.746 2.903-0.938 3.36-2.4-1.43 0.34-3.36 1.44-3.36 2.4zm-101.28 10.08c-0.02-4.14 0.424-8.743-1.68-10.8 0.195 3.97-0.815 9.14 1.68 10.8zm81.125-9.12c-0.525 1.954-0.828 4.132-0.96 6.479 1.174 0.055 1.508-0.731 2.64-0.72 0.325-2.435 2.093-4.887 0.96-6.72-0.66 0.55-1.67 0.73-2.64 0.96zm18.72 1.2c0.396-0.884 1.815-0.744 2.16-1.68-0.68 0.46-2.68 0.84-2.16 1.68zm-97.205 2.4c0.738 0.462 0.682 1.719 1.44 2.16 0.763-1.077 2.574-1.105 3.12-2.4-0.193-3.49-3.553-1.34-4.56 0.24zm93.605-1.92c-3.958 3.242-10.014 4.387-13.2 8.399 4.692-2.828 10.144-4.896 14.16-8.399h-0.96zm-22.08 12.48c2.079-0.4 3.455-1.505 3.36-4.08-0.912 0.147-1.647 1.416-2.4 0.961 0.68-1.08 2.113-1.408 3.12-2.16 0.188-2.655 0.744-3.876 1.2-6.721-1.626 0.024-2.22 1.917-3.6 1.44-0.51 3.57-0.68 7.49-1.68 10.56zm-2.16-11.52c-1.885 0.037-4.293 1.625-6.24 2.4 0.167 2.566-0.298 4.502-0.48 6.72 2.133-0.827 4.014-1.906 6-2.88 0.26-2.55 0.42-3.72 0.72-6.24zm39.12 7.92c-0.807-1.948-0.11-2.867-0.24-5.52-2.889 0.938-0.029 4.821-1.68 7.439-0.701-1.574-0.325-2.844-0.24-5.04-1.432 0.201-2.915 2.341-4.08 3.601 2.37 0.511 3.242 2.518 4.8 3.84 0.861-2.185 4.44-2.642 6.72-2.641-1.771-2.789-3.48-5.64-4.8-8.88-0.31 2.26 0.62 5.74-0.48 7.2zm-108.72 2.4c-0.077-3.604 0.596-7.956-1.68-9.36 0.23 3.45-0.856 8.22 1.68 9.36zm1.919-6.24c1.62 4.264 6.971 9.442 10.56 13.2 0.638 0.668 4.17 3.775 5.04 3.84 1.325 0.098 2.218-1.571 3.36-1.681-5.723-5.237-11.736-10.184-15.12-17.76-0.331 0.011-0.527-0.113-0.72-0.24-0.716 1.21-2.763 1.08-3.12 2.64zm109.68-2.4c-0.27 1.286 1.251 2.708 1.68 4.08 1.534-0.102 3.239 0.221 3.6-0.479-0.38-0.421-0.321-1.279-0.48-1.92-1.164-0.276-3.46 0.579-3.84-0.48 1.223-0.218 3.375 0.495 3.84-0.479-0.29-0.051-0.148-0.267 0-0.48-1.52-0.38-4.1-0.37-4.8-0.24zm-28.32 5.28c2.62-1.381 5.472-2.528 7.68-4.32-2.12 0.93-5.49 2.67-7.68 4.32zm-5.76-2.16c0.16 1.119-0.378 1.542-0.48 2.4 0.86-0.021 1.387-0.373 2.16-0.48 0.266-1.014 0.765-1.795 0.96-2.88-1.16 0.05-1.81 0.6-2.64 0.96zm76.8 1.2c0.767 0.339 0.606-1.437 0.24-1.44-0.28 0.29-0.28 0.85-0.24 1.44zm-146.4 14.88c6.689 5.231 12.566 11.273 23.04 12.72 0.138-1.175-0.092-3.635 0-5.52-0.58-0.46-1.929-0.151-2.88-0.24-12.31-4.33-21.158-12.121-27.36-22.56-1.542 8.95 3.947 10.92 7.2 15.6zm111.12-4.56h2.88c-0.215-4.665-2.592-7.168-4.56-10.08h-3.36c1.45 3.59 4.12 5.96 5.04 10.08zm-56.88-3.6c2.62-0.911 7.272-2.312 6-5.52-2.29 1.56-6.12 1.57-6 5.52zm14.16-2.64c1.699-0.062 2.355-1.165 2.64-2.641-1.61 0.16-2.83 0.69-2.64 2.64zm-0.96 2.16c1.042-0.086 2.447-1.063 1.92-1.92-0.6 0.68-1.95 0.61-1.92 1.92zm32.64 1.44c-1.681 5.706 4.665 8.166 8.16 5.28 1.587-2.969-0.738-6.27-2.64-7.92-3.15-0.42-4.26 1.19-5.52 2.64zm-46.32 0c-0.002 0.638 0.091 1.371-0.24 1.681 2.422-0.778 5.389-1.011 5.76-3.841-2.38 0.18-3.46 1.67-5.52 2.16zm9.12 0c1.279-0.48 2.649-0.87 3.12-2.16-1.33 0.44-2.62 0.91-3.12 2.16zm3.84 0.24c0.726-0.154 1.385-0.375 1.44-1.2-1.02-0.14-1.12 0.65-1.44 1.2zm-19.68 10.8c1.534-3.423 1.038-7.885 0.48-11.52-1.78 2.35-1.08 8.13-0.48 11.52zm15.12-8.4c1.113-0.571 3.073-1.562 2.64-2.881-1.1 0.59-3.05 1.59-2.64 2.88zm-9.12 0.96c1.89-0.831 4.44-1 5.28-2.88-1.97 0.75-4.49 0.96-5.28 2.88zm8.16 0.72c0.777-0.583 1.78-0.94 2.4-1.68-0.89 0.32-2.78 0.9-2.4 1.68zm-16.56 9.6c2.385-2.323 1.035-7.315 0.96-11.04-2 2.38-1.73 8.45-0.96 11.04zm7.44-7.68c1.682-1.118 4.426-1.174 5.04-3.36-2.26 0.25-5.66 1.84-5.04 3.36zm58.8-0.96h2.88c-0.053-0.772 0.424-1.016 0.24-1.92-1.84-0.92-3.83 0.18-3.12 1.92zm-60 2.88c1.455-0.944 3.782-1.018 4.56-2.64-1.65 0.59-4.55 1.22-4.56 2.64zm59.28-1.2c1.058 0.343 1.503-0.109 2.88 0-0.018-0.418 0.053-0.746 0.24-0.96-1-0.49-3.31-0.49-3.12 0.96zm-96.725-0.96c-0.886 0.714-2.113 1.087-2.88 1.92 3.774 2.459 9.965 5.571 16.08 5.521 1.72-0.015 6.057-0.807 6-1.681-7.93 0.57-13.681-3.12-19.2-5.76zm43.445 4.08c1.105-1.454 2.842-2.277 3.84-3.84-1.45 0.95-3.74 2.35-3.84 3.84zm-15.6 5.04v-6.24c-3.133 0.228-0.882 5.839-1.92 8.16-0.562-1.558-0.308-5.152-0.24-6.24-4.162 2.252-9.121 4.395-15.36 3.841v5.76c8.263 1.402 15.414-1.867 19.92-5.76v-7.92c-3.758 0.14-0.64 6.83-2.4 8.4zm-7.925-5.76c-2.383-0.578-5.77-1.429-7.68-1.68 1.014 2.22 5.743 2.48 7.68 1.68zm15.845 0.96c1.454-0.653 5.026-1.657 4.32-2.88-1.2 1.2-3.7 1.11-4.32 2.88zm59.76-2.16c0.624 0.449 2.337 0.384 2.4-0.479-0.84 0.13-2.28-0.35-2.4 0.48zm-60.96 3.84c1.357-0.246 3.354-1.12 3.36-1.92-1.04 0.73-2.57 0.96-3.36 1.92z"/>
	<path d="m200.72 37.751c-1.047 5.057-10.73 4.134-15.6 3.12-1.015 0.829-3.184 1.772-4.08 1.92 0.58-1.18 2.408-1.112 3.36-1.92 0.122-1.162-1.101-0.98-0.721-2.4 2.51-3.532 13.9-4.254 17.04-0.72zm-12.48-0.48c-0.143 0.498 0.297 1.577-0.24 1.68-0.582-0.138 0.112-1.553-0.72-1.44-0.493 0.387-0.557 1.203-0.48 2.16 1.212 0.171 1.753-0.328 2.641-0.48 0.143-0.497-0.297-1.576 0.239-1.68 0.933 0.298-0.156 1.226 0.721 1.68 1.788-0.368 4.691-0.368 6.479 0v-1.92c-2.28-1.095-6.19-0.264-8.64 0zm9.36 1.68c0.504 0.508 0.936-0.282 1.439-0.48-0.197-0.603-0.314-1.286-1.2-1.2 0.14 0.779-0.17 1.117-0.24 1.68zm-11.76 0.72c0.395 0.04 0.395-1.479 0-1.44-0.55 0.311-1.1 1.313 0 1.44z"/>
</g>
<metadata><rdf:RDF><cc:Work><dc:format>image/svg+xml</dc:format><dc:type rdf:resource="http://purl.org/dc/dcmitype/StillImage"/><cc:license rdf:resource="http://creativecommons.org/licenses/publicdomain/"/><dc:publisher><cc:Agent rdf:about="http://openclipart.org/"><dc:title>Openclipart</dc:title></cc:Agent></dc:publisher><dc:title>surveillance camera</dc:title><dc:date>2006-11-23T14:35:11</dc:date><dc:description>a surveillance camera from a U.S. patent illustration</dc:description><dc:source>http://openclipart.org/detail/1594/surveillance-camera-by-johnny_automatic</dc:source><dc:creator><cc:Agent><dc:title>johnny_automatic</dc:title></cc:Agent></dc:creator><dc:subject><rdf:Bag><rdf:li>camera</rdf:li><rdf:li>clip art</rdf:li><rdf:li>clipart</rdf:li><rdf:li>electronics</rdf:li><rdf:li>externalsource</rdf:li><rdf:li>image</rdf:li><rdf:li>media</rdf:li><rdf:li>png</rdf:li><rdf:li>public domain</rdf:li><rdf:li>security</rdf:li><rdf:li>surveillance</rdf:li><rdf:li>svg</rdf:li><rdf:li>uspto</rdf:li></rdf:Bag></dc:subject></cc:Work><cc:License rdf:about="http://creativecommons.org/licenses/publicdomain/"><cc:permits rdf:resource="http://creativecommons.org/ns#Reproduction"/><cc:permits rdf:resource="http://creativecommons.org/ns#Distribution"/><cc:permits rdf:resource="http://creativecommons.org/ns#DerivativeWorks"/></cc:License></rdf:RDF></metadata></svg>
