<?xml version="1.0"?>
<svg xmlns:rdf="http://www.w3.org/1999/02/22-rdf-syntax-ns#" xmlns="http://www.w3.org/2000/svg" xmlns:cc="http://creativecommons.org/ns#" xmlns:xlink="http://www.w3.org/1999/xlink" xmlns:dc="http://purl.org/dc/elements/1.1/" xmlns:svg="http://www.w3.org/2000/svg" id="svg2" viewBox="0 0 48 48" version="1.1">
  <title id="title4161">Light bulb icon</title>
  <defs id="defs4">
    <linearGradient id="linearGradient3817">
      <stop id="stop3819" stop-color="#fff" offset="0"/>
      <stop id="stop3821" stop-color="#837356" offset="1"/>
    </linearGradient>
    <filter id="filter4115" y="-.41539" width="1.2124" x="-.10621" height="1.8308">
      <feGaussianBlur id="feGaussianBlur4117" stdDeviation="1.1543757"/>
    </filter>
    <radialGradient id="radialGradient4145" gradientUnits="userSpaceOnUse" cy="47.333" cx="-12.895" gradientTransform="matrix(1 0 0 .38609 0 29.058)" r="15.813">
      <stop id="stop4121" offset="0"/>
      <stop id="stop4123" stop-opacity=".38938" offset="1"/>
    </radialGradient>
    <linearGradient id="linearGradient4147" x1="18.929" spreadMethod="reflect" gradientUnits="userSpaceOnUse" y1="1045.3" x2="25.179" y2="1045.5">
      <stop id="stop4031" stop-color="#ffd543" offset="0"/>
      <stop id="stop4033" stop-color="#ffeca9" offset="1"/>
    </linearGradient>
    <radialGradient id="radialGradient4149" gradientUnits="userSpaceOnUse" cy="18.72" cx="23.656" gradientTransform="matrix(.99940 -.034562 .050507 1.4605 -.57423 997.5)" r="15">
      <stop id="stop3797" stop-color="#fff" stop-opacity=".33725" offset="0"/>
      <stop id="stop3799" stop-color="#729fcf" stop-opacity=".8902" offset="1"/>
    </radialGradient>
    <linearGradient id="linearGradient4151" x1="8.7191" gradientUnits="userSpaceOnUse" y1="1.1058" gradientTransform="translate(.35714 1005.3)" x2="30.702" y2="35.135">
      <stop id="stop3779" stop-color="#729fcf" offset="0"/>
      <stop id="stop3781" stop-color="#3465a4" offset="1"/>
    </linearGradient>
    <linearGradient id="linearGradient4153" x1="15.536" gradientUnits="userSpaceOnUse" y1="1015.4" gradientTransform="translate(0 -4.6001)" x2="42.623" y2="1039.6">
      <stop id="stop3809" stop-color="#fff" offset="0"/>
      <stop id="stop3811" stop-color="#fff" stop-opacity="0" offset="1"/>
    </linearGradient>
    <linearGradient id="linearGradient4155" x1="21.732" xlink:href="#linearGradient3817" gradientUnits="userSpaceOnUse" y1="21.437" gradientTransform="matrix(.71907 -.28041 .46212 1.185 -6.21 1005.7)" x2="21.571" y2="31.795"/>
    <linearGradient id="linearGradient4157" x1="21.732" xlink:href="#linearGradient3817" gradientUnits="userSpaceOnUse" y1="21.437" gradientTransform="matrix(-.71907 -.28041 -.46212 1.185 53.825 1005.7)" x2="21.571" y2="31.795"/>
    <linearGradient id="linearGradient4159" x1="23.887" spreadMethod="reflect" gradientUnits="userSpaceOnUse" y1="1040.8" gradientTransform="translate(0 -4.6001)" x2="26.034" y2="1040.7">
      <stop id="stop3858" stop-color="#fff" offset="0"/>
      <stop id="stop3860" stop-color="#fff" stop-opacity="0" offset="1"/>
    </linearGradient>
  </defs>
  <g id="layer1" transform="translate(0 -1004.4)">
    <g id="g4127" transform="translate(.17227 -.14017)">
      <path id="path4109" opacity=".19283" d="m0.14821 47.333c0 1.8418-5.8395 3.3348-13.043 3.3348-7.2034 0-13.043-1.4931-13.043-3.3348 0-1.8418 5.8395-3.3348 13.043-3.3348 7.2034 0 13.043 1.4931 13.043 3.3348z" transform="matrix(.87934 0 0 .87934 35.072 1006.5)" filter="url(#filter4115)" fill="url(#radialGradient4145)"/>
      <g id="g4045" transform="matrix(.87934 0 0 .87934 2.6194 121.64)">
        <path id="path4043" stroke="#5a5249" stroke-width="1px" fill="#d0bfac" d="m21.035 1049.4h6c0 4-6 4-6 0z"/>
        <path id="rect4024" stroke-linejoin="bevel" d="m17.362 1040.4c4.1669-2.946 8.2706-2.8962 12.501 0 0.04667 1.0552 0.10078 1.8872-1.6071 2.4148 2.3909 0.2047 2.2071 1.9163 0.35714 2.8572 2.0521 0.9877 2.7651 1.6946 1.25 3.0962-4.9037 3.3991-7.8229 3.2821-12.501-0.045-0.83319-0.66-0.22222-1.5596 2.0536-1.9356-2.5859-0.4353-2.6813-2.8088-0.17858-3.1696-1.9932-1.2189-1.8069-2.1317-1.875-3.2184z" stroke="#d59600" stroke-linecap="square" fill="none"/>
        <path id="path4027" fill="url(#linearGradient4147)" d="m17.804 1040.7c4.1669-2.946 8.0945-2.4059 11.585-0.032 0.14137 0.8184-0.27803 1.5083-1.1178 2.1622 2.4066 1.057 0.89706 2.5003 0.1993 2.9835 2.2573 1.3191 2.1812 1.663 0.66601 3.0646-5.2509 3.1939-7.8229 1.7669-10.575 0.3023-1.1331-0.9599-2.0216-1.1177 0.9645-2.3302-2.3175-1.1772-2.0657-2.3353-0.09966-3.3432-1.3499-1.07-1.5386-1.7451-1.6225-2.8077z"/>
        <path id="path2984-2" opacity=".26" fill="#ffc803" d="m24.013 1005.6c-8.008 0-14.5 6.492-14.5 14.5 0 3.4078 1.1884 6.5247 3.1562 9 0.009 0.011 0.02223 0.02 0.03125 0.031 3.0848 5.1457 3.3723 6.1735 3.9062 8.25 0.21377 0.8314 0.45657 2.5914 1.2812 3.4063 1.8461 1.8242 9.1157 2.3353 11.531 0 2.0691-4.148 3.5291-8.7439 5.875-11.625 2.0004-2.4857 3.2188-5.6235 3.2188-9.0625 0-8.008-6.492-14.5-14.5-14.5z"/>
        <path id="path2984" stroke="url(#linearGradient4151)" stroke-width="1.0005" fill="url(#radialGradient4149)" d="m24.013 1005.6c-8.008 0-14.5 6.492-14.5 14.5 0 3.4078 1.1884 6.5247 3.1563 9 0.009 0.011 0.02223 0.02 0.03125 0.031 3.0848 5.1457 3.3723 6.1735 3.9062 8.25 0.21377 0.8314 0.45657 2.5914 1.2812 3.4063 1.8461 1.8242 9.1157 2.3353 11.531 0 2.0691-4.148 3.5291-8.7439 5.875-11.625 2.0004-2.4857 3.2188-5.6235 3.2188-9.0625 0-8.008-6.492-14.5-14.5-14.5z"/>
        <path id="path3805" opacity=".75" stroke="url(#linearGradient4153)" fill="none" d="m24.3 1006.5c-7.7887 0.089-13.811 6.0526-13.799 13.897 0.0047 3.2885 1.4722 6.2125 2.8964 8.0208 1.2555 1.8218 3.3121 5.4871 4.0109 8.3928 0.38898 0.5498 0.42625 2.5128 1.1292 3.2545 2.0259 1.4954 7.7517 1.9539 10.164 0.089 1.9317-4.0027 3.2939-8.4053 5.484-11.186 1.8295-2.2157 3.1534-4.2724 3.3845-8.7004 0.02317-7.2372-5.4716-13.21-13.269-13.768z"/>
        <g id="g3837" stroke-linecap="round" transform="translate(.20586 -3.4566)" fill="none">
          <path id="path3815" stroke="url(#linearGradient4155)" d="m18.69 1025.9 3.4247 8.782"/>
          <path id="path3831" stroke="url(#linearGradient4157)" d="m28.925 1025.9-3.425 8.8"/>
          <path id="path3835" stroke-linejoin="round" stroke="#fff" stroke-width="1px" d="m18.728 1025.9c1.0975 0.1673 2.5585-0.051 3.3482-1.2723 1.0495 0.5915 2.1224 0.9725 3.3482-0.022 0.79329 0.7468 1.8776 1.3589 3.4821 1.2946"/>
        </g>
        <path id="path3846" opacity=".5" stroke-linejoin="round" d="m20.725 1040.9 0.15264-8.77c1.8754-1.6856 4.3546-1.6457 6.4241 0l-0.05887 8.77" stroke="#d3cdc2" stroke-linecap="round" stroke-width="1px" fill="url(#linearGradient4159)"/>
        <path id="path4022" opacity=".37" transform="matrix(1.0883 -.49096 .51575 1.1433 -1.588 1004.4)" fill="#fff" d="m19.761 15.549c0 2.8941-2.8832 5.2402-6.4397 5.2402-3.5566 0-6.4397-2.3461-6.4397-5.2402s2.8832-5.2402 6.4397-5.2402c3.5566 0 6.4397 2.3461 6.4397 5.2402z"/>
        <path id="path4039" transform="translate(0 1004.4)" fill="#d59600" d="m19.538 39.271c1.2973 0.87453 3.1392 1.4027 8.8164 2.1095-4.4205 0.49526-8.4085-0.6312-8.8164-2.1095z"/>
        <path id="path4041" fill="#d59600" d="m19.838 1046.7c1.2973 0.8746 3.1392 1.4028 8.8164 2.1095-4.4205 0.4953-8.4085-0.6312-8.8164-2.1095z"/>
      </g>
    </g>
    <text id="text4163" style="word-spacing:0px;letter-spacing:0px;text-anchor:middle;text-align:center" font-family="Sans" xml:space="preserve" transform="translate(0 1004.4)" font-size="40px" y="46.073212" x="-24.158966" font-weight="bold" line-height="125%" fill="#000000">
      <tspan id="tspan4165" y="46.073212" x="-24.158966"/>
    </text>
  </g>
  <metadata>
    <rdf:RDF>
      <cc:Work>
        <dc:format>image/svg+xml</dc:format>
        <dc:type rdf:resource="http://purl.org/dc/dcmitype/StillImage"/>
        <cc:license rdf:resource="http://creativecommons.org/licenses/publicdomain/"/>
        <dc:publisher>
          <cc:Agent rdf:about="http://openclipart.org/">
            <dc:title>Openclipart</dc:title>
          </cc:Agent>
        </dc:publisher>
        <dc:title>Light bulb icon</dc:title>
        <dc:date>2011-08-07T21:02:56</dc:date>
        <dc:description>Icon from the Tango Desktop Project</dc:description>
        <dc:source>http://openclipart.org/detail/154075/light-bulb-icon-by-lual</dc:source>
        <dc:creator>
          <cc:Agent>
            <dc:title>lual</dc:title>
          </cc:Agent>
        </dc:creator>
        <dc:subject>
          <rdf:Bag>
            <rdf:li>Icon</rdf:li>
            <rdf:li>Tango Desktop Project</rdf:li>
            <rdf:li>clip art</rdf:li>
            <rdf:li>clipart</rdf:li>
          </rdf:Bag>
        </dc:subject>
      </cc:Work>
      <cc:License rdf:about="http://creativecommons.org/licenses/publicdomain/">
        <cc:permits rdf:resource="http://creativecommons.org/ns#Reproduction"/>
        <cc:permits rdf:resource="http://creativecommons.org/ns#Distribution"/>
        <cc:permits rdf:resource="http://creativecommons.org/ns#DerivativeWorks"/>
      </cc:License>
    </rdf:RDF>
  </metadata>
</svg>
