<?xml version="1.0"?>
<svg xmlns:rdf="http://www.w3.org/1999/02/22-rdf-syntax-ns#" xmlns="http://www.w3.org/2000/svg" xmlns:cc="http://creativecommons.org/ns#" xmlns:xlink="http://www.w3.org/1999/xlink" xmlns:dc="http://purl.org/dc/elements/1.1/" xmlns:svg="http://www.w3.org/2000/svg" id="svg6431" viewBox="0 0 48 48">
  <defs id="defs6433">
    <radialGradient id="radialGradient2470" gradientUnits="userSpaceOnUse" cy="35.127" cx="23.071" gradientTransform="matrix(.91481 .012650 -.0082150 .21356 2.2539 27.189)" r="10.319">
      <stop id="stop2093" offset="0"/>
      <stop id="stop2095" stop-opacity="0" offset="1"/>
    </radialGradient>
    <linearGradient id="linearGradient2472" x1="34.893" gradientUnits="userSpaceOnUse" y1="36.423" gradientTransform="matrix(.70711 -.70711 .70711 .70711 -34.042 27.143)" x2="45.919" y2="48.548">
      <stop id="stop1324" stop-color="#729fcf" offset="0"/>
      <stop id="stop1326" stop-color="#5187d6" offset="1"/>
    </linearGradient>
    <linearGradient id="linearGradient2474" x1="16.875" gradientUnits="userSpaceOnUse" y1="22.852" gradientTransform="matrix(.70711 -.70711 .70711 .70711 -11.705 23.999)" x2="27.901" y2="34.977">
      <stop id="stop7918" stop-color="#fff" offset="0"/>
      <stop id="stop7920" stop-color="#fff" stop-opacity=".34021" offset="1"/>
    </linearGradient>
  </defs>
  <g id="layer1">
    <g id="g2464" transform="translate(1.4048 -2.2554)">
      <path id="path1361" opacity=".10825" transform="matrix(1.5505 0 0 1.9787 -13.002 -33.394)" fill="url(#radialGradient2470)" d="m33.278 34.941a10.319 2.3202 0 1 1 -20.638 0 10.319 2.3202 0 1 1 20.638 0z"/>
      <path id="text1314" stroke="#3465a4" stroke-width="1px" fill="#75a1d0" d="m34.297 31.09l-6.383-6.383 7.027-7.085-4.946-4.946-7.05 7.049-7.049-7.036-4.953 4.969 7.025 7.019-7.011 7.116 4.902 4.953 7.075-7.116 6.397 6.388 4.966-4.928z"/>
      <path id="path7076" opacity=".4086" d="m32.866 31.094l-6.389-6.388 7.073-7.073-3.557-3.548-7.062 7.062-7.068-7.067-3.519 3.544 7.061 7.049-7.077 7.102 3.498 3.535 7.123-7.11 6.374 6.393 3.543-3.499z" stroke="url(#linearGradient2474)" stroke-width="1px" fill="url(#linearGradient2472)"/>
      <path id="path7914" opacity=".31183" fill-rule="evenodd" fill="#fff" d="m23.133 24.348c1.292-0.382 2.999-0.29 4.38 0.087 3.049-2.911 5.058-4.946 6.767-6.839l-4.299-4.215-7.038 7.082-7.047-7.047-4.242 4.243 7.046 7.047c1.311 0.354 2.732 0.145 4.433-0.358z"/>
    </g>
  </g>
  <metadata>
    <rdf:RDF>
      <cc:Work>
        <dc:format>image/svg+xml</dc:format>
        <dc:type rdf:resource="http://purl.org/dc/dcmitype/StillImage"/>
        <cc:license rdf:resource="http://creativecommons.org/licenses/publicdomain/"/>
        <dc:publisher>
          <cc:Agent rdf:about="http://openclipart.org/">
            <dc:title>Openclipart</dc:title>
          </cc:Agent>
        </dc:publisher>
        <dc:title>tango style multiply</dc:title>
        <dc:date>2010-03-24T09:22:00</dc:date>
        <dc:description>Remixed Tango "list add" icon.</dc:description>
        <dc:source>http://openclipart.org/detail/33655/tango-style-multiply-by-warszawianka</dc:source>
        <dc:creator>
          <cc:Agent>
            <dc:title>warszawianka</dc:title>
          </cc:Agent>
        </dc:creator>
        <dc:subject>
          <rdf:Bag>
            <rdf:li>clip art</rdf:li>
            <rdf:li>clipart</rdf:li>
            <rdf:li>cross</rdf:li>
            <rdf:li>icon</rdf:li>
            <rdf:li>maths</rdf:li>
            <rdf:li>multiply</rdf:li>
            <rdf:li>remix</rdf:li>
            <rdf:li>sign</rdf:li>
            <rdf:li>symbol</rdf:li>
            <rdf:li>tango</rdf:li>
          </rdf:Bag>
        </dc:subject>
      </cc:Work>
      <cc:License rdf:about="http://creativecommons.org/licenses/publicdomain/">
        <cc:permits rdf:resource="http://creativecommons.org/ns#Reproduction"/>
        <cc:permits rdf:resource="http://creativecommons.org/ns#Distribution"/>
        <cc:permits rdf:resource="http://creativecommons.org/ns#DerivativeWorks"/>
      </cc:License>
    </rdf:RDF>
  </metadata>
</svg>
