<?xml version="1.0"?>
<svg xmlns:rdf="http://www.w3.org/1999/02/22-rdf-syntax-ns#" xmlns="http://www.w3.org/2000/svg" xmlns:cc="http://creativecommons.org/ns#" xmlns:xlink="http://www.w3.org/1999/xlink" xmlns:dc="http://purl.org/dc/elements/1.1/" xmlns:svg="http://www.w3.org/2000/svg" id="svg2644" viewBox="0 0 358.57 821.6" version="1.0">
  <defs id="defs2647">
    <linearGradient id="linearGradient2658" y2="16.205" gradientUnits="userSpaceOnUse" x2="987.61" gradientTransform="matrix(.86505 0 0 1.156 -89.756 -98.312)" y1="308.06" x1="259.37">
      <stop id="stop7238" offset="0"/>
      <stop id="stop7240" stop-opacity="0" offset="1"/>
    </linearGradient>
    <linearGradient id="linearGradient2660" y2="24.055" gradientUnits="userSpaceOnUse" x2="726.5" gradientTransform="matrix(.89229 0 0 1.0057 -89.124 -49.501)" y1="318.55" x1="250.15">
      <stop id="stop25366" offset="0"/>
      <stop id="stop25368" stop-opacity="0" offset="1"/>
    </linearGradient>
  </defs>
  <path id="path2559" d="m-86.575 756.3z" stroke="#000" stroke-width="1px" fill="none"/>
  <g id="g2598" transform="translate(-87.075)">
    <path id="rect2661" d="m87.575 33.405c59.595-30.163 119.2-32.905 178.78-32.905 59.6 0 133.73 2.7421 178.79 32.905v723.92c0 82.27-357.57 87.75-357.58 0.01l0.005-723.92z" stroke="#000" fill="#cfd2ca" fill-opacity=".66452"/>
    <path id="path4182" d="m110.77 62.782c52.35-27.815 104.7-30.344 157.04-30.344 52.35 0 117.47 2.529 157.05 30.344v667.57c0 75.86-314.09 80.92-314.09 0v-667.57z" stroke="#000" fill="#cfd2ca" fill-opacity=".68627"/>
    <path id="rect4960" fill="url(#linearGradient2658)" d="m154.36 61.508h224.01c19.32 0 34.88 15.559 34.88 34.885v322.83c0 19.32-15.56 34.88-34.88 34.88h-224.01c-19.33 0-34.89-15.56-34.89-34.88v-322.83c0-19.323 15.56-34.882 34.89-34.882z"/>
    <path id="rect8022" d="m168.61 121.88h197.85c19.33 0 34.88 15.56 34.88 34.88v230.18c0 19.33-15.55 34.88-34.88 34.88h-197.85c-19.32 0-34.88-15.55-34.88-34.88v-230.18c0-19.32 15.56-34.88 34.88-34.88z" stroke="#000" fill="#fff"/>
    <path id="rect10328" fill="url(#linearGradient2660)" d="m168.97 120.42h197.17c19.33 0 34.89 15.56 34.89 34.89v231.1c0 19.32-15.56 34.88-34.89 34.88h-197.17c-19.33 0-34.89-15.56-34.89-34.88v-231.1c0-19.33 15.56-34.89 34.89-34.89z"/>
    <path id="text12682" fill="#fff" d="m196.81 103.3v-19.67h2.99v9.753l11.22-9.753h4.05l-9.47 7.969 9.89 11.701h-3.94l-8.05-9.957-3.7 3.139v6.818h-2.99zm36.03-19.67h2.99v11.363c0 1.976-0.25 3.546-0.77 4.709-0.51 1.158-1.44 2.108-2.78 2.838s-3.1 1.09-5.28 1.09c-2.11 0-3.84-0.32-5.19-0.95-1.35-0.64-2.31-1.55-2.88-2.757-0.58-1.203-0.87-2.846-0.87-4.93v-11.363h2.99v11.349c0 1.709 0.19 2.967 0.55 3.777 0.37 0.809 0.99 1.434 1.88 1.874s1.98 0.65 3.26 0.65c2.2 0 3.77-0.43 4.7-1.297 0.94-0.867 1.4-2.535 1.4-5.004v-11.349zm7.87 19.67v-19.67h8.47c1.73 0 3.11 0.199 4.16 0.597 1.04 0.398 1.86 1.011 2.45 1.838s0.88 1.692 0.88 2.596c0 0.84-0.26 1.632-0.78 2.374-0.53 0.743-1.32 1.342-2.38 1.798 1.37 0.349 2.42 0.944 3.15 1.784 0.74 0.841 1.11 1.834 1.11 2.978 0 0.922-0.23 1.778-0.67 2.565-0.45 0.8-1 1.41-1.66 1.84-0.66 0.42-1.48 0.75-2.47 0.97-1 0.22-2.21 0.33-3.65 0.33h-8.61zm2.99-11.406h4.88c1.33 0 2.28-0.076 2.85-0.228 0.76-0.197 1.34-0.523 1.72-0.98 0.39-0.456 0.58-1.028 0.58-1.717 0-0.653-0.18-1.227-0.54-1.724-0.36-0.496-0.87-0.836-1.54-1.019-0.67-0.184-1.82-0.275-3.44-0.275h-4.51v5.943zm0 9.086h5.62c0.97 0 1.64-0.04 2.03-0.1 0.69-0.11 1.27-0.28 1.73-0.53s0.84-0.619 1.14-1.098c0.3-0.478 0.45-1.031 0.45-1.657 0-0.733-0.22-1.37-0.65-1.911s-1.03-0.921-1.79-1.141c-0.77-0.219-1.87-0.328-3.31-0.328h-5.22v6.765zm18.27 2.32v-19.67h16.34v2.321h-13.35v6.023h12.5v2.308h-12.5v6.698h13.87v2.32h-16.86zm21 0v-19.67h3.06l11.87 15.441v-15.441h2.87v19.67h-3.07l-11.87-15.458v15.458h-2.86zm21.82-6.322l2.82-0.214c0.13 0.983 0.44 1.791 0.93 2.421 0.49 0.631 1.25 1.145 2.28 1.525 1.02 0.39 2.18 0.59 3.46 0.59 1.14 0 2.15-0.15 3.02-0.44 0.88-0.3 1.53-0.7 1.95-1.219 0.43-0.514 0.64-1.075 0.64-1.683 0-0.617-0.2-1.156-0.61-1.617s-1.09-0.847-2.04-1.16c-0.6-0.206-1.94-0.526-4.02-0.96-2.08-0.433-3.53-0.842-4.36-1.227-1.08-0.492-1.88-1.102-2.41-1.831s-0.8-1.545-0.8-2.449c0-0.992 0.33-1.92 0.97-2.783 0.65-0.863 1.6-1.518 2.84-1.966 1.24-0.447 2.62-0.67 4.15-0.67 1.67 0 3.15 0.234 4.43 0.704 1.28 0.469 2.26 1.16 2.95 2.073 0.69 0.912 1.06 1.945 1.11 3.099l-2.87 0.187c-0.15-1.243-0.68-2.182-1.56-2.817-0.89-0.635-2.21-0.952-3.94-0.952-1.81 0-3.13 0.288-3.95 0.865-0.83 0.577-1.25 1.272-1.25 2.086 0 0.707 0.3 1.288 0.88 1.744s2.08 0.923 4.51 1.402c2.43 0.478 4.1 0.897 5 1.254 1.32 0.528 2.29 1.196 2.92 2.006 0.62 0.809 0.94 1.742 0.94 2.797 0 1.046-0.35 2.032-1.04 2.957-0.69 0.93-1.67 1.65-2.96 2.16-1.29 0.52-2.74 0.77-4.36 0.77-2.04 0-3.76-0.26-5.14-0.78-1.38-0.51-2.46-1.29-3.25-2.34-0.79-1.039-1.2-2.217-1.24-3.532z"/>
    <path id="text13444" fill="#fcf9f9" d="m256.45 441.87l1.86 0.53c-0.39 1.73-1.09 3.05-2.11 3.95-1.01 0.91-2.26 1.36-3.72 1.36-1.52 0-2.76-0.35-3.71-1.04-0.95-0.7-1.67-1.71-2.17-3.03-0.49-1.33-0.74-2.75-0.74-4.26 0-1.66 0.28-3.1 0.84-4.34 0.56-1.23 1.36-2.16 2.39-2.8s2.17-0.96 3.42-0.96c1.41 0 2.59 0.4 3.55 1.21s1.63 1.95 2.01 3.42l-1.84 0.48c-0.32-1.15-0.8-1.99-1.42-2.52s-1.4-0.79-2.34-0.79c-1.08 0-1.99 0.29-2.72 0.87-0.72 0.59-1.23 1.38-1.53 2.36-0.29 0.99-0.44 2.01-0.44 3.05 0 1.36 0.17 2.54 0.52 3.54 0.35 1.01 0.89 1.77 1.63 2.27 0.74 0.49 1.54 0.74 2.39 0.74 1.05 0 1.93-0.34 2.66-1.02 0.72-0.68 1.21-1.68 1.47-3.02zm3.58-8.24v-1.88h9.12v1.52c-0.9 1.08-1.79 2.51-2.67 4.3-0.88 1.78-1.56 3.62-2.04 5.5-0.35 1.33-0.57 2.79-0.66 4.37h-1.78c0.02-1.25 0.24-2.76 0.65-4.53 0.42-1.77 1.02-3.48 1.79-5.12 0.78-1.65 1.61-3.03 2.49-4.16h-6.9zm10.84 9.65l1.81-0.17c0.14 0.99 0.45 1.74 0.94 2.25 0.49 0.5 1.08 0.75 1.77 0.75 0.84 0 1.54-0.36 2.12-1.06 0.57-0.71 0.86-1.65 0.86-2.82 0-1.12-0.27-1.99-0.83-2.64-0.55-0.64-1.28-0.96-2.18-0.96-0.55 0-1.06 0.14-1.5 0.43-0.45 0.28-0.8 0.65-1.06 1.11l-1.62-0.24 1.36-8.17h7v1.87h-5.62l-0.76 4.27c0.85-0.66 1.74-1 2.67-1 1.23 0 2.26 0.48 3.11 1.45 0.84 0.96 1.27 2.19 1.27 3.7 0 1.44-0.37 2.69-1.12 3.73-0.9 1.29-2.13 1.93-3.7 1.93-1.28 0-2.32-0.4-3.13-1.21s-1.28-1.88-1.39-3.22z"/>
    <path id="rect14278" stroke="#000" d="m201.51 34.332l28.05-1.003 34.88-1.003 39.01 0.547 22.5 1.277v5.472l-24.21-2.189-37.3-0.547-32.89 1.186-30.04 1.732v-5.472z"/>
    <path id="rect15039" d="m146.68 678.07h50.11c7.14 0 12.89 5.03 12.89 11.27v9.92c0 6.25-5.75 11.28-12.89 11.28h-50.11c-7.14 0-12.88-5.03-12.88-11.28v-9.92c0-6.24 5.74-11.27 12.88-11.27z" stroke="#000" fill="#d6cfcf"/>
    <path id="rect16559" d="m241.72 742.5h50.11c7.14 0 12.89 5.03 12.89 11.28v9.92c0 6.24-5.75 11.27-12.89 11.27h-50.11c-7.13 0-12.88-5.03-12.88-11.27v-9.92c0-6.25 5.75-11.28 12.88-11.28z" stroke="#000" fill="#d6cfcf"/>
    <path id="rect16561" d="m331.93 570.14h50.11c7.14 0 12.89 5.03 12.89 11.28v9.92c0 6.24-5.75 11.27-12.89 11.27h-50.11c-7.14 0-12.89-5.03-12.89-11.27v-9.92c0-6.25 5.75-11.28 12.89-11.28z" stroke="#000" fill="#d6cfcf"/>
    <path id="rect16563" d="m331.93 628.13h50.11c7.14 0 12.89 5.03 12.89 11.28v9.92c0 6.24-5.75 11.27-12.89 11.27h-50.11c-7.14 0-12.89-5.03-12.89-11.27v-9.92c0-6.25 5.75-11.28 12.89-11.28z" stroke="#000" fill="#d6cfcf"/>
    <path id="rect16565" d="m241.72 583.03h50.11c7.14 0 12.89 5.03 12.89 11.27v9.92c0 6.25-5.75 11.28-12.89 11.28h-50.11c-7.13 0-12.88-5.03-12.88-11.28v-9.92c0-6.24 5.75-11.27 12.88-11.27z" stroke="#000" fill="#d6cfcf"/>
    <path id="rect16567" d="m335.15 682.9h50.11c7.14 0 12.89 5.03 12.89 11.28v9.92c0 6.24-5.75 11.27-12.89 11.27h-50.11c-7.14 0-12.88-5.03-12.88-11.27v-9.92c0-6.25 5.74-11.28 12.88-11.28z" stroke="#000" fill="#d6cfcf"/>
    <path id="rect16569" d="m240.11 690.95h50.11c7.14 0 12.89 5.03 12.89 11.28v9.92c0 6.25-5.75 11.28-12.89 11.28h-50.11c-7.14 0-12.88-5.03-12.88-11.28v-9.92c0-6.25 5.74-11.28 12.88-11.28z" stroke="#000" fill="#d6cfcf"/>
    <path id="rect16571" d="m243.34 636.19h50.11c7.13 0 12.88 5.03 12.88 11.27v9.92c0 6.25-5.75 11.28-12.88 11.28h-50.11c-7.14 0-12.89-5.03-12.89-11.28v-9.92c0-6.24 5.75-11.27 12.89-11.27z" stroke="#000" fill="#d6cfcf"/>
    <path id="rect16573" d="m145.07 624.91h50.11c7.14 0 12.89 5.03 12.89 11.28v9.91c0 6.25-5.75 11.28-12.89 11.28h-50.11c-7.14 0-12.88-5.03-12.88-11.28v-9.91c0-6.25 5.74-11.28 12.88-11.28z" stroke="#000" fill="#d6cfcf"/>
    <path id="rect16575" d="m145.07 571.75h50.11c7.14 0 12.89 5.03 12.89 11.28v9.92c0 6.24-5.75 11.27-12.89 11.27h-50.11c-7.14 0-12.88-5.03-12.88-11.27v-9.92c0-6.25 5.74-11.28 12.88-11.28z" stroke="#000" fill="#d6cfcf"/>
    <path id="path16580" d="m327.04 726.07l51.82-0.53c5.89 0.29 17.47-1.13 11.39 3.72l-13.1 13.98c-6.44 7.05-13 15.3-20.14 15.3h-29.97c-7.14 0-12.89-5.03-12.89-11.28v-9.92c0-6.24 5.75-11.27 12.89-11.27z" stroke="#000" fill="#d6cfcf"/>
    <path id="path16583" d="m202.53 726.07l-51.83-0.53c-5.88 0.29-17.46-1.13-11.39 3.72l13.11 13.98c6.44 7.05 12.99 15.3 20.13 15.3h29.98c7.13 0 12.88-5.03 12.88-11.28v-9.92c0-6.24-5.75-11.27-12.88-11.27z" stroke="#000" fill="#d6cfcf"/>
    <path id="rect21313" d="m145.58 476.28s65.5 0.58 80.71 0.7l0.7 67.35-81.41-1.85c-10.28 0-18.55-8.19-18.55-18.35v-29.5c0-10.16 8.27-18.35 18.55-18.35z" stroke="#000" stroke-opacity=".27097" fill="#eae0e0"/>
    <path id="path22074" d="m392.13 475.6s-66.77-0.76-81.34 0.71l0.57 66.67 80.77-1.18c10.28 0 18.55-8.18 18.55-18.35v-29.5c0-10.16-8.27-18.35-18.55-18.35z" stroke="#000" stroke-opacity=".27097" fill="#eae0e0"/>
    <path id="rect22085" d="m186.77 495.41h171.49c12.58 0 22.72 5.95 22.72 13.34 0 7.38-10.14 13.33-22.72 13.33h-171.49c-12.59 0-22.72-5.95-22.72-13.33 0-7.39 10.13-13.34 22.72-13.34z" stroke-opacity=".14193" fill-opacity=".79355" stroke="#000" fill="#e1dddd"/>
    <path id="path22087" d="m164.53 508.75l216.42 0.47-216.42-0.47z" stroke-opacity=".27097" fill-rule="evenodd" fill-opacity=".42581" stroke="#000" stroke-width=".97291px" fill="#cabcbc"/>
    <path id="path22091" d="m227.46 476.1h84.61v68.42h-84.61v-68.42z" stroke="#000" fill="#e1dddd"/>
    <path id="path22093" d="m237.49 485.67h65.5v50.62h-65.5v-50.62z" stroke-opacity=".14193" fill-opacity=".79355" stroke="#000" fill="#e1dddd"/>
    <path id="path22095" d="m259.33 500.98h22.09v20.55h-22.09v-20.55z" stroke="#000" fill="#d5caca"/>
    <path id="rect22110" stroke="#000" d="m164.43 485.39h20.58v4.65h-20.58v-4.65z"/>
    <path id="rect23644" stroke="#000" d="m354.43 485.39h20.58v4.65h-20.58v-4.65z"/>
    <path id="text23800" d="m154.01 597.64h-3.48v-16.79c-0.83 0.6-1.93 1.21-3.29 1.81-1.36 0.61-2.58 1.06-3.66 1.37v-2.55c1.94-0.69 3.64-1.53 5.1-2.52 1.45-0.98 2.48-1.94 3.09-2.87h2.24v21.55z"/>
    <path id="text23804" d="m258.57 606.76v2.53h-18.72c-0.03-0.63 0.11-1.24 0.4-1.83 0.48-0.96 1.24-1.91 2.29-2.85s2.57-2.02 4.55-3.25c3.08-1.91 5.16-3.43 6.24-4.54 1.09-1.12 1.63-2.18 1.63-3.17 0-1.05-0.49-1.93-1.48-2.64-0.99-0.72-2.27-1.08-3.86-1.08-1.67 0-3.01 0.38-4.01 1.14-1.01 0.76-1.52 1.82-1.53 3.16l-3.58-0.27c0.25-2.02 1.17-3.56 2.77-4.62s3.74-1.59 6.43-1.59c2.72 0 4.87 0.57 6.46 1.71 1.58 1.14 2.37 2.56 2.37 4.25 0 0.86-0.23 1.7-0.69 2.53-0.47 0.83-1.24 1.7-2.31 2.62-1.08 0.92-2.87 2.17-5.36 3.77-2.09 1.33-3.43 2.23-4.02 2.71-0.6 0.47-1.09 0.94-1.47 1.42h13.89z"/>
    <path id="text23808" d="m329.08 590.14l3.48-0.35c0.4 1.49 1.08 2.57 2.04 3.23 0.96 0.65 2.13 0.98 3.51 0.98 1.63 0 3.02-0.43 4.14-1.28 1.13-0.86 1.69-1.93 1.69-3.2 0-1.2-0.52-2.2-1.56-2.99-1.05-0.78-2.37-1.18-3.98-1.18-0.66 0-1.48 0.1-2.46 0.3l0.39-2.32c0.23 0.02 0.42 0.03 0.56 0.03 1.48 0 2.82-0.29 4-0.87 1.19-0.59 1.78-1.49 1.78-2.71 0-0.97-0.43-1.77-1.3-2.4-0.86-0.64-1.97-0.95-3.34-0.95-1.35 0-2.48 0.32-3.38 0.96-0.9 0.65-1.48 1.61-1.74 2.9l-3.48-0.47c0.43-1.76 1.39-3.13 2.9-4.1s3.38-1.46 5.62-1.46c1.55 0 2.97 0.25 4.27 0.75 1.3 0.51 2.3 1.19 2.99 2.06s1.03 1.79 1.03 2.77c0 0.92-0.33 1.77-0.98 2.53-0.66 0.76-1.63 1.36-2.92 1.81 1.67 0.3 2.98 0.9 3.9 1.83 0.93 0.92 1.39 2.07 1.39 3.46 0 1.87-0.9 3.46-2.7 4.76s-4.08 1.95-6.84 1.95c-2.49 0-4.55-0.56-6.19-1.68-1.65-1.12-2.58-2.57-2.82-4.36z"/>
    <path id="text23812" d="m152.38 651.21v-5.14h-12.29v-2.41l12.93-13.9h2.84v13.9h3.82v2.41h-3.82v5.14h-3.48zm0-7.55v-9.67l-8.87 9.67h8.87z"/>
    <path id="text23816" d="m242.74 657.13l3.65-0.24c0.27 1.35 0.9 2.36 1.88 3.04 0.99 0.68 2.18 1.02 3.57 1.02 1.67 0 3.09-0.48 4.25-1.44 1.16-0.95 1.74-2.22 1.74-3.8 0-1.5-0.56-2.69-1.67-3.56-1.12-0.87-2.58-1.3-4.38-1.3-1.12 0-2.13 0.19-3.03 0.58-0.91 0.38-1.61 0.88-2.13 1.5l-3.26-0.32 2.74-11.02h14.08v2.51h-11.3l-1.52 5.77c1.7-0.9 3.48-1.35 5.35-1.35 2.47 0 4.56 0.65 6.26 1.95s2.55 2.97 2.55 5c0 1.95-0.75 3.62-2.24 5.04-1.82 1.74-4.3 2.6-7.44 2.6-2.58 0-4.68-0.54-6.31-1.64-1.63-1.09-2.56-2.54-2.79-4.34z"/>
    <path id="text23820" d="m348.18 638.21l-3.46 0.2c-0.31-1.03-0.75-1.78-1.32-2.25-0.94-0.75-2.1-1.13-3.47-1.13-1.11 0-2.08 0.24-2.92 0.7-1.1 0.61-1.96 1.49-2.59 2.65s-0.96 2.82-0.99 4.96c0.84-0.96 1.87-1.68 3.08-2.15s2.48-0.7 3.8-0.7c2.32 0 4.3 0.65 5.92 1.94 1.63 1.29 2.45 2.96 2.45 5.01 0 1.35-0.38 2.6-1.15 3.75-0.77 1.16-1.82 2.05-3.16 2.66-1.34 0.62-2.86 0.92-4.56 0.92-2.9 0-5.26-0.8-7.09-2.42-1.83-1.61-2.74-4.27-2.74-7.98 0-4.15 1.01-7.16 3.03-9.05 1.76-1.64 4.14-2.45 7.13-2.45 2.23 0 4.05 0.47 5.48 1.41 1.42 0.95 2.27 2.26 2.56 3.93zm-14.2 9.25c0 0.9 0.25 1.77 0.76 2.6s1.22 1.46 2.13 1.9c0.92 0.43 1.88 0.65 2.88 0.65 1.47 0 2.73-0.45 3.79-1.35s1.58-2.12 1.58-3.66c0-1.48-0.52-2.65-1.56-3.5-1.04-0.86-2.36-1.28-3.94-1.28-1.57 0-2.91 0.42-4 1.28-1.1 0.85-1.64 1.97-1.64 3.36z"/>
    <path id="text23824" d="m148.57 685.53v-2.53h18.33v2.05c-1.8 1.45-3.59 3.39-5.36 5.8s-3.14 4.88-4.1 7.43c-0.7 1.8-1.14 3.76-1.34 5.9h-3.57c0.04-1.69 0.48-3.73 1.31-6.12 0.84-2.39 2.04-4.69 3.61-6.91 1.56-2.22 3.23-4.09 4.99-5.62h-13.87z"/>
    <path id="text23828" d="m246.56 705.92c-1.45-0.4-2.52-0.97-3.21-1.71-0.7-0.74-1.05-1.63-1.05-2.67 0-1.56 0.75-2.87 2.23-3.93 1.48-1.07 3.45-1.6 5.91-1.6 2.47 0 4.46 0.55 5.97 1.63 1.51 1.09 2.26 2.42 2.26 3.98 0 0.99-0.34 1.86-1.03 2.59-0.69 0.74-1.74 1.31-3.14 1.71 1.74 0.43 3.06 1.12 3.97 2.08 0.9 0.95 1.36 2.1 1.36 3.42 0 1.84-0.86 3.38-2.57 4.63s-3.97 1.87-6.76 1.87c-2.8 0-5.05-0.63-6.77-1.88-1.71-1.25-2.57-2.82-2.57-4.69 0-1.4 0.47-2.56 1.41-3.51 0.93-0.94 2.26-1.58 3.99-1.92zm-0.7-4.46c0 1.01 0.43 1.84 1.29 2.48 0.87 0.65 1.99 0.97 3.37 0.97 1.34 0 2.43-0.32 3.29-0.96s1.29-1.42 1.29-2.35c0-0.96-0.45-1.78-1.33-2.43-0.88-0.66-1.98-0.99-3.29-0.99-1.33 0-2.43 0.32-3.31 0.96-0.87 0.65-1.31 1.42-1.31 2.32zm-1.12 9.9c0 0.75 0.23 1.48 0.7 2.18 0.47 0.71 1.17 1.25 2.1 1.64 0.93 0.38 1.93 0.57 3 0.57 1.66 0 3.03-0.4 4.11-1.21s1.62-1.84 1.62-3.09c0-1.27-0.55-2.32-1.67-3.15-1.11-0.82-2.51-1.24-4.18-1.24-1.64 0-2.99 0.41-4.07 1.23-1.07 0.82-1.61 1.84-1.61 3.07z"/>
    <path id="text23832" d="m334.71 704.25l3.34-0.23c0.28 1.19 0.82 2.05 1.62 2.59 0.8 0.53 1.82 0.8 3.07 0.8 1.07 0 2.01-0.18 2.81-0.55 0.81-0.38 1.47-0.87 1.99-1.49 0.51-0.62 0.94-1.46 1.29-2.51s0.52-2.13 0.52-3.22c0-0.12 0-0.29-0.02-0.53-0.69 0.84-1.64 1.52-2.85 2.05-1.2 0.52-2.51 0.78-3.91 0.78-2.34 0-4.33-0.65-5.95-1.93-1.62-1.29-2.44-2.99-2.44-5.1 0-2.17 0.85-3.92 2.55-5.25 1.69-1.33 3.81-1.99 6.36-1.99 1.84 0 3.53 0.38 5.05 1.13 1.53 0.75 2.69 1.82 3.48 3.21s1.19 3.4 1.19 6.04c0 2.74-0.39 4.92-1.18 6.54-0.78 1.63-1.95 2.87-3.51 3.71-1.55 0.85-3.37 1.28-5.45 1.28-2.22 0-4.03-0.47-5.43-1.4-1.41-0.93-2.25-2.24-2.53-3.93zm14.24-9.47c0-1.51-0.54-2.71-1.6-3.6s-2.34-1.33-3.83-1.33c-1.55 0-2.9 0.48-4.04 1.43-1.15 0.96-1.72 2.2-1.72 3.72 0 1.37 0.54 2.48 1.63 3.33s2.43 1.28 4.03 1.28c1.61 0 2.93-0.43 3.97-1.28s1.56-2.04 1.56-3.55z"/>
    <path id="text23836" d="m238.42 757.46c0-2.53 0.34-4.57 1.03-6.12s1.71-2.74 3.07-3.58 3.07-1.26 5.13-1.26c1.52 0 2.86 0.23 4 0.7 1.15 0.46 2.1 1.13 2.84 2 0.75 0.88 1.34 1.94 1.76 3.19 0.43 1.26 0.64 2.95 0.64 5.07 0 2.52-0.34 4.55-1.02 6.1-0.69 1.55-1.71 2.74-3.07 3.58-1.36 0.85-3.07 1.27-5.15 1.27-2.73 0-4.87-0.74-6.43-2.22-1.87-1.79-2.8-4.7-2.8-8.73zm3.57 0c0 3.53 0.55 5.87 1.64 7.04 1.08 1.16 2.43 1.74 4.02 1.74 1.6 0 2.94-0.58 4.03-1.75s1.63-3.51 1.63-7.03c0-3.53-0.54-5.87-1.63-7.04-1.09-1.16-2.44-1.74-4.07-1.74-1.59 0-2.87 0.52-3.82 1.54-1.2 1.31-1.8 3.72-1.8 7.24z"/>
    <path id="text23840" d="m158.26 745.18l1.51-4.39h-2.94v-1.54h3.47l1.28-3.74h-4.75v-1.54h5.27l1.52-4.42h2.61l-1.52 4.42h5.48l1.51-4.42h2.63l-1.51 4.42h3.01v1.54h-3.53l-1.31 3.74h4.84v1.54h-5.36l-1.51 4.39h-2.61l1.49-4.39h-5.46l-1.51 4.39h-2.61zm4.64-5.93h5.47l1.3-3.74h-5.48l-1.29 3.74z"/>
    <path id="text23844" d="m322.28 737.75l1.21-3c2.78 0.78 4.81 1.47 6.07 2.05-0.34-2.55-0.51-4.31-0.53-5.27h3.81c-0.05 1.4-0.25 3.15-0.6 5.24 1.8-0.73 3.87-1.4 6.2-2.02l1.21 3c-2.23 0.59-4.41 0.98-6.55 1.18 1.07 0.75 2.58 2.08 4.52 3.99l-3.15 1.8c-1.02-1.11-2.22-2.63-3.6-4.54-1.3 1.98-2.43 3.5-3.42 4.54l-3.1-1.8c2.04-2.01 3.49-3.34 4.37-3.99-2.26-0.35-4.41-0.75-6.44-1.18z"/>
    <path id="text1754" d="m271.06 602.82c-0.8 0.47-1.58 0.81-2.32 1-0.75 0.2-1.55 0.29-2.4 0.29-1.41 0-2.5-0.23-3.25-0.71-0.76-0.47-1.14-1.08-1.14-1.82 0-0.43 0.14-0.83 0.43-1.19 0.28-0.36 0.66-0.64 1.12-0.86 0.47-0.22 0.99-0.38 1.57-0.49 0.42-0.08 1.07-0.15 1.93-0.23 1.76-0.14 3.05-0.31 3.88-0.51 0.01-0.21 0.01-0.34 0.01-0.4 0-0.61-0.2-1.04-0.61-1.29-0.56-0.34-1.38-0.51-2.48-0.51-1.02 0-1.78 0.13-2.27 0.38-0.48 0.24-0.85 0.68-1.08 1.31l-2.13-0.2c0.2-0.63 0.52-1.14 0.96-1.52 0.44-0.39 1.08-0.69 1.92-0.89 0.84-0.21 1.81-0.32 2.91-0.32s1.99 0.09 2.67 0.27c0.69 0.18 1.19 0.4 1.52 0.67 0.32 0.27 0.54 0.61 0.67 1.02 0.07 0.26 0.11 0.72 0.11 1.38v2.01c0 1.39 0.05 2.27 0.14 2.64s0.28 0.73 0.55 1.06h-2.27c-0.23-0.31-0.37-0.67-0.44-1.09zm-0.18-3.35c-0.79 0.22-1.97 0.41-3.55 0.57-0.9 0.09-1.53 0.19-1.9 0.3s-0.66 0.27-0.86 0.49c-0.2 0.21-0.3 0.45-0.3 0.71 0 0.4 0.22 0.73 0.66 1s1.08 0.4 1.93 0.4c0.83 0 1.58-0.13 2.23-0.38 0.66-0.25 1.13-0.6 1.44-1.04 0.23-0.34 0.35-0.84 0.35-1.5v-0.55zm7.59 4.44h-2.02v-12.21h2.18v4.35c0.92-0.79 2.09-1.19 3.52-1.19 0.79 0 1.53 0.11 2.24 0.33 0.7 0.22 1.28 0.53 1.74 0.93 0.45 0.39 0.81 0.87 1.07 1.43 0.26 0.57 0.39 1.17 0.39 1.81 0 1.51-0.55 2.68-1.64 3.51-1.08 0.83-2.39 1.24-3.91 1.24s-2.71-0.43-3.57-1.3v1.1zm-0.02-4.49c0 1.06 0.21 1.83 0.63 2.3 0.68 0.77 1.61 1.16 2.78 1.16 0.95 0 1.77-0.28 2.46-0.85s1.04-1.42 1.04-2.55c0-1.16-0.33-2.01-1-2.56-0.66-0.55-1.46-0.82-2.41-0.82s-1.77 0.28-2.46 0.85c-0.7 0.57-1.04 1.39-1.04 2.47zm20.17 1.25l2.14 0.19c-0.23 1.02-0.83 1.82-1.8 2.39-0.96 0.58-2.14 0.86-3.54 0.86-1.76 0-3.17-0.39-4.24-1.18-1.07-0.8-1.6-1.93-1.6-3.41 0-0.95 0.23-1.79 0.69-2.51 0.46-0.71 1.16-1.25 2.1-1.61 0.93-0.36 1.96-0.54 3.06-0.54 1.39 0 2.53 0.25 3.42 0.73 0.89 0.49 1.45 1.18 1.7 2.07l-2.11 0.23c-0.2-0.6-0.56-1.04-1.07-1.34s-1.13-0.45-1.86-0.45c-1.09 0-1.98 0.27-2.67 0.81-0.68 0.54-1.02 1.4-1.02 2.57 0 1.19 0.33 2.05 0.99 2.59s1.52 0.81 2.58 0.81c0.86 0 1.57-0.18 2.14-0.54s0.94-0.92 1.09-1.67z"/>
    <path id="text1758" d="m361.09 592.98v-1.29c-0.94 1.02-2.32 1.53-4.15 1.53-1.18 0-2.26-0.23-3.26-0.68-0.99-0.45-1.76-1.08-2.3-1.88-0.54-0.81-0.82-1.74-0.82-2.78 0-1.03 0.25-1.95 0.74-2.79 0.5-0.83 1.24-1.47 2.22-1.91 0.99-0.44 2.09-0.66 3.31-0.66 0.9 0 1.69 0.13 2.39 0.39s1.27 0.6 1.7 1.01v-5.07h2.5v14.13h-2.33zm-7.94-5.1c0 1.31 0.4 2.29 1.2 2.94s1.74 0.97 2.83 0.97c1.1 0 2.03-0.31 2.8-0.93s1.15-1.57 1.15-2.84c0-1.4-0.39-2.43-1.17-3.08-0.78-0.66-1.74-0.99-2.89-0.99-1.12 0-2.05 0.32-2.8 0.95s-1.12 1.62-1.12 2.98zm24.39 1.81l2.6 0.22c-0.41 1.05-1.17 1.86-2.28 2.44-1.1 0.58-2.52 0.87-4.24 0.87-2.17 0-3.89-0.46-5.16-1.39-1.27-0.92-1.91-2.21-1.91-3.88 0-1.72 0.65-3.06 1.93-4.01s2.95-1.42 5-1.42c1.98 0 3.6 0.46 4.86 1.39 1.26 0.94 1.88 2.25 1.88 3.94 0 0.1 0 0.25-0.01 0.46h-11.06c0.09 1.12 0.55 1.99 1.38 2.58 0.83 0.6 1.86 0.9 3.1 0.9 0.92 0 1.71-0.17 2.36-0.5 0.65-0.34 1.17-0.87 1.55-1.6zm-8.25-2.81h8.28c-0.11-0.86-0.43-1.5-0.95-1.93-0.8-0.67-1.84-1.01-3.11-1.01-1.16 0-2.13 0.27-2.91 0.8-0.79 0.54-1.23 1.25-1.31 2.14zm14.62 6.1v-8.88h-2.22v-1.35h2.22v-1.09c0-0.69 0.09-1.2 0.27-1.54 0.24-0.44 0.66-0.81 1.27-1.09s1.47-0.42 2.57-0.42c0.7 0 1.49 0.06 2.34 0.17l-0.37 1.52c-0.53-0.07-1.02-0.1-1.48-0.1-0.77 0-1.31 0.11-1.62 0.34-0.32 0.22-0.48 0.65-0.48 1.26v0.95h2.89v1.35h-2.89v8.88h-2.5z"/>
    <path id="text1762" d="m163.25 647.41l2.43 0.23c0.1 0.48 0.38 0.83 0.84 1.05 0.62 0.29 1.47 0.44 2.54 0.44 1.16 0 2.05-0.15 2.67-0.44 0.63-0.3 1.06-0.71 1.28-1.24 0.13-0.33 0.19-1.01 0.18-2.04-1.09 0.82-2.45 1.23-4.07 1.23-2.03 0-3.59-0.47-4.7-1.4s-1.66-2.05-1.66-3.35c0-0.89 0.25-1.72 0.76-2.48 0.51-0.75 1.24-1.34 2.21-1.75 0.96-0.41 2.1-0.62 3.4-0.62 1.74 0 3.17 0.45 4.3 1.34v-1.13h2.3v8.11c0 1.46-0.24 2.5-0.7 3.11-0.47 0.61-1.21 1.09-2.22 1.44-1.01 0.36-2.26 0.53-3.74 0.53-1.75 0-3.17-0.25-4.25-0.75-1.08-0.51-1.6-1.26-1.57-2.28zm2.07-5.63c0 1.23 0.38 2.13 1.15 2.69 0.77 0.57 1.73 0.85 2.88 0.85s2.11-0.28 2.88-0.84c0.78-0.57 1.17-1.45 1.17-2.65 0-1.15-0.4-2.01-1.2-2.6-0.8-0.58-1.76-0.87-2.89-0.87-1.11 0-2.05 0.29-2.83 0.86-0.77 0.57-1.16 1.43-1.16 2.56zm14.19 4.86v-12.96h2.49v4.65c1.17-0.86 2.64-1.29 4.41-1.29 1.09 0 2.04 0.14 2.84 0.41 0.8 0.28 1.38 0.65 1.72 1.14 0.35 0.48 0.52 1.18 0.52 2.1v5.95h-2.49v-5.95c0-0.79-0.27-1.37-0.81-1.74-0.54-0.36-1.31-0.54-2.29-0.54-0.74 0-1.44 0.12-2.09 0.37-0.65 0.24-1.11 0.57-1.39 0.99s-0.42 1-0.42 1.73v5.14h-2.49zm15.81-11.13v-1.83h2.49v1.83h-2.49zm0 11.13v-9.39h2.49v9.39h-2.49z"/>
    <path id="text1766" d="m269.48 645.21v-2.29h3.02v2.29h-3.02zm-3.83 18.29l0.57-1.68c0.61 0.11 1.08 0.16 1.43 0.16 0.61 0 1.07-0.14 1.37-0.4 0.31-0.27 0.46-0.94 0.46-2v-12.23h3.02v12.27c0 1.43-0.29 2.43-0.86 2.99-0.73 0.73-1.93 1.1-3.62 1.1-0.82 0-1.61-0.07-2.37-0.21zm11.51-4.51v-16.07h3.01v9.16l7.15-4.73h3.9l-6.8 4.32 7.49 7.32h-3.72l-5.89-5.95-2.13 1.33v4.62h-3.01zm17.08 0v-16.07h3.02v16.07h-3.02z"/>
    <path id="text1770" d="m352.08 652.15v-13.89h1.59v1.95c0.33-0.68 0.76-1.23 1.31-1.64s1.17-0.62 1.86-0.62c0.78 0 1.42 0.21 1.91 0.64 0.5 0.43 0.85 1.02 1.05 1.79 0.83-1.62 1.91-2.43 3.24-2.43 1.03 0 1.83 0.38 2.39 1.14 0.56 0.77 0.84 1.94 0.84 3.53v9.53h-1.77v-8.75c0-0.94-0.05-1.62-0.17-2.03-0.11-0.41-0.32-0.75-0.62-1-0.31-0.25-0.66-0.38-1.07-0.38-0.74 0-1.35 0.32-1.83 0.97-0.49 0.65-0.73 1.69-0.73 3.12v8.07h-1.78v-9.02c0-1.05-0.14-1.83-0.43-2.36-0.29-0.52-0.76-0.78-1.42-0.78-0.5 0-0.96 0.17-1.39 0.52-0.42 0.35-0.73 0.86-0.92 1.53s-0.28 1.64-0.28 2.91v7.2h-1.78zm16.84 0v-13.89h1.6v1.98c0.77-1.53 1.88-2.29 3.33-2.29 0.63 0 1.21 0.15 1.74 0.45s0.93 0.7 1.19 1.18c0.26 0.49 0.45 1.07 0.55 1.74 0.07 0.44 0.1 1.2 0.1 2.29v8.54h-1.77v-8.45c0-0.96-0.07-1.67-0.21-2.15-0.14-0.47-0.38-0.85-0.74-1.14-0.35-0.28-0.76-0.42-1.23-0.42-0.76 0-1.41 0.32-1.96 0.95-0.55 0.64-0.82 1.85-0.82 3.63v7.58h-1.78zm10.58-6.94c0-2.57 0.54-4.48 1.62-5.72 0.9-1.03 2-1.54 3.29-1.54 1.44 0 2.62 0.62 3.53 1.88 0.91 1.25 1.37 2.98 1.37 5.18 0 1.79-0.2 3.2-0.61 4.22-0.4 1.02-0.99 1.82-1.76 2.39-0.77 0.56-1.62 0.85-2.53 0.85-1.47 0-2.65-0.63-3.55-1.87-0.91-1.25-1.36-3.05-1.36-5.39zm1.82 0c0 1.78 0.3 3.11 0.88 3.99 0.59 0.89 1.32 1.33 2.21 1.33 0.88 0 1.61-0.44 2.2-1.33 0.58-0.89 0.88-2.25 0.88-4.07 0-1.72-0.3-3.02-0.89-3.9-0.58-0.89-1.32-1.33-2.19-1.33-0.89 0-1.62 0.44-2.21 1.32-0.58 0.88-0.88 2.21-0.88 3.99z"/>
    <path id="text1774" d="m173.53 705.73v-20.44h1.35v1.92c0.32-0.75 0.68-1.31 1.08-1.69 0.4-0.37 0.89-0.56 1.46-0.56 0.75 0 1.41 0.32 1.98 0.97s1 1.57 1.29 2.75 0.44 2.48 0.44 3.89c0 1.51-0.16 2.87-0.48 4.08-0.33 1.21-0.79 2.14-1.41 2.79-0.61 0.64-1.25 0.96-1.93 0.96-0.49 0-0.94-0.17-1.33-0.52-0.39-0.36-0.71-0.8-0.97-1.34v7.19h-1.48zm1.34-12.97c0 1.91 0.23 3.31 0.69 4.22 0.45 0.91 1.01 1.36 1.65 1.36 0.66 0 1.23-0.47 1.7-1.41s0.7-2.4 0.7-4.37c0-1.89-0.23-3.3-0.69-4.23-0.46-0.94-1-1.41-1.64-1.41-0.63 0-1.19 0.5-1.68 1.5-0.48 0.99-0.73 2.44-0.73 4.34zm13.63 12.97v-7.23c-0.23 0.55-0.55 1-0.97 1.36-0.41 0.36-0.85 0.54-1.32 0.54-1.04 0-1.93-0.7-2.68-2.1s-1.13-3.32-1.13-5.76c0-1.48 0.16-2.81 0.46-3.99 0.31-1.18 0.75-2.07 1.33-2.68s1.21-0.91 1.91-0.91c1.08 0 1.93 0.77 2.55 2.31v-1.98h1.34v20.44h-1.49zm-4.57-13.09c0 1.9 0.24 3.33 0.71 4.28s1.04 1.42 1.7 1.42c0.63 0 1.17-0.45 1.63-1.35 0.45-0.91 0.68-2.28 0.68-4.13 0-1.96-0.24-3.44-0.72-4.44-0.48-0.99-1.05-1.49-1.69-1.49-0.65 0-1.19 0.47-1.64 1.39s-0.67 2.36-0.67 4.32zm8.37 7.43v-14.78h1.34v2.24c0.34-1.05 0.65-1.74 0.94-2.07s0.61-0.5 0.95-0.5c0.5 0 1.01 0.27 1.53 0.81l-0.52 2.32c-0.36-0.36-0.72-0.54-1.08-0.54-0.33 0-0.62 0.16-0.88 0.49-0.25 0.33-0.44 0.79-0.55 1.37-0.16 0.89-0.25 1.87-0.25 2.92v7.74h-1.48zm5.06-4.41l1.47-0.39c0.08 0.99 0.31 1.75 0.69 2.28 0.37 0.53 0.9 0.79 1.57 0.79 0.68 0 1.19-0.23 1.52-0.7s0.49-1.02 0.49-1.65c0-0.56-0.14-1.01-0.43-1.33-0.21-0.23-0.71-0.51-1.52-0.85-1.09-0.47-1.84-0.87-2.26-1.21-0.42-0.33-0.74-0.8-0.96-1.4-0.21-0.6-0.32-1.26-0.32-1.98 0-0.66 0.09-1.27 0.27-1.83 0.17-0.56 0.42-1.03 0.73-1.4 0.23-0.29 0.54-0.53 0.94-0.73s0.82-0.3 1.28-0.3c0.69 0 1.29 0.17 1.81 0.5s0.9 0.79 1.15 1.36 0.42 1.33 0.51 2.28l-1.45 0.34c-0.07-0.76-0.26-1.36-0.57-1.78-0.32-0.43-0.77-0.64-1.34-0.64-0.68 0-1.17 0.19-1.46 0.57s-0.44 0.82-0.44 1.33c0 0.33 0.06 0.62 0.18 0.88 0.12 0.27 0.31 0.49 0.57 0.67 0.15 0.09 0.59 0.3 1.31 0.64 1.05 0.47 1.78 0.86 2.2 1.16 0.41 0.3 0.74 0.74 0.97 1.32 0.24 0.57 0.36 1.29 0.36 2.14 0 0.83-0.15 1.62-0.43 2.36-0.29 0.73-0.71 1.31-1.25 1.71-0.55 0.4-1.16 0.6-1.85 0.6-1.14 0-2-0.39-2.6-1.19-0.59-0.8-0.97-1.98-1.14-3.55z"/>
    <path id="text1778" d="m269.11 713.17l0.39 1.85c-0.76 0.13-1.44 0.19-2.04 0.19-0.99 0-1.75-0.12-2.29-0.36s-0.92-0.56-1.14-0.95c-0.23-0.39-0.34-1.22-0.34-2.48v-7.12h-1.98v-1.63h1.98v-3.06l2.7-1.26v4.32h2.72v1.63h-2.72v7.24c0 0.6 0.04 0.98 0.14 1.15s0.25 0.31 0.47 0.41c0.21 0.1 0.52 0.15 0.92 0.15 0.3 0 0.7-0.03 1.19-0.08zm13.1 1.88v-1.82c-1.24 1.4-2.93 2.1-5.07 2.1-0.94 0-1.82-0.14-2.64-0.42-0.81-0.28-1.42-0.64-1.82-1.06-0.39-0.42-0.67-0.94-0.83-1.55-0.11-0.42-0.17-1.07-0.17-1.96v-7.67h2.71v6.86c0 1.1 0.06 1.84 0.17 2.22 0.17 0.55 0.53 0.98 1.08 1.3 0.55 0.31 1.23 0.47 2.05 0.47 0.81 0 1.57-0.16 2.28-0.48 0.71-0.33 1.22-0.77 1.51-1.32 0.3-0.56 0.45-1.36 0.45-2.42v-6.63h2.71v12.38h-2.43zm11.12 0l-6.08-12.38h2.86l3.43 7.41c0.37 0.8 0.72 1.63 1.03 2.5 0.24-0.66 0.57-1.44 1-2.36l3.56-7.55h2.78l-6.05 12.38h-2.53z"/>
    <path id="text1782" d="m359.73 709.08l-2.67-19.23h1.53l1.39 11.1 0.52 4.13c0.02-0.21 0.17-1.53 0.45-3.97l1.4-11.26h1.52l1.31 11.15 0.44 3.68 0.5-3.71 1.5-11.12h1.44l-2.73 19.23h-1.54l-1.4-11.52-0.34-3.27-1.77 14.79h-1.55zm9.6 0l3.19-10-2.96-9.23h1.86l1.34 4.51c0.25 0.86 0.46 1.57 0.61 2.15 0.24-0.79 0.47-1.5 0.67-2.12l1.47-4.54h1.78l-3.03 9.05 3.26 10.18h-1.82l-1.8-5.98-0.48-1.61-2.3 7.59h-1.79zm9.36 7.41l-0.17-3.07c0.33 0.2 0.61 0.29 0.85 0.29 0.33 0 0.59-0.12 0.79-0.36s0.36-0.58 0.49-1.01c0.09-0.33 0.24-1.14 0.45-2.43 0.03-0.18 0.07-0.44 0.13-0.79l-3.32-19.27h1.6l1.82 11.14c0.24 1.41 0.45 2.89 0.64 4.45 0.17-1.5 0.37-2.96 0.61-4.38l1.87-11.21h1.48l-3.33 19.56c-0.36 2.11-0.63 3.56-0.83 4.36-0.27 1.07-0.57 1.86-0.91 2.36s-0.75 0.75-1.22 0.75c-0.28 0-0.6-0.13-0.95-0.39zm7.72-7.41v-2.64l5.57-14.05c-0.63 0.07-1.19 0.1-1.67 0.1h-3.57v-2.64h7.15v2.15l-4.74 12.21-0.91 2.23c0.66-0.11 1.28-0.17 1.87-0.17h4.04v2.81h-7.74z"/>
    <path id="path2547" d="m158.84 588.11v6.42l17.44-0.17-0.12-6.42-0.12 6.33-16.96 0.17-0.24-6.33z" stroke="#000" stroke-width=".39818px" fill="none"/>
    <path id="path2553" d="m276.29 750.71v15.75-8.64h-7.62 14.73-7.62l0.51-7.11z" stroke="#000" stroke-width="1px" fill="none"/>
    <path id="path2555" d="m346.89 742.08l0.5-3.56h4.57l-0.5 3.56v-3.56l14.73 0.51 0.5 5.08 6.61-0.51v-9.14l-5.59-1.52-1.52 5.58" stroke="#000" stroke-width="1px" fill="none"/>
    <path id="path2557" d="m193.43 731.93c0.17 1.35-0.36 1.84-0.19 3.19-2.98 0.91-4.09 1.6-6.94 5.4-1.29 1.85-2.38 7.07 0.07 7.03h14.73c1.96-0.03 0.12-4.85-0.63-6.47-1.71-4.51-6.1-5.68-6.49-5.92-0.34-1.52-0.21-1.71-0.55-3.23z" stroke="#000" stroke-width="1px" fill="none"/>
    <path id="path2561" d="m192.55 747.7v2.54-2.54z" stroke="#000" stroke-width="4.3332px" fill="none"/>
    <path id="rect2804" d="m166.35 519.31c-5.86 1.22-15.25 9.3-15.81 15.23 0.88 3.32 1.89 5.16 5.36 6.18 0.77-1.29 1.53-2.59 2.29-3.89-0.64-0.75-1.28-1.5-1.92-2.25 0.96-2.4 6.86-8.83 9.71-8.53 0.76 0.89 1.52 1.78 2.29 2.68 1.04-1.16 3.02-1.79 4.06-2.95-1.21-3.05-3.36-5.57-5.98-6.47z" stroke="#000" fill="#23d423"/>
    <path id="path3586" d="m392.79 523.41c-5.34-2.66-17.46-3.19-21.33 0.08-1.22 2.52-1.48 4.22 0.68 6.85 1.36-0.34 2.71-0.69 4.07-1.03-0.08-0.83-0.15-1.66-0.23-2.48 2.14-0.9 10.55-1.38 12.63 0.44 0.09 0.99 0.18 1.97 0.27 2.95 1.49-0.1 3.42 0.67 4.92 0.56 0.8-2.54 0.55-5.31-1.01-7.37z" stroke="#000" fill="#ec1f29"/>
    <path id="path4346" d="m388.2 535.32c0 2.82-2.58 5.11-5.76 5.11s-5.76-2.29-5.76-5.11 2.58-5.11 5.76-5.11c3.16 0 5.72 2.25 5.76 5.05" stroke="#e9100e" stroke-width=".055971" fill-opacity="0"/>
    <path id="rect6626" d="m381.99 533.54h0.91v4.06h-0.91v-4.06z" stroke="#e9100e" fill="#ff0100"/>
  </g>
  <metadata>
    <rdf:RDF>
      <cc:Work>
        <dc:format>image/svg+xml</dc:format>
        <dc:type rdf:resource="http://purl.org/dc/dcmitype/StillImage"/>
        <cc:license rdf:resource="http://creativecommons.org/licenses/publicdomain/"/>
        <dc:publisher>
          <cc:Agent rdf:about="http://openclipart.org/">
            <dc:title>Openclipart</dc:title>
          </cc:Agent>
        </dc:publisher>
        <dc:title>Telephone</dc:title>
        <dc:date>2006-12-29T10:10:58</dc:date>
        <dc:description>clip art, clipart, electrical appliances, image, job, media, mobile, phone, png, public domain, svg, tool, </dc:description>
        <dc:source>http://openclipart.org/detail/2411/telephone-by-machovka</dc:source>
        <dc:creator>
          <cc:Agent>
            <dc:title>Machovka</dc:title>
          </cc:Agent>
        </dc:creator>
        <dc:subject>
          <rdf:Bag>
            <rdf:li>clip art</rdf:li>
            <rdf:li>clipart</rdf:li>
            <rdf:li>electrical appliances</rdf:li>
            <rdf:li>image</rdf:li>
            <rdf:li>job</rdf:li>
            <rdf:li>media</rdf:li>
            <rdf:li>mobile</rdf:li>
            <rdf:li>phone</rdf:li>
            <rdf:li>png</rdf:li>
            <rdf:li>public domain</rdf:li>
            <rdf:li>svg</rdf:li>
            <rdf:li>tool</rdf:li>
          </rdf:Bag>
        </dc:subject>
      </cc:Work>
      <cc:License rdf:about="http://creativecommons.org/licenses/publicdomain/">
        <cc:permits rdf:resource="http://creativecommons.org/ns#Reproduction"/>
        <cc:permits rdf:resource="http://creativecommons.org/ns#Distribution"/>
        <cc:permits rdf:resource="http://creativecommons.org/ns#DerivativeWorks"/>
      </cc:License>
    </rdf:RDF>
  </metadata>
</svg>
