<?xml version="1.0"?>
<svg xmlns:rdf="http://www.w3.org/1999/02/22-rdf-syntax-ns#" xmlns="http://www.w3.org/2000/svg" xmlns:cc="http://web.resource.org/cc/" xmlns:xlink="http://www.w3.org/1999/xlink" xmlns:dc="http://purl.org/dc/elements/1.1/" xmlns:svg="http://www.w3.org/2000/svg" id="svg2" viewBox="0 0 399.57 562.84" version="1.0">
  <defs id="defs3">
    <linearGradient id="linearGradient2367" y2="309.15" gradientUnits="userSpaceOnUse" x2="420.86" gradientTransform="translate(119.2 141.42)" y1="309.15" x1="172.71">
      <stop id="stop2827" stop-color="#9494a0" offset="0"/>
      <stop id="stop2833" stop-color="#9494a0" stop-opacity=".49804" offset=".63793"/>
      <stop id="stop2829" stop-color="#9494a0" stop-opacity="0" offset="1"/>
    </linearGradient>
  </defs>
  <g id="layer1" transform="translate(-144.41 -227.48)">
    <g id="g2371" transform="matrix(.90896 .0071199 -.0071199 .90896 34.959 43.879)">
      <flowRoot id="flowRoot6395" xml:space="preserve" font-family="Arial Black" font-size="28px" line-height="125%">
        <flowRegion id="flowRegion6397">
          <rect id="rect6399" y="147.27" width="53.538" height="15.152" x="212.13"/>
        </flowRegion>
        <flowPara id="flowPara6401">LG</flowPara>
      </flowRoot>
      <path id="path1932" d="m300.63 789.5l-8.57-561.43 241.53 2.6-0.11 8.83 8.58 528.57 1.42 10-242.85 11.43z" stroke="#000" stroke-width="1px" fill="none"/>
      <path id="path1934" d="m292.06 227.98l-147.15 20.09 3.11 478.82 152.44 62.93-8.4-561.84z" fill-rule="evenodd" stroke="#000" stroke-width="1px" fill="#797880"/>
      <path id="path1936" d="m292.41 228.07l241.07 2.14 6.08 388.22-25.36 20.71-16.43 11.43-15 8.21-20 10-24.29 3.58-35.71 0.71-40.36-8.93-41.07-18.21-22.14-25.36-6.79-392.5z" fill-rule="evenodd" stroke="#000" stroke-width="1px" fill="url(#linearGradient2367)"/>
      <path id="path2837" d="m145.5 277.56l136.56-15.2 5.71 522.85-138.99-58.99-3.28-448.66z" stroke="#000" stroke-width="1px" fill="none"/>
      <path id="path2839" d="m-260.62 211.41a2.5254 2.5254 0 1 1 -5.05 0 2.5254 2.5254 0 1 1 5.05 0z" fill="#eeeeef" transform="matrix(1.4 0 0 2.2 518.71 -181.38)"/>
      <path id="path4611" d="m-260.62 211.41a2.5254 2.5254 0 1 1 -5.05 0 2.5254 2.5254 0 1 1 5.05 0z" fill="#eeeeef" transform="matrix(1.4 0 0 2.2 652 310.45)"/>
      <path id="path4613" d="m-260.62 211.41a2.5254 2.5254 0 1 1 -5.05 0 2.5254 2.5254 0 1 1 5.05 0z" fill="#eeeeef" transform="matrix(1.4 0 0 2.2 521.68 256.26)"/>
      <path id="path4615" d="m-260.62 211.41a2.5254 2.5254 0 1 1 -5.05 0 2.5254 2.5254 0 1 1 5.05 0z" fill="#eeeeef" transform="matrix(1.4 0 0 2.2 646.82 -195.58)"/>
      <path id="path4617" d="m516.19 264.95l2.02 123.24-202.03 0.5-1.01-127.28 200.01 1.01 1.01 2.53z" fill-rule="evenodd" stroke="#000" stroke-width="1px" fill="#636268"/>
      <path id="path4619" d="m322.06 270.21l186.42 0.72 0.51 29.28-186.77 1.43-0.16-31.43z" fill-rule="evenodd" stroke="#000" stroke-width="1px" fill="#3d3c42"/>
      <path id="path4621" d="m501.44 293.39l-22.77 0.05v-1.57l22.87 0.05-0.1 1.47z" fill-rule="evenodd" stroke="#fbeeee" stroke-width=".53724px" fill="#edf2f8"/>
      <path id="path6393" d="m325.63 277.71l177.14 0.72 0.36 6.43-177.15-0.36-0.35-6.79z" stroke="#000" stroke-width="1px" fill-rule="evenodd"/>
      <path id="path6411" d="m323.62 307.64l185.32-2.16 0.5 36.79-184.64 1.24-1.18-35.87z" fill-rule="evenodd" stroke="#000" stroke-width="1.105px" fill="#3d3c42"/>
      <path id="path6413" d="m323.11 348.55l186.84-1.16 1.01 36.83-186.16 0.2-1.69-35.87z" fill-rule="evenodd" stroke="#000" stroke-width="1.0978px" fill="#3d3c42"/>
      <path id="path6415" d="m453.05 407.38l-55.55-0.51-3.54-6.06-6.57-1.51-13.13-0.51-7.07 6.06-1.51 3.03-48.49-0.5 1.01 12.63 48.99 1.01 3.54 5.55 8.58 3.54h11.11l8.59-5.05v-4.55h53.54l0.5-13.13z" fill-rule="evenodd" stroke="#000" stroke-width="1px" fill="#36353a"/>
      <path id="path6417" d="m446.99 412.18l-124.75-0.25 0.25 3.28 123.49 0.5 1.01-3.53z" stroke="#000" stroke-width="1px" fill-rule="evenodd"/>
      <g id="g6423" stroke="#fbeeee" stroke-width="2.3" transform="matrix(.88333 0 0 1 687.21 268.7)">
        <path id="path6419" d="m-260.62 241.21a32.325 31.315 0 1 1 -64.65 0 32.325 31.315 0 1 1 64.65 0z" fill="#7e7e85" transform="matrix(.77657 0 0 .74085 -72.952 68.223)"/>
        <path id="path6421" d="m-280.82 240.2a14.142 12.122 0 1 1 -28.29 0 14.142 12.122 0 1 1 28.29 0z" fill="#fff" transform="translate(-5.8929 5.5357)"/>
      </g>
      <path id="path6429" d="m296.34 445.12h240.7v2.29l-240.7 1.03v-3.32z" fill-rule="evenodd" stroke="#000" stroke-width=".71141px" fill="#171619"/>
      <path id="path6431" d="m-169.71 419a49.497 45.457 0 1 1 -98.99 0 49.497 45.457 0 1 1 98.99 0z" transform="matrix(.59935 0 0 .76374 554.63 271.73)" stroke="#080202" stroke-width="2.3" fill="#fff"/>
      <path id="path7318" d="m538.41 618l-23.23 20.2-17.68 12.63-33.33 17.67-24.75 3.03-34.35 1.52-41.92-8.59-40.91-18.18-22.22-25.25-2.02-0.51 6.56 36.37 23.74 35.86 31.31 19.19 51.02 9.6 56.57-7.58 36.87-21.72 22.22-27.27 12.12-46.97z" fill-rule="evenodd" stroke="#000" stroke-width="1px" fill="#3b3a40"/>
      <path id="path7320" d="m298.13 627.36l1.78 161.78 243.57-10.71-2.14-10.72-1.78-150-12.15 45.72-24.28 29.64-36.07 21.07-56.43 7.86-51.79-10-31.07-18.57-23.57-36.43-6.07-29.64z" fill-rule="evenodd" stroke="#000" stroke-width="1px" fill="#5f5e66"/>
      <g id="g10874" transform="matrix(.99968 -.025155 .025155 .99968 -207.28 103.07)">
        <path id="path7322" d="m657.14 679.51l7.86-8.58 1.43-13.57-7.14-10-70-0.71-7.86 9.28v15l6.43 10 69.28-1.42z" fill-rule="evenodd" stroke="#958585" stroke-width="3.8" fill="#454346"/>
        <path id="path9102" d="m575 591.47a5 4.1071 0 1 1 -10 0 5 4.1071 0 1 1 10 0z" transform="matrix(.86678 0 0 .88130 140.4 141.99)" stroke="#13db1c" stroke-width="3.6" fill="#f4f3fe"/>
        <path id="path7330" d="m575 591.47a5 4.1071 0 1 1 -10 0 5 4.1071 0 1 1 10 0z" transform="matrix(.86678 0 0 .88130 157.18 141.99)" stroke="#f36596" stroke-width="3.6" fill="#f4f3fe"/>
        <path id="path7326" d="m591.79 660.93h20l-0.72-5h-20.36l1.08 5z" fill-rule="evenodd" stroke="#000" stroke-width="1px" fill="#101012"/>
        <path id="path7328" d="m592.14 672.01h20l-0.71-5h-20.36l1.07 5z" fill-rule="evenodd" stroke="#000" stroke-width="1px" fill="#050507"/>
      </g>
    </g>
  </g>
  <metadata>
    <rdf:RDF>
      <cc:Work>
        <dc:format>image/svg+xml</dc:format>
        <dc:type rdf:resource="http://purl.org/dc/dcmitype/StillImage"/>
        <cc:license rdf:resource="http://creativecommons.org/licenses/publicdomain/"/>
        <dc:publisher>
          <cc:Agent rdf:about="http://openclipart.org/">
            <dc:title>Openclipart</dc:title>
          </cc:Agent>
        </dc:publisher>
        <dc:title>Computer system case</dc:title>
        <dc:date>2006-12-19T14:01:47</dc:date>
        <dc:description>box, case, clip art, clipart, computer, desktop, hardware, image, media, personal, png, public domain, svg, system, </dc:description>
        <dc:source>http://openclipart.org/detail/2154/computer-system-case-by-machovka</dc:source>
        <dc:creator>
          <cc:Agent>
            <dc:title>Machovka</dc:title>
          </cc:Agent>
        </dc:creator>
        <dc:subject>
          <rdf:Bag>
            <rdf:li>box</rdf:li>
            <rdf:li>case</rdf:li>
            <rdf:li>clip art</rdf:li>
            <rdf:li>clipart</rdf:li>
            <rdf:li>computer</rdf:li>
            <rdf:li>desktop</rdf:li>
            <rdf:li>hardware</rdf:li>
            <rdf:li>image</rdf:li>
            <rdf:li>media</rdf:li>
            <rdf:li>personal</rdf:li>
            <rdf:li>png</rdf:li>
            <rdf:li>public domain</rdf:li>
            <rdf:li>svg</rdf:li>
            <rdf:li>system</rdf:li>
          </rdf:Bag>
        </dc:subject>
      </cc:Work>
      <cc:License rdf:about="http://creativecommons.org/licenses/publicdomain/">
        <cc:permits rdf:resource="http://creativecommons.org/ns#Reproduction"/>
        <cc:permits rdf:resource="http://creativecommons.org/ns#Distribution"/>
        <cc:permits rdf:resource="http://creativecommons.org/ns#DerivativeWorks"/>
      </cc:License>
    </rdf:RDF>
  </metadata>
</svg>
