<?xml version="1.0"?>
<svg xmlns:rdf="http://www.w3.org/1999/02/22-rdf-syntax-ns#" xmlns="http://www.w3.org/2000/svg" xmlns:cc="http://creativecommons.org/ns#" xmlns:xlink="http://www.w3.org/1999/xlink" xmlns:dc="http://purl.org/dc/elements/1.1/" xmlns:svg="http://www.w3.org/2000/svg" id="svg79606" viewBox="0 0 48 48" version="1.0">
  <defs id="defs79608">
    <radialGradient id="radialGradient3564" gradientUnits="userSpaceOnUse" cy="23.071" cx="21.762" gradientTransform="matrix(.97728 3.5549e-8 -8.3053e-10 .65138 -.79443 15.829)" r="15.571">
      <stop id="stop3560" offset="0"/>
      <stop id="stop3562" stop-opacity="0" offset="1"/>
    </radialGradient>
    <linearGradient id="linearGradient5789" y2="29.859" gradientUnits="userSpaceOnUse" y1="5.7753" x2="20.605" x1="23.506">
      <stop id="stop5785" stop-color="#d3d7cf" offset="0"/>
      <stop id="stop5791" stop-color="#f5f5f5" offset=".5"/>
      <stop id="stop5787" stop-color="#bebebe" offset="1"/>
    </linearGradient>
  </defs>
  <g id="layer1">
    <g id="g3902" stroke-linejoin="round" stroke-linecap="round" fill="none">
      <path id="path7057" stroke-width="3" stroke="#888a85" transform="translate(.49405 1.0562)" d="m21.326 9.3279l-10.877 18.614c-1.9223 3.292-0.7714 7.539 2.559 9.44l2.094 1.197c3.332 1.901 7.63 0.763 9.554-2.529l11.756-20.121c1.923-3.293 1.213-7.2884-1.577-8.8813-2.79-1.5928-6.647-0.2024-8.57 3.0903l-8.155 13.962c-1.924 3.291-2.131 6.771-0.462 7.737 1.669 0.962 4.609-0.943 6.532-4.234l3.962-6.783"/>
      <path id="path7053" stroke="url(#linearGradient5789)" transform="translate(.49405 1.1685)" d="m21.326 9.2155l-10.877 18.614c-1.9223 3.291-0.7714 7.539 2.559 9.44l2.094 1.197c3.332 1.901 7.63 0.762 9.554-2.529l11.756-20.122c1.923-3.292 1.213-7.2878-1.577-8.8806s-6.647-0.2025-8.57 3.0896l-8.155 13.962c-1.924 3.292-2.131 6.772-0.462 7.737 1.669 0.963 4.609-0.942 6.532-4.234l3.962-6.783"/>
    </g>
    <path id="path3556" opacity=".25" style="color:#000000" d="m38.143 30.857a15.571 10.143 0 1 1 -31.143 0 15.571 10.143 0 1 1 31.143 0z" transform="matrix(1.3165 0 0 .24648 -2.2156 33.894)" fill="url(#radialGradient3564)"/>
  </g>
  <metadata>
    <rdf:RDF>
      <cc:Work>
        <dc:format>image/svg+xml</dc:format>
        <dc:type rdf:resource="http://purl.org/dc/dcmitype/StillImage"/>
        <cc:license rdf:resource="http://creativecommons.org/licenses/publicdomain/"/>
        <dc:publisher>
          <cc:Agent rdf:about="http://openclipart.org/">
            <dc:title>Openclipart</dc:title>
          </cc:Agent>
        </dc:publisher>
        <dc:title>tango mail attachment</dc:title>
        <dc:date>2010-04-03T15:29:59</dc:date>
        <dc:description>An icon from Tango Project. Since version 0.8.90 Tango Project icons are Public Domain.</dc:description>
        <dc:source>http://openclipart.org/detail/36679/tango-mail-attachment-by-warszawianka</dc:source>
        <dc:creator>
          <cc:Agent>
            <dc:title>warszawianka</dc:title>
          </cc:Agent>
        </dc:creator>
        <dc:subject>
          <rdf:Bag>
            <rdf:li>clip art</rdf:li>
            <rdf:li>clipart</rdf:li>
            <rdf:li>externalsource</rdf:li>
            <rdf:li>icon</rdf:li>
            <rdf:li>office</rdf:li>
            <rdf:li>paperclip</rdf:li>
            <rdf:li>tango</rdf:li>
          </rdf:Bag>
        </dc:subject>
      </cc:Work>
      <cc:License rdf:about="http://creativecommons.org/licenses/publicdomain/">
        <cc:permits rdf:resource="http://creativecommons.org/ns#Reproduction"/>
        <cc:permits rdf:resource="http://creativecommons.org/ns#Distribution"/>
        <cc:permits rdf:resource="http://creativecommons.org/ns#DerivativeWorks"/>
      </cc:License>
    </rdf:RDF>
  </metadata>
</svg>
