<?xml version="1.0"?>
<svg xmlns:rdf="http://www.w3.org/1999/02/22-rdf-syntax-ns#" xmlns="http://www.w3.org/2000/svg" xmlns:cc="http://creativecommons.org/ns#" xmlns:xlink="http://www.w3.org/1999/xlink" xmlns:dc="http://purl.org/dc/elements/1.1/" xmlns:svg="http://www.w3.org/2000/svg" id="svg5816" viewBox="0 0 48 48">
  <defs id="defs3">
    <linearGradient id="linearGradient15107">
      <stop id="stop15109" stop-color="#fff" offset="0"/>
      <stop id="stop15111" stop-color="#e2e2e2" offset="1"/>
    </linearGradient>
    <linearGradient id="linearGradient2562" x1="15.194" gradientUnits="userSpaceOnUse" y1="15.029" gradientTransform="matrix(0 1 -1 0 37.076 -5.8793)" x2="12.252" y2="30.558">
      <stop id="stop6903" stop-color="#3465a4" offset="0"/>
      <stop id="stop6905" stop-color="#3465a4" stop-opacity="0" offset="1"/>
    </linearGradient>
    <linearGradient id="linearGradient2564" x1="10.792" gradientUnits="userSpaceOnUse" y1="23.332" gradientTransform="matrix(0 1 -1 0 37.076 -5.8793)" x2="10.112" y2="27.146">
      <stop id="stop6927" stop-color="#204a87" offset="0"/>
      <stop id="stop6929" stop-color="#204a87" stop-opacity="0" offset="1"/>
    </linearGradient>
    <linearGradient id="linearGradient2566" x1="41.093" gradientUnits="userSpaceOnUse" y1="16.613" gradientTransform="matrix(-1.4128e-16 .91411 -.91411 -1.4128e-16 39.782 -9.748)" x2="16.589" y2="29.698">
      <stop id="stop2189" stop-color="#fff" offset="0"/>
      <stop id="stop2191" stop-color="#fff" stop-opacity="0" offset="1"/>
    </linearGradient>
    <linearGradient id="linearGradient2365" x1="26.578" gradientUnits="userSpaceOnUse" y1="7.7851" gradientTransform="matrix(0 1 -1 0 37.076 -5.8793)" x2="38.129" y2="12.765">
      <stop id="stop4276" stop-color="#fff" stop-opacity=".2549" offset="0"/>
      <stop id="stop4278" stop-color="#fff" offset="1"/>
    </linearGradient>
    <radialGradient id="radialGradient1481" gradientUnits="userSpaceOnUse" cy="73.616" cx="6.7027" gradientTransform="scale(1.9022 .52570)" r="7.2284">
      <stop id="stop10693" offset="0"/>
      <stop id="stop10695" stop-opacity="0" offset="1"/>
    </radialGradient>
    <linearGradient id="linearGradient1483" x1="11.573" xlink:href="#linearGradient15107" gradientUnits="userSpaceOnUse" y1="4.7462" gradientTransform="matrix(1.3435 0 0 1.5058 2.8795 -2.266)" x2="18.475" y2="26.023"/>
    <linearGradient id="linearGradient1487" x1="9.1643" gradientUnits="userSpaceOnUse" y1="38.071" gradientTransform="matrix(2.4548 0 0 .762 2.8818 .33739)" x2="9.8855" y2="52.091">
      <stop id="stop2626" stop-color="#dfe0df" offset="0"/>
      <stop id="stop2630" stop-color="#a6b0a6" offset=".2381"/>
      <stop id="stop2628" stop-color="#b5beb5" offset="1"/>
    </linearGradient>
    <radialGradient id="radialGradient1491" gradientUnits="userSpaceOnUse" cy="38.712" cx="27.741" gradientTransform="matrix(.62993 .45937 -.14768 .24851 16.517 9.0537)" r="17.978">
      <stop id="stop2276" stop-opacity=".12871" offset="0"/>
      <stop id="stop2278" stop-opacity="0" offset="1"/>
    </radialGradient>
    <linearGradient id="linearGradient1497" x1="11.742" xlink:href="#linearGradient15107" gradientUnits="userSpaceOnUse" y1="11.485" gradientTransform="matrix(1.296 0 0 -1.4369 3.7466 33.205)" x2="13.847" y2="11.982"/>
    <linearGradient id="linearGradient1501" x1="10.027" xlink:href="#linearGradient15107" gradientUnits="userSpaceOnUse" y1="20.22" gradientTransform="matrix(1.5706 0 0 -1.2315 2.9734 33.335)" x2="17.178" y2="-7.5275"/>
    <linearGradient id="linearGradient1503" x1="11.842" gradientUnits="userSpaceOnUse" y1="4.2507" gradientTransform="matrix(1.3709 0 0 -1.4646 2.5251 33.713)" x2="40.024" y2="7.4121">
      <stop id="stop9751" stop-color="#fff" offset="0"/>
      <stop id="stop9753" stop-color="#ededed" offset="1"/>
    </linearGradient>
    <linearGradient id="linearGradient1505" y2="31.027" gradientUnits="userSpaceOnUse" y1="33.357" x2="22.178" x1="17.397">
      <stop id="stop2575" stop-color="#fff" offset="0"/>
      <stop id="stop2577" stop-color="#fff" stop-opacity="0" offset="1"/>
    </linearGradient>
    <radialGradient id="radialGradient1381" gradientUnits="userSpaceOnUse" cy="19.836" cx="16.215" gradientTransform="matrix(1 0 0 .68192 -1.1056e-15 8.2338)" r="13.565">
      <stop id="stop4346" stop-color="#727e0a" offset="0"/>
      <stop id="stop4348" stop-color="#5b6508" offset="1"/>
    </radialGradient>
    <linearGradient id="linearGradient1372" x1="30.936" xlink:href="#linearGradient3824" gradientUnits="userSpaceOnUse" x2="30.936" gradientTransform="translate(-12.418 -7)" y1="29.553" y2="35.803"/>
    <linearGradient id="linearGradient1369" x1="20.662" xlink:href="#linearGradient3816" gradientUnits="userSpaceOnUse" x2="22.627" gradientTransform="matrix(.98338 .18159 -.18159 .98338 -7.0721 -9.8249)" y1="35.818" y2="36.218"/>
    <linearGradient id="linearGradient1366" x1="22.687" xlink:href="#linearGradient3816" gradientUnits="userSpaceOnUse" x2="21.408" gradientTransform="matrix(-.97768 .21008 .21008 .97768 41.806 -11.119)" y1="36.39" y2="35.74"/>
    <linearGradient id="linearGradient4366" x1="22.687" xlink:href="#linearGradient3816" gradientUnits="userSpaceOnUse" x2="21.408" gradientTransform="matrix(-.97768 .21008 .21008 .97768 55.11 -3.9452)" y1="36.39" y2="35.74"/>
    <linearGradient id="linearGradient4362" x1="20.662" xlink:href="#linearGradient3816" gradientUnits="userSpaceOnUse" x2="22.627" gradientTransform="matrix(.98338 .18159 -.18159 .98338 6.2317 -2.6515)" y1="35.818" y2="36.218"/>
    <radialGradient id="radialGradient4336" xlink:href="#linearGradient3816" gradientUnits="userSpaceOnUse" cy="19.009" cx="31.113" r="8.6621"/>
    <radialGradient id="radialGradient4328" gradientUnits="userSpaceOnUse" cy="17.064" cx="29.345" gradientTransform="matrix(.788 3.8776e-16 -3.8776e-16 .788 6.2212 3.6176)" r="9.1621">
      <stop id="stop4340" stop-color="#e9b15e" offset="0"/>
      <stop id="stop4342" stop-color="#966416" offset="1"/>
    </radialGradient>
    <radialGradient id="radialGradient4171" gradientUnits="userSpaceOnUse" cy="17.064" cx="29.345" gradientTransform="matrix(.788 3.8776e-16 -3.8776e-16 .788 6.2212 3.6176)" r="9.1621">
      <stop id="stop3802" stop-color="#f4d9b1" offset="0"/>
      <stop id="stop3804" stop-color="#df9725" offset="1"/>
    </radialGradient>
    <radialGradient id="radialGradient4169" gradientUnits="userSpaceOnUse" cy="27.203" cx="28.09" gradientTransform="matrix(1.2976 2.8812e-16 -1.9647e-16 .88483 -8.3585 4.9405)" r="13.565">
      <stop id="stop4165" stop-color="#3b74bc" offset="0"/>
      <stop id="stop4167" stop-color="#2d5990" offset="1"/>
    </radialGradient>
    <linearGradient id="linearGradient3830" x1="30.936" xlink:href="#linearGradient3824" gradientUnits="userSpaceOnUse" x2="30.936" y1="29.553" y2="35.803"/>
    <linearGradient id="linearGradient3816">
      <stop id="stop3818" offset="0"/>
      <stop id="stop3820" stop-opacity="0" offset="1"/>
    </linearGradient>
    <linearGradient id="linearGradient3824">
      <stop id="stop3826" stop-color="#fff" offset="0"/>
      <stop id="stop3828" stop-color="#c9c9c9" offset="1"/>
    </linearGradient>
  </defs>
  <g id="layer1">
    <path id="path10699" opacity=".3" style="color:black" d="m26.5 38.7a13.75 3.8 0 1 1 -27.5 0 13.75 3.8 0 1 1 27.5 0z" transform="matrix(1.597 0 0 1.5261 6.8622 -22.891)" fill="url(#radialGradient1481)"/>
    <g id="g2570" transform="matrix(1.0047 0 0 1.006 .054565 -9.1192)">
      <path id="path12723" stroke-linejoin="round" d="m6.3438 15.455v25.987h36.968l-0.062-25.888v-0.033c-0.001-0.006 0.001-0.026 0-0.033s-0.029-0.026-0.031-0.033h-36.875z" fill-rule="evenodd" stroke="#888a85" stroke-width=".99466" fill="url(#linearGradient1483)"/>
      <path id="path1634" d="m20.491 29.059l-13.396 10.972 13.909-9.605h9.018l12.419 9.483-11.864-10.85h-10.086z" fill="url(#linearGradient1487)" fill-rule="evenodd"/>
      <path id="path15103" stroke="#fff" stroke-width=".99466" fill="none" d="m7.3438 16.734c-0.0067 0.013 0.0053 0.02 0 0.031-0.0024 0.006-0.0293 0.027-0.0313 0.032-0.0017 0.005 0.0014 0.027 0 0.032-0.001 0.004 0.0007 0.027 0 0.031l0.0313 23.474h34.937l-0.062-23.347c-0.001-0.004 0.001-0.028 0-0.032-0.015-0.048-0.042-0.132-0.094-0.221h-34.781z"/>
      <path id="path2563" fill-rule="evenodd" fill="url(#radialGradient1491)" d="m23.329 32.997c-2.392-0.447-15.429-14.226-16.732-16.625-0.0154-0.029-0.041-0.083-0.0523-0.108h34.513c-0.277 2.502-7.524 16.505-9.561 16.733h-8.051c-0.033 0-0.077 0.007-0.117 0z"/>
      <path id="path1613" stroke-linejoin="round" d="m20.775 31.085c-2.368-0.391-12.83-12.466-13.656-14.568-0.0097-0.025-0.0243-0.073-0.0306-0.095h35.543c-0.824 2.193-11.299 14.464-13.445 14.663-0.009 0.001-0.022 0-0.031 0h-8.26c-0.034 0-0.081 0.007-0.12 0z" fill-rule="evenodd" stroke="#989898" stroke-width=".85203" fill="url(#linearGradient1497)"/>
      <path id="path18153" fill-rule="evenodd" fill="url(#linearGradient1501)" d="m20.625 30.49c-2.106-0.49-12.902-12.502-13.594-14.024-0.0021-0.006 0.0026-0.026 0.0004-0.032-0.0054-0.016-0.0291-0.052-0.0312-0.065 0-0.003-0.0004-0.029 0-0.032 0.0011-0.002 0.0297 0.002 0.0312 0l0.0938-0.097h35.469c-0.003 0.025-0.023 0.067-0.031 0.097-0.008 0.024-0.021 0.07-0.032 0.097-0.922 2.181-11.508 13.767-13.343 14.056-0.015 0.002-0.049 0-0.063 0h-8.375c-0.03-0.001-0.09 0.009-0.125 0z"/>
      <path id="path1616" stroke="url(#linearGradient1503)" stroke-width=".85203" fill="none" d="m20.875 30.051c-2.448-0.549-12.171-11.617-13.344-13.599h34.594c-1.49 2.333-11.046 13.412-13.156 13.599-0.009 0.001-0.023 0-0.031 0h-7.907c-0.026 0-0.064 0.004-0.093 0-0.02-0.003-0.042 0.005-0.063 0z"/>
      <path id="path1636" d="m20.96 30.447l-11.942 8.271 2.219 0.006 9.999-6.869 8.821-1.423-9.097 0.015z" fill="url(#linearGradient1505)" fill-rule="evenodd"/>
    </g>
    <g id="g3888" transform="matrix(.63777 0 0 .63777 -.63663 18.182)">
      <g id="g3890">
        <path id="path4177" style="color:#000000" d="m39.775 19.009a8.6621 8.6621 0 1 1 -17.324 0 8.6621 8.6621 0 1 1 17.324 0z" fill-rule="evenodd" transform="matrix(1.7755 0 0 .95918 -37.378 11.772)" fill="url(#radialGradient4336)"/>
        <path id="path2329" stroke-linejoin="round" style="color:#000000" d="m12.861 34.636h10.607c3.005 0 5.98-1.102 7.071-4.243 1.035-2.982 0.177-8.662-6.541-13.258h-12.551c-6.7176 4.243-7.557 10.045-6.0104 13.435 1.5755 3.454 4.2426 4.066 7.4244 4.066z" fill-rule="evenodd" stroke="#404604" stroke-linecap="round" stroke-width="1.568px" fill="url(#radialGradient1381)"/>
        <path id="path3812" d="m17.932 19.787s-2.151 1.66-1.966 3.66c-2.041-1.8-2.099-5.251-2.099-5.251l4.065 1.591z" style="color:#000000" fill="#9db029" fill-rule="evenodd"/>
        <path id="path3838" opacity=".21519" stroke-linejoin="round" style="color:#000000" d="m12.964 33.575h10.322c2.641 0 5.255-0.968 6.214-3.728 0.91-2.621-0.095-7.612-5.998-11.651h-11.53c-5.9033 3.728-6.8911 8.827-5.532 11.806 1.3845 3.035 3.728 3.573 6.524 3.573z" stroke="#fff" stroke-linecap="round" stroke-width="1.568px" fill="none"/>
        <path id="path3810" d="m18.911 19.787s2.151 1.66 1.966 3.66c2.041-1.8 2.1-5.251 2.1-5.251l-4.066 1.591z" style="color:#000000" fill="#9db029" fill-rule="evenodd"/>
        <path id="path3814" style="color:#000000" d="m39.775 19.009a8.6621 8.6621 0 1 1 -17.324 0 8.6621 8.6621 0 1 1 17.324 0z" fill-rule="evenodd" transform="translate(-13.25,-3.5)" fill="url(#radialGradient4336)"/>
        <path id="path2327" stroke-linejoin="round" style="color:#000000" d="m39.775 19.009a8.6621 8.6621 0 1 1 -17.324 0 8.6621 8.6621 0 1 1 17.324 0z" fill-rule="evenodd" transform="translate(-13.125,-7)" stroke="#6f4709" stroke-linecap="round" stroke-width="1.568px" fill="url(#radialGradient4328)"/>
        <path id="path3834" opacity=".12658" stroke-linejoin="round" style="color:#000000" d="m39.775 19.009a8.6621 8.6621 0 1 1 -17.324 0 8.6621 8.6621 0 1 1 17.324 0z" transform="matrix(.83562 0 0 .83562 -8.0105 -3.8753)" stroke="#fff" stroke-linecap="round" stroke-width="1.8764px" fill="none"/>
        <path id="path4173" style="color:#000000" fill-rule="evenodd" fill="url(#linearGradient1372)" d="m22.584 27.035h4.243l-2.475-2.298-0.531 0.707-0.53-0.531-0.707 2.122z"/>
        <path id="path4368" opacity=".22785" style="color:#000000" d="m8.548 33.602c-1.2477-0.545-1.806-1.859-1.806-1.859 0.8412-4.069 3.72-7.046 3.72-7.046s-2.2794 6.412-1.914 8.905z" fill-rule="evenodd" fill="url(#linearGradient1369)"/>
        <path id="path4370" opacity=".22785" style="color:#000000" d="m27.454 32.743c1.231-0.581 1.804-2.002 1.804-2.002-0.959-4.043-3.976-6.843-3.976-6.843s2.464 6.343 2.172 8.845z" fill-rule="evenodd" fill="url(#linearGradient1366)"/>
      </g>
      <g id="layer2">
        <path id="path4306" style="color:#000000" d="m39.775 19.009a8.6621 8.6621 0 1 1 -17.324 0 8.6621 8.6621 0 1 1 17.324 0z" fill-rule="evenodd" transform="matrix(1.7755 0 0 .95918 -24.253 18.772)" fill="url(#radialGradient4336)"/>
        <path id="path4308" stroke-linejoin="round" style="color:#000000" d="m25.986 41.636h10.607c3.005 0 5.98-1.102 7.071-4.243 1.035-2.982 0.177-8.662-6.541-13.258h-12.551c-6.718 4.243-7.557 10.045-6.01 13.435 1.575 3.454 4.242 4.066 7.424 4.066z" fill-rule="evenodd" stroke="#204a87" stroke-linecap="round" stroke-width="1.568px" fill="url(#radialGradient4169)"/>
        <path id="path4310" d="m26.693 25.726c3.182 2.829 4.596 13.082 4.596 13.082s1.415-10.253 3.89-13.259l-8.486 0.177z" style="color:#000000" fill="url(#linearGradient3830)" fill-rule="evenodd"/>
        <path id="path4312" d="m28.973 26.787s-2.152 1.66-1.966 3.66c-2.041-1.8-2.1-5.251-2.1-5.251l4.066 1.591z" style="color:#000000" fill="#729fcf" fill-rule="evenodd"/>
        <path id="path4314" opacity=".21519" stroke-linejoin="round" style="color:#000000" d="m25.843 40.038l10.741-0.021c2.458 0 4.753-0.829 5.645-3.392 0.847-2.433-0.504-7.137-5.998-10.887l-10.731-0.226c-5.495 3.462-6.766 8.196-5.481 11.188 1.286 2.992 2.954 3.317 5.824 3.338z" stroke="#fff" stroke-linecap="round" stroke-width="1.568px" fill="none"/>
        <path id="path4316" d="m33.411 26.787s2.151 1.66 1.966 3.66c2.041-1.8 2.1-5.251 2.1-5.251l-4.066 1.591z" style="color:#000000" fill="#729fcf" fill-rule="evenodd"/>
        <path id="path4318" style="color:#000000" d="m39.775 19.009a8.6621 8.6621 0 1 1 -17.324 0 8.6621 8.6621 0 1 1 17.324 0z" fill-rule="evenodd" transform="translate(-.125 3.5)" fill="url(#radialGradient4336)"/>
        <path id="path4320" stroke-linejoin="round" style="color:#000000" d="m39.775 19.009a8.6621 8.6621 0 1 1 -17.324 0 8.6621 8.6621 0 1 1 17.324 0z" fill-rule="evenodd" stroke="#c17d11" stroke-linecap="round" stroke-width="1.568px" fill="url(#radialGradient4171)"/>
        <path id="path4322" opacity=".1962" stroke-linejoin="round" style="color:#000000" d="m39.775 19.009a8.6621 8.6621 0 1 1 -17.324 0 8.6621 8.6621 0 1 1 17.324 0z" transform="matrix(.82124 0 0 .82124 5.5616 3.3979)" stroke="#fff" stroke-linecap="round" stroke-width="1.9093px" fill="none"/>
        <path id="path4354" opacity=".22785" style="color:#000000" d="m21.852 40.775c-1.248-0.545-1.806-1.858-1.806-1.858 0.841-4.069 3.72-7.046 3.72-7.046s-2.28 6.411-1.914 8.904z" fill-rule="evenodd" fill="url(#linearGradient4362)"/>
        <path id="path4364" opacity=".22785" style="color:#000000" d="m40.757 39.917c1.232-0.581 1.805-2.002 1.805-2.002-0.959-4.043-3.976-6.843-3.976-6.843s2.464 6.342 2.171 8.845z" fill-rule="evenodd" fill="url(#linearGradient4366)"/>
      </g>
    </g>
    <g id="g2547" transform="matrix(-1 0 0 -1 57.075 43.974)">
      <path id="path1432" style="color:#000000" d="m3.2035 25.835c-1.0306-31.22 25.538-26.286 25.378-10.046h7.313l-11.377 12.986-11.933-12.986h7.542c0.457-10.97-16.718-14.179-16.924 10.046z" transform="matrix(0 -1 1 0 6.862 36.369)" display="block" stroke="url(#linearGradient2564)" fill="url(#linearGradient2562)"/>
      <g id="g1630">
        <path id="path2177" opacity=".47159" style="color:#000000" d="m7.6642 9.1041c4.7418-9.1441 20.326-6.1656 19.965 7.6959l6.185-0.088-9.301 10.604-9.743-10.56 6.192-0.177c0.271-11.575-10.04-11.044-13.298-7.4749z" transform="matrix(0 -1 1 0 6.862 36.369)" display="block" stroke="url(#linearGradient2566)" stroke-miterlimit="10" fill="none"/>
      </g>
      <path id="path2362" opacity=".5" style="color:#000000" d="m19.156 10.781c-0.055 0.001-0.101 0.03-0.156 0.031 23.612 0.466 21.274 18.506 9.221 17.185 0 0-0.221-6.658-0.221-6.658l-11.793 10.786 0.125 0.125c8.455-2.335 18.259 0.283 24.856-6.344 1.089-7.188-4.787-15.464-22.032-15.125z" transform="matrix(-1 0 0 -1 51.137 43.974)" display="block" fill="url(#linearGradient2365)"/>
    </g>
  </g>
  <metadata>
    <rdf:RDF>
      <cc:Work>
        <dc:format>image/svg+xml</dc:format>
        <dc:type rdf:resource="http://purl.org/dc/dcmitype/StillImage"/>
        <cc:license rdf:resource="http://creativecommons.org/licenses/publicdomain/"/>
        <dc:publisher>
          <cc:Agent rdf:about="http://openclipart.org/">
            <dc:title>Openclipart</dc:title>
          </cc:Agent>
        </dc:publisher>
        <dc:title>tango mail reply all</dc:title>
        <dc:date>2010-03-26T08:11:46</dc:date>
        <dc:description>"Reply all" icon from &lt;a href="http://tango.freedesktop.org/Tango_Desktop_Project"&gt; Tango Project &lt;/a&gt; &#xD;\n&lt;br&gt;&lt;br&gt;&#xD;\nSince version 0.8.90 Tango Project icons are Public Domain: &lt;a href="http://tango.freedesktop.org/Frequently_Asked_Questions#Terms_of_Use.3F"&gt; Tango Project FAQ &lt;/a&gt;</dc:description>
        <dc:source>http://openclipart.org/detail/34177/tango-mail-reply-all-by-warszawianka</dc:source>
        <dc:creator>
          <cc:Agent>
            <dc:title>warszawianka</dc:title>
          </cc:Agent>
        </dc:creator>
        <dc:subject>
          <rdf:Bag>
            <rdf:li>clip art</rdf:li>
            <rdf:li>clipart</rdf:li>
            <rdf:li>email</rdf:li>
            <rdf:li>externalsource</rdf:li>
            <rdf:li>icon</rdf:li>
            <rdf:li>mail</rdf:li>
            <rdf:li>reply</rdf:li>
            <rdf:li>tango</rdf:li>
          </rdf:Bag>
        </dc:subject>
      </cc:Work>
      <cc:License rdf:about="http://creativecommons.org/licenses/publicdomain/">
        <cc:permits rdf:resource="http://creativecommons.org/ns#Reproduction"/>
        <cc:permits rdf:resource="http://creativecommons.org/ns#Distribution"/>
        <cc:permits rdf:resource="http://creativecommons.org/ns#DerivativeWorks"/>
      </cc:License>
    </rdf:RDF>
  </metadata>
</svg>
