<?xml version="1.0"?>
<svg xmlns:rdf="http://www.w3.org/1999/02/22-rdf-syntax-ns#" xmlns="http://www.w3.org/2000/svg" xmlns:cc="http://creativecommons.org/ns#" xmlns:xlink="http://www.w3.org/1999/xlink" xmlns:dc="http://purl.org/dc/elements/1.1/" xmlns:svg="http://www.w3.org/2000/svg" id="svg5816" viewBox="0 0 48 48">
  <defs id="defs3">
    <radialGradient id="radialGradient5031" xlink:href="#linearGradient5060" gradientUnits="userSpaceOnUse" cy="486.65" cx="605.71" gradientTransform="matrix(-2.7744 0 0 1.9697 112.76 -872.89)" r="117.14"/>
    <linearGradient id="linearGradient5060">
      <stop id="stop5062" offset="0"/>
      <stop id="stop5064" stop-opacity="0" offset="1"/>
    </linearGradient>
    <radialGradient id="radialGradient5029" xlink:href="#linearGradient5060" gradientUnits="userSpaceOnUse" cy="486.65" cx="605.71" gradientTransform="matrix(2.7744 0 0 1.9697 -1891.6 -872.89)" r="117.14"/>
    <linearGradient id="linearGradient5027" x1="302.86" gradientUnits="userSpaceOnUse" y1="366.65" gradientTransform="matrix(2.7744 0 0 1.9697 -1892.2 -872.89)" x2="302.86" y2="609.51">
      <stop id="stop5050" stop-opacity="0" offset="0"/>
      <stop id="stop5056" offset=".5"/>
      <stop id="stop5052" stop-opacity="0" offset="1"/>
    </linearGradient>
    <linearGradient id="linearGradient15107">
      <stop id="stop15109" stop-color="#fff" offset="0"/>
      <stop id="stop15111" stop-color="#e2e2e2" offset="1"/>
    </linearGradient>
    <linearGradient id="linearGradient4247" y2="34.408" gradientUnits="userSpaceOnUse" y1="28.042" x2="43.987" x1="32.708">
      <stop id="stop2310" stop-color="#fd9d14" offset="0"/>
      <stop id="stop2312" stop-color="#ffc879" stop-opacity="0" offset="1"/>
    </linearGradient>
    <linearGradient id="linearGradient4249" y2="34.408" gradientUnits="userSpaceOnUse" y1="28.042" x2="43.987" x1="32.708">
      <stop id="stop2486" stop-color="#9f620b" offset="0"/>
      <stop id="stop2488" stop-color="#ffc879" stop-opacity="0" offset="1"/>
    </linearGradient>
    <linearGradient id="linearGradient4251" x1="23.708" gradientUnits="userSpaceOnUse" y1="11.028" gradientTransform="matrix(.91411 1.4128e-16 -1.4128e-16 .91411 -3.8687 -2.7069)" x2="36.172" y2="50.995">
      <stop id="stop2189" stop-color="#fff" offset="0"/>
      <stop id="stop2191" stop-color="#fff" stop-opacity="0" offset="1"/>
    </linearGradient>
    <linearGradient id="linearGradient4253" y2="36.087" gradientUnits="userSpaceOnUse" y1="14.319" x2="37.114" x1="11.688">
      <stop id="stop8652" stop-color="#fff" offset="0"/>
      <stop id="stop8654" stop-color="#fff" stop-opacity="0" offset="1"/>
    </linearGradient>
    <linearGradient id="linearGradient3734" x1="11.573" xlink:href="#linearGradient15107" gradientUnits="userSpaceOnUse" y1="4.7462" gradientTransform="matrix(1.3435 0 0 1.5058 2.8795 -2.266)" x2="18.475" y2="26.023"/>
    <linearGradient id="linearGradient3736" x1="9.1643" gradientUnits="userSpaceOnUse" y1="38.071" gradientTransform="matrix(2.4548 0 0 .762 2.8818 .33739)" x2="9.8855" y2="52.091">
      <stop id="stop2626" stop-color="#dfe0df" offset="0"/>
      <stop id="stop2630" stop-color="#a6b0a6" offset=".2381"/>
      <stop id="stop2628" stop-color="#b5beb5" offset="1"/>
    </linearGradient>
    <radialGradient id="radialGradient3738" gradientUnits="userSpaceOnUse" cy="38.712" cx="27.741" gradientTransform="matrix(.62993 .45937 -.14768 .24851 16.517 9.0537)" r="17.978">
      <stop id="stop2276" stop-opacity=".12871" offset="0"/>
      <stop id="stop2278" stop-opacity="0" offset="1"/>
    </radialGradient>
    <linearGradient id="linearGradient3740" x1="11.742" xlink:href="#linearGradient15107" gradientUnits="userSpaceOnUse" y1="11.485" gradientTransform="matrix(1.296 0 0 -1.4369 3.7466 33.205)" x2="13.847" y2="11.982"/>
    <linearGradient id="linearGradient3742" x1="10.027" xlink:href="#linearGradient15107" gradientUnits="userSpaceOnUse" y1="20.22" gradientTransform="matrix(1.5706 0 0 -1.2315 2.9734 33.335)" x2="17.178" y2="-7.5275"/>
    <linearGradient id="linearGradient3744" x1="11.842" gradientUnits="userSpaceOnUse" y1="4.2507" gradientTransform="matrix(1.3709 0 0 -1.4646 2.5251 33.713)" x2="40.024" y2="7.4121">
      <stop id="stop9751" stop-color="#fff" offset="0"/>
      <stop id="stop9753" stop-color="#ededed" offset="1"/>
    </linearGradient>
    <linearGradient id="linearGradient3746" y2="31.027" gradientUnits="userSpaceOnUse" y1="33.357" x2="22.178" x1="17.397">
      <stop id="stop2575" stop-color="#fff" offset="0"/>
      <stop id="stop2577" stop-color="#fff" stop-opacity="0" offset="1"/>
    </linearGradient>
    <radialGradient id="radialGradient16665" gradientUnits="userSpaceOnUse" cy="73.616" cx="6.7027" gradientTransform="scale(1.9022 .52570)" r="7.2284">
      <stop id="stop10693" offset="0"/>
      <stop id="stop10695" stop-opacity="0" offset="1"/>
    </radialGradient>
  </defs>
  <g id="layer1">
    <g id="g5022" transform="matrix(.023129 0 0 .014857 45.572 30.478)">
      <rect id="rect4173" opacity=".40206" style="color:black" height="478.36" width="1339.6" y="-150.7" x="-1559.3" fill="url(#linearGradient5027)"/>
      <path id="path5058" opacity=".40206" style="color:black" fill="url(#radialGradient5029)" d="m-219.62-150.68v478.33c142.88 0.9 345.4-107.17 345.4-239.2 0-132.02-159.44-239.13-345.4-239.13z"/>
      <path id="path5018" opacity=".40206" style="color:black" fill="url(#radialGradient5031)" d="m-1559.3-150.68v478.33c-142.8 0.9-345.4-107.17-345.4-239.2 0-132.02 159.5-239.13 345.4-239.13z"/>
    </g>
    <path id="path4202" opacity=".3" style="color:black" d="m26.5 38.7a13.75 3.8 0 1 1 -27.5 0 13.75 3.8 0 1 1 27.5 0z" transform="matrix(1.1788 0 0 1.5261 14.562 -21.535)" fill="url(#radialGradient16665)"/>
    <g id="g4204" transform="matrix(1.0047 0 0 1.0016 .04209 -8.9728)">
      <path id="path4206" stroke-linejoin="round" d="m6.3438 15.455v25.987h36.968l-0.062-25.888v-0.033c-0.001-0.006 0.001-0.026 0-0.033s-0.029-0.026-0.031-0.033h-36.875z" fill-rule="evenodd" stroke="#888a85" stroke-width=".99684" fill="url(#linearGradient3734)"/>
      <path id="path4208" d="m20.491 29.059l-13.396 10.972 13.909-9.605h9.018l12.419 9.483-11.864-10.85h-10.086z" fill="url(#linearGradient3736)" fill-rule="evenodd"/>
      <path id="path4210" stroke="#fff" stroke-width=".99684" fill="none" d="m7.4471 16.726c-0.0066 0.013 0.0054 0.019 0 0.031-0.0023 0.006-0.0291 0.027-0.0311 0.032-0.0017 0.005 0.0013 0.027 0 0.031-0.001 0.005 0.0007 0.028 0 0.032l0.0311 23.49h34.834l-0.062-23.363c-0.001-0.004 0.001-0.028 0-0.032-0.015-0.048-0.042-0.132-0.094-0.221h-34.678z"/>
      <path id="path4212" fill-rule="evenodd" fill="url(#radialGradient3738)" d="m23.329 32.997c-2.392-0.447-15.429-14.226-16.732-16.625-0.0154-0.029-0.041-0.083-0.0523-0.108h34.513c-0.277 2.502-7.524 16.505-9.561 16.733h-8.051c-0.033 0-0.077 0.007-0.117 0z"/>
      <path id="path4214" stroke-linejoin="round" d="m20.775 31.085c-2.368-0.391-12.83-12.466-13.656-14.568-0.0097-0.025-0.0243-0.073-0.0306-0.095h35.543c-0.824 2.193-11.299 14.464-13.445 14.663-0.009 0.001-0.022 0-0.031 0h-8.26c-0.034 0-0.081 0.007-0.12 0z" fill-rule="evenodd" stroke="#989898" stroke-width=".8539" fill="url(#linearGradient3740)"/>
      <path id="path4216" fill-rule="evenodd" fill="url(#linearGradient3742)" d="m20.625 30.49c-2.106-0.49-12.902-12.502-13.594-14.024-0.0021-0.006 0.0026-0.026 0.0004-0.032-0.0054-0.016-0.0291-0.052-0.0312-0.065 0-0.003-0.0004-0.029 0-0.032 0.0011-0.002 0.0297 0.002 0.0312 0l0.0938-0.097h35.469c-0.003 0.025-0.023 0.067-0.031 0.097-0.008 0.024-0.021 0.07-0.032 0.097-0.922 2.181-11.508 13.767-13.343 14.056-0.015 0.002-0.049 0-0.063 0h-8.375c-0.03-0.001-0.09 0.009-0.125 0z"/>
      <path id="path4218" stroke="url(#linearGradient3744)" stroke-width=".8539" fill="none" d="m20.875 30.051c-2.448-0.549-12.171-11.617-13.344-13.599h34.594c-1.49 2.333-11.046 13.412-13.156 13.599-0.009 0.001-0.023 0-0.031 0h-7.907c-0.026 0-0.064 0.004-0.093 0-0.02-0.003-0.042 0.005-0.063 0z"/>
      <path id="path4220" d="m20.96 30.447l-11.942 8.271 2.219 0.006 9.999-6.869 8.821-1.423-9.097 0.015z" fill="url(#linearGradient3746)" fill-rule="evenodd"/>
    </g>
    <g id="g4242">
      <path id="path2801" style="color:#000000" d="m49.786 36.462c-17.914-6.661 2.069-22.395-27.324-23.964v-9.3758l-16.648 14.587 16.648 15.297v-9.668c17.02-0.882 7.832 14.042 27.324 13.124z" transform="matrix(-.84570 0 0 -.84570 51.403 49.14)" display="block" stroke="url(#linearGradient4249)" stroke-width="1.1825" fill="url(#linearGradient4247)"/>
      <path id="path2803" opacity=".7" style="color:#000000" d="m44.926 35.103c-11.039-6.375 3.754-20.464-23.477-21.553v-8.0991l-14.048 12.264 14.048 12.944v-8.278c16.096-2.27 12.682 12.019 23.477 12.722z" transform="matrix(-.84570 0 0 -.84570 51.403 49.14)" display="block" stroke="url(#linearGradient4251)" stroke-miterlimit="10" stroke-width="1.1824" fill="none"/>
      <path id="path2490" d="m32.844 38.188l-0.063 7.312 13.094-11.344-13.031-12.062s-0.063 7.562-0.063 7.562c-12.518 2.621-9.234-11.245-21.093-10.718 11.184 5.085-1.9577 18.354 21.156 19.25zm7.937-8.563c0.079-0.005 0.136 0.002 0.219 0l4.812 4.563-12.937 11.281-0.094-7.313-4.187-0.531c9.345-2.575 7.195-7.698 12.187-8z" style="color:#000000" fill="url(#linearGradient4253)" display="block"/>
    </g>
  </g>
  <metadata>
    <rdf:RDF>
      <cc:Work>
        <dc:format>image/svg+xml</dc:format>
        <dc:type rdf:resource="http://purl.org/dc/dcmitype/StillImage"/>
        <cc:license rdf:resource="http://creativecommons.org/licenses/publicdomain/"/>
        <dc:publisher>
          <cc:Agent rdf:about="http://openclipart.org/">
            <dc:title>Openclipart</dc:title>
          </cc:Agent>
        </dc:publisher>
        <dc:title>tango mail forward</dc:title>
        <dc:date>2010-03-26T08:09:13</dc:date>
        <dc:description>"Mail forward" icon from &lt;a href="http://tango.freedesktop.org/Tango_Desktop_Project"&gt; Tango Project &lt;/a&gt; &#xD;\n&lt;br&gt;&lt;br&gt;&#xD;\nSince version 0.8.90 Tango Project icons are Public Domain: &lt;a href="http://tango.freedesktop.org/Frequently_Asked_Questions#Terms_of_Use.3F"&gt; Tango Project FAQ &lt;/a&gt;</dc:description>
        <dc:source>http://openclipart.org/detail/34159/tango-mail-forward-by-warszawianka</dc:source>
        <dc:creator>
          <cc:Agent>
            <dc:title>warszawianka</dc:title>
          </cc:Agent>
        </dc:creator>
        <dc:subject>
          <rdf:Bag>
            <rdf:li>clip art</rdf:li>
            <rdf:li>clipart</rdf:li>
            <rdf:li>email</rdf:li>
            <rdf:li>envelope</rdf:li>
            <rdf:li>externalsource</rdf:li>
            <rdf:li>icon</rdf:li>
            <rdf:li>mail</rdf:li>
            <rdf:li>tango</rdf:li>
          </rdf:Bag>
        </dc:subject>
      </cc:Work>
      <cc:License rdf:about="http://creativecommons.org/licenses/publicdomain/">
        <cc:permits rdf:resource="http://creativecommons.org/ns#Reproduction"/>
        <cc:permits rdf:resource="http://creativecommons.org/ns#Distribution"/>
        <cc:permits rdf:resource="http://creativecommons.org/ns#DerivativeWorks"/>
      </cc:License>
    </rdf:RDF>
  </metadata>
</svg>
