<?xml version="1.0"?>
<svg xmlns:rdf="http://www.w3.org/1999/02/22-rdf-syntax-ns#" xmlns="http://www.w3.org/2000/svg" xmlns:cc="http://web.resource.org/cc/" xmlns:xlink="http://www.w3.org/1999/xlink" xmlns:dc="http://purl.org/dc/elements/1.1/" xmlns:svg="http://www.w3.org/2000/svg" id="svg2" viewBox="0 0 48 48" version="1.0">
  <defs id="defs4">
    <radialGradient id="radialGradient2481" gradientUnits="userSpaceOnUse" cy="52" cx="-15" gradientTransform="matrix(1 0 0 .24194 0 39.419)" r="15.5">
      <stop id="stop3391" offset="0"/>
      <stop id="stop3393" stop-opacity="0" offset="1"/>
    </radialGradient>
    <linearGradient id="linearGradient2483" y2="5.4611" gradientUnits="userSpaceOnUse" y1="1.1694" x2="12.82" x1="9.8237">
      <stop id="stop3726" stop-color="#fffffe" offset="0"/>
      <stop id="stop3728" stop-color="#ffd000" offset="1"/>
    </linearGradient>
    <linearGradient id="linearGradient2485" y2="4.7698" gradientUnits="userSpaceOnUse" y1="1.0953" x2="14.91" x1="10.236">
      <stop id="stop3732" stop-color="#b4ffff" offset="0"/>
      <stop id="stop3734" stop-color="#08f" offset="1"/>
    </linearGradient>
    <linearGradient id="linearGradient2487" y2="6.5227" gradientUnits="userSpaceOnUse" y1="3.3167" x2="15.133" x1="12.165">
      <stop id="stop3738" stop-color="#ffbfff" offset="0"/>
      <stop id="stop3740" stop-color="#ef23ff" offset="1"/>
    </linearGradient>
    <linearGradient id="linearGradient2489" x1="13.055" gradientUnits="userSpaceOnUse" y1="17.392" gradientTransform="matrix(1.3421 0 0 1.3871 2.5321 2.0942)" x2="18.571" y2="23.154">
      <stop id="stop3744" stop-color="#ffbfbf" offset="0"/>
      <stop id="stop3746" stop-color="#ff0001" offset="1"/>
    </linearGradient>
    <linearGradient id="linearGradient2491" x1="17.88" gradientUnits="userSpaceOnUse" y1="11.064" gradientTransform="matrix(1.3896 0 0 1.3896 2.0326 1.5797)" x2="21.633" y2="16.021">
      <stop id="stop3750" stop-color="#bfbfff" offset="0"/>
      <stop id="stop3752" stop-color="#00f" offset="1"/>
    </linearGradient>
    <linearGradient id="linearGradient2493" x1="9.2436" gradientUnits="userSpaceOnUse" y1="10.268" gradientTransform="matrix(1.3683 0 0 1.3683 1.7985 1.8873)" x2="14.504" y2="15.288">
      <stop id="stop3270" stop-color="#b9ffbd" offset="0"/>
      <stop id="stop3272" stop-color="#00ab00" offset="1"/>
    </linearGradient>
    <linearGradient id="linearGradient2495" x1="22.075" gradientUnits="userSpaceOnUse" y1="21.103" gradientTransform="translate(-.15288 .14305)" x2="27.553" y2="25.79">
      <stop id="stop3762" stop-color="#b6b6b6" offset="0"/>
      <stop id="stop3764" offset="1"/>
    </linearGradient>
  </defs>
  <g id="layer1">
    <g id="g2457" transform="translate(-.005214 .46481)">
      <path id="path3387" opacity=".631" transform="matrix(1.1613 0 0 1.5 41.419 -36.625)" fill="url(#radialGradient2481)" d="m0.5 52a15.5 3.75 0 1 1 -31 0 15.5 3.75 0 1 1 31 0z"/>
      <path id="path3175" transform="matrix(4.2676 0 0 3.7341 -36.807 13.513)" fill="#e89900" d="m16 4a3.5 4 0 1 1 -7 0 3.5 4 0 1 1 7 0z"/>
      <path id="path3217" transform="matrix(3.8408 0 0 3.3607 -31.473 15.007)" fill="#ffffe6" d="m16 4a3.5 4 0 1 1 -7 0 3.5 4 0 1 1 7 0z"/>
      <path id="path3219" transform="matrix(3.4286 0 0 3 -26.32 16.45)" fill="url(#linearGradient2483)" d="m16 4a3.5 4 0 1 1 -7 0 3.5 4 0 1 1 7 0z"/>
      <path id="path3182" transform="matrix(4.2676 0 0 3.7341 -29.339 .070372)" fill="#0096ff" d="m16 4a3.5 4 0 1 1 -7 0 3.5 4 0 1 1 7 0z"/>
      <path id="path3185" transform="matrix(3.8408 0 0 3.3607 -24.005 1.564)" fill="#e6ffff" d="m16 4a3.5 4 0 1 1 -7 0 3.5 4 0 1 1 7 0z"/>
      <path id="path3215" transform="matrix(3.4286 0 0 3 -18.852 3.0068)" fill="url(#linearGradient2485)" d="m16 4a3.5 4 0 1 1 -7 0 3.5 4 0 1 1 7 0z"/>
      <path id="path3171" transform="matrix(4.2676 0 0 3.7341 -21.871 13.513)" fill="#c0c" d="m16 4a3.5 4 0 1 1 -7 0 3.5 4 0 1 1 7 0z"/>
      <path id="path3221" transform="matrix(3.8408 0 0 3.3607 -16.537 15.007)" fill="#ffe6ff" d="m16 4a3.5 4 0 1 1 -7 0 3.5 4 0 1 1 7 0z"/>
      <path id="path3223" transform="matrix(3.4286 0 0 3 -11.384 16.45)" fill="url(#linearGradient2487)" d="m16 4a3.5 4 0 1 1 -7 0 3.5 4 0 1 1 7 0z"/>
      <path id="path3165" fill="#00c" d="m31.473 13.513c-8.072 0-14.618 6.416-14.889 14.423 2.191 1.263 4.712 2.007 7.421 2.007 8.073 0 14.619-6.416 14.89-14.423-2.191-1.262-4.713-2.007-7.422-2.007z"/>
      <path id="path3159" fill="#0c0" d="m16.537 13.513c-2.709 0-5.23 0.745-7.4216 2.007 0.2713 8.007 6.8166 14.423 14.89 14.423 2.709 0 5.23-0.744 7.422-2.007-0.272-8.007-6.817-14.423-14.89-14.423z"/>
      <path id="path3157" fill="#c00" d="m24.005 15.514c-4.448 2.599-7.468 7.4-7.468 12.936s3.02 10.337 7.468 12.935c4.448-2.598 7.468-7.399 7.468-12.935s-3.02-10.337-7.468-12.936z"/>
      <path id="path3245" fill="#ccf" d="m37.422 16.138c-3.714-1.942-8.509-1.948-12.653 0.445-4.145 2.392-6.537 6.548-6.713 10.736 3.715 1.941 8.51 1.947 12.654-0.445 4.144-2.393 6.537-6.548 6.712-10.736z"/>
      <path id="path3233" fill="#fcc" d="m24.005 17.269c-3.539 2.246-5.941 6.395-5.941 11.181 0 4.785 2.402 8.935 5.941 11.18 3.539-2.245 5.942-6.395 5.942-11.18 0-4.786-2.403-8.935-5.942-11.181z"/>
      <path id="path3239" fill="url(#linearGradient2489)" d="m20.526 22.973c-2.542 5.215-0.967 11.838 3.484 15 1.406-0.945 2.621-2.296 3.474-4.046 2.542-5.216 0.968-11.839-3.484-15.001-1.405 0.945-2.621 2.296-3.474 4.047z"/>
      <path id="path3247" fill="url(#linearGradient2491)" d="m30.69 15.865c-5.841 0.334-10.771 5.062-11.21 10.638 1.547 0.787 3.349 1.2 5.309 1.088 5.841-0.333 10.771-5.062 11.21-10.637-1.548-0.787-3.349-1.201-5.309-1.089z"/>
      <path id="path3253" fill="#e6ffe6" d="m10.588 16.138c3.715-1.942 8.51-1.948 12.654 0.445 4.144 2.392 6.536 6.548 6.712 10.736-3.714 1.941-8.51 1.947-12.654-0.445-4.144-2.393-6.536-6.548-6.712-10.736z"/>
      <path id="path3255" fill="url(#linearGradient2493)" d="m17.366 15.955c5.751 0.328 10.606 4.985 11.038 10.475-1.523 0.775-3.297 1.182-5.227 1.072-5.752-0.329-10.607-4.985-11.039-10.475 1.523-0.775 3.298-1.182 5.228-1.072z"/>
      <path id="path2385" fill="#676767" d="m24.005 15.52c-4.329 2.515-7.276 7.094-7.456 12.41 2.201 1.266 4.735 2.013 7.456 2.013 2.722 0 5.255-0.747 7.457-2.013-0.181-5.316-3.127-9.895-7.457-12.41z"/>
      <path id="path3241" fill="#e3e3e3" d="m24.005 17.075c-3.413 2.021-5.735 5.703-5.877 9.975 1.735 1.018 3.732 1.619 5.877 1.619 2.146 0 4.142-0.601 5.878-1.619-0.143-4.272-2.465-7.954-5.878-9.975z"/>
      <path id="path3257" fill="url(#linearGradient2495)" d="m24.005 18.747c-2.588 1.504-4.35 4.241-4.458 7.419 1.317 0.757 2.831 1.204 4.458 1.204s3.142-0.447 4.458-1.204c-0.108-3.178-1.869-5.915-4.458-7.419z"/>
    </g>
  </g>
  <metadata>
    <rdf:RDF>
      <cc:Work>
        <dc:format>image/svg+xml</dc:format>
        <dc:type rdf:resource="http://purl.org/dc/dcmitype/StillImage"/>
        <cc:license rdf:resource="http://creativecommons.org/licenses/publicdomain/"/>
        <dc:publisher>
          <cc:Agent rdf:about="http://openclipart.org/">
            <dc:title>Openclipart</dc:title>
          </cc:Agent>
        </dc:publisher>
        <dc:title>tango_cmyk</dc:title>
        <dc:date>2009-07-17T19:28:20</dc:date>
        <dc:description>clip art, clipart, cmyk, cmyk, icon, icon, image, media, png, public domain, svg, tango, tango, </dc:description>
        <dc:source>http://openclipart.org/detail/27214/tango_cmyk-by-maxim2-27214</dc:source>
        <dc:creator>
          <cc:Agent>
            <dc:title>maxim2</dc:title>
          </cc:Agent>
        </dc:creator>
        <dc:subject>
          <rdf:Bag>
            <rdf:li>clip art</rdf:li>
            <rdf:li>clipart</rdf:li>
            <rdf:li>cmyk</rdf:li>
            <rdf:li>icon</rdf:li>
            <rdf:li>image</rdf:li>
            <rdf:li>media</rdf:li>
            <rdf:li>png</rdf:li>
            <rdf:li>public domain</rdf:li>
            <rdf:li>svg</rdf:li>
            <rdf:li>tango</rdf:li>
          </rdf:Bag>
        </dc:subject>
      </cc:Work>
      <cc:License rdf:about="http://creativecommons.org/licenses/publicdomain/">
        <cc:permits rdf:resource="http://creativecommons.org/ns#Reproduction"/>
        <cc:permits rdf:resource="http://creativecommons.org/ns#Distribution"/>
        <cc:permits rdf:resource="http://creativecommons.org/ns#DerivativeWorks"/>
      </cc:License>
    </rdf:RDF>
  </metadata>
</svg>
