<?xml version="1.0"?>
<svg xmlns:rdf="http://www.w3.org/1999/02/22-rdf-syntax-ns#" xmlns="http://www.w3.org/2000/svg" xmlns:cc="http://web.resource.org/cc/" xmlns:dc="http://purl.org/dc/elements/1.1/" xmlns:svg="http://www.w3.org/2000/svg" id="svg8472" viewBox="0 0 621.82 651.87" version="1.0">
  <g id="layer1" transform="translate(-283.38 -86.429)">
    <g id="g4272" transform="translate(-509.68 -223.51)">
      <path id="path2398" d="m797.91 957.31c-9.64-9.65-3.99-122.22 8.83-175.66 21.29-88.8 105.81-288.94 113.1-267.79 1.52 4.41-0.47 25.49-4.42 46.84-3.94 21.35-6.99 49.66-6.78 62.91 0.35 21.25 1.35 22.6 8.45 11.46 29.94-46.97 30.45-46.29 26.58 35.36l-3.62 76.41 16.19-2.28c14.55-2.06 17.93-9.43 33.57-73.22 18.09-73.88 28.19-97.78 62.39-148.61 20.8-30.8 107.7-131.69 126.3-146.61 17.7-14.23 28.1 9.16 26.3 58.79-2.8 74.48 0.3 111.7 10.3 125.37 9.2 12.59 9.9 12.31 16.9-7.15 17-47.02 68.9-119.93 141.9-199.28l40.4-43.91 0.3 325.94 0.3 325.93h-306.3c-168.38 0-308.21-2.03-310.69-4.5z" fill="#fecb00"/>
      <path id="path2396" d="m846.98 951.11c-21.37-25.75 19.93-211.35 62.13-279.27l22.78-36.64 3.38 60.29c3.58 64.02 14.04 92.88 32.37 89.34 8.08-1.55 15.97-21.07 28.28-69.92 20.68-82.2 36.88-120.43 63.98-151.75 11.3-13.05 31.2-39.46 44.2-58.68 27.8-40.97 50.5-55.14 60-37.28 3.3 6.39 6.3 42.02 6.5 79.17 0.8 102.91 11.3 161.99 37.9 212.92 26.7 50.9 52.3 142.59 49.9 178.46-1.5 21.85-3.6 24.46-18.2 22.68-9.1-1.1-19.8-8.08-23.9-15.51s-8.2-14.73-9-16.23c-0.9-1.49-8 5.34-15.7 15.2-12.1 15.39-19.2 17.92-50.2 17.92-40.7 0-44.5-4.5-34.9-40.59 5.7-21.44 3.7-30.79-15.8-73.06-12.3-26.66-24.5-48.47-27.2-48.47-7.7 0-13.8 39.9-9.1 58.68 4.2 16.61-15.9 96.74-23.8 95.29-2.3-0.41-9.3 1.52-15.6 4.3-15 6.56-39.38-10.52-49.82-34.84-8.48-19.78-11.23-16.92-19.34 20.11-3.92 17.89-5.66 18.58-47.03 18.58-30.94 0-45.43-2.99-51.83-10.7zm481.72-2.72c-10.4-16.61-10.7-41.54-0.9-74.19 6.7-22.32 5.2-30.11-13.5-72.84-11.6-26.32-21-52.66-21-58.54 0-5.87-5.6-10.68-12.4-10.68-20.1 0-58.2-53.04-58.2-80.89 0.1-35.43 38.3-110.38 92.2-180.87 71.5-93.53 76.6-88.9 81.6 73.62 2 65.57 7 125.41 11 132.97 4.4 8.16 7.4 54.88 7.4 114.96 0 84.47-2.1 106.17-12.9 131.19-7 16.49-17.9 31.94-24.2 34.34-21 8.06-40.7 4.43-49.1-9.07z" fill="#fe7900"/>
      <path id="path2394" d="m856.2 895.95c4.45-73.9 23.14-147.87 50.51-199.88l18.34-34.86 3.85 47.28c4.16 51.22 12.35 76.54 29.31 90.61 15.2 12.62 29.59-0.67 34.86-32.18 9.23-55.4 24.73-107.6 41.33-139.49 25.2-48.51 109.5-160.04 117.2-155.25 3.6 2.23 6.7 33.52 6.8 69.52 0.3 106.11 9.9 160.47 37.6 213.47 23.3 44.73 56.8 157.03 56.8 190.62 0 11.52-3.8 16.02-13.6 16.02-9 0-13.5-4.5-13.5-13.73 0-19.32-18.1-60.58-26.6-60.58-3.9 0-7.1 8.92-7.1 19.83 0 10.9-3 27.62-6.6 37.15-6 15.7-10.1 17.33-43.8 17.33-37.1 0-37.1-0.03-30.5-17.33 11.2-29.64 7.3-60.18-13.7-106.56-11.2-24.58-20.3-52.61-20.3-62.29 0-11.05-3.1-16.57-8.4-14.84-13.7 4.48-24.6 45.72-25 94.9-0.4 52.54-19.3 99.36-40 99.36-11.85 0-27.12-26.61-38.5-67.12-4.29-15.27-5.25-15.6-13.34-4.54-4.79 6.55-10.77 26.88-13.29 45.17l-4.57 33.25h-81.76l3.96-65.86zm480.3-0.59c4.4-64.49 3.9-67.73-16-109.77-11.2-23.83-20.4-51.79-20.5-62.14 0-16.42-1.6-17.93-12.8-11.91-10.7 5.71-16.6 2.79-33.8-16.89-26.8-30.54-27-56.23-0.8-108.36 21.3-42.49 106.6-159.23 119.1-163.07 5.1-1.56 8.7 29.46 11.3 97.59 2.6 66.06 7.9 112.44 15.6 137.02 8.2 25.95 12.3 65.41 13.7 130.9 1.9 92.25 1.6 94.38-18.1 133.41-18 35.67-22.2 39.67-41.2 39.67h-21.1l4.6-66.45z" fill="#ff8a00"/>
      <path id="path2392" d="m856.47 952.13c2.05-5.32 5.62-28.88 7.95-52.35 6.37-64.3 21.4-127.87 39.46-166.84l16.18-34.92 2.99 35.64c4.41 52.39 17.6 75.69 44.3 78.27 26.48 2.56 30.23-4.53 45.85-86.55 13-68.5 29.4-102.31 85.8-176.95l42.3-56.1 5 74.31c7.4 111.44 15.8 149.72 45.9 209.27 16.8 33.31 31.7 76.29 38.9 111.59 6.3 31.58 13.8 58.43 16.6 59.67 8.6 3.85 5.6 14.64-4.2 14.64-5.9 0-10.5-10.66-12.6-29.6-3.8-33.63-23.1-64.45-40.6-64.76-9.7-0.17-12 6.3-12.9 35.25-0.6 19.51-0.6 40.79-0.1 47.29 0.8 9.81-4.7 11.82-32.7 11.82-30.3 0-45.4-8.5-26.3-14.86 4.1-1.36 9-16.67 11-34.03 3-26.35 0.1-38.25-17.6-72.12-13.3-25.59-21.1-50.49-21.1-67.46 0-30.38-7.3-38.24-26.1-28.15-17.6 9.4-27.6 41.22-32.1 101.75-2.1 27.88-7.2 61.33-11.3 74.34-4.2 13-6.9 25.92-6.2 28.71 0.8 2.78-3.3 5.06-9.1 5.06s-8.79-2.83-6.65-6.28c2.15-3.46 0.84-8.18-2.89-10.48s-11.59-20.75-17.48-41c-7.92-27.26-13.9-36.81-23.05-36.81-9.25 0-14.4 8.52-20.49 33.9-4.47 18.64-6.24 41.44-3.92 50.66 4.13 16.49 3.51 16.77-37.18 16.77-33.14 0-40.64-1.93-37.67-9.68zm488.93-32.54c5.9-83.84 4.6-95.6-15-136.79-11.9-25.16-18.9-50.44-18.4-66.64 0.9-25.33 0.3-26-18.6-22.2-16.1 3.2-22.7 0.21-36.9-16.63-9.5-11.3-17.3-23.41-17.3-26.92 0-17.53 43.1-97.26 81.7-151.12l43.3-60.6 4.6 74.11c6.3 100.08 17.6 161.57 33.4 181.65 11.5 14.62 12.9 26.56 11.9 96.43-1.2 76.14-2.2 81.23-21.9 112.84-11.3 18.21-20.1 38.73-19.6 45.6 0.6 8.79-3.7 12.49-14.6 12.49-14.8 0-15.4-1.84-12.6-42.22z" fill="#fe4700"/>
    </g>
  </g>
  <metadata>
    <rdf:RDF>
      <cc:Work>
        <dc:format>image/svg+xml</dc:format>
        <dc:type rdf:resource="http://purl.org/dc/dcmitype/StillImage"/>
        <cc:license rdf:resource="http://creativecommons.org/licenses/publicdomain/"/>
        <dc:publisher>
          <cc:Agent rdf:about="http://openclipart.org/">
            <dc:title>Openclipart</dc:title>
          </cc:Agent>
        </dc:publisher>
        <dc:title>flames</dc:title>
        <dc:date>2007-09-17T09:16:30</dc:date>
        <dc:description>clip art, clipart, fire, fire, flames, flames, image, media, public domain, svg, </dc:description>
        <dc:source>http://openclipart.org/detail/5556/flames-by-mcol-5556</dc:source>
        <dc:creator>
          <cc:Agent>
            <dc:title>mcol</dc:title>
          </cc:Agent>
        </dc:creator>
        <dc:subject>
          <rdf:Bag>
            <rdf:li>clip art</rdf:li>
            <rdf:li>clipart</rdf:li>
            <rdf:li>fire</rdf:li>
            <rdf:li>flames</rdf:li>
            <rdf:li>image</rdf:li>
            <rdf:li>media</rdf:li>
            <rdf:li>public domain</rdf:li>
            <rdf:li>svg</rdf:li>
          </rdf:Bag>
        </dc:subject>
      </cc:Work>
      <cc:License rdf:about="http://creativecommons.org/licenses/publicdomain/">
        <cc:permits rdf:resource="http://creativecommons.org/ns#Reproduction"/>
        <cc:permits rdf:resource="http://creativecommons.org/ns#Distribution"/>
        <cc:permits rdf:resource="http://creativecommons.org/ns#DerivativeWorks"/>
      </cc:License>
    </rdf:RDF>
  </metadata>
</svg>
