<?xml version="1.0"?>
<svg xmlns:rdf="http://www.w3.org/1999/02/22-rdf-syntax-ns#" xmlns="http://www.w3.org/2000/svg" xmlns:cc="http://creativecommons.org/ns#" xmlns:xlink="http://www.w3.org/1999/xlink" xmlns:dc="http://purl.org/dc/elements/1.1/" xmlns:svg="http://www.w3.org/2000/svg" id="svg11300" viewBox="0 0 48 48">
  <defs id="defs3">
    <linearGradient id="linearGradient11494">
      <stop id="stop11496" stop-color="#ef2929" offset="0"/>
      <stop id="stop11498" stop-color="#ef2929" stop-opacity="0" offset="1"/>
    </linearGradient>
    <radialGradient id="radialGradient15685" gradientUnits="userSpaceOnUse" cy="40.938" cx="23.312" gradientTransform="matrix(1 0 0 .31636 0 27.986)" r="17.188">
      <stop id="stop15681" offset="0"/>
      <stop id="stop15683" stop-opacity="0" offset="1"/>
    </radialGradient>
    <radialGradient id="radialGradient3207" gradientUnits="userSpaceOnUse" cy="10.25" cx="22.75" gradientTransform="matrix(1.6165 -3.8458e-26 -2.9391e-25 1.7081 -14.026 -8.0075)" r="19.875">
      <stop id="stop15655" stop-color="#f0f1ee" offset="0"/>
      <stop id="stop15657" stop-color="#d5d9d1" offset="1"/>
    </radialGradient>
    <radialGradient id="radialGradient3209" gradientUnits="userSpaceOnUse" cy="21.611" cx="17.62" gradientTransform="matrix(4.073 8.8818e-16 -6.2683e-16 2.8745 -48.885 -43.215)" r="8">
      <stop id="stop2662" stop-color="#edeeec" offset="0"/>
      <stop id="stop2664" stop-color="#babdb6" offset="1"/>
    </radialGradient>
    <radialGradient id="radialGradient3211" xlink:href="#linearGradient11494" gradientUnits="userSpaceOnUse" cy="15.259" cx="27.577" gradientTransform="matrix(1.4785 -5.0082e-16 5.0082e-16 1.4785 -13.195 -7.3291)" r="3.8335"/>
    <radialGradient id="radialGradient3213" xlink:href="#linearGradient11494" gradientUnits="userSpaceOnUse" cy="15.048" cx="27.577" gradientTransform="matrix(1.3418 -1.3098e-15 1.3098e-15 1.3418 -9.426 -5.2229)" r="3.8335"/>
  </defs>
  <g id="layer1">
    <path id="path15677" opacity=".36932" style="color:#000000" d="m40.5 40.938a17.188 5.4375 0 1 1 -34.375 0 17.188 5.4375 0 1 1 34.375 0z" transform="translate(-.125 .625)" display="block" fill="url(#radialGradient15685)"/>
    <g id="g3215">
      <g id="g3152" transform="matrix(1.0063 0 0 1 .478 .5)">
        <path id="path15651" stroke-linejoin="round" style="color:#000000" d="m23 3c-7.401 5.5766-19 9-19 9 3 25.75 19.375 32 19.375 32s16.125-6.5 19.375-32.375-14-5.125-19.75-8.625z" display="block" stroke="#888a85" stroke-linecap="round" stroke-width=".99687" fill="url(#radialGradient3207)"/>
        <path id="path15665" stroke-linejoin="round" style="color:#000000" d="m23.024 4.2893c-6.936 5.2259-17.805 8.4337-17.805 8.4337 2.8109 24.131 18.117 29.988 18.117 29.988s15.15-6.091 18.195-30.339-13.119-4.8028-18.507-8.0827z" stroke="#fff" stroke-linecap="round" stroke-width=".99687" display="block" fill="none"/>
        <path id="path15667" d="m22.883 7v33s-12.318-5.259-16-26c5.25-0.875 16-7 16-7z" style="color:#000000" fill="url(#radialGradient3209)" display="block"/>
      </g>
      <g id="g3168" transform="translate(0,1)">
        <path id="path11482" style="color:#000000" d="m30.911 18.605a3.3335 3.3335 0 1 1 -6.667 0 3.3335 3.3335 0 1 1 6.667 0z" fill-rule="evenodd" transform="matrix(-4.0295e-17 -.51316 -.51316 4.0295e-17 33.547 35.401)" fill="#ef2929"/>
        <path id="path11488" style="color:#000000" d="m30.911 18.605a3.3335 3.3335 0 1 1 -6.667 0 3.3335 3.3335 0 1 1 6.667 0z" transform="matrix(-1.3928e-16 -1.7738 -1.7738 1.3928e-16 57 70.164)" stroke="url(#radialGradient3211)" stroke-miterlimit="10" stroke-width="1.5866" fill="none"/>
        <path id="path11490" style="color:#000000" d="m30.911 18.605a3.3335 3.3335 0 1 1 -6.667 0 3.3335 3.3335 0 1 1 6.667 0z" transform="matrix(-2.7231e-16 -3.4678 -3.4678 2.7231e-16 88.518 116.88)" stroke="url(#radialGradient3213)" stroke-miterlimit="10" stroke-width=".8115" fill="none"/>
      </g>
    </g>
  </g>
  <metadata>
    <rdf:RDF>
      <cc:Work>
        <dc:format>image/svg+xml</dc:format>
        <dc:type rdf:resource="http://purl.org/dc/dcmitype/StillImage"/>
        <cc:license rdf:resource="http://creativecommons.org/licenses/publicdomain/"/>
        <dc:publisher>
          <cc:Agent rdf:about="http://openclipart.org/">
            <dc:title>Openclipart</dc:title>
          </cc:Agent>
        </dc:publisher>
        <dc:title>tango network wireless encrypted</dc:title>
        <dc:date>2010-04-03T15:33:02</dc:date>
        <dc:description>An icon from Tango Project. Since version 0.8.90 Tango Project icons are Public Domain.</dc:description>
        <dc:source>http://openclipart.org/detail/36715/tango-network-wireless-encrypted-by-warszawianka</dc:source>
        <dc:creator>
          <cc:Agent>
            <dc:title>warszawianka</dc:title>
          </cc:Agent>
        </dc:creator>
        <dc:subject>
          <rdf:Bag>
            <rdf:li>clip art</rdf:li>
            <rdf:li>clipart</rdf:li>
            <rdf:li>externalsource</rdf:li>
            <rdf:li>icon</rdf:li>
            <rdf:li>network</rdf:li>
            <rdf:li>tango</rdf:li>
            <rdf:li>wireless</rdf:li>
          </rdf:Bag>
        </dc:subject>
      </cc:Work>
      <cc:License rdf:about="http://creativecommons.org/licenses/publicdomain/">
        <cc:permits rdf:resource="http://creativecommons.org/ns#Reproduction"/>
        <cc:permits rdf:resource="http://creativecommons.org/ns#Distribution"/>
        <cc:permits rdf:resource="http://creativecommons.org/ns#DerivativeWorks"/>
      </cc:License>
    </rdf:RDF>
  </metadata>
</svg>
