<?xml version="1.0"?>
<svg xmlns:rdf="http://www.w3.org/1999/02/22-rdf-syntax-ns#" xmlns="http://www.w3.org/2000/svg" xmlns:cc="http://creativecommons.org/ns#" xmlns:xlink="http://www.w3.org/1999/xlink" xmlns:dc="http://purl.org/dc/elements/1.1/" xmlns:svg="http://www.w3.org/2000/svg" id="svg11300" viewBox="0 0 48 48">
  <defs id="defs3">
    <radialGradient id="radialGradient6719" xlink:href="#linearGradient5060" gradientUnits="userSpaceOnUse" cy="486.65" cx="605.71" gradientTransform="matrix(-2.7744 0 0 1.9697 112.76 -872.89)" r="117.14"/>
    <linearGradient id="linearGradient5060">
      <stop id="stop5062" offset="0"/>
      <stop id="stop5064" stop-opacity="0" offset="1"/>
    </linearGradient>
    <radialGradient id="radialGradient6717" xlink:href="#linearGradient5060" gradientUnits="userSpaceOnUse" cy="486.65" cx="605.71" gradientTransform="matrix(2.7744 0 0 1.9697 -1891.6 -872.89)" r="117.14"/>
    <linearGradient id="linearGradient6715" x1="302.86" gradientUnits="userSpaceOnUse" y1="366.65" gradientTransform="matrix(2.7744 0 0 1.9697 -1892.2 -872.89)" x2="302.86" y2="609.51">
      <stop id="stop5050" stop-opacity="0" offset="0"/>
      <stop id="stop5056" offset=".5"/>
      <stop id="stop5052" stop-opacity="0" offset="1"/>
    </linearGradient>
    <linearGradient id="linearGradient11494">
      <stop id="stop11496" stop-color="#ef2929" offset="0"/>
      <stop id="stop11498" stop-color="#ef2929" stop-opacity="0" offset="1"/>
    </linearGradient>
    <radialGradient id="radialGradient1352" xlink:href="#linearGradient11494" gradientUnits="userSpaceOnUse" cy="16.049" cx="27.577" gradientTransform="matrix(1.2435 2.1068e-16 -2.1068e-16 1.2435 -6.7138 -3.7428)" r="3.8335"/>
    <radialGradient id="radialGradient1354" xlink:href="#linearGradient11494" gradientUnits="userSpaceOnUse" cy="15.048" cx="27.577" gradientTransform="matrix(1.2435 2.1068e-16 -2.1068e-16 1.2435 -6.7138 -3.7428)" r="3.8335"/>
    <radialGradient id="radialGradient1356" gradientUnits="userSpaceOnUse" cy="44.565" cx="30.204" gradientTransform="matrix(1 0 0 .33846 2.2204e-14 29.482)" r="6.566">
      <stop id="stop11510" offset="0"/>
      <stop id="stop11512" stop-opacity="0" offset="1"/>
    </radialGradient>
    <radialGradient id="radialGradient1366" gradientUnits="userSpaceOnUse" cy="35.878" cx="24.446" gradientTransform="matrix(1.9951 -1.6515e-32 0 1.9951 -24.325 -35.701)" r="20.531">
      <stop id="stop11522" stop-color="#fff" offset="0"/>
      <stop id="stop11524" stop-color="#dcdcdc" offset="1"/>
    </radialGradient>
  </defs>
  <g id="layer1">
    <g id="g6707" transform="matrix(.022434 0 0 .020868 44.311 40.868)">
      <rect id="rect6709" opacity=".40206" style="color:black" height="478.36" width="1339.6" y="-150.7" x="-1559.3" fill="url(#linearGradient6715)"/>
      <path id="path6711" opacity=".40206" style="color:black" fill="url(#radialGradient6717)" d="m-219.62-150.68v478.33c142.88 0.9 345.4-107.17 345.4-239.2 0-132.02-159.44-239.13-345.4-239.13z"/>
      <path id="path6713" opacity=".40206" style="color:black" fill="url(#radialGradient6719)" d="m-1559.3-150.68v478.33c-142.8 0.9-345.4-107.17-345.4-239.2 0-132.02 159.5-239.13 345.4-239.13z"/>
    </g>
    <rect id="rect11518" stroke-linejoin="bevel" style="color:#000000" fill-rule="evenodd" rx="5.4548" ry="5.4548" height="40.062" width="40.062" stroke="#9b9b9b" stroke-miterlimit="10" y="3.5233" x="4.4147" fill="url(#radialGradient1366)"/>
    <path id="path11486" style="color:#000000" d="m20.225 38.956l4.595-14.596 5.316 14.596" stroke="#000" stroke-miterlimit="10" fill="none"/>
    <path id="path11482" style="color:#000000" d="m30.911 18.605a3.3335 3.3335 0 1 1 -6.667 0 3.3335 3.3335 0 1 1 6.667 0z" fill-rule="evenodd" transform="matrix(.68922 0 0 .68922 5.7682 11.069)" fill="#ef2929"/>
    <path id="path11488" style="color:#000000" d="m30.911 18.605a3.3335 3.3335 0 1 1 -6.667 0 3.3335 3.3335 0 1 1 6.667 0z" transform="matrix(2.3823 0 0 2.3823 -40.922 -20.43)" stroke="url(#radialGradient1352)" stroke-miterlimit="10" stroke-width="1.1813" fill="none"/>
    <path id="path11490" style="color:#000000" d="m30.911 18.605a3.3335 3.3335 0 1 1 -6.667 0 3.3335 3.3335 0 1 1 6.667 0z" transform="matrix(4.6576 0 0 4.6576 -103.67 -62.761)" stroke="url(#radialGradient1354)" stroke-miterlimit="10" stroke-width=".60421" fill="none"/>
    <path id="path11506" opacity=".17647" style="color:#000000" d="m36.77 44.565a6.566 2.2223 0 1 1 -13.132 0 6.566 2.2223 0 1 1 13.132 0z" fill-rule="evenodd" transform="matrix(1.5677 0 0 1.5677 -22.257 -31.996)" fill="url(#radialGradient1356)"/>
    <path id="path11516" stroke-linejoin="bevel" style="color:#000000" d="m23.812 28.572l2.908 0.855-4.276 2.907 5.815 1.54-7.183 2.907 8.551 0.855" stroke="#000" stroke-miterlimit="10" fill="none"/>
    <rect id="rect11528" stroke-linejoin="bevel" style="color:#000000" rx="4.2426" ry="4.2426" height="37.697" width="37.697" stroke="#fff" stroke-miterlimit="10" y="4.706" x="5.5974" fill="none"/>
  </g>
  <metadata>
    <rdf:RDF>
      <cc:Work>
        <dc:format>image/svg+xml</dc:format>
        <dc:type rdf:resource="http://purl.org/dc/dcmitype/StillImage"/>
        <cc:license rdf:resource="http://creativecommons.org/licenses/publicdomain/"/>
        <dc:publisher>
          <cc:Agent rdf:about="http://openclipart.org/">
            <dc:title>Openclipart</dc:title>
          </cc:Agent>
        </dc:publisher>
        <dc:title>tango network wireless</dc:title>
        <dc:date>2010-03-28T12:17:14</dc:date>
        <dc:description>"Network wireless" icon from &lt;a href="http://tango.freedesktop.org/Tango_Desktop_Project"&gt; Tango Project &lt;/a&gt; &#xD;\n&lt;br&gt;&lt;br&gt;&#xD;\nSince version 0.8.90 Tango Project icons are Public Domain: &lt;a href="http://tango.freedesktop.org/Frequently_Asked_Questions#Terms_of_Use.3F"&gt; Tango Project FAQ &lt;/a&gt;</dc:description>
        <dc:source>http://openclipart.org/detail/34891/tango-network-wireless-by-warszawianka</dc:source>
        <dc:creator>
          <cc:Agent>
            <dc:title>warszawianka</dc:title>
          </cc:Agent>
        </dc:creator>
        <dc:subject>
          <rdf:Bag>
            <rdf:li>clip art</rdf:li>
            <rdf:li>clipart</rdf:li>
            <rdf:li>externalsource</rdf:li>
            <rdf:li>icon</rdf:li>
            <rdf:li>network</rdf:li>
            <rdf:li>tango</rdf:li>
            <rdf:li>wifi</rdf:li>
            <rdf:li>wireless</rdf:li>
          </rdf:Bag>
        </dc:subject>
      </cc:Work>
      <cc:License rdf:about="http://creativecommons.org/licenses/publicdomain/">
        <cc:permits rdf:resource="http://creativecommons.org/ns#Reproduction"/>
        <cc:permits rdf:resource="http://creativecommons.org/ns#Distribution"/>
        <cc:permits rdf:resource="http://creativecommons.org/ns#DerivativeWorks"/>
      </cc:License>
    </rdf:RDF>
  </metadata>
</svg>
