<?xml version="1.0"?>
<svg xmlns:rdf="http://www.w3.org/1999/02/22-rdf-syntax-ns#" xmlns="http://www.w3.org/2000/svg" xmlns:cc="http://creativecommons.org/ns#" xmlns:dc="http://purl.org/dc/elements/1.1/" xmlns:svg="http://www.w3.org/2000/svg" id="svg2" viewBox="0 0 233.88 203.63" version="1.1">
  <g id="layer1" transform="translate(-365.81 -409.44)">
    <path id="path2844" d="m486.47 409.44c-14.572-0.0189-25.502 15.403-18.625 28.938 1.9878 3.9122 4.805 7.0328 21.75 24.406l6.3438 6.5312 4.6562-0.625c4.5094-0.61464 14.945-5.1395 16.312-7.0625 1.0624-1.4934-0.99674-4.5171-7.875-11.656l-6.3438-6.5938 1.5625-3.75c1.8135-4.3404 1.2684-8.3341-1.5938-11.406-1.7779-1.9084-1.8811-2.5687-0.8125-6.8125 1.1778-4.6777 1.1947-4.6973-2.125-7.4688-1.8464-1.5414-5.7093-3.3162-8.625-3.9688-1.5698-0.3513-3.1176-0.52929-4.625-0.53125zm30.53 15.97c-0.68268 0.0532-1.4094 0.30585-2.4062 0.71875-4.8922 2.0264-5.875 3.6085-5.875 9.4688 0 2.9598-0.53476 6.5674-1.1875 8-1.0534 2.3119-0.89436 2.8354 1.3438 4.7812 4.4778 3.8922 9.8018 11.661 9.1562 13.344-0.67535 1.7599-13.729 8.3438-16.531 8.3438-1.6685 0-1.7732 2.0522-1.7812 33.25l-0.0312 33.25 9.7812 9.25 9.75 9.25 0.28125-18.5c0.2637-17.919 1.2874-23.375 2.5938-13.844 0.34975 2.5518 0.615 11.664 0.625 20.25l0.0312 15.594 9.2188 8.1875c5.0775 4.5026 9.5875 8.2151 10 8.25s0.75-26.938 0.75-59.938c0-67.518-0.73977-61.969 7.7812-57.844 5.2559 2.5443 5.2616 2.0464-0.6875 19.156-2.2562 6.4889-4.08 12.564-4.0625 13.5 0.0634 3.3957 4.736 7.1875 8.8438 7.1875 4.3932 0 6.7332-4.0684 13.094-22.812 7.7431-22.818 7.9089-22.002-5.7812-28.469-11.927-5.6337-20.413-9.4728-30.188-13.688-4.125-1.7787-8.9726-4.1537-10.781-5.25-1.7933-1.087-2.7997-1.5261-3.9375-1.4375zm-40.03 14.84c1.2194-0.13021 2.6702 0.45759 3 1.7188 0.92128 3.5229 6.6 6.2245 12.031 5.7188 2.6385-0.2457 5.381-0.93968 6.0938-1.5312 0.98873-0.82057 2.8903 0.58337 7.9688 5.8438 3.6612 3.7923 6.6562 7.2874 6.6562 7.7812 0 0.49388-1.9908 1.8578-4.4062 3.0312-2.4154 1.1735-5.9113 2.4304-7.7812 2.7812-3.2941 0.61799-3.7264 0.2635-14.344-10.906-6.0271-6.3407-10.969-12.101-10.969-12.812 0-0.97532 0.80155-1.5237 1.75-1.625zm-63.594 6.5c-0.97655-0.0194-1.8307 0.24256-2.7188 0.6875-3.2692 1.638-5.1482 6.6092-3.625 9.625 1.0871 2.1523 22.243 15.768 35.688 22.969 3.025 1.6203 6.85 3.8349 8.5 4.9375 3.5804 2.3926 8.3775 2.3061 9.9062-0.1875 1.2695-2.0708-0.26137-3.6167-15-15.188-4.8949-3.8428-13.149-10.32-18.312-14.375-7.6846-6.0346-11.508-8.4106-14.438-8.4688zm68.125 14.938c-0.0556-0.002-0.11789 0.0145-0.15625 0.0312-0.61377 0.26852-3.375 3.4348-6.125 7.0312s-7.3625 9.4713-10.25 13.031c-2.8875 3.56-5.25 7.1307-5.25 7.9375 0 2.115 2.7273 7.0874 4.2188 7.6875 2.4405 0.98192 7.4047 0.64644 8.9375-0.59375 0.84969-0.6875 4.6124-5.3 8.3438-10.25 3.7313-4.95 7.934-10.229 9.3438-11.75l2.5625-2.75-5.3438-5.4062c-2.751-2.7856-5.4473-4.9336-6.2812-4.9688zm-70.938 19.031c-0.0509-0.005-0.0617 0.0114-0.0937 0.0312-0.55058 0.34027-0.66768 4.2227-0.25 9.5l0.71875 8.9375-11.656-0.5625c-7.7533-0.36689-11.478-0.20392-11.062 0.46875 1.5294 2.4747 16.883 13.969 18.656 13.969 1.0835 0 5.3291-2.025 9.4062-4.5 4.0772-2.475 7.6075-4.5 7.875-4.5 0.26746 0 2.0959 2.5194 4.0625 5.5938 1.9891 3.1095 4.1109 5.3962 4.7812 5.125 8.4287-3.4101 20.719-9.2182 20.719-9.7812 0-0.39799-3.6-1.048-8-1.4375l-8-0.6875-0.0625-9.1562c-0.0387-5.0303-0.40782-9.9701-0.8125-11-0.87085-2.2163-1.3448-1.8619-7.625 6.1562-2.2 2.8088-4.5326 5.1342-5.1875 5.1562-0.65492 0.0221-3.7895-3.0797-6.9375-6.9062-2.9512-3.5874-5.7681-6.3379-6.5312-6.4062zm12.156 27.75c-1.5781-0.10632-4.7671 1.7078-17.312 9.2188-2.8596 1.7121-10.335 6.1034-16.625 9.75-6.2902 3.6466-11.811 7.1836-12.25 7.875-0.43892 0.69136-0.8045 2.6899-0.8125 4.4375-0.0172 3.5766 3.7642 7.3205 7.375 7.3125 2.3763-0.005 11.784-4.6375 22-10.844 3.622-2.1544 7.3456-4.2761 11.125-6 1.6823-0.43994 2.5672 0.50303 7.0312 7.2812 6.6622 10.116 8.7713 14.969 8 18.438-0.32365 1.4555-4.2925 6.5292-8.8125 11.281-4.52 4.7521-11.126 11.799-14.656 15.656-5.9981 6.5534-8.0231 7.6274-10.062 5.2812-0.275-0.31636-3.65-3.1216-7.5-6.2188-13.092-10.532-17.032-11.866-21.844-7.4062-3.0588 2.8348-3.4182 6.465-0.90625 9.3125 0.9625 1.091 5.125 4.5815 9.25 7.7812s10.2 8.1423 13.5 10.969c7.5258 6.4459 10.53 8.496 12.469 8.4688 0.84012-0.0118 5.7513-4.7368 10.906-10.5 5.155-5.7632 9.7861-10.5 10.281-10.5 0.824 0 13.201 7.088 19.656 11.25 1.4835 0.95644 3.3625 2.063 4.1875 2.4375 0.825 0.37447 3.9277 2.2108 6.9062 4.0938s6.3535 3.7863 7.5 4.25c1.1465 0.46374 31.372 0.87135 67.156 0.90625l65.062 0.0625 2.6875-2.7812c1.876-1.9582 2.6784-3.8446 2.6562-6.25-0.0354-3.8382-1.1823-5.6572-5.1875-8.2188-2.4797-1.5859-6.8309-1.75-50.25-1.75-26.144 0-47.531-0.22378-47.531-0.53125 0-1.5566 8.3112-17.469 9.125-17.469 0.52059 0 4.3524 3.375 8.5312 7.5l7.5938 7.5h27.907l-2.0312-2.5625c-1.1105-1.4118-10.244-10.299-20.312-19.75-25.97-24.378-26.877-25.188-28.125-25.188-0.61766 0-4.8088 7.2-9.3125 16-5.6293 11-8.6562 15.937-9.6875 15.75-1.561-0.28383-19.445-10.948-22.219-13.25-0.872-0.7237-3.4099-4.5114-5.6562-8.4062-2.2464-3.8949-7.0831-11.567-10.719-17.062-3.6356-5.4958-8.8677-13.782-11.625-18.406-2.7573-4.6238-5.6848-8.8411-6.5312-9.375-0.28901-0.1823-0.57333-0.31921-0.9375-0.34375zm-13.031 31.688c-7.4444 0-13.5 6.0244-13.5 13.469 0 7.4444 6.0556 13.469 13.5 13.469s13.469-6.0244 13.469-13.469c0-7.4444-6.0244-13.469-13.469-13.469z"/>
  </g>
  <metadata>
    <rdf:RDF>
      <cc:Work>
        <dc:format>image/svg+xml</dc:format>
        <dc:type rdf:resource="http://purl.org/dc/dcmitype/StillImage"/>
        <cc:license rdf:resource="http://creativecommons.org/licenses/publicdomain/"/>
        <dc:publisher>
          <cc:Agent rdf:about="http://openclipart.org/">
            <dc:title>Openclipart</dc:title>
          </cc:Agent>
        </dc:publisher>
        <dc:title>police brutality</dc:title>
        <dc:date>2010-12-31T16:41:24</dc:date>
        <dc:description>brutality, capitalism, clip art, clipart, demo, demonstration, man, people, police, silhouette, violence, </dc:description>
        <dc:source>http://openclipart.org/detail/102775/police-brutality-by-worker</dc:source>
        <dc:creator>
          <cc:Agent>
            <dc:title>worker</dc:title>
          </cc:Agent>
        </dc:creator>
        <dc:subject>
          <rdf:Bag>
            <rdf:li>brutality</rdf:li>
            <rdf:li>capitalism</rdf:li>
            <rdf:li>clip art</rdf:li>
            <rdf:li>clipart</rdf:li>
            <rdf:li>demo</rdf:li>
            <rdf:li>demonstration</rdf:li>
            <rdf:li>man</rdf:li>
            <rdf:li>people</rdf:li>
            <rdf:li>police</rdf:li>
            <rdf:li>silhouette</rdf:li>
            <rdf:li>violence</rdf:li>
          </rdf:Bag>
        </dc:subject>
      </cc:Work>
      <cc:License rdf:about="http://creativecommons.org/licenses/publicdomain/">
        <cc:permits rdf:resource="http://creativecommons.org/ns#Reproduction"/>
        <cc:permits rdf:resource="http://creativecommons.org/ns#Distribution"/>
        <cc:permits rdf:resource="http://creativecommons.org/ns#DerivativeWorks"/>
      </cc:License>
    </rdf:RDF>
  </metadata>
</svg>
