<?xml version="1.0"?>
<svg xmlns:rdf="http://www.w3.org/1999/02/22-rdf-syntax-ns#" xmlns="http://www.w3.org/2000/svg" xmlns:cc="http://creativecommons.org/ns#" xmlns:xlink="http://www.w3.org/1999/xlink" xmlns:dc="http://purl.org/dc/elements/1.1/" xmlns:svg="http://www.w3.org/2000/svg" id="svg11300" viewBox="0 0 48 48">
  <defs id="defs3">
    <linearGradient id="linearGradient12780">
      <stop id="stop12782" offset="0"/>
      <stop id="stop12784" stop-opacity="0" offset="1"/>
    </linearGradient>
    <radialGradient id="radialGradient22918" gradientUnits="userSpaceOnUse" cy="32.343" cx="24.345" gradientTransform="matrix(1 0 0 .61947 -1.4695e-14 12.307)" r="22.829">
      <stop id="stop11609" offset="0"/>
      <stop id="stop11611" stop-opacity="0" offset="1"/>
    </radialGradient>
    <linearGradient id="linearGradient22920" x1="24.441" gradientUnits="userSpaceOnUse" y1="-6.8801" gradientTransform="matrix(.84053 0 0 1 27.132 17.125)" x2="25.278" y2="-21.403">
      <stop id="stop12272" stop-color="#acacac" offset="0"/>
      <stop id="stop12274" stop-color="#8d8d8d" stop-opacity="0" offset="1"/>
    </linearGradient>
    <radialGradient id="radialGradient22922" gradientUnits="userSpaceOnUse" cy="14.245" cx="20.589" gradientTransform="matrix(1.8664 -5.505e-25 1.6381e-24 2.3051 5.9698 -1.888)" r="13.262">
      <stop id="stop11599" stop-color="#fff" offset="0"/>
      <stop id="stop11643" stop-color="#d9d9d9" offset=".37333"/>
      <stop id="stop11964" stop-color="#c5c5c5" offset=".60311"/>
      <stop id="stop11601" stop-color="#909090" offset="1"/>
    </radialGradient>
    <linearGradient id="linearGradient22924" y2="7.1877" gradientUnits="userSpaceOnUse" y1="12.83" x2="23.991" x1="23.991">
      <stop id="stop11952" stop-color="#fff" offset="0"/>
      <stop id="stop11954" stop-color="#a9a9a9" offset="1"/>
    </linearGradient>
    <linearGradient id="linearGradient22926" x1="10.807" gradientUnits="userSpaceOnUse" y1="2.4829" gradientTransform="matrix(.75296 0 0 .97622 29.257 18.756)" x2="16.002" y2="56.4">
      <stop id="stop11637" stop-color="#fff" offset="0"/>
      <stop id="stop11639" stop-color="#fff" stop-opacity="0" offset="1"/>
    </linearGradient>
    <linearGradient id="linearGradient22928" y2="15.069" gradientUnits="userSpaceOnUse" y1="6.5837" x2="23.991" x1="23.991">
      <stop id="stop11623" stop-color="#b1b1b1" offset="0"/>
      <stop id="stop11629" stop-color="#dfdfdf" offset=".2"/>
      <stop id="stop11625" stop-color="#565656" offset="1"/>
    </linearGradient>
    <linearGradient id="linearGradient22953" y2=".4375" gradientUnits="userSpaceOnUse" y1="3.4375" x2="25.5" x1="16.25">
      <stop id="stop12751" stop-color="#adadad" offset="0"/>
      <stop id="stop12753" stop-color="#adadad" stop-opacity="0" offset="1"/>
    </linearGradient>
    <radialGradient id="radialGradient22955" gradientUnits="userSpaceOnUse" cy="8.5408" cx="12.812" gradientTransform="matrix(2.8573 3.5578e-16 -2.9651e-16 2.3813 -23.796 -4.4482)" r="19.971">
      <stop id="stop11836" stop-color="#e6e5e1" offset="0"/>
      <stop id="stop11838" stop-color="#d2d0c9" offset="1"/>
    </radialGradient>
    <radialGradient id="radialGradient22957" xlink:href="#linearGradient12780" gradientUnits="userSpaceOnUse" cy="27.25" cx="31.438" gradientTransform="matrix(1 0 0 .10853 0 24.293)" r="8.0625"/>
    <linearGradient id="linearGradient22959" x1="17.644" gradientUnits="userSpaceOnUse" y1="13.677" gradientTransform="matrix(.98913 0 0 .98906 .26446 5.2482)" x2="58.262" y2="69.427">
      <stop id="stop11846" stop-color="#fff" offset="0"/>
      <stop id="stop11848" stop-color="#fff" stop-opacity="0" offset="1"/>
    </linearGradient>
    <linearGradient id="linearGradient22961" x1="97.502" gradientUnits="userSpaceOnUse" y1="20.08" gradientTransform="translate(-67 -4.534)" x2="100.6" y2="23.08">
      <stop id="stop12765" stop-color="#fbfbfa" offset="0"/>
      <stop id="stop12767" stop-color="#bba" offset="1"/>
    </linearGradient>
    <radialGradient id="radialGradient22963" xlink:href="#linearGradient12780" gradientUnits="userSpaceOnUse" cy="27.25" cx="31.438" gradientTransform="matrix(1 0 0 .10853 -1.8759e-14 24.293)" r="8.0625"/>
    <radialGradient id="radialGradient22965" gradientUnits="userSpaceOnUse" cy="15.385" cx="24.02" gradientTransform="matrix(1 0 0 2.1714 5.8087e-15 -18.022)" r=".7734">
      <stop id="stop12796" stop-color="#fce94f" offset="0"/>
      <stop id="stop12798" stop-color="#fce94f" stop-opacity="0" offset="1"/>
    </radialGradient>
    <radialGradient id="radialGradient22967" gradientUnits="userSpaceOnUse" cy="15.385" cx="24.02" gradientTransform="matrix(1 0 0 2.1714 -3.3016e-15 -18.022)" r=".7734">
      <stop id="stop12806" stop-color="#fff" offset="0"/>
      <stop id="stop12808" stop-color="#fff" stop-opacity="0" offset="1"/>
    </radialGradient>
  </defs>
  <g id="layer1">
    <g id="g22930" transform="matrix(.81647 0 0 .81647 10.524 .19702)">
      <path id="path12747" style="color:#000000" d="m11.125 13.75c0.375-8.375 1.437-10.75 5.375-10.75 4.062 0 6.75-1 12-3.625" stroke="url(#linearGradient22953)" stroke-width="2.4496" fill="none"/>
      <rect id="rect11872" style="color:#000000" fill-rule="evenodd" rx="1.6841" ry="1.6841" height="4.125" width="4.4637" stroke="#707070" y="9.375" x="9.0806" stroke-width="1.2248" fill="#dddbd6"/>
      <path id="path11870" stroke-linejoin="round" opacity=".056818" style="color:#000000" d="m7.858 13.121c-0.7343 0.015-1.1252 0.646-1.2189 1.38l-1.923 28.253c12.875 4.25 30.068 2.75 38.943 0l-2.481-27.873c-0.094-0.812-0.563-1.745-1.532-1.76h-31.788z" fill-rule="evenodd" stroke="#000" stroke-width="1.2248"/>
      <path id="path9195" stroke-linejoin="round" style="color:#000000" d="m7.983 11.496c-0.7343 0.015-1.1252 0.646-1.2189 1.38l-1.923 28.253c12.875 4.25 30.068 2.75 38.943 0l-2.481-27.873c-0.094-0.812-0.563-1.745-1.532-1.76h-31.788z" fill-rule="evenodd" stroke="#707070" stroke-width="1.2248" fill="url(#radialGradient22955)"/>
      <rect id="rect10070" opacity=".26705" style="color:#000000" height="12.951" width="18.689" stroke="#707070" y="20.493" x="14.531" stroke-width="1.2248" fill="none"/>
      <rect id="rect10945" opacity=".26705" style="color:#000000" height="12.951" width="18.689" stroke="#fff" y="21.493" x="15.499" stroke-width="1.2248" fill="none"/>
      <g id="g11828" opacity=".15909" transform="matrix(1 0 0 .66667 0 9.6667)" fill-rule="evenodd">
        <rect id="rect10947" opacity="1" style="color:#000000" height="3" width="4" y="11" x="14"/>
        <rect id="rect11822" opacity="1" style="color:#000000" height="3" width="4" y="11" x="19"/>
        <rect id="rect11824" opacity="1" style="color:#000000" height="3" width="4" y="11" x="24.031"/>
        <rect id="rect11826" opacity="1" style="color:#000000" height="3" width="4" y="11" x="29"/>
      </g>
      <path id="path12778" opacity=".15909" style="color:#000000" d="m39.5 27.25a8.0625 0.875 0 1 1 -16.125 0 8.0625 0.875 0 1 1 16.125 0z" fill-rule="evenodd" transform="matrix(1 0 0 1.7857 -2.625 -22.507)" fill="url(#radialGradient22957)"/>
      <path id="path11842" opacity=".60795" style="color:#000000" d="m8.3554 12.644c-0.4637-0.017-0.3929 0.644-0.4797 1.324l-1.7809 26.303c11.923 3.936 28.247 2.5 36.466-0.046l-2.39-26.059c-0.087-0.752 0.066-1.508-0.831-1.522h-30.985z" stroke="url(#linearGradient22959)" stroke-width="1.2248" fill="none"/>
      <rect id="rect12761" style="color:#000000" fill-rule="evenodd" rx=".45929" transform="rotate(-43.095)" ry=".45929" height=".75" width="2.2813" stroke="#adadad" y="33.924" x="-1.7555" stroke-width=".24496" fill="#dedede"/>
      <path id="rect12819" style="color:#000000" d="m31.344 13.656c-0.15 0.028-0.326 0.107-0.469 0.188-0.133 0.078-0.262 0.19-0.375 0.312l-4.5 4.844c-0.162 0.175-0.306 0.392-0.375 0.594-0.068 0.212-0.068 0.457-0.031 0.656 0.014 0.066 0.914 1.102 1.125 1.125 0.173 0.015 0.384 0.001 0.562-0.063 0.109-0.041 0.242-0.118 0.344-0.187 0.092-0.065 0.2-0.163 0.281-0.25l4.5-4.844c0.13-0.139 0.242-0.309 0.313-0.469 0.095-0.229 0.123-0.497 0.093-0.718-0.012-0.077-0.783-1.165-1.021-1.144-0.03 0.004-0.417-0.049-0.447-0.044z" fill-rule="evenodd" stroke="#888" stroke-width="1.2248" fill="#b3b3af"/>
      <path id="path12757" style="color:#000000" d="m42.375 2.341c0.875-0.875 2.375 0.5 1.625 1.625 0 0-4.219 6.562-8.625 11.625-4.406 5.062-9 8.531-9 8.531-0.687 0.594-2.813 1.406-2.813 1.406s-0.56-0.635-0.56-0.635 0.904-2.021 1.498-2.646l2-2.281 15.875-17.625z" fill-rule="evenodd" stroke="#888" stroke-width="1.2248" fill="url(#linearGradient22961)"/>
      <rect id="rect12759" style="color:#000000" fill-rule="evenodd" rx="1.6841" transform="matrix(.6799 -.73330 .73330 .6799 0 0)" ry="1.6841" width="9.375" y="32.412" x="2.2769" height="2.25" fill="#b3b3af"/>
      <path id="path12788" opacity=".15909" style="color:#000000" d="m39.5 27.25a8.0625 0.875 0 1 1 -16.125 0 8.0625 0.875 0 1 1 16.125 0z" fill-rule="evenodd" transform="matrix(1.5271 0 0 6.7935 -13.197 -158.97)" fill="url(#radialGradient22963)"/>
      <path id="path12792" opacity=".6875" style="color:#000000" d="m24.793 15.385a0.7734 1.6794 0 1 1 -1.547 0 0.7734 1.6794 0 1 1 1.547 0z" fill-rule="evenodd" transform="matrix(1.2496 0 0 1.2496 -6.5704 -4.1056)" fill="url(#radialGradient22965)"/>
      <path id="path12802" opacity=".6875" style="color:#000000" d="m24.793 15.385a0.7734 1.6794 0 1 1 -1.547 0 0.7734 1.6794 0 1 1 1.547 0z" fill-rule="evenodd" transform="matrix(.62106 0 0 .62106 8.5276 5.5648)" fill="url(#radialGradient22967)"/>
      <rect id="rect12817" style="color:#000000" fill-rule="evenodd" rx="1.6841" ry="1.6841" transform="matrix(.6799 -.73330 .73330 .6799 0 0)" width="9.375" y="31.977" x="2.3559" height="2.25" fill="#bfbfbb"/>
    </g>
    <g id="g22906" transform="matrix(.68718 0 0 .65535 -20.519 5.3675)">
      <path id="path11605" style="color:#000000" d="m47.174 32.343a22.829 14.142 0 1 1 -45.659 0 22.829 14.142 0 1 1 45.659 0z" fill-rule="evenodd" transform="matrix(.68419 0 0 1.2411 30.938 7.934)" fill="url(#radialGradient22918)"/>
      <path id="path12260" d="m46.885 27.625c1.723-8.733-5.798-10.139 1.893-20.584 7.638-10.372-7.615-13.772-7.615-13.772" stroke="url(#linearGradient22920)" stroke-width="1.4901" fill="none"/>
      <path id="path11595" d="m32.901 44.256c-2.456 10.907 4.701 18.411 15.448 18.411 10.63 0 15.915-8.691 13.726-18.411l-3.49-13.014c-0.407-1.823-1.277-2.406-1.861-2.605-5.723-2.569-13.786-2.693-18.821 0-0.64 0.348-1.105 0.348-1.57 2.084l-3.432 13.535z" fill-rule="evenodd" stroke="#4f4f4f" stroke-width="1.4901" fill="url(#radialGradient22922)"/>
      <g id="g11960" transform="matrix(.84053 0 0 1 27.132 18.125)" fill-rule="evenodd">
        <path id="path11948" d="m8.5737 22.948c8.2323-5.303 21.281-5.909 29.951-0.606-7.693-3.877-20.706-4.344-29.951 0.606z" fill="#fff" fill-opacity=".79661"/>
        <path id="path11615" fill-opacity=".25989" d="m8.7504 22.727c8.6296-6.231 21.281-6.307 29.686-0.473-7.78-4.673-20.75-4.963-29.686 0.473z"/>
      </g>
      <path id="path11617" style="color:#000000" d="m26.163 11.331a2.1718 4.7477 0 1 1 -4.344 0 2.1718 4.7477 0 1 1 4.344 0z" fill-rule="evenodd" transform="matrix(1.6663 0 0 1.4178 7.2551 17.473)" fill="url(#linearGradient22924)"/>
      <path id="path11633" stroke="url(#linearGradient22926)" stroke-width="1.4901" fill="none" d="m33.784 46.001c-1.374 8.259 4.528 15.294 14.614 15.294 10.087 0 13.947-8.491 12.801-15.294l-3.636-13.626c-0.302-2.144-1.191-2.35-1.717-2.557-5.712-2.241-12.371-2.426-17.024 0-0.583 0.304-1.067 0.188-1.421 1.735l-3.617 14.448z"/>
      <path id="path11619" style="color:#000000" d="m26.163 11.331a2.1718 4.7477 0 1 1 -4.344 0 2.1718 4.7477 0 1 1 4.344 0z" fill-rule="evenodd" transform="matrix(.84053 0 0 1 27.047 19.868)" stroke="#595959" stroke-width=".81268" fill="url(#linearGradient22928)"/>
      <path id="path11631" style="color:#000000" d="m26.163 11.331a2.1718 4.7477 0 1 1 -4.344 0 2.1718 4.7477 0 1 1 4.344 0z" fill-opacity=".33333" fill-rule="evenodd" transform="matrix(.23456 0 0 .54255 40.948 23.485)" fill="#fff"/>
    </g>
  </g>
  <metadata>
    <rdf:RDF>
      <cc:Work>
        <dc:format>image/svg+xml</dc:format>
        <dc:type rdf:resource="http://purl.org/dc/dcmitype/StillImage"/>
        <cc:license rdf:resource="http://creativecommons.org/licenses/publicdomain/"/>
        <dc:publisher>
          <cc:Agent rdf:about="http://openclipart.org/">
            <dc:title>Openclipart</dc:title>
          </cc:Agent>
        </dc:publisher>
        <dc:title>tango desktop peripherals</dc:title>
        <dc:date>2010-03-29T09:06:37</dc:date>
        <dc:description>"Desktop peripherals" icon from &lt;a href="http://tango.freedesktop.org/Tango_Desktop_Project"&gt; Tango Project &lt;/a&gt; &#xD;\n&lt;br&gt;&lt;br&gt;&#xD;\nSince version 0.8.90 Tango Project icons are Public Domain: &lt;a href="http://tango.freedesktop.org/Frequently_Asked_Questions#Terms_of_Use.3F"&gt; Tango Project FAQ &lt;/a&gt;</dc:description>
        <dc:source>http://openclipart.org/detail/35425/tango-desktop-peripherals-by-warszawianka</dc:source>
        <dc:creator>
          <cc:Agent>
            <dc:title>warszawianka</dc:title>
          </cc:Agent>
        </dc:creator>
        <dc:subject>
          <rdf:Bag>
            <rdf:li>clip art</rdf:li>
            <rdf:li>clipart</rdf:li>
            <rdf:li>device</rdf:li>
            <rdf:li>externalsource</rdf:li>
            <rdf:li>hardware</rdf:li>
            <rdf:li>icon</rdf:li>
            <rdf:li>input</rdf:li>
            <rdf:li>mouse</rdf:li>
            <rdf:li>tablet</rdf:li>
            <rdf:li>tango</rdf:li>
          </rdf:Bag>
        </dc:subject>
      </cc:Work>
      <cc:License rdf:about="http://creativecommons.org/licenses/publicdomain/">
        <cc:permits rdf:resource="http://creativecommons.org/ns#Reproduction"/>
        <cc:permits rdf:resource="http://creativecommons.org/ns#Distribution"/>
        <cc:permits rdf:resource="http://creativecommons.org/ns#DerivativeWorks"/>
      </cc:License>
    </rdf:RDF>
  </metadata>
</svg>
