<?xml version="1.0"?>
<svg xmlns:rdf="http://www.w3.org/1999/02/22-rdf-syntax-ns#" xmlns="http://www.w3.org/2000/svg" xmlns:cc="http://creativecommons.org/ns#" xmlns:xlink="http://www.w3.org/1999/xlink" xmlns:dc="http://purl.org/dc/elements/1.1/" xmlns:svg="http://www.w3.org/2000/svg" id="svg3440" viewBox="0 0 48 48">
  <defs id="defs3">
    <radialGradient id="radialGradient6719" xlink:href="#linearGradient5060" gradientUnits="userSpaceOnUse" cy="486.65" cx="605.71" gradientTransform="matrix(-2.7744 0 0 1.9697 112.76 -872.89)" r="117.14"/>
    <linearGradient id="linearGradient5060">
      <stop id="stop5062" offset="0"/>
      <stop id="stop5064" stop-opacity="0" offset="1"/>
    </linearGradient>
    <radialGradient id="radialGradient6717" xlink:href="#linearGradient5060" gradientUnits="userSpaceOnUse" cy="486.65" cx="605.71" gradientTransform="matrix(2.7744 0 0 1.9697 -1891.6 -872.89)" r="117.14"/>
    <linearGradient id="linearGradient6715" x1="302.86" gradientUnits="userSpaceOnUse" y1="366.65" gradientTransform="matrix(2.7744 0 0 1.9697 -1892.2 -872.89)" x2="302.86" y2="609.51">
      <stop id="stop5050" stop-opacity="0" offset="0"/>
      <stop id="stop5056" offset=".5"/>
      <stop id="stop5052" stop-opacity="0" offset="1"/>
    </linearGradient>
    <linearGradient id="linearGradient2733" x1="34.301" gradientUnits="userSpaceOnUse" x2="35.521" y1="3.9384" y2="3.8451">
      <stop id="stop2713" stop-color="#909090" offset="0"/>
      <stop id="stop2715" stop-color="#bebebe" stop-opacity="0" offset="1"/>
    </linearGradient>
    <linearGradient id="linearGradient2673" x1="11.492" gradientUnits="userSpaceOnUse" x2="17.199" gradientTransform="matrix(1.1877 0 0 .84516 5.791 2.9011)" y1="1.6538" y2="26.729">
      <stop id="stop2669" stop-color="#fff" offset="0"/>
      <stop id="stop2671" stop-color="#fcfcff" stop-opacity="0" offset="1"/>
    </linearGradient>
    <linearGradient id="linearGradient2421" x1="17.698" gradientUnits="userSpaceOnUse" y1="13.005" gradientTransform="matrix(1.1118 0 0 .88712 5.7625 4.1042)" x2="34.975" y2="55.201">
      <stop id="stop2417" stop-color="#fff" offset="0"/>
      <stop id="stop2419" stop-color="#fff" stop-opacity="0" offset="1"/>
    </linearGradient>
    <linearGradient id="linearGradient2689" x1="3.707" gradientUnits="userSpaceOnUse" x2="3.707" gradientTransform="matrix(5.7052 0 0 .33080 5.5 -24.11)" y1="171.29" y2="162.45">
      <stop id="stop2685" offset="0"/>
      <stop id="stop2687" stop-opacity="0" offset="1"/>
    </linearGradient>
    <linearGradient id="linearGradient1561" x1="10.391" gradientUnits="userSpaceOnUse" x2="32.537" gradientTransform="matrix(1.1127 0 0 .90947 4.5635 2.8547)" y1="5.3818" y2="31.246">
      <stop id="stop2255" stop-color="#8f8f8f" offset="0"/>
      <stop id="stop2257" stop-color="#494949" offset="1"/>
    </linearGradient>
    <linearGradient id="linearGradient2251" x1="8.6116" gradientUnits="userSpaceOnUse" y1="7.2294" gradientTransform="matrix(1.1383 0 0 .88898 2.9263 1.5445)" x2="34.784" y2="33.34">
      <stop id="stop2247" stop-color="#dde1d9" offset="0"/>
      <stop id="stop2249" stop-color="#cacdc6" offset="1"/>
    </linearGradient>
    <radialGradient id="radialGradient3968" gradientUnits="userSpaceOnUse" cy="15.716" cx="18.248" gradientTransform="matrix(1.0089 0 0 1.0089 -.21835 -.20873)" r="29.993">
      <stop id="stop3964" stop-color="#d3e9ff" offset="0"/>
      <stop id="stop4134" stop-color="#d3e9ff" offset=".15517"/>
      <stop id="stop4346" stop-color="#4074ae" offset=".75"/>
      <stop id="stop3966" stop-color="#36486c" offset="1"/>
    </radialGradient>
    <radialGradient id="radialGradient4120" xlink:href="#linearGradient5060" gradientUnits="userSpaceOnUse" cy="63.965" cx="15.116" gradientTransform="scale(1.644 .60828)" r="12.289"/>
    <radialGradient id="radialGradient4132" gradientUnits="userSpaceOnUse" cy="12.142" cx="15.601" gradientTransform="scale(.99999 1)" r="43.527">
      <stop id="stop4128" stop-color="#fff" offset="0"/>
      <stop id="stop4130" stop-color="#fff" stop-opacity=".16495" offset="1"/>
    </radialGradient>
    <radialGradient id="radialGradient4356" gradientUnits="userSpaceOnUse" cy="10.476" cx="11.827" gradientTransform="scale(1.1795 .84779)" r="32.665">
      <stop id="stop4352" stop-color="#fff" offset="0"/>
      <stop id="stop4354" stop-color="#fff" stop-opacity="0" offset="1"/>
    </radialGradient>
    <radialGradient id="radialGradient4756" fx="18.934" fy="17.81" gradientUnits="userSpaceOnUse" cy="17.486" cx="18.634" gradientTransform="scale(1.0368 .96449)" r="40.693">
      <stop id="stop4752" stop-color="#fff" offset="0"/>
      <stop id="stop4758" stop-color="#fefefe" offset=".37931"/>
      <stop id="stop4754" stop-color="#1d1d1d" offset="1"/>
    </radialGradient>
  </defs>
  <g id="layer1">
    <path id="path4112" opacity=".47778" transform="matrix(1 0 0 1.2432 0 -10.272)" fill="url(#radialGradient4120)" d="m45.053 38.909a20.203 7.4751 0 1 1 -40.406 0 20.203 7.4751 0 1 1 40.406 0z"/>
    <g id="g6707" transform="matrix(.02015 0 0 .020868 36.749 41.381)">
      <rect id="rect6709" opacity=".40206" style="color:black" height="478.36" width="1339.6" y="-150.7" x="-1559.3" fill="url(#linearGradient6715)"/>
      <path id="path6711" opacity=".40206" style="color:black" fill="url(#radialGradient6717)" d="m-219.62-150.68v478.33c142.88 0.9 345.4-107.17 345.4-239.2 0-132.02-159.44-239.13-345.4-239.13z"/>
      <path id="path6713" opacity=".40206" style="color:black" fill="url(#radialGradient6719)" d="m-1559.3-150.68v478.33c-142.8 0.9-345.4-107.17-345.4-239.2 0-132.02 159.5-239.13 345.4-239.13z"/>
    </g>
    <path id="path3214" stroke="#39396c" fill="url(#radialGradient3968)" d="m44.132 23.485c0 10.805-8.759 19.565-19.562 19.565-10.805 0-19.564-8.76-19.564-19.565 0.0003-10.804 8.759-19.562 19.564-19.562 10.803-0.0002 19.562 8.758 19.562 19.562z"/>
    <path id="path4348" opacity=".42159" transform="matrix(.83594 0 0 1 9.8869 0)" fill="url(#radialGradient4356)" d="m30.709 15.271a12.93 9.2934 0 1 1 -25.86 0 12.93 9.2934 0 1 1 25.86 0z"/>
    <g id="g4136" transform="matrix(.98237 0 0 .98237 .12108 .23291)" fill-opacity=".71345">
      <g id="g4138">
        <g id="g4142">
          <path id="path4144" d="m44.071 20.714l-0.545 0.618c-0.334-0.394-0.709-0.725-1.089-1.071l-0.836 0.123-0.764-0.863v1.068l0.654 0.495 0.436 0.494 0.582-0.658c0.146 0.274 0.291 0.548 0.436 0.823v0.822l-0.655 0.74-1.199 0.823-0.908 0.907-0.582-0.661 0.291-0.74-0.582-0.658-0.981-2.098-0.836-0.945-0.219 0.246 0.328 1.194 0.618 0.699c0.352 1.017 0.701 1.99 1.164 2.963 0.718 0 1.394-0.077 2.107-0.166v0.576l-0.872 2.139-0.8 0.904-0.654 1.401v2.303l0.219 0.906-0.364 0.41-0.8 0.494-0.836 0.699 0.691 0.782-0.945 0.824 0.182 0.533-1.418 1.606h-0.945l-0.8 0.494h-0.509v-0.659l-0.217-1.318c-0.281-0.826-0.574-1.647-0.872-2.467 0-0.605 0.036-1.205 0.072-1.81l0.364-0.823-0.509-0.988 0.037-1.357-0.692-0.782 0.346-1.13-0.563-0.639h-0.982l-0.327-0.37-0.981 0.618-0.4-0.454-0.909 0.782c-0.617-0.7-1.235-1.399-1.854-2.098l-0.726-1.729 0.654-0.986-0.363-0.411 0.799-1.894c0.656-0.816 1.341-1.599 2.035-2.385l1.236-0.329 1.381-0.165 0.945 0.248 1.345 1.356 0.473-0.534 0.653-0.082 1.236 0.411h0.946l0.654-0.576 0.291-0.411-0.655-0.412-1.091-0.082c-0.303-0.419-0.584-0.861-0.944-1.234l-0.364 0.164-0.145 1.07-0.655-0.74-0.144-0.824-0.727-0.574h-0.292l0.728 0.822-0.291 0.74-0.581 0.164 0.363-0.74-0.655-0.328-0.581-0.658-1.091 0.246-0.145 0.328-0.654 0.412-0.363 0.906-0.909 0.452-0.4-0.452h-0.436v-1.482l0.946-0.494h0.726l-0.146-0.575-0.58-0.576 0.98-0.206 0.545-0.617 0.436-0.741h0.801l-0.219-0.575 0.509-0.329v0.658l1.09 0.246 1.09-0.904 0.073-0.412 0.945-0.658c-0.342 0.043-0.684 0.074-1.018 0.165v-0.7414l0.363-0.8228h-0.363l-0.798 0.7402-0.219 0.412 0.219 0.576-0.365 0.987-0.581-0.329-0.508-0.576-0.8 0.576-0.291-1.316 1.381-0.9052v-0.4941l0.872-0.5757 1.381-0.3296 0.946 0.3296 1.744 0.3291-0.436 0.4932h-0.945l0.945 0.9877 0.727-0.8227 0.221-0.3618s2.787 2.4975 4.379 5.2305c1.593 2.733 2.341 5.955 2.341 6.609z"/>
        </g>
      </g>
      <g id="g4146">
        <g id="g4150">
          <path id="path4152" d="m26.07 9.2363l-0.073 0.4932 0.51 0.3295 0.871-0.5761-0.436-0.4937-0.582 0.3296-0.29-0.0825"/>
        </g>
      </g>
      <g id="g4154">
        <g id="g4158">
          <path id="path4160" d="m26.87 5.8633l-1.89-0.7407-2.18 0.2466-2.691 0.7402-0.508 0.4941 1.671 1.1514v0.6582l-0.654 0.6582 0.873 1.7287 0.58-0.33 0.729-1.1512c1.123-0.3472 2.13-0.7407 3.197-1.2344l0.873-2.2212"/>
        </g>
      </g>
      <g id="g4162">
        <g id="g4166">
          <path id="path4168" d="m28.833 12.775l-0.291-0.741-0.51 0.165 0.147 0.904 0.654-0.328"/>
        </g>
      </g>
      <g id="g4170">
        <g id="g4174">
          <path id="path4176" d="m29.123 12.609l-0.145 0.988 0.799-0.165 0.581-0.575-0.508-0.494c-0.171-0.455-0.368-0.88-0.582-1.317h-0.435v0.494l0.29 0.329v0.74"/>
        </g>
      </g>
      <g id="g4178">
        <g id="g4182">
          <path id="path4184" d="m18.365 28.242l-0.582-1.152-1.09-0.247-0.582-1.562-1.453 0.164-1.236-0.904-1.309 1.151v0.182c-0.396-0.115-0.883-0.13-1.235-0.347l-0.291-0.822v-0.906l-0.8722 0.082c0.0728-0.576 0.145-1.151 0.2183-1.727h-0.5093l-0.5083 0.658-0.5093 0.246-0.7271-0.41-0.0728-0.905 0.1455-0.988 1.0908-0.822h0.8721l0.145-0.494 1.0903 0.246 0.8 0.988 0.145-1.646 1.382-1.152 0.508-1.234 1.018-0.411 0.581-0.822 1.309-0.248 0.654-0.987h-1.963l1.236-0.576h0.872l1.236-0.412 0.146-0.492-0.437-0.412-0.509-0.165 0.146-0.494-0.363-0.74-0.873 0.328 0.146-0.657-1.018-0.5765-0.799 1.3975 0.072 0.494-0.799 0.331-0.51 1.069-0.218-0.987-1.381-0.577-0.218-0.74 1.817-1.0701 0.8-0.7402 0.073-0.9048-0.436-0.2471-0.582-0.0825-0.363 0.9053s-0.608 0.1191-0.764 0.1577c-1.996 1.8397-6.0294 5.8097-6.9664 13.306 0.0371 0.174 0.6792 1.182 0.6792 1.182l1.5264 0.904 1.5264 0.412 0.6544 0.824 1.018 0.74 0.581-0.082 0.436 0.196v0.133l-0.581 1.563-0.437 0.658 0.146 0.33-0.363 1.233 1.308 2.386 1.308 1.153 0.582 0.822-0.073 1.728 0.437 0.987-0.437 1.892s-0.034-0.011 0.022 0.178c0.056 0.19 2.329 1.451 2.473 1.344 0.144-0.109 0.267-0.205 0.267-0.205l-0.145-0.41 0.581-0.577 0.219-0.576 0.945-0.33 0.727-1.81-0.218-0.493 0.508-0.74 1.09-0.248 0.582-1.316-0.145-1.645 0.872-1.234 0.145-1.235c-1.193-0.591-2.376-1.201-3.561-1.81"/>
        </g>
      </g>
      <g id="g4186">
        <g id="g4190">
          <path id="path4192" d="m16.766 9.5649l0.726 0.4941h0.582v-0.5761l-0.726-0.3291-0.582 0.4111"/>
        </g>
      </g>
      <g id="g4194">
        <g id="g4198">
          <path id="path4200" d="m14.876 8.9072l-0.364 0.9048h0.727l0.364-0.8228c0.314-0.2217 0.626-0.4448 0.945-0.6582l0.727 0.2471c0.484 0.3291 0.969 0.6582 1.454 0.9868l0.727-0.6577-0.8-0.3291-0.364-0.7407-1.381-0.1646-0.073-0.4116-0.654 0.165-0.29 0.5758-0.364-0.7407-0.145 0.3291 0.073 0.8228-0.582 0.494"/>
        </g>
      </g>
      <g id="g4202"/>
      <g id="g4212"/>
      <g id="g4222">
        <g id="g4226">
          <path id="path4228" d="m17.492 6.8496l0.364-0.3286 0.727-0.1646c0.498-0.2422 0.998-0.4053 1.527-0.5762l-0.29-0.4937-0.939 0.1348-0.443 0.4419-0.731 0.106-0.65 0.3052-0.316 0.1528-0.193 0.2583 0.944 0.1641"/>
        </g>
      </g>
      <g id="g4230">
        <g id="g4234">
          <path id="path4236" d="m18.728 14.666l0.437-0.658-0.655-0.493 0.218 1.151"/>
        </g>
      </g>
    </g>
    <g id="g3216" style="color:#000000" fill="url(#radialGradient4756)" transform="matrix(.98237 0 0 .98237 -.080952 .030883)">
      <g id="g3218" style="color:#000000">
        <g id="g3222" style="color:#000000" fill="url(#radialGradient4756)">
          <path id="path3224" style="color:#000000" fill="url(#radialGradient4756)" d="m44.071 20.714l-0.545 0.618c-0.334-0.394-0.709-0.725-1.089-1.071l-0.836 0.123-0.764-0.863v1.068l0.654 0.495 0.436 0.494 0.582-0.658c0.146 0.274 0.291 0.548 0.436 0.823v0.822l-0.655 0.74-1.199 0.823-0.908 0.907-0.582-0.661 0.291-0.74-0.582-0.658-0.981-2.098-0.836-0.945-0.219 0.246 0.328 1.194 0.618 0.699c0.352 1.017 0.701 1.99 1.164 2.963 0.718 0 1.394-0.077 2.107-0.166v0.576l-0.872 2.139-0.8 0.904-0.654 1.401v2.303l0.219 0.906-0.364 0.41-0.8 0.494-0.836 0.699 0.691 0.782-0.945 0.824 0.182 0.533-1.418 1.606h-0.945l-0.8 0.494h-0.509v-0.659l-0.217-1.318c-0.281-0.826-0.574-1.647-0.872-2.467 0-0.605 0.036-1.205 0.072-1.81l0.364-0.823-0.509-0.988 0.037-1.357-0.692-0.782 0.346-1.13-0.563-0.639h-0.982l-0.327-0.37-0.981 0.618-0.4-0.454-0.909 0.782c-0.617-0.7-1.235-1.399-1.854-2.098l-0.726-1.729 0.654-0.986-0.363-0.411 0.799-1.894c0.656-0.816 1.341-1.599 2.035-2.385l1.236-0.329 1.381-0.165 0.945 0.248 1.345 1.356 0.473-0.534 0.653-0.082 1.236 0.411h0.946l0.654-0.576 0.291-0.411-0.655-0.412-1.091-0.082c-0.303-0.419-0.584-0.861-0.944-1.234l-0.364 0.164-0.145 1.07-0.655-0.74-0.144-0.824-0.727-0.574h-0.292l0.728 0.822-0.291 0.74-0.581 0.164 0.363-0.74-0.655-0.328-0.581-0.658-1.091 0.246-0.145 0.328-0.654 0.412-0.363 0.906-0.909 0.452-0.4-0.452h-0.436v-1.482l0.946-0.494h0.726l-0.146-0.575-0.58-0.576 0.98-0.206 0.545-0.617 0.436-0.741h0.801l-0.219-0.575 0.509-0.329v0.658l1.09 0.246 1.09-0.904 0.073-0.412 0.945-0.658c-0.342 0.043-0.684 0.074-1.018 0.165v-0.7414l0.363-0.8228h-0.363l-0.798 0.7402-0.219 0.412 0.219 0.576-0.365 0.987-0.581-0.329-0.508-0.576-0.8 0.576-0.291-1.316 1.381-0.9052v-0.4941l0.872-0.5757 1.381-0.3296 0.946 0.3296 1.744 0.3291-0.436 0.4932h-0.945l0.945 0.9877 0.727-0.8227 0.221-0.3618s2.787 2.4975 4.379 5.2305c1.593 2.733 2.341 5.955 2.341 6.609z"/>
        </g>
      </g>
      <g id="g3226" style="color:#000000">
        <g id="g3230" style="color:#000000" fill="url(#radialGradient4756)">
          <path id="path3232" style="color:#000000" fill="url(#radialGradient4756)" d="m26.07 9.2363l-0.073 0.4932 0.51 0.3295 0.871-0.5761-0.436-0.4937-0.582 0.3296-0.29-0.0825"/>
        </g>
      </g>
      <g id="g3234" style="color:#000000">
        <g id="g3238" style="color:#000000" fill="url(#radialGradient4756)">
          <path id="path3240" style="color:#000000" fill="url(#radialGradient4756)" d="m26.87 5.8633l-1.89-0.7407-2.18 0.2466-2.691 0.7402-0.508 0.4941 1.671 1.1514v0.6582l-0.654 0.6582 0.873 1.7287 0.58-0.33 0.729-1.1512c1.123-0.3472 2.13-0.7407 3.197-1.2344l0.873-2.2212"/>
        </g>
      </g>
      <g id="g3242" style="color:#000000">
        <g id="g3246" style="color:#000000" fill="url(#radialGradient4756)">
          <path id="path3248" style="color:#000000" fill="url(#radialGradient4756)" d="m28.833 12.775l-0.291-0.741-0.51 0.165 0.147 0.904 0.654-0.328"/>
        </g>
      </g>
      <g id="g3250" style="color:#000000">
        <g id="g3254" style="color:#000000" fill="url(#radialGradient4756)">
          <path id="path3256" style="color:#000000" fill="url(#radialGradient4756)" d="m29.123 12.609l-0.145 0.988 0.799-0.165 0.581-0.575-0.508-0.494c-0.171-0.455-0.368-0.88-0.582-1.317h-0.435v0.494l0.29 0.329v0.74"/>
        </g>
      </g>
      <g id="g3258" style="color:#000000">
        <g id="g3262" style="color:#000000" fill="url(#radialGradient4756)">
          <path id="path3264" style="color:#000000" fill="url(#radialGradient4756)" d="m18.365 28.242l-0.582-1.152-1.09-0.247-0.582-1.562-1.453 0.164-1.236-0.904-1.309 1.151v0.182c-0.396-0.115-0.883-0.13-1.235-0.347l-0.291-0.822v-0.906l-0.8722 0.082c0.0728-0.576 0.145-1.151 0.2183-1.727h-0.5093l-0.5083 0.658-0.5093 0.246-0.7271-0.41-0.0728-0.905 0.1455-0.988 1.0908-0.822h0.8721l0.145-0.494 1.0903 0.246 0.8 0.988 0.145-1.646 1.382-1.152 0.508-1.234 1.018-0.411 0.581-0.822 1.309-0.248 0.654-0.987h-1.963l1.236-0.576h0.872l1.236-0.412 0.146-0.492-0.437-0.412-0.509-0.165 0.146-0.494-0.363-0.74-0.873 0.328 0.146-0.657-1.018-0.5765-0.799 1.3975 0.072 0.494-0.799 0.331-0.51 1.069-0.218-0.987-1.381-0.577-0.218-0.74 1.817-1.0701 0.8-0.7402 0.073-0.9048-0.436-0.2471-0.582-0.0825-0.363 0.9053s-0.608 0.1191-0.764 0.1577c-1.996 1.8397-6.0294 5.8097-6.9664 13.306 0.0371 0.174 0.6792 1.182 0.6792 1.182l1.5264 0.904 1.5264 0.412 0.6544 0.824 1.018 0.74 0.581-0.082 0.436 0.196v0.133l-0.581 1.563-0.437 0.658 0.146 0.33-0.363 1.233 1.308 2.386 1.308 1.153 0.582 0.822-0.073 1.728 0.437 0.987-0.437 1.892s-0.034-0.011 0.022 0.178c0.056 0.19 2.329 1.451 2.473 1.344 0.144-0.109 0.267-0.205 0.267-0.205l-0.145-0.41 0.581-0.577 0.219-0.576 0.945-0.33 0.727-1.81-0.218-0.493 0.508-0.74 1.09-0.248 0.582-1.316-0.145-1.645 0.872-1.234 0.145-1.235c-1.193-0.591-2.376-1.201-3.561-1.81"/>
        </g>
      </g>
      <g id="g3266" style="color:#000000">
        <g id="g3270" style="color:#000000" fill="url(#radialGradient4756)">
          <path id="path3272" style="color:#000000" fill="url(#radialGradient4756)" d="m16.766 9.5649l0.726 0.4941h0.582v-0.5761l-0.726-0.3291-0.582 0.4111"/>
        </g>
      </g>
      <g id="g3274" style="color:#000000">
        <g id="g3278" style="color:#000000" fill="url(#radialGradient4756)">
          <path id="path3280" style="color:#000000" fill="url(#radialGradient4756)" d="m14.876 8.9072l-0.364 0.9048h0.727l0.364-0.8228c0.314-0.2217 0.626-0.4448 0.945-0.6582l0.727 0.2471c0.484 0.3291 0.969 0.6582 1.454 0.9868l0.727-0.6577-0.8-0.3291-0.364-0.7407-1.381-0.1646-0.073-0.4116-0.654 0.165-0.29 0.5758-0.364-0.7407-0.145 0.3291 0.073 0.8228-0.582 0.494"/>
        </g>
      </g>
      <g id="g3282" style="color:#000000"/>
      <g id="g3292" style="color:#000000"/>
      <g id="g3302" style="color:#000000">
        <g id="g3306" style="color:#000000" fill="url(#radialGradient4756)">
          <path id="path3308" style="color:#000000" fill="url(#radialGradient4756)" d="m17.492 6.8496l0.364-0.3286 0.727-0.1646c0.498-0.2422 0.998-0.4053 1.527-0.5762l-0.29-0.4937-0.939 0.1348-0.443 0.4419-0.731 0.106-0.65 0.3052-0.316 0.1528-0.193 0.2583 0.944 0.1641"/>
        </g>
      </g>
      <g id="g3310" style="color:#000000">
        <g id="g3314" style="color:#000000" fill="url(#radialGradient4756)">
          <path id="path3316" style="color:#000000" fill="url(#radialGradient4756)" d="m18.728 14.666l0.437-0.658-0.655-0.493 0.218 1.151"/>
        </g>
      </g>
    </g>
    <path id="path4122" stroke="url(#radialGradient4132)" fill="none" d="m42.975 23.486c0 10.165-8.241 18.406-18.406 18.406s-18.406-8.241-18.406-18.406c0.0004-10.166 8.241-18.406 18.406-18.406 10.165-0.0001 18.406 8.24 18.406 18.406z"/>
    <path id="path2794" style="color:#000000" d="m38.061 5.8717c5.063-5.9572 9.133-0.7864 5.171 6.5993-3.941 7.35 3.293 11.243 1.415 17.617-1.941 6.587-4.508 5.291-7.513 7.791-3.006 2.5-15.734 2.121-15.734 2.121l-0.4-2" stroke="#888a85" stroke-width="3" fill="none"/>
    <path id="path2784" d="m38.061 5.8717c5.063-5.9572 9.133-0.7864 5.171 6.5993-3.941 7.35 3.293 11.243 1.415 17.617-1.941 6.587-4.508 5.291-7.513 7.791-3.006 2.5-15.734 2.121-15.734 2.121l-0.4-2" style="color:#000000" stroke="#babdb6" fill="none"/>
    <g id="g1852" transform="matrix(.85774 0 0 .85774 -3.4902 15.594)">
      <path id="rect2404" style="color:#000000" d="m6.66 4.5578h35.981c0.918 0 1.673 0.5849 1.679 1.4077l0.209 25.692c0.009 1.123-0.908 2.028-2.036 2.028h-35.811c-1.128 0-2.0504-0.905-2.0358-2.029l0.3346-25.692c0.0101-0.7774 0.5516-1.4072 1.6792-1.4072z" fill-rule="evenodd" stroke="url(#linearGradient1561)" stroke-width="1.1659" fill="url(#linearGradient2251)"/>
      <path id="path2377" stroke-linejoin="round" d="m8.3577 7.9937l-0.2322 19.913h30.352l-0.322-19.829-29.798-0.0843z" fill-rule="evenodd" stroke="#3465a4" stroke-width="1.1659" fill="#729fcf"/>
      <path id="path2393" d="m6.6774 31.405h35.429" stroke-opacity=".24841" stroke="url(#linearGradient2689)" stroke-linecap="round" stroke-width="1.1614" fill="none"/>
      <path id="path2397" style="color:#000000" d="m6.6802 5.7815l35.966-0.0371c0.285-0.0003 0.578 0.2326 0.584 0.6414l0.363 24.381c0.016 1.041-0.541 1.756-1.603 1.756h-34.64c-1.0626 0-1.5555-0.715-1.5414-1.756l0.3252-24.077c0.0095-0.705 0.1669-0.9081 0.5464-0.9085z" stroke-opacity=".70064" stroke="url(#linearGradient2421)" stroke-width="1.1659" fill="none"/>
      <path id="path2443" opacity=".53143" d="m8.7829 8.6344l-0.0504 16.858c10.588-2.265 15.982-9.898 29.146-12.402l-0.034-4.3933-29.061-0.0623z" fill="url(#linearGradient2673)" fill-rule="evenodd"/>
      <path id="path2709" style="color:#000000" d="m35.621 3.9384a0.83969 0.83969 0 1 1 -1.68 0 0.83969 0.83969 0 1 1 1.68 0z" fill-rule="evenodd" transform="matrix(1.3312 0 0 .65845 -5.2122 6.0824)" fill="url(#linearGradient2733)"/>
      <path id="path2719" style="color:#000000" d="m35.621 3.9384a0.83969 0.83969 0 1 1 -1.68 0 0.83969 0.83969 0 1 1 1.68 0z" fill-rule="evenodd" transform="matrix(1.3312 0 0 .65845 -5.0986 8.1882)" fill="url(#linearGradient2733)"/>
      <path id="path2723" style="color:#000000" d="m35.621 3.9384a0.83969 0.83969 0 1 1 -1.68 0 0.83969 0.83969 0 1 1 1.68 0z" fill-rule="evenodd" transform="matrix(1.3312 0 0 .65845 -4.985 10.188)" fill="url(#linearGradient2733)"/>
      <path id="path2727" style="color:#000000" d="m35.621 3.9384a0.83969 0.83969 0 1 1 -1.68 0 0.83969 0.83969 0 1 1 1.68 0z" fill-rule="evenodd" transform="matrix(1.3312 0 0 .65845 -4.8714 12.188)" fill="url(#linearGradient2733)"/>
      <path id="path2731" style="color:#000000" d="m35.621 3.9384a0.83969 0.83969 0 1 1 -1.68 0 0.83969 0.83969 0 1 1 1.68 0z" fill-rule="evenodd" transform="matrix(1.3312 0 0 .65845 -4.7578 14.188)" fill="url(#linearGradient2733)"/>
    </g>
    <path id="path5560" opacity=".47778" transform="matrix(.28799 .27343 -.35084 .34692 40.623 -11.079)" fill="url(#radialGradient4120)" d="m45.053 38.909a20.203 7.4751 0 1 1 -40.406 0 20.203 7.4751 0 1 1 40.406 0z"/>
    <g id="g2790" transform="matrix(.75052 -.66084 .66084 .75052 -7.9644 18.97)" fill-rule="evenodd">
      <path id="path2782" d="m37.558 15.646v9.94l2.702 0.06c2.118 0 4.298-1.981 4.298-3.325v-3.172c0-1.234-1.719-3.503-4.21-3.503h-2.79z" stroke="#c00" style="color:#000000" fill="#ef2929"/>
      <path id="path2788" opacity=".46667" style="color:#000000" fill="#fff" d="m38 25v-9c2.915-0.248 4.73 0.603 6 2-1.503-0.741-3.034-1.415-5-1l-1 8z"/>
    </g>
    <rect id="rect2796" style="color:#000000" fill-rule="evenodd" height="2" width="25" y="23" x="4" fill="#eeeeec"/>
    <rect id="rect2798" style="color:#000000" fill-rule="evenodd" height="9" width="9" y="28" x="15" fill="#eeeeec"/>
    <rect id="rect2800" style="color:#000000" fill-rule="evenodd" height="2" width="9" y="26" x="15" fill="#204a87"/>
    <rect id="rect2802" style="color:#000000" fill-rule="evenodd" height="2" width="4" y="29" x="7" fill="#204a87"/>
    <rect id="rect2804" style="color:#000000" fill-rule="evenodd" height="3" width="4" y="31" x="7" fill="#eeeeec"/>
    <path id="path2810" style="color:#000000" fill-rule="evenodd" fill="#eeeeec" d="m43.045 3.0103a0.61872 0.61872 0 1 1 -1.237 0 0.61872 0.61872 0 1 1 1.237 0z"/>
    <path id="path2812" opacity=".52222" style="color:#000000" d="m43.045 3.0103a0.61872 0.61872 0 1 1 -1.237 0 0.61872 0.61872 0 1 1 1.237 0z" fill-rule="evenodd" transform="matrix(1.8571 0 0 1.8571 -42.906 -.54735)" fill="#eeeeec"/>
  </g>
  <metadata>
    <rdf:RDF>
      <cc:Work>
        <dc:format>image/svg+xml</dc:format>
        <dc:type rdf:resource="http://purl.org/dc/dcmitype/StillImage"/>
        <cc:license rdf:resource="http://creativecommons.org/licenses/publicdomain/"/>
        <dc:publisher>
          <cc:Agent rdf:about="http://openclipart.org/">
            <dc:title>Openclipart</dc:title>
          </cc:Agent>
        </dc:publisher>
        <dc:title>tango preferences desktop remote desktop</dc:title>
        <dc:date>2010-03-29T08:37:06</dc:date>
        <dc:description>"Remote desktop" icon from &lt;a href="http://tango.freedesktop.org/Tango_Desktop_Project"&gt; Tango Project &lt;/a&gt; &#xD;\n&lt;br&gt;&lt;br&gt;&#xD;\nSince version 0.8.90 Tango Project icons are Public Domain: &lt;a href="http://tango.freedesktop.org/Frequently_Asked_Questions#Terms_of_Use.3F"&gt; Tango Project FAQ &lt;/a&gt;</dc:description>
        <dc:source>http://openclipart.org/detail/35287/tango-preferences-desktop-remote-desktop-by-warszawianka</dc:source>
        <dc:creator>
          <cc:Agent>
            <dc:title>warszawianka</dc:title>
          </cc:Agent>
        </dc:creator>
        <dc:subject>
          <rdf:Bag>
            <rdf:li>application</rdf:li>
            <rdf:li>clip art</rdf:li>
            <rdf:li>clipart</rdf:li>
            <rdf:li>earth</rdf:li>
            <rdf:li>externalsource</rdf:li>
            <rdf:li>icon</rdf:li>
            <rdf:li>plug</rdf:li>
            <rdf:li>tango</rdf:li>
            <rdf:li>window</rdf:li>
          </rdf:Bag>
        </dc:subject>
      </cc:Work>
      <cc:License rdf:about="http://creativecommons.org/licenses/publicdomain/">
        <cc:permits rdf:resource="http://creativecommons.org/ns#Reproduction"/>
        <cc:permits rdf:resource="http://creativecommons.org/ns#Distribution"/>
        <cc:permits rdf:resource="http://creativecommons.org/ns#DerivativeWorks"/>
      </cc:License>
    </rdf:RDF>
  </metadata>
</svg>
