<?xml version="1.0"?>
<svg xmlns:rdf="http://www.w3.org/1999/02/22-rdf-syntax-ns#" xmlns="http://www.w3.org/2000/svg" xmlns:cc="http://creativecommons.org/ns#" xmlns:xlink="http://www.w3.org/1999/xlink" xmlns:dc="http://purl.org/dc/elements/1.1/" xmlns:svg="http://www.w3.org/2000/svg" id="svg2327" viewBox="0 0 48 48">
  <defs id="defs3">
    <linearGradient id="linearGradient2251" x1="8.6116" gradientUnits="userSpaceOnUse" y1="7.2294" gradientTransform="matrix(1.1299 0 0 .88506 2.875 1.5706)" x2="34.784" y2="33.34">
      <stop id="stop2247" stop-color="#dde1d9" offset="0"/>
      <stop id="stop2249" stop-color="#cacdc6" offset="1"/>
    </linearGradient>
    <linearGradient id="linearGradient2421" x1="17.698" gradientUnits="userSpaceOnUse" y1="13.005" gradientTransform="matrix(1.1081 0 0 .90247 5.5 3.875)" x2="34.975" y2="55.201">
      <stop id="stop2417" stop-color="#fff" offset="0"/>
      <stop id="stop2419" stop-color="#fff" stop-opacity="0" offset="1"/>
    </linearGradient>
    <radialGradient id="radialGradient2460" gradientUnits="userSpaceOnUse" cy="67.502" cx="12.576" gradientTransform="scale(1.9258 .51926)" r="8.7663">
      <stop id="stop2456" offset="0"/>
      <stop id="stop2458" stop-opacity="0" offset="1"/>
    </radialGradient>
    <linearGradient id="linearGradient2681" x1="19.15" gradientUnits="userSpaceOnUse" x2="16.316" gradientTransform="matrix(1.1741 0 0 .94543 5.2218 1.5435)" y1="32.622" y2="8.8666">
      <stop id="stop2677" stop-color="#5b5b97" offset="0"/>
      <stop id="stop2679" stop-color="#1b1b43" offset="1"/>
    </linearGradient>
    <linearGradient id="linearGradient2689" x1="3.707" gradientUnits="userSpaceOnUse" x2="3.707" gradientTransform="matrix(5.7052 0 0 .17528 5.5 2.1956)" y1="171.29" y2="162.45">
      <stop id="stop2685" offset="0"/>
      <stop id="stop2687" stop-opacity="0" offset="1"/>
    </linearGradient>
    <linearGradient id="linearGradient2707" x1="12.207" gradientUnits="userSpaceOnUse" x2="12.128" gradientTransform="matrix(1.8163 0 0 1.2789 2.5 -40.245)" y1="53.535" y2="64.893">
      <stop id="stop2703" stop-color="#585956" offset="0"/>
      <stop id="stop2705" stop-color="#bbbeb8" offset="1"/>
    </linearGradient>
    <linearGradient id="linearGradient2717" x1="34.301" gradientUnits="userSpaceOnUse" x2="35.521" y1="3.9384" y2="3.8451">
      <stop id="stop2713" stop-color="#909090" offset="0"/>
      <stop id="stop2715" stop-color="#bebebe" stop-opacity="0" offset="1"/>
    </linearGradient>
    <linearGradient id="linearGradient1561" x1="10.391" gradientUnits="userSpaceOnUse" x2="32.537" gradientTransform="matrix(1.1044 0 0 .90547 4.5 2.875)" y1="5.3818" y2="31.246">
      <stop id="stop2255" stop-color="#8f8f8f" offset="0"/>
      <stop id="stop2257" stop-color="#494949" offset="1"/>
    </linearGradient>
    <linearGradient id="linearGradient2327" y2="28.206" gradientUnits="userSpaceOnUse" x2="-35.658" y1="33.416" x1="-35.658">
      <stop id="stop2323" stop-color="#7b7f7a" offset="0"/>
      <stop id="stop2325" stop-color="#7b7f7a" stop-opacity="0" offset="1"/>
    </linearGradient>
    <linearGradient id="linearGradient2337" y2="30.962" gradientUnits="userSpaceOnUse" x2="-35.075" y1="34.242" x1="-35.123">
      <stop id="stop2331" stop-color="#fff" offset="0"/>
      <stop id="stop2333" stop-color="#fff" stop-opacity="0" offset="1"/>
    </linearGradient>
    <linearGradient id="linearGradient2315" x1="11.492" gradientUnits="userSpaceOnUse" y1="1.6538" gradientTransform="matrix(1.239 0 0 .89596 5.2673 1.5435)" x2="17.199" y2="26.729">
      <stop id="stop2669" stop-color="#fff" offset="0"/>
      <stop id="stop2671" stop-color="#fcfcff" stop-opacity="0" offset="1"/>
    </linearGradient>
    <radialGradient id="radialGradient2529" gradientUnits="userSpaceOnUse" cy="11.584" cx="13.612" gradientTransform="matrix(1.9524 0 0 1.9524 -12.964 -11.032)" r="1.8562">
      <stop id="stop2525" stop-color="#fff" offset="0"/>
      <stop id="stop2527" stop-color="#fff" stop-opacity="0" offset="1"/>
    </radialGradient>
    <radialGradient id="radialGradient2547" cx="16.087" gradientUnits="userSpaceOnUse" cy="13.97" r="1.7678">
      <stop id="stop2543" stop-color="#fee964" offset="0"/>
      <stop id="stop2545" stop-color="#fee964" stop-opacity="0" offset="1"/>
    </radialGradient>
  </defs>
  <g id="layer1">
    <path id="path2452" opacity=".50857" style="color:#000000" d="m41.101 35.051a16.882 4.552 0 1 1 -33.765 0 16.882 4.552 0 1 1 33.765 0z" fill-rule="evenodd" transform="matrix(1.0503 0 0 1.8679 -.94556 -28.106)" fill="url(#radialGradient2460)"/>
    <path id="path2407" style="color:#000000" d="m-26.264 29.716a9.3944 3.9396 0 1 1 -18.789 0 9.3944 3.9396 0 1 1 18.789 0z" fill-rule="evenodd" transform="translate(60.033 8.0784)" stroke="#4b4d4a" fill="#adb0aa"/>
    <path id="path1825" style="color:#000000" d="m-26.264 29.716a9.3944 3.9396 0 1 1 -18.789 0 9.3944 3.9396 0 1 1 18.789 0z" transform="matrix(.90237 0 0 .82765 56.552 12.868)" stroke="url(#linearGradient2327)" stroke-width="1.1571" fill="none"/>
    <path id="path2983" style="color:#000000" d="m-26.264 29.716a9.3944 3.9396 0 1 1 -18.789 0 9.3944 3.9396 0 1 1 18.789 0z" transform="matrix(.83755 0 0 .85266 54.178 11.006)" stroke="url(#linearGradient2337)" stroke-width="1.1833" fill="none"/>
    <rect id="rect2699" style="color:#000000" fill-rule="evenodd" height="6.365" width="9.0397" y="31.079" x="19.972" fill="url(#linearGradient2707)"/>
    <path id="rect2404" style="color:#000000" d="m7.5809 4.5706h33.588c0.911 0 1.624 0.5835 1.667 1.4016l1.332 25.578c0.058 1.118-0.901 2.021-2.02 2.021h-35.546c-1.1188 0-2.0781-0.903-2.0199-2.021l1.3321-25.578c0.0402-0.7733 0.5475-1.4014 1.6667-1.4014z" fill-rule="evenodd" stroke="url(#linearGradient1561)" fill="url(#linearGradient2251)"/>
    <path id="path2377" stroke-linejoin="round" d="m8.9105 7.1808l-1.2422 22.045h31.651l-1.335-21.952-29.074-0.0932z" fill-rule="evenodd" stroke="#000079" stroke-width=".5" fill="url(#linearGradient2681)"/>
    <path id="path2393" d="m6.6774 31.611h35.429" stroke-opacity=".24841" stroke="url(#linearGradient2689)" stroke-linecap="round" stroke-width=".99618" fill="none"/>
    <path id="path2397" style="color:#000000" d="m7.4146 5.5813l33.845-0.0378c0.284-0.0003 0.559 0.2373 0.582 0.6526l1.362 24.803c0.058 1.057-0.54 1.786-1.598 1.786h-34.524c-1.0589 0-1.5933-0.729-1.5361-1.786l1.3241-24.494c0.0387-0.7157 0.1664-0.9232 0.5446-0.9237z" stroke-opacity=".70064" stroke="url(#linearGradient2421)" fill="none"/>
    <path id="path2443" opacity=".53143" fill-rule="evenodd" fill="url(#linearGradient2315)" d="m9.3883 7.6214l-0.8025 17.871c11.044-2.401 15.421-10.493 29.154-13.147l-0.162-4.6576-28.19-0.066z"/>
    <path id="path2709" style="color:#000000" d="m35.621 3.9384a0.83969 0.83969 0 1 1 -1.68 0 0.83969 0.83969 0 1 1 1.68 0z" fill-rule="evenodd" transform="matrix(1.3312 0 0 .65845 -5.9193 5.7289)" fill="url(#linearGradient2717)"/>
    <path id="path2719" style="color:#000000" d="m35.621 3.9384a0.83969 0.83969 0 1 1 -1.68 0 0.83969 0.83969 0 1 1 1.68 0z" fill-rule="evenodd" transform="matrix(1.3312 0 0 .65845 -5.8057 7.8346)" fill="url(#linearGradient2717)"/>
    <path id="path2723" style="color:#000000" d="m35.621 3.9384a0.83969 0.83969 0 1 1 -1.68 0 0.83969 0.83969 0 1 1 1.68 0z" fill-rule="evenodd" transform="matrix(1.3312 0 0 .65845 -5.6921 9.8346)" fill="url(#linearGradient2717)"/>
    <path id="path2727" style="color:#000000" d="m35.621 3.9384a0.83969 0.83969 0 1 1 -1.68 0 0.83969 0.83969 0 1 1 1.68 0z" fill-rule="evenodd" transform="matrix(1.3312 0 0 .65845 -5.5785 11.835)" fill="url(#linearGradient2717)"/>
    <path id="path2731" style="color:#000000" d="m35.621 3.9384a0.83969 0.83969 0 1 1 -1.68 0 0.83969 0.83969 0 1 1 1.68 0z" fill-rule="evenodd" transform="matrix(1.3312 0 0 .65845 -5.4649 13.835)" fill="url(#linearGradient2717)"/>
    <path id="text2735" d="m22.5 30.193h0.282c0.083 0 0.148 0.018 0.192 0.056 0.045 0.037 0.068 0.09 0.068 0.158 0 0.069-0.023 0.123-0.068 0.16-0.044 0.037-0.109 0.056-0.192 0.056h-0.112v0.228h-0.17v-0.658m0.17 0.123v0.184h0.094c0.033 0 0.058-0.008 0.076-0.024s0.027-0.039 0.027-0.069c0-0.029-0.009-0.052-0.027-0.068-0.018-0.015-0.043-0.023-0.076-0.023h-0.094m0.792-0.012c-0.052 0-0.092 0.019-0.12 0.057-0.029 0.038-0.043 0.092-0.043 0.161 0 0.07 0.014 0.123 0.043 0.161 0.028 0.039 0.068 0.058 0.12 0.058s0.092-0.019 0.121-0.058c0.028-0.038 0.043-0.091 0.043-0.161 0-0.069-0.015-0.123-0.043-0.161-0.029-0.038-0.069-0.057-0.121-0.057m0-0.123c0.106 0 0.189 0.03 0.249 0.091 0.06 0.06 0.09 0.144 0.09 0.25 0 0.107-0.03 0.19-0.09 0.251-0.06 0.06-0.143 0.091-0.249 0.091s-0.188-0.031-0.249-0.091c-0.06-0.061-0.09-0.144-0.09-0.251 0-0.106 0.03-0.19 0.09-0.25 0.061-0.061 0.143-0.091 0.249-0.091m0.466 0.012h0.19l0.239 0.451v-0.451h0.161v0.658h-0.189l-0.24-0.452v0.452h-0.161v-0.658m0.663 0h0.186l0.15 0.234 0.15-0.234h0.186l-0.251 0.381v0.277h-0.17v-0.277l-0.251-0.381" fill="#4a4a4a"/>
    <path id="path2317" style="color:#000000" fill="#fce94f" stroke="#edd400" d="m32.803 13.316c1.67 7.679-3.289 12.139-11.447 7.673 0.627 2.35 2.266 4.381 4.752 5.181 3.888 1.253 8.059-0.886 9.312-4.775 0.987-3.067-0.19-6.231-2.617-8.079z"/>
    <g id="g2549">
      <path id="path2531" style="color:#000000" transform="translate(-2.4749 -2.3865)" fill="url(#radialGradient2547)" d="m17.854 13.97a1.7678 1.7678 0 1 1 -3.535 0 1.7678 1.7678 0 1 1 3.535 0z"/>
      <path id="path3195" style="color:#000000" fill="url(#radialGradient2529)" d="m16.971 11.584l-3.04 0.267-0.319 3.092-0.267-3.04-3.092-0.319 3.04-0.267 0.319-3.0918 0.267 3.0398 3.092 0.319z"/>
    </g>
    <g id="g2553" transform="matrix(.63158 0 0 .63158 12.97 3.7375)">
      <path id="path2555" style="color:#000000" transform="translate(-2.4749 -2.3865)" fill="url(#radialGradient2547)" d="m17.854 13.97a1.7678 1.7678 0 1 1 -3.535 0 1.7678 1.7678 0 1 1 3.535 0z"/>
      <path id="path2557" d="m16.971 11.584l-3.04 0.267-0.319 3.092-0.267-3.04-3.092-0.319 3.04-0.267 0.319-3.0918 0.267 3.0398 3.092 0.319z" style="color:#000000" fill="url(#radialGradient2529)"/>
    </g>
    <g id="g2563" transform="matrix(.63158 0 0 .63158 9.6111 9.8363)">
      <path id="path2565" style="color:#000000" transform="translate(-2.4749 -2.3865)" fill="url(#radialGradient2547)" d="m17.854 13.97a1.7678 1.7678 0 1 1 -3.535 0 1.7678 1.7678 0 1 1 3.535 0z"/>
      <path id="path2567" style="color:#000000" fill="url(#radialGradient2529)" d="m16.971 11.584l-3.04 0.267-0.319 3.092-0.267-3.04-3.092-0.319 3.04-0.267 0.319-3.0918 0.267 3.0398 3.092 0.319z"/>
    </g>
    <g id="g2576" transform="matrix(.63158 0 0 .63158 4.4845 11.516)">
      <path id="path2578" style="color:#000000" transform="translate(-2.4749 -2.3865)" fill="url(#radialGradient2547)" d="m17.854 13.97a1.7678 1.7678 0 1 1 -3.535 0 1.7678 1.7678 0 1 1 3.535 0z"/>
      <path id="path2580" d="m16.971 11.584l-3.04 0.267-0.319 3.092-0.267-3.04-3.092-0.319 3.04-0.267 0.319-3.0918 0.267 3.0398 3.092 0.319z" style="color:#000000" fill="url(#radialGradient2529)"/>
    </g>
  </g>
  <metadata>
    <rdf:RDF>
      <cc:Work>
        <dc:format>image/svg+xml</dc:format>
        <dc:type rdf:resource="http://purl.org/dc/dcmitype/StillImage"/>
        <cc:license rdf:resource="http://creativecommons.org/licenses/publicdomain/"/>
        <dc:publisher>
          <cc:Agent rdf:about="http://openclipart.org/">
            <dc:title>Openclipart</dc:title>
          </cc:Agent>
        </dc:publisher>
        <dc:title>tango preferences desktop screensaver</dc:title>
        <dc:date>2010-03-29T08:38:22</dc:date>
        <dc:description>"Screen saver" icon from &lt;a href="http://tango.freedesktop.org/Tango_Desktop_Project"&gt; Tango Project &lt;/a&gt; &#xD;\n&lt;br&gt;&lt;br&gt;&#xD;\nSince version 0.8.90 Tango Project icons are Public Domain: &lt;a href="http://tango.freedesktop.org/Frequently_Asked_Questions#Terms_of_Use.3F"&gt; Tango Project FAQ &lt;/a&gt;</dc:description>
        <dc:source>http://openclipart.org/detail/35293/tango-preferences-desktop-screensaver-by-warszawianka</dc:source>
        <dc:creator>
          <cc:Agent>
            <dc:title>warszawianka</dc:title>
          </cc:Agent>
        </dc:creator>
        <dc:subject>
          <rdf:Bag>
            <rdf:li>clip art</rdf:li>
            <rdf:li>clipart</rdf:li>
            <rdf:li>display</rdf:li>
            <rdf:li>externalsource</rdf:li>
            <rdf:li>icon</rdf:li>
            <rdf:li>monitor</rdf:li>
            <rdf:li>moon</rdf:li>
            <rdf:li>night</rdf:li>
            <rdf:li>scree</rdf:li>
            <rdf:li>star</rdf:li>
            <rdf:li>tango</rdf:li>
          </rdf:Bag>
        </dc:subject>
      </cc:Work>
      <cc:License rdf:about="http://creativecommons.org/licenses/publicdomain/">
        <cc:permits rdf:resource="http://creativecommons.org/ns#Reproduction"/>
        <cc:permits rdf:resource="http://creativecommons.org/ns#Distribution"/>
        <cc:permits rdf:resource="http://creativecommons.org/ns#DerivativeWorks"/>
      </cc:License>
    </rdf:RDF>
  </metadata>
</svg>
