<?xml version="1.0"?>
<svg xmlns:rdf="http://www.w3.org/1999/02/22-rdf-syntax-ns#" xmlns="http://www.w3.org/2000/svg" xmlns:cc="http://creativecommons.org/ns#" xmlns:xlink="http://www.w3.org/1999/xlink" xmlns:dc="http://purl.org/dc/elements/1.1/" xmlns:svg="http://www.w3.org/2000/svg" id="svg11300" viewBox="0 0 48 48">
  <defs id="defs3">
    <radialGradient id="radialGradient6719" xlink:href="#linearGradient5060" gradientUnits="userSpaceOnUse" cy="486.65" cx="605.71" gradientTransform="matrix(-2.7744 0 0 1.9697 112.76 -872.89)" r="117.14"/>
    <linearGradient id="linearGradient5060">
      <stop id="stop5062" offset="0"/>
      <stop id="stop5064" stop-opacity="0" offset="1"/>
    </linearGradient>
    <radialGradient id="radialGradient6717" xlink:href="#linearGradient5060" gradientUnits="userSpaceOnUse" cy="486.65" cx="605.71" gradientTransform="matrix(2.7744 0 0 1.9697 -1891.6 -872.89)" r="117.14"/>
    <linearGradient id="linearGradient6715" x1="302.86" gradientUnits="userSpaceOnUse" y1="366.65" gradientTransform="matrix(2.7744 0 0 1.9697 -1892.2 -872.89)" x2="302.86" y2="609.51">
      <stop id="stop5050" stop-opacity="0" offset="0"/>
      <stop id="stop5056" offset=".5"/>
      <stop id="stop5052" stop-opacity="0" offset="1"/>
    </linearGradient>
    <radialGradient id="radialGradient2939" gradientUnits="userSpaceOnUse" cy="35.596" cx="25.458" gradientTransform="matrix(2.1282 -1.7272e-9 2.4228e-16 2.1283 -29.019 -39.918)" r="20.531">
      <stop id="stop2935" stop-color="#9cbcde" offset="0"/>
      <stop id="stop2937" stop-color="#204a87" offset="1"/>
    </radialGradient>
  </defs>
  <g id="layer1">
    <g id="g6707" transform="matrix(.022990 0 0 .023454 45.341 39.649)">
      <rect id="rect6709" opacity=".40206" style="color:black" height="478.36" width="1339.6" y="-150.7" x="-1559.3" fill="url(#linearGradient6715)"/>
      <path id="path6711" opacity=".40206" style="color:black" fill="url(#radialGradient6717)" d="m-219.62-150.68v478.33c142.88 0.9 345.4-107.17 345.4-239.2 0-132.02-159.44-239.13-345.4-239.13z"/>
      <path id="path6713" opacity=".40206" style="color:black" fill="url(#radialGradient6719)" d="m-1559.3-150.68v478.33c-142.8 0.9-345.4-107.17-345.4-239.2 0-132.02 159.5-239.13 345.4-239.13z"/>
    </g>
    <rect id="rect11518" stroke-linejoin="bevel" style="color:#000000" fill-rule="evenodd" rx="5.4548" ry="5.4548" height="40.062" width="40.062" stroke="#3465a4" stroke-miterlimit="10" y="3.5233" x="4.4147" fill="url(#radialGradient2939)"/>
    <rect id="rect11528" stroke-linejoin="bevel" style="color:#000000" rx="3.9068" ry="3.9068" height="37.101" width="37.101" stroke="#fff" stroke-miterlimit="10" y="5.004" x="5.8954" stroke-width="2" fill="none"/>
    <g id="g2990" transform="translate(1.5522 -.64010)">
      <g id="g2972" transform="matrix(.76923 0 0 .76923 6.8462 4.5769)">
        <path id="path2961" style="color:#000000" transform="matrix(1.4444 0 0 1.4444 -7.8413 -5.8095)" fill="#fff" d="m20.857 13.071a3.2143 3.2143 0 1 1 -6.428 0 3.2143 3.2143 0 1 1 6.428 0z"/>
        <path id="path2963" stroke="#fff" stroke-width="2.5" fill="none" d="m17.571 13.143l2.429 16.857 12-2.571 2.429 9.571 3.571-1"/>
      </g>
      <path id="path2965" style="color:#000000" fill="#fff" d="m17.375 21.668c-2.553 1.411-4.375 4.027-4.375 7.14 0 4.554 3.715 8.269 8.269 8.269 4.316 0 7.764-3.371 8.125-7.596l-1.995 0.456c-0.547 2.951-3.017 5.217-6.13 5.217-3.513 0-6.346-2.833-6.346-6.346 0-2.196 1.197-4.03 2.885-5.169l-0.433-1.971z"/>
    </g>
    <path id="path2941" style="color:#000000" d="m22.857 20.857l8.857-0.857" stroke="#fff" stroke-width="1.9231" fill="none"/>
  </g>
  <metadata>
    <rdf:RDF>
      <cc:Work>
        <dc:format>image/svg+xml</dc:format>
        <dc:type rdf:resource="http://purl.org/dc/dcmitype/StillImage"/>
        <cc:license rdf:resource="http://creativecommons.org/licenses/publicdomain/"/>
        <dc:publisher>
          <cc:Agent rdf:about="http://openclipart.org/">
            <dc:title>Openclipart</dc:title>
          </cc:Agent>
        </dc:publisher>
        <dc:title>tango preferences desktop accessibility </dc:title>
        <dc:date>2010-03-29T08:10:12</dc:date>
        <dc:description>"Desktop accessibilityr" icon from &lt;a href="http://tango.freedesktop.org/Tango_Desktop_Project"&gt; Tango Project &lt;/a&gt; &#xD;\n&lt;br&gt;&lt;br&gt;&#xD;\nSince version 0.8.90 Tango Project icons are Public Domain: &lt;a href="http://tango.freedesktop.org/Frequently_Asked_Questions#Terms_of_Use.3F"&gt; Tango Project FAQ &lt;/a&gt;</dc:description>
        <dc:source>http://openclipart.org/detail/35245/tango-preferences-desktop-accessibility--by-warszawianka</dc:source>
        <dc:creator>
          <cc:Agent>
            <dc:title>warszawianka</dc:title>
          </cc:Agent>
        </dc:creator>
        <dc:subject>
          <rdf:Bag>
            <rdf:li>clip art</rdf:li>
            <rdf:li>clipart</rdf:li>
            <rdf:li>disabled</rdf:li>
            <rdf:li>externalsource</rdf:li>
            <rdf:li>icon</rdf:li>
            <rdf:li>tango</rdf:li>
            <rdf:li>wheelchair</rdf:li>
          </rdf:Bag>
        </dc:subject>
      </cc:Work>
      <cc:License rdf:about="http://creativecommons.org/licenses/publicdomain/">
        <cc:permits rdf:resource="http://creativecommons.org/ns#Reproduction"/>
        <cc:permits rdf:resource="http://creativecommons.org/ns#Distribution"/>
        <cc:permits rdf:resource="http://creativecommons.org/ns#DerivativeWorks"/>
      </cc:License>
    </rdf:RDF>
  </metadata>
</svg>
