<?xml version="1.0"?>
<svg xmlns:rdf="http://www.w3.org/1999/02/22-rdf-syntax-ns#" xmlns="http://www.w3.org/2000/svg" xmlns:cc="http://creativecommons.org/ns#" xmlns:xlink="http://www.w3.org/1999/xlink" xmlns:dc="http://purl.org/dc/elements/1.1/" xmlns:svg="http://www.w3.org/2000/svg" id="svg11300" viewBox="0 0 48 48">
  <defs id="defs3">
    <radialGradient id="radialGradient5031" xlink:href="#linearGradient5060" gradientUnits="userSpaceOnUse" cy="486.65" cx="605.71" gradientTransform="matrix(-2.7744 0 0 1.9697 112.76 -872.89)" r="117.14"/>
    <linearGradient id="linearGradient5060">
      <stop id="stop5062" offset="0"/>
      <stop id="stop5064" stop-opacity="0" offset="1"/>
    </linearGradient>
    <radialGradient id="radialGradient5029" xlink:href="#linearGradient5060" gradientUnits="userSpaceOnUse" cy="486.65" cx="605.71" gradientTransform="matrix(2.7744 0 0 1.9697 -1891.6 -872.89)" r="117.14"/>
    <linearGradient id="linearGradient5027" x1="302.86" gradientUnits="userSpaceOnUse" y1="366.65" gradientTransform="matrix(2.7744 0 0 1.9697 -1892.2 -872.89)" x2="302.86" y2="609.51">
      <stop id="stop5050" stop-opacity="0" offset="0"/>
      <stop id="stop5056" offset=".5"/>
      <stop id="stop5052" stop-opacity="0" offset="1"/>
    </linearGradient>
    <linearGradient id="linearGradient4633">
      <stop id="stop4635" stop-color="#fff" offset="0"/>
      <stop id="stop4637" stop-color="#fff" stop-opacity="0" offset="1"/>
    </linearGradient>
    <linearGradient id="linearGradient3568">
      <stop id="stop3570" stop-color="#d6d6d6" offset="0"/>
      <stop id="stop3572" stop-color="#f0f0f0" offset="1"/>
    </linearGradient>
    <linearGradient id="linearGradient3560">
      <stop id="stop3562" stop-color="#f0f0f0" offset="0"/>
      <stop id="stop3564" stop-color="#c9c9c9" offset="1"/>
    </linearGradient>
    <linearGradient id="linearGradient3550">
      <stop id="stop3552" stop-color="#8b8b8b" offset="0"/>
      <stop id="stop3554" stop-color="#a9a9a9" offset="1"/>
    </linearGradient>
    <linearGradient id="linearGradient3508">
      <stop id="stop3510" stop-color="#b0b0b0" offset="0"/>
      <stop id="stop3512" stop-color="#939393" offset="1"/>
    </linearGradient>
    <linearGradient id="linearGradient3514" x1="16.94" xlink:href="#linearGradient3508" gradientUnits="userSpaceOnUse" y1="27.853" gradientTransform="translate(-2.1213 3.0052)" x2="16.94" y2="24.135"/>
    <linearGradient id="linearGradient3524" x1="17.457" xlink:href="#linearGradient4633" gradientUnits="userSpaceOnUse" y1="37.662" gradientTransform="translate(-2.1213 3.0052)" x2="17.457" y2="27.232"/>
    <radialGradient id="radialGradient3542" gradientUnits="userSpaceOnUse" cy="22.532" cx="18.164" gradientTransform="matrix(1 0 0 .86006 0 3.2538)" r="2.8423">
      <stop id="stop3538" stop-color="#b0b0b0" offset="0"/>
      <stop id="stop3540" stop-color="#757575" offset="1"/>
    </radialGradient>
    <radialGradient id="radialGradient3548" xlink:href="#linearGradient3550" gradientUnits="userSpaceOnUse" cy="19.777" cx="17.097" gradientTransform="matrix(1.2083 0 0 .63649 -5.6833 8.6818)" r="4.5474"/>
    <radialGradient id="radialGradient3566" xlink:href="#linearGradient3560" gradientUnits="userSpaceOnUse" cy="13.002" cx="12.911" gradientTransform="matrix(1.8027 2.3075e-23 -2.6369e-23 1.5033 -12.485 -2.6591)" r="7.489"/>
    <linearGradient id="linearGradient3574" x1="14.883" xlink:href="#linearGradient3568" gradientUnits="userSpaceOnUse" y1="27.847" gradientTransform="translate(-2.1213 3.0052)" x2="13.401" y2="20.069"/>
    <linearGradient id="linearGradient3663" x1="14.883" xlink:href="#linearGradient3568" gradientUnits="userSpaceOnUse" y1="27.847" gradientTransform="translate(15.998 -9.9147)" x2="13.401" y2="20.069"/>
    <linearGradient id="linearGradient3665" x1="16.94" xlink:href="#linearGradient3508" gradientUnits="userSpaceOnUse" y1="27.853" gradientTransform="translate(15.998 -9.9147)" x2="16.94" y2="24.135"/>
    <linearGradient id="linearGradient3667" x1="17.457" xlink:href="#linearGradient4633" gradientUnits="userSpaceOnUse" y1="37.662" gradientTransform="translate(15.998 -9.9147)" x2="17.457" y2="27.232"/>
    <radialGradient id="radialGradient3671" xlink:href="#linearGradient3560" gradientUnits="userSpaceOnUse" cy="13.002" cx="12.911" gradientTransform="matrix(1.8027 2.3075e-23 -2.6369e-23 1.5033 5.6343 -15.579)" r="7.489"/>
    <radialGradient id="radialGradient3673" xlink:href="#linearGradient3550" gradientUnits="userSpaceOnUse" cy="19.777" cx="17.097" gradientTransform="matrix(1.2083 0 0 .63649 12.436 -4.238)" r="4.5474"/>
    <linearGradient id="linearGradient3677" x1="14.883" gradientUnits="userSpaceOnUse" y1="27.847" gradientTransform="translate(15.998 -9.9147)" x2="13.401" y2="20.069">
      <stop id="stop3691" stop-color="#5079ad" offset="0"/>
      <stop id="stop3693" stop-color="#729fcf" offset="1"/>
    </linearGradient>
    <radialGradient id="radialGradient3705" gradientUnits="userSpaceOnUse" cy="4.6072" cx="27.849" gradientTransform="matrix(1 0 0 .83393 2.1213 .65573)" r="7.489">
      <stop id="stop3699" stop-color="#c8d5e6" offset="0"/>
      <stop id="stop3701" stop-color="#427ebf" offset="1"/>
    </radialGradient>
    <radialGradient id="radialGradient4594" gradientUnits="userSpaceOnUse" cy="12.173" cx="30.974" gradientTransform="matrix(2.1321 -4.7342e-15 2.2674e-15 1.0211 -32.944 -3.6894)" r="4.8906">
      <stop id="stop4588" stop-color="#204a87" offset="0"/>
      <stop id="stop4590" stop-color="#142e55" offset="1"/>
    </radialGradient>
    <radialGradient id="radialGradient4602" gradientUnits="userSpaceOnUse" cy="22.429" cx="18.164" gradientTransform="matrix(1.871 -2.4999e-15 2.1501e-15 1.6092 -15.82 -13.548)" r="2.8423">
      <stop id="stop4598" stop-color="#75507b" offset="0"/>
      <stop id="stop4600" stop-color="#543958" offset="1"/>
    </radialGradient>
    <linearGradient id="linearGradient4619" x1="31.643" xlink:href="#linearGradient4633" gradientUnits="userSpaceOnUse" y1="13.617" gradientTransform="translate(2.1213 -.88388)" x2="31.643" y2="9.6385"/>
    <linearGradient id="linearGradient4645" y2="34.388" gradientUnits="userSpaceOnUse" y1="28.378" x2="15.335" x1="15.335">
      <stop id="stop4641" stop-color="#555753" offset="0"/>
      <stop id="stop4643" stop-color="#7c7f79" offset="1"/>
    </linearGradient>
    <radialGradient id="radialGradient4647" gradientUnits="userSpaceOnUse" cy="22.224" cx="18.164" gradientTransform="matrix(1 0 0 .86006 0 3.2538)" r="2.8423">
      <stop id="stop4651" stop-color="#80837d" offset="0"/>
      <stop id="stop4653" stop-color="#4c4d4a" offset="1"/>
    </radialGradient>
  </defs>
  <g id="layer2">
    <g id="g6707" transform="matrix(.015187 0 0 .020868 45.633 27.404)">
      <rect id="rect6709" opacity=".40206" style="color:black" height="478.36" width="1339.6" y="-150.7" x="-1559.3" fill="url(#linearGradient5027)"/>
      <path id="path6711" opacity=".40206" style="color:black" fill="url(#radialGradient5029)" d="m-219.62-150.68v478.33c142.88 0.9 345.4-107.17 345.4-239.2 0-132.02-159.44-239.13-345.4-239.13z"/>
      <path id="path6713" opacity=".40206" style="color:black" fill="url(#radialGradient5031)" d="m-1559.3-150.68v478.33c-142.8 0.9-345.4-107.17-345.4-239.2 0-132.02 159.5-239.13 345.4-239.13z"/>
    </g>
    <path id="path3627" style="color:#000000" d="m31.206 5.2049h3.702c4.287 0 9.548 1.3175 9.548 1.8561v22.627c0 0.539-0.437 0.973-0.98 0.973h-20.838c-0.542 0-0.979-0.434-0.979-0.973v-22.627c0-0.5386 5.172-1.8561 9.547-1.8561z" fill-rule="evenodd" stroke="#949494" fill="url(#linearGradient3663)"/>
    <path id="path3629" opacity=".61988" stroke-linejoin="round" style="color:#000000" d="m31.363 6.0664h3.388c3.922 0 8.735 1.5215 8.735 1.5215v22.069h-20.858v-22.069c0-0.0001 4.732-1.5216 8.735-1.5216z" stroke="#fff" fill="none"/>
    <path id="path3631" style="color:#000000" d="m33.411 10.508l-3.005 6.806v12.286l3.182 2.828 2.916-2.828v-12.463l-3.093-6.629z" fill-rule="evenodd" stroke="#949494" fill="url(#linearGradient3665)"/>
    <path id="path3633" opacity=".46784" style="color:#000000" d="m33.423 13.51l-2.005 4.412v11.048l2.133 2.053 1.941-2.053v-11.177l-2.069-4.283z" stroke="url(#linearGradient3667)" fill="none"/>
    <path id="path3635" style="color:#000000" d="m20.506 23.251a2.3423 1.9445 0 1 1 -4.684 0 2.3423 1.9445 0 1 1 4.684 0z" fill-rule="evenodd" transform="translate(15.114 -11.152)" stroke="#949494" fill="url(#radialGradient3542)"/>
    <path id="path3637" style="color:#000000" d="m33.057 10.331l-5.038 3.801s-1.856-5.5668-1.856-8.0432c0-2.4749 1.326-3.4472 2.74-3.4472h8.397c0.956 0 2.629 0.3978 2.828 3.2704s-2.033 8.22-2.033 8.22l-5.038-3.801z" fill-rule="evenodd" stroke="#949494" fill="url(#radialGradient3671)"/>
    <path id="path3639" style="color:#000000" fill-rule="evenodd" fill="#fff" d="m29.915 5.0281s-1.816 0.488-1.495 1.6591c0.32 1.1712 2.777 3.0255 2.777 3.0255h4.592s2.11-1.5616 2.35-2.7327-1.389-1.9519-1.389-1.9519h-6.835z"/>
    <path id="path3641" style="color:#000000" fill-rule="evenodd" fill="url(#radialGradient3673)" d="m29.738 4.0558s-1.815 0.488-1.495 1.6591c0.321 1.1712 2.777 3.0255 2.777 3.0255h4.592s2.11-1.5615 2.35-2.7327c0.24-1.1711-1.388-1.9519-1.388-1.9519h-6.836z"/>
    <path id="path3645" style="color:#000000" d="m31.206 5.2049h3.702c4.287 0 9.548 1.3175 9.548 1.8561v22.627c0 0.539-0.437 0.973-0.98 0.973h-20.838c-0.542 0-0.979-0.434-0.979-0.973v-22.627c0-0.5386 5.172-1.8561 9.547-1.8561z" fill-rule="evenodd" stroke="#3465a4" fill="url(#linearGradient3677)"/>
    <path id="path3647" opacity=".26316" stroke-linejoin="round" style="color:#000000" d="m31.363 6.0664h3.388c3.922 0 8.735 1.5215 8.735 1.5215v22.069h-20.858v-22.069c0-0.0001 4.732-1.5216 8.735-1.5216z" stroke="#fff" fill="none"/>
    <path id="path3649" style="color:#000000" d="m33.411 10.508s-3.005 4.931-3.005 6.806v12.286l3.182 2.828 2.916-2.828v-12.463c0-1.75-3.093-6.629-3.093-6.629z" fill-rule="evenodd" stroke="#5c3566" fill="#75507b"/>
    <path id="path3651" opacity=".25146" style="color:#000000" d="m33.423 13.51l-2.005 4.412v11.048l2.133 2.053 1.941-2.053v-11.177l-2.069-4.283z" stroke="url(#linearGradient3667)" fill="none"/>
    <path id="path3653" style="color:#000000" d="m20.506 23.251a2.3423 1.9445 0 1 1 -4.684 0 2.3423 1.9445 0 1 1 4.684 0z" fill-rule="evenodd" transform="translate(15.114 -11.152)" stroke="#5c3566" fill="url(#radialGradient4602)"/>
    <path id="path3655" style="color:#000000" d="m33.057 10.331l-5.038 3.801s-1.856-5.5668-1.856-8.0432c0-2.4749 1.326-3.4472 2.74-3.4472h8.397c0.956 0 2.629 0.3978 2.828 3.2704s-2.033 8.22-2.033 8.22l-5.038-3.801z" fill-rule="evenodd" stroke="#3465a4" fill="url(#radialGradient3705)"/>
    <path id="path3657" opacity=".33333" style="color:#000000" d="m29.915 5.0281s-1.816 0.488-1.495 1.6591c0.32 1.1712 2.277 3.0255 2.777 3.0255h4.592c0.75-0.0625 2.11-1.5616 2.35-2.7327s-1.389-1.9519-1.389-1.9519h-6.835z" fill-rule="evenodd" fill="#fff"/>
    <path id="path3659" style="color:#000000" fill-rule="evenodd" fill="url(#radialGradient4594)" d="m29.738 4.0558c-0.5 0-1.815 0.488-1.495 1.6591 0.321 1.1712 1.9 3.0255 2.777 3.0255h4.592c0.691 0 2.11-1.5615 2.35-2.7327 0.24-1.1711-0.888-1.9519-1.388-1.9519h-6.836z"/>
    <path id="path4609" opacity=".28655" style="color:#000000" d="m33.146 9.6836l4.684 3.5354 1.238-3.447-1.503 2.475-4.419-2.5634z" fill-rule="evenodd" fill="url(#linearGradient4619)"/>
    <path id="path4611" opacity=".28655" style="color:#000000" d="m32.792 9.8604l-4.419 3.3586-1.503-6.6289 2.033 5.3919 3.889-2.1216z" fill-rule="evenodd" fill="url(#linearGradient4619)"/>
  </g>
  <g id="layer1">
    <path id="rect2564" style="color:#000000" d="m13.086 18.125h3.703c4.286 0 9.547 1.317 9.547 1.856v22.627c0 0.539-0.437 0.973-0.98 0.973h-20.837c-0.5428 0-0.9797-0.434-0.9797-0.973v-22.627c0-0.539 5.1717-1.856 9.5467-1.856z" fill-rule="evenodd" stroke="#949494" fill="url(#linearGradient3574)"/>
    <path id="path3576" opacity=".61988" stroke-linejoin="round" style="color:#000000" d="m13.244 18.986h3.387c3.922 0 8.736 1.522 8.736 1.522v22.069h-20.858l-0.0003-22.069s4.7318-1.522 8.7353-1.522z" stroke="#fff" fill="none"/>
    <g id="g5022" transform="matrix(.015187 0 0 .020868 28.383 40.029)">
      <rect id="rect4173" opacity=".40206" style="color:black" height="478.36" width="1339.6" y="-150.7" x="-1559.3" fill="url(#linearGradient5027)"/>
      <path id="path5058" opacity=".40206" style="color:black" fill="url(#radialGradient5029)" d="m-219.62-150.68v478.33c142.88 0.9 345.4-107.17 345.4-239.2 0-132.02-159.44-239.13-345.4-239.13z"/>
      <path id="path5018" opacity=".40206" style="color:black" fill="url(#radialGradient5031)" d="m-1559.3-150.68v478.33c-142.8 0.9-345.4-107.17-345.4-239.2 0-132.02 159.5-239.13 345.4-239.13z"/>
    </g>
    <path id="path3446" style="color:#000000" d="m15.291 23.428l-3.005 6.806v12.286l3.182 2.828 2.917-2.828v-12.463l-3.094-6.629z" fill-rule="evenodd" stroke="#949494" fill="url(#linearGradient3514)"/>
    <path id="path3516" opacity=".46784" style="color:#000000" d="m15.303 26.43l-2.005 4.412v11.048l2.134 2.053 1.941-2.053v-11.177l-2.07-4.283z" stroke="url(#linearGradient3524)" fill="none"/>
    <path id="path3444" style="color:#000000" d="m20.506 23.251a2.3423 1.9445 0 1 1 -4.684 0 2.3423 1.9445 0 1 1 4.684 0z" fill-rule="evenodd" transform="translate(-3.0052 1.7678)" stroke="#949494" fill="url(#radialGradient3542)"/>
    <path id="path3440" style="color:#000000" d="m14.938 23.251l-5.0385 3.801s-1.8562-5.567-1.8562-8.043c0-2.475 1.3259-3.448 2.7397-3.448h8.397c0.957 0 2.63 0.398 2.829 3.271 0.199 2.872-2.033 8.22-2.033 8.22l-5.038-3.801z" fill-rule="evenodd" stroke="#949494" fill="url(#radialGradient3566)"/>
    <path id="path3442" style="color:#000000" fill-rule="evenodd" fill="#fff" d="m11.796 17.948s-1.8161 0.488-1.496 1.659c0.321 1.171 2.777 3.026 2.777 3.026h4.593s2.109-1.562 2.349-2.733c0.241-1.171-1.388-1.952-1.388-1.952h-6.835z"/>
    <path id="path3556" style="color:#000000" fill-rule="evenodd" fill="url(#radialGradient3548)" d="m11.619 16.976s-1.8159 0.488-1.496 1.659c0.321 1.171 2.777 3.025 2.777 3.025h4.593s2.109-1.561 2.35-2.732c0.24-1.172-1.389-1.952-1.389-1.952h-6.835z"/>
    <path id="path3580" style="color:#000000" d="m13.086 18.125h3.703c4.286 0 9.547 1.317 9.547 1.856v22.627c0 0.539-0.437 0.973-0.98 0.973h-20.837c-0.5428 0-0.9797-0.434-0.9797-0.973v-22.627c0-0.539 5.1717-1.856 9.5467-1.856z" fill-rule="evenodd" stroke="#949494" fill="url(#linearGradient3574)"/>
    <path id="path3582" opacity=".61988" stroke-linejoin="round" style="color:#000000" d="m13.244 18.986h3.387c3.922 0 8.736 1.522 8.736 1.522v22.069h-20.858l-0.0003-22.069s4.7318-1.522 8.7353-1.522z" stroke="#fff" fill="none"/>
    <path id="path3584" style="color:#000000" d="m15.291 23.428s-3.005 4.418-3.005 6.806v12.286l3.182 2.828 2.917-2.828v-12.463c0-2-3.094-6.629-3.094-6.629z" fill-rule="evenodd" stroke="#2e3436" fill="url(#linearGradient4645)"/>
    <path id="path3586" opacity=".46784" style="color:#000000" d="m15.303 26.43l-2.005 4.412v11.048l2.134 2.053 1.941-2.053v-11.177l-2.07-4.283z" stroke="url(#linearGradient3524)" fill="none"/>
    <path id="path3588" style="color:#000000" d="m20.506 23.251a2.3423 1.9445 0 1 1 -4.684 0 2.3423 1.9445 0 1 1 4.684 0z" fill-rule="evenodd" transform="translate(-3.0052 1.7678)" stroke="#2e3436" fill="url(#radialGradient4647)"/>
    <path id="path3590" style="color:#000000" d="m14.938 23.251l-5.0385 3.801s-1.8562-5.567-1.8562-8.043c0-2.475 1.3259-3.448 2.7397-3.448h8.397c0.957 0 2.63 0.398 2.829 3.271 0.199 2.872-2.033 8.22-2.033 8.22l-5.038-3.801z" fill-rule="evenodd" stroke="#949494" fill="url(#radialGradient3566)"/>
    <path id="path3592" style="color:#000000" fill-rule="evenodd" fill="#fff" d="m11.796 17.948s-1.8161 0.488-1.496 1.659c0.321 1.171 1.707 3.026 2.777 3.026h4.593c0.877 0 2.109-1.562 2.349-2.733 0.241-1.171-1.388-1.952-1.388-1.952h-6.835z"/>
    <path id="path3594" style="color:#000000" fill-rule="evenodd" fill="url(#radialGradient3548)" d="m11.619 16.976s-1.8159 0.488-1.496 1.659c0.321 1.171 1.652 3.025 2.777 3.025h4.593c0.75 0 2.109-1.561 2.35-2.732 0.24-1.172-1.389-1.952-1.389-1.952h-6.835z"/>
    <path id="path4604" opacity=".61988" style="color:#000000" d="m14.938 22.721l4.684 3.535 1.238-3.447-1.503 2.475-4.419-2.563z" fill-rule="evenodd" fill="#fff"/>
    <path id="path4607" opacity=".61988" style="color:#000000" d="m14.584 22.898l-4.419 3.358-1.5029-6.629 2.0329 5.392 3.889-2.121z" fill-rule="evenodd" fill="#fff"/>
  </g>
  <metadata>
    <rdf:RDF>
      <cc:Work>
        <dc:format>image/svg+xml</dc:format>
        <dc:type rdf:resource="http://purl.org/dc/dcmitype/StillImage"/>
        <cc:license rdf:resource="http://creativecommons.org/licenses/publicdomain/"/>
        <dc:publisher>
          <cc:Agent rdf:about="http://openclipart.org/">
            <dc:title>Openclipart</dc:title>
          </cc:Agent>
        </dc:publisher>
        <dc:title>tango preferences desktop theme</dc:title>
        <dc:date>2010-03-29T08:39:13</dc:date>
        <dc:description>"Desktop theme" icon from &lt;a href="http://tango.freedesktop.org/Tango_Desktop_Project"&gt; Tango Project &lt;/a&gt; &#xD;\n&lt;br&gt;&lt;br&gt;&#xD;\nSince version 0.8.90 Tango Project icons are Public Domain: &lt;a href="http://tango.freedesktop.org/Frequently_Asked_Questions#Terms_of_Use.3F"&gt; Tango Project FAQ &lt;/a&gt;</dc:description>
        <dc:source>http://openclipart.org/detail/35299/tango-preferences-desktop-theme-by-warszawianka</dc:source>
        <dc:creator>
          <cc:Agent>
            <dc:title>warszawianka</dc:title>
          </cc:Agent>
        </dc:creator>
        <dc:subject>
          <rdf:Bag>
            <rdf:li>clip art</rdf:li>
            <rdf:li>clipart</rdf:li>
            <rdf:li>externalsource</rdf:li>
            <rdf:li>icon</rdf:li>
            <rdf:li>shirt</rdf:li>
            <rdf:li>tango</rdf:li>
            <rdf:li>tie</rdf:li>
            <rdf:li>user</rdf:li>
          </rdf:Bag>
        </dc:subject>
      </cc:Work>
      <cc:License rdf:about="http://creativecommons.org/licenses/publicdomain/">
        <cc:permits rdf:resource="http://creativecommons.org/ns#Reproduction"/>
        <cc:permits rdf:resource="http://creativecommons.org/ns#Distribution"/>
        <cc:permits rdf:resource="http://creativecommons.org/ns#DerivativeWorks"/>
      </cc:License>
    </rdf:RDF>
  </metadata>
</svg>
