<?xml version="1.0"?>
<svg xmlns:rdf="http://www.w3.org/1999/02/22-rdf-syntax-ns#" xmlns="http://www.w3.org/2000/svg" xmlns:cc="http://creativecommons.org/ns#" xmlns:dc="http://purl.org/dc/elements/1.1/" xmlns:svg="http://www.w3.org/2000/svg" id="svg2" fill-rule="evenodd" xml:space="preserve" viewBox="0 0 215.9 279.4" version="1.0">
 <defs id="defs4">
  <style id="style6" type="text/css">
    .str0 {stroke:#1F1A17;stroke-width:0.0762}
    .str1 {stroke:#FFF500;stroke-width:0.0762}
    .str2 {stroke:white;stroke-width:0.0762}
    .fil4 {fill:none}
    .fil5 {fill:#1F1A17}
    .fil7 {fill:#4C4840}
    .fil6 {fill:#716F61}
    .fil0 {fill:#7A896C}
    .fil1 {fill:#99AE6A}
    .fil2 {fill:#B8DB7C}
    .fil3 {fill:#F5C491}
  </style>
 </defs>
 <g id="Capa_x0020_1" transform="matrix(2 0 0 2 -109.75 -133.54)">
  <g id="_44132624" stroke-width=".0762">
   <path id="_42077968" class="fil0 str0" fill="#7a896c" stroke="#1f1a17" d="m109.46 141.49c41.51 0 74.76 30.28 74.76 44.53 0 14.24-30.41 15.29-74.76 18.74-44.342 3.44-83.09-17.48-75.154-31.64 7.935-14.16 33.657-31.63 75.154-31.63z"/>
   <polygon id="_44747392" stroke="#1f1a17" points="94.617 142.27 119.29 143 124.91 159.6 117.96 161.78 129.91 167.98 122.21 203.79 121.28 203.86 115.99 204.26 112.28 204.54 107.38 204.9 101.43 205.06 97.553 205.12 94.17 205.02 90.74 204.82 90.008 204.76 85.092 167.23 94.446 162.66 88.139 158.35" fill="#99ae6a" class="fil1 str0"/>
   <path id="_44484312" class="fil2 str0" fill="#b8db7c" stroke="#1f1a17" d="m115.26 144.59c2.15 8.97 3.47 21.16 3.47 34.58 0 9.11-0.61 17.65-1.67 25.01l-4.78 0.36-6.64 0.4-6.856 0.19-3.228-0.06c-1.146-7.56-1.808-16.42-1.808-25.9 0-13.89 1.419-26.46 3.707-35.52 3.185 1.34 6.615 2.07 10.195 2.07 2.63 0 5.18-0.39 7.61-1.13z"/>
   <ellipse id="_44279128" ry="5.6288" rx="5.261" stroke="#1f1a17" cy="147.34" cx="106.62" class="fil0 str0" fill="#7a896c"/>
   <ellipse id="_44756128" ry="35.867" rx="30.426" stroke="#1f1a17" cy="109.85" cx="107.65" class="fil3 str0" fill="#f5c491"/>
   <path id="_44872448" class="fil0 str0" fill="#7a896c" stroke="#1f1a17" d="m105.09 152.73l-2.07 21.2-3.041 31.08c4.101-0.01 9.331-0.1 13.541-0.39l-3-30.69-2.08-21.3c-0.57 0.22-1.18 0.34-1.82 0.34-0.53 0-1.05-0.08-1.53-0.24z"/>
   <polygon id="_44715040" stroke="#1f1a17" points="53.023 176.57 77.404 176.57 77.404 203.15 75.433 202.8 72.312 202.15 67.643 201.01 63.85 199.92 60.806 198.93 57.453 197.72 54.573 196.56 53.023 195.87" fill="none" class="fil4 str0"/>
   <rect id="_45121544" class="fil4 str0" height="8.54" width="24.381" stroke="#1f1a17" y="176.57" x="53.023" fill="none"/>
   <polygon id="_44882304" stroke="#1f1a17" points="132.01 175.16 155.79 175.16 155.79 200.65 153.67 200.94 149.84 201.39 146 201.8 140.5 202.32 135.21 202.78 132.01 203.03" fill="none" class="fil4 str0"/>
   <rect id="_43339784" class="fil4 str0" height="9.2943" width="23.777" stroke="#1f1a17" y="175.16" x="132.01" fill="none"/>
   <g id="g21" stroke="#fff500" fill="#1f1a17">
    <path id="_44877144" class="fil5 str1" d="m96.647 95.781c5.953 0 8.963 1.481 8.963 6.039 0 1.71-1.28 4.31-2.44 5.63-1.94 2.19-4.404 4.76-8.124 4.76-5.953 0-9.179-3.61-9.179-8.17 0-4.561 4.828-8.259 10.78-8.259z"/>
    <path id="_44714144" class="fil5 str1" d="m119.42 96.024c-5.96 0-8.97 1.481-8.97 6.036 0 1.71 1.28 4.31 2.45 5.63 1.93 2.19 4.4 4.76 8.12 4.76 5.95 0 9.18-3.61 9.18-8.17 0-4.558-4.83-8.256-10.78-8.256z"/>
   </g>
   <line id="_44803952" x1="78.244" class="fil4 str0" y1="100.61" stroke="#1f1a17" x2="86.41" y2="101.44" fill="none"/>
   <line id="_44804280" x1="103.9" class="fil4 str0" y1="101.82" stroke="#1f1a17" x2="112.38" y2="101.64" fill="none"/>
   <line id="_44803264" x1="129.47" class="fil4 str0" y1="101.3" stroke="#1f1a17" x2="136.77" y2="99.419" fill="none"/>
   <path id="_44804520" class="fil6 str0" fill="#716f61" stroke="#1f1a17" d="m85.079 67.632l46.331-0.166c1.24-0.004 2.26 0.601 3 1.592l14.59 19.521c0.82 1.09 0.84 2.497 0.19 3.702-0.64 1.204-1.81 1.907-3.18 1.906l-77.281-0.048c-1.373-0.001-2.55-0.714-3.187-1.93s-0.654-2.677 0.229-3.719l16.361-19.306c0.781-0.922 1.733-1.547 2.947-1.552z"/>
   <polygon id="_44908368" stroke="#fff" points="85.15 70.063 132.3 70.063 138 94.178 77.655 94.178" fill="#4c4840" class="fil7 str2"/>
  </g>
 </g>
<metadata><rdf:RDF><cc:Work><dc:format>image/svg+xml</dc:format><dc:type rdf:resource="http://purl.org/dc/dcmitype/StillImage"/><cc:license rdf:resource="http://creativecommons.org/licenses/publicdomain/"/><dc:publisher><cc:Agent rdf:about="http://openclipart.org/"><dc:title>Openclipart</dc:title></cc:Agent></dc:publisher><dc:title>guardia civil</dc:title><dc:date>2006-11-24T04:38:38</dc:date><dc:description>agent, agent, clip art, clipart, costume, costume, guard, guard, image, man, man, media, people, people, png, public domain, soldier, soldier, svg, </dc:description><dc:source>http://openclipart.org/detail/1607/guardia-civil-by-rilke</dc:source><dc:creator><cc:Agent><dc:title>rilke</dc:title></cc:Agent></dc:creator><dc:subject><rdf:Bag><rdf:li>agent</rdf:li><rdf:li>clip art</rdf:li><rdf:li>clipart</rdf:li><rdf:li>costume</rdf:li><rdf:li>guard</rdf:li><rdf:li>image</rdf:li><rdf:li>man</rdf:li><rdf:li>media</rdf:li><rdf:li>people</rdf:li><rdf:li>png</rdf:li><rdf:li>public domain</rdf:li><rdf:li>soldier</rdf:li><rdf:li>svg</rdf:li></rdf:Bag></dc:subject></cc:Work><cc:License rdf:about="http://creativecommons.org/licenses/publicdomain/"><cc:permits rdf:resource="http://creativecommons.org/ns#Reproduction"/><cc:permits rdf:resource="http://creativecommons.org/ns#Distribution"/><cc:permits rdf:resource="http://creativecommons.org/ns#DerivativeWorks"/></cc:License></rdf:RDF></metadata></svg>
