<?xml version="1.0"?>
<svg xmlns:rdf="http://www.w3.org/1999/02/22-rdf-syntax-ns#" xmlns="http://www.w3.org/2000/svg" xmlns:cc="http://creativecommons.org/ns#" xmlns:xlink="http://www.w3.org/1999/xlink" xmlns:dc="http://purl.org/dc/elements/1.1/" xmlns:svg="http://www.w3.org/2000/svg" id="svg4660" viewBox="0 0 164.16 272.48" version="1.1">
  <defs id="defs4662">
    <linearGradient id="linearGradient4518" y2="248.92" gradientUnits="userSpaceOnUse" x2="550.63" gradientTransform="matrix(-.9918 -12.804 -12.804 .9918 6744.6 -3744.8)" y1="276.06" x1="547.53">
      <stop id="stop4522" stop-color="#fff" offset="0"/>
      <stop id="stop4524" stop-color="#74ff29" offset="1"/>
    </linearGradient>
    <linearGradient id="linearGradient4487" y2="460.09" gradientUnits="userSpaceOnUse" x2="-268.41" gradientTransform="matrix(201.1 227.43 227.43 -201.1 -49926 1.5399e5)" y1="460.09" x1="-270.08">
      <stop id="stop142" stop-color="#FFD8BF" offset="0"/>
      <stop id="stop144" stop-color="#BF7400" offset=".5393"/>
      <stop id="stop146" offset="1"/>
    </linearGradient>
    <linearGradient id="linearGradient4477" y2="460.1" gradientUnits="userSpaceOnUse" x2="-268.4" gradientTransform="matrix(201.1 227.43 227.43 -201.1 -49926 1.5399e5)" y1="460.1" x1="-270.09">
      <stop id="stop172" stop-color="#F3C192" offset="0"/>
      <stop id="stop174" stop-color="#D49035" offset=".5393"/>
      <stop id="stop176" stop-color="#765735" offset="1"/>
    </linearGradient>
  </defs>
  <g id="layer1" transform="translate(-529.35 -530.41)">
    <g id="g4526" transform="translate(72.005 408.26)">
      <path id="path3266" fill="#73d216" d="m619.57 330.85c0 45.938-44.044 62.126-83.516 61.114-43.836-1.126-82.184-23.902-76.4-72.264 4.978-41.648 37.762-89.402 84.358-86.64 47.516 2.814 75.558 54.864 75.558 97.79"/>
      <path id="path3268" fill="#8ae234" d="m540.31 234.71c-45.336 0-75.902 47.8-79.278 88.666-3.9 47.282 37.326 66.856 78.942 66.856-37.754 0-78.34-16.924-76.442-60.542 1.818-41.78 34.532-74.728 76.748-74.728 40.208 0 71.12 29.5 74.434 69.33 3.802 45.754-33.596 65.94-74.678 65.94 40.186 0 79.44-18.68 77.662-64.026-1.636-41.788-30.726-91.496-77.388-91.496"/>
      <path id="path3270" fill="#4e9a06" d="m481.78 262.71c-25.348 31.744-39.262 89.712 0.402 116.18 32.26 21.52 91.224 21.96 120.86-4.856 31.268-28.296 18.122-82.32-4.734-111.62-31.412-40.256-84.782-39.366-116.53 0.296m-21.37 69.566c0-44.65 33.046-100.67 83.424-97.744 45.376 2.636 72.616 50.884 74.168 91.98 1.646 43.63-34.196 62.89-73.616 63.928-37.66 0.996-83.976-13.12-83.976-58.164"/>
      <path id="path3272" fill="#4e9a06" d="m540.18 368.61c-26.774 0-59.094-4.014-78.618-24.488 6.86 34.126 43.316 45.49 73.982 46.324 32.876 0.896 73.282-8.804 81.144-45.872-18.952 20.148-50.358 24.036-76.508 24.036"/>
      <path id="path3274" fill="#4e9a06" d="m540.31 233.83c42.562 0 70.616 43.026 75.084 81.346 5.168 44.314-25.76 68.4-67.51 70.664-37.476 2.026-85.5-11.688-85.5-56.956 0-41.454 28.508-91.786 73.924-94.936-45.49 3.078-74.742 52.352-76.416 93.964-1.908 47.352 43.712 64.216 84.108 63.176 41.912-1.078 77.856-22.838 74.376-68.742-3.116-41.06-32.382-88.516-78.066-88.516"/>
      <path id="path3276" fill="#73d216" d="m556.85 274.33c-4.598 5.638-10.152 11.276-17.014 6.236-4.574 4.348-6.668 4.362-2.938 10.204 3.188 4.978 3.274 8.398 9.64 7.984 6.886-0.454 18.478-0.966 20.956-8.136 1.83-5.294 4.12-6.978-1.016-10.532-3.072-2.132-6.302-4.046-9.628-5.756m32.09-1.46c-1.22 0.684-2.438 1.368-3.652 2.058 2.878 1.014 2.174 1.442 3.652-2.058m-92.046-5.072c-7.654 5.112-2.75 8.466 3.23 13.934 3.054 2.788 5.734 7.11 9.346 3.984 2.426-2.098 5.434-4.012 7.41-6.57-7.204-2.236-20.516-0.25-19.986-11.348m5.88-20.91c-2.558 1.79-15.398 10.314-14.98 13.65 4.546-5.072 9.722-9.36 14.98-13.65m72.35-1.88c-1.5 0.948 1.89 1.736 2.884 1.94-0.96-0.644-1.924-1.296-2.884-1.94"/>
      <path id="path3278" fill="#73d216" d="m575.13 250.57c-1.056 0.744-2.112 1.486-3.172 2.236 0.972 0.624 1.95 1.25 2.922 1.874 0.084-1.368 0.166-2.742 0.25-4.11m-74.688-1.692c-9.204 6.926-15.468 11.532-8.768 22.754 6.482-5.204 7.064-12.15 12.418-18.82-1.256-0.828-5.432-2.368-3.65-3.934m74.406-3.696c-0.578 0.348-1.162 0.698-1.738 1.04 4.692 3.684 0.77 0.73 4.286 0.666-0.848-0.568-1.698-1.132-2.548-1.706"/>
      <path id="path3280" fill="#4e9a06" d="m505.17 244.92c-5.744 3.802-10.958 8.366-15.606 13.438 1.384-1.46 14.28-14.32 15.606-13.438m70.148-0.04c-1.336 0.87 1.944 1.796 3.058 2.164-1.016-0.716-2.038-1.44-3.058-2.164m-72.602-1.584c-5.208 3.458-15.334 9.26-15.01 16.102 5.082-5.58 10.828-10.572 17.178-14.656-0.726-0.486-1.446-0.966-2.168-1.446m75.08-0.06c-0.716 0.478-1.43 0.954-2.146 1.434 5.886 3.834 11.066 8.334 15.812 13.522-0.408-6.892-8.26-11.358-13.666-14.956"/>
      <path id="path3282" fill="#4e9a06" d="m588.56 255.16c0.974 1.184 1.956 2.374 2.934 3.558 0.034-1.624-0.948-2.808-2.934-3.558m-83.67-10.412c-3.638 2.342-17.54 10.952-17.108 15.628 1.82-2.11 15.614-16.608 17.108-15.628m70.764-0.072c-1.446 0.92 4.374 3.136 5.04 3.578-1.632-1.264-3.314-2.452-5.04-3.578"/>
      <path id="path3284" fill="#f4f4f4" d="m571.83 241.07c-20.106-14.142-46.284-11.834-66.802 0.79 5.838 9.102 12.514 17.694 20.008 25.496 4.364 4.538 12.214 14.274 18.78 15.582 14.838 2.966 26.616-32.1 28.014-41.868"/>
      <path id="path3286" fill="#73d216" d="m511.24 248.32c0.676 4.604 3.076 4.906 6.004 2.572-2.044-0.756-4.044-1.612-6.004-2.572m59.206-0.644c-1.24 0.592-2.478 1.184-3.718 1.776 0.886 0.566 1.776 1.138 2.664 1.71 0.348-1.164 0.702-2.322 1.054-3.486m-62.146-0.888c0.73 1.06 1.244 0.684 0 0"/>
      <path id="path3288" fill="#d3d7cf" d="m524.8 271.53c0-5.334 38.902 0.25 42.722 1.078 5.652 1.236 8.652 1.942 7.406 8.092-1.726 8.524-5.028 16.884-8.458 24.842-2.144 4.972-5.358 15.228-10.722 17.828-3.508 1.702-9.104-8.96-10.356-10.954-5.04-8.012-9.504-16.404-13.712-24.876-2.114-4.262-6.88-11.036-6.88-16.01"/>
      <path id="path3290" fill="#8ae234" d="m557.96 282.32c2.05 5.308 8.328 16.694 6.268 22.344-2.038 5.584-6.708 22.976-13.69 15.062-8.102-9.182-8.818-14.226-5.78-25.494 2.946-10.906 2.042-11.076 13.202-11.912"/>
      <path id="path3292" fill="#4e9a06" d="m557.81 280.37c-10.756 0.816-11.144-0.394-13.986 9.874-3.708 13.38-4.42 20.036 5.502 31.052 8.588 9.558 14.01-8.74 16.496-15.33 1.894-5.026-3.372-24.45-8.012-25.596m-1.16 4c5.112 13.372 8.358 24.35-2.478 36.182-4.082-2.946-10.962-11.318-9.822-16.706 0.912-4.294 2.126-8.532 3.296-12.762 1.852-6.694 2.342-6.214 9.004-6.714"/>
      <path id="path3294" fill="#8ae234" d="m541.67 274.6c1.944-1.514 6.314-6.52 8.666-6.742 1.332-0.126 8.898 3.472 9.038 4.676 1.61 13.872-13.304 12.78-17.704 2.066"/>
      <path id="path3296" fill="#4e9a06" d="m549.14 266.31c-1.686 1.316-10.24 6.506-9.546 8.308 2.23 5.8 7.126 11.754 14.052 10.708 14.066-2.132 7.838-21.508-4.506-19.016m1.464 3.816c2.298 1.05 4.594 2.11 6.894 3.156 0.222 3.256-0.314 7.572-4.438 8.176-3.302 0.508-5.95-1.708-7.706-4.204-2.396-3.404 2.58-5.038 5.25-7.128"/>
      <path id="path3298" d="m563.98 250.57c-7.554 2.908-15.638 4.388-23.732 4.388-9.318 0-16.996-4.02-25.57-0.296 5.738 10.096 11.952 19.932 18.166 29.738 3.258-3.776 12.234-15.004 17.892-15.532 5.486-0.512 16.048 8.29 19.93 11.242 1.516-5.854 2.66-11.8 3.432-17.792 0.936-7.282-4.416-8.084-10.118-11.748" fill="url(#linearGradient4518)"/>
      <path id="path3300" fill="#73d216" d="m547.55 237.74c-14.56 6.314-29.118 12.628-43.676 18.944 9.01 11.984 16.98 24.338 25.004 37.012 5.416-8.392 16.81-25.034 27.49-19.608 3.8 1.928 18.21 14.734 21.128 13.846 5.152-1.586 6.772-15.628 7.68-19.852 2.05-9.57-6.752-11.122-14.518-16.108-6.684-4.296-15.61-12.486-23.108-14.234m0.364 2.518c8.198 5.314 16.444 10.564 24.666 15.838 3.564 2.29 7.126 4.578 10.696 6.862 1.562 1.006-3.644 20.646-6.384 22.522-4.586-4.514-18.732-17.418-26.158-16.61-7.298 0.79-18.04 15.248-21.762 20.424-6.81-10.826-13.63-21.37-21.28-31.61 13.42-5.77 26.802-11.644 40.222-17.426"/>
      <path id="path3302" fill="#4e9a06" d="m509.66 249.5c12.6 24.982 29.252 48.334 44.65 71.65 10.508-14.088 16.792-31.736 20.146-48.818 1.504-7.644 2.388-15.406 2.676-23.194 0.042-1.112 7.7 5.058 8.104 5.454 2.752 2.684 7.976 7.584 7.266 11.97-0.712 4.368-10.426 5.316-10.426 8.612 0 4.032 14.858 1.762 11.496 8.958-3.624 7.746-9.724 14.766-15.296 21.146-6.298 7.222-18.942 24.296-28.342 18.844-11.834-6.86-23.5-14.378-33.912-23.292-1.882-1.604-10.406-7.584-8.05-10.866 1.762-2.454 16.052-11.202 8.62-12.94-5.88-1.374-18.148-0.118-17.752-9.01 0.308-7.022 6.128-13.726 10.82-18.514"/>
      <path id="path3304" fill="#4e9a06" d="m508.3 248.11c-5.208 5.104-11.428 12.636-11.428 20.312 0 10.542 13.05 8.57 20.004 10.728-8.62 11.168-15.794 11.196-3.09 22.364 5.788 5.092 12.078 9.618 18.47 13.904 4.25 2.856 17.57 14.308 22.51 13.708 4.038-0.488 10.56-7.958 13.43-10.618 6.79-6.276 13.012-13.194 18.628-20.536 8.196-10.708 13.99-17.582-1.542-23.042 10.024-5.98 11.508-10.932 3.15-19.898-2.426-2.604-6.928-7.814-10.794-8.136-4.106-0.34-3.316 13.788-3.692 16.55-2.59 18.958-8.796 38.288-19.578 54.252-15.264-23.16-32.112-46.432-44.162-71.472-0.634 0.634-1.272 1.26-1.906 1.884m6.154 38.524c10.584-8.676 5.628-11.042-5.522-12.78-13.742-2.13-6.09-13.88 0.276-21.016 13.234 24.648 29.228 48.082 44.736 71.348-12.058-6.848-23.878-14.36-34.626-23.154-6.582-5.386-12.674-7.998-4.864-14.398m41.368 35.738c15.348-19.018 21.818-46.874 23.098-70.594 4.886 3.5 16.652 12.578 8.21 17.634-16.286 9.756 2.292 5.684 5.126 12.886-0.968 6.458-9.228 14.326-13.176 19.016-6.932 8.236-15.384 18.11-24.804 23.054 0.518-0.668 1.032-1.332 1.546-1.996"/>
      <path id="path3306" fill="#fcd095" d="m602.57 193.4c0 33.638-29.408 59.89-62.32 59.89s-62.318-26.25-62.318-59.89c0-33.648 29.39-59.922 62.318-59.922 32.932 0 62.32 26.27 62.32 59.922"/>
      <path id="path3308" fill="#ffe2ae" d="m498.45 170.91c14.21-16.636 38.996-20.75 59.366-15.128 22.334 6.164 33.676 24.218 37.052 46.194 4.964-32.678-22.32-61.014-54.622-61.014-32.338 0-59.57 28.358-54.618 61.042 1.686-10.952 5.542-22.544 12.822-31.094"/>
      <path id="path3310" fill="#fabb78" d="m600.32 186.18c-3.458 26.606-18.06 46.952-45.858 51.806-34.02 5.946-69.704-15.82-74.292-51.798-5.012 36.918 28.054 67.59 64.05 65.334 33.266-2.084 60.426-31.592 56.1-65.342"/>
      <path id="path3312" fill="url(#linearGradient4487)" d="m480.1 186.33c-1.626 3.388-0.776 8.058-0.266 11.564-0.306-3.848-0.216-7.736 0.266-11.564m119.3-5.55c7.804 33.822-17.652 66.15-51.272 70.374-18.394 2.316-37.308-3.698-50.714-16.57-12.084-11.61-15.428-26.83-21.216-41.454 0 34.92 30.048 61.824 64.042 61.824 38.076 0 70.536-34.264 62.94-73.004 0.32 0.73 0.268 1.356-0.162 1.888-1.41-0.762-2.614-1.782-3.618-3.058m2.292-3.474c0.068 1.488 0.068 1.488 0 0m-0.062-1.038c0.068 1.116 0.068 1.116 0 0m-0.05-0.606c0.046 0.566 0.016 0.15 0 0"/>
      <path id="path3314" fill="#edd400" d="m584.59 142.15c10.638 10.816 16.534 20.25 17.158 36.274-0.032-0.948-12-11.242-13.824-12.728-4.482-3.656-9.65 4.152-14.026 6.388-11.062 5.658-27.876 9.972-40.064 5.94-6.514-2.152-14.074-6.518-21.13-4.374-4.084 1.244-6.696 4.808-8.314 8.576-1.644 3.822-1.882 19.154-4.364 20.774-0.944 0.61-8.952-17.556-10.018-19.174-12.982-19.656-12.666 14.688-11.12 14.298-8.346 2.078-1.826-33.21-0.592-35.98 5.862-13.162 16.54-23.318 29.45-29.494 23.352-11.172 57.814-9.986 76.844 9.5"/>
      <path id="path3316" fill="#c4a000" d="m474.11 182.73c0.154 3.572 2.272 7.532 2.272 10.848-0.452-1.06 2.02 4.914 2.528 4.53 0.818-5.44-3.71-10.07-4.8-15.378m110.07-24.114c-1.442 0-6.354 5.422-7.848 6.348-4.37 2.704-9.23 4.59-14.172 5.96-13.096 3.63-23.504 2.21-36.462 0.072-7.518-1.236-14.05-5.742-19.562 1.586-2.124 2.822-7.554 25.106-6.964 25.106-2.822 0-8.008-16.32-9.512-18.746-1.778-2.876-7.21-7.182-10.642-4.454-3.548 2.816-1.744 10.4-1.18 14.07-1.502-7.986 3.398-11.248 10.038-7.104 2.602 2.492 9.646 21.89 12.038 21.594 0.822-0.19 3.94-20.18 5.622-23.146 2.332-4.126 6.072-6.768 10.886-6.768 8.244 0.282 15.376 6.136 23.528 6.136 10.35 0 20.958-1.566 30.542-5.604 3.196-1.348 11.852-9.676 14.346-9.676 6.532-1.27 10.82 14.808 16.682 14.808 0.918 0-0.604-8.762-0.708-9.346 0.826 1.526 0.838 2.854 0.042 3.986-6.206-0.002-9.708-14.822-16.674-14.822"/>
      <path id="path3318" fill="#fce94f" d="m576.05 159.51c0 19.094-70.048 17.372-70.048 1.274 12.872 2.814 27.114 5.152 40.276 3.792 3.418-0.358 29.772-9.798 29.772-5.066"/>
      <path id="path3320" fill="#f3d4b2" d="m600.16 166.13c1.218 5.176 1.998 10.598 3.03 15.828-0.332-5.368-1.208-10.75-3.03-15.828"/>
      <path id="path3322" fill="#f2bd7e" d="m481.87 179.18c-1.056 0-1.672 6.406-1.77 7.156-0.18 0.382 0.07-0.178 0.07-0.144 1.164-2.256 3.548-2.25 5.66-1.482 0.77-4.136 0.83-5.53-3.96-5.53m98.144-10.932c-7.298 5.644-16.678 8.46-25.664 9.9-13.158 2.118-20.28-1.25-32.75-4.308-16.566-4.064-20.018 14.188-20.968 26.922 0.298 1.224 0.034 1.986-0.796 2.294-4.386-5.25-5.808-12.628-9.378-18.516-0.666 1.618 8.36 23.548 10.892 23.548 4.626 0 0.338-33.652 20.664-29.468 12.488 2.564 20.23 6.688 33.498 4.616 9.746-1.526 20.278-4.65 27.768-11.39-1.02-1.262-2.106-2.46-3.266-3.598m6.042-3.848c4.24 6.012 8.188 11.044 13.346 16.386-1.464-6.354-7.502-13.202-13.346-16.386"/>
      <path id="path3324" fill="#f3c58a" d="m486.73 180.78c-1.644 6.084-1.39 2.558 2.894 5.886 1.124-3.012-0.266-4.434-2.894-5.886m98.106-16.794c-1.316 0-3.846 3.506-4.816 4.256 1.16 1.138 2.246 2.336 3.262 3.6 3.294-2.96 3.26-3.678 6.966-0.402-0.85-1.724-2.936-7.454-5.412-7.454"/>
      <path id="path3326" fill="#f1b26f" d="m479.84 197.9c0.216 1.724 0.43 3.448 0.648 5.17-0.08-1.736-0.298-3.46-0.648-5.17m0.334-11.714"/>
      <path id="path3328" fill="url(#linearGradient4477)" d="m481.48 179.2c-4.256 0.388-3.832 6.742-3.61 9.59-0.006-0.04 1.514 9.01 1.042 9.32-0.79-1.466-1.854-2.86-2.522-4.504 0.25 1.138 2.226 9.584 3.996 9.584-2.932 0 0.488-21.668 1.094-23.99m120.11-3.532c0.066 0.92 0.118 1.834 0.156 2.754 0.038 0.238-0.042 0.362-0.232 0.376-1.356-0.724-2.518-1.698-3.48-2.928 0.56 1.698 1.552 7.972 4.99 7.972 1.024 0.002-1.288-7.7-1.434-8.174"/>
      <path id="path3330" fill="#d69c5d" d="m500.11 202.92c-0.08 0.086-0.17 0.132-0.276 0.132 0.092-0.046 0.184-0.094 0.276-0.132m-21.39-4.882c0.05 0.028 0.098 0.054 0.148 0.08-0.05-0.026-0.098-0.052-0.148-0.08m-1.338-2.248c0.132 0.25 0.264 0.506 0.394 0.756-0.132-0.25-0.264-0.506-0.394-0.756m-0.382-0.782c0.214 0.432 0.214 0.432 0 0m-0.372-0.83c0.28 0.626 0.28 0.626 0 0m-0.244-0.598c0 0.026 0.392 0.992 0 0m5.486-14.406c-0.734 0.236-1.462 0.474-2.198 0.71 3.216-1.506 9.024 2.084 8.196 1.566-1.808-1.296-3.808-2.058-5.998-2.276m119.79-0.426c-0.05 0.012-0.1 0.032-0.148 0.046 0.048-0.014 0.098-0.034 0.148-0.046m0.022-1.64c0.014 0.264 0.014 0.264 0 0m-0.074-1.176c0.028 0.448 0.028 0.448 0 0m-84.82-2.802c3.348 0.236 6.584 0.972 9.706 2.216-3.118-1.112-6.368-2.124-9.706-2.216m-0.374 0c-0.478 0-0.478 0 0 0m77.388-1.744c0.844 0.902 1.694 1.802 2.54 2.704-0.846-0.902-1.69-1.802-2.54-2.704m6.306-5.392c0.724 3.084 1.208 6.202 1.454 9.36-0.146-1.83-0.752-7.526-1.454-9.36m-15.278-2.008c-0.626 0.178-0.626 0.178 0 0"/>
      <path id="path3332" fill="#c4a000" d="m478.91 198.11c-0.056 0.02-0.056 0.02 0 0m-2.528-4.53c0 1.044 1.806 3.972 2.338 4.464-0.962-1.388-1.744-2.872-2.338-4.464m1.91-0.968c0-1.988 0.832 5.34 0.618 5.498 0.04-1.854-0.168-3.69-0.618-5.498m10.404-10.464c2.084 2.696 8.33 20.91 11.138 20.91-5.462-5.612-5.558-15.182-11.138-20.91m-0.826-0.692m-8.196-1.564c-2.266 1.808-2.232 6.446-1.806 8.9-0.204-2.58-0.576-6.98 1.806-8.9m122.07-1.468c-0.112 0.434-0.112 0.434 0 0m-5.402-4.328c0.928 1.144 3.552 4.704 5.17 4.704-1.99-1.258-3.714-2.828-5.17-4.704m-80.288-0.96c-4.67 0.11-8.268 2.774-10.528 6.768-1.682 2.964-4.798 22.956-5.622 23.146 0.75-0.394 0.99-1.158 0.724-2.288 0.67-9.504 2.522-27.324 15.426-27.626m0.36 0c0.762-0.008 1.522 0.046 2.278 0.15-0.76-0.052-1.518-0.104-2.278-0.15m67.946-9.012c-8.74 5.828-14.868 10.874-25.732 13.22-14.874 3.216-23.592-0.486-37.614-3.644 12.528 2.83 19.952 6.578 33.204 4.466 12.708-2.018 20.014-7.294 30.142-14.042m0.472-0.132c-0.002 0-0.002 0 0 0 3.788 1.506 6.506 4.876 9.298 7.75-1.796-1.848-6.116-7.75-9.298-7.75"/>
      <path id="path3334" fill="#c4a000" d="m475.76 187.99c0-37.412 36.838-62.55 72.022-58.496 38.386 4.426 68.058 43.518 51.064 81.124 23.134-41.612-15.688-88.47-59.258-88.47-43.574 0-81.984 47.004-58.922 88.476-3.208-7.098-4.906-14.838-4.906-22.634"/>
    </g>
  </g>
  <metadata>
    <rdf:RDF>
      <cc:Work>
        <dc:format>image/svg+xml</dc:format>
        <dc:type rdf:resource="http://purl.org/dc/dcmitype/StillImage"/>
        <cc:license rdf:resource="http://creativecommons.org/licenses/publicdomain/"/>
        <dc:publisher>
          <cc:Agent rdf:about="http://openclipart.org/">
            <dc:title>Openclipart</dc:title>
          </cc:Agent>
        </dc:publisher>
        <dc:title>Architetto remix - Green blond man icon</dc:title>
        <dc:date>2011-09-29T15:29:55</dc:date>
        <dc:description>clip art, clipart, icon, man, people, user, </dc:description>
        <dc:source>http://openclipart.org/detail/162265/architetto-remix---green-blond-man-icon-by-alexg</dc:source>
        <dc:creator>
          <cc:Agent>
            <dc:title>alexg</dc:title>
          </cc:Agent>
        </dc:creator>
        <dc:subject>
          <rdf:Bag>
            <rdf:li>clip art</rdf:li>
            <rdf:li>clipart</rdf:li>
            <rdf:li>icon</rdf:li>
            <rdf:li>man</rdf:li>
            <rdf:li>people</rdf:li>
            <rdf:li>user</rdf:li>
          </rdf:Bag>
        </dc:subject>
      </cc:Work>
      <cc:License rdf:about="http://creativecommons.org/licenses/publicdomain/">
        <cc:permits rdf:resource="http://creativecommons.org/ns#Reproduction"/>
        <cc:permits rdf:resource="http://creativecommons.org/ns#Distribution"/>
        <cc:permits rdf:resource="http://creativecommons.org/ns#DerivativeWorks"/>
      </cc:License>
    </rdf:RDF>
  </metadata>
</svg>
