<?xml version="1.0"?>
<svg xmlns:rdf="http://www.w3.org/1999/02/22-rdf-syntax-ns#" xmlns="http://www.w3.org/2000/svg" xmlns:cc="http://creativecommons.org/ns#" xmlns:xlink="http://www.w3.org/1999/xlink" xmlns:dc="http://purl.org/dc/elements/1.1/" xmlns:svg="http://www.w3.org/2000/svg" id="svg2972" viewBox="0 0 45.717 46.296" version="1.1">
  <defs id="defs2974">
    <linearGradient id="linearGradient5950" y2="145.91" gradientUnits="userSpaceOnUse" y1="-35.774" x2="-150.66" x1="-150.66">
      <stop id="stop5490-0" stop-color="#fb9e00" offset="0"/>
      <stop id="stop5492-59" stop-color="#f44f00" offset="1"/>
    </linearGradient>
    <linearGradient id="linearGradient3828" x1="-138.55" gradientUnits="userSpaceOnUse" x2="-150.71" gradientTransform="matrix(.91463 0 0 .91463 951.85 612.66)" y1="-33.352" y2="69.331">
      <stop id="stop5509-68" stop-color="#fff" offset="0"/>
      <stop id="stop5511-5" stop-color="#fff" stop-opacity=".66667" offset="0"/>
      <stop id="stop5513-28" stop-color="#9dbbe1" stop-opacity=".089431" offset="1"/>
    </linearGradient>
  </defs>
  <g id="layer1" transform="translate(-158.48 -284.07)">
    <g id="g5944" transform="matrix(.26119 0 0 .26119 -31.288 134.05)">
      <path id="path5806" transform="matrix(.96341 0 0 .97561 959.2 609.3)" fill="#f44800" d="m-59.822 55.066c0 50.17-40.671 90.841-90.841 90.841s-90.841-40.671-90.841-90.841 40.671-90.841 90.841-90.841 90.841 40.671 90.841 90.841z"/>
      <path id="path5808" transform="matrix(.91463 0 0 .91463 951.85 612.66)" fill="url(#linearGradient5950)" d="m-59.822 55.066c0 50.17-40.671 90.841-90.841 90.841s-90.841-40.671-90.841-90.841 40.671-90.841 90.841-90.841 90.841 40.671 90.841 90.841z"/>
      <path id="rect5206" stroke-width="1.9" fill="#fff" d="m767.35 621.86c-5.0427 0-9.1023 4.0596-9.1023 9.1023v45.962c0 5.0427 4.0596 9.1023 9.1023 9.1023h54.211c7.1831 10.065 25.619 35.836 25.79 35.153 0.17295-0.69048 0.43858-25.064 0.54523-35.153h8.2015c5.0427 0 9.1024-4.0596 9.1024-9.1023v-45.962c0-5.0427-4.0597-9.1023-9.1024-9.1023h-88.748zm13.511 19.177c1.2777 0.00002 2.4246 0.18358 3.437 0.54519 1.0247 0.36164 1.8614 0.83778 2.5364 1.4459 0.687 0.60822 1.2149 1.2989 1.5645 2.0385 0.36167 0.73972 0.54516 1.4503 0.54516 2.1571 0 0.77256-0.20693 1.4032-0.59256 1.8963-0.37373 0.49311-0.91274 0.73486-1.6119 0.73478-0.50624 0.00008-0.94209-0.19805-1.3038-0.59256-0.34945-0.39451-0.75094-0.96507-1.2089-1.7541-0.37373-0.65749-0.79767-1.1937-1.3037-1.5882-0.5064-0.39443-1.1945-0.59256-2.0623-0.59256-0.89195 0-1.6376 0.25623-2.2282 0.78219-0.59066 0.50958-0.87708 1.1475-0.87708 1.9201 0 0.7068 0.20609 1.2938 0.64004 1.7541 0.43388 0.44381 1.0188 0.81822 1.7541 1.114 0.73532 0.2959 1.7444 0.66302 3.0341 1.0904 1.5309 0.50958 2.7809 1.1184 3.7452 1.8252 0.97637 0.7068 1.7103 1.5428 2.2044 2.5126 0.50639 0.95339 0.75853 2.0383 0.75853 3.2712 0 1.8575-0.33262 3.4568-0.99549 4.7882-0.66303 1.315-1.6376 2.32-2.9393 3.0104-1.2899 0.67395-2.8609 1.0193-4.7171 1.0193-1.7719 0-3.2855-0.37441-4.5512-1.1141-1.2657-0.73964-2.218-1.672-2.8208-2.7733-0.60258-1.1178-0.90068-2.2245-0.90068-3.3423 0-0.73964 0.20685-1.3703 0.59256-1.8963 0.38571-0.52596 0.85532-0.80586 1.4459-0.80593 0.51852 0.00007 0.93169 0.17635 1.2089 0.52148 0.27724 0.34521 0.52922 0.84508 0.78219 1.4696 0.50639 1.2 1.1261 2.0868 1.8252 2.6786 0.71112 0.59173 1.6744 0.90076 2.8919 0.90076 0.98836 0 1.791-0.30903 2.4178-0.90076 0.63883-0.60818 0.94816-1.2896 0.94816-2.0623 0-1.1834-0.33269-2.0649-0.99557-2.6074-0.65089-0.54243-1.7171-1.0476-3.2237-1.5407-1.6996-0.57535-3.0991-1.1769-4.1719-1.8015-1.0607-0.64103-1.8974-1.4771-2.5364-2.5126-0.63868-1.0355-0.97182-2.3041-0.97182-3.8164 0-1.3478 0.31016-2.6401 0.90075-3.84s1.4623-2.1376 2.6074-2.8444c1.1571-0.72322 2.5447-1.0904 4.1719-1.0904zm15.289 0c0.67509 0.00002 1.237 0.32354 1.683 0.94815 0.45793 0.60822 0.68738 1.4515 0.68738 2.5363v0.63997c0.85592-1.3972 1.7734-2.424 2.7497-3.0815 0.97645-0.65748 2.0542-0.99554 3.2475-0.99557 1.2416 0.00003 2.3081 0.34536 3.2 1.0193 0.89203 0.67398 1.6258 1.6935 2.2045 3.0578 0.83165-1.3807 1.7262-2.4003 2.6786-3.0578 0.95211-0.67391 2.0191-1.0192 3.1763-1.0193 1.3501 0.00003 2.5081 0.36715 3.4845 1.0904 0.97637 0.72327 1.6986 1.7574 2.1808 3.1052 0.42182 1.2164 0.6399 3.1228 0.64005 5.7364v13.156c-0.00023 1.4137-0.24106 2.4695-0.7112 3.1763-0.46998 0.70687-1.0775 1.0667-1.8488 1.0667-0.74745 0-1.3668-0.35985-1.849-1.0667-0.46999-0.72326-0.71105-1.7791-0.71105-3.1763v-11.33c0-1.4464-0.0455-2.5895-0.1423-3.4608-0.0841-0.87117-0.33701-1.6127-0.73478-2.2044-0.39777-0.59173-0.9939-0.87701-1.8015-0.87708-0.6509 0.00007-1.2583 0.2563-1.8489 0.78227-0.57861 0.52603-1.0494 1.2221-1.3748 2.1096-0.36159 1.1342-0.54516 3.1442-0.54516 6.0208v8.9601c0 1.4137-0.21739 2.4695-0.68745 3.1763-0.47013 0.70687-1.1012 1.0667-1.8726 1.0667-0.74745 0-1.3552-0.35985-1.8252-1.0667-0.45807-0.7068-0.68745-1.7627-0.68745-3.1763v-10.738c0-1.6931-0.0341-2.9979-0.11848-3.9349-0.0843-0.93693-0.31388-1.7075-0.68738-2.2993-0.37373-0.60811-0.97023-0.90068-1.7778-0.90075-1.6152 0.00007-2.6816 0.73964-3.2001 2.2519-0.50616 1.5123-0.75853 3.6913-0.75853 6.5186v9.1023c0 1.3972-0.24106 2.4531-0.71104 3.1763-0.45815 0.70687-1.0659 1.0667-1.8252 1.0667-0.7473 0-1.3667-0.35985-1.8489-1.0667-0.47006-0.72326-0.68753-1.7791-0.68738-3.1763v-19.271c0-1.2657 0.19449-2.2107 0.61623-2.8682 0.4341-0.65747 1.0076-0.99554 1.7067-0.99556zm37.571 0c1.2777 0.00002 2.4246 0.18358 3.4371 0.54519 1.0245 0.36164 1.885 0.83778 2.56 1.4459 0.687 0.60822 1.1912 1.2989 1.5407 2.0385 0.36159 0.73972 0.54508 1.4503 0.54523 2.1571-0.00015 0.77256-0.18326 1.4032-0.5689 1.8963-0.37372 0.49311-0.91281 0.73486-1.6119 0.73478-0.50631 0.00008-0.94216-0.19805-1.3038-0.59256-0.34953-0.39451-0.75087-0.96507-1.2089-1.7541-0.37358-0.65749-0.82118-1.1937-1.3274-1.5882-0.50625-0.39443-1.1944-0.59256-2.0622-0.59256-0.89203 0-1.6375 0.25623-2.2282 0.78219-0.59059 0.50958-0.87709 1.1475-0.87701 1.9201 0 0.7068 0.20609 1.2938 0.63997 1.7541 0.43395 0.44381 1.0188 0.81822 1.7541 1.114 0.73524 0.2959 1.7444 0.66302 3.0341 1.0904 1.5309 0.50958 2.7809 1.1184 3.7452 1.8252 0.97638 0.7068 1.7102 1.5428 2.2045 2.5126 0.50624 0.95339 0.75845 2.0383 0.75853 3.2712 0 1.8575-0.33269 3.4568-0.99564 4.7882-0.66296 1.315-1.6375 2.32-2.9393 3.0104-1.2896 0.67395-2.8608 1.0193-4.717 1.0193-1.7718 0-3.2855-0.37441-4.5512-1.1141-1.2657-0.73964-2.1943-1.672-2.7971-2.7733-0.60265-1.1178-0.92441-2.2245-0.92449-3.3423 0-0.73964 0.20693-1.3703 0.59264-1.8963 0.38563-0.52596 0.87905-0.80586 1.4696-0.80593 0.5183 0.00007 0.90796 0.17635 1.1852 0.52148 0.27717 0.34521 0.55282 0.84508 0.80594 1.4696 0.50624 1.2 1.1023 2.0868 1.8015 2.6786 0.71112 0.59173 1.6744 0.90076 2.8919 0.90076 0.98836 0 1.7911-0.30903 2.4178-0.90076 0.63883-0.60818 0.9719-1.2896 0.97182-2.0623 0-1.1834-0.33261-2.0649-0.99549-2.6074-0.65097-0.54243-1.7408-1.0476-3.2475-1.5407-1.6996-0.57535-3.0754-1.1769-4.1482-1.8015-1.0607-0.64103-1.9212-1.4771-2.56-2.5126-0.6389-1.0355-0.94815-2.3041-0.94815-3.8164 0-1.3478 0.28642-2.6401 0.877-3.84 0.59059-1.1999 1.4623-2.1376 2.6074-2.8444 1.1571-0.72322 2.5447-1.0904 4.1719-1.0904z"/>
      <path id="path5810" opacity=".7572" fill="url(#linearGradient3828)" d="m814.06 579.92c-45.16 0-81.909 36.056-83.062 80.938 37.387 15.04 95.243 25.784 166.03-2.0938-2.2099-43.915-38.505-78.844-82.969-78.844z"/>
    </g>
  </g>
  <metadata>
    <rdf:RDF>
      <cc:Work>
        <dc:format>image/svg+xml</dc:format>
        <dc:type rdf:resource="http://purl.org/dc/dcmitype/StillImage"/>
        <cc:license rdf:resource="http://creativecommons.org/licenses/publicdomain/"/>
        <dc:publisher>
          <cc:Agent rdf:about="http://openclipart.org/">
            <dc:title>Openclipart</dc:title>
          </cc:Agent>
        </dc:publisher>
        <dc:title>sms-text</dc:title>
        <dc:date>2010-08-04T09:38:44</dc:date>
        <dc:description>Set of web 2.0 icon, available as one download,look in my clip arts.</dc:description>
        <dc:source>http://openclipart.org/detail/77119/sms-text-by-shokunin</dc:source>
        <dc:creator>
          <cc:Agent>
            <dc:title>shokunin</dc:title>
          </cc:Agent>
        </dc:creator>
        <dc:subject>
          <rdf:Bag>
            <rdf:li>arrow</rdf:li>
            <rdf:li>backward</rdf:li>
            <rdf:li>cart</rdf:li>
            <rdf:li>clip art</rdf:li>
            <rdf:li>clipart</rdf:li>
            <rdf:li>communicator</rdf:li>
            <rdf:li>computer</rdf:li>
            <rdf:li>desktop</rdf:li>
            <rdf:li>earth</rdf:li>
            <rdf:li>email</rdf:li>
            <rdf:li>forward</rdf:li>
            <rdf:li>globe</rdf:li>
            <rdf:li>home</rdf:li>
            <rdf:li>icons</rdf:li>
            <rdf:li>info</rdf:li>
            <rdf:li>information</rdf:li>
            <rdf:li>interface</rdf:li>
            <rdf:li>lock</rdf:li>
            <rdf:li>mail</rdf:li>
            <rdf:li>message</rdf:li>
            <rdf:li>messenger</rdf:li>
            <rdf:li>network</rdf:li>
            <rdf:li>networking</rdf:li>
            <rdf:li>pidgin</rdf:li>
            <rdf:li>planet</rdf:li>
            <rdf:li>play</rdf:li>
            <rdf:li>secure</rdf:li>
            <rdf:li>security</rdf:li>
            <rdf:li>server</rdf:li>
            <rdf:li>shopping</rdf:li>
            <rdf:li>sms.text</rdf:li>
            <rdf:li>unlock</rdf:li>
            <rdf:li>unsecured</rdf:li>
            <rdf:li>web</rdf:li>
            <rdf:li>web 2.0</rdf:li>
          </rdf:Bag>
        </dc:subject>
      </cc:Work>
      <cc:License rdf:about="http://creativecommons.org/licenses/publicdomain/">
        <cc:permits rdf:resource="http://creativecommons.org/ns#Reproduction"/>
        <cc:permits rdf:resource="http://creativecommons.org/ns#Distribution"/>
        <cc:permits rdf:resource="http://creativecommons.org/ns#DerivativeWorks"/>
      </cc:License>
    </rdf:RDF>
  </metadata>
</svg>
