<?xml version="1.0"?>
<svg xmlns:rdf="http://www.w3.org/1999/02/22-rdf-syntax-ns#" xmlns="http://www.w3.org/2000/svg" xmlns:cc="http://creativecommons.org/ns#" xmlns:xlink="http://www.w3.org/1999/xlink" xmlns:dc="http://purl.org/dc/elements/1.1/" xmlns:svg="http://www.w3.org/2000/svg" id="svg7854" viewBox="0 0 48 48" version="1.0">
  <defs id="defs7856">
    <radialGradient id="radialGradient5136" gradientUnits="userSpaceOnUse" cy="38.5" cx="22" gradientTransform="matrix(1 0 0 .5 0 19.25)" r="13">
      <stop id="stop5132" offset="0"/>
      <stop id="stop5134" stop-opacity="0" offset="1"/>
    </radialGradient>
    <filter id="filter5186" y="-.34699" width="1.347" x="-.17349" height="1.694">
      <feGaussianBlur id="feGaussianBlur5188" stdDeviation="1.8795181"/>
    </filter>
    <radialGradient id="radialGradient5200" gradientUnits="userSpaceOnUse" cy="30.439" cx="21.525" gradientTransform="matrix(0 -1.2519 47.292 0 -1418 57.387)" r="18.888">
      <stop id="stop5192" stop-color="#f57900" offset="0"/>
      <stop id="stop5194" stop-color="#fcaf3e" offset="1"/>
    </radialGradient>
    <linearGradient id="linearGradient5208" y2="49.613" gradientUnits="userSpaceOnUse" y1="11.344" x2="22.109" x1="22.109">
      <stop id="stop5204" stop-color="#fff" offset="0"/>
      <stop id="stop5206" stop-color="#fff" stop-opacity="0" offset="1"/>
    </linearGradient>
  </defs>
  <g id="layer1">
    <path id="path4551" opacity=".43373" style="color:#000000" d="m35 38.5a13 6.5 0 1 1 -26 0 13 6.5 0 1 1 26 0z" transform="matrix(1.3257 0 0 1.306 -3.6937 -12.797)" filter="url(#filter5186)" fill="url(#radialGradient5136)"/>
    <path id="path4547" style="color:#000000" d="m35.099 35.723l-8.396-1.882-4.606 7.268-4.606-7.268-8.3963 1.882 1.8823-8.396-7.2681-4.606 7.2681-4.606-1.8823-8.3965 8.3963 1.8825 4.606-7.2682 4.606 7.2682 8.396-1.8825-1.882 8.3965 7.268 4.606-7.268 4.606 1.882 8.396z" transform="matrix(1.1209 0 0 1.1043 -.19742 -1.3745)" stroke="#ce5c00" fill="url(#radialGradient5200)"/>
    <path id="path5198" opacity=".33735" style="color:#000000" d="m22.094 6.1562l-3.782 5.9688c-0.224 0.338-0.636 0.5-1.031 0.406l-6.906-1.531 1.531 6.906c0.094 0.395-0.068 0.807-0.406 1.032l-5.9688 3.781 5.9688 3.781c0.338 0.225 0.5 0.636 0.406 1.031l-1.531 6.907 6.906-1.532c0.395-0.093 0.807 0.069 1.031 0.406l3.782 5.969 3.781-5.969c0.225-0.337 0.636-0.499 1.031-0.406l6.906 1.532-1.531-6.907c-0.093-0.395 0.069-0.806 0.407-1.031l6-3.781-6-3.781c-0.338-0.225-0.5-0.637-0.407-1.032l1.531-6.906-6.906 1.531c-0.395 0.094-0.806-0.068-1.031-0.406l-3.781-5.9688z" xlink:href="#path4547" transform="matrix(1.1264 0 0 1.1264 -.29404 -1.8086)" stroke="url(#linearGradient5208)" fill="none"/>
    <path id="rect4610" style="color:#000000" fill="#fed08e" d="m21.536 18c-0.693 0-1.239 0.599-1.239 1.349v5.651h-3.938l8.677 7 8.167-7h-3.573v-5.651c0-0.75-0.582-1.349-1.276-1.349h-6.818z"/>
  </g>
  <metadata>
    <rdf:RDF>
      <cc:Work>
        <dc:format>image/svg+xml</dc:format>
        <dc:type rdf:resource="http://purl.org/dc/dcmitype/StillImage"/>
        <cc:license rdf:resource="http://creativecommons.org/licenses/publicdomain/"/>
        <dc:publisher>
          <cc:Agent rdf:about="http://openclipart.org/">
            <dc:title>Openclipart</dc:title>
          </cc:Agent>
        </dc:publisher>
        <dc:title>tango software update available</dc:title>
        <dc:date>2010-04-03T15:34:06</dc:date>
        <dc:description>An icon from Tango Project. Since version 0.8.90 Tango Project icons are Public Domain.</dc:description>
        <dc:source>http://openclipart.org/detail/36727/tango-software-update-available-by-warszawianka</dc:source>
        <dc:creator>
          <cc:Agent>
            <dc:title>warszawianka</dc:title>
          </cc:Agent>
        </dc:creator>
        <dc:subject>
          <rdf:Bag>
            <rdf:li>clip art</rdf:li>
            <rdf:li>clipart</rdf:li>
            <rdf:li>externalsource</rdf:li>
            <rdf:li>icon</rdf:li>
            <rdf:li>software</rdf:li>
            <rdf:li>tango</rdf:li>
          </rdf:Bag>
        </dc:subject>
      </cc:Work>
      <cc:License rdf:about="http://creativecommons.org/licenses/publicdomain/">
        <cc:permits rdf:resource="http://creativecommons.org/ns#Reproduction"/>
        <cc:permits rdf:resource="http://creativecommons.org/ns#Distribution"/>
        <cc:permits rdf:resource="http://creativecommons.org/ns#DerivativeWorks"/>
      </cc:License>
    </rdf:RDF>
  </metadata>
</svg>
