<?xml version="1.0"?>
<svg xmlns:rdf="http://www.w3.org/1999/02/22-rdf-syntax-ns#" xmlns="http://www.w3.org/2000/svg" xmlns:cc="http://web.resource.org/cc/" xmlns:xlink="http://www.w3.org/1999/xlink" xmlns:dc="http://purl.org/dc/elements/1.1/" xmlns:svg="http://www.w3.org/2000/svg" fill-rule="evenodd" viewBox="0 0 500 481.08">
  <path d="m354.66 214.53l-30.63 1.81 0.07-8.83 15.4 0.08 15.16 6.94z" fill="#454545"/>
  <path d="m95.642 210.68l-8.833-3.6 6.289-5.77 2.766 4.03-0.222 5.34z" fill="#2c2c2b"/>
  <path d="m92.697 201.68l135.48 62.31 0.28 11.92-7.64-2.28-0.17-8.33-131.83-60.12 3.877-3.5z" fill="#737476"/>
  <path d="m255.62 299.62l202.44 43.32 1.54-21 0.02-1.96 31.74-35.34 4.95-4.09 3.69 167.48-6.99 5.89-30.98 27.16-10.29-80.24-1.28-6.57-229.78-65.19-4.17 7.47-39.12-9.44-4.52-12.36 3.64-7.47-11.27-14.84 2.92-18.21 21.6-6.97 12.43 2.86 34.48-17.01 71.79 21.13 0.86 15.8-28.53 14.4-24.89-7.2-0.28 2.38z" fill="#2c2c2b"/>
  <path d="m92.697 201.92l-5.865 5.18-86.832-129.58c6.6858-10.82 13.335-21.639 20.725-32.002 2.514-3.444 5.09-6.799 7.788-10.102 2.171-2.573 4.384-5.066 6.686-7.522 2.362-2.427 4.765-4.754 7.269-7.035 1.948-1.701 3.912-3.345 5.93-4.96 2.971-2.276 5.961-4.4 9.097-6.4444l5.319-2.9951 5.226-2.3604 5.101-1.7745 4.944-1.24 4.751-0.75696 4.531-0.32764 4.276 0.047852c4.793 0.3465 9.677 1.0988 14.157 2.9141l-0.05-0.0776c0.83 0.4193 1.71 0.7688 2.56 1.1562 0.89 0.453 1.77 0.9054 2.61 1.4464l234.94 118.25 8.8 90.79-15.16-6.94 0.32 13.4-14.53-4.34-0.17-8.67-1.02-0.47v26.32l-0.55 0.88-0.17 0.32c-2.02 3.35-4.16 6.6-6.36 9.83-4.81 6.97-9.86 13.79-15.38 20.21l-2.32 2.65c-1.05-0.39-9.08 6.38-10.12 5.99-5.58-2.08-30.81-11.75-51.42-18.49-3.1 2.06-5.87 0.43-14.19 5.34 1.14 0.7 2.35 1.43 3.63 2.2l-18.8 8.98c-30.1-10.51-60.24-20.9-90.34-31.4l-13.98-10.86c-1.27-1.19-2.29-2.45-3.34-3.83l-1.124-1.74-1-1.86-0.874-1.97-0.745-2.09-0.615-2.19-0.48-2.31-0.346-2.41-0.209-2.52-0.069-2.86-2.601-3.78z" fill="#2c2c2b"/>
  <path d="m8.848 79.073c15.448-26.107 31.453-48.132 49.164-60.28 15.144-10.387 31.537-13.728 49.898-4.308l86.35 129.7 4.27-3.56-86.83-130c-3.03-4.5435-27.551-15.325-54.964 3.404-23.082 15.77-35.916 36.258-52.677 63.423l83.437 124.51 3.417-3.02-82.065-119.87z" fill="#b0b4b6"/>
  <path d="m115.72 11.72l226.92 114.22 8.05 83.02-149.47-68.43-85.5-128.81z" fill="#9e9fa0"/>
  <path d="m200.59 155.26l120.1 51.5v23.46l-120.1-49.62v-25.34z" fill="#87888a"/>
  <path d="m200.53 142.15l135.49 62.3 0.28 11.92-7.64-2.28-0.17-8.33-131.83-60.12 3.87-3.49z" fill="#737476"/>
  <path d="m164 226.5l58.97 22.12c-6.26 1.72-10.76 3.92-13.67 6.68 2.79 2.19 6.43 4.59 10.7 7.12l-11.78 5.63c-30.47-10.64-61.41-21.29-91.88-31.93 14.4 3.88 30.08 1.11 47.66-9.62z" fill="#5c5d5e"/>
  <path d="m193.41 148.78v22.3c-0.24 24.99-32.08 53.85-48.98 58.23-23.3 9.5-45.719 3.3-45.719-23.38v-84.13c0-18.9 1.779-20.82 17.369-38.378 6.17-6.954 13.25-14.188 21.91-19.607l18.33 28.325c-3.74 0.416-7.83 1.788-12.12 4.204-17.22 9.696-31.31 32.656-31.31 51.016v30.17c0 18.36 14.09 25.45 31.31 15.75 17.22-9.69 31.3-32.65 31.3-51.01v-20.47l17.91 26.98z" fill="#c5c6c8"/>
  <path d="m98.711 121.8c0-18.9 1.779-20.82 17.369-38.378 6.17-6.954 13.25-14.188 21.91-19.607l18.33 28.325c-3.74 0.416-7.83 1.788-12.12 4.204-17.22 9.696-31.31 32.656-31.31 51.016-3.5 26.62-12.67 23.23-14.404 56.15l0.225-81.71z" fill="#9e9fa0"/>
  <path d="m169.42 138.23c0.03 0.52 0.05 1.06 0.05 1.61 0 13.65-10.06 31.55-22.39 39.85-12.34 8.3-22.4 3.93-22.4-9.72 0-0.55 0.02-1.11 0.05-1.68 0.77 12.37 10.51 16.07 22.35 8.11 11.83-7.96 21.57-24.76 22.34-38.17z" fill="#fff"/>
  <path d="m201.02 183.42c39.89 16.84 79.18 33.61 119.07 50.45-4.06 6.79-13.76 20.76-21.79 29.83-26.11-9.7-48-18.27-70.83-16.92-0.29 0.11-0.57 0.22-0.84 0.32l-58.79-22.3c11.06-9.75 22.12-22.39 33.18-41.38z" fill="#9e9fa0"/>
  <path d="m124.98 156.65c-0.03-0.49-0.05-0.99-0.05-1.51 0-12.74 9.39-29.45 20.91-37.2 11.51-7.74 20.9-3.67 20.9 9.08 0 0.51-0.02 1.04-0.05 1.56-0.72-11.54-9.81-14.99-20.85-7.56-11.05 7.43-20.14 23.12-20.86 35.63z" fill="#fff"/>
  <path d="m158.52 149.19c0.6 0.32 0.63 1.52 0.2 3.06 0.76-0.9 1.51-1.37 1.94-1.13 0.69 0.36 0.37 2.32-0.71 4.36-1.09 2.03-2.53 3.39-3.22 3.03-0.35-0.19-0.44-0.81-0.29-1.64-1.22 1.69-2.51 2.66-3.22 2.29-0.92-0.5-0.49-3.14 0.97-5.88s3.41-4.58 4.33-4.09z" fill="#d9dbdc"/>
  <path d="m10.746 78.794c17.271-27.089 34.847-50.805 53.185-61.572 13.381-7.8576 28.479-7.5209 42.779-1.386l27.3 41.696c-17.27 11.014-37.745 32.841-41.642 55.218l-81.622-33.956z" fill="#737476"/>
  <path d="m15.238 83.247l76.714 32.473v79.09l-76.714-111.56z" fill="#9e9fa0"/>
  <path d="m141.74 204.48c1.84-0.44 3.48 0.36 4.55 1.94-0.9-0.58-1.97-0.78-3.12-0.51-3.22 0.77-5.84 5.04-5.84 9.5 0 1.93 0.48 3.58 1.29 4.78-1.63-1.05-2.72-3.33-2.72-6.21 0-4.46 2.62-8.73 5.84-9.5z" fill="#2c2c2b"/>
  <path d="m142.97 220.07c-1.42 0.34-2.69-0.27-3.52-1.5 0.7 0.45 1.53 0.61 2.41 0.39 2.49-0.59 4.52-3.89 4.52-7.34 0-1.48-0.38-2.76-1-3.68 1.26 0.81 2.1 2.56 2.1 4.79 0 3.45-2.02 6.75-4.51 7.34z" fill="#2c2c2b"/>
  <path d="m141.74 76.987c1.84-0.438 3.48 0.353 4.55 1.942-0.9-0.58-1.97-0.786-3.12-0.513-3.22 0.768-5.84 5.037-5.84 9.504 0 1.921 0.48 3.573 1.29 4.772-1.63-1.051-2.72-3.324-2.72-6.201 0-4.467 2.62-8.737 5.84-9.504z" fill="#2c2c2b"/>
  <path d="m142.97 92.575c-1.42 0.337-2.69-0.274-3.52-1.501 0.7 0.448 1.53 0.607 2.41 0.396 2.49-0.593 4.52-3.891 4.52-7.342 0-1.484-0.38-2.76-1-3.687 1.26 0.812 2.1 2.568 2.1 4.791 0 3.451-2.02 6.75-4.51 7.343z" fill="#2c2c2b"/>
  <path d="m190.19 289.1c94.33 20.19 188.66 40.38 282.99 60.56 5.1 0.96 8.6-1.31 10.48-6.8l9.77-50.89 2.48 152.8c-4.46-24.53-8.92-49.07-13.38-73.6-1.47-6.78-3.44-11.55-6.52-11.89l-244.22-54.06-4.78 3.47-36.82-8.83v-10.76z" fill="#9e9fa0"/>
  <path d="m190.03 301.92l34.98 8.47-3.78 8.95 247.08 70.01-17.52 1.47-231.77-65.76-4.23 7.57-37.5-9.05 12.74-21.66z" fill="#9e9fa0"/>
  <path d="m271.69 323.48c0.29 2.24-0.85 4.1-2.88 5.18 0.81-1 1.18-2.25 1-3.65-0.51-3.93-5.27-7.59-10.58-8.15-2.29-0.24-4.32 0.14-5.85 0.95 1.46-1.82 4.3-2.83 7.73-2.47 5.31 0.56 10.07 4.22 10.58 8.14z" fill="#2c2c2b"/>
  <path d="m252.98 323c-0.22-1.73 0.66-3.17 2.22-4-0.62 0.77-0.91 1.74-0.77 2.82 0.4 3.04 4.07 5.86 8.18 6.29 1.77 0.19 3.33-0.1 4.51-0.73-1.12 1.4-3.32 2.19-5.96 1.91-4.11-0.43-7.78-3.26-8.18-6.29z" fill="#2c2c2b"/>
  <path d="m463.02 321.3l28.1-31.28c-2.94 17.56-5.88 35.12-8.82 52.69-4.11 9.41-15.19 3.67-20.9 3.05 0-7.13 1.62-17.32 1.62-24.46z" fill="#d9dbdc"/>
  <path d="m455.39 402.52l15.32-10.14-2.26-16.81 9.27-8.26 13.5 77.49-26.73 28.64-9.1-70.92z" fill="#87888a"/>
  <path d="m232.84 308.75l242.54 54.31-10.94 9.81-235.37-55.82 3.77-8.3z" fill="#b0b4b6"/>
  <path d="m171.2 276.84l18.71-6.04 12.7 2.92 34.37-16.96 68.2 20.08 0.61 11.16-25.34 12.79-27.47-7.95-0.64 5.46-64.5-12.77-10 17.86-9-11.86 2.36-14.69z" fill="#b0b4b6"/>
  <path d="m339.82 220.99l-15.73 1.65 0.01-6.43 1.2-0.01-0.01 0.45 14.53 4.34z" fill="#454545"/>
  <metadata>
    <rdf:RDF>
      <cc:Work>
        <dc:format>image/svg+xml</dc:format>
        <dc:type rdf:resource="http://purl.org/dc/dcmitype/StillImage"/>
        <cc:license rdf:resource="http://creativecommons.org/licenses/publicdomain/"/>
        <dc:publisher>
          <cc:Agent rdf:about="http://openclipart.org/">
            <dc:title>Openclipart</dc:title>
          </cc:Agent>
        </dc:publisher>
        <dc:title>surveillance camera</dc:title>
        <dc:date>2010-03-16T20:29:11</dc:date>
        <dc:description>A high quality outdoor surveillance camera</dc:description>
        <dc:source>http://openclipart.org/detail/31891/surveillance-camera-by-maxim2</dc:source>
        <dc:creator>
          <cc:Agent>
            <dc:title>maxim2</dc:title>
          </cc:Agent>
        </dc:creator>
        <dc:subject>
          <rdf:Bag>
            <rdf:li>camera</rdf:li>
            <rdf:li>clip art</rdf:li>
            <rdf:li>clipart</rdf:li>
            <rdf:li>security</rdf:li>
            <rdf:li>sk1</rdf:li>
            <rdf:li>surveillance</rdf:li>
            <rdf:li>video</rdf:li>
          </rdf:Bag>
        </dc:subject>
      </cc:Work>
      <cc:License rdf:about="http://creativecommons.org/licenses/publicdomain/">
        <cc:permits rdf:resource="http://creativecommons.org/ns#Reproduction"/>
        <cc:permits rdf:resource="http://creativecommons.org/ns#Distribution"/>
        <cc:permits rdf:resource="http://creativecommons.org/ns#DerivativeWorks"/>
      </cc:License>
    </rdf:RDF>
  </metadata>
</svg>
