<?xml version="1.0"?>
<svg xmlns:rdf="http://www.w3.org/1999/02/22-rdf-syntax-ns#" xmlns="http://www.w3.org/2000/svg" xmlns:cc="http://creativecommons.org/ns#" xmlns:xlink="http://www.w3.org/1999/xlink" xmlns:dc="http://purl.org/dc/elements/1.1/" xmlns:svg="http://www.w3.org/2000/svg" id="svg11300" viewBox="0 0 48 48">
  <defs id="defs3">
    <linearGradient id="linearGradient9864" x1="46.846" gradientUnits="userSpaceOnUse" x2="18.031" gradientTransform="translate(-12.021)" y1="19.804" y2="27.759">
      <stop id="stop9856" stop-color="#4e4e4e" offset="0"/>
      <stop id="stop9858" stop-color="#ababab" offset="1"/>
    </linearGradient>
    <radialGradient id="radialGradient9876" gradientUnits="userSpaceOnUse" cy="7.1396" cx="27.884" gradientTransform="matrix(2.5658 0 0 1.4033 -49.804 -9.4833)" r="9.7227">
      <stop id="stop9870" stop-color="#4e4e4e" offset="0"/>
      <stop id="stop9872" stop-color="#616161" stop-opacity="0" offset="1"/>
    </radialGradient>
    <linearGradient id="linearGradient9886" x1="31.853" gradientUnits="userSpaceOnUse" x2="34.007" gradientTransform="translate(-13.137)" y1="19.108" y2="24.765">
      <stop id="stop9882" stop-color="#525252" offset="0"/>
      <stop id="stop9884" stop-color="#525252" stop-opacity="0" offset="1"/>
    </linearGradient>
    <linearGradient id="linearGradient9902" x1="31.079" gradientUnits="userSpaceOnUse" x2="33.711" gradientTransform="translate(-12.021)" y1="21.511" y2="18.064">
      <stop id="stop9898" stop-color="#cecece" offset="0"/>
      <stop id="stop9900" stop-color="#9e9e9e" offset="1"/>
    </linearGradient>
    <linearGradient id="linearGradient6371" x1="40.25" gradientUnits="userSpaceOnUse" y1="31.625" gradientTransform="translate(-12.021)" x2="40.25" y2="43.25">
      <stop id="stop6367" stop-color="#fff" offset="0"/>
      <stop id="stop6369" stop-color="#fff" stop-opacity="0" offset="1"/>
    </linearGradient>
    <filter id="filter6421" y="-.10415" width="1.2831" x="-.14154" height="1.2083">
      <feGaussianBlur id="feGaussianBlur6423" stdDeviation="2.07"/>
    </filter>
    <filter id="filter6451" y="-.11953" width="1.1336" x="-.066813" height="1.2391">
      <feGaussianBlur id="feGaussianBlur6453" stdDeviation="0.76879489"/>
    </filter>
    <radialGradient id="radialGradient6461" gradientUnits="userSpaceOnUse" cy="36.421" cx="24.837" gradientTransform="matrix(1 0 0 .53672 0 16.873)" r="15.645">
      <stop id="stop8664" offset="0"/>
      <stop id="stop8666" stop-opacity="0" offset="1"/>
    </radialGradient>
    <radialGradient id="radialGradient6463" gradientUnits="userSpaceOnUse" cy="2.8969" cx="19.701" gradientTransform="matrix(1.2534 0 0 .9539 -15.479 11.277)" r="17.171">
      <stop id="stop8652" stop-color="#fff" offset="0"/>
      <stop id="stop8654" stop-color="#fff" stop-opacity="0" offset="1"/>
    </radialGradient>
    <linearGradient id="linearGradient6465" x1="8.7601" gradientUnits="userSpaceOnUse" y1="13.663" gradientTransform="matrix(.96872 0 0 .96892 .36168 .73782)" x2="19.756" y2="43.45">
      <stop id="stop9890" stop-color="#fff" offset="0"/>
      <stop id="stop9892" stop-color="#fff" stop-opacity="0" offset="1"/>
    </linearGradient>
    <linearGradient id="linearGradient6473" y2="29.068" gradientUnits="userSpaceOnUse" y1="44" x2="18.729" x1="18.729">
      <stop id="stop6469" stop-color="#babdb6" offset="0"/>
      <stop id="stop6471" stop-color="#babdb6" stop-opacity="0" offset="1"/>
    </linearGradient>
  </defs>
  <g id="layer1">
    <rect id="rect9828" style="color:#000000" fill-rule="evenodd" rx=".70711" ry=".7071" height="41.942" width="31.996" stroke="#555753" stroke-miterlimit="10" y="2.5692" x="1.4809" fill="#eeeeec"/>
    <rect id="rect9840" style="color:#000000" fill-rule="evenodd" height="26.759" width="31" y="17.241" x="1.9792" fill="url(#linearGradient6473)"/>
    <path id="path6425" opacity=".55429" filter="url(#filter6451)" fill-rule="evenodd" d="m2.1042 43.875l21.375-8.875s3.514-2.22 0.25-3.5c-3.415-1.34-7 0.5-7 0.5l-14.625 11.875z"/>
    <path id="path9852" style="color:#000000" fill-rule="evenodd" fill="url(#linearGradient9864)" d="m2.0168 43.945l-0.0388-40.89 19.942 0.0437 0.045 29.919-19.948 10.927z"/>
    <path id="path1360" opacity=".42222" style="color:#000000" d="m1.949 43.945l20.148-10.883-18.562 8.928 0.0005-38.98-1.5704 0.0003-0.0161 40.935z" display="block" fill="#fff"/>
    <path id="path9866" d="m2.024 43.757l-0.0448-40.702 19.941-0.0005-0.179 30.626-19.717 10.077z" style="color:#000000" fill="url(#radialGradient9876)" fill-rule="evenodd"/>
    <path id="path9878" style="color:#000000" fill-rule="evenodd" fill="url(#linearGradient9886)" d="m17.622 18.456l1.923 2.453-1.459 4.817s0.265 1.503 1.039 0.486c0.773-1.016 2.972-3.582 2.585-5.458-0.287-1.392-1.083-2.055-1.083-2.055l-3.005-0.243z"/>
    <path id="path9862" style="color:#000000" fill-rule="evenodd" fill="url(#linearGradient9902)" d="m19.456 17.351s2.164 1.002 2.232 1.879c0.102 1.301-4.243 5.435-4.243 5.435-0.508 0.619-1.347 0.067-0.883-0.53 0 0 3.466-4.118 3.248-4.441-0.274-0.406-1.967-1.039-1.967-1.039-1.016-0.751 0.268-2.305 1.613-1.304z"/>
    <path id="path6355" opacity=".87429" d="m22.229 3.5l-0.5 29.75-18 9.75 29.25 0.25-0.25-39.75h-10.5z" fill-rule="evenodd" filter="url(#filter6421)" fill="url(#linearGradient6371)"/>
    <g id="g6455" transform="matrix(-1 0 0 1 48.201 -.047335)">
      <path id="path8660" opacity=".29947" style="color:#000000" d="m40.482 36.421a15.645 8.3969 0 1 1 -31.29 0 15.645 8.3969 0 1 1 31.29 0z" fill-rule="evenodd" transform="matrix(.77849 0 0 .77849 -7.5798 1.5981)" fill="url(#radialGradient6461)"/>
      <path id="path8643" stroke-linejoin="round" style="color:#000000" d="m1.7318 17.594v12.761h7.9323v5.821l12.224-12.223-12.297-12.297 0.0003 5.941-7.8595-0.003z" fill-rule="evenodd" stroke="#a40000" stroke-linecap="round" stroke-miterlimit="10" fill="#c00"/>
      <path id="path8645" opacity=".50802" style="color:#000000" d="m9.924 12.478v5.638h-7.8494v6.415c10.258-3.827 9.8804 3.243 19.219-0.585l-11.37-11.468z" fill-rule="evenodd" fill="url(#radialGradient6463)"/>
      <path id="path8658" opacity=".48128" style="color:#000000" d="m2.6834 18.566v10.79h7.9016v4.125l9.543-9.539-9.606-9.945v4.572l-7.8386-0.003z" stroke="url(#linearGradient6465)" stroke-miterlimit="10" fill="none"/>
    </g>
  </g>
  <metadata>
    <rdf:RDF>
      <cc:Work>
        <dc:format>image/svg+xml</dc:format>
        <dc:type rdf:resource="http://purl.org/dc/dcmitype/StillImage"/>
        <cc:license rdf:resource="http://creativecommons.org/licenses/publicdomain/"/>
        <dc:publisher>
          <cc:Agent rdf:about="http://openclipart.org/">
            <dc:title>Openclipart</dc:title>
          </cc:Agent>
        </dc:publisher>
        <dc:title>tango system log out</dc:title>
        <dc:date>2010-03-26T15:33:56</dc:date>
        <dc:description>"Log out" icon from &lt;a href="http://tango.freedesktop.org/Tango_Desktop_Project"&gt; Tango Project &lt;/a&gt; &#xD;\n&lt;br&gt;&lt;br&gt;&#xD;\nSince version 0.8.90 Tango Project icons are Public Domain: &lt;a href="http://tango.freedesktop.org/Frequently_Asked_Questions#Terms_of_Use.3F"&gt; Tango Project FAQ &lt;/a&gt;</dc:description>
        <dc:source>http://openclipart.org/detail/34279/tango-system-log-out-by-warszawianka</dc:source>
        <dc:creator>
          <cc:Agent>
            <dc:title>warszawianka</dc:title>
          </cc:Agent>
        </dc:creator>
        <dc:subject>
          <rdf:Bag>
            <rdf:li>arrow</rdf:li>
            <rdf:li>clip art</rdf:li>
            <rdf:li>clipart</rdf:li>
            <rdf:li>door</rdf:li>
            <rdf:li>exit</rdf:li>
            <rdf:li>externalsource</rdf:li>
            <rdf:li>icon</rdf:li>
            <rdf:li>logout</rdf:li>
            <rdf:li>open</rdf:li>
            <rdf:li>quit</rdf:li>
            <rdf:li>red</rdf:li>
            <rdf:li>tango</rdf:li>
          </rdf:Bag>
        </dc:subject>
      </cc:Work>
      <cc:License rdf:about="http://creativecommons.org/licenses/publicdomain/">
        <cc:permits rdf:resource="http://creativecommons.org/ns#Reproduction"/>
        <cc:permits rdf:resource="http://creativecommons.org/ns#Distribution"/>
        <cc:permits rdf:resource="http://creativecommons.org/ns#DerivativeWorks"/>
      </cc:License>
    </rdf:RDF>
  </metadata>
</svg>
