<?xml version="1.0"?>
<svg xmlns:rdf="http://www.w3.org/1999/02/22-rdf-syntax-ns#" xmlns="http://www.w3.org/2000/svg" xmlns:cc="http://creativecommons.org/ns#" xmlns:xlink="http://www.w3.org/1999/xlink" xmlns:dc="http://purl.org/dc/elements/1.1/" xmlns:svg="http://www.w3.org/2000/svg" id="svg11300" viewBox="0 0 107.56 104.09" version="1.0">
  <defs id="defs3">
    <linearGradient id="linearGradient8650">
      <stop id="stop8652" stop-color="#fff" offset="0"/>
      <stop id="stop8654" stop-color="#fff" stop-opacity="0" offset="1"/>
    </linearGradient>
    <radialGradient id="radialGradient2597" gradientUnits="userSpaceOnUse" cy="32.798" cx="22.292" gradientTransform="matrix(.84302 0 0 1.0202 4.4993 1.382)" r="16.956">
      <stop id="stop2593" stop-color="#73d216" offset="0"/>
      <stop id="stop2595" stop-color="#4e9a06" offset="1"/>
    </radialGradient>
    <radialGradient id="radialGradient8668" gradientUnits="userSpaceOnUse" cy="36.421" cx="24.837" gradientTransform="matrix(1 0 0 .53672 0 16.873)" r="15.645">
      <stop id="stop8664" offset="0"/>
      <stop id="stop8666" stop-opacity="0" offset="1"/>
    </radialGradient>
    <radialGradient id="radialGradient8656" xlink:href="#linearGradient8650" gradientUnits="userSpaceOnUse" cy="2.8969" cx="19.701" gradientTransform="matrix(2.0467 0 0 1.5576 -19.518 3.4521)" r="17.171"/>
    <radialGradient id="radialGradient1441" gradientUnits="userSpaceOnUse" cy="22.455" cx="11.319" gradientTransform="matrix(0 -.84302 1.0202 0 .60644 42.586)" r="16.956">
      <stop id="stop2306" stop-color="#73d216" offset="0"/>
      <stop id="stop2308" stop-color="#4e9a06" offset="1"/>
    </radialGradient>
    <radialGradient id="radialGradient1438" cx="24.538" xlink:href="#linearGradient8650" gradientUnits="userSpaceOnUse" cy=".40011" r="17.171" gradientTransform="matrix(0 -2.0467 1.5576 0 2.767 66.933)"/>
    <radialGradient id="radialGradient3210" gradientUnits="userSpaceOnUse" cy="20.494" cx="35.293" gradientTransform="matrix(0 -.84302 1.0202 0 .60644 42.586)" r="16.956">
      <stop id="stop1444" stop-color="#73d216" offset="0"/>
      <stop id="stop1446" stop-color="#4e9a06" offset="1"/>
    </radialGradient>
    <radialGradient id="radialGradient3212" xlink:href="#linearGradient8650" gradientUnits="userSpaceOnUse" cy="1.535" cx="15.987" gradientTransform="matrix(0 -2.0467 -1.5576 0 44.116 66.933)" r="17.171"/>
  </defs>
  <g id="layer1" transform="translate(31.293 61.126)">
    <g id="g3201" transform="translate(-.53188 -.031528)">
      <path id="path8660" opacity=".20455" d="m40.482 36.421a15.645 8.3969 0 1 1 -31.29 0 15.645 8.3969 0 1 1 31.29 0z" fill-rule="evenodd" transform="matrix(1.2145 0 0 .59546 -6.1638 16.313)" fill="url(#radialGradient8668)"/>
      <g id="g1464" transform="matrix(-1 0 0 -1 47.029 43.999)">
        <path id="path8643" stroke-linejoin="round" d="m14.519 38.5l18.005-0.004v-12.992l7.996-0.007-17.145-19.998-16.846 19.998 7.995 0.004-0.005 12.999z" fill-rule="evenodd" stroke="#3a7304" stroke-linecap="round" stroke-miterlimit="10" fill="url(#radialGradient3210)"/>
        <path id="path8645" opacity=".50802" fill-rule="evenodd" fill="url(#radialGradient3212)" d="m39.43 24.993l-7.407 0.012 0.003 12.993-15.378-0.009c0.77-18.341 10.722-10.993 15.381-21.647l7.401 8.651z"/>
        <path id="path8658" opacity=".48128" d="m15.521 37.496l16.001 0.004v-12.993l6.817-0.016-14.954-17.452-14.707 17.457 6.84 0.005 0.003 12.995z" stroke="#fff" stroke-miterlimit="10" fill="none"/>
      </g>
    </g>
    <g id="g2562" transform="translate(32.927 -33.105)">
      <path id="path2564" opacity=".29947" d="m40.482 36.421a15.645 8.3969 0 1 1 -31.29 0 15.645 8.3969 0 1 1 31.29 0z" fill-rule="evenodd" transform="matrix(1.2712 0 0 1.2712 -8.1194 -15.102)" fill="url(#radialGradient8668)"/>
      <path id="path2566" stroke-linejoin="round" d="m8.5542 15.517v16.995h12.984v8.545l19.96-16.907-20.079-17.025v8.398l-12.865-0.006z" fill-rule="evenodd" stroke="#3a7304" stroke-linecap="round" stroke-miterlimit="10" fill="url(#radialGradient2597)"/>
      <path id="path2568" opacity=".50802" fill-rule="evenodd" fill="url(#radialGradient8656)" d="m21.962 8.2485v7.8065h-12.817l0.0002 9.041c17.75 2 16.634-7.456 31.384-0.956l-18.567-15.892z"/>
      <path id="path2570" opacity=".48128" d="m9.5377 16.562v14.984h12.985v7.395l17.478-14.795-17.494-14.781v7.202l-12.969-0.005z" stroke="#fff" stroke-miterlimit="10" fill="none"/>
    </g>
    <g id="g3032" transform="translate(-36.028 -33.175)">
      <path id="path3034" opacity=".29947" d="m40.482 36.421a15.645 8.3969 0 1 1 -31.29 0 15.645 8.3969 0 1 1 31.29 0z" fill-rule="evenodd" transform="matrix(-1.2712 0 0 1.2712 56.195 -15.279)" fill="url(#radialGradient8668)"/>
      <path id="path3036" stroke-linejoin="round" d="m39.49 15.497v16.994h-12.952v8.483l-19.96-17 19.954-17.244v8.772l12.958-0.005z" fill-rule="evenodd" stroke="#3a7304" stroke-linecap="round" stroke-miterlimit="10" fill="url(#radialGradient2597)"/>
      <path id="path3038" opacity=".50802" fill-rule="evenodd" fill="url(#radialGradient8656)" d="m25.988 7.978v8.056h12.943v8.885c-16.75-6.25-16.134 5.295-31.384-0.955l18.441-15.986z"/>
      <path id="path3040" opacity=".48128" d="m38.476 16.541v14.922h-12.986v7.302l-17.322-14.796 17.338-14.905v7.482l12.97-0.005z" stroke="#fff" stroke-miterlimit="10" fill="none"/>
    </g>
    <g id="g3189" transform="translate(-.50565 -66.125)">
      <path id="path3191" opacity=".29947" d="m40.482 36.421a15.645 8.3969 0 1 1 -31.29 0 15.645 8.3969 0 1 1 31.29 0z" fill-rule="evenodd" transform="matrix(1.2145 0 0 .59546 -6.1638 16.313)" fill="url(#radialGradient8668)"/>
      <path id="path3193" stroke-linejoin="round" d="m14.492 38.5h17.977v-12.953h8.031l-17.125-20.048-16.846 19.99 7.968 0.067-0.005 12.944z" fill-rule="evenodd" stroke="#3a7304" stroke-linecap="round" stroke-miterlimit="10" fill="url(#radialGradient1441)"/>
      <path id="path3195" opacity=".50802" fill-rule="evenodd" fill="url(#radialGradient1438)" d="m7.5855 25.033h7.4105l0.066 6.561c5.656-11 15.994-8.844 16.595-15.627 0 0-8.29-9.545-8.29-9.545l-15.782 18.611z"/>
      <path id="path3197" opacity=".48128" d="m15.603 37.5h15.9v-12.993h6.809l-14.951-17.437-14.706 17.48 6.82-0.022 0.128 12.972z" stroke="#fff" stroke-miterlimit="10" fill="none"/>
    </g>
  </g>
  <metadata>
    <rdf:RDF>
      <cc:Work>
        <dc:format>image/svg+xml</dc:format>
        <dc:type rdf:resource="http://purl.org/dc/dcmitype/StillImage"/>
        <cc:license rdf:resource="http://creativecommons.org/licenses/publicdomain/"/>
        <dc:publisher>
          <cc:Agent rdf:about="http://openclipart.org/">
            <dc:title>Openclipart</dc:title>
          </cc:Agent>
        </dc:publisher>
        <dc:title>tango green arrows</dc:title>
        <dc:date>2010-03-09T11:45:50</dc:date>
        <dc:description>Set of arrows from Tango Project: http://tango.freedesktop.org/Tango_Desktop_Project&#xD;\n&#xD;\nTango Project icons are Public Domain.</dc:description>
        <dc:source>http://openclipart.org/detail/30397/tango-green-arrows-by-warszawianka</dc:source>
        <dc:creator>
          <cc:Agent>
            <dc:title>warszawianka</dc:title>
          </cc:Agent>
        </dc:creator>
        <dc:subject>
          <rdf:Bag>
            <rdf:li>arrow</rdf:li>
            <rdf:li>clip art</rdf:li>
            <rdf:li>clipart</rdf:li>
            <rdf:li>collection</rdf:li>
            <rdf:li>green</rdf:li>
            <rdf:li>icon</rdf:li>
            <rdf:li>set</rdf:li>
            <rdf:li>sign</rdf:li>
            <rdf:li>symbol</rdf:li>
          </rdf:Bag>
        </dc:subject>
      </cc:Work>
      <cc:License rdf:about="http://creativecommons.org/licenses/publicdomain/">
        <cc:permits rdf:resource="http://creativecommons.org/ns#Reproduction"/>
        <cc:permits rdf:resource="http://creativecommons.org/ns#Distribution"/>
        <cc:permits rdf:resource="http://creativecommons.org/ns#DerivativeWorks"/>
      </cc:License>
    </rdf:RDF>
  </metadata>
</svg>
