<?xml version="1.0"?>
<svg xmlns:rdf="http://www.w3.org/1999/02/22-rdf-syntax-ns#" xmlns="http://www.w3.org/2000/svg" xmlns:cc="http://creativecommons.org/ns#" xmlns:xlink="http://www.w3.org/1999/xlink" xmlns:dc="http://purl.org/dc/elements/1.1/" xmlns:svg="http://www.w3.org/2000/svg" id="svg9121" viewBox="0 0 48 48">
  <defs id="defs3">
    <radialGradient id="radialGradient6981" gradientUnits="userSpaceOnUse" cy="42.343" cx="26.782" gradientTransform="matrix(1 0 0 .28221 1.6792e-15 30.394)" r="14.407">
      <stop id="stop6977" offset="0"/>
      <stop id="stop6979" stop-opacity="0" offset="1"/>
    </radialGradient>
    <linearGradient id="linearGradient2935" x1="48.906" gradientUnits="userSpaceOnUse" y1="17.376" gradientTransform="matrix(.0052596 .99999 .99999 -.0052596 42.996 -2.4962)" x2="50.988" y2="22.251">
      <stop id="stop2968" stop-color="#ffd1d1" offset="0"/>
      <stop id="stop3006" stop-color="#ff1d1d" offset=".5"/>
      <stop id="stop2970" stop-color="#6f0000" offset="1"/>
    </linearGradient>
    <linearGradient id="linearGradient2937" x1="46" gradientUnits="userSpaceOnUse" y1="19.812" gradientTransform="matrix(.0052596 .99999 .99999 -.0052596 42.996 -2.4962)" x2="47.688" y2="22.625">
      <stop id="stop2976" stop-color="#c1c1c1" offset="0"/>
      <stop id="stop2978" stop-color="#acacac" offset="1"/>
    </linearGradient>
    <radialGradient id="radialGradient2939" gradientUnits="userSpaceOnUse" cy="27.641" cx="29.053" gradientTransform="matrix(.015377 2.9235 2.0297 -.010675 20.391 -69.727)" r="3.2409">
      <stop id="stop2986" stop-color="#e7e2b8" offset="0"/>
      <stop id="stop2988" stop-color="#e7e2b8" stop-opacity="0" offset="1"/>
    </radialGradient>
    <linearGradient id="linearGradient2941" x1="25.719" gradientUnits="userSpaceOnUse" y1="31.047" gradientTransform="matrix(.0052596 .99999 .99999 -.0052596 48.693 -14.145)" x2="25.515" y2="30.703">
      <stop id="stop2996" offset="0"/>
      <stop id="stop2998" stop-color="#c9c9c9" offset="1"/>
    </linearGradient>
  </defs>
  <g id="layer1">
    <path id="path6973" opacity=".3" style="color:#000000" d="m41.189 42.343a14.407 4.0659 0 1 1 -28.815 0 14.407 4.0659 0 1 1 28.815 0z" transform="matrix(1.3384 0 0 1 -20.926 -3.409)" fill="url(#radialGradient6981)"/>
    <g id="g2923" transform="matrix(-.055120 -.99848 -.99848 .055120 58.286 126.23)">
      <g id="g3017" transform="matrix(-.95889 -.28379 .28379 -.95889 199.7 82.004)" fill-rule="evenodd">
        <g id="g6334" transform="translate(32.56 -8.1756)">
          <path id="path2960" d="m81.189 8.8512l-5.595 5.6548-15.269 31.644c-1.233 3.257 3.402 5.17 5.012 2.287l14.894-31.581 0.958-8.0048z" stroke="#5c410c" fill="#cb9022"/>
          <path id="path2964" d="m63.227 41.398s0.101 1.437 1.354 1.993c1.291 0.573 2.656-0.014 2.656-0.014l-2.442 5.044s-0.874 1.457-2.84 0.671c-1.94-0.774-1.171-2.681-1.171-2.681l2.443-5.013z" fill="url(#linearGradient2935)"/>
          <path id="path2962" d="m63.227 41.398s0.101 1.437 1.354 1.993c1.291 0.573 2.656-0.014 2.656-0.014l-0.989 2.005s-1.315 0.834-2.687 0.233c-1.409-0.618-1.324-2.212-1.324-2.212l0.99-2.005z" fill="url(#linearGradient2937)"/>
          <path id="path2982" d="m80.478 10.282l-4.476 4.524c0.82 1.495 2.168 2.27 3.728 1.855l0.748-6.379z" fill="url(#radialGradient2939)"/>
          <path id="path2992" d="m79.079 11.633l1.585-1.6332-0.3 2.3452c-0.718 0.223-1.064-0.182-1.285-0.712z" fill="url(#linearGradient2941)"/>
          <path id="path3002" d="m75.971 14.806l1.258 1.556-12.789 26.954c-0.858-0.44-1.091-1.236-1.172-1.897l12.703-26.613z" fill="#fff" fill-opacity=".36364"/>
          <path id="path3004" d="m79.793 16.661l-0.749 0.191-12.55 26.769s0.614-0.114 0.749-0.22l12.55-26.74z" fill-opacity=".36364"/>
        </g>
        <path id="path6355" opacity=".72527" fill="#fff" d="m113.29 1.8486l-4.77 4.8613-8.31 17.28 8.71-16.794 4.37-5.3474z"/>
        <path id="path6357" opacity=".41758" fill="#fff" d="m113.16 1.8486l-0.88 6.7175-6.77 14.407 6.54-14.451-0.53 0.0883 1.64-6.7617z"/>
      </g>
    </g>
  </g>
  <metadata>
    <rdf:RDF>
      <cc:Work>
        <dc:format>image/svg+xml</dc:format>
        <dc:type rdf:resource="http://purl.org/dc/dcmitype/StillImage"/>
        <cc:license rdf:resource="http://creativecommons.org/licenses/publicdomain/"/>
        <dc:publisher>
          <cc:Agent rdf:about="http://openclipart.org/">
            <dc:title>Openclipart</dc:title>
          </cc:Agent>
        </dc:publisher>
        <dc:title>tango style pencil</dc:title>
        <dc:date>2010-03-29T09:25:12</dc:date>
        <dc:description>This is a remix of &lt;a href="http://www.openclipart.org/detail/35401"&gt; tango applications office &lt;/a&gt; icon.</dc:description>
        <dc:source>http://openclipart.org/detail/35449/tango-style-pencil-by-warszawianka</dc:source>
        <dc:creator>
          <cc:Agent>
            <dc:title>warszawianka</dc:title>
          </cc:Agent>
        </dc:creator>
        <dc:subject>
          <rdf:Bag>
            <rdf:li>clip art</rdf:li>
            <rdf:li>clipart</rdf:li>
            <rdf:li>icon</rdf:li>
            <rdf:li>pencil</rdf:li>
            <rdf:li>remix</rdf:li>
            <rdf:li>tango</rdf:li>
          </rdf:Bag>
        </dc:subject>
      </cc:Work>
      <cc:License rdf:about="http://creativecommons.org/licenses/publicdomain/">
        <cc:permits rdf:resource="http://creativecommons.org/ns#Reproduction"/>
        <cc:permits rdf:resource="http://creativecommons.org/ns#Distribution"/>
        <cc:permits rdf:resource="http://creativecommons.org/ns#DerivativeWorks"/>
      </cc:License>
    </rdf:RDF>
  </metadata>
</svg>
