<?xml version="1.0"?>
<svg xmlns:rdf="http://www.w3.org/1999/02/22-rdf-syntax-ns#" xmlns="http://www.w3.org/2000/svg" xmlns:cc="http://creativecommons.org/ns#" xmlns:xlink="http://www.w3.org/1999/xlink" xmlns:dc="http://purl.org/dc/elements/1.1/" xmlns:svg="http://www.w3.org/2000/svg" id="svg57" viewBox="0 0 48 48">
  <defs id="defs3">
    <radialGradient id="radialGradient6719" xlink:href="#linearGradient5060" gradientUnits="userSpaceOnUse" cy="486.65" cx="605.71" gradientTransform="matrix(-2.7744 0 0 1.9697 112.76 -872.89)" r="117.14"/>
    <linearGradient id="linearGradient5060">
      <stop id="stop5062" offset="0"/>
      <stop id="stop5064" stop-opacity="0" offset="1"/>
    </linearGradient>
    <radialGradient id="radialGradient6717" xlink:href="#linearGradient5060" gradientUnits="userSpaceOnUse" cy="486.65" cx="605.71" gradientTransform="matrix(2.7744 0 0 1.9697 -1891.6 -872.89)" r="117.14"/>
    <linearGradient id="linearGradient6715" x1="302.86" gradientUnits="userSpaceOnUse" y1="366.65" gradientTransform="matrix(2.7744 0 0 1.9697 -1892.2 -872.89)" x2="302.86" y2="609.51">
      <stop id="stop5050" stop-opacity="0" offset="0"/>
      <stop id="stop5056" offset=".5"/>
      <stop id="stop5052" stop-opacity="0" offset="1"/>
    </linearGradient>
    <linearGradient id="linearGradient1872" x1="-4.6375" gradientUnits="userSpaceOnUse" y1="104.39" gradientTransform="matrix(1.4649 0 0 .47591 30.565 -34.343)" x2="-4.5239" y2="110.61">
      <stop id="stop1870" stop-color="#eff3f4" offset="0"/>
      <stop id="stop1871" stop-color="#939596" offset="1"/>
    </linearGradient>
    <linearGradient id="linearGradient160" x1="55.208" gradientUnits="userSpaceOnUse" x2="60.686" gradientTransform="matrix(.77249 0 0 1.5578 -2.7953 -.16666)" y1="6.8898" y2="6.8898">
      <stop id="stop158" stop-color="#babdb6" offset="0"/>
      <stop id="stop159" stop-color="#f1f5ec" offset="1"/>
    </linearGradient>
    <linearGradient id="linearGradient164" x1="2.9326" gradientUnits="userSpaceOnUse" x2="19.738" gradientTransform="matrix(2.3749 0 0 .50671 -2.7953 -.16666)" y1="21.17" y2="21.17">
      <stop id="stop162" stop-color="#575955" offset="0"/>
      <stop id="stop163" stop-color="#7c7e79" offset="1"/>
    </linearGradient>
    <linearGradient id="linearGradient1068" x1="10.861" gradientUnits="userSpaceOnUse" y1="33.139" gradientTransform="scale(1.1756 .85060)" x2="30.587" y2="37.721">
      <stop id="stop1066" stop-color="#b5c051" offset="0"/>
      <stop id="stop1067" stop-color="#858e3f" offset="1"/>
    </linearGradient>
    <linearGradient id="linearGradient101" x1="19.347" gradientUnits="userSpaceOnUse" x2="19.673" gradientTransform="scale(1.1756 .85060)" y1="23.114" y2="52.625">
      <stop id="stop173" stop-color="#616c08" offset="0"/>
      <stop id="stop174" stop-color="#495106" offset="1"/>
    </linearGradient>
    <linearGradient id="linearGradient374" x1="17.574" gradientUnits="userSpaceOnUse" x2="25.312" gradientTransform="scale(1.1756 .85060)" y1="25.335" y2="48.805">
      <stop id="stop369" stop-color="#fff" stop-opacity=".10309" offset="0"/>
      <stop id="stop372" stop-color="#fff" stop-opacity="0" offset="1"/>
    </linearGradient>
    <linearGradient id="linearGradient384" x1="19.977" gradientUnits="userSpaceOnUse" x2="19.858" gradientTransform="scale(1.2157 .82259)" y1="38.963" y2="23.601">
      <stop id="stop382" stop-color="#fff" offset="0"/>
      <stop id="stop383" stop-color="#fff" stop-opacity="0" offset="1"/>
    </linearGradient>
    <linearGradient id="linearGradient3977" x1="7.3739" gradientUnits="userSpaceOnUse" y1="27.377" gradientTransform="matrix(3.495 0 0 .34432 -2.9721 -.034081)" x2="7.5291" y2="69.461">
      <stop id="stop150" offset="0"/>
      <stop id="stop151" stop-opacity="0" offset="1"/>
    </linearGradient>
  </defs>
  <g id="layer1">
    <g id="g6707" transform="matrix(.022624 0 0 .019662 44.395 41.981)">
      <rect id="rect6709" opacity=".40206" style="color:black" height="478.36" width="1339.6" y="-150.7" x="-1559.3" fill="url(#linearGradient6715)"/>
      <path id="path6711" opacity=".40206" style="color:black" fill="url(#radialGradient6717)" d="m-219.62-150.68v478.33c142.88 0.9 345.4-107.17 345.4-239.2 0-132.02-159.44-239.13-345.4-239.13z"/>
      <path id="path6713" opacity=".40206" style="color:black" fill="url(#radialGradient6719)" d="m-1559.3-150.68v478.33c-142.8 0.9-345.4-107.17-345.4-239.2 0-132.02 159.5-239.13 345.4-239.13z"/>
    </g>
    <g id="g3964">
      <path id="path1751" d="m3.8367 16.81c-0.0441-0.035 1.732 25.224 1.7325 25.232 0.1666 2.522 1.5652 3.444 3.1307 3.448 0.056 0 29.369-0.003 29.994-0.006 2.636-0.011 3.282-1.616 3.456-3.37 0.014-0.035 1.789-25.269 1.803-25.304h-40.116z" fill-rule="evenodd" transform="matrix(.99709 0 0 1.0112 .17527 -.49783)" stroke="url(#linearGradient101)" stroke-width=".99592" fill="url(#linearGradient1068)"/>
      <path id="path1893" style="color:#000000" d="m43.188 18.931l-35.988-0.023c27.114 0.63 32.441 3.609 35.746 3.457l0.242-3.434z" transform="matrix(1.0073 0 0 1.0107 -.25217 -.11055)" display="block" fill="url(#linearGradient3977)"/>
      <g id="g144" fill-rule="evenodd" fill="#fff" transform="matrix(1.4022 0 0 1.4389 -66.038 -8.1264)" fill-opacity=".4881">
        <path id="path41" d="m64.131 25.325l3.797 0.29 1.468-3.574-1.737 1.221s-0.745-1.738-1.28-1.878c-0.536-0.139-2.82-0.093-2.82-0.093 0.727 0.18 1.291 1.429 1.3 1.443 0.227 0.37 0.861 1.614 0.861 1.614l-1.589 0.977z"/>
        <path id="path130" d="m64.601 22.853l-1.257 2.397-2.584-1.629s1.172-2.211 2.095-2.211c0.931 0 1.347 0.802 1.746 1.443z" style="color:#000000" fill-opacity=".30952"/>
        <path id="path139" d="m66.451 28.546l-2.448 2.925 2.336 3.017 0.043-1.9s1.721 0.162 2.116-0.225c0.395-0.388 2.038-2.342 2.038-2.342-0.528 0.531-1.889 0.374-1.905 0.374-0.434 0.005-2.151-0.035-2.151-0.035l-0.029-1.814z"/>
        <path id="path140" d="m68.748 30.061l-1.411-2.31 2.726-1.379s1.295 2.141 0.821 2.933c-0.479 0.799-1.381 0.744-2.136 0.756z" style="color:#000000" fill-opacity=".30952"/>
        <path id="path142" d="m62.17 28.376l-1.208-3.183-3.524 0.249 1.446 1.054s-0.999 1.41-0.86 1.946c0.139 0.535 0.923 2.754 0.923 2.754-0.197-0.722 0.618-1.823 0.626-1.838 0.212-0.378 1.103-1.846 1.103-1.846l1.494 0.864z"/>
        <path id="path143" d="m59.753 29.661l2.706-0.071-0.164 3.051s-2.502 0.054-2.952-0.752c-0.454-0.813 0.044-1.568 0.41-2.228z" style="color:#000000" fill-opacity=".30952"/>
      </g>
      <path id="path344" fill-rule="evenodd" fill="url(#linearGradient374)" transform="matrix(.99709 0 0 1.0112 .25393 -.65481)" d="m41.625 23.652c-5.326 2.334-12.621 4.669-18.569 4.719-6.54 0.054-11.358 3.16-16.24 5.544 0.195 2.88 0.4097 4.891 0.6748 8.117 0.1323 1.608 0.638 1.57 2.9402 1.57 9.112 0 21.066 0.013 28.258 0.013 1.76 0 1.559-1.252 1.654-2.45 0.461-5.803 0.875-11.689 1.282-17.513z"/>
      <path id="path375" d="m5.2099 19.403c-0.0514 0 0.8392 12.675 1.5467 21.565 0.1826 2.282 0.5536 3.211 1.9912 3.211 11.851 0 28.694 0.085 29.267 0.083 2.775-0.01 2.723-1.026 2.953-3.184 0.083-0.786 1.537-21.587 1.523-21.587-9.93 0-25.012-0.057-37.281-0.088z" stroke-opacity=".28571" transform="matrix(.99709 0 0 1.0112 .21998 -.49783)" stroke="url(#linearGradient384)" stroke-width=".99592" fill="none"/>
    </g>
    <path id="path1841" d="m7.5385 4.7306c-1.0443 0.0024-1.9184 0.0264-2.3944 1.0136-0.0828 0.1716-2.605 7.1358-2.7262 7.4008-1.0381 2.274-0.0808 5.138 1.9243 5.119 0.3813-0.004 39.51 0.018 40.117 0 1.707-0.049 1.925-3.366 1.191-4.858-0.042-0.084-3.452-7.7567-3.539-7.8926-0.402-0.6069-1.303-0.8729-1.972-0.848-0.132 0.005-32.47 0.0649-32.6 0.0652z" fill-rule="evenodd" transform="matrix(1.0215 0 0 1.0289 -.53722 -.29842)" stroke="#4d5506" stroke-width=".97545" fill="url(#linearGradient1872)"/>
    <path id="path1864" style="color:#000000" d="m7.7204 6.3901c-0.9849-0.0128-1.049-0.0509-1.2707 0.6461-0.0512 0.1609-2.1132 6.4958-2.194 6.7408-0.2749 0.836 0.1138 1.057 1.0677 1.04 0.3379-0.006 37.347 0 37.885 0 0.764 0 0.991-0.252 0.818-0.845-0.07-0.242-2.941-7.005-3.018-7.1255-0.356-0.5379-0.295-0.5363-0.917-0.5439-0.117-0.0014-32.255 0.0889-32.371 0.0875z" fill-rule="evenodd" transform="matrix(1.0056 0 0 1.027 -.13408 -.27097)" display="block" fill="url(#linearGradient164)"/>
    <path id="path1880" style="color:#000000" d="m7.1914 6.387c-0.3708 0.0283-0.5492 0.1382-0.7045 0.6262-0.0511 0.1609-2.1109 6.4858-2.1917 6.7318-0.2749 0.836 0.0898 1.061 1.0437 1.044 0.0165-0.001 1.9533 0 2.1366 0l-0.2841-8.402z" fill-rule="evenodd" transform="matrix(1.0056 0 0 1.0289 -.13408 -.29842)" display="block" fill="#2e3436"/>
    <path id="path1888" style="color:#000000" d="m40.143 6.2999c0.451 0.0039 0.584-0.0052 0.872 0.5395 0.039 0.0745 2.874 6.7936 2.976 7.0386 0.346 0.948-0.313 0.928-1.359 0.955-0.199 0-2.549-0.022-2.78-0.022l0.291-8.5111z" fill-rule="evenodd" transform="matrix(1.0056 0 0 1.0289 -.13408 -.29842)" display="block" fill="url(#linearGradient160)"/>
  </g>
  <metadata>
    <rdf:RDF>
      <cc:Work>
        <dc:format>image/svg+xml</dc:format>
        <dc:type rdf:resource="http://purl.org/dc/dcmitype/StillImage"/>
        <cc:license rdf:resource="http://creativecommons.org/licenses/publicdomain/"/>
        <dc:publisher>
          <cc:Agent rdf:about="http://openclipart.org/">
            <dc:title>Openclipart</dc:title>
          </cc:Agent>
        </dc:publisher>
        <dc:title>tango user trash</dc:title>
        <dc:date>2010-04-03T15:19:19</dc:date>
        <dc:description>An icon from Tango Project. Since version 0.8.90 Tango Project icons are Public Domain.</dc:description>
        <dc:source>http://openclipart.org/detail/36595/tango-user-trash-by-warszawianka</dc:source>
        <dc:creator>
          <cc:Agent>
            <dc:title>warszawianka</dc:title>
          </cc:Agent>
        </dc:creator>
        <dc:subject>
          <rdf:Bag>
            <rdf:li>clip art</rdf:li>
            <rdf:li>clipart</rdf:li>
            <rdf:li>externalosurce</rdf:li>
            <rdf:li>icon</rdf:li>
            <rdf:li>recycle</rdf:li>
            <rdf:li>tango</rdf:li>
            <rdf:li>trash</rdf:li>
          </rdf:Bag>
        </dc:subject>
      </cc:Work>
      <cc:License rdf:about="http://creativecommons.org/licenses/publicdomain/">
        <cc:permits rdf:resource="http://creativecommons.org/ns#Reproduction"/>
        <cc:permits rdf:resource="http://creativecommons.org/ns#Distribution"/>
        <cc:permits rdf:resource="http://creativecommons.org/ns#DerivativeWorks"/>
      </cc:License>
    </rdf:RDF>
  </metadata>
</svg>
