<?xml version="1.0"?>
<svg xmlns:rdf="http://www.w3.org/1999/02/22-rdf-syntax-ns#" xmlns="http://www.w3.org/2000/svg" xmlns:cc="http://creativecommons.org/ns#" xmlns:xlink="http://www.w3.org/1999/xlink" xmlns:dc="http://purl.org/dc/elements/1.1/" xmlns:svg="http://www.w3.org/2000/svg" id="svg1306" viewBox="0 0 48 48">
  <defs id="defs1308">
    <linearGradient id="linearGradient10630" x1="284.8" xlink:href="#linearGradient6549" gradientUnits="userSpaceOnUse" x2="288.9" y1="-441.23" y2="-436.83"/>
    <linearGradient id="linearGradient10628" x1="286.67" xlink:href="#linearGradient6549" gradientUnits="userSpaceOnUse" x2="289.77" y1="-439.48" y2="-436.71"/>
    <linearGradient id="linearGradient10626" x1="275.94" xlink:href="#linearGradient6549" gradientUnits="userSpaceOnUse" x2="279.98" y1="-437.11" y2="-431.92"/>
    <linearGradient id="linearGradient10624" x1="285.94" xlink:href="#linearGradient6549" gradientUnits="userSpaceOnUse" x2="289.39" y1="-439.94" y2="-436.44"/>
    <linearGradient id="linearGradient10622" x1="286.51" xlink:href="#linearGradient6549" gradientUnits="userSpaceOnUse" x2="289.85" y1="-441.29" y2="-436.14"/>
    <linearGradient id="linearGradient10620" x1="287.52" xlink:href="#linearGradient6549" gradientUnits="userSpaceOnUse" x2="289.68" y1="-439.75" y2="-436.32"/>
    <linearGradient id="linearGradient10618" x1="271.02" xlink:href="#linearGradient6549" gradientUnits="userSpaceOnUse" x2="285.03" y1="-441.05" y2="-431.97"/>
    <linearGradient id="linearGradient6549">
      <stop id="stop6551" stop-color="#fff" offset="0"/>
      <stop id="stop6553" stop-color="#fff" stop-opacity="0" offset="1"/>
    </linearGradient>
    <linearGradient id="linearGradient10602" y2="-96.545" gradientUnits="userSpaceOnUse" y1="-100.53" x2="-153.1" x1="-156.29">
      <stop id="stop7836" stop-color="#fff" offset="0"/>
      <stop id="stop7838" stop-color="#fff" stop-opacity="0" offset="1"/>
    </linearGradient>
    <linearGradient id="linearGradient10600" y2="-382.65" gradientUnits="userSpaceOnUse" y1="-388.47" x2="245.65" x1="238">
      <stop id="stop8400" stop-color="#fff" offset="0"/>
      <stop id="stop8402" stop-color="#fff" stop-opacity="0" offset="1"/>
    </linearGradient>
    <linearGradient id="linearGradient10598" y2="-386.96" gradientUnits="userSpaceOnUse" y1="-390.44" x2="235.26" x1="230.88">
      <stop id="stop8317" stop-color="#fff" offset="0"/>
      <stop id="stop8319" stop-color="#fff" stop-opacity="0" offset="1"/>
    </linearGradient>
    <linearGradient id="linearGradient10596" y2="-385.35" gradientUnits="userSpaceOnUse" y1="-391.31" x2="252.7" x1="246.74">
      <stop id="stop8383" stop-color="#fff" offset="0"/>
      <stop id="stop8385" stop-color="#fff" stop-opacity="0" offset="1"/>
    </linearGradient>
    <linearGradient id="linearGradient10594" y2="-388.55" gradientUnits="userSpaceOnUse" y1="-393.41" x2="245.83" x1="240.07">
      <stop id="stop8333" stop-color="#fff" offset="0"/>
      <stop id="stop8335" stop-color="#fff" stop-opacity="0" offset="1"/>
    </linearGradient>
    <linearGradient id="linearGradient10592" x1="228.5" gradientUnits="userSpaceOnUse" y1="-392.31" gradientTransform="translate(122.02 102)" x2="278.92" y2="-375.38">
      <stop id="stop8304" stop-color="#fff" offset="0"/>
      <stop id="stop8306" stop-color="#fff" stop-opacity="0" offset="1"/>
    </linearGradient>
  </defs>
  <g id="layer1">
    <g id="g9947" transform="translate(-340.05 298)">
      <path id="path8718" fill="#888a85" d="m364.52-296c-2.77 0-5.11 1.57-6.4 3.81-0.95-0.47-1.97-0.81-3.1-0.81-3.86 0-7 3.14-7 7s3.14 7 7 7c2.42 0 4.43-1.32 5.69-3.19 1.13 0.69 2.39 1.19 3.81 1.19 0.92 0 1.76-0.23 2.57-0.53 0.51 0.87 1.17 1.58 2 2.15-0.01 0.14-0.07 0.25-0.07 0.38 0 3.86 3.14 7 7 7 3.87 0 7-3.14 7-7 0-2.37-1.26-4.36-3.06-5.62 0.01-0.14 0.06-0.25 0.06-0.38 0-3.86-3.13-7-7-7-0.62 0-1.17 0.22-1.75 0.38-1.19-2.56-3.74-4.38-6.75-4.38z"/>
      <path id="path8720" fill="url(#linearGradient10592)" d="m364.52-295c-2.78 0-5.13 1.76-6.06 4.22-0.98-0.71-2.13-1.22-3.44-1.22-3.31 0-6 2.69-6 6s2.69 6 6 6c2.43 0 4.5-1.46 5.44-3.53 1.12 0.92 2.5 1.53 4.06 1.53 1.08 0 2.05-0.32 2.94-0.78 0.4 1 1.1 1.79 1.94 2.44-0.18 0.59-0.38 1.19-0.38 1.84 0 3.59 2.92 6.5 6.5 6.5 3.59 0 6.5-2.91 6.5-6.5 0-2.36-1.33-4.33-3.22-5.47 0.07-0.35 0.22-0.66 0.22-1.03 0-3.31-2.68-6-6-6-0.85 0-1.67 0.18-2.4 0.5-0.86-2.59-3.22-4.5-6.1-4.5z"/>
      <path id="path8722" transform="matrix(.96445 0 0 .96445 142.31 91.526)" fill="#c4c5c2" d="m248.55-383.67a6.7396 6.7396 0 1 1 -13.48 0 6.7396 6.7396 0 1 1 13.48 0z"/>
      <g id="g8724" transform="translate(122.02 102)">
        <path id="path8726" transform="matrix(.88263 0 0 .88263 27.181 -46.891)" fill="#c4c5c2" d="m250.18-389.3a6.2314 6.2314 0 1 1 -12.46 0 6.2314 6.2314 0 1 1 12.46 0z"/>
        <path id="path8728" transform="matrix(.88263 0 0 .88263 27.181 -46.891)" fill="url(#linearGradient10594)" d="m250.18-389.3a6.2314 6.2314 0 1 1 -12.46 0 6.2314 6.2314 0 1 1 12.46 0z"/>
      </g>
      <g id="g8730" transform="translate(122.02 102)">
        <path id="path8732" transform="matrix(.91173 0 0 .91173 21.454 -34.766)" fill="#c4c5c2" d="m257.25-385.79a6.0325 6.0325 0 1 1 -12.06 0 6.0325 6.0325 0 1 1 12.06 0z"/>
        <path id="path8734" transform="matrix(.91173 0 0 .91173 21.454 -34.766)" fill="url(#linearGradient10596)" d="m257.25-385.79a6.0325 6.0325 0 1 1 -12.06 0 6.0325 6.0325 0 1 1 12.06 0z"/>
      </g>
      <g id="g8736" transform="translate(122.02 102)">
        <path id="path8738" transform="matrix(1.1428 0 0 1.1428 -33.768 55.277)" fill="#c4c5c2" d="m237.81-387.89a4.3752 4.3752 0 1 1 -8.75 0 4.3752 4.3752 0 1 1 8.75 0z"/>
        <path id="path8740" transform="matrix(1.1428 0 0 1.1428 -33.768 55.277)" fill="url(#linearGradient10598)" d="m237.81-387.89a4.3752 4.3752 0 1 1 -8.75 0 4.3752 4.3752 0 1 1 8.75 0z"/>
      </g>
      <g id="g8742" transform="translate(122.02 102)">
        <path id="path8744" transform="matrix(1.0386 0 0 1.0386 -9.1509 14.49)" fill="#c4c5c2" d="m248.55-383.67a6.7396 6.7396 0 1 1 -13.48 0 6.7396 6.7396 0 1 1 13.48 0z"/>
        <path id="path8746" transform="matrix(1.0386 0 0 1.0386 -9.1509 14.49)" fill="url(#linearGradient10600)" d="m248.55-383.67a6.7396 6.7396 0 1 1 -13.48 0 6.7396 6.7396 0 1 1 13.48 0z"/>
      </g>
      <g id="g8748" transform="matrix(.93503 0 0 .93503 499.85 -187.62)">
        <path id="path8750" transform="matrix(1.7377 0 0 1.7377 110.83 70.076)" fill="#c4c5c2" d="m-151.94-96.938a3.125 3.125 0 1 1 -6.25 0 3.125 3.125 0 1 1 6.25 0z"/>
        <path id="path8752" transform="matrix(1.7377 0 0 1.7377 110.89 70.014)" fill="url(#linearGradient10602)" d="m-151.94-96.938a3.125 3.125 0 1 1 -6.25 0 3.125 3.125 0 1 1 6.25 0z"/>
      </g>
      <g id="g8798" transform="translate(91.023 162)">
        <path id="path8800" stroke="#888a85" fill="#c4c5c2" stroke-miterlimit="2" d="m280.5-445.5c-2.27 0-4.11 1.55-4.72 3.62-0.69-0.36-1.44-0.62-2.28-0.62-2.76 0-5 2.24-5 5 0 0.58 0.16 1.11 0.34 1.62-1.37 0.78-2.34 2.19-2.34 3.88 0 2.48 2.02 4.5 4.5 4.5h19c2.48 0 4.5-2.02 4.5-4.5 0-1.69-0.97-3.1-2.34-3.88 0.18-0.51 0.34-1.04 0.34-1.62 0-2.76-2.24-5-5-5-0.84 0-1.59 0.26-2.28 0.62-0.61-2.07-2.45-3.62-4.72-3.62z"/>
        <path id="path8802" fill="url(#linearGradient10618)" d="m280.5-445c-2.19 0-3.72 1.34-4.4 3.84-0.66-0.34-1.54-0.83-2.35-0.83-2.72 0-4.76 1.94-4.76 4.55 0 0.54 0.27 1.33 0.45 1.82-1.33 0.73-2.44 1.89-2.44 3.37 0 2.35 1.55 4.25 4.34 4.25h18.32c2.77 0 4.34-1.9 4.34-4.25 0-1.59-1.11-2.67-2.44-3.39 0.18-0.49 0.47-1.26 0.47-1.8 0-2.61-2.12-4.57-4.78-4.57-0.81 0-1.64 0.49-2.31 0.83-0.65-2.42-2.25-3.82-4.44-3.82z"/>
        <g id="g8804">
          <path id="path8806" transform="matrix(1.0566 0 0 1.0566 -24.198 21.863)" fill="#c4c5c2" d="m291.69-437.59a3.3125 3.3125 0 1 1 -6.63 0 3.3125 3.3125 0 1 1 6.63 0z"/>
          <path id="path8808" transform="matrix(1.0566 0 0 1.0566 -24.198 21.863)" fill="url(#linearGradient10620)" d="m291.69-437.59a3.3125 3.3125 0 1 1 -6.63 0 3.3125 3.3125 0 1 1 6.63 0z"/>
        </g>
        <rect id="rect8810" height="9" width="20" y="-438" x="271" fill="#c4c5c2"/>
        <path id="path8812" transform="matrix(.90566 0 0 .90566 9.8302 -35.689)" fill="#c4c5c2" d="m291.69-437.59a3.3125 3.3125 0 1 1 -6.63 0 3.3125 3.3125 0 1 1 6.63 0z"/>
        <g id="g8814">
          <path id="path8816" transform="matrix(1.0566 0 0 1.0566 -17.198 24.863)" fill="#c4c5c2" d="m291.69-437.59a3.3125 3.3125 0 1 1 -6.63 0 3.3125 3.3125 0 1 1 6.63 0z"/>
          <path id="path8818" transform="matrix(1.0566 0 0 1.0566 -17.198 24.863)" fill="url(#linearGradient10622)" d="m291.69-437.59a3.3125 3.3125 0 1 1 -6.63 0 3.3125 3.3125 0 1 1 6.63 0z"/>
        </g>
        <g id="g8820">
          <path id="path8822" transform="matrix(1.0566 0 0 1.0566 -31.198 24.863)" fill="#c4c5c2" d="m291.69-437.59a3.3125 3.3125 0 1 1 -6.63 0 3.3125 3.3125 0 1 1 6.63 0z"/>
          <path id="path8824" transform="matrix(1.0566 0 0 1.0566 -31.198 24.863)" fill="url(#linearGradient10624)" d="m291.69-437.59a3.3125 3.3125 0 1 1 -6.63 0 3.3125 3.3125 0 1 1 6.63 0z"/>
        </g>
        <g id="g8826" transform="translate(-1)">
          <path id="path8828" fill="#c4c5c2" d="m280.47-440.97c-3.58 0-6.47 2.92-6.47 6.5 0 2.37 1.35 4.34 3.25 5.47h6.47c1.9-1.13 3.25-3.13 3.25-5.5 0-3.58-2.92-6.47-6.5-6.47z"/>
          <path id="path8830" fill="url(#linearGradient10626)" d="m280.5-441c-3.59 0-6.5 2.91-6.5 6.5 0 2.38 1.34 4.37 3.25 5.5h6.5c1.91-1.13 3.25-3.12 3.25-5.5 0-3.59-2.91-6.5-6.5-6.5z"/>
        </g>
        <path id="path8832" transform="matrix(.90566 0 0 .90566 9.8303 -35.689)" fill="url(#linearGradient10628)" d="m291.69-437.59a3.3125 3.3125 0 1 1 -6.63 0 3.3125 3.3125 0 1 1 6.63 0z"/>
        <path id="path8834" fill-rule="evenodd" fill="#888a85" d="m292.96-437.33c-0.01 2.68-3.27 3.71-3.27 3.71s2.35-1.63 2.33-3.71h0.94z"/>
        <g id="g8836" transform="matrix(1.1429 0 0 1.1429 -28.571 67)">
          <path id="path8838" transform="matrix(1.0566 0 0 1.0566 -31.198 24.863)" fill="#c4c5c2" d="m291.69-437.59a3.3125 3.3125 0 1 1 -6.63 0 3.3125 3.3125 0 1 1 6.63 0z"/>
          <path id="path8840" transform="matrix(1.0566 0 0 1.0566 -31.198 24.863)" fill="url(#linearGradient10630)" d="m291.69-437.59a3.3125 3.3125 0 1 1 -6.63 0 3.3125 3.3125 0 1 1 6.63 0z"/>
        </g>
      </g>
      <g id="g8754" transform="translate(76.02 158)">
        <path id="path8756" stroke="#888a85" fill="#c4c5c2" stroke-miterlimit="2" d="m280.5-445.5c-2.27 0-4.11 1.55-4.72 3.62-0.69-0.36-1.44-0.62-2.28-0.62-2.76 0-5 2.24-5 5 0 0.58 0.16 1.11 0.34 1.62-1.37 0.78-2.34 2.19-2.34 3.88 0 2.48 2.02 4.5 4.5 4.5h19c2.48 0 4.5-2.02 4.5-4.5 0-1.69-0.97-3.1-2.34-3.88 0.18-0.51 0.34-1.04 0.34-1.62 0-2.76-2.24-5-5-5-0.84 0-1.59 0.26-2.28 0.62-0.61-2.07-2.45-3.62-4.72-3.62z"/>
        <path id="path8758" fill="url(#linearGradient10618)" d="m280.5-445c-2.19 0-3.72 1.34-4.4 3.84-0.66-0.34-1.54-0.83-2.35-0.83-2.72 0-4.76 1.94-4.76 4.55 0 0.54 0.27 1.33 0.45 1.82-1.33 0.73-2.44 1.89-2.44 3.37 0 2.35 1.55 4.25 4.34 4.25h18.32c2.77 0 4.34-1.9 4.34-4.25 0-1.59-1.11-2.67-2.44-3.39 0.18-0.49 0.47-1.26 0.47-1.8 0-2.61-2.12-4.57-4.78-4.57-0.81 0-1.64 0.49-2.31 0.83-0.65-2.42-2.25-3.82-4.44-3.82z"/>
        <g id="g8760">
          <path id="path8762" transform="matrix(1.0566 0 0 1.0566 -24.198 21.863)" fill="#c4c5c2" d="m291.69-437.59a3.3125 3.3125 0 1 1 -6.63 0 3.3125 3.3125 0 1 1 6.63 0z"/>
          <path id="path8764" transform="matrix(1.0566 0 0 1.0566 -24.198 21.863)" fill="url(#linearGradient10620)" d="m291.69-437.59a3.3125 3.3125 0 1 1 -6.63 0 3.3125 3.3125 0 1 1 6.63 0z"/>
        </g>
        <rect id="rect8766" height="9" width="20" y="-438" x="271" fill="#c4c5c2"/>
        <path id="path8768" transform="matrix(.90566 0 0 .90566 9.8302 -35.689)" fill="#c4c5c2" d="m291.69-437.59a3.3125 3.3125 0 1 1 -6.63 0 3.3125 3.3125 0 1 1 6.63 0z"/>
        <g id="g8770">
          <path id="path8772" transform="matrix(1.0566 0 0 1.0566 -17.198 24.863)" fill="#c4c5c2" d="m291.69-437.59a3.3125 3.3125 0 1 1 -6.63 0 3.3125 3.3125 0 1 1 6.63 0z"/>
          <path id="path8774" transform="matrix(1.0566 0 0 1.0566 -17.198 24.863)" fill="url(#linearGradient10622)" d="m291.69-437.59a3.3125 3.3125 0 1 1 -6.63 0 3.3125 3.3125 0 1 1 6.63 0z"/>
        </g>
        <g id="g8776">
          <path id="path8778" transform="matrix(1.0566 0 0 1.0566 -31.198 24.863)" fill="#c4c5c2" d="m291.69-437.59a3.3125 3.3125 0 1 1 -6.63 0 3.3125 3.3125 0 1 1 6.63 0z"/>
          <path id="path8780" transform="matrix(1.0566 0 0 1.0566 -31.198 24.863)" fill="url(#linearGradient10624)" d="m291.69-437.59a3.3125 3.3125 0 1 1 -6.63 0 3.3125 3.3125 0 1 1 6.63 0z"/>
        </g>
        <g id="g8782" transform="translate(-1)">
          <path id="path8784" fill="#c4c5c2" d="m280.47-440.97c-3.58 0-6.47 2.92-6.47 6.5 0 2.37 1.35 4.34 3.25 5.47h6.47c1.9-1.13 3.25-3.13 3.25-5.5 0-3.58-2.92-6.47-6.5-6.47z"/>
          <path id="path8786" fill="url(#linearGradient10626)" d="m280.5-441c-3.59 0-6.5 2.91-6.5 6.5 0 2.38 1.34 4.37 3.25 5.5h6.5c1.91-1.13 3.25-3.12 3.25-5.5 0-3.59-2.91-6.5-6.5-6.5z"/>
        </g>
        <path id="path8788" transform="matrix(.90566 0 0 .90566 9.8303 -35.689)" fill="url(#linearGradient10628)" d="m291.69-437.59a3.3125 3.3125 0 1 1 -6.63 0 3.3125 3.3125 0 1 1 6.63 0z"/>
        <path id="path8790" fill-rule="evenodd" fill="#888a85" d="m292.96-437.33c-0.01 2.68-3.27 3.71-3.27 3.71s2.35-1.63 2.33-3.71h0.94z"/>
        <g id="g8792" transform="matrix(1.1429 0 0 1.1429 -28.571 67)">
          <path id="path8794" transform="matrix(1.0566 0 0 1.0566 -31.198 24.863)" fill="#c4c5c2" d="m291.69-437.59a3.3125 3.3125 0 1 1 -6.63 0 3.3125 3.3125 0 1 1 6.63 0z"/>
          <path id="path8796" transform="matrix(1.0566 0 0 1.0566 -31.198 24.863)" fill="url(#linearGradient10630)" d="m291.69-437.59a3.3125 3.3125 0 1 1 -6.63 0 3.3125 3.3125 0 1 1 6.63 0z"/>
        </g>
      </g>
    </g>
    <g id="g12157" stroke="#729fcf" fill="#fff" stroke-miterlimit="0" transform="translate(-163.01 222.01)">
      <path id="path12159" stroke-width="1.4587" transform="matrix(.68552 0 0 .68552 151.7 27.158)" d="m31.82-316.78a2.2097 2.2097 0 1 1 -4.42 0 2.2097 2.2097 0 1 1 4.42 0z"/>
      <path id="path12161" stroke-width="1.0922" transform="matrix(.91557 0 0 .91559 152.41 103.56)" d="m31.82-316.78a2.2097 2.2097 0 1 1 -4.42 0 2.2097 2.2097 0 1 1 4.42 0z"/>
      <path id="path12163" stroke-width="1.4748" transform="matrix(.67241 0 0 .68374 153.07 34.621)" d="m31.82-316.78a2.2097 2.2097 0 1 1 -4.42 0 2.2097 2.2097 0 1 1 4.42 0z"/>
      <path id="path12165" stroke-width="1.4678" transform="matrix(.68230 0 0 .68027 181.8 30.495)" d="m31.82-316.78a2.2097 2.2097 0 1 1 -4.42 0 2.2097 2.2097 0 1 1 4.42 0z"/>
      <path id="path12167" stroke-width=".89917" transform="matrix(1.1071 0 0 1.1172 157.22 164.92)" d="m31.82-316.78a2.2097 2.2097 0 1 1 -4.42 0 2.2097 2.2097 0 1 1 4.42 0z"/>
      <path id="path12169" stroke-width=".91823" transform="matrix(1.1276 0 0 1.0518 161.61 151.37)" d="m31.82-316.78a2.2097 2.2097 0 1 1 -4.42 0 2.2097 2.2097 0 1 1 4.42 0z"/>
      <path id="path12171" stroke-width="1.4641" transform="matrix(.68552 0 0 .68049 164.69 34.564)" d="m31.82-316.78a2.2097 2.2097 0 1 1 -4.42 0 2.2097 2.2097 0 1 1 4.42 0z"/>
    </g>
  </g>
  <metadata>
    <rdf:RDF>
      <cc:Work>
        <dc:format>image/svg+xml</dc:format>
        <dc:type rdf:resource="http://purl.org/dc/dcmitype/StillImage"/>
        <cc:license rdf:resource="http://creativecommons.org/licenses/publicdomain/"/>
        <dc:publisher>
          <cc:Agent rdf:about="http://openclipart.org/">
            <dc:title>Openclipart</dc:title>
          </cc:Agent>
        </dc:publisher>
        <dc:title>tango weather snow</dc:title>
        <dc:date>2010-03-08T06:59:08</dc:date>
        <dc:description>Weather icon from Tango Project: http://tango.freedesktop.org/Tango_Desktop_Project&#xD;\n&lt;br&gt;&lt;br&gt;&#xD;\nTango Project icons are Public Domain.</dc:description>
        <dc:source>http://openclipart.org/detail/30157/tango-weather-snow-by-warszawianka</dc:source>
        <dc:creator>
          <cc:Agent>
            <dc:title>warszawianka</dc:title>
          </cc:Agent>
        </dc:creator>
        <dc:subject>
          <rdf:Bag>
            <rdf:li>clip art</rdf:li>
            <rdf:li>clipart</rdf:li>
            <rdf:li>cloud</rdf:li>
            <rdf:li>icon</rdf:li>
            <rdf:li>snow</rdf:li>
            <rdf:li>weather</rdf:li>
            <rdf:li>winter</rdf:li>
          </rdf:Bag>
        </dc:subject>
      </cc:Work>
      <cc:License rdf:about="http://creativecommons.org/licenses/publicdomain/">
        <cc:permits rdf:resource="http://creativecommons.org/ns#Reproduction"/>
        <cc:permits rdf:resource="http://creativecommons.org/ns#Distribution"/>
        <cc:permits rdf:resource="http://creativecommons.org/ns#DerivativeWorks"/>
      </cc:License>
    </rdf:RDF>
  </metadata>
</svg>
