<?xml version="1.0"?>
<svg xmlns:rdf="http://www.w3.org/1999/02/22-rdf-syntax-ns#" xmlns="http://www.w3.org/2000/svg" xmlns:cc="http://creativecommons.org/ns#" xmlns:xlink="http://www.w3.org/1999/xlink" xmlns:dc="http://purl.org/dc/elements/1.1/" xmlns:svg="http://www.w3.org/2000/svg" id="svg1306" viewBox="0 0 48 48">
  <defs id="defs1308">
    <linearGradient id="linearGradient3168" y2="-9.5591" gradientUnits="userSpaceOnUse" y1="-25.327" x2="-37.197" x1="-28.969">
      <stop id="stop4028" stop-color="#fff9c6" offset="0"/>
      <stop id="stop4042" stop-color="#fff28c" offset=".54167"/>
      <stop id="stop4030" stop-color="#ffea85" offset="1"/>
    </linearGradient>
    <radialGradient id="radialGradient4020" gradientUnits="userSpaceOnUse" cy="-22.113" cx="-33.519" gradientTransform="matrix(.48774 1.2924 -1.1027 .49724 -41.774 32.415)" r="9.5">
      <stop id="stop4034" stop-color="#fff7c2" stop-opacity=".6383" offset="0"/>
      <stop id="stop4036" stop-color="#fcaf3e" stop-opacity=".18349" offset=".59394"/>
      <stop id="stop4038" stop-color="#fcaf3e" stop-opacity=".50459" offset=".83851"/>
      <stop id="stop4040" stop-color="#fcaf3e" offset="1"/>
    </radialGradient>
    <radialGradient id="radialGradient4081" gradientUnits="userSpaceOnUse" cy="23.382" cx="24" gradientTransform="matrix(1.0067 2.2353e-16 -2.2372e-16 1.0075 -.16082 .42698)" r="19.142">
      <stop id="stop4085" stop-color="#fff" stop-opacity="0" offset="0"/>
      <stop id="stop4089" stop-color="#fff" stop-opacity="0" offset=".75"/>
      <stop id="stop4087" stop-color="#fff" offset="1"/>
    </radialGradient>
  </defs>
  <g id="layer1">
    <g id="g3936">
      <g id="g4091" opacity=".7" stroke-linecap="square">
        <path id="path7492" stroke="#fcaf3e" stroke-width=".73733" fill="#fce94f" d="m24 2.5l-2.375 6.6875c0.774-0.1234 1.566-0.1875 2.375-0.1875s1.601 0.0641 2.375 0.1875l-2.375-6.6875zm-15.188 6.2812l3.0315 6.4378c0.935-1.29 2.085-2.44 3.375-3.375l-6.4065-3.0628zm30.406 0l-6.438 3.0628c1.29 0.935 2.44 2.085 3.375 3.375l3.063-6.4378zm-30.032 12.813l-6.6875 2.375 6.6875 2.375c-0.1202-0.764-0.1875-1.546-0.1875-2.344 0-0.819 0.0609-1.622 0.1875-2.406zm29.624 0.031c0.124 0.774 0.188 1.566 0.188 2.375s-0.064 1.601-0.188 2.375l6.688-2.375-6.688-2.375zm-26.968 11.156l-3.0315 6.407 6.4065-3.032c-1.29-0.935-2.44-2.085-3.375-3.375zm24.312 0c-0.926 1.278-2.068 2.414-3.344 3.344l6.407 3.063-3.063-6.407zm-14.531 6.031l2.375 6.688 2.375-6.688c-0.774 0.124-1.566 0.188-2.375 0.188s-1.601-0.064-2.375-0.188z"/>
        <path id="path7494" stroke="url(#radialGradient4081)" stroke-width=".84646" fill="none" d="m24 5.25l-1.344 3.8125c0.443-0.0394 0.891-0.0625 1.344-0.0625s0.901 0.0231 1.344 0.0625l-1.344-3.8125zm-13.219 5.5l1.719 3.625c0.572-0.681 1.224-1.336 1.906-1.906l-3.625-1.719zm26.469 0l-3.625 1.719c0.68 0.569 1.337 1.226 1.906 1.906l1.719-3.625zm-28.188 11.875l-3.7813 1.344 3.7813 1.343c-0.0375-0.432-0.0625-0.87-0.0625-1.312 0-0.464 0.0213-0.922 0.0625-1.375zm29.876 0.031c0.039 0.443 0.062 0.891 0.062 1.344s-0.023 0.901-0.062 1.344l3.781-1.344-3.781-1.344zm-3.407 10.938c-0.573 0.686-1.221 1.363-1.906 1.937l3.625 1.719-1.719-3.656zm-23.031 0.031l-1.719 3.594 3.594-1.719c-0.672-0.564-1.311-1.203-1.875-1.875zm10.156 5.313l1.344 3.781 1.344-3.781c-0.443 0.039-0.891 0.062-1.344 0.062s-0.901-0.023-1.344-0.062z"/>
      </g>
      <g id="g4046">
        <g id="g3931">
          <path id="path7498" d="m-22.5-17.5a9.5 9.5 0 1 1 -19 0 9.5 9.5 0 1 1 19 0z" transform="matrix(.77806 -1.0613 1.0613 .77806 67.48 3.6413)" stroke="#fcaf3e" stroke-linecap="square" stroke-width=".75991" fill="#ffee54"/>
          <path id="path7500" transform="matrix(1.2443 -.16771 .21664 1.2518 67.616 40.527)" fill="url(#radialGradient4020)" d="m-22.5-17.5a9.5 9.5 0 1 1 -19 0 9.5 9.5 0 1 1 19 0z"/>
          <path id="path7502" d="m-22.5-17.5a9.5 9.5 0 1 1 -19 0 9.5 9.5 0 1 1 19 0z" transform="matrix(.71579 -.97635 .97635 .71579 64 5.2695)" stroke="url(#linearGradient3168)" stroke-linecap="square" stroke-width=".82602" fill="none"/>
        </g>
      </g>
    </g>
  </g>
  <metadata>
    <rdf:RDF>
      <cc:Work>
        <dc:format>image/svg+xml</dc:format>
        <dc:type rdf:resource="http://purl.org/dc/dcmitype/StillImage"/>
        <cc:license rdf:resource="http://creativecommons.org/licenses/publicdomain/"/>
        <dc:publisher>
          <cc:Agent rdf:about="http://openclipart.org/">
            <dc:title>Openclipart</dc:title>
          </cc:Agent>
        </dc:publisher>
        <dc:title>tango weather clear</dc:title>
        <dc:date>2010-03-07T17:20:30</dc:date>
        <dc:description>Weather icon from Tango Project: http://tango.freedesktop.org/Tango_Desktop_Project\n&lt;br&gt;&lt;br&gt;\nTango Project icons are Public Domain.</dc:description>
        <dc:source>http://openclipart.org/detail/30061/tango-weather-clear-by-warszawianka</dc:source>
        <dc:creator>
          <cc:Agent>
            <dc:title>warszawianka</dc:title>
          </cc:Agent>
        </dc:creator>
        <dc:subject>
          <rdf:Bag>
            <rdf:li>clear</rdf:li>
            <rdf:li>clip art</rdf:li>
            <rdf:li>clipart</rdf:li>
            <rdf:li>icon</rdf:li>
            <rdf:li>sky</rdf:li>
            <rdf:li>sun</rdf:li>
            <rdf:li>sunny</rdf:li>
            <rdf:li>weather</rdf:li>
          </rdf:Bag>
        </dc:subject>
      </cc:Work>
      <cc:License rdf:about="http://creativecommons.org/licenses/publicdomain/">
        <cc:permits rdf:resource="http://creativecommons.org/ns#Reproduction"/>
        <cc:permits rdf:resource="http://creativecommons.org/ns#Distribution"/>
        <cc:permits rdf:resource="http://creativecommons.org/ns#DerivativeWorks"/>
      </cc:License>
    </rdf:RDF>
  </metadata>
</svg>
