<?xml version="1.0"?>
<svg xmlns:rdf="http://www.w3.org/1999/02/22-rdf-syntax-ns#" xmlns="http://www.w3.org/2000/svg" xmlns:cc="http://creativecommons.org/ns#" xmlns:xlink="http://www.w3.org/1999/xlink" xmlns:dc="http://purl.org/dc/elements/1.1/" xmlns:svg="http://www.w3.org/2000/svg" id="svg1306" viewBox="0 0 48 48">
  <defs id="defs1308">
    <linearGradient id="linearGradient12237" x1="6.8943" xlink:href="#linearGradient5358" gradientUnits="userSpaceOnUse" y1="-359.82" gradientTransform="matrix(-.053586 .10285 -.092814 -.059380 198.91 -255.69)" x2="27.4" y2="-381.3"/>
    <radialGradient id="radialGradient12235" xlink:href="#linearGradient5358" gradientUnits="userSpaceOnUse" cy="-382.96" cx="21.92" gradientTransform="matrix(.070652 .041548 -.062015 .10941 207.48 -189.82)" r="21.744"/>
    <linearGradient id="linearGradient13542" x1="284.8" xlink:href="#linearGradient5358" gradientUnits="userSpaceOnUse" x2="288.9" y1="-441.23" y2="-436.83"/>
    <linearGradient id="linearGradient13540" x1="286.67" xlink:href="#linearGradient5358" gradientUnits="userSpaceOnUse" x2="289.77" y1="-439.48" y2="-436.71"/>
    <linearGradient id="linearGradient13538" x1="275.94" xlink:href="#linearGradient5358" gradientUnits="userSpaceOnUse" y1="-437.11" gradientTransform="translate(-35 207)" x2="279.98" y2="-431.92"/>
    <linearGradient id="linearGradient13536" x1="285.94" xlink:href="#linearGradient5358" gradientUnits="userSpaceOnUse" x2="289.39" y1="-439.94" y2="-436.44"/>
    <linearGradient id="linearGradient13533" x1="286.51" xlink:href="#linearGradient5358" gradientUnits="userSpaceOnUse" x2="289.85" y1="-441.29" y2="-436.14"/>
    <linearGradient id="linearGradient13531" x1="287.52" xlink:href="#linearGradient5358" gradientUnits="userSpaceOnUse" x2="289.68" y1="-439.75" y2="-436.32"/>
    <linearGradient id="linearGradient13529" x1="271.02" xlink:href="#linearGradient5358" gradientUnits="userSpaceOnUse" y1="-441.05" gradientTransform="translate(-34 207)" x2="285.03" y2="-431.97"/>
    <linearGradient id="linearGradient13513" y2="-382.65" gradientUnits="userSpaceOnUse" y1="-388.47" x2="245.65" x1="238">
      <stop id="stop8400" stop-color="#fff" offset="0"/>
      <stop id="stop8402" stop-color="#fff" stop-opacity="0" offset="1"/>
    </linearGradient>
    <linearGradient id="linearGradient13511" y2="-386.96" gradientUnits="userSpaceOnUse" y1="-390.44" x2="235.26" x1="230.88">
      <stop id="stop8317" stop-color="#fff" offset="0"/>
      <stop id="stop8319" stop-color="#fff" stop-opacity="0" offset="1"/>
    </linearGradient>
    <linearGradient id="linearGradient13509" y2="-385.35" gradientUnits="userSpaceOnUse" y1="-391.31" x2="252.7" x1="246.74">
      <stop id="stop8383" stop-color="#fff" offset="0"/>
      <stop id="stop8385" stop-color="#fff" stop-opacity="0" offset="1"/>
    </linearGradient>
    <linearGradient id="linearGradient13507" y2="-388.55" gradientUnits="userSpaceOnUse" y1="-393.41" x2="245.83" x1="240.07">
      <stop id="stop8333" stop-color="#fff" offset="0"/>
      <stop id="stop8335" stop-color="#fff" stop-opacity="0" offset="1"/>
    </linearGradient>
    <linearGradient id="linearGradient13505" x1="228.5" gradientUnits="userSpaceOnUse" y1="-392.31" gradientTransform="translate(69 155)" x2="266.36" y2="-379.27">
      <stop id="stop8304" stop-color="#fff" offset="0"/>
      <stop id="stop8306" stop-color="#fff" stop-opacity="0" offset="1"/>
    </linearGradient>
    <linearGradient id="linearGradient5358">
      <stop id="stop5360" stop-color="#fff" offset="0"/>
      <stop id="stop5362" stop-color="#fff" stop-opacity="0" offset="1"/>
    </linearGradient>
  </defs>
  <g id="layer1">
    <g id="g12227" transform="translate(-202.95 271.01)">
      <path id="path12229" d="m231.63-228.77c-1.04-0.6-1.4-1.92-0.8-2.95 1.33-2.08 3.11-1.55 4.01-3.74 1.26 1.33 0.8 8.25-3.21 6.69z" stroke="#204a87" stroke-miterlimit="2" stroke-width="1.0746" fill="#729fcf"/>
      <path id="path12231" opacity=".46111" fill="url(#radialGradient12235)" d="m234.31-229.9c-0.49 0.86-1.57 1.16-2.42 0.66s-1.14-1.61-0.65-2.47 2.6-0.45 3.34-2.29c0.85 0.5 0.22 3.23-0.27 4.1z"/>
      <path id="path12233" fill="url(#linearGradient12237)" d="m233.02-229c-4.61-1.07 0.24-4.72 0.98-3.92-3.58 1.37-0.98 3.92-0.98 3.92z"/>
    </g>
    <g id="g12627" transform="matrix(.99968 0 0 1 -286.85 245)">
      <g id="g12533">
        <path id="path8887" fill="#555753" d="m311.5-243c-2.77 0-5.11 1.57-6.41 3.81-0.94-0.47-1.96-0.81-3.09-0.81-3.86 0-7 3.14-7 7s3.14 7 7 7c2.42 0 4.43-1.32 5.69-3.19 1.13 0.69 2.39 1.19 3.81 1.19 0.91 0 1.75-0.23 2.56-0.53 0.51 0.87 1.18 1.58 2 2.16 0 0.13-0.06 0.24-0.06 0.37 0 3.86 3.14 7 7 7s7-3.14 7-7c0-2.37-1.26-4.36-3.06-5.62 0-0.14 0.06-0.25 0.06-0.38 0-3.86-3.14-7-7-7-0.62 0-1.18 0.22-1.75 0.38-1.19-2.56-3.74-4.38-6.75-4.38z"/>
        <path id="path8889" fill="url(#linearGradient13505)" d="m311.5-242c-2.78 0-5.13 1.76-6.06 4.22-0.99-0.71-2.13-1.22-3.44-1.22-3.31 0-6 2.69-6 6s2.69 6 6 6c2.43 0 4.49-1.46 5.44-3.53 1.12 0.92 2.5 1.53 4.06 1.53 1.07 0 2.04-0.32 2.94-0.78 0.4 1 1.1 1.79 1.94 2.44-0.19 0.59-0.38 1.19-0.38 1.84 0 3.59 2.91 6.5 6.5 6.5s6.5-2.91 6.5-6.5c0-2.36-1.33-4.33-3.22-5.47 0.06-0.35 0.22-0.66 0.22-1.03 0-3.31-2.69-6-6-6-0.85 0-1.67 0.18-2.41 0.5-0.85-2.59-3.21-4.5-6.09-4.5z"/>
        <path id="path8891" transform="matrix(.96445 0 0 .96445 89.289 144.53)" fill="#888a85" d="m248.55-383.67a6.7396 6.7396 0 1 1 -13.48 0 6.7396 6.7396 0 1 1 13.48 0z"/>
        <g id="g12520">
          <path id="path8895" transform="matrix(.88263 0 0 .88263 96.181 108.11)" fill="#888a85" d="m250.18-389.3a6.2314 6.2314 0 1 1 -12.46 0 6.2314 6.2314 0 1 1 12.46 0z"/>
          <path id="path8897" opacity=".49444" transform="matrix(.88263 0 0 .88263 96.181 108.11)" fill="url(#linearGradient13507)" d="m250.18-389.3a6.2314 6.2314 0 1 1 -12.46 0 6.2314 6.2314 0 1 1 12.46 0z"/>
        </g>
        <g id="g12516">
          <path id="path8901" transform="matrix(.91173 0 0 .91173 90.454 120.23)" fill="#888a85" d="m257.25-385.79a6.0325 6.0325 0 1 1 -12.06 0 6.0325 6.0325 0 1 1 12.06 0z"/>
          <path id="path8903" opacity=".49444" transform="matrix(.91173 0 0 .91173 90.454 120.23)" fill="url(#linearGradient13509)" d="m257.25-385.79a6.0325 6.0325 0 1 1 -12.06 0 6.0325 6.0325 0 1 1 12.06 0z"/>
        </g>
        <g id="g12524">
          <path id="path8907" transform="matrix(1.1428 0 0 1.1428 35.232 210.28)" fill="#888a85" d="m237.81-387.89a4.3752 4.3752 0 1 1 -8.75 0 4.3752 4.3752 0 1 1 8.75 0z"/>
          <path id="path8909" opacity=".49444" transform="matrix(1.1428 0 0 1.1428 35.232 210.28)" fill="url(#linearGradient13511)" d="m237.81-387.89a4.3752 4.3752 0 1 1 -8.75 0 4.3752 4.3752 0 1 1 8.75 0z"/>
        </g>
        <g id="g12529">
          <path id="path8913" transform="matrix(1.0386 0 0 1.0386 59.849 169.49)" fill="#888a85" d="m248.55-383.67a6.7396 6.7396 0 1 1 -13.48 0 6.7396 6.7396 0 1 1 13.48 0z"/>
          <path id="path8915" opacity=".49444" transform="matrix(1.0386 0 0 1.0386 59.849 169.49)" fill="url(#linearGradient13513)" d="m248.55-383.67a6.7396 6.7396 0 1 1 -13.48 0 6.7396 6.7396 0 1 1 13.48 0z"/>
        </g>
      </g>
      <g id="g12578" transform="translate(72 7.9999)">
        <path id="path12580" d="m246.5-238.5c-2.27 0-4.11 1.55-4.72 3.63-0.69-0.37-1.44-0.63-2.28-0.63-2.76 0-5 2.24-5 5 0 0.58 0.16 1.11 0.34 1.63-1.37 0.77-2.34 2.18-2.34 3.87 0 2.48 2.02 4.5 4.5 4.5h19c2.48 0 4.5-2.02 4.5-4.5 0-1.69-0.97-3.1-2.34-3.87 0.18-0.52 0.34-1.05 0.34-1.63 0-2.76-2.24-5-5-5-0.84 0-1.59 0.26-2.28 0.63-0.61-2.08-2.45-3.63-4.72-3.63z" stroke="#555753" stroke-miterlimit="2" stroke-width="1.0002" fill="#888a85"/>
        <path id="path12582" fill="url(#linearGradient13529)" d="m246.5-238c-2.19 0-3.72 1.34-4.4 3.84-0.66-0.34-1.54-0.83-2.35-0.83-2.72 0-4.76 1.94-4.76 4.55 0 0.54 0.27 1.33 0.45 1.82-1.33 0.73-2.44 1.89-2.44 3.37 0 2.35 1.55 4.25 4.34 4.25h18.32c2.77 0 4.34-1.9 4.34-4.25 0-1.59-1.11-2.67-2.44-3.39 0.18-0.49 0.47-1.26 0.47-1.8 0-2.61-2.12-4.57-4.78-4.57-0.81 0-1.64 0.49-2.31 0.83-0.65-2.42-2.25-3.82-4.44-3.82z"/>
        <path id="path12584" transform="matrix(1.0566 0 0 1.0566 -58.198 228.86)" fill="#888a85" d="m291.69-437.59a3.3125 3.3125 0 1 1 -6.63 0 3.3125 3.3125 0 1 1 6.63 0z"/>
        <path id="path12586" opacity=".47778" transform="matrix(1.0566 0 0 1.0566 -58.198 228.86)" fill="url(#linearGradient13531)" d="m291.69-437.59a3.3125 3.3125 0 1 1 -6.63 0 3.3125 3.3125 0 1 1 6.63 0z"/>
        <rect id="rect12588" height="9" width="20" y="-231" x="237" fill="#888a85"/>
        <path id="path12591" transform="matrix(.90566 0 0 .90566 -24.17 171.31)" fill="#888a85" d="m291.69-437.59a3.3125 3.3125 0 1 1 -6.63 0 3.3125 3.3125 0 1 1 6.63 0z"/>
        <path id="path12593" transform="matrix(1.0566 0 0 1.0566 -51.198 231.86)" fill="#888a85" d="m291.69-437.59a3.3125 3.3125 0 1 1 -6.63 0 3.3125 3.3125 0 1 1 6.63 0z"/>
        <path id="path12595" opacity=".47778" transform="matrix(1.0566 0 0 1.0566 -51.198 231.86)" fill="url(#linearGradient13533)" d="m291.69-437.59a3.3125 3.3125 0 1 1 -6.63 0 3.3125 3.3125 0 1 1 6.63 0z"/>
        <path id="path12597" transform="matrix(1.0566 0 0 1.0566 -65.198 231.86)" fill="#888a85" d="m291.69-437.59a3.3125 3.3125 0 1 1 -6.63 0 3.3125 3.3125 0 1 1 6.63 0z"/>
        <path id="path12599" opacity=".47778" transform="matrix(1.0566 0 0 1.0566 -65.198 231.86)" fill="url(#linearGradient13536)" d="m291.69-437.59a3.3125 3.3125 0 1 1 -6.63 0 3.3125 3.3125 0 1 1 6.63 0z"/>
        <path id="path12601" fill="#888a85" d="m245.47-233.97c-3.58 0-6.47 2.92-6.47 6.5 0 2.37 1.35 4.34 3.25 5.47h6.47c1.9-1.13 3.25-3.13 3.25-5.5 0-3.58-2.92-6.47-6.5-6.47z"/>
        <path id="path12603" opacity=".47778" fill="url(#linearGradient13538)" d="m245.5-234c-3.59 0-6.5 2.91-6.5 6.5 0 2.38 1.34 4.37 3.25 5.5h6.5c1.91-1.13 3.25-3.12 3.25-5.5 0-3.59-2.91-6.5-6.5-6.5z"/>
        <path id="path12605" opacity=".47778" transform="matrix(.90566 0 0 .90566 -24.17 171.31)" fill="url(#linearGradient13540)" d="m291.69-437.59a3.3125 3.3125 0 1 1 -6.63 0 3.3125 3.3125 0 1 1 6.63 0z"/>
        <path id="path12607" fill-rule="evenodd" fill="#555753" d="m258.96-230.33c-0.01 2.68-3.27 3.71-3.27 3.71s2.35-1.63 2.33-3.7 0.94-0.01 0.94-0.01z"/>
        <path id="path12609" transform="matrix(1.2075 0 0 1.2075 -98.227 302.42)" fill="#888a85" d="m291.69-437.59a3.3125 3.3125 0 1 1 -6.63 0 3.3125 3.3125 0 1 1 6.63 0z"/>
        <path id="path12611" opacity=".47778" transform="matrix(1.2075 0 0 1.2075 -98.227 302.42)" fill="url(#linearGradient13542)" d="m291.69-437.59a3.3125 3.3125 0 1 1 -6.63 0 3.3125 3.3125 0 1 1 6.63 0z"/>
      </g>
      <g id="g12393" transform="translate(56.986 3.9839)">
        <path id="path12329" d="m246.5-238.5c-2.27 0-4.11 1.55-4.72 3.63-0.69-0.37-1.44-0.63-2.28-0.63-2.76 0-5 2.24-5 5 0 0.58 0.16 1.11 0.34 1.63-1.37 0.77-2.34 2.18-2.34 3.87 0 2.48 2.02 4.5 4.5 4.5h19c2.48 0 4.5-2.02 4.5-4.5 0-1.69-0.97-3.1-2.34-3.87 0.18-0.52 0.34-1.05 0.34-1.63 0-2.76-2.24-5-5-5-0.84 0-1.59 0.26-2.28 0.63-0.61-2.08-2.45-3.63-4.72-3.63z" stroke="#555753" stroke-miterlimit="2" stroke-width="1.0002" fill="#888a85"/>
        <path id="path12331" fill="url(#linearGradient13529)" d="m246.5-238c-2.19 0-3.72 1.34-4.4 3.84-0.66-0.34-1.54-0.83-2.35-0.83-2.72 0-4.76 1.94-4.76 4.55 0 0.54 0.27 1.33 0.45 1.82-1.33 0.73-2.44 1.89-2.44 3.37 0 2.35 1.55 4.25 4.34 4.25h18.32c2.77 0 4.34-1.9 4.34-4.25 0-1.59-1.11-2.67-2.44-3.39 0.18-0.49 0.47-1.26 0.47-1.8 0-2.61-2.12-4.57-4.78-4.57-0.81 0-1.64 0.49-2.31 0.83-0.65-2.42-2.25-3.82-4.44-3.82z"/>
        <path id="path12333" transform="matrix(1.0566 0 0 1.0566 -58.198 228.86)" fill="#888a85" d="m291.69-437.59a3.3125 3.3125 0 1 1 -6.63 0 3.3125 3.3125 0 1 1 6.63 0z"/>
        <path id="path12335" opacity=".47778" transform="matrix(1.0566 0 0 1.0566 -58.198 228.86)" fill="url(#linearGradient13531)" d="m291.69-437.59a3.3125 3.3125 0 1 1 -6.63 0 3.3125 3.3125 0 1 1 6.63 0z"/>
        <rect id="rect12337" height="9" width="20" y="-231" x="237" fill="#888a85"/>
        <path id="path12339" transform="matrix(.90566 0 0 .90566 -24.17 171.31)" fill="#888a85" d="m291.69-437.59a3.3125 3.3125 0 1 1 -6.63 0 3.3125 3.3125 0 1 1 6.63 0z"/>
        <path id="path12341" transform="matrix(1.0566 0 0 1.0566 -51.198 231.86)" fill="#888a85" d="m291.69-437.59a3.3125 3.3125 0 1 1 -6.63 0 3.3125 3.3125 0 1 1 6.63 0z"/>
        <path id="path12343" opacity=".47778" transform="matrix(1.0566 0 0 1.0566 -51.198 231.86)" fill="url(#linearGradient13533)" d="m291.69-437.59a3.3125 3.3125 0 1 1 -6.63 0 3.3125 3.3125 0 1 1 6.63 0z"/>
        <path id="path12347" transform="matrix(1.0566 0 0 1.0566 -65.198 231.86)" fill="#888a85" d="m291.69-437.59a3.3125 3.3125 0 1 1 -6.63 0 3.3125 3.3125 0 1 1 6.63 0z"/>
        <path id="path12349" opacity=".47778" transform="matrix(1.0566 0 0 1.0566 -65.198 231.86)" fill="url(#linearGradient13536)" d="m291.69-437.59a3.3125 3.3125 0 1 1 -6.63 0 3.3125 3.3125 0 1 1 6.63 0z"/>
        <path id="path12351" fill="#888a85" d="m245.47-233.97c-3.58 0-6.47 2.92-6.47 6.5 0 2.37 1.35 4.34 3.25 5.47h6.47c1.9-1.13 3.25-3.13 3.25-5.5 0-3.58-2.92-6.47-6.5-6.47z"/>
        <path id="path12353" opacity=".47778" fill="url(#linearGradient13538)" d="m245.5-234c-3.59 0-6.5 2.91-6.5 6.5 0 2.38 1.34 4.37 3.25 5.5h6.5c1.91-1.13 3.25-3.12 3.25-5.5 0-3.59-2.91-6.5-6.5-6.5z"/>
        <path id="path12355" opacity=".47778" transform="matrix(.90566 0 0 .90566 -24.17 171.31)" fill="url(#linearGradient13540)" d="m291.69-437.59a3.3125 3.3125 0 1 1 -6.63 0 3.3125 3.3125 0 1 1 6.63 0z"/>
        <path id="path12357" fill-rule="evenodd" fill="#555753" d="m258.96-230.33c-0.01 2.68-3.27 3.71-3.27 3.71s2.35-1.63 2.33-3.7 0.94-0.01 0.94-0.01z"/>
        <path id="path12359" transform="matrix(1.2075 0 0 1.2075 -98.227 302.42)" fill="#888a85" d="m291.69-437.59a3.3125 3.3125 0 1 1 -6.63 0 3.3125 3.3125 0 1 1 6.63 0z"/>
        <path id="path12361" opacity=".47778" transform="matrix(1.2075 0 0 1.2075 -98.227 302.42)" fill="url(#linearGradient13542)" d="m291.69-437.59a3.3125 3.3125 0 1 1 -6.63 0 3.3125 3.3125 0 1 1 6.63 0z"/>
      </g>
    </g>
    <g id="g12191" transform="translate(-222.95 261.01)">
      <path id="path12193" d="m231.63-228.77c-1.04-0.6-1.4-1.92-0.8-2.95 1.33-2.08 3.11-1.55 4.01-3.74 1.26 1.33 0.8 8.25-3.21 6.69z" stroke="#204a87" stroke-miterlimit="2" stroke-width="1.0746" fill="#729fcf"/>
      <path id="path12195" opacity=".46111" fill="url(#radialGradient12235)" d="m234.31-229.9c-0.49 0.86-1.57 1.16-2.42 0.66s-1.14-1.61-0.65-2.47 2.6-0.45 3.34-2.29c0.85 0.5 0.22 3.23-0.27 4.1z"/>
      <path id="path12197" fill="url(#linearGradient12237)" d="m233.02-229c-4.61-1.07 0.24-4.72 0.98-3.92-3.58 1.37-0.98 3.92-0.98 3.92z"/>
    </g>
    <g id="g12239" transform="translate(-193.96 268.01)">
      <path id="path12241" d="m231.63-228.77c-1.04-0.6-1.4-1.92-0.8-2.95 1.33-2.08 3.11-1.55 4.01-3.74 1.26 1.33 0.8 8.25-3.21 6.69z" stroke="#204a87" stroke-miterlimit="2" stroke-width="1.0746" fill="#729fcf"/>
      <path id="path12243" opacity=".46111" fill="url(#radialGradient12235)" d="m234.31-229.9c-0.49 0.86-1.57 1.16-2.42 0.66s-1.14-1.61-0.65-2.47 2.6-0.45 3.34-2.29c0.85 0.5 0.22 3.23-0.27 4.1z"/>
      <path id="path12245" fill="url(#linearGradient12237)" d="m233.02-229c-4.61-1.07 0.24-4.72 0.98-3.92-3.58 1.37-0.98 3.92-0.98 3.92z"/>
    </g>
    <g id="g12186" transform="translate(-224.96 271.01)">
      <path id="path6059" d="m231.63-228.77c-1.04-0.6-1.4-1.92-0.8-2.95 1.33-2.08 3.11-1.55 4.01-3.74 1.26 1.33 0.8 8.25-3.21 6.69z" stroke="#204a87" stroke-miterlimit="2" stroke-width="1.0746" fill="#729fcf"/>
      <path id="path6061" opacity=".46111" fill="url(#radialGradient12235)" d="m234.31-229.9c-0.49 0.86-1.57 1.16-2.42 0.66s-1.14-1.61-0.65-2.47 2.6-0.45 3.34-2.29c0.85 0.5 0.22 3.23-0.27 4.1z"/>
      <path id="path6063" fill="url(#linearGradient12237)" d="m233.02-229c-4.61-1.07 0.24-4.72 0.98-3.92-3.58 1.37-0.98 3.92-0.98 3.92z"/>
    </g>
    <g id="g12203" transform="translate(-214.96 266.01)">
      <path id="path12205" d="m231.63-228.77c-1.04-0.6-1.4-1.92-0.8-2.95 1.33-2.08 3.11-1.55 4.01-3.74 1.26 1.33 0.8 8.25-3.21 6.69z" stroke="#204a87" stroke-miterlimit="2" stroke-width="1.0746" fill="#729fcf"/>
      <path id="path12207" opacity=".46111" fill="url(#radialGradient12235)" d="m234.31-229.9c-0.49 0.86-1.57 1.16-2.42 0.66s-1.14-1.61-0.65-2.47 2.6-0.45 3.34-2.29c0.85 0.5 0.22 3.23-0.27 4.1z"/>
      <path id="path12209" fill="url(#linearGradient12237)" d="m233.02-229c-4.61-1.07 0.24-4.72 0.98-3.92-3.58 1.37-0.98 3.92-0.98 3.92z"/>
    </g>
    <g id="g12215" transform="translate(-200.96 261.01)">
      <path id="path12217" d="m231.63-228.77c-1.04-0.6-1.4-1.92-0.8-2.95 1.33-2.08 3.11-1.55 4.01-3.74 1.26 1.33 0.8 8.25-3.21 6.69z" stroke="#204a87" stroke-miterlimit="2" stroke-width="1.0746" fill="#729fcf"/>
      <path id="path12219" opacity=".46111" fill="url(#radialGradient12235)" d="m234.31-229.9c-0.49 0.86-1.57 1.16-2.42 0.66s-1.14-1.61-0.65-2.47 2.6-0.45 3.34-2.29c0.85 0.5 0.22 3.23-0.27 4.1z"/>
      <path id="path12221" fill="url(#linearGradient12237)" d="m233.02-229c-4.61-1.07 0.24-4.72 0.98-3.92-3.58 1.37-0.98 3.92-0.98 3.92z"/>
    </g>
  </g>
  <metadata>
    <rdf:RDF>
      <cc:Work>
        <dc:format>image/svg+xml</dc:format>
        <dc:type rdf:resource="http://purl.org/dc/dcmitype/StillImage"/>
        <cc:license rdf:resource="http://creativecommons.org/licenses/publicdomain/"/>
        <dc:publisher>
          <cc:Agent rdf:about="http://openclipart.org/">
            <dc:title>Openclipart</dc:title>
          </cc:Agent>
        </dc:publisher>
        <dc:title>tango weather showers scattered</dc:title>
        <dc:date>2010-03-08T06:56:08</dc:date>
        <dc:description>Weather icon from Tango Project: http://tango.freedesktop.org/Tango_Desktop_Project&#xD;\n&lt;br&gt;&lt;br&gt;&#xD;\nTango Project icons are Public Domain.</dc:description>
        <dc:source>http://openclipart.org/detail/30151/tango-weather-showers-scattered-by-warszawianka</dc:source>
        <dc:creator>
          <cc:Agent>
            <dc:title>warszawianka</dc:title>
          </cc:Agent>
        </dc:creator>
        <dc:subject>
          <rdf:Bag>
            <rdf:li>clip art</rdf:li>
            <rdf:li>clipart</rdf:li>
            <rdf:li>cloud</rdf:li>
            <rdf:li>drop</rdf:li>
            <rdf:li>icon</rdf:li>
            <rdf:li>rain</rdf:li>
            <rdf:li>weather</rdf:li>
          </rdf:Bag>
        </dc:subject>
      </cc:Work>
      <cc:License rdf:about="http://creativecommons.org/licenses/publicdomain/">
        <cc:permits rdf:resource="http://creativecommons.org/ns#Reproduction"/>
        <cc:permits rdf:resource="http://creativecommons.org/ns#Distribution"/>
        <cc:permits rdf:resource="http://creativecommons.org/ns#DerivativeWorks"/>
      </cc:License>
    </rdf:RDF>
  </metadata>
</svg>
