<?xml version="1.0"?>
<svg xmlns:rdf="http://www.w3.org/1999/02/22-rdf-syntax-ns#" xmlns="http://www.w3.org/2000/svg" xmlns:cc="http://creativecommons.org/ns#" xmlns:xlink="http://www.w3.org/1999/xlink" xmlns:dc="http://purl.org/dc/elements/1.1/" xmlns:svg="http://www.w3.org/2000/svg" id="svg1306" viewBox="0 0 48 48">
  <defs id="defs1308">
    <linearGradient id="linearGradient6724" x1="284.8" xlink:href="#linearGradient6549" gradientUnits="userSpaceOnUse" x2="288.9" y1="-441.23" y2="-436.83"/>
    <linearGradient id="linearGradient6722" x1="286.67" xlink:href="#linearGradient6549" gradientUnits="userSpaceOnUse" x2="289.77" y1="-439.48" y2="-436.71"/>
    <linearGradient id="linearGradient6720" x1="275.94" xlink:href="#linearGradient6549" gradientUnits="userSpaceOnUse" x2="279.98" y1="-437.11" y2="-431.92"/>
    <linearGradient id="linearGradient6718" x1="285.94" xlink:href="#linearGradient6549" gradientUnits="userSpaceOnUse" x2="289.39" y1="-439.94" y2="-436.44"/>
    <linearGradient id="linearGradient6716" x1="286.51" xlink:href="#linearGradient6549" gradientUnits="userSpaceOnUse" x2="289.85" y1="-441.29" y2="-436.14"/>
    <linearGradient id="linearGradient6714" x1="287.52" xlink:href="#linearGradient6549" gradientUnits="userSpaceOnUse" x2="289.68" y1="-439.75" y2="-436.32"/>
    <linearGradient id="linearGradient6712" x1="271.02" xlink:href="#linearGradient6549" gradientUnits="userSpaceOnUse" x2="285.03" y1="-441.05" y2="-431.97"/>
    <linearGradient id="linearGradient6549">
      <stop id="stop6551" stop-color="#fff" offset="0"/>
      <stop id="stop6553" stop-color="#fff" stop-opacity="0" offset="1"/>
    </linearGradient>
    <linearGradient id="linearGradient3168" y2="-9.5591" gradientUnits="userSpaceOnUse" y1="-25.327" x2="-37.197" x1="-28.969">
      <stop id="stop4028" stop-color="#fff9c6" offset="0"/>
      <stop id="stop4042" stop-color="#fff28c" offset=".54167"/>
      <stop id="stop4030" stop-color="#ffea85" offset="1"/>
    </linearGradient>
    <radialGradient id="radialGradient4020" gradientUnits="userSpaceOnUse" cy="-22.113" cx="-33.519" gradientTransform="matrix(.48774 1.2924 -1.1027 .49724 -41.774 32.415)" r="9.5">
      <stop id="stop4034" stop-color="#fff7c2" stop-opacity=".6383" offset="0"/>
      <stop id="stop4036" stop-color="#fcaf3e" stop-opacity=".18349" offset=".59394"/>
      <stop id="stop4038" stop-color="#fcaf3e" stop-opacity=".50459" offset=".83851"/>
      <stop id="stop4040" stop-color="#fcaf3e" offset="1"/>
    </radialGradient>
    <radialGradient id="radialGradient4081" gradientUnits="userSpaceOnUse" cy="23.382" cx="24" gradientTransform="matrix(1.0067 2.2353e-16 -2.2372e-16 1.0075 -.16082 .42698)" r="19.142">
      <stop id="stop4085" stop-color="#fff" stop-opacity="0" offset="0"/>
      <stop id="stop4089" stop-color="#fff" stop-opacity="0" offset=".75"/>
      <stop id="stop4087" stop-color="#fff" offset="1"/>
    </radialGradient>
  </defs>
  <g id="layer1">
    <g id="g6783" transform="translate(-263.99 459.99)">
      <path id="path6785" stroke="#888a85" fill="#c4c5c2" stroke-miterlimit="2" d="m280.5-445.5c-2.27 0-4.11 1.55-4.72 3.62-0.69-0.36-1.44-0.62-2.28-0.62-2.76 0-5 2.24-5 5 0 0.58 0.16 1.11 0.34 1.62-1.37 0.78-2.34 2.19-2.34 3.88 0 2.48 2.02 4.5 4.5 4.5h19c2.48 0 4.5-2.02 4.5-4.5 0-1.69-0.97-3.1-2.34-3.88 0.18-0.51 0.34-1.04 0.34-1.62 0-2.76-2.24-5-5-5-0.84 0-1.59 0.26-2.28 0.62-0.61-2.07-2.45-3.62-4.72-3.62z"/>
      <path id="path6787" fill="url(#linearGradient6712)" d="m280.5-445c-2.19 0-3.72 1.34-4.4 3.84-0.66-0.34-1.54-0.83-2.35-0.83-2.72 0-4.76 1.94-4.76 4.55 0 0.54 0.27 1.33 0.45 1.82-1.33 0.73-2.44 1.89-2.44 3.37 0 2.35 1.55 4.25 4.34 4.25h18.32c2.77 0 4.34-1.9 4.34-4.25 0-1.59-1.11-2.67-2.44-3.39 0.18-0.49 0.47-1.26 0.47-1.8 0-2.61-2.12-4.57-4.78-4.57-0.81 0-1.64 0.49-2.31 0.83-0.65-2.42-2.25-3.82-4.44-3.82z"/>
      <g id="g6789">
        <path id="path6791" transform="matrix(1.0566 0 0 1.0566 -24.198 21.863)" fill="#c4c5c2" d="m291.69-437.59a3.3125 3.3125 0 1 1 -6.63 0 3.3125 3.3125 0 1 1 6.63 0z"/>
        <path id="path6793" transform="matrix(1.0566 0 0 1.0566 -24.198 21.863)" fill="url(#linearGradient6714)" d="m291.69-437.59a3.3125 3.3125 0 1 1 -6.63 0 3.3125 3.3125 0 1 1 6.63 0z"/>
      </g>
      <rect id="rect6795" height="9" width="20" y="-438" x="271" fill="#c4c5c2"/>
      <path id="path6797" transform="matrix(.90566 0 0 .90566 9.8302 -35.689)" fill="#c4c5c2" d="m291.69-437.59a3.3125 3.3125 0 1 1 -6.63 0 3.3125 3.3125 0 1 1 6.63 0z"/>
      <g id="g6799">
        <path id="path6801" transform="matrix(1.0566 0 0 1.0566 -17.198 24.863)" fill="#c4c5c2" d="m291.69-437.59a3.3125 3.3125 0 1 1 -6.63 0 3.3125 3.3125 0 1 1 6.63 0z"/>
        <path id="path6803" transform="matrix(1.0566 0 0 1.0566 -17.198 24.863)" fill="url(#linearGradient6716)" d="m291.69-437.59a3.3125 3.3125 0 1 1 -6.63 0 3.3125 3.3125 0 1 1 6.63 0z"/>
      </g>
      <g id="g6805">
        <path id="path6807" transform="matrix(1.0566 0 0 1.0566 -31.198 24.863)" fill="#c4c5c2" d="m291.69-437.59a3.3125 3.3125 0 1 1 -6.63 0 3.3125 3.3125 0 1 1 6.63 0z"/>
        <path id="path6809" transform="matrix(1.0566 0 0 1.0566 -31.198 24.863)" fill="url(#linearGradient6718)" d="m291.69-437.59a3.3125 3.3125 0 1 1 -6.63 0 3.3125 3.3125 0 1 1 6.63 0z"/>
      </g>
      <g id="g6811" transform="translate(-1)">
        <path id="path6813" fill="#c4c5c2" d="m280.47-440.97c-3.58 0-6.47 2.92-6.47 6.5 0 2.37 1.35 4.34 3.25 5.47h6.47c1.9-1.13 3.25-3.13 3.25-5.5 0-3.58-2.92-6.47-6.5-6.47z"/>
        <path id="path6815" fill="url(#linearGradient6720)" d="m280.5-441c-3.59 0-6.5 2.91-6.5 6.5 0 2.38 1.34 4.37 3.25 5.5h6.5c1.91-1.13 3.25-3.12 3.25-5.5 0-3.59-2.91-6.5-6.5-6.5z"/>
      </g>
      <path id="path6817" transform="matrix(.90566 0 0 .90566 9.8303 -35.689)" fill="url(#linearGradient6722)" d="m291.69-437.59a3.3125 3.3125 0 1 1 -6.63 0 3.3125 3.3125 0 1 1 6.63 0z"/>
      <path id="path6819" fill-rule="evenodd" fill="#888a85" d="m292.96-437.33c-0.01 2.68-3.27 3.71-3.27 3.71s2.35-1.63 2.33-3.71h0.94z"/>
      <g id="g6821" transform="matrix(1.1429 0 0 1.1429 -28.571 67)">
        <path id="path6823" transform="matrix(1.0566 0 0 1.0566 -31.198 24.863)" fill="#c4c5c2" d="m291.69-437.59a3.3125 3.3125 0 1 1 -6.63 0 3.3125 3.3125 0 1 1 6.63 0z"/>
        <path id="path6825" transform="matrix(1.0566 0 0 1.0566 -31.198 24.863)" fill="url(#linearGradient6724)" d="m291.69-437.59a3.3125 3.3125 0 1 1 -6.63 0 3.3125 3.3125 0 1 1 6.63 0z"/>
      </g>
    </g>
    <g id="g3936">
      <g id="g4091" opacity=".7" stroke-linecap="square">
        <path id="path7492" stroke="#fcaf3e" stroke-width=".73733" fill="#fce94f" d="m24 2.5l-2.375 6.6875c0.774-0.1234 1.566-0.1875 2.375-0.1875s1.601 0.0641 2.375 0.1875l-2.375-6.6875zm-15.188 6.2812l3.0315 6.4378c0.935-1.29 2.085-2.44 3.375-3.375l-6.4065-3.0628zm30.406 0l-6.438 3.0628c1.29 0.935 2.44 2.085 3.375 3.375l3.063-6.4378zm-30.032 12.813l-6.6875 2.375 6.6875 2.375c-0.1202-0.764-0.1875-1.546-0.1875-2.344 0-0.819 0.0609-1.622 0.1875-2.406zm29.624 0.031c0.124 0.774 0.188 1.566 0.188 2.375s-0.064 1.601-0.188 2.375l6.688-2.375-6.688-2.375zm-26.968 11.156l-3.0315 6.407 6.4065-3.032c-1.29-0.935-2.44-2.085-3.375-3.375zm24.312 0c-0.926 1.278-2.068 2.414-3.344 3.344l6.407 3.063-3.063-6.407zm-14.531 6.031l2.375 6.688 2.375-6.688c-0.774 0.124-1.566 0.188-2.375 0.188s-1.601-0.064-2.375-0.188z"/>
        <path id="path7494" stroke="url(#radialGradient4081)" stroke-width=".84646" fill="none" d="m24 5.25l-1.344 3.8125c0.443-0.0394 0.891-0.0625 1.344-0.0625s0.901 0.0231 1.344 0.0625l-1.344-3.8125zm-13.219 5.5l1.719 3.625c0.572-0.681 1.224-1.336 1.906-1.906l-3.625-1.719zm26.469 0l-3.625 1.719c0.68 0.569 1.337 1.226 1.906 1.906l1.719-3.625zm-28.188 11.875l-3.7813 1.344 3.7813 1.343c-0.0375-0.432-0.0625-0.87-0.0625-1.312 0-0.464 0.0213-0.922 0.0625-1.375zm29.876 0.031c0.039 0.443 0.062 0.891 0.062 1.344s-0.023 0.901-0.062 1.344l3.781-1.344-3.781-1.344zm-3.407 10.938c-0.573 0.686-1.221 1.363-1.906 1.937l3.625 1.719-1.719-3.656zm-23.031 0.031l-1.719 3.594 3.594-1.719c-0.672-0.564-1.311-1.203-1.875-1.875zm10.156 5.313l1.344 3.781 1.344-3.781c-0.443 0.039-0.891 0.062-1.344 0.062s-0.901-0.023-1.344-0.062z"/>
      </g>
      <g id="g4046">
        <g id="g3931">
          <path id="path7498" d="m-22.5-17.5a9.5 9.5 0 1 1 -19 0 9.5 9.5 0 1 1 19 0z" transform="matrix(.77806 -1.0613 1.0613 .77806 67.48 3.6413)" stroke="#fcaf3e" stroke-linecap="square" stroke-width=".75991" fill="#ffee54"/>
          <path id="path7500" transform="matrix(1.2443 -.16771 .21664 1.2518 67.616 40.527)" fill="url(#radialGradient4020)" d="m-22.5-17.5a9.5 9.5 0 1 1 -19 0 9.5 9.5 0 1 1 19 0z"/>
          <path id="path7502" d="m-22.5-17.5a9.5 9.5 0 1 1 -19 0 9.5 9.5 0 1 1 19 0z" transform="matrix(.71579 -.97635 .97635 .71579 64 5.2695)" stroke="url(#linearGradient3168)" stroke-linecap="square" stroke-width=".82602" fill="none"/>
        </g>
      </g>
    </g>
    <g id="g6668" transform="translate(-248.99 467.99)">
      <path id="path6670" stroke="#888a85" fill="#c4c5c2" stroke-miterlimit="2" d="m280.5-445.5c-2.27 0-4.11 1.55-4.72 3.62-0.69-0.36-1.44-0.62-2.28-0.62-2.76 0-5 2.24-5 5 0 0.58 0.16 1.11 0.34 1.62-1.37 0.78-2.34 2.19-2.34 3.88 0 2.48 2.02 4.5 4.5 4.5h19c2.48 0 4.5-2.02 4.5-4.5 0-1.69-0.97-3.1-2.34-3.88 0.18-0.51 0.34-1.04 0.34-1.62 0-2.76-2.24-5-5-5-0.84 0-1.59 0.26-2.28 0.62-0.61-2.07-2.45-3.62-4.72-3.62z"/>
      <path id="path6672" fill="url(#linearGradient6712)" d="m280.5-445c-2.19 0-3.72 1.34-4.4 3.84-0.66-0.34-1.54-0.83-2.35-0.83-2.72 0-4.76 1.94-4.76 4.55 0 0.54 0.27 1.33 0.45 1.82-1.33 0.73-2.44 1.89-2.44 3.37 0 2.35 1.55 4.25 4.34 4.25h18.32c2.77 0 4.34-1.9 4.34-4.25 0-1.59-1.11-2.67-2.44-3.39 0.18-0.49 0.47-1.26 0.47-1.8 0-2.61-2.12-4.57-4.78-4.57-0.81 0-1.64 0.49-2.31 0.83-0.65-2.42-2.25-3.82-4.44-3.82z"/>
      <g id="g6674">
        <path id="path6676" transform="matrix(1.0566 0 0 1.0566 -24.198 21.863)" fill="#c4c5c2" d="m291.69-437.59a3.3125 3.3125 0 1 1 -6.63 0 3.3125 3.3125 0 1 1 6.63 0z"/>
        <path id="path6678" transform="matrix(1.0566 0 0 1.0566 -24.198 21.863)" fill="url(#linearGradient6714)" d="m291.69-437.59a3.3125 3.3125 0 1 1 -6.63 0 3.3125 3.3125 0 1 1 6.63 0z"/>
      </g>
      <rect id="rect6680" height="9" width="20" y="-438" x="271" fill="#c4c5c2"/>
      <path id="path6682" transform="matrix(.90566 0 0 .90566 9.8302 -35.689)" fill="#c4c5c2" d="m291.69-437.59a3.3125 3.3125 0 1 1 -6.63 0 3.3125 3.3125 0 1 1 6.63 0z"/>
      <g id="g6684">
        <path id="path6686" transform="matrix(1.0566 0 0 1.0566 -17.198 24.863)" fill="#c4c5c2" d="m291.69-437.59a3.3125 3.3125 0 1 1 -6.63 0 3.3125 3.3125 0 1 1 6.63 0z"/>
        <path id="path6688" transform="matrix(1.0566 0 0 1.0566 -17.198 24.863)" fill="url(#linearGradient6716)" d="m291.69-437.59a3.3125 3.3125 0 1 1 -6.63 0 3.3125 3.3125 0 1 1 6.63 0z"/>
      </g>
      <g id="g6690">
        <path id="path6692" transform="matrix(1.0566 0 0 1.0566 -31.198 24.863)" fill="#c4c5c2" d="m291.69-437.59a3.3125 3.3125 0 1 1 -6.63 0 3.3125 3.3125 0 1 1 6.63 0z"/>
        <path id="path6694" transform="matrix(1.0566 0 0 1.0566 -31.198 24.863)" fill="url(#linearGradient6718)" d="m291.69-437.59a3.3125 3.3125 0 1 1 -6.63 0 3.3125 3.3125 0 1 1 6.63 0z"/>
      </g>
      <g id="g6696" transform="translate(-1)">
        <path id="path6698" fill="#c4c5c2" d="m280.47-440.97c-3.58 0-6.47 2.92-6.47 6.5 0 2.37 1.35 4.34 3.25 5.47h6.47c1.9-1.13 3.25-3.13 3.25-5.5 0-3.58-2.92-6.47-6.5-6.47z"/>
        <path id="path6700" fill="url(#linearGradient6720)" d="m280.5-441c-3.59 0-6.5 2.91-6.5 6.5 0 2.38 1.34 4.37 3.25 5.5h6.5c1.91-1.13 3.25-3.12 3.25-5.5 0-3.59-2.91-6.5-6.5-6.5z"/>
      </g>
      <path id="path6702" transform="matrix(.90566 0 0 .90566 9.8303 -35.689)" fill="url(#linearGradient6722)" d="m291.69-437.59a3.3125 3.3125 0 1 1 -6.63 0 3.3125 3.3125 0 1 1 6.63 0z"/>
      <path id="path6704" fill-rule="evenodd" fill="#888a85" d="m292.96-437.33c-0.01 2.68-3.27 3.71-3.27 3.71s2.35-1.63 2.33-3.71h0.94z"/>
      <g id="g6706" transform="matrix(1.1429 0 0 1.1429 -28.571 67)">
        <path id="path6708" transform="matrix(1.0566 0 0 1.0566 -31.198 24.863)" fill="#c4c5c2" d="m291.69-437.59a3.3125 3.3125 0 1 1 -6.63 0 3.3125 3.3125 0 1 1 6.63 0z"/>
        <path id="path6710" transform="matrix(1.0566 0 0 1.0566 -31.198 24.863)" fill="url(#linearGradient6724)" d="m291.69-437.59a3.3125 3.3125 0 1 1 -6.63 0 3.3125 3.3125 0 1 1 6.63 0z"/>
      </g>
    </g>
  </g>
  <metadata>
    <rdf:RDF>
      <cc:Work>
        <dc:format>image/svg+xml</dc:format>
        <dc:type rdf:resource="http://purl.org/dc/dcmitype/StillImage"/>
        <cc:license rdf:resource="http://creativecommons.org/licenses/publicdomain/"/>
        <dc:publisher>
          <cc:Agent rdf:about="http://openclipart.org/">
            <dc:title>Openclipart</dc:title>
          </cc:Agent>
        </dc:publisher>
        <dc:title>tango weather few clouds</dc:title>
        <dc:date>2010-03-07T17:23:54</dc:date>
        <dc:description>Weather icon from Tango Project: http://tango.freedesktop.org/Tango_Desktop_Project&#xD;\n&#xD;\nTango Project icons are Public Domain.</dc:description>
        <dc:source>http://openclipart.org/detail/30073/tango-weather-few-clouds-by-warszawianka</dc:source>
        <dc:creator>
          <cc:Agent>
            <dc:title>warszawianka</dc:title>
          </cc:Agent>
        </dc:creator>
        <dc:subject>
          <rdf:Bag>
            <rdf:li>clip art</rdf:li>
            <rdf:li>clipart</rdf:li>
            <rdf:li>cloud</rdf:li>
            <rdf:li>icon</rdf:li>
            <rdf:li>sky</rdf:li>
            <rdf:li>sun</rdf:li>
            <rdf:li>weather</rdf:li>
          </rdf:Bag>
        </dc:subject>
      </cc:Work>
      <cc:License rdf:about="http://creativecommons.org/licenses/publicdomain/">
        <cc:permits rdf:resource="http://creativecommons.org/ns#Reproduction"/>
        <cc:permits rdf:resource="http://creativecommons.org/ns#Distribution"/>
        <cc:permits rdf:resource="http://creativecommons.org/ns#DerivativeWorks"/>
      </cc:License>
    </rdf:RDF>
  </metadata>
</svg>
