<?xml version="1.0"?>
<svg xmlns:rdf="http://www.w3.org/1999/02/22-rdf-syntax-ns#" xmlns="http://www.w3.org/2000/svg" xmlns:cc="http://creativecommons.org/ns#" xmlns:xlink="http://www.w3.org/1999/xlink" xmlns:dc="http://purl.org/dc/elements/1.1/" xmlns:svg="http://www.w3.org/2000/svg" id="svg1306" viewBox="0 0 48 48">
  <defs id="defs1308">
    <linearGradient id="linearGradient7014" x1="284.8" xlink:href="#linearGradient6549" gradientUnits="userSpaceOnUse" x2="288.9" y1="-441.23" y2="-436.83"/>
    <linearGradient id="linearGradient7012" x1="286.67" xlink:href="#linearGradient6549" gradientUnits="userSpaceOnUse" x2="289.77" y1="-439.48" y2="-436.71"/>
    <linearGradient id="linearGradient7010" x1="275.94" xlink:href="#linearGradient6549" gradientUnits="userSpaceOnUse" x2="279.98" y1="-437.11" y2="-431.92"/>
    <linearGradient id="linearGradient7008" x1="285.94" xlink:href="#linearGradient6549" gradientUnits="userSpaceOnUse" x2="289.39" y1="-439.94" y2="-436.44"/>
    <linearGradient id="linearGradient7006" x1="286.51" xlink:href="#linearGradient6549" gradientUnits="userSpaceOnUse" x2="289.85" y1="-441.29" y2="-436.14"/>
    <linearGradient id="linearGradient7004" x1="287.52" xlink:href="#linearGradient6549" gradientUnits="userSpaceOnUse" x2="289.68" y1="-439.75" y2="-436.32"/>
    <linearGradient id="linearGradient7002" x1="271.02" xlink:href="#linearGradient6549" gradientUnits="userSpaceOnUse" x2="285.03" y1="-441.05" y2="-431.97"/>
    <radialGradient id="radialGradient5477" gradientUnits="userSpaceOnUse" cy="-405.91" cx="97.468" gradientTransform="matrix(.021289 0 0 .027586 323.37 -435.1)" r="358.45">
      <stop id="stop9644" stop-color="#787974" offset="0"/>
      <stop id="stop9646" stop-color="#787974" stop-opacity="0" offset="1"/>
    </radialGradient>
    <linearGradient id="linearGradient6549">
      <stop id="stop6551" stop-color="#fff" offset="0"/>
      <stop id="stop6553" stop-color="#fff" stop-opacity="0" offset="1"/>
    </linearGradient>
  </defs>
  <g id="layer1">
    <g id="g6896" transform="translate(-264 459.97)">
      <path id="path6898" stroke="#888a85" fill="#c4c5c2" stroke-miterlimit="2" d="m280.5-445.5c-2.27 0-4.11 1.55-4.72 3.62-0.69-0.36-1.44-0.62-2.28-0.62-2.76 0-5 2.24-5 5 0 0.58 0.16 1.11 0.34 1.62-1.37 0.78-2.34 2.19-2.34 3.88 0 2.48 2.02 4.5 4.5 4.5h19c2.48 0 4.5-2.02 4.5-4.5 0-1.69-0.97-3.1-2.34-3.88 0.18-0.51 0.34-1.04 0.34-1.62 0-2.76-2.24-5-5-5-0.84 0-1.59 0.26-2.28 0.62-0.61-2.07-2.45-3.62-4.72-3.62z"/>
      <path id="path6900" fill="url(#linearGradient7002)" d="m280.5-445c-2.19 0-3.72 1.34-4.4 3.84-0.66-0.34-1.54-0.83-2.35-0.83-2.72 0-4.76 1.94-4.76 4.55 0 0.54 0.27 1.33 0.45 1.82-1.33 0.73-2.44 1.89-2.44 3.37 0 2.35 1.55 4.25 4.34 4.25h18.32c2.77 0 4.34-1.9 4.34-4.25 0-1.59-1.11-2.67-2.44-3.39 0.18-0.49 0.47-1.26 0.47-1.8 0-2.61-2.12-4.57-4.78-4.57-0.81 0-1.64 0.49-2.31 0.83-0.65-2.42-2.25-3.82-4.44-3.82z"/>
      <g id="g6902">
        <path id="path6904" transform="matrix(1.0566 0 0 1.0566 -24.198 21.863)" fill="#c4c5c2" d="m291.69-437.59a3.3125 3.3125 0 1 1 -6.63 0 3.3125 3.3125 0 1 1 6.63 0z"/>
        <path id="path6906" transform="matrix(1.0566 0 0 1.0566 -24.198 21.863)" fill="url(#linearGradient7004)" d="m291.69-437.59a3.3125 3.3125 0 1 1 -6.63 0 3.3125 3.3125 0 1 1 6.63 0z"/>
      </g>
      <rect id="rect6908" height="9" width="20" y="-438" x="271" fill="#c4c5c2"/>
      <path id="path6910" transform="matrix(.90566 0 0 .90566 9.8302 -35.689)" fill="#c4c5c2" d="m291.69-437.59a3.3125 3.3125 0 1 1 -6.63 0 3.3125 3.3125 0 1 1 6.63 0z"/>
      <g id="g6912">
        <path id="path6914" transform="matrix(1.0566 0 0 1.0566 -17.198 24.863)" fill="#c4c5c2" d="m291.69-437.59a3.3125 3.3125 0 1 1 -6.63 0 3.3125 3.3125 0 1 1 6.63 0z"/>
        <path id="path6916" transform="matrix(1.0566 0 0 1.0566 -17.198 24.863)" fill="url(#linearGradient7006)" d="m291.69-437.59a3.3125 3.3125 0 1 1 -6.63 0 3.3125 3.3125 0 1 1 6.63 0z"/>
      </g>
      <g id="g6918">
        <path id="path6920" transform="matrix(1.0566 0 0 1.0566 -31.198 24.863)" fill="#c4c5c2" d="m291.69-437.59a3.3125 3.3125 0 1 1 -6.63 0 3.3125 3.3125 0 1 1 6.63 0z"/>
        <path id="path6922" transform="matrix(1.0566 0 0 1.0566 -31.198 24.863)" fill="url(#linearGradient7008)" d="m291.69-437.59a3.3125 3.3125 0 1 1 -6.63 0 3.3125 3.3125 0 1 1 6.63 0z"/>
      </g>
      <g id="g6924" transform="translate(-1)">
        <path id="path6926" fill="#c4c5c2" d="m280.47-440.97c-3.58 0-6.47 2.92-6.47 6.5 0 2.37 1.35 4.34 3.25 5.47h6.47c1.9-1.13 3.25-3.13 3.25-5.5 0-3.58-2.92-6.47-6.5-6.47z"/>
        <path id="path6928" fill="url(#linearGradient7010)" d="m280.5-441c-3.59 0-6.5 2.91-6.5 6.5 0 2.38 1.34 4.37 3.25 5.5h6.5c1.91-1.13 3.25-3.12 3.25-5.5 0-3.59-2.91-6.5-6.5-6.5z"/>
      </g>
      <path id="path6930" transform="matrix(.90566 0 0 .90566 9.8303 -35.689)" fill="url(#linearGradient7012)" d="m291.69-437.59a3.3125 3.3125 0 1 1 -6.63 0 3.3125 3.3125 0 1 1 6.63 0z"/>
      <path id="path6932" fill-rule="evenodd" fill="#888a85" d="m292.96-437.33c-0.01 2.68-3.27 3.71-3.27 3.71s2.35-1.63 2.33-3.71h0.94z"/>
      <g id="g6934" transform="matrix(1.1429 0 0 1.1429 -28.571 67)">
        <path id="path6936" transform="matrix(1.0566 0 0 1.0566 -31.198 24.863)" fill="#c4c5c2" d="m291.69-437.59a3.3125 3.3125 0 1 1 -6.63 0 3.3125 3.3125 0 1 1 6.63 0z"/>
        <path id="path6938" transform="matrix(1.0566 0 0 1.0566 -31.198 24.863)" fill="url(#linearGradient7014)" d="m291.69-437.59a3.3125 3.3125 0 1 1 -6.63 0 3.3125 3.3125 0 1 1 6.63 0z"/>
      </g>
    </g>
    <g id="g5441" transform="matrix(.99870 0 0 .99870 -342.54 469.41)">
      <path id="path5439" transform="matrix(1.3865 0 0 1.3865 444.99 -446.47)" fill="#eaece8" d="m-46.5 0.25a9.75 9.75 0 1 1 -19.5 0 9.75 9.75 0 1 1 19.5 0z"/>
      <g id="g5405" transform="translate(37.125 -1.625)">
        <path id="path5342" opacity=".10556" fill-rule="evenodd" fill="#787974" d="m323.85-456.08c0.04 0.18-0.13 0.4-0.28 0.6-0.2 0.27-0.31 0.45-0.08 0.68 0.14 0.14 0.58 0.01 0.72-0.04 0.32-0.13 0.67-0.23 0.99-0.36 0.25-0.1 0.43-0.14 0.68-0.2 0.29-0.07 0.57 0.06 0.68 0.2 0.07 0.09-0.46 0.49-0.52 0.52-0.24 0.12-0.47 0.22-0.72 0.28-0.3 0.07-0.57 0.18-0.88 0.24-0.3 0.06-0.52 0.15-0.79 0.32-0.34 0.2-0.63 0.5-0.92 0.79-0.27 0.28-0.37 0.57-0.28 0.92 0.08 0.34 0.21 0.46 0.52 0.52 0.34 0.07 0.51-0.09 0.68-0.32 0.21-0.29 0.3-0.66 0.56-0.92 0.21-0.21 0.36-0.42 0.59-0.59 0.24-0.18 0.42-0.28 0.72-0.2 0.25 0.06 0.45 0.3 0.72 0.36 0.23 0.04 0.56-0.27 0.76-0.36 0.04-0.03 0.08-0.06 0.12-0.08 0.21-0.14 0.55-0.08 0.8-0.08 0.27 0 0.49 0.12 0.71 0.24 0.27 0.13 0.51 0.12 0.76 0.32 0.28 0.2 0.42 0.35 0.56 0.63 0.13 0.27 0.19 0.43 0.4 0.64 0.22 0.22 0.56 0.36 0.8 0.6 0.14 0.14 0.23 0.53 0.28 0.72 0.07 0.29 0.14 0.6 0 0.88-0.15 0.3-0.33 0.58-0.48 0.87s-0.55 0.54-0.8 0.72c-0.34 0.26-0.75 0.28-1.08 0.6-0.37 0.38-0.41 0.6-0.75 1.12-0.26 0.38 0.04 0.56 0.35 0.48 0.33-0.08 0.64-0.16 0.96-0.24 0.06-0.02 0.11-0.03 0.16-0.04 0.4-0.1 0.72-0.42 1.12-0.52 0.5-0.12 1.54 0.65 1.99 0.92 0.36 0.21-0.06 0.63-0.24 0.72-0.31 0.15-0.63 0.2-0.99 0.2-0.24 0-0.5-0.08-0.72-0.12-0.31-0.07-0.52-0.07-0.76 0.12-0.27 0.2-0.24 0.45-0.08 0.71s0.41 0.45 0.48 0.72c0.09 0.35-0.19 0.53-0.44 0.68s-0.67-0.04-0.96-0.04c-0.36 0-0.71 0.18-0.99 0.4-0.13 0.1-0.25 0.61-0.28 0.76-0.02 0.05-0.03 0.1-0.04 0.16-0.1 0.39 0.02 0.58 0.16 0.91 0.09 0.24 0.32 0.46 0.43 0.68 0.14 0.28 0.23 0.46 0.08 0.76-0.12 0.26-0.17 0.46-0.23 0.72-0.05 0.18 0.2 0.66 0.27 0.84 0.15 0.36 0.01 0.43-0.23 0.68-0.23 0.22-0.56 0.27-0.8 0.39-0.23 0.12-0.68-0.02-0.92-0.07-0.27-0.07-0.52 0.05-0.72 0.15-0.32 0.17-0.32 0.32-0.56 0-0.25-0.33-0.46-0.68-0.56-1.07-0.01-0.06-0.02-0.11-0.04-0.16-0.06-0.27-0.04-0.6-0.04-0.88 0-0.29 0.08-0.54 0.08-0.84 0-0.31-0.75 0.28-0.95 0.36-0.1 0.04-0.19 0.08-0.28 0.12-0.4 0.17-0.36 0.54-0.36 0.88s0.2 0.6 0.2 0.96c0 0.34-0.41 0.44-0.68 0.44-0.39 0-0.57-0.46-0.84-0.72-0.25-0.26-0.69-0.54-0.84-0.84-0.21-0.43-0.28-0.67 0.16-1 0.26-0.19 0.61-0.22 0.8-0.48 0.2-0.26 0.48-0.64 0-0.76-0.33-0.08-0.46-0.19-0.84-0.12-0.06 0.02-0.13 0.03-0.2 0.04-0.66 0.14-0.65 0.08-1.27-0.23-0.45-0.23-0.6-0.57-0.92-0.88-0.3-0.3-0.46-0.69-0.56-1.08-0.09-0.35-0.19-0.7-0.28-1.04-0.07-0.28-0.08-0.62-0.08-0.92 0-0.29-0.08-0.61-0.08-0.91v-1c0-0.34 0.04-0.63 0.04-0.96 0-0.28 0.05-0.61 0.12-0.88 0.01-0.02 0-0.05 0-0.08 0-0.34 0.2-0.69 0.32-0.99 0.11-0.27 0.27-0.55 0.4-0.8 0.13-0.26 0.26-0.48 0.44-0.72 0.19-0.26 0.39-0.52 0.6-0.76 0.34-0.42 0.7-0.81 1.11-1.16 0.24-0.2 0.36-0.54 0.64-0.75 0.35-0.27 0.65-0.54 1-0.8 0.26-0.2 0.5-0.43 0.68-0.72 0.14-0.24 0.22-0.46 0.44-0.68 0.05-0.05 0.23-0.13 0.28-0.16z"/>
        <path id="path5345" opacity=".18889" fill-rule="evenodd" fill="#787974" d="m334.86-450.97c-0.39 0.09-1.15 0.22-1.68 0.12-0.4-0.08-0.41-0.3-0.79 0.08-0.03 0.03-0.06 0.05-0.08 0.08-0.25 0.24-0.28 0.28-0.28 0.64 0 0.23 0 0.46-0.04 0.68-0.05 0.23-0.02 0.59 0.04 0.79 0.07 0.32 0.12 0.54 0.28 0.84 0.12 0.24 0.17 0.43 0.39 0.6 0.29 0.22 0.69 0.27 1 0.4 0.22 0.09 0.59 0.04 0.84 0.04 0.31 0 0.36 0.03 0.36 0.4 0 0.31-0.59 0.75-0.76 1.04-0.19 0.31-0.12 0.56 0 0.91 0.09 0.27 0.15 0.53 0.2 0.8 0.06 0.29 0.13 0.49 0.36 0.72 0.24 0.24 0.69-0.03 0.92 0.28 0.11 0.15 0.12 0.41 0.12 0.6 0 0.32 0.1 0.47 0.4 0.32 0.27-0.14 0.47-0.13 0.67-0.4 0.2-0.26 0.3-0.59 0.44-0.88 0.13-0.26 0.35-0.28 0.64-0.28 0.27 0 0.48 0.07 0.76 0 0.41-0.1 0.47-0.23 0.76-0.52 0.37-0.36 0.32-0.62 0.4-1.08 0.03-0.2-0.04-0.45-0.08-0.63-0.02-0.06-0.03-0.11-0.04-0.16-0.06-0.23-0.55-0.24-0.72-0.24-0.39 0-0.96-0.19-1.32-0.28-0.18-0.05-0.69-0.65-0.84-0.8-0.21-0.21-0.25-0.37-0.31-0.64-0.09-0.33-0.04-0.67-0.12-1-0.1-0.37 0.01-0.58-0.28-0.87-0.21-0.21-0.35-0.5-0.4-0.76-0.05-0.25-0.29-0.54-0.48-0.68-0.14-0.11-0.16-0.08-0.36-0.12z"/>
        <path id="path5347" opacity=".18333" fill-rule="evenodd" fill="#787974" d="m341-448.66c-0.2 0.01-0.41 0.26-0.59 0.44s-0.12 0.48-0.12 0.72c0 0.26 0.05 0.54 0.12 0.8 0.05 0.22 0.25 0.49 0.4 0.64 0.22 0.22 0.5 0.35 0.79 0.4 0.39 0.06 0.61 0.11 0.76-0.28 0.11-0.27 0.16-0.46 0.16-0.76 0-0.28-0.01-0.49-0.08-0.76-0.08-0.32-0.19-0.49-0.48-0.64-0.2-0.1-0.42-0.34-0.6-0.48-0.1-0.07-0.23-0.08-0.36-0.08z"/>
        <path id="path5349" opacity=".47222" fill-rule="evenodd" fill="#f3f4f2" d="m328.36-436.21c0.21-0.14 0.84-0.79 1.27-1.11 0.09-0.07 0.16-0.14 0.24-0.2 0.43-0.36 0.81-0.93 1.12-1.4 0.49-0.74 0.71-1.41 0.88-2.23 0.21-1.05 0.26-0.35 0.04 0.32-0.04 0.1-0.06 0.21-0.08 0.31-0.11 0.44-0.16 0.9-0.32 1.32-0.23 0.57-0.65 1.05-0.8 1.64-0.08 0.31-0.19 0.69-0.12 0.95 0.08 0.32 0.53-0.37 0.84-0.47 0.41-0.14 0.52-0.23 0.52 0.24 0 0.28-0.15 0.67-0.2 0.95-0.1 0.49 1.29 0.08 1.59 0 1.01-0.25 1.7-0.59 2.52-1.27 0.9-0.75 1.64-1.57 2.47-2.4 0.67-0.66 0.98-1.08 0.56 0.04-0.04 0.11-0.08 0.21-0.12 0.32s-0.08 0.21-0.12 0.32c-0.22 0.59-0.62 1.24-1.16 1.6-0.83 0.55-1.37 1.58-2.27 2.03-0.37 0.18-0.75 0.26-1.12 0.44-0.37 0.19 0.72 0.32 0.92 0.36 2 0.44-1.62 0.64-2.08 0.64-0.74 0-1.12-0.16-1.71 0.2-0.2 0.12 0.94 0.59 1 0.6 0.46 0.09 0.88 0.4 1.39 0.4 0.85 0-1.77 0.26-2.51 0.08-0.62-0.16-1.21-0.29-1.84-0.44-0.31-0.08-0.63-0.03-0.91 0.04-0.06 0.01 0.04 0.82 0.04 0.91 0 0.59-0.16 1.06-0.44 0.2-0.16-0.46-0.44-0.94-0.44-1.43 0-0.31-0.41 0.47-0.6 0.72-0.26 0.35-0.78 0.85-0.88 0.87-0.01 0.01 0.26-0.55 0.36-0.95 0.08-0.31 0.57-1.12 0.24-1.2-0.31-0.08-0.73-0.02-1.04-0.08-0.46-0.09-0.96-0.18-1.39-0.4-0.85-0.42-2.17-0.81-3.08-1.04-0.08-0.02-1.45-1.49-0.16-0.2 0.86 0.86 2.19 1.44 3.39 1.44 0.39 0 0.96-0.15 1.32-0.24 0.22-0.05 0.52-0.38 0.76-0.48 0.26-0.1-0.42-0.38-0.6-0.6-0.07-0.08-0.13-0.16-0.2-0.24-0.71-0.86-0.96-2.04-1.79-2.87-0.14-0.13-2.08-2.4-1.16-1.64 0.95 0.8 1.83 1.5 2.63 2.44 0.41 0.48 0.77 1.1 1.16 1.59 0.39 0.5 0.31-0.1 0.2-0.44-0.24-0.72-0.12-1.72-0.12-2.47 0-1 0.52 1.03 0.56 1.2 0.12 0.49 0.38 1.14 0.76 0.64 0.39-0.52 0.44-0.62 0.44 0.04v0.16c0 0.24-0.02 0.53 0.04 0.79z"/>
        <path id="path5351" opacity=".11667" fill-rule="evenodd" fill="#787974" d="m340.05-444.98c0.08 0.08 0.16 0.37 0.16 0.63 0 0.11-0.66 0.62-0.76 0.72-0.19 0.19-0.23 0.52-0.28 0.76-0.06 0.31-0.14 0.53-0.08 0.84 0.05 0.26 0.16 0.52 0.28 0.76 0.14 0.28 0.35 0.43 0.6 0.67 0.27 0.28 0.61 0.28 0.95 0.36 0.44 0.11-0.25 0.53-0.35 0.6-0.27 0.2-0.53 0.26-0.68 0.56-0.18 0.35 0.18 0.47 0.4 0.56 0.24 0.1 0.6-0.33 0.71-0.48 0.16-0.2 0.4-0.43 0.4-0.68 0-0.24 0.12-0.51 0.12-0.8 0-0.27 0.06-0.56 0.12-0.79 0.09-0.36 0.22-0.5 0.44-0.72 0.18-0.18 0.18-0.62 0.12-0.84-0.06-0.25-0.22-0.48-0.28-0.72s-0.36-0.39-0.56-0.44c-0.23-0.06-0.56-0.48-0.71-0.64-0.21-0.2-0.3-0.35-0.6-0.35z"/>
        <path id="path5353" stroke="#000" stroke-width="1.0013px" fill="none" d="m322.69-446.02c-0.01-0.01 0.03 0 0 0z"/>
        <path id="path5355" opacity=".2" fill-rule="evenodd" fill="#938f8b" d="m327.6-455.68c0.17-0.04 0.57-0.17 0.84-0.24 0.34-0.08 0.69 0.12 1.03 0.12 0.04 0 0.26 0.44 0.64 0.44h0.16c0.24 0 0.51 0.19 0.68 0.36 0.16 0.16 0.01 0.54-0.08 0.64-0.25 0.25-0.48 0.07-0.68-0.12-0.21-0.21-0.32-0.29-0.6-0.36-0.27-0.07-0.57-0.03-0.84 0.04-0.32 0.08-0.54 0.16-0.91 0.16-0.13 0-0.52-0.55-0.56-0.64-0.08-0.16 0.22-0.37 0.32-0.4z"/>
        <path id="path5357" opacity=".28889" fill-rule="evenodd" fill="#938f8b" d="m332.43-455c0.19 0.05 0.64 0.04 0.95-0.04 0.35-0.09 0.91-0.13 1.28-0.04 0.22 0.06 1.59 0.32 0.96 0.64-0.31 0.15-0.64 0.19-0.92 0.36-0.33 0.2 0.4 0.28 0.56 0.28 0.42 0 0.18 0.51 0.08 0.67-0.16 0.27-0.05 0.67 0 0.92 0.06 0.29 0.55 0.24 0.8 0.24 0.34 0 0.63 0.05 0.83 0.32 0.19 0.24 0.44 0.49 0.32 0.72-0.12 0.24-0.72 0.28-0.91 0.28-0.16 0-0.75-0.76-0.84-0.84-0.23-0.2-0.5-0.01-0.72 0.04-0.39 0.1-0.68-0.4-0.92-0.6-0.26-0.22-0.42-0.53-0.56-0.8-0.17-0.33 0.11-0.47-0.4-0.47-0.31 0-0.48-0.07-0.71-0.24-0.32-0.24-0.56-0.15-0.56-0.6 0-0.4 0.02-0.52 0.36-0.72 0.1-0.07 0.25-0.03 0.4-0.12z"/>
        <path id="path5359" opacity=".17778" fill-rule="evenodd" fill="url(#radialGradient5477)" d="m323.88-456.19c0.05 0.18-0.13 0.39-0.28 0.6-0.2 0.27-0.31 0.45-0.08 0.68 0.14 0.14 0.58 0.01 0.72-0.04 0.32-0.13 0.67-0.23 0.99-0.36 0.25-0.1 0.43-0.14 0.68-0.2 0.29-0.07 0.57 0.06 0.68 0.2 0.07 0.09-0.46 0.49-0.52 0.52-0.24 0.12-0.47 0.21-0.72 0.28-0.3 0.07-0.57 0.17-0.87 0.24-0.31 0.06-0.53 0.15-0.8 0.31-0.34 0.21-0.63 0.51-0.92 0.8-0.27 0.28-0.37 0.57-0.28 0.92 0.08 0.34 0.21 0.46 0.52 0.52 0.34 0.07 0.51-0.1 0.68-0.32 0.22-0.29 0.3-0.66 0.56-0.92 0.21-0.21 0.36-0.42 0.59-0.6 0.24-0.18 0.43-0.27 0.72-0.2 0.25 0.07 0.45 0.31 0.72 0.36 0.23 0.05 0.56-0.26 0.76-0.36 0.04-0.02 0.08-0.05 0.12-0.08 0.21-0.13 0.55-0.08 0.8-0.08 0.27 0 0.49 0.13 0.72 0.24 0.26 0.14 0.5 0.13 0.75 0.32 0.28 0.21 0.42 0.36 0.56 0.64 0.13 0.27 0.19 0.43 0.4 0.64 0.22 0.22 0.56 0.36 0.8 0.6 0.14 0.14 0.23 0.53 0.28 0.72 0.07 0.29 0.14 0.6 0 0.87-0.15 0.31-0.33 0.59-0.48 0.88s-0.55 0.53-0.8 0.72c-0.34 0.26-0.75 0.27-1.08 0.6-0.37 0.37-0.41 0.6-0.75 1.12-0.26 0.38 0.04 0.55 0.36 0.48 0.32-0.09 0.63-0.16 0.95-0.24 0.06-0.02 0.11-0.03 0.16-0.04 0.4-0.1 0.72-0.42 1.12-0.52 0.5-0.13 1.54 0.64 1.99 0.92 0.36 0.21-0.06 0.63-0.23 0.71-0.32 0.16-0.64 0.2-1 0.2-0.24 0-0.49-0.07-0.72-0.12-0.31-0.06-0.52-0.06-0.76 0.12-0.27 0.2-0.23 0.46-0.08 0.72 0.16 0.26 0.41 0.45 0.48 0.72 0.09 0.35-0.19 0.53-0.44 0.68s-0.67-0.04-0.96-0.04c-0.36 0-0.71 0.18-0.99 0.4-0.13 0.09-0.25 0.61-0.28 0.76-0.02 0.05-0.03 0.1-0.04 0.16-0.1 0.38 0.02 0.58 0.16 0.91 0.09 0.24 0.32 0.46 0.44 0.68 0.13 0.28 0.22 0.46 0.08 0.76-0.13 0.25-0.18 0.46-0.24 0.72-0.05 0.18 0.2 0.66 0.28 0.84 0.14 0.36 0.01 0.42-0.24 0.67-0.22 0.22-0.56 0.28-0.8 0.4-0.23 0.12-0.68-0.02-0.92-0.08-0.27-0.06-0.52 0.06-0.72 0.16-0.32 0.16-0.32 0.32-0.56 0-0.25-0.33-0.46-0.68-0.56-1.07-0.01-0.06-0.02-0.11-0.04-0.16-0.06-0.27-0.04-0.6-0.04-0.88 0-0.29 0.08-0.55 0.08-0.84 0-0.32-0.75 0.28-0.95 0.36-0.1 0.04-0.19 0.08-0.28 0.12-0.4 0.17-0.36 0.53-0.36 0.88 0 0.34 0.2 0.6 0.2 0.95s-0.41 0.44-0.68 0.44c-0.39 0-0.57-0.45-0.84-0.71-0.25-0.26-0.69-0.54-0.84-0.84-0.21-0.43-0.28-0.67 0.16-1 0.26-0.19 0.61-0.23 0.8-0.48 0.2-0.26 0.48-0.64 0-0.76-0.33-0.08-0.45-0.19-0.84-0.12-0.06 0.02-0.13 0.03-0.2 0.04-0.66 0.13-0.65 0.07-1.27-0.24-0.45-0.22-0.6-0.56-0.92-0.87-0.3-0.3-0.46-0.7-0.56-1.08-0.09-0.36-0.19-0.7-0.28-1.04-0.07-0.28-0.08-0.63-0.08-0.92s-0.08-0.61-0.08-0.92v-0.99c0-0.34 0.04-0.64 0.04-0.96 0-0.28 0.06-0.62 0.12-0.88 0.01-0.02 0-0.05 0-0.08 0-0.34 0.2-0.69 0.32-1 0.11-0.26 0.27-0.54 0.4-0.79 0.13-0.26 0.26-0.48 0.44-0.72 0.19-0.26 0.4-0.52 0.6-0.76 0.34-0.42 0.71-0.81 1.11-1.16 0.24-0.2 0.36-0.54 0.64-0.76 0.35-0.26 0.65-0.53 1-0.79 0.26-0.2 0.5-0.43 0.68-0.72 0.14-0.24 0.22-0.47 0.44-0.68 0.05-0.05 0.23-0.14 0.28-0.16z"/>
        <path id="path5361" opacity=".61667" transform="matrix(.021289 0 0 .021289 345.15 -457.77)" fill="#fff" d="m-824.73 649.37a31.865 31.865 0 1 1 -63.73 0 31.865 31.865 0 1 1 63.73 0z"/>
        <path id="path5363" opacity=".54444" transform="matrix(.011271 0 0 .011271 330.39 -456.65)" fill="#fff" d="m-824.73 649.37a31.865 31.865 0 1 1 -63.73 0 31.865 31.865 0 1 1 63.73 0z"/>
        <path id="path5365" opacity=".54444" transform="matrix(.021289 0 0 .021289 354.93 -458.53)" fill="#c2c3be" d="m-824.73 649.37a31.865 31.865 0 1 1 -63.73 0 31.865 31.865 0 1 1 63.73 0z"/>
        <path id="path5367" opacity=".56667" transform="matrix(.021289 0 0 .021289 349.82 -448.31)" fill="#c2c3be" d="m-824.73 649.37a31.865 31.865 0 1 1 -63.73 0 31.865 31.865 0 1 1 63.73 0z"/>
        <path id="path5369" opacity=".61667" transform="matrix(.013775 0 0 .013775 347.86 -453.49)" fill="#fff" d="m-824.73 649.37a31.865 31.865 0 1 1 -63.73 0 31.865 31.865 0 1 1 63.73 0z"/>
        <path id="path5371" opacity=".61667" transform="matrix(.011271 0 0 .011271 337.49 -441.33)" fill="#fff" d="m-824.73 649.37a31.865 31.865 0 1 1 -63.73 0 31.865 31.865 0 1 1 63.73 0z"/>
        <path id="path5373" opacity=".61667" transform="matrix(.013775 0 0 .013775 346.18 -447.59)" fill="#fff" d="m-824.73 649.37a31.865 31.865 0 1 1 -63.73 0 31.865 31.865 0 1 1 63.73 0z"/>
        <path id="path5375" opacity=".61667" transform="matrix(.013775 0 0 .013775 351.37 -459)" fill="#fff" d="m-824.73 649.37a31.865 31.865 0 1 1 -63.73 0 31.865 31.865 0 1 1 63.73 0z"/>
        <path id="path5377" opacity=".61667" transform="matrix(.013775 0 0 .013775 348.34 -458.2)" fill="#fff" d="m-824.73 649.37a31.865 31.865 0 1 1 -63.73 0 31.865 31.865 0 1 1 63.73 0z"/>
        <path id="path5379" opacity=".61667" transform="matrix(.013775 0 0 .013775 349.53 -462.67)" fill="#fff" d="m-824.73 649.37a31.865 31.865 0 1 1 -63.73 0 31.865 31.865 0 1 1 63.73 0z"/>
        <path id="path5381" opacity=".61667" transform="matrix(.013775 0 0 .013775 340.67 -449.42)" fill="#fff" d="m-824.73 649.37a31.865 31.865 0 1 1 -63.73 0 31.865 31.865 0 1 1 63.73 0z"/>
        <path id="path5383" fill-rule="evenodd" fill="#fff" d="m328.31-435.94c0.2-0.14 0.79-0.73 1.19-1.03 0.07-0.05 0.15-0.12 0.22-0.18 0.4-0.33 0.75-0.85 1.03-1.28 0.46-0.68 0.67-1.29 0.82-2.04 0.19-0.96 0.24-0.32 0.04 0.29-0.04 0.1-0.05 0.19-0.08 0.29-0.1 0.4-0.14 0.83-0.29 1.21-0.21 0.51-0.61 0.96-0.74 1.5-0.08 0.28-0.18 0.63-0.12 0.87 0.08 0.29 0.5-0.34 0.78-0.44 0.39-0.12 0.48-0.21 0.48 0.22 0 0.26-0.13 0.62-0.18 0.88-0.09 0.45 1.19 0.07 1.48 0 0.93-0.23 1.57-0.55 2.33-1.17 0.83-0.68 1.52-1.43 2.29-2.19 0.62-0.61 0.91-0.99 0.52 0.04-0.04 0.09-0.08 0.19-0.11 0.29-0.04 0.09-0.08 0.19-0.11 0.29-0.21 0.54-0.58 1.14-1.08 1.46-0.77 0.51-1.27 1.45-2.1 1.86-0.34 0.17-0.7 0.24-1.04 0.41-0.34 0.16 0.67 0.28 0.85 0.32 1.86 0.41-1.5 0.59-1.92 0.59-0.7 0-1.04-0.14-1.59 0.18-0.19 0.11 0.87 0.54 0.92 0.55 0.43 0.08 0.82 0.36 1.3 0.36 0.78 0-1.65 0.25-2.33 0.08-0.58-0.14-1.13-0.26-1.71-0.4-0.29-0.08-0.59-0.03-0.85 0.03-0.05 0.01 0.04 0.76 0.04 0.84 0 0.54-0.14 0.97-0.41 0.18-0.14-0.42-0.4-0.86-0.4-1.31 0-0.29-0.38 0.43-0.56 0.66-0.24 0.32-0.72 0.78-0.81 0.8-0.01 0 0.24-0.51 0.33-0.88 0.07-0.27 0.53-1.02 0.22-1.09-0.28-0.07-0.67-0.02-0.96-0.07-0.43-0.09-0.89-0.17-1.29-0.37-0.79-0.39-2.01-0.74-2.85-0.95-0.08-0.02-1.35-1.37-0.15-0.18 0.79 0.78 2.03 1.31 3.14 1.31 0.36 0 0.89-0.13 1.23-0.22 0.2-0.05 0.47-0.35 0.7-0.43 0.24-0.1-0.39-0.35-0.56-0.55-0.06-0.08-0.12-0.15-0.18-0.22-0.66-0.79-0.9-1.87-1.67-2.63-0.12-0.12-1.92-2.2-1.07-1.5 0.88 0.73 1.7 1.37 2.44 2.23 0.38 0.44 0.71 1.01 1.08 1.46 0.36 0.45 0.28-0.09 0.18-0.4-0.22-0.66-0.11-1.58-0.11-2.27 0-0.91 0.48 0.94 0.52 1.1 0.11 0.45 0.35 1.04 0.7 0.58 0.36-0.47 0.41-0.56 0.41 0.04v0.15c0 0.22-0.02 0.48 0.03 0.73z"/>
        <g id="g5385" opacity=".31667" fill="#a3a4a0" transform="translate(461.7 -517.21)">
          <path id="path5387" opacity="1" transform="matrix(1 0 0 1.0556 -.17678 -4.0809)" d="m-125.69 68.683a1.7678 1.591 0 1 1 -3.53 0 1.7678 1.591 0 1 1 3.53 0z"/>
          <path id="path5389" opacity="1" transform="matrix(1 0 0 1.0556 1.7678 -.10344)" d="m-125.69 68.683a1.7678 1.591 0 1 1 -3.53 0 1.7678 1.591 0 1 1 3.53 0z"/>
          <path id="path5391" opacity="1" transform="matrix(.65 0 0 .68611 -40.279 25.214)" d="m-125.69 68.683a1.7678 1.591 0 1 1 -3.53 0 1.7678 1.591 0 1 1 3.53 0z"/>
          <path id="path5393" opacity="1" transform="matrix(1.55 0 0 1.6361 63.03 -45.537)" d="m-125.69 68.683a1.7678 1.591 0 1 1 -3.53 0 1.7678 1.591 0 1 1 3.53 0z"/>
          <path id="path5395" opacity="1" transform="matrix(1.8 0 0 1.9 89.148 -57.506)" d="m-125.69 68.683a1.7678 1.591 0 1 1 -3.53 0 1.7678 1.591 0 1 1 3.53 0z"/>
          <path id="path5397" opacity="1" transform="matrix(1.4 0 0 1.4778 42.32 -25.709)" d="m-125.69 68.683a1.7678 1.591 0 1 1 -3.53 0 1.7678 1.591 0 1 1 3.53 0z"/>
          <path id="path5399" opacity="1" transform="matrix(1.4 0 0 1.4778 40.729 -32.285)" d="m-125.69 68.683a1.7678 1.591 0 1 1 -3.53 0 1.7678 1.591 0 1 1 3.53 0z"/>
        </g>
        <path id="path5401" transform="translate(490.91 -504.26)" fill="#fff" d="m-161.84 69.523a0.66291 0.66291 0 1 1 -1.32 0 0.66291 0.66291 0 1 1 1.32 0z"/>
      </g>
      <path id="path9201" d="m-46.5 0.25a9.75 9.75 0 1 1 -19.5 0 9.75 9.75 0 1 1 19.5 0z" transform="matrix(1.3865 0 0 1.3865 445.01 -446.36)" stroke="#888a85" stroke-width=".72219" fill="none"/>
      <path id="path9203" d="m-22.5-17.5a9.5 9.5 0 1 1 -19 0 9.5 9.5 0 1 1 19 0z" transform="matrix(.77807 -1.0613 1.0613 .77807 410.47 -466.35)" stroke="#fff" stroke-linecap="square" stroke-width=".76089" fill="none"/>
    </g>
    <g id="g6956" transform="translate(-249 467.87)">
      <path id="path6958" stroke="#888a85" fill="#c4c5c2" stroke-miterlimit="2" d="m280.5-445.5c-2.27 0-4.11 1.55-4.72 3.62-0.69-0.36-1.44-0.62-2.28-0.62-2.76 0-5 2.24-5 5 0 0.58 0.16 1.11 0.34 1.62-1.37 0.78-2.34 2.19-2.34 3.88 0 2.48 2.02 4.5 4.5 4.5h19c2.48 0 4.5-2.02 4.5-4.5 0-1.69-0.97-3.1-2.34-3.88 0.18-0.51 0.34-1.04 0.34-1.62 0-2.76-2.24-5-5-5-0.84 0-1.59 0.26-2.28 0.62-0.61-2.07-2.45-3.62-4.72-3.62z"/>
      <path id="path6960" fill="url(#linearGradient7002)" d="m280.5-445c-2.19 0-3.72 1.34-4.4 3.84-0.66-0.34-1.54-0.83-2.35-0.83-2.72 0-4.76 1.94-4.76 4.55 0 0.54 0.27 1.33 0.45 1.82-1.33 0.73-2.44 1.89-2.44 3.37 0 2.35 1.55 4.25 4.34 4.25h18.32c2.77 0 4.34-1.9 4.34-4.25 0-1.59-1.11-2.67-2.44-3.39 0.18-0.49 0.47-1.26 0.47-1.8 0-2.61-2.12-4.57-4.78-4.57-0.81 0-1.64 0.49-2.31 0.83-0.65-2.42-2.25-3.82-4.44-3.82z"/>
      <g id="g6962">
        <path id="path6964" transform="matrix(1.0566 0 0 1.0566 -24.198 21.863)" fill="#c4c5c2" d="m291.69-437.59a3.3125 3.3125 0 1 1 -6.63 0 3.3125 3.3125 0 1 1 6.63 0z"/>
        <path id="path6966" transform="matrix(1.0566 0 0 1.0566 -24.198 21.863)" fill="url(#linearGradient7004)" d="m291.69-437.59a3.3125 3.3125 0 1 1 -6.63 0 3.3125 3.3125 0 1 1 6.63 0z"/>
      </g>
      <rect id="rect6968" height="9" width="20" y="-438" x="271" fill="#c4c5c2"/>
      <path id="path6970" transform="matrix(.90566 0 0 .90566 9.8302 -35.689)" fill="#c4c5c2" d="m291.69-437.59a3.3125 3.3125 0 1 1 -6.63 0 3.3125 3.3125 0 1 1 6.63 0z"/>
      <g id="g6972">
        <path id="path6974" transform="matrix(1.0566 0 0 1.0566 -17.198 24.863)" fill="#c4c5c2" d="m291.69-437.59a3.3125 3.3125 0 1 1 -6.63 0 3.3125 3.3125 0 1 1 6.63 0z"/>
        <path id="path6976" transform="matrix(1.0566 0 0 1.0566 -17.198 24.863)" fill="url(#linearGradient7006)" d="m291.69-437.59a3.3125 3.3125 0 1 1 -6.63 0 3.3125 3.3125 0 1 1 6.63 0z"/>
      </g>
      <g id="g6978">
        <path id="path6980" transform="matrix(1.0566 0 0 1.0566 -31.198 24.863)" fill="#c4c5c2" d="m291.69-437.59a3.3125 3.3125 0 1 1 -6.63 0 3.3125 3.3125 0 1 1 6.63 0z"/>
        <path id="path6982" transform="matrix(1.0566 0 0 1.0566 -31.198 24.863)" fill="url(#linearGradient7008)" d="m291.69-437.59a3.3125 3.3125 0 1 1 -6.63 0 3.3125 3.3125 0 1 1 6.63 0z"/>
      </g>
      <g id="g6984" transform="translate(-1)">
        <path id="path6986" fill="#c4c5c2" d="m280.47-440.97c-3.58 0-6.47 2.92-6.47 6.5 0 2.37 1.35 4.34 3.25 5.47h6.47c1.9-1.13 3.25-3.13 3.25-5.5 0-3.58-2.92-6.47-6.5-6.47z"/>
        <path id="path6988" fill="url(#linearGradient7010)" d="m280.5-441c-3.59 0-6.5 2.91-6.5 6.5 0 2.38 1.34 4.37 3.25 5.5h6.5c1.91-1.13 3.25-3.12 3.25-5.5 0-3.59-2.91-6.5-6.5-6.5z"/>
      </g>
      <path id="path6990" transform="matrix(.90566 0 0 .90566 9.8303 -35.689)" fill="url(#linearGradient7012)" d="m291.69-437.59a3.3125 3.3125 0 1 1 -6.63 0 3.3125 3.3125 0 1 1 6.63 0z"/>
      <path id="path6992" fill-rule="evenodd" fill="#888a85" d="m292.96-437.33c-0.01 2.68-3.27 3.71-3.27 3.71s2.35-1.63 2.33-3.71h0.94z"/>
      <g id="g6994" transform="matrix(1.1429 0 0 1.1429 -28.571 67)">
        <path id="path6996" transform="matrix(1.0566 0 0 1.0566 -31.198 24.863)" fill="#c4c5c2" d="m291.69-437.59a3.3125 3.3125 0 1 1 -6.63 0 3.3125 3.3125 0 1 1 6.63 0z"/>
        <path id="path6998" transform="matrix(1.0566 0 0 1.0566 -31.198 24.863)" fill="url(#linearGradient7014)" d="m291.69-437.59a3.3125 3.3125 0 1 1 -6.63 0 3.3125 3.3125 0 1 1 6.63 0z"/>
      </g>
    </g>
  </g>
  <metadata>
    <rdf:RDF>
      <cc:Work>
        <dc:format>image/svg+xml</dc:format>
        <dc:type rdf:resource="http://purl.org/dc/dcmitype/StillImage"/>
        <cc:license rdf:resource="http://creativecommons.org/licenses/publicdomain/"/>
        <dc:publisher>
          <cc:Agent rdf:about="http://openclipart.org/">
            <dc:title>Openclipart</dc:title>
          </cc:Agent>
        </dc:publisher>
        <dc:title>tango weather few clouds night</dc:title>
        <dc:date>2010-03-07T17:24:45</dc:date>
        <dc:description>Weather icon from Tango Project: http://tango.freedesktop.org/Tango_Desktop_Project&#xD;\n&#xD;\nTango Project icons are Public Domain.</dc:description>
        <dc:source>http://openclipart.org/detail/30079/tango-weather-few-clouds-night-by-warszawianka</dc:source>
        <dc:creator>
          <cc:Agent>
            <dc:title>warszawianka</dc:title>
          </cc:Agent>
        </dc:creator>
        <dc:subject>
          <rdf:Bag>
            <rdf:li>clip art</rdf:li>
            <rdf:li>clipart</rdf:li>
            <rdf:li>clouds</rdf:li>
            <rdf:li>icon</rdf:li>
            <rdf:li>moon</rdf:li>
            <rdf:li>night</rdf:li>
            <rdf:li>sky</rdf:li>
            <rdf:li>weather</rdf:li>
          </rdf:Bag>
        </dc:subject>
      </cc:Work>
      <cc:License rdf:about="http://creativecommons.org/licenses/publicdomain/">
        <cc:permits rdf:resource="http://creativecommons.org/ns#Reproduction"/>
        <cc:permits rdf:resource="http://creativecommons.org/ns#Distribution"/>
        <cc:permits rdf:resource="http://creativecommons.org/ns#DerivativeWorks"/>
      </cc:License>
    </rdf:RDF>
  </metadata>
</svg>
