<?xml version="1.0"?>
<svg xmlns:rdf="http://www.w3.org/1999/02/22-rdf-syntax-ns#" xmlns="http://www.w3.org/2000/svg" xmlns:cc="http://creativecommons.org/ns#" xmlns:xlink="http://www.w3.org/1999/xlink" xmlns:dc="http://purl.org/dc/elements/1.1/" xmlns:svg="http://www.w3.org/2000/svg" id="svg3830" viewBox="0 0 40.002 50.429" version="1.1">
  <defs id="defs3832">
    <linearGradient id="linearGradient1869">
      <stop id="stop1870" stop-color="#eff3f4" offset="0"/>
      <stop id="stop1871" stop-color="#939596" offset="1"/>
    </linearGradient>
    <linearGradient id="linearGradient157">
      <stop id="stop158" stop-color="#babdb6" offset="0"/>
      <stop id="stop159" stop-color="#f1f5ec" offset="1"/>
    </linearGradient>
    <linearGradient id="linearGradient5060">
      <stop id="stop5062" offset="0"/>
      <stop id="stop5064" stop-opacity="0" offset="1"/>
    </linearGradient>
    <linearGradient id="linearGradient4856" y2="609.51" gradientUnits="userSpaceOnUse" x2="302.86" gradientTransform="matrix(2.7744 0 0 1.9697 -1892.2 -872.89)" y1="366.65" x1="302.86">
      <stop id="stop5050" stop-opacity="0" offset="0"/>
      <stop id="stop5056" offset=".5"/>
      <stop id="stop5052" stop-opacity="0" offset="1"/>
    </linearGradient>
    <radialGradient id="radialGradient4858" xlink:href="#linearGradient5060" gradientUnits="userSpaceOnUse" cy="486.65" cx="605.71" gradientTransform="matrix(2.7744 0 0 1.9697 -1891.6 -872.89)" r="117.14"/>
    <radialGradient id="radialGradient4860" xlink:href="#linearGradient5060" gradientUnits="userSpaceOnUse" cy="486.65" cx="605.71" gradientTransform="matrix(-2.7744 0 0 1.9697 112.76 -872.89)" r="117.14"/>
    <linearGradient id="linearGradient4862" y2="39.901" xlink:href="#linearGradient1869" gradientUnits="userSpaceOnUse" x2="38.052" gradientTransform="matrix(1.1722 0 0 .86010 89.271 -68.027)" y1="25.582" x1="8.8354"/>
    <linearGradient id="linearGradient4864" y2="69.461" gradientUnits="userSpaceOnUse" x2="7.5291" gradientTransform="matrix(3.5204 0 0 .34802 85.85 -73.674)" y1="27.377" x1="7.3739">
      <stop id="stop150" offset="0"/>
      <stop id="stop151" stop-opacity="0" offset="1"/>
    </linearGradient>
    <linearGradient id="linearGradient4866" y2="57.525" gradientUnits="userSpaceOnUse" x2="31.284" gradientTransform="matrix(1.1722 0 0 .86010 89.349 -68.184)" y1="31.003" x1="13.948">
      <stop id="stop369" stop-color="#fff" stop-opacity=".10309" offset="0"/>
      <stop id="stop372" stop-color="#fff" stop-opacity="0" offset="1"/>
    </linearGradient>
    <linearGradient id="linearGradient4868" y2="15.936" gradientUnits="userSpaceOnUse" x2="19.652" gradientTransform="matrix(1.2121 0 0 .83177 89.315 -68.027)" y1="38.963" x1="19.977">
      <stop id="stop382" stop-color="#fff" offset="0"/>
      <stop id="stop383" stop-color="#fff" stop-opacity="0" offset="1"/>
    </linearGradient>
    <linearGradient id="linearGradient4870" y2="110.61" xlink:href="#linearGradient1869" gradientUnits="userSpaceOnUse" x2="-4.5239" gradientTransform="matrix(1.4964 0 0 .48964 119.78 -109.16)" y1="104.39" x1="-4.6375"/>
    <linearGradient id="linearGradient4872" y2="21.17" xlink:href="#linearGradient157" gradientUnits="userSpaceOnUse" x2="19.738" gradientTransform="matrix(2.3882 0 0 .52040 86.15 -73.971)" y1="21.17" x1="2.9326"/>
    <linearGradient id="linearGradient4874" y2="6.8898" xlink:href="#linearGradient157" gradientUnits="userSpaceOnUse" x2="60.686" gradientTransform="matrix(.77680 0 0 1.6028 80.15 -73.999)" y1="6.8898" x1="55.208"/>
  </defs>
  <g id="layer1" transform="translate(-23.631 299.65)">
    <g id="layer1-9" transform="translate(-.048995 -.92632)">
      <g id="g4966">
        <g id="g4663" transform="translate(0 .79749)">
          <g id="g4554" transform="translate(-66.408 -229.99)">
            <g id="g6707" transform="matrix(.019546 0 0 .019662 127.63 -25.547)">
              <rect id="rect6709" opacity=".40206" style="color:#000000" height="478.36" width="1339.6" y="-150.7" x="-1559.3" fill="url(#linearGradient4856)"/>
              <path id="path6711" opacity=".40206" d="m-219.62-150.68v478.33c142.87 0.90045 345.4-107.17 345.4-239.2s-159.44-239.13-345.4-239.13z" style="color:#000000" fill="url(#radialGradient4858)"/>
              <path id="path6713" opacity=".40206" d="m-1559.3-150.68v478.33c-142.87 0.90045-345.4-107.17-345.4-239.2s159.44-239.13 345.4-239.13z" style="color:#000000" fill="url(#radialGradient4860)"/>
            </g>
            <path id="path1751" d="m93.096-57.029c-0.04396-0.03545 1.7269 31.505 1.7274 31.513 0.16613 2.5507 1.5607 3.4829 3.1217 3.4867 0.05578 0.00013 23.284-0.0032 23.907-0.006 2.6287-0.01121 3.2727-1.6346 3.4456-3.4083 0.0139-0.03497 1.7838-31.551 1.7977-31.586h-33.999z" stroke="#696b67" fill="url(#linearGradient4862)" fill-rule="evenodd"/>
            <path id="path1893" d="m126.35-54.505-30.25-0.0234c27.311 0.63733 26.677 3.6481 30.006 3.4943z" style="color:#000000" fill="url(#linearGradient4864)" display="block"/>
            <path id="path344" d="m124.85-48.268c-5.3099 2.3605-6.5838 4.7213-12.514 4.7714-6.521 0.05511-11.326 3.1957-16.193 5.6061 0.19411 2.9124 0.4082 8.9458 0.67259 12.207 0.13188 1.6269 0.63607 1.5883 2.9318 1.5883 9.0849 0 15.004 0.01309 22.175 0.01309 1.7554 0 1.555-1.2657 1.6499-2.4778 0.45906-5.8676 0.87171-15.819 1.2775-21.708z" fill="url(#linearGradient4866)" fill-rule="evenodd"/>
            <path id="path375" d="m94.51-54.407c-0.05126-0.000134 0.83675 18.817 1.5423 27.806 0.182 2.3075 0.55192 3.2466 1.9854 3.2466 11.817 0 22.611 0.0861 23.182 0.084 2.7665-0.01016 2.7147-1.0375 2.9438-3.2203 0.0834-0.7946 1.5325-27.827 1.5187-27.827-9.9011 0-18.94-0.0574-31.173-0.08938z" stroke="url(#linearGradient4868)" stroke-opacity=".28571" fill="none"/>
            <path id="path1841" stroke="#555753" fill-rule="evenodd" fill="url(#linearGradient4870)" d="m96.259-68.96c-1.0668 0.0024-1.9596 0.02711-2.4459 1.0428-0.08452 0.17654-2.6609 7.3416-2.7848 7.6148-1.0604 2.3392-0.08249 5.2859 1.9657 5.2662 0.38951-0.0036 34.359 0.01827 34.979 0 1.7435-0.0505 1.9666-3.4627 1.216-4.9977-0.0425-0.08696-3.526-7.9809-3.6148-8.1208-0.41091-0.62444-1.3311-0.89811-2.0147-0.87248-0.13465 0.0052-27.167 0.06681-27.3 0.06711z"/>
            <path id="path1864" style="color:#000000" d="m96.725-67.237c-0.99043-0.01308-1.0549-0.05218-1.2779 0.66365-0.05147 0.16524-2.125 6.6708-2.2063 6.9233-0.27641 0.85854 0.11446 1.0851 1.0737 1.0677 0.33981-0.0062 31.555 0 32.096 0 0.76803 0 0.99586-0.2584 0.82237-0.86823-0.0705-0.2478-2.9571-7.1939-3.0346-7.3176-0.35853-0.55245-0.29636-0.55084-0.92259-0.55863-0.11756-0.0015-26.435 0.09138-26.551 0.08984z" fill-rule="evenodd" display="block" fill="url(#linearGradient4872)"/>
            <path id="path1880" style="color:#000000" d="m96.193-67.256c-0.37295 0.02913-0.55233 0.14219-0.70843 0.64429-0.05147 0.16554-2.1227 6.6732-2.204 6.9261-0.27641 0.86008 0.09027 1.0913 1.0495 1.0738 0.01662-0.0003 1.9642 0.000249 2.1486 0l-0.2857-8.6443z" fill-rule="evenodd" display="block" fill="#9c9e99"/>
            <path id="path1888" style="color:#000000" d="m123.33-67.345c0.45328 0.004 0.58638-0.0053 0.87616 0.5551 0.0396 0.07664 2.8904 6.9893 2.9928 7.2422 0.3481 0.97444-0.31488 0.95407-1.3664 0.98233-0.19977-0.000302-2.5631-0.02263-2.7953-0.02287l0.29272-8.7567z" fill-rule="evenodd" display="block" fill="url(#linearGradient4874)"/>
          </g>
        </g>
      </g>
    </g>
  </g>
  <metadata>
    <rdf:RDF>
      <cc:Work>
        <dc:format>image/svg+xml</dc:format>
        <dc:type rdf:resource="http://purl.org/dc/dcmitype/StillImage"/>
        <cc:license rdf:resource="http://creativecommons.org/licenses/publicdomain/"/>
        <dc:publisher>
          <cc:Agent rdf:about="http://openclipart.org/">
            <dc:title>Openclipart</dc:title>
          </cc:Agent>
        </dc:publisher>
        <dc:title>White trash</dc:title>
        <dc:date>2011-07-29T10:25:31</dc:date>
        <dc:description>A big white trash clipart influenced by Tango project guidelines</dc:description>
        <dc:source>http://openclipart.org/detail/152353/white-trash-by-b.gaultier</dc:source>
        <dc:creator>
          <cc:Agent>
            <dc:title>b.gaultier</dc:title>
          </cc:Agent>
        </dc:creator>
        <dc:subject>
          <rdf:Bag>
            <rdf:li>clip art</rdf:li>
            <rdf:li>clipart</rdf:li>
            <rdf:li>tango</rdf:li>
            <rdf:li>trash</rdf:li>
          </rdf:Bag>
        </dc:subject>
      </cc:Work>
      <cc:License rdf:about="http://creativecommons.org/licenses/publicdomain/">
        <cc:permits rdf:resource="http://creativecommons.org/ns#Reproduction"/>
        <cc:permits rdf:resource="http://creativecommons.org/ns#Distribution"/>
        <cc:permits rdf:resource="http://creativecommons.org/ns#DerivativeWorks"/>
      </cc:License>
    </rdf:RDF>
  </metadata>
</svg>
