<?xml version="1.0"?>
<svg xmlns:rdf="http://www.w3.org/1999/02/22-rdf-syntax-ns#" xmlns="http://www.w3.org/2000/svg" xmlns:cc="http://creativecommons.org/ns#" xmlns:xlink="http://www.w3.org/1999/xlink" xmlns:dc="http://purl.org/dc/elements/1.1/" xmlns:svg="http://www.w3.org/2000/svg" id="svg7413" viewBox="0 0 18.593 23.737" version="1.1">
  <defs id="defs7415">
    <linearGradient id="linearGradient5302-8">
      <stop id="stop5304" stop-color="#888a85" offset="0"/>
      <stop id="stop5306" stop-color="#d3d7cf" stop-opacity="0" offset="1"/>
    </linearGradient>
    <linearGradient id="linearGradient7603">
      <stop id="stop7605" stop-color="#a0a0a0" offset="0"/>
      <stop id="stop7607" stop-color="#5a5a5a" offset="1"/>
    </linearGradient>
    <radialGradient id="radialGradient5726" xlink:href="#linearGradient5302-8" gradientUnits="userSpaceOnUse" cy="15.259" cx="27.577" gradientTransform="matrix(1.4785 0 0 1.4785 -13.195 -7.3291)" r="3.8335"/>
    <radialGradient id="radialGradient5728" xlink:href="#linearGradient5302-8" gradientUnits="userSpaceOnUse" cy="15.048" cx="27.577" gradientTransform="matrix(1.3418 0 0 1.3418 -9.426 -5.2229)" r="3.8335"/>
    <radialGradient id="radialGradient5730" gradientUnits="userSpaceOnUse" cy="34.157" cx="4.6022" gradientTransform="matrix(1.0789 0 0 .35965 7.0345 8.7165)" r="8.3415">
      <stop id="stop4192" offset="0"/>
      <stop id="stop4194" stop-opacity="0" offset="1"/>
    </radialGradient>
    <radialGradient id="radialGradient5732" gradientUnits="userSpaceOnUse" cy="16.539" cx="16.184" gradientTransform="matrix(2.4962 -.051967 .034952 1.3187 -33.818 -14.924)" r="13.477">
      <stop id="stop6546" stop-color="#fafafa" offset="0"/>
      <stop id="stop6548" stop-color="#c8c8c8" offset="1"/>
    </radialGradient>
    <linearGradient id="linearGradient5734" y2="45" xlink:href="#linearGradient7603" gradientUnits="userSpaceOnUse" x2="24.5" gradientTransform="matrix(.57793 0 0 .51220 -2.1936 -.29268)" y1="3" x1="24.559"/>
    <linearGradient id="linearGradient5736" y2="44" gradientUnits="userSpaceOnUse" x2="24.559" gradientTransform="matrix(.54954 0 0 .48718 -1.5759 .30769)" y1="4.1102" x1="23.823">
      <stop id="stop6969" stop-color="#fff" offset="0"/>
      <stop id="stop6971" stop-color="#fff" stop-opacity="0" offset="1"/>
    </linearGradient>
    <linearGradient id="linearGradient5738" y2="644.33" gradientUnits="userSpaceOnUse" x2="805.79" y1="640.99" x1="805.24">
      <stop id="stop4642" stop-color="#888a85" offset="0"/>
      <stop id="stop4644" stop-color="#888a85" stop-opacity="0" offset="1"/>
    </linearGradient>
    <linearGradient id="linearGradient5740" y2="646.55" xlink:href="#linearGradient7603" gradientUnits="userSpaceOnUse" x2="805.72" y1="637.36" x1="798.31"/>
  </defs>
  <g id="layer1" transform="translate(-732.88 -739.06)">
    <g id="g5688" transform="translate(-59.926 108.79)">
      <g id="g5692">
        <path id="path5694" stroke-linejoin="round" d="m862.19 615-4.1423-0.28284s-0.16096 0.14905-0.16265 0.30384c-0.002 0.15478 0.15586 0.29784 0.15586 0.29784l4.1491-0.31176h2.0894l-2.0894-0.007z" fill-rule="evenodd" transform="translate(-59,28.5)" stroke="#2e3436" stroke-width=".52833" fill="#2e3436"/>
        <g id="g5696" transform="translate(-59,28.5)">
          <path id="path5698" stroke-linejoin="round" d="m858.2 610.72-0.28284 4.1423s0.14906 0.16096 0.30384 0.16265c0.15478 0.002 0.29784-0.15586 0.29784-0.15586l-0.31176-4.1491v-2.0894l-0.007 2.0894z" fill-rule="evenodd" stroke="#2e3436" stroke-width=".52833" fill="#2e3436"/>
          <g id="g5700" style="enable-background:new" transform="matrix(0 -1 1 0 971.44 699.43)">
            <g id="g5702" transform="matrix(.44966 -.22409 .22409 .44966 75.597 -117.31)" stroke-miterlimit="10" fill="none">
              <path id="path5704" style="color:#000000" d="m30.911 18.605c0 1.841-1.4925 3.3335-3.3335 3.3335s-3.3335-1.4925-3.3335-3.3335 1.4925-3.3335 3.3335-3.3335 3.3335 1.4925 3.3335 3.3335z" transform="matrix(0 -1.7738 -1.7738 0 57 70.164)" stroke="url(#radialGradient5726)" stroke-width="1.5866"/>
              <path id="path5706" style="color:#000000" d="m30.911 18.605c0 1.841-1.4925 3.3335-3.3335 3.3335s-3.3335-1.4925-3.3335-3.3335 1.4925-3.3335 3.3335-3.3335 3.3335 1.4925 3.3335 3.3335z" transform="matrix(0 -3.4678 -3.4678 0 88.518 116.88)" stroke="url(#radialGradient5728)" stroke-width=".8115"/>
            </g>
          </g>
        </g>
        <g id="g5708" transform="translate(833.7 628.05)">
          <g id="g5712" transform="matrix(.64687 0 0 .64687 -35.887 10.429)">
            <path id="path5714" opacity=".5" d="m21 21.001a9 3 0 0 1 -18 0 9 3 0 1 1 18 0z" fill="url(#radialGradient5730)"/>
            <path id="path5716" d="m12.02 1.5c-2.525 0-5.0609 0.5108-6.249 1.5206-1.8031 3.371-1.2192 6.4991-1.087 9.7474-0.064305 1.5366-0.24827 3.0732 0 4.6098 0.2453 2.86 3.7077 5.122 7.3 5.122 3.592 0 7.136-2.262 7.381-5.122 0.169-0.847 0.167-2.378 0-4.498 0.059-3.88 0.71-6.4489-1.114-9.8594-1.189-1.0098-3.706-1.5206-6.231-1.5206z" stroke="url(#linearGradient5734)" fill="url(#radialGradient5732)"/>
            <path id="path5718" opacity=".7" d="m11.939 2.5c-2.2654 0-4.5196 0.5126-5.4779 1.2636-1.4611 3.2364-0.8783 5.8601-0.6891 8.8604 0.0026 0.04128 0.000159 0.08077 0 0.12179-0.094269 2.2095-0.35171 2.2015-0.109 4.2324 0.71874 3.1344 3.374 3.9981 6.242 4.5216 3.1583 0 6.18-1.9649 6.39-4.4151 0.26865-1.3992 0.08376-2.8212 0.026-4.2324-0.000157-0.04103-0.0048-0.0807 0-0.12179 0.318-2.731 0.679-5.731-0.921-8.9674-0.959-0.7525-3.195-1.2636-5.461-1.2636z" stroke="url(#linearGradient5736)" fill="none"/>
          </g>
          <path id="path5720" stroke-linejoin="round" d="m808.22 643.95c0 1.4239-1.2242 2.5781-2.7344 2.5781s-2.7344-1.1543-2.7344-2.5781 1.2242-2.5781 2.7344-2.5781 2.7344 1.1543 2.7344 2.5781z" transform="translate(-833.54 -628.17)" stroke="url(#linearGradient5740)" stroke-linecap="round" stroke-width=".5" fill="url(#linearGradient5738)"/>
          <path id="path5722" stroke-linejoin="round" d="m804.31 643.89c0 0.0976-0.089 0.17678-0.19887 0.17678-0.10984 0-0.19888-0.0791-0.19888-0.17678 0-0.0976 0.089-0.17677 0.19888-0.17677 0.10983 0 0.19887 0.0791 0.19887 0.17677z" transform="matrix(1.0775 0 0 1.2122 -895.59 -764.73)" stroke="#5f5f5f" stroke-linecap="round" stroke-width=".5" fill="#fff"/>
          <path id="path5724" stroke-linejoin="round" d="m804.31 643.89c0 0.0976-0.089 0.17678-0.19887 0.17678-0.10984 0-0.19888-0.0791-0.19888-0.17678 0-0.0976 0.089-0.17677 0.19888-0.17677 0.10983 0 0.19887 0.0791 0.19887 0.17677z" transform="matrix(1.0775 0 0 1.2122 -893.31 -764.73)" stroke="#5f5f5f" stroke-linecap="round" stroke-width=".5" fill="#fff"/>
        </g>
      </g>
    </g>
  </g>
  <metadata>
    <rdf:RDF>
      <cc:Work>
        <dc:format>image/svg+xml</dc:format>
        <dc:type rdf:resource="http://purl.org/dc/dcmitype/StillImage"/>
        <cc:license rdf:resource="http://creativecommons.org/licenses/publicdomain/"/>
        <dc:publisher>
          <cc:Agent rdf:about="http://openclipart.org/">
            <dc:title>Openclipart</dc:title>
          </cc:Agent>
        </dc:publisher>
        <dc:title>Wireless plug</dc:title>
        <dc:date>2011-07-29T10:26:31</dc:date>
        <dc:description>A wireless smart plug clipart influenced by Tango project guidelines</dc:description>
        <dc:source>http://openclipart.org/detail/152359/wireless-plug-by-b.gaultier</dc:source>
        <dc:creator>
          <cc:Agent>
            <dc:title>b.gaultier</dc:title>
          </cc:Agent>
        </dc:creator>
        <dc:subject>
          <rdf:Bag>
            <rdf:li>clip art</rdf:li>
            <rdf:li>clipart</rdf:li>
            <rdf:li>plug</rdf:li>
            <rdf:li>smart plug</rdf:li>
            <rdf:li>tango</rdf:li>
            <rdf:li>wireless</rdf:li>
          </rdf:Bag>
        </dc:subject>
      </cc:Work>
      <cc:License rdf:about="http://creativecommons.org/licenses/publicdomain/">
        <cc:permits rdf:resource="http://creativecommons.org/ns#Reproduction"/>
        <cc:permits rdf:resource="http://creativecommons.org/ns#Distribution"/>
        <cc:permits rdf:resource="http://creativecommons.org/ns#DerivativeWorks"/>
      </cc:License>
    </rdf:RDF>
  </metadata>
</svg>
